<svg version="1.1" xmlns="http://www.w3.org/2000/svg" viewBox="0 0 1083.2937218075292 395.3140739373331" width="3249.8811654225874" height="1185.9422218119994">
  <!-- svg-source:excalidraw -->
  
  <defs>
    <style class="style-fonts">
      @font-face {
        font-family: "Virgil";
        src: url("https://excalidraw.com/Virgil.woff2");
      }
      @font-face {
        font-family: "Cascadia";
        src: url("https://excalidraw.com/Cascadia.woff2");
      }
      @font-face {
        font-family: "Assistant";
        src: url("https://excalidraw.com/Assistant-Regular.woff2");
      }
    </style>
    
  </defs>
  <rect x="0" y="0" width="1083.2937218075292" height="395.3140739373331" fill="#ffffff"></rect><g stroke-linecap="round" transform="translate(141.5840218900487 153.8873057289922) rotate(0 114.33810379333897 33.80052213620306)"><path d="M16.9 0 C73.02 -2.42, 131.1 -1.65, 211.78 0 M16.9 0 C75.65 0.84, 135.27 0.54, 211.78 0 M211.78 0 C222.39 0.92, 229.73 5.59, 228.68 16.9 M211.78 0 C222.28 1.03, 228.23 5.62, 228.68 16.9 M228.68 16.9 C229.1 28.61, 229.5 41.98, 228.68 50.7 M228.68 16.9 C229.51 26.62, 229.06 36.14, 228.68 50.7 M228.68 50.7 C226.69 63.93, 223.2 65.9, 211.78 67.6 M228.68 50.7 C227.39 62.02, 223.33 67.86, 211.78 67.6 M211.78 67.6 C157.72 67.99, 100.44 67.37, 16.9 67.6 M211.78 67.6 C151.87 67.95, 92.8 69.76, 16.9 67.6 M16.9 67.6 C5.49 66.04, 1.94 61.58, 0 50.7 M16.9 67.6 C6.12 65.73, 0.64 60.75, 0 50.7 M0 50.7 C0.22 44.18, -0.78 34.23, 0 16.9 M0 50.7 C-1.14 43.1, 0.54 35.65, 0 16.9 M0 16.9 C-0.91 6.07, 6.95 1.44, 16.9 0 M0 16.9 C2 7.59, 7.2 1.25, 16.9 0" stroke="#1971c2" stroke-width="1" fill="none"></path></g><g transform="translate(229.4321430784072 175.18782786519523) rotate(0 26.48998260498047 12.5)"><text x="26.48998260498047" y="0" font-family="Virgil, Segoe UI Emoji" font-size="20px" fill="#e03131" text-anchor="middle" style="white-space: pre;" direction="ltr" dominant-baseline="text-before-edge">ECDH</text></g><g stroke-linecap="round" transform="translate(270.60606759988264 10) rotate(0 110.05757116156974 32.177416550875904)"><path d="M16.09 0 C65.42 -0.18, 113.18 -0.2, 204.03 0 M16.09 0 C60.44 2.18, 105.98 1.7, 204.03 0 M204.03 0 C214.09 0.9, 219.73 5.35, 220.12 16.09 M204.03 0 C215.87 0.07, 219.21 5.84, 220.12 16.09 M220.12 16.09 C219.65 25.89, 220.87 36.7, 220.12 48.27 M220.12 16.09 C219.23 28.61, 220.3 38.32, 220.12 48.27 M220.12 48.27 C219 59.04, 215.01 64.58, 204.03 64.35 M220.12 48.27 C219.75 60.98, 213.57 65.83, 204.03 64.35 M204.03 64.35 C134.6 65.56, 66.28 63.67, 16.09 64.35 M204.03 64.35 C164.09 65.34, 125.27 65.92, 16.09 64.35 M16.09 64.35 C5.78 62.72, 0.56 57.93, 0 48.27 M16.09 64.35 C3.8 65.22, 1.21 59.39, 0 48.27 M0 48.27 C-1.54 38.24, 1.05 23.02, 0 16.09 M0 48.27 C-0.73 39.59, 0.39 31.21, 0 16.09 M0 16.09 C1.74 7.06, 6.73 1.08, 16.09 0 M0 16.09 C-0.07 7.63, 6.48 1.37, 16.09 0" stroke="#1971c2" stroke-width="1" fill="none"></path></g><g transform="translate(282.6637226847922 17.177416550875876) rotate(0 97.99991607666016 25)"><text x="97.99991607666016" y="0" font-family="Virgil, Segoe UI Emoji" font-size="20px" fill="#1971c2" text-anchor="middle" style="white-space: pre;" direction="ltr" dominant-baseline="text-before-edge">publicKey (array of </text><text x="97.99991607666016" y="25" font-family="Virgil, Segoe UI Emoji" font-size="20px" fill="#1971c2" text-anchor="middle" style="white-space: pre;" direction="ltr" dominant-baseline="text-before-edge">two elements)</text></g><g stroke-linecap="round"><g transform="translate(243.16721166972593 104.21769953343772) rotate(0 -0.44580281989499326 19.782500132839004)"><path d="M-0.05 -0.34 C-0.13 6.24, -0.35 32.37, -0.52 39.06 M-0.74 0.67 C-0.86 7.34, -0.63 33.13, -0.75 39.5" stroke="#1e1e1e" stroke-width="1" fill="none"></path></g><g transform="translate(243.16721166972593 104.21769953343772) rotate(0 -0.44580281989499326 19.782500132839004)"><path d="M-7.45 20.88 C-6.18 27, -4.52 31.44, -0.75 39.5 M-7.45 20.88 C-5.25 27.55, -2.86 33.77, -0.75 39.5" stroke="#1e1e1e" stroke-width="1" fill="none"></path></g><g transform="translate(243.16721166972593 104.21769953343772) rotate(0 -0.44580281989499326 19.782500132839004)"><path d="M6.08 20.93 C3.4 27.03, 1.11 31.45, -0.75 39.5 M6.08 20.93 C3.6 27.58, 1.3 33.79, -0.75 39.5" stroke="#1e1e1e" stroke-width="1" fill="none"></path></g></g><mask></mask><g transform="translate(288.56892663291774 106.76455453228203) rotate(0 31.809967041015625 12.5)"><text x="0" y="0" font-family="Virgil, Segoe UI Emoji" font-size="20px" fill="#1e1e1e" text-anchor="start" style="white-space: pre;" direction="ltr" dominant-baseline="text-before-edge">Inputs</text></g><g transform="translate(299.85516274492034 255.3314622387781) rotate(0 34.84996032714844 12.5)"><text x="0" y="0" font-family="Virgil, Segoe UI Emoji" font-size="20px" fill="#1e1e1e" text-anchor="start" style="white-space: pre;" direction="ltr" dominant-baseline="text-before-edge">Output</text></g><g stroke-linecap="round"><g transform="translate(238.8742956262929 254.06110846868904) rotate(0 0.2229014099474398 20.511057519056408)"><path d="M-0.11 0 C0.04 6.8, 0.66 34.18, 0.71 41.04 M-0.82 -0.48 C-0.71 6.39, 0.32 34.7, 0.42 41.75" stroke="#1e1e1e" stroke-width="1" fill="none"></path></g><g transform="translate(238.8742956262929 254.06110846868904) rotate(0 0.2229014099474398 20.511057519056408)"><path d="M-7.1 22.66 C-5.06 28.25, -3.02 32.46, 0.42 41.75 M-7.1 22.66 C-4.32 28.62, -2.21 35.04, 0.42 41.75" stroke="#1e1e1e" stroke-width="1" fill="none"></path></g><g transform="translate(238.8742956262929 254.06110846868904) rotate(0 0.2229014099474398 20.511057519056408)"><path d="M6.92 22.29 C5.23 27.96, 3.52 32.28, 0.42 41.75 M6.92 22.29 C5.21 28.39, 2.82 34.94, 0.42 41.75" stroke="#1e1e1e" stroke-width="1" fill="none"></path></g></g><mask></mask><g stroke-linecap="round" transform="translate(142.31464317820974 320.9592408355813) rotate(0 110.05757116156975 32.177416550875904)"><path d="M16.09 0 C68.92 -1.7, 122.04 -1, 204.03 0 M16.09 0 C80.29 0.87, 144.99 1.15, 204.03 0 M204.03 0 C215.43 1.95, 218.13 7.33, 220.12 16.09 M204.03 0 C214.93 -1.95, 218.83 5.42, 220.12 16.09 M220.12 16.09 C221.88 25.12, 221.43 37.61, 220.12 48.27 M220.12 16.09 C220.48 25.32, 219.54 32.41, 220.12 48.27 M220.12 48.27 C218.99 60.86, 214.61 62.8, 204.03 64.35 M220.12 48.27 C222.35 58.55, 215.24 62.48, 204.03 64.35 M204.03 64.35 C143.16 64.12, 81.14 64.4, 16.09 64.35 M204.03 64.35 C154.66 63.28, 102.7 62.58, 16.09 64.35 M16.09 64.35 C7.04 63.71, -0.91 59.43, 0 48.27 M16.09 64.35 C6.88 66.01, 2 60.95, 0 48.27 M0 48.27 C1.8 37.39, 1.02 23.4, 0 16.09 M0 48.27 C0.55 38.86, -0.04 28.98, 0 16.09 M0 16.09 C0.59 5.15, 5.12 -1.08, 16.09 0 M0 16.09 C1.24 6.73, 6 0.76, 16.09 0" stroke="#1971c2" stroke-width="1" fill="none"></path></g><g transform="translate(203.58225920061932 340.63665738645716) rotate(0 48.78995513916015 12.5)"><text x="48.789955139160156" y="0" font-family="Virgil, Segoe UI Emoji" font-size="20px" fill="#2f9e44" text-anchor="middle" style="white-space: pre;" direction="ltr" dominant-baseline="text-before-edge">sharedKey</text></g><g stroke-linecap="round" transform="translate(551.7094295497407 22.989525621383052) rotate(0 110.05757116156974 42.5)"><path d="M21.25 0 C73.2 -1.04, 126.96 0.24, 198.87 0 M21.25 0 C83.96 -0.75, 148.73 -2.58, 198.87 0 M198.87 0 C211.91 0.05, 220.37 7.31, 220.12 21.25 M198.87 0 C212.66 1.99, 218.93 8.56, 220.12 21.25 M220.12 21.25 C220.05 37.45, 221.24 51.28, 220.12 63.75 M220.12 21.25 C219.8 29.49, 220.85 39.09, 220.12 63.75 M220.12 63.75 C220.54 76.29, 213.59 83.94, 198.87 85 M220.12 63.75 C218.55 78.78, 214.24 85.4, 198.87 85 M198.87 85 C132.2 86.05, 69.77 82.61, 21.25 85 M198.87 85 C149.34 84.65, 101.39 85.15, 21.25 85 M21.25 85 C8.82 86.7, 1.36 79, 0 63.75 M21.25 85 C7.01 87.27, 1.12 79.29, 0 63.75 M0 63.75 C-0.27 54.51, 0.3 43.07, 0 21.25 M0 63.75 C-0.25 51.27, 0.42 40.46, 0 21.25 M0 21.25 C0.55 7.74, 8.6 -0.69, 21.25 0 M0 21.25 C-0.32 5.82, 5.22 -1.18, 21.25 0" stroke="#1971c2" stroke-width="1" fill="none"></path></g><g transform="translate(560.0371041659002 27.989525621383052) rotate(0 101.72989654541016 37.5)"><text x="101.72989654541016" y="0" font-family="Virgil, Segoe UI Emoji" font-size="20px" fill="#1971c2" text-anchor="middle" style="white-space: pre;" direction="ltr" dominant-baseline="text-before-edge">1. Convert the </text><text x="101.72989654541016" y="25" font-family="Virgil, Segoe UI Emoji" font-size="20px" fill="#1971c2" text-anchor="middle" style="white-space: pre;" direction="ltr" dominant-baseline="text-before-edge">privateKey to its </text><text x="101.72989654541016" y="50" font-family="Virgil, Segoe UI Emoji" font-size="20px" fill="#1971c2" text-anchor="middle" style="white-space: pre;" direction="ltr" dominant-baseline="text-before-edge">bytes representation</text></g><g stroke-linecap="round" transform="translate(550.1254502962602 136.86405287536127) rotate(0 110.05757116156974 32.177416550875904)"><path d="M16.09 0 C76.34 -0.8, 136.19 -3.46, 204.03 0 M16.09 0 C90.36 1.62, 165.88 1.71, 204.03 0 M204.03 0 C214.43 1.73, 219.08 6.64, 220.12 16.09 M204.03 0 C216.36 -0.75, 221 5.45, 220.12 16.09 M220.12 16.09 C218.56 25.39, 222.19 36.81, 220.12 48.27 M220.12 16.09 C220.64 22.42, 220.71 29.85, 220.12 48.27 M220.12 48.27 C218.75 59.74, 215.8 64.7, 204.03 64.35 M220.12 48.27 C221.63 58.24, 213.85 62.47, 204.03 64.35 M204.03 64.35 C130.72 64.45, 57.72 61.86, 16.09 64.35 M204.03 64.35 C144.44 66.56, 83.8 66.25, 16.09 64.35 M16.09 64.35 C5.3 66.33, 0.97 60.18, 0 48.27 M16.09 64.35 C4.01 64.28, -0.27 58.66, 0 48.27 M0 48.27 C-0.43 37.56, -0.26 25.45, 0 16.09 M0 48.27 C0.1 40.68, 0.58 32.08, 0 16.09 M0 16.09 C-0.28 4.26, 3.74 -1.02, 16.09 0 M0 16.09 C1.42 6.22, 4.93 1.22, 16.09 0" stroke="#1971c2" stroke-width="1" fill="none"></path></g><g transform="translate(567.1930922586112 144.04146942623714) rotate(0 92.98992919921875 25)"><text x="92.98992919921875" y="0" font-family="Virgil, Segoe UI Emoji" font-size="20px" fill="#1971c2" text-anchor="middle" style="white-space: pre;" direction="ltr" dominant-baseline="text-before-edge">2. Perform scalar </text><text x="92.98992919921875" y="25" font-family="Virgil, Segoe UI Emoji" font-size="20px" fill="#1971c2" text-anchor="middle" style="white-space: pre;" direction="ltr" dominant-baseline="text-before-edge">multiplication</text></g><g stroke-linecap="round" transform="translate(554.5545838679946 220.6873664272789) rotate(0 110.05757116156974 55)"><path d="M27.5 0 C84.61 1.79, 136.09 0.52, 192.62 0 M27.5 0 C77.26 0.68, 126.83 0.46, 192.62 0 M192.62 0 C212.34 -0.66, 220.88 9.24, 220.12 27.5 M192.62 0 C211.51 1.45, 218.5 7.15, 220.12 27.5 M220.12 27.5 C219.07 42.83, 220.24 54.71, 220.12 82.5 M220.12 27.5 C219.59 39.89, 220.79 51.71, 220.12 82.5 M220.12 82.5 C221.44 100.18, 210.16 108.36, 192.62 110 M220.12 82.5 C222.13 101.92, 209.01 109.45, 192.62 110 M192.62 110 C129.67 110.56, 67.31 110.98, 27.5 110 M192.62 110 C129.01 111.88, 65.95 111.49, 27.5 110 M27.5 110 C7.99 109.93, -0.23 100.54, 0 82.5 M27.5 110 C10.34 110.33, -0.18 100.4, 0 82.5 M0 82.5 C-1.02 65.47, 1.25 46.83, 0 27.5 M0 82.5 C-0.56 63.63, -1.23 45.36, 0 27.5 M0 27.5 C1.23 9.92, 8.79 1.06, 27.5 0 M0 27.5 C1.76 9.55, 7.64 0.54, 27.5 0" stroke="#1971c2" stroke-width="1" fill="none"></path></g><g transform="translate(561.9422331545643 225.6873664272789) rotate(0 102.669921875 50)"><text x="102.669921875" y="0" font-family="Virgil, Segoe UI Emoji" font-size="20px" fill="#1971c2" text-anchor="middle" style="white-space: pre;" direction="ltr" dominant-baseline="text-before-edge">3. Shared Key is the</text><text x="102.669921875" y="25" font-family="Virgil, Segoe UI Emoji" font-size="20px" fill="#1971c2" text-anchor="middle" style="white-space: pre;" direction="ltr" dominant-baseline="text-before-edge">two output elements</text><text x="102.669921875" y="50" font-family="Virgil, Segoe UI Emoji" font-size="20px" fill="#1971c2" text-anchor="middle" style="white-space: pre;" direction="ltr" dominant-baseline="text-before-edge">([0] and [1]) of the</text><text x="102.669921875" y="75" font-family="Virgil, Segoe UI Emoji" font-size="20px" fill="#1971c2" text-anchor="middle" style="white-space: pre;" direction="ltr" dominant-baseline="text-before-edge">scalar multiplciation</text></g><g transform="translate(426.6654259855982 132.2871750764661) rotate(0 49.669944763183594 12.5)"><text x="0" y="0" font-family="Virgil, Segoe UI Emoji" font-size="20px" fill="#1e1e1e" text-anchor="start" style="white-space: pre;" direction="ltr" dominant-baseline="text-before-edge">Processing</text></g><g stroke-linecap="round"><g transform="translate(409.4888137255391 192.9214962134585) rotate(0 54.0494641083767 -0.8482636989667753)"><path d="M-0.62 0.77 C17.57 0.25, 90.74 -1.69, 108.94 -2.09 M1.26 0.13 C19.38 0.29, 90.63 -0.69, 108.43 -0.76" stroke="#1e1e1e" stroke-width="1" fill="none"></path></g><g transform="translate(409.4888137255391 192.9214962134585) rotate(0 54.0494641083767 -0.8482636989667753)"><path d="M80.33 9.76 C89.5 8.32, 95.54 4.7, 108.43 -0.76 M80.33 9.76 C88.14 5.51, 96.81 4.13, 108.43 -0.76" stroke="#1e1e1e" stroke-width="1" fill="none"></path></g><g transform="translate(409.4888137255391 192.9214962134585) rotate(0 54.0494641083767 -0.8482636989667753)"><path d="M80.14 -10.76 C89.54 -6.38, 95.64 -4.16, 108.43 -0.76 M80.14 -10.76 C88.06 -8.78, 96.79 -3.92, 108.43 -0.76" stroke="#1e1e1e" stroke-width="1" fill="none"></path></g></g><mask></mask><g stroke-linecap="round" transform="translate(10 10.18696194196309) rotate(0 110.05757116156975 32.177416550875904)"><path d="M16.09 0 C90.84 2.6, 160.34 1.58, 204.03 0 M16.09 0 C74.22 2.66, 130.74 1.2, 204.03 0 M204.03 0 C214.98 1.36, 220.66 7.29, 220.12 16.09 M204.03 0 C212.74 -1.44, 218.46 5.7, 220.12 16.09 M220.12 16.09 C219.26 27.12, 219.4 35.44, 220.12 48.27 M220.12 16.09 C220.75 24.26, 220.72 32.98, 220.12 48.27 M220.12 48.27 C221.99 60.05, 213.33 65.67, 204.03 64.35 M220.12 48.27 C220.16 59.75, 216.2 62.19, 204.03 64.35 M204.03 64.35 C146.1 66.61, 87 65.08, 16.09 64.35 M204.03 64.35 C159.86 64.34, 114.42 64.35, 16.09 64.35 M16.09 64.35 C7.16 64.43, -1.57 60.74, 0 48.27 M16.09 64.35 C3.11 64.28, -2.29 59.8, 0 48.27 M0 48.27 C1.5 42.64, -1.67 34.87, 0 16.09 M0 48.27 C-0.06 35.34, 0.59 24.06, 0 16.09 M0 16.09 C0.97 6.51, 6.83 0.74, 16.09 0 M0 16.09 C-2.09 5.03, 7.04 1.8, 16.09 0" stroke="#1971c2" stroke-width="1" fill="none"></path></g><g transform="translate(69.32762121039787 29.864378492838966) rotate(0 50.729949951171875 12.5)"><text x="50.729949951171875" y="0" font-family="Virgil, Segoe UI Emoji" font-size="20px" fill="#1971c2" text-anchor="middle" style="white-space: pre;" direction="ltr" dominant-baseline="text-before-edge">privateKey</text></g><g stroke-linecap="round" transform="translate(853.1785794843897 135.00339353669267) rotate(0 110.05757116156974 32.177416550875904)"><path d="M16.09 0 C77.06 -3.77, 135.77 -3.55, 204.03 0 M16.09 0 C68.34 0.66, 118.92 -0.64, 204.03 0 M204.03 0 C216.21 1.54, 218.98 4.24, 220.12 16.09 M204.03 0 C215.69 -0.48, 218.55 6.74, 220.12 16.09 M220.12 16.09 C219.77 23.6, 221.41 34.51, 220.12 48.27 M220.12 16.09 C218.99 28.53, 220.27 40.67, 220.12 48.27 M220.12 48.27 C220.59 60.82, 213.59 63.68, 204.03 64.35 M220.12 48.27 C220.34 58.71, 212.98 64.53, 204.03 64.35 M204.03 64.35 C139.45 65.33, 76.5 65.74, 16.09 64.35 M204.03 64.35 C153.36 64.66, 103.01 62.9, 16.09 64.35 M16.09 64.35 C5.44 63.59, 0.99 60.43, 0 48.27 M16.09 64.35 C7.61 66.12, -0.1 57.42, 0 48.27 M0 48.27 C1.75 38.04, -1.57 26.6, 0 16.09 M0 48.27 C-0.28 35.55, -0.33 23.33, 0 16.09 M0 16.09 C1.6 3.86, 6.82 -1.51, 16.09 0 M0 16.09 C-0.19 6.45, 4.38 -0.43, 16.09 0" stroke="#1971c2" stroke-width="1" fill="none"></path></g><g transform="translate(865.3662394521118 154.6808100875686) rotate(0 97.86991119384766 12.5)"><text x="97.86991119384766" y="0" font-family="Virgil, Segoe UI Emoji" font-size="20px" fill="#1971c2" text-anchor="middle" style="white-space: pre;" direction="ltr" dominant-baseline="text-before-edge">pubKey * privateKey</text></g><g stroke-linecap="round"><g transform="translate(785.6942556521292 169.49482019809443) rotate(0 18.9027027744238 -0.6071622858810883)"><path d="M0.23 -0.47 C6.59 -0.64, 31.7 -1.17, 37.96 -1.32 M-0.32 0.48 C6 0.42, 31.32 -0.45, 37.61 -0.68" stroke="#1e1e1e" stroke-width="1" fill="none"></path></g><g transform="translate(785.6942556521292 169.49482019809443) rotate(0 18.9027027744238 -0.6071622858810883)"><path d="M20.08 6.41 C23.97 4.75, 29.27 2.55, 37.61 -0.68 M20.08 6.41 C24.5 4.41, 29.66 2.77, 37.61 -0.68" stroke="#1e1e1e" stroke-width="1" fill="none"></path></g><g transform="translate(785.6942556521292 169.49482019809443) rotate(0 18.9027027744238 -0.6071622858810883)"><path d="M19.62 -6.52 C23.6 -4.73, 29.02 -3.48, 37.61 -0.68 M19.62 -6.52 C24.18 -5.12, 29.46 -3.36, 37.61 -0.68" stroke="#1e1e1e" stroke-width="1" fill="none"></path></g></g><mask></mask></svg>