<svg version="1.1" xmlns="http://www.w3.org/2000/svg" viewBox="0 0 1311.6468445088794 527.5025282307936" width="3934.9405335266383" height="1582.5075846923808">
  <!-- svg-source:excalidraw -->
  
  <defs>
    <style class="style-fonts">
      @font-face {
        font-family: "Virgil";
        src: url("https://excalidraw.com/Virgil.woff2");
      }
      @font-face {
        font-family: "Cascadia";
        src: url("https://excalidraw.com/Cascadia.woff2");
      }
      @font-face {
        font-family: "Assistant";
        src: url("https://excalidraw.com/Assistant-Regular.woff2");
      }
    </style>
    
  </defs>
  <rect x="0" y="0" width="1311.6468445088794" height="527.5025282307936" fill="#ffffff"></rect><g stroke-linecap="round" transform="translate(371.71429967973404 141.97217110373924) rotate(0 114.33810379333897 33.80052213620303)"><path d="M16.9 0 C94.3 0.3, 169.45 1.45, 211.78 0 M16.9 0 C95.09 -0.8, 172.26 -1.7, 211.78 0 M211.78 0 C222.46 1.34, 229.44 4.19, 228.68 16.9 M211.78 0 C222.29 -1.9, 227.3 5.01, 228.68 16.9 M228.68 16.9 C229.87 23.96, 228.48 29.52, 228.68 50.7 M228.68 16.9 C228.9 30.59, 229.14 42.4, 228.68 50.7 M228.68 50.7 C226.87 59.98, 223.5 66.34, 211.78 67.6 M228.68 50.7 C230.45 63.74, 222.57 65.38, 211.78 67.6 M211.78 67.6 C154.19 68.41, 102.29 66.96, 16.9 67.6 M211.78 67.6 C137.37 67.95, 63.08 67.79, 16.9 67.6 M16.9 67.6 C6.7 66.46, 0.11 63.42, 0 50.7 M16.9 67.6 C5.63 67.24, -0.1 62.57, 0 50.7 M0 50.7 C1.89 39.19, -0.32 32.7, 0 16.9 M0 50.7 C-0.17 39.21, -0.72 28.73, 0 16.9 M0 16.9 C0.52 6.35, 5.43 -1.84, 16.9 0 M0 16.9 C0.59 5.22, 5.06 -0.12, 16.9 0" stroke="#1971c2" stroke-width="1" fill="none"></path></g><g transform="translate(403.07248403947926 163.27269323994233) rotate(0 82.97991943359375 12.5)"><text x="82.97991943359375" y="0" font-family="Virgil, Segoe UI Emoji" font-size="20px" fill="#e03131" text-anchor="middle" style="white-space: pre;" direction="ltr" dominant-baseline="text-before-edge">PoseidonHasher13</text></g><g stroke-linecap="round"><g transform="translate(472.1136882907242 89.15377443553837) rotate(0 -0.155753916169715 21.356895369162203)"><path d="M0.54 0.22 C0.6 7.23, 0.38 35.29, 0.21 42.43 M0.16 -0.15 C0.2 6.91, 0.23 35.93, 0.05 42.99" stroke="#1e1e1e" stroke-width="1" fill="none"></path></g><g transform="translate(472.1136882907242 89.15377443553837) rotate(0 -0.155753916169715 21.356895369162203)"><path d="M-7.06 22.85 C-4.67 29.25, -3.64 33.48, 0.05 42.99 M-7.06 22.85 C-4.57 29.86, -2.1 37.53, 0.05 42.99" stroke="#1e1e1e" stroke-width="1" fill="none"></path></g><g transform="translate(472.1136882907242 89.15377443553837) rotate(0 -0.155753916169715 21.356895369162203)"><path d="M7.55 22.99 C5.97 29.42, 3.02 33.62, 0.05 42.99 M7.55 22.99 C4.67 29.89, 1.78 37.51, 0.05 42.99" stroke="#1e1e1e" stroke-width="1" fill="none"></path></g></g><mask></mask><g transform="translate(518.6992044226031 94.84941990702907) rotate(0 31.809967041015625 12.5)"><text x="0" y="0" font-family="Virgil, Segoe UI Emoji" font-size="20px" fill="#1e1e1e" text-anchor="start" style="white-space: pre;" direction="ltr" dominant-baseline="text-before-edge">Inputs</text></g><g transform="translate(529.9854405346057 243.41632761352514) rotate(0 34.84996032714844 12.5)"><text x="0" y="0" font-family="Virgil, Segoe UI Emoji" font-size="20px" fill="#1e1e1e" text-anchor="start" style="white-space: pre;" direction="ltr" dominant-baseline="text-before-edge">Output</text></g><g stroke-linecap="round"><g transform="translate(469.2808666798412 228.73145951518904) rotate(0 0.2229014099474398 20.511057519056408)"><path d="M0.21 -0.4 C0.28 6.3, 0.28 33.69, 0.27 40.57 M-0.35 0.59 C-0.35 7.31, -0.53 34.23, -0.26 41.03" stroke="#1e1e1e" stroke-width="1" fill="none"></path></g><g transform="translate(469.2808666798412 228.73145951518904) rotate(0 0.2229014099474398 20.511057519056408)"><path d="M-7.53 21.85 C-6.22 26.71, -4.35 31.63, -0.26 41.03 M-7.53 21.85 C-6.06 27.41, -3.59 32.3, -0.26 41.03" stroke="#1e1e1e" stroke-width="1" fill="none"></path></g><g transform="translate(469.2808666798412 228.73145951518904) rotate(0 0.2229014099474398 20.511057519056408)"><path d="M6.5 21.67 C4.01 26.6, 2.08 31.57, -0.26 41.03 M6.5 21.67 C4.14 27.26, 2.78 32.2, -0.26 41.03" stroke="#1e1e1e" stroke-width="1" fill="none"></path></g></g><mask></mask><g stroke-linecap="round" transform="translate(372.4449209678951 294.6578017815974) rotate(0 110.05757116156974 32.177416550875876)"><path d="M16.09 0 C77.95 -0.58, 142.59 -1.35, 204.03 0 M16.09 0 C68.65 -1.25, 120.45 -0.42, 204.03 0 M204.03 0 C215.93 -0.93, 220.17 7.27, 220.12 16.09 M204.03 0 C215.36 0.06, 218.04 3.08, 220.12 16.09 M220.12 16.09 C221.46 26.07, 217.98 36.58, 220.12 48.27 M220.12 16.09 C220.84 23.72, 220.11 30.42, 220.12 48.27 M220.12 48.27 C218.38 58.91, 214.24 65.22, 204.03 64.35 M220.12 48.27 C219.21 59.62, 215.97 63.04, 204.03 64.35 M204.03 64.35 C146.25 64.26, 89.62 64.07, 16.09 64.35 M204.03 64.35 C160.92 65.6, 120.32 66.25, 16.09 64.35 M16.09 64.35 C7.04 66.05, 0.24 58.75, 0 48.27 M16.09 64.35 C4.35 66.1, 0.6 59.82, 0 48.27 M0 48.27 C-0.07 38.43, 0.19 31.56, 0 16.09 M0 48.27 C0.3 38.5, -0.04 27.65, 0 16.09 M0 16.09 C1.64 6.17, 6.93 0.08, 16.09 0 M0 16.09 C-1.43 3.52, 3.68 -0.3, 16.09 0" stroke="#1971c2" stroke-width="1" fill="none"></path></g><g transform="translate(460.5225116607148 314.33521833247335) rotate(0 21.97998046875 12.5)"><text x="21.97998046875" y="0" font-family="Virgil, Segoe UI Emoji" font-size="20px" fill="#2f9e44" text-anchor="middle" style="white-space: pre;" direction="ltr" dominant-baseline="text-before-edge">hash</text></g><g stroke-linecap="round" transform="translate(781.839707339426 11.074390996129978) rotate(0 110.0575711615698 42.5)"><path d="M21.25 0 C63.47 0.04, 107.8 1.98, 198.87 0 M21.25 0 C73.97 -1.83, 125.55 -0.41, 198.87 0 M198.87 0 C213.56 0.05, 218.31 5.1, 220.12 21.25 M198.87 0 C213.56 -1.45, 221.89 8.86, 220.12 21.25 M220.12 21.25 C217.91 32.16, 217.73 46.78, 220.12 63.75 M220.12 21.25 C219.31 37.65, 219.93 54.57, 220.12 63.75 M220.12 63.75 C219.33 78.46, 214.09 83.86, 198.87 85 M220.12 63.75 C220.25 79.59, 213.02 84.64, 198.87 85 M198.87 85 C144.88 83.78, 95.55 82.92, 21.25 85 M198.87 85 C151.5 86.49, 102.58 85.52, 21.25 85 M21.25 85 C6.2 86.52, 0.52 78.64, 0 63.75 M21.25 85 C6.85 82.88, 0.59 77.5, 0 63.75 M0 63.75 C0.58 50.53, -1.92 40.47, 0 21.25 M0 63.75 C0.94 48.05, 0.91 31.58, 0 21.25 M0 21.25 C-1.24 5.48, 5.62 -0.26, 21.25 0 M0 21.25 C-1.05 5.38, 7.63 -0.67, 21.25 0" stroke="#1971c2" stroke-width="1" fill="none"></path></g><g transform="translate(807.2573630346872 16.074390996129978) rotate(0 84.63991546630854 37.5)"><text x="84.6399154663086" y="0" font-family="Virgil, Segoe UI Emoji" font-size="20px" fill="#1971c2" text-anchor="middle" style="white-space: pre;" direction="ltr" dominant-baseline="text-before-edge">1. Create three </text><text x="84.6399154663086" y="25" font-family="Virgil, Segoe UI Emoji" font-size="20px" fill="#1971c2" text-anchor="middle" style="white-space: pre;" direction="ltr" dominant-baseline="text-before-edge">PoseidonHasher5 </text><text x="84.6399154663086" y="50" font-family="Virgil, Segoe UI Emoji" font-size="20px" fill="#1971c2" text-anchor="middle" style="white-space: pre;" direction="ltr" dominant-baseline="text-before-edge">(T6)</text></g><g stroke-linecap="round" transform="translate(780.2557280859455 124.94891825010825) rotate(0 110.0575711615698 55)"><path d="M27.5 0 C62.85 -1.22, 99.99 0.98, 192.62 0 M27.5 0 C69.6 -1.55, 110.27 -2.57, 192.62 0 M192.62 0 C211.41 -1.26, 221.66 10.71, 220.12 27.5 M192.62 0 C210.48 -2.22, 219.78 7.1, 220.12 27.5 M220.12 27.5 C221.31 41.62, 221.18 53.38, 220.12 82.5 M220.12 27.5 C219.58 44.04, 220.51 59.46, 220.12 82.5 M220.12 82.5 C220.23 102.29, 210.94 109.69, 192.62 110 M220.12 82.5 C220.01 101.43, 210.63 108.26, 192.62 110 M192.62 110 C150.59 109.82, 110.43 110.16, 27.5 110 M192.62 110 C128.64 110.56, 65.81 110.16, 27.5 110 M27.5 110 C8.97 108.16, 0.51 100.47, 0 82.5 M27.5 110 C8.59 109.88, 2.25 101.48, 0 82.5 M0 82.5 C2.11 69.64, 1.53 59.56, 0 27.5 M0 82.5 C-1.05 62.98, -1.16 44.93, 0 27.5 M0 27.5 C-0.91 7.68, 9.64 -0.58, 27.5 0 M0 27.5 C-0.3 8.46, 9.12 -0.49, 27.5 0" stroke="#1971c2" stroke-width="1" fill="none"></path></g><g transform="translate(793.6933804242731 129.94891825010825) rotate(0 96.61991882324224 50)"><text x="96.61991882324219" y="0" font-family="Virgil, Segoe UI Emoji" font-size="20px" fill="#1971c2" text-anchor="middle" style="white-space: pre;" direction="ltr" dominant-baseline="text-before-edge">2. Pass input[1 to </text><text x="96.61991882324219" y="25" font-family="Virgil, Segoe UI Emoji" font-size="20px" fill="#1971c2" text-anchor="middle" style="white-space: pre;" direction="ltr" dominant-baseline="text-before-edge">6]</text><text x="96.61991882324219" y="50" font-family="Virgil, Segoe UI Emoji" font-size="20px" fill="#1971c2" text-anchor="middle" style="white-space: pre;" direction="ltr" dominant-baseline="text-before-edge">Pass in input[6 to </text><text x="96.61991882324219" y="75" font-family="Virgil, Segoe UI Emoji" font-size="20px" fill="#1971c2" text-anchor="middle" style="white-space: pre;" direction="ltr" dominant-baseline="text-before-edge">11]</text></g><g stroke-linecap="round" transform="translate(785.75668897439 270.0092991633953) rotate(0 110.0575711615698 55)"><path d="M27.5 0 C67.69 -0.91, 111.65 -0.44, 192.62 0 M27.5 0 C77.69 1.01, 128.19 2.41, 192.62 0 M192.62 0 C210.54 -1.93, 219.82 7.37, 220.12 27.5 M192.62 0 C209.82 -2.27, 222.14 11.16, 220.12 27.5 M220.12 27.5 C220.47 44.35, 221.42 61.43, 220.12 82.5 M220.12 27.5 C220.46 46.22, 220.4 63.33, 220.12 82.5 M220.12 82.5 C220.02 101.35, 210.67 108.49, 192.62 110 M220.12 82.5 C218.99 102.71, 208.83 109.34, 192.62 110 M192.62 110 C133.68 111.62, 71.12 110.5, 27.5 110 M192.62 110 C130.43 109.67, 68.7 110.41, 27.5 110 M27.5 110 C8.67 109.9, 1.96 101.39, 0 82.5 M27.5 110 C7.41 107.77, 0.11 102.65, 0 82.5 M0 82.5 C0.53 69.13, -0.19 51.39, 0 27.5 M0 82.5 C-0.06 69.68, 0.64 58.04, 0 27.5 M0 27.5 C-0.26 8.56, 9.12 -0.42, 27.5 0 M0 27.5 C1.49 8.3, 6.94 -0.3, 27.5 0" stroke="#1971c2" stroke-width="1" fill="none"></path></g><g transform="translate(804.3643394816629 287.5092991633953) rotate(0 91.44992065429682 37.5)"><text x="91.44992065429688" y="0" font-family="Virgil, Segoe UI Emoji" font-size="20px" fill="#1971c2" text-anchor="middle" style="white-space: pre;" direction="ltr" dominant-baseline="text-before-edge">3. To the third </text><text x="91.44992065429688" y="25" font-family="Virgil, Segoe UI Emoji" font-size="20px" fill="#1971c2" text-anchor="middle" style="white-space: pre;" direction="ltr" dominant-baseline="text-before-edge">hasher5 pass the </text><text x="91.44992065429688" y="50" font-family="Virgil, Segoe UI Emoji" font-size="20px" fill="#1971c2" text-anchor="middle" style="white-space: pre;" direction="ltr" dominant-baseline="text-before-edge">rest</text></g><g transform="translate(656.7957037752835 120.37204045121314) rotate(0 49.669944763183594 12.5)"><text x="0" y="0" font-family="Virgil, Segoe UI Emoji" font-size="20px" fill="#1e1e1e" text-anchor="start" style="white-space: pre;" direction="ltr" dominant-baseline="text-before-edge">Processing</text></g><g stroke-linecap="round"><g transform="translate(639.6190915152245 181.00636158820555) rotate(0 54.0494641083767 -0.8482636989667753)"><path d="M-1.08 -1.19 C16.93 -1.61, 90.02 -2.52, 108.37 -2.45 M0.55 0.8 C18.4 0.52, 89.54 -0.74, 107.57 -1.31" stroke="#1e1e1e" stroke-width="1" fill="none"></path></g><g transform="translate(639.6190915152245 181.00636158820555) rotate(0 54.0494641083767 -0.8482636989667753)"><path d="M79.63 9.61 C86.76 6.76, 96.61 4.28, 107.57 -1.31 M79.63 9.61 C90.05 4.86, 100.24 0.65, 107.57 -1.31" stroke="#1e1e1e" stroke-width="1" fill="none"></path></g><g transform="translate(639.6190915152245 181.00636158820555) rotate(0 54.0494641083767 -0.8482636989667753)"><path d="M79.15 -10.91 C86.44 -7.06, 96.44 -2.84, 107.57 -1.31 M79.15 -10.91 C89.7 -7.91, 100.08 -4.38, 107.57 -1.31" stroke="#1e1e1e" stroke-width="1" fill="none"></path></g></g><mask></mask><g stroke-linecap="round" transform="translate(376.60485910713965 10) rotate(0 110.05757116156974 32.17741655087593)"><path d="M16.09 0 C54.28 1.11, 96.54 -0.84, 204.03 0 M16.09 0 C53.85 0.7, 93.47 2.56, 204.03 0 M204.03 0 C215.06 1.61, 218.38 5.28, 220.12 16.09 M204.03 0 C214.17 0.99, 219.21 5.99, 220.12 16.09 M220.12 16.09 C221.39 27.44, 219.62 38.72, 220.12 48.27 M220.12 16.09 C219.58 27.39, 219.15 36.78, 220.12 48.27 M220.12 48.27 C221.46 59.72, 216.43 66.05, 204.03 64.35 M220.12 48.27 C220.39 58.71, 213.74 66.1, 204.03 64.35 M204.03 64.35 C140.87 64.68, 81.04 63.67, 16.09 64.35 M204.03 64.35 C147.84 63.91, 93.23 65.67, 16.09 64.35 M16.09 64.35 C4.79 65.35, 1.64 59.8, 0 48.27 M16.09 64.35 C7.17 64.45, -1.43 57.14, 0 48.27 M0 48.27 C-1.44 41.43, -0.54 33.4, 0 16.09 M0 48.27 C0.65 39.22, -0.96 30.79, 0 16.09 M0 16.09 C1.8 3.74, 3.68 0.43, 16.09 0 M0 16.09 C-1.42 6.59, 6.18 1.42, 16.09 0" stroke="#1971c2" stroke-width="1" fill="none"></path></g><g transform="translate(384.4625096144125 17.177416550875932) rotate(0 102.19992065429688 25)"><text x="102.19992065429688" y="0" font-family="Virgil, Segoe UI Emoji" font-size="20px" fill="#1971c2" text-anchor="middle" style="white-space: pre;" direction="ltr" dominant-baseline="text-before-edge">input[13] (array with</text><text x="102.19992065429688" y="25" font-family="Virgil, Segoe UI Emoji" font-size="20px" fill="#1971c2" text-anchor="middle" style="white-space: pre;" direction="ltr" dominant-baseline="text-before-edge">len 13) </text></g><g stroke-linecap="round" transform="translate(1064.4161144381987 123.66466382398164) rotate(0 110.05757116156974 32.177416550875876)"><path d="M16.09 0 C85.06 0.09, 156.1 -0.6, 204.03 0 M16.09 0 C54.07 -0.83, 90.87 -1.67, 204.03 0 M204.03 0 C214.24 0.86, 219.33 5.91, 220.12 16.09 M204.03 0 C215.97 -1.32, 220.25 7.04, 220.12 16.09 M220.12 16.09 C220.58 25.46, 218.55 34.4, 220.12 48.27 M220.12 16.09 C220.49 28.73, 220.66 41.5, 220.12 48.27 M220.12 48.27 C220.35 58.75, 213.87 65.88, 204.03 64.35 M220.12 48.27 C220.72 59.82, 214.52 62.24, 204.03 64.35 M204.03 64.35 C142.75 65.84, 82.24 62.36, 16.09 64.35 M204.03 64.35 C165.59 66.34, 128.55 66.24, 16.09 64.35 M16.09 64.35 C6.93 64.44, -1.24 57.39, 0 48.27 M16.09 64.35 C3.68 64.06, -1.05 57.29, 0 48.27 M0 48.27 C-0.52 37.81, -0.33 28.73, 0 16.09 M0 48.27 C1.21 39.01, -0.53 31.59, 0 16.09 M0 16.09 C-1.23 6.43, 6.08 1.23, 16.09 0 M0 16.09 C-0.94 7.27, 5.06 -1.45, 16.09 0" stroke="#1971c2" stroke-width="1" fill="none"></path></g><g transform="translate(1076.3837426676396 130.84208037485757) rotate(0 98.0899429321289 25)"><text x="98.0899429321289" y="0" font-family="Virgil, Segoe UI Emoji" font-size="20px" fill="#1971c2" text-anchor="middle" style="white-space: pre;" direction="ltr" dominant-baseline="text-before-edge">note that 6 and 11 </text><text x="98.0899429321289" y="25" font-family="Virgil, Segoe UI Emoji" font-size="20px" fill="#1971c2" text-anchor="middle" style="white-space: pre;" direction="ltr" dominant-baseline="text-before-edge">are not inclusive</text></g><g stroke-linecap="round"><g transform="translate(1015.8245334418147 157.5796855728414) rotate(0 18.9027027744238 -0.6071622858810883)"><path d="M-0.27 -0.54 C6.13 -0.58, 31.93 -0.7, 38.29 -0.74 M0.59 0.37 C6.97 0.23, 31.94 -1.13, 38.11 -1.46" stroke="#1e1e1e" stroke-width="1" fill="none"></path></g><g transform="translate(1015.8245334418147 157.5796855728414) rotate(0 18.9027027744238 -0.6071622858810883)"><path d="M20.71 5.95 C24.77 4.71, 31.49 1.91, 38.11 -1.46 M20.71 5.95 C27.24 3.34, 33.8 0.44, 38.11 -1.46" stroke="#1e1e1e" stroke-width="1" fill="none"></path></g><g transform="translate(1015.8245334418147 157.5796855728414) rotate(0 18.9027027744238 -0.6071622858810883)"><path d="M20.02 -6.97 C24.22 -4.52, 31.14 -3.63, 38.11 -1.46 M20.02 -6.97 C26.76 -4.66, 33.58 -2.64, 38.11 -1.46" stroke="#1e1e1e" stroke-width="1" fill="none"></path></g></g><mask></mask><g transform="translate(10 148.9811289006857) rotate(0 160.13986206054688 25)"><text x="0" y="0" font-family="Virgil, Segoe UI Emoji" font-size="20px" fill="#1e1e1e" text-anchor="start" style="white-space: pre;" direction="ltr" dominant-baseline="text-before-edge">This is used to hash a message</text><text x="0" y="25" font-family="Virgil, Segoe UI Emoji" font-size="20px" fill="#1e1e1e" text-anchor="start" style="white-space: pre;" direction="ltr" dominant-baseline="text-before-edge">and its encryption public key</text></g><g stroke-linecap="round" transform="translate(791.3740626307638 407.5025282307936) rotate(0 110.0575711615698 55)"><path d="M27.5 0 C89.5 0.51, 152.94 -0.4, 192.62 0 M27.5 0 C82.1 -0.3, 135.67 -0.05, 192.62 0 M192.62 0 C210.69 -2, 219.64 10.65, 220.12 27.5 M192.62 0 C211.67 -1.05, 218.28 10.8, 220.12 27.5 M220.12 27.5 C219.44 43.35, 218.58 55.91, 220.12 82.5 M220.12 27.5 C220.32 46.79, 219.79 68.64, 220.12 82.5 M220.12 82.5 C220.37 99.84, 212.23 108.33, 192.62 110 M220.12 82.5 C218.39 103.07, 211.27 110.59, 192.62 110 M192.62 110 C130.14 111.93, 68.46 111.33, 27.5 110 M192.62 110 C157.75 108.2, 123.9 109.76, 27.5 110 M27.5 110 C7.18 111.83, -1.4 99.99, 0 82.5 M27.5 110 C11.09 108.31, -1.07 99.99, 0 82.5 M0 82.5 C2.38 70.2, -0.2 58.52, 0 27.5 M0 82.5 C-0.12 62.69, -0.1 41.33, 0 27.5 M0 27.5 C1.01 10.51, 10.38 -0.56, 27.5 0 M0 27.5 C-1.81 10.48, 9.61 1.1, 27.5 0" stroke="#1971c2" stroke-width="1" fill="none"></path></g><g transform="translate(806.7017067293452 450.0025282307936) rotate(0 94.72992706298822 12.5)"><text x="94.72992706298828" y="0" font-family="Virgil, Segoe UI Emoji" font-size="20px" fill="#1971c2" text-anchor="middle" style="white-space: pre;" direction="ltr" dominant-baseline="text-before-edge">4. Return the hash</text></g><g stroke-linecap="round" transform="translate(1081.53170218574 263.0390677647706) rotate(0 110.05757116156974 67.5)"><path d="M32 0 C76.85 2.27, 123.15 0.54, 188.12 0 M32 0 C91.36 -1.46, 151.29 0.03, 188.12 0 M188.12 0 C210.54 -1.42, 221.76 11.05, 220.12 32 M188.12 0 C209.55 0.71, 220.06 11.32, 220.12 32 M220.12 32 C219.33 48.1, 221.63 66.43, 220.12 103 M220.12 32 C221.5 54.16, 220.41 75.16, 220.12 103 M220.12 103 C218.91 122.58, 211.16 135.24, 188.12 135 M220.12 103 C217.98 124.64, 209.85 136.52, 188.12 135 M188.12 135 C142.49 136.1, 91.68 136.34, 32 135 M188.12 135 C136.23 134.79, 84.77 133.9, 32 135 M32 135 C9.14 136.11, 0.55 125.78, 0 103 M32 135 C8.68 135.45, 1.32 123.3, 0 103 M0 103 C-1.93 75.32, 0.63 46.12, 0 32 M0 103 C1.65 76.91, 0.2 52.12, 0 32 M0 32 C-1.64 11.86, 11.33 -1.07, 32 0 M0 32 C-0.69 10.28, 10.54 1.29, 32 0" stroke="#1971c2" stroke-width="1" fill="none"></path></g><g transform="translate(1099.1893633741652 268.0390677647706) rotate(0 92.39990997314453 62.5)"><text x="92.39990997314453" y="0" font-family="Virgil, Segoe UI Emoji" font-size="20px" fill="#1971c2" text-anchor="middle" style="white-space: pre;" direction="ltr" dominant-baseline="text-before-edge">input[0]</text><text x="92.39990997314453" y="25" font-family="Virgil, Segoe UI Emoji" font-size="20px" fill="#1971c2" text-anchor="middle" style="white-space: pre;" direction="ltr" dominant-baseline="text-before-edge">output of hasher1</text><text x="92.39990997314453" y="50" font-family="Virgil, Segoe UI Emoji" font-size="20px" fill="#1971c2" text-anchor="middle" style="white-space: pre;" direction="ltr" dominant-baseline="text-before-edge">output of hasher2</text><text x="92.39990997314453" y="75" font-family="Virgil, Segoe UI Emoji" font-size="20px" fill="#1971c2" text-anchor="middle" style="white-space: pre;" direction="ltr" dominant-baseline="text-before-edge">input[11]</text><text x="92.39990997314453" y="100" font-family="Virgil, Segoe UI Emoji" font-size="20px" fill="#1971c2" text-anchor="middle" style="white-space: pre;" direction="ltr" dominant-baseline="text-before-edge">input[12]</text></g><g stroke-linecap="round"><g transform="translate(1027.1998904487527 328.85387959890636) rotate(0 12.71230456080275 -0.43083682756491726)"><path d="M-0.09 0.44 C4.11 0.28, 21.31 -0.34, 25.58 -0.63 M-0.79 0.19 C3.31 -0.17, 20.89 -1.29, 25.22 -1.48" stroke="#1e1e1e" stroke-width="1" fill="none"></path></g><g transform="translate(1027.1998904487527 328.85387959890636) rotate(0 12.71230456080275 -0.43083682756491726)"><path d="M13.53 3.53 C18.35 1.86, 22.44 -0.09, 25.22 -1.48 M13.53 3.53 C16.24 2.17, 18.88 1.36, 25.22 -1.48" stroke="#1e1e1e" stroke-width="1" fill="none"></path></g><g transform="translate(1027.1998904487527 328.85387959890636) rotate(0 12.71230456080275 -0.43083682756491726)"><path d="M13.05 -5.16 C18.07 -3.61, 22.34 -2.34, 25.22 -1.48 M13.05 -5.16 C15.9 -4.62, 18.65 -3.53, 25.22 -1.48" stroke="#1e1e1e" stroke-width="1" fill="none"></path></g></g><mask></mask></svg>