<svg version="1.1" xmlns="http://www.w3.org/2000/svg" viewBox="0 0 1726.2398646666636 556.7500946281539" width="3452.479729333327" height="1113.5001892563077">
  <!-- svg-source:excalidraw -->
  
  <defs>
    <style class="style-fonts">
      @font-face {
        font-family: "Virgil";
        src: url("https://excalidraw.com/Virgil.woff2");
      }
      @font-face {
        font-family: "Cascadia";
        src: url("https://excalidraw.com/Cascadia.woff2");
      }
      @font-face {
        font-family: "Assistant";
        src: url("https://excalidraw.com/Assistant-Regular.woff2");
      }
    </style>
    
  </defs>
  <rect x="0" y="0" width="1726.2398646666636" height="556.7500946281539" fill="#ffffff"></rect><g stroke-linecap="round" transform="translate(317.5090062381055 179.7013599994475) rotate(0 114.33810379333909 33.80052213620306)"><path d="M16.9 0 C72.55 2.34, 132.99 1.53, 211.78 0 M16.9 0 C88.23 1.51, 160.2 1.11, 211.78 0 M211.78 0 C221.4 -0.9, 228.03 4.57, 228.68 16.9 M211.78 0 C223.53 -2.05, 229.36 5.89, 228.68 16.9 M228.68 16.9 C227.3 25.43, 228.65 30.07, 228.68 50.7 M228.68 16.9 C228.34 24.66, 229.43 31.74, 228.68 50.7 M228.68 50.7 C227.41 60.67, 222.15 66.99, 211.78 67.6 M228.68 50.7 C228.29 60.16, 224.61 68.44, 211.78 67.6 M211.78 67.6 C169.85 65.81, 125.64 65.97, 16.9 67.6 M211.78 67.6 C169.39 69.18, 125.54 68.43, 16.9 67.6 M16.9 67.6 C6.67 68.07, -1.92 61.77, 0 50.7 M16.9 67.6 C5.51 68.88, 2.29 62.3, 0 50.7 M0 50.7 C-1.87 43.4, 0.28 35.31, 0 16.9 M0 50.7 C1.28 40.31, 0.13 30.36, 0 16.9 M0 16.9 C1.02 7.57, 5.31 1.13, 16.9 0 M0 16.9 C-1.1 7.63, 7.74 0.04, 16.9 0" stroke="#1971c2" stroke-width="1" fill="none"></path></g><g transform="translate(372.0971710666008 201.0018821356506) rotate(0 59.74993896484375 12.5)"><text x="59.74993896484375" y="0" font-family="Virgil, Segoe UI Emoji" font-size="20px" fill="#e03131" text-anchor="middle" style="white-space: pre;" direction="ltr" dominant-baseline="text-before-edge">QuinSelector</text></g><g stroke-linecap="round" transform="translate(448.72075975248936 34.1101000361009) rotate(0 110.05757116156974 32.177416550875904)"><path d="M16.09 0 C84.07 1.21, 147.39 -0.83, 204.03 0 M16.09 0 C64.24 1.04, 113.7 0.96, 204.03 0 M204.03 0 C215.18 -1.78, 220.71 5.58, 220.12 16.09 M204.03 0 C212.68 -0.47, 220.72 3.86, 220.12 16.09 M220.12 16.09 C218.72 29.08, 218.34 38.96, 220.12 48.27 M220.12 16.09 C219.67 25.06, 219.86 35.02, 220.12 48.27 M220.12 48.27 C219.78 57.42, 216.11 65.08, 204.03 64.35 M220.12 48.27 C218.22 57.46, 214.31 64.92, 204.03 64.35 M204.03 64.35 C159.38 62.49, 119.59 63.98, 16.09 64.35 M204.03 64.35 C148.75 63.12, 91.48 62.79, 16.09 64.35 M16.09 64.35 C5.26 65.47, 1.99 59.28, 0 48.27 M16.09 64.35 C4.19 65.33, -2.13 57, 0 48.27 M0 48.27 C-0.16 35.11, -1.64 27.36, 0 16.09 M0 48.27 C0.56 40.87, -0.11 32.11, 0 16.09 M0 16.09 C-0.96 7.1, 7.19 0.03, 16.09 0 M0 16.09 C-0.34 5.39, 4.09 2.09, 16.09 0" stroke="#1971c2" stroke-width="1" fill="none"></path></g><g transform="translate(456.27841483739894 41.28751658697689) rotate(0 102.49991607666016 25)"><text x="102.49991607666016" y="0" font-family="Virgil, Segoe UI Emoji" font-size="20px" fill="#1971c2" text-anchor="middle" style="white-space: pre;" direction="ltr" dominant-baseline="text-before-edge">inputs (array of len </text><text x="102.49991607666016" y="25" font-family="Virgil, Segoe UI Emoji" font-size="20px" fill="#1971c2" text-anchor="middle" style="white-space: pre;" direction="ltr" dominant-baseline="text-before-edge">choices)</text></g><g stroke-linecap="round"><g transform="translate(419.09219601778295 130.03175380389303) rotate(0 -0.4458028198948796 19.782500132839004)"><path d="M-0.16 -0.22 C-0.37 6.39, -0.66 32.54, -0.86 39.13 M0.76 -0.8 C0.45 5.91, -1.1 32.84, -1.27 39.6" stroke="#1e1e1e" stroke-width="1" fill="none"></path></g><g transform="translate(419.09219601778295 130.03175380389303) rotate(0 -0.4458028198948796 19.782500132839004)"><path d="M-7.22 20.73 C-5.48 27.85, -3.65 34.02, -1.27 39.6 M-7.22 20.73 C-5.63 25.12, -4.07 30.43, -1.27 39.6" stroke="#1e1e1e" stroke-width="1" fill="none"></path></g><g transform="translate(419.09219601778295 130.03175380389303) rotate(0 -0.4458028198948796 19.782500132839004)"><path d="M6.3 21.32 C2.99 28.2, -0.23 34.15, -1.27 39.6 M6.3 21.32 C4.45 25.52, 2.56 30.68, -1.27 39.6" stroke="#1e1e1e" stroke-width="1" fill="none"></path></g></g><mask></mask><g stroke-linecap="round" transform="translate(10 183.09761534237714) rotate(0 110.05757116156974 32.177416550875904)"><path d="M16.09 0 C65.52 -1.77, 117.23 -0.77, 204.03 0 M16.09 0 C62.77 1.79, 107.96 1.47, 204.03 0 M204.03 0 C215.28 -1.3, 221.54 5.4, 220.12 16.09 M204.03 0 C213.57 -1.61, 221.31 3.31, 220.12 16.09 M220.12 16.09 C218.69 22.82, 218.81 31.19, 220.12 48.27 M220.12 16.09 C220.74 25.12, 219.24 32.76, 220.12 48.27 M220.12 48.27 C219.73 59.49, 213.33 63.06, 204.03 64.35 M220.12 48.27 C218.67 57.14, 213.96 66.25, 204.03 64.35 M204.03 64.35 C138.53 64.17, 76.62 61.21, 16.09 64.35 M204.03 64.35 C150.49 65.55, 94.45 65.82, 16.09 64.35 M16.09 64.35 C3.51 62.62, 1.11 59.42, 0 48.27 M16.09 64.35 C7.02 64.25, -1.98 57.19, 0 48.27 M0 48.27 C-0.61 36.46, 2.06 22.29, 0 16.09 M0 48.27 C1.07 36.82, 0.01 25.35, 0 16.09 M0 16.09 C-1.11 7.18, 7.2 -1.97, 16.09 0 M0 16.09 C0.91 3.21, 4.75 0.94, 16.09 0" stroke="#f08c00" stroke-width="1" fill="none"></path></g><g transform="translate(29.237655390085365 202.77503189325307) rotate(0 90.81991577148438 12.5)"><text x="90.81991577148438" y="0" font-family="Virgil, Segoe UI Emoji" font-size="20px" fill="#f08c00" text-anchor="middle" style="white-space: pre;" direction="ltr" dominant-baseline="text-before-edge">parameter: choices</text></g><g transform="translate(464.49391098097476 132.57860880273734) rotate(0 31.809967041015625 12.5)"><text x="0" y="0" font-family="Virgil, Segoe UI Emoji" font-size="20px" fill="#1e1e1e" text-anchor="start" style="white-space: pre;" direction="ltr" dominant-baseline="text-before-edge">Inputs</text></g><g transform="translate(475.78014709297713 281.1455165092334) rotate(0 34.84996032714844 12.5)"><text x="0" y="0" font-family="Virgil, Segoe UI Emoji" font-size="20px" fill="#1e1e1e" text-anchor="start" style="white-space: pre;" direction="ltr" dominant-baseline="text-before-edge">Output</text></g><g stroke-linecap="round"><g transform="translate(414.7992799743497 279.87516273914434) rotate(0 0.2229014099473261 20.511057519056408)"><path d="M0.16 0.06 C0.14 6.96, -0.12 34.14, -0.05 40.91 M-0.42 -0.38 C-0.29 6.64, 0.81 34.64, 0.93 41.55" stroke="#1e1e1e" stroke-width="1" fill="none"></path></g><g transform="translate(414.7992799743497 279.87516273914434) rotate(0 0.2229014099473261 20.511057519056408)"><path d="M-6.66 22.49 C-4.19 27.7, -2.07 34.99, 0.93 41.55 M-6.66 22.49 C-5.06 26.62, -2.76 31, 0.93 41.55" stroke="#1e1e1e" stroke-width="1" fill="none"></path></g><g transform="translate(414.7992799743497 279.87516273914434) rotate(0 0.2229014099473261 20.511057519056408)"><path d="M7.37 22.07 C5.33 27.44, 2.94 34.86, 0.93 41.55 M7.37 22.07 C5.67 26.3, 4.68 30.78, 0.93 41.55" stroke="#1e1e1e" stroke-width="1" fill="none"></path></g></g><mask></mask><g stroke-linecap="round" transform="translate(318.2396275262663 346.7732951060366) rotate(0 110.05757116156974 32.177416550875904)"><path d="M16.09 0 C77.67 2.22, 138.76 3.12, 204.03 0 M16.09 0 C73.38 0.42, 129.11 1.31, 204.03 0 M204.03 0 C215.92 -1.42, 218.85 4.06, 220.12 16.09 M204.03 0 C213.72 -0.7, 219.73 3.56, 220.12 16.09 M220.12 16.09 C218.9 27.55, 220.73 38.36, 220.12 48.27 M220.12 16.09 C219.57 24.48, 220.32 31.19, 220.12 48.27 M220.12 48.27 C218.81 57.43, 215.79 64.82, 204.03 64.35 M220.12 48.27 C217.91 58.77, 214.63 65.64, 204.03 64.35 M204.03 64.35 C129.77 61.54, 52.09 64.5, 16.09 64.35 M204.03 64.35 C142.8 63.48, 84.29 63.87, 16.09 64.35 M16.09 64.35 C5.04 63.62, 1.02 60.93, 0 48.27 M16.09 64.35 C4.99 65.65, -1.1 60.99, 0 48.27 M0 48.27 C0.02 34.56, 1.82 24.9, 0 16.09 M0 48.27 C-0.39 42.18, -0.8 34.49, 0 16.09 M0 16.09 C1.82 6.6, 6.15 1.96, 16.09 0 M0 16.09 C1.49 5.33, 6.15 2.09, 16.09 0" stroke="#1971c2" stroke-width="1" fill="none"></path></g><g transform="translate(339.257274066254 353.9507116569125) rotate(0 89.03992462158203 25)"><text x="89.03992462158203" y="0" font-family="Virgil, Segoe UI Emoji" font-size="20px" fill="#2f9e44" text-anchor="middle" style="white-space: pre;" direction="ltr" dominant-baseline="text-before-edge">out (the item at </text><text x="89.03992462158203" y="25" font-family="Virgil, Segoe UI Emoji" font-size="20px" fill="#2f9e44" text-anchor="middle" style="white-space: pre;" direction="ltr" dominant-baseline="text-before-edge">position index)</text></g><g stroke-linecap="round"><g transform="translate(245.4148474337021 216.5587789023955) rotate(0 24.285934174555905 -0.22909311577939206)"><path d="M0.39 0.01 C8.42 -0.07, 40.21 -0.68, 48.29 -0.84 M-0.07 -0.46 C8.12 -0.45, 41.26 -0.32, 49.38 -0.34" stroke="#1e1e1e" stroke-width="1" fill="none"></path></g><g transform="translate(245.4148474337021 216.5587789023955) rotate(0 24.285934174555905 -0.22909311577939206)"><path d="M26.55 7.94 C34.04 4.64, 40.77 2.98, 49.38 -0.34 M26.55 7.94 C31.68 5.84, 35.88 4.12, 49.38 -0.34" stroke="#1e1e1e" stroke-width="1" fill="none"></path></g><g transform="translate(245.4148474337021 216.5587789023955) rotate(0 24.285934174555905 -0.22909311577939206)"><path d="M26.56 -8.67 C34 -6.55, 40.72 -2.8, 49.38 -0.34 M26.56 -8.67 C31.65 -7.27, 35.85 -5.48, 49.38 -0.34" stroke="#1e1e1e" stroke-width="1" fill="none"></path></g></g><mask></mask><g stroke-linecap="round" transform="translate(734.4733671384581 26.24845491581698) rotate(0 178.05165552974745 52.21168965587836)"><path d="M26.11 0 C137.96 1.89, 250.55 0.39, 330 0 M26.11 0 C116.51 1.1, 207.51 1.35, 330 0 M330 0 C347.06 -1.57, 357.46 9.43, 356.1 26.11 M330 0 C345.51 -1.53, 355.66 9.27, 356.1 26.11 M356.1 26.11 C354.16 37.37, 357.42 50.83, 356.1 78.32 M356.1 26.11 C356.28 41.84, 354.8 57.01, 356.1 78.32 M356.1 78.32 C356 96.84, 349.39 104.72, 330 104.42 M356.1 78.32 C354.93 96.69, 345.27 102.43, 330 104.42 M330 104.42 C221.92 104.76, 112.83 107.45, 26.11 104.42 M330 104.42 C251.41 104.31, 171.96 104.02, 26.11 104.42 M26.11 104.42 C7.75 106.16, 1.83 95.76, 0 78.32 M26.11 104.42 C8.36 104.45, -1.27 97.82, 0 78.32 M0 78.32 C-1.36 57.33, 1.33 36.06, 0 26.11 M0 78.32 C-0.08 67.76, 0.17 55.23, 0 26.11 M0 26.11 C0.69 10.52, 10.19 1.5, 26.11 0 M0 26.11 C1.2 9.74, 10.04 -2.15, 26.11 0" stroke="#1971c2" stroke-width="1" fill="none"></path></g><g transform="translate(744.7251569455493 53.46014457169531) rotate(0 167.79986572265625 25)"><text x="167.79986572265625" y="0" font-family="Virgil, Segoe UI Emoji" font-size="20px" fill="#1971c2" text-anchor="middle" style="white-space: pre;" direction="ltr" dominant-baseline="text-before-edge">1. Ensure that index is less than </text><text x="167.79986572265625" y="25" font-family="Virgil, Segoe UI Emoji" font-size="20px" fill="#1971c2" text-anchor="middle" style="white-space: pre;" direction="ltr" dominant-baseline="text-before-edge">choices </text></g><g stroke-linecap="round" transform="translate(738.3629707328478 166.0304267959442) rotate(0 154.0961636167916 74.82411558956784)"><path d="M32 0 C117.97 2, 202.79 -0.01, 276.19 0 M32 0 C89.23 -0.03, 147.31 0.92, 276.19 0 M276.19 0 C295.88 -1.33, 307.81 11.16, 308.19 32 M276.19 0 C295.89 -1.49, 306.75 8.82, 308.19 32 M308.19 32 C308.84 53.44, 307.34 78.53, 308.19 117.65 M308.19 32 C307.32 60.24, 308.37 87.51, 308.19 117.65 M308.19 117.65 C307.17 139.83, 295.67 147.92, 276.19 149.65 M308.19 117.65 C309.47 139.47, 299.18 149.54, 276.19 149.65 M276.19 149.65 C223.26 151.37, 171.05 152.48, 32 149.65 M276.19 149.65 C178.91 151.5, 83.17 150.8, 32 149.65 M32 149.65 C10.37 149.67, -1.11 140.8, 0 117.65 M32 149.65 C12.78 147.39, 0.91 136.83, 0 117.65 M0 117.65 C-1.93 96.05, 0.89 71.58, 0 32 M0 117.65 C-0.21 84.49, 0.19 50.26, 0 32 M0 32 C1.04 11.57, 11.83 -1.87, 32 0 M0 32 C1.98 10.57, 8.71 2.27, 32 0" stroke="#1971c2" stroke-width="1" fill="none"></path></g><g transform="translate(746.8692600820614 190.85454238551205) rotate(0 145.58987426757812 50)"><text x="145.58987426757812" y="0" font-family="Virgil, Segoe UI Emoji" font-size="20px" fill="#1971c2" text-anchor="middle" style="white-space: pre;" direction="ltr" dominant-baseline="text-before-edge">2. Loop through the input </text><text x="145.58987426757812" y="25" font-family="Virgil, Segoe UI Emoji" font-size="20px" fill="#1971c2" text-anchor="middle" style="white-space: pre;" direction="ltr" dominant-baseline="text-before-edge">array and for each item </text><text x="145.58987426757812" y="50" font-family="Virgil, Segoe UI Emoji" font-size="20px" fill="#1971c2" text-anchor="middle" style="white-space: pre;" direction="ltr" dominant-baseline="text-before-edge">check whether it matches the</text><text x="145.58987426757812" y="75" font-family="Virgil, Segoe UI Emoji" font-size="20px" fill="#1971c2" text-anchor="middle" style="white-space: pre;" direction="ltr" dominant-baseline="text-before-edge">input index</text></g><g transform="translate(602.5904103336552 158.1012293469214) rotate(0 49.669944763183594 12.5)"><text x="0" y="0" font-family="Virgil, Segoe UI Emoji" font-size="20px" fill="#1e1e1e" text-anchor="start" style="white-space: pre;" direction="ltr" dominant-baseline="text-before-edge">Processing</text></g><g stroke-linecap="round"><g transform="translate(585.4137980735959 218.7355504839138) rotate(0 54.0494641083767 -0.8482636989667753)"><path d="M-0.23 0.3 C17.81 0.02, 89.32 -1.98, 107.25 -2.47 M-1.81 -0.59 C16.69 -0.67, 90.9 -1.14, 109.51 -1.35" stroke="#1e1e1e" stroke-width="1" fill="none"></path></g><g transform="translate(585.4137980735959 218.7355504839138) rotate(0 54.0494641083767 -0.8482636989667753)"><path d="M86.09 7.4 C91.74 4.12, 95.05 2.38, 109.51 -1.35 M86.09 7.4 C91.67 5.26, 95.76 2.59, 109.51 -1.35" stroke="#1e1e1e" stroke-width="1" fill="none"></path></g><g transform="translate(585.4137980735959 218.7355504839138) rotate(0 54.0494641083767 -0.8482636989667753)"><path d="M85.95 -9.7 C91.52 -9.26, 94.85 -7.27, 109.51 -1.35 M85.95 -9.7 C91.5 -8.09, 95.62 -7.01, 109.51 -1.35" stroke="#1e1e1e" stroke-width="1" fill="none"></path></g></g><mask></mask><g stroke-linecap="round" transform="translate(205.81880349909534 33.45182312782447) rotate(0 110.05757116156974 32.177416550875904)"><path d="M16.09 0 C61.8 1.78, 107.24 0.5, 204.03 0 M16.09 0 C65.95 0.51, 117.25 2.04, 204.03 0 M204.03 0 C213.8 0.53, 219.65 5.46, 220.12 16.09 M204.03 0 C213.39 1.83, 220.01 6.95, 220.12 16.09 M220.12 16.09 C221.28 28.81, 218.68 42.51, 220.12 48.27 M220.12 16.09 C219.9 27.03, 220.83 37.38, 220.12 48.27 M220.12 48.27 C219.45 58.57, 216.19 62.61, 204.03 64.35 M220.12 48.27 C222.21 58.52, 213.17 62.33, 204.03 64.35 M204.03 64.35 C128.58 61.75, 55.69 62.95, 16.09 64.35 M204.03 64.35 C157.94 63.52, 109.97 62.85, 16.09 64.35 M16.09 64.35 C6.84 65.63, -0.15 58.73, 0 48.27 M16.09 64.35 C6.75 62.25, 0.19 56.91, 0 48.27 M0 48.27 C-0.2 40.4, 0.37 31.16, 0 16.09 M0 48.27 C0.24 39.33, 0.55 31.4, 0 16.09 M0 16.09 C-0.03 6.7, 3.54 1.27, 16.09 0 M0 16.09 C0.45 7.63, 4.34 0.74, 16.09 0" stroke="#1971c2" stroke-width="1" fill="none"></path></g><g transform="translate(292.23639815920023 53.129239678700344) rotate(0 23.639976501464844 12.5)"><text x="23.639976501464844" y="0" font-family="Virgil, Segoe UI Emoji" font-size="20px" fill="#1971c2" text-anchor="middle" style="white-space: pre;" direction="ltr" dominant-baseline="text-before-edge">index</text></g><g stroke-linecap="round" transform="translate(723.947119801767 359.9838907767633) rotate(0 149.3561462454919 88.4394586727388)"><path d="M32 0 C123.15 0.75, 214.76 -0.03, 266.71 0 M32 0 C125.29 -1.79, 217.2 -0.78, 266.71 0 M266.71 0 C288.1 1.33, 300.39 10.53, 298.71 32 M266.71 0 C286.59 -1.54, 297.89 9.01, 298.71 32 M298.71 32 C300.84 71.54, 299.03 111.73, 298.71 144.88 M298.71 32 C298.21 69.3, 298.49 103.87, 298.71 144.88 M298.71 144.88 C296.94 166.01, 288.48 175.76, 266.71 176.88 M298.71 144.88 C299.18 165.37, 290.32 178.62, 266.71 176.88 M266.71 176.88 C209.64 176.38, 152.63 177.3, 32 176.88 M266.71 176.88 C201.31 179.24, 135.27 177.9, 32 176.88 M32 176.88 C9.72 178.71, -1.72 167.62, 0 144.88 M32 176.88 C12.63 175.81, -1.99 165.84, 0 144.88 M0 144.88 C0.16 117.5, -1.89 89.75, 0 32 M0 144.88 C0.47 120.83, 1.12 98.02, 0 32 M0 32 C-1.21 9.75, 10.68 -1.51, 32 0 M0 32 C-1.08 9.95, 9.95 -0.54, 32 0" stroke="#1971c2" stroke-width="1" fill="none"></path></g><g transform="translate(729.7733893382745 398.4233494495021) rotate(0 143.52987670898438 50)"><text x="143.52987670898438" y="0" font-family="Virgil, Segoe UI Emoji" font-size="20px" fill="#1971c2" text-anchor="middle" style="white-space: pre;" direction="ltr" dominant-baseline="text-before-edge">3. Wire the output (sum) of </text><text x="143.52987670898438" y="25" font-family="Virgil, Segoe UI Emoji" font-size="20px" fill="#1971c2" text-anchor="middle" style="white-space: pre;" direction="ltr" dominant-baseline="text-before-edge">the CalculateTotal </text><text x="143.52987670898438" y="50" font-family="Virgil, Segoe UI Emoji" font-size="20px" fill="#1971c2" text-anchor="middle" style="white-space: pre;" direction="ltr" dominant-baseline="text-before-edge">component to the output </text><text x="143.52987670898438" y="75" font-family="Virgil, Segoe UI Emoji" font-size="20px" fill="#1971c2" text-anchor="middle" style="white-space: pre;" direction="ltr" dominant-baseline="text-before-edge">signal</text></g><g stroke-linecap="round"><g transform="translate(1060.9039681230076 238.5598272552744) rotate(0 69.55589745407633 -62.070266139203596)"><path d="M0.59 1.12 C23.92 -19.56, 115.91 -102.67, 138.93 -123.55 M-0.56 0.66 C22.7 -20.42, 114.83 -104.78, 137.89 -125.36" stroke="#1e1e1e" stroke-width="2" fill="none"></path></g><g transform="translate(1060.9039681230076 238.5598272552744) rotate(0 69.55589745407633 -62.070266139203596)"><path d="M126.22 -103.26 C130.46 -108.3, 132.05 -113.26, 137.89 -125.36 M126.22 -103.26 C130.64 -109.97, 133.1 -116.09, 137.89 -125.36" stroke="#1e1e1e" stroke-width="2" fill="none"></path></g><g transform="translate(1060.9039681230076 238.5598272552744) rotate(0 69.55589745407633 -62.070266139203596)"><path d="M114.74 -115.93 C121.47 -118.34, 125.49 -120.62, 137.89 -125.36 M114.74 -115.93 C122.61 -118.96, 128.48 -121.31, 137.89 -125.36" stroke="#1e1e1e" stroke-width="2" fill="none"></path></g></g><mask></mask><g stroke-linecap="round" transform="translate(1243.3779812011612 10) rotate(0 110.05757116156974 55)"><path d="M27.5 0 C67.69 -2.39, 112.69 1.47, 192.62 0 M27.5 0 C79.22 -1.28, 131.29 -0.57, 192.62 0 M192.62 0 C209.16 0.01, 220.67 8.56, 220.12 27.5 M192.62 0 C209.39 -0.77, 220.99 9.86, 220.12 27.5 M220.12 27.5 C217.82 40.86, 220.14 54, 220.12 82.5 M220.12 27.5 C219.69 43.25, 218.8 57.93, 220.12 82.5 M220.12 82.5 C219.84 99.98, 212.63 111.75, 192.62 110 M220.12 82.5 C220.26 101.92, 209.03 112.23, 192.62 110 M192.62 110 C149.12 111.96, 107.13 111.8, 27.5 110 M192.62 110 C151.9 109.98, 110.51 109.61, 27.5 110 M27.5 110 C10.59 108.73, 0.57 99.33, 0 82.5 M27.5 110 C10.07 108.67, 1.96 98.61, 0 82.5 M0 82.5 C0.5 68.99, -0.06 56.59, 0 27.5 M0 82.5 C0.38 60.86, 0.92 39.92, 0 27.5 M0 27.5 C-1.71 7.21, 11.15 -0.95, 27.5 0 M0 27.5 C-1.99 8.6, 9.79 -0.7, 27.5 0" stroke="#1971c2" stroke-width="1" fill="none"></path></g><g transform="translate(1251.745641474059 15) rotate(0 101.68991088867188 50)"><text x="101.68991088867188" y="0" font-family="Virgil, Segoe UI Emoji" font-size="20px" fill="#1971c2" text-anchor="middle" style="white-space: pre;" direction="ltr" dominant-baseline="text-before-edge">Use IsEqual to </text><text x="101.68991088867188" y="25" font-family="Virgil, Segoe UI Emoji" font-size="20px" fill="#1971c2" text-anchor="middle" style="white-space: pre;" direction="ltr" dominant-baseline="text-before-edge">compare the loop </text><text x="101.68991088867188" y="50" font-family="Virgil, Segoe UI Emoji" font-size="20px" fill="#1971c2" text-anchor="middle" style="white-space: pre;" direction="ltr" dominant-baseline="text-before-edge">index with the input </text><text x="101.68991088867188" y="75" font-family="Virgil, Segoe UI Emoji" font-size="20px" fill="#1971c2" text-anchor="middle" style="white-space: pre;" direction="ltr" dominant-baseline="text-before-edge">index</text></g><g stroke-linecap="round" transform="translate(1233.229069014411 137.75945762091044) rotate(0 241.50539782612634 93.32989037301348)"><path d="M32 0 C162.97 -1.7, 296.47 -0.8, 451.01 0 M32 0 C142.91 1.25, 252.89 1.29, 451.01 0 M451.01 0 C471.9 -0.64, 482.57 9.19, 483.01 32 M451.01 0 C473.13 0.24, 482.03 9.08, 483.01 32 M483.01 32 C482.92 68.55, 482.78 106.39, 483.01 154.66 M483.01 32 C484.37 68.76, 482.67 106.25, 483.01 154.66 M483.01 154.66 C484.01 174.83, 470.66 187.78, 451.01 186.66 M483.01 154.66 C481.01 176.93, 470.31 184.93, 451.01 186.66 M451.01 186.66 C354.71 185.98, 260.11 186.75, 32 186.66 M451.01 186.66 C296.34 186.57, 141.26 185.79, 32 186.66 M32 186.66 C9.54 186.54, 0.93 176.06, 0 154.66 M32 186.66 C9.92 188.4, 1.55 176.61, 0 154.66 M0 154.66 C-1.28 123.32, 0.94 94.25, 0 32 M0 154.66 C1.65 117.85, 1.17 80.48, 0 32 M0 32 C-1.36 11.34, 12.44 -0.28, 32 0 M0 32 C-2.18 10.59, 12.15 -1.4, 32 0" stroke="#1971c2" stroke-width="1" fill="none"></path></g><g transform="translate(1239.764663984092 181.08934799392392) rotate(0 234.9698028564453 50)"><text x="234.9698028564453" y="0" font-family="Virgil, Segoe UI Emoji" font-size="20px" fill="#1971c2" text-anchor="middle" style="white-space: pre;" direction="ltr" dominant-baseline="text-before-edge">Multiply the output of IsEqual (1 if it matches</text><text x="234.9698028564453" y="25" font-family="Virgil, Segoe UI Emoji" font-size="20px" fill="#1971c2" text-anchor="middle" style="white-space: pre;" direction="ltr" dominant-baseline="text-before-edge">0 if not) with the input item at index i </text><text x="234.9698028564453" y="50" font-family="Virgil, Segoe UI Emoji" font-size="20px" fill="#1971c2" text-anchor="middle" style="white-space: pre;" direction="ltr" dominant-baseline="text-before-edge">(current loop index)</text><text x="234.9698028564453" y="75" font-family="Virgil, Segoe UI Emoji" font-size="20px" fill="#1971c2" text-anchor="middle" style="white-space: pre;" direction="ltr" dominant-baseline="text-before-edge">and assign it to the CalculateTotal component</text></g><g stroke-linecap="round" transform="translate(1094.369839086374 342.24846313445687) rotate(0 226.14668123457614 102.2508157468485)"><path d="M32 0 C121.02 -2.44, 210.28 -1.92, 420.29 0 M32 0 C186.64 0.92, 340.7 0.91, 420.29 0 M420.29 0 C440.73 -0.46, 450.8 11.2, 452.29 32 M420.29 0 C439.34 1.49, 452.65 8.45, 452.29 32 M452.29 32 C453.07 86.53, 453.06 142.61, 452.29 172.5 M452.29 32 C450.93 73.67, 452.36 115.16, 452.29 172.5 M452.29 172.5 C451.05 193.34, 440.1 205.89, 420.29 204.5 M452.29 172.5 C454.01 195.25, 439.65 203.28, 420.29 204.5 M420.29 204.5 C282.44 206.35, 143.38 205.9, 32 204.5 M420.29 204.5 C330.97 203.62, 242.31 203.3, 32 204.5 M32 204.5 C8.81 205.18, 0.23 193.6, 0 172.5 M32 204.5 C11.73 203.02, -0.23 195.84, 0 172.5 M0 172.5 C-0.75 142.74, -0.69 108.36, 0 32 M0 172.5 C0.26 124.38, 0.47 75.12, 0 32 M0 32 C-0.61 9.45, 9.1 -1.2, 32 0 M0 32 C-1.61 9.73, 12.92 1.28, 32 0" stroke="#1971c2" stroke-width="1" fill="none"></path></g><g transform="translate(1099.4166820641142 381.9992788813054) rotate(0 221.09983825683594 62.5)"><text x="221.09983825683594" y="0" font-family="Virgil, Segoe UI Emoji" font-size="20px" fill="#1971c2" text-anchor="middle" style="white-space: pre;" direction="ltr" dominant-baseline="text-before-edge">Because only 1 input to CalculateTotal </text><text x="221.09983825683594" y="25" font-family="Virgil, Segoe UI Emoji" font-size="20px" fill="#1971c2" text-anchor="middle" style="white-space: pre;" direction="ltr" dominant-baseline="text-before-edge">would have been not 0 (as the index </text><text x="221.09983825683594" y="50" font-family="Virgil, Segoe UI Emoji" font-size="20px" fill="#1971c2" text-anchor="middle" style="white-space: pre;" direction="ltr" dominant-baseline="text-before-edge">matched in the step above) we can use the </text><text x="221.09983825683594" y="75" font-family="Virgil, Segoe UI Emoji" font-size="20px" fill="#1971c2" text-anchor="middle" style="white-space: pre;" direction="ltr" dominant-baseline="text-before-edge">sum as the actual number we were looking </text><text x="221.09983825683594" y="100" font-family="Virgil, Segoe UI Emoji" font-size="20px" fill="#1971c2" text-anchor="middle" style="white-space: pre;" direction="ltr" dominant-baseline="text-before-edge">for</text></g><g stroke-linecap="round"><g transform="translate(1041.9300550680268 435.0304946454992) rotate(0 19.22936613285583 2.9515384436173733)"><path d="M-0.31 0.27 C6.03 1.3, 31.84 5.41, 38.25 6.35 M0.53 -0.07 C6.77 0.81, 31.26 4.51, 37.72 5.61" stroke="#1e1e1e" stroke-width="2" fill="none"></path></g><g transform="translate(1041.9300550680268 435.0304946454992) rotate(0 19.22936613285583 2.9515384436173733)"><path d="M18.62 9.3 C25.36 7.78, 31.96 6.35, 37.72 5.61 M18.62 9.3 C24.18 7.75, 29.85 7.18, 37.72 5.61" stroke="#1e1e1e" stroke-width="2" fill="none"></path></g><g transform="translate(1041.9300550680268 435.0304946454992) rotate(0 19.22936613285583 2.9515384436173733)"><path d="M20.71 -3.84 C26.78 -1.05, 32.69 1.85, 37.72 5.61 M20.71 -3.84 C25.67 -1.44, 30.71 1.94, 37.72 5.61" stroke="#1e1e1e" stroke-width="2" fill="none"></path></g></g><mask></mask></svg>