<svg version="1.1" xmlns="http://www.w3.org/2000/svg" viewBox="0 0 1286.680238300206 817.252663995177" width="2573.360476600412" height="1634.505327990354">
  <!-- svg-source:excalidraw -->
  
  <defs>
    <style class="style-fonts">
      @font-face {
        font-family: "Virgil";
        src: url("https://excalidraw.com/Virgil.woff2");
      }
      @font-face {
        font-family: "Cascadia";
        src: url("https://excalidraw.com/Cascadia.woff2");
      }
      @font-face {
        font-family: "Assistant";
        src: url("https://excalidraw.com/Assistant-Regular.woff2");
      }
    </style>
    
  </defs>
  <rect x="0" y="0" width="1286.680238300206" height="817.252663995177" fill="#ffffff"></rect><g stroke-linecap="round" transform="translate(324.29028620173494 283.59552403271437) rotate(0 114.33810379333897 33.80052213620297)"><path d="M16.9 0 C78.57 -0.92, 144.93 0.05, 211.78 0 M16.9 0 C57.94 -1.04, 98.51 -2.01, 211.78 0 M211.78 0 C221.72 1.37, 229.13 6.08, 228.68 16.9 M211.78 0 C221.37 2, 229.49 5.06, 228.68 16.9 M228.68 16.9 C227.57 27.95, 229.41 41.68, 228.68 50.7 M228.68 16.9 C228.75 29.22, 229.56 40.89, 228.68 50.7 M228.68 50.7 C228.03 61.15, 224.98 67.26, 211.78 67.6 M228.68 50.7 C230.26 62.09, 224.22 67.14, 211.78 67.6 M211.78 67.6 C148 67.17, 89.36 66.16, 16.9 67.6 M211.78 67.6 C166.4 68, 121.84 66.32, 16.9 67.6 M16.9 67.6 C7 67.06, 1.7 61, 0 50.7 M16.9 67.6 C7.42 67.24, 0.45 64.02, 0 50.7 M0 50.7 C0.33 37.67, 0.3 23.35, 0 16.9 M0 50.7 C0.4 44.12, -0.61 35.53, 0 16.9 M0 16.9 C-0.17 7.55, 4.62 1.32, 16.9 0 M0 16.9 C-1.61 6.89, 6.62 1.49, 16.9 0" stroke="#1971c2" stroke-width="1" fill="none"></path></g><g transform="translate(368.36844126460517 304.89604616891756) rotate(0 70.25994873046875 12.5)"><text x="70.25994873046875" y="0" font-family="Virgil, Segoe UI Emoji" font-size="20px" fill="#e03131" text-anchor="middle" style="white-space: pre;" direction="ltr" dominant-baseline="text-before-edge">UnpackElement</text></g><g stroke-linecap="round"><g transform="translate(424.72086352848055 198.2253131586508) rotate(0 -2.731305301702662 40.81570261330012)"><path d="M1.12 -1.1 C0.13 12.55, -4.41 68.7, -5.42 82.59 M0.25 0.94 C-0.94 14.2, -5.4 67.75, -6.35 80.97" stroke="#1e1e1e" stroke-width="1" fill="none"></path></g><g transform="translate(424.72086352848055 198.2253131586508) rotate(0 -2.731305301702662 40.81570261330012)"><path d="M-13.03 56.88 C-12.42 65.2, -6.68 74.32, -6.35 80.97 M-13.03 56.88 C-11.24 66.06, -8 74.06, -6.35 80.97" stroke="#1e1e1e" stroke-width="1" fill="none"></path></g><g transform="translate(424.72086352848055 198.2253131586508) rotate(0 -2.731305301702662 40.81570261330012)"><path d="M4.02 58.22 C-1.26 66.23, -1.4 74.89, -6.35 80.97 M4.02 58.22 C-0.19 66.85, -2.94 74.38, -6.35 80.97" stroke="#1e1e1e" stroke-width="1" fill="none"></path></g></g><mask></mask><g transform="translate(471.2751909446042 236.47277283600442) rotate(0 26.379974365234375 12.5)"><text x="0" y="0" font-family="Virgil, Segoe UI Emoji" font-size="20px" fill="#1e1e1e" text-anchor="start" style="white-space: pre;" direction="ltr" dominant-baseline="text-before-edge">Input</text></g><g transform="translate(482.5614270566066 385.03968054250026) rotate(0 34.84996032714844 12.5)"><text x="0" y="0" font-family="Virgil, Segoe UI Emoji" font-size="20px" fill="#1e1e1e" text-anchor="start" style="white-space: pre;" direction="ltr" dominant-baseline="text-before-edge">Output</text></g><g stroke-linecap="round"><g transform="translate(421.85685320184257 370.3548124441636) rotate(0 0.2229014099474398 20.511057519056294)"><path d="M0.23 -0.25 C0.2 6.6, 0.03 34.5, 0.08 41.4 M-0.32 0.81 C-0.19 7.48, 1.03 33.79, 1.13 40.63" stroke="#1e1e1e" stroke-width="1" fill="none"></path></g><g transform="translate(421.85685320184257 370.3548124441636) rotate(0 0.2229014099474398 20.511057519056294)"><path d="M-6.5 21.59 C-4.29 27.46, -0.52 34.89, 1.13 40.63 M-6.5 21.59 C-3.94 27.56, -1.35 33.51, 1.13 40.63" stroke="#1e1e1e" stroke-width="1" fill="none"></path></g><g transform="translate(421.85685320184257 370.3548124441636) rotate(0 0.2229014099474398 20.511057519056294)"><path d="M7.52 21.14 C4.91 27.19, 3.86 34.78, 1.13 40.63 M7.52 21.14 C5.57 27.32, 3.63 33.41, 1.13 40.63" stroke="#1e1e1e" stroke-width="1" fill="none"></path></g></g><mask></mask><g stroke-linecap="round" transform="translate(325.0209074898962 436.28115471057254) rotate(0 110.05757116156974 32.17741655087593)"><path d="M16.09 0 C81.62 1.7, 144.87 -0.21, 204.03 0 M16.09 0 C89.43 -0.17, 162.46 0.02, 204.03 0 M204.03 0 C213.62 0.95, 220.54 6.5, 220.12 16.09 M204.03 0 C216.14 -1.09, 219.81 5.96, 220.12 16.09 M220.12 16.09 C219.25 29.88, 219.72 41.16, 220.12 48.27 M220.12 16.09 C220.47 26.56, 219.36 34.9, 220.12 48.27 M220.12 48.27 C221.48 60.8, 215.11 63.02, 204.03 64.35 M220.12 48.27 C222.26 58.63, 214.88 65.98, 204.03 64.35 M204.03 64.35 C129.91 67.34, 55.91 67.19, 16.09 64.35 M204.03 64.35 C151.36 66.55, 97.78 66.28, 16.09 64.35 M16.09 64.35 C5.1 64.83, -1.82 57.42, 0 48.27 M16.09 64.35 C7.58 63.18, 1.66 61.06, 0 48.27 M0 48.27 C1.98 38.53, 1.39 29.42, 0 16.09 M0 48.27 C0.6 36.2, 0.23 25.76, 0 16.09 M0 16.09 C0.63 6.44, 5.17 -1.54, 16.09 0 M0 16.09 C-1.47 4.99, 3.86 2.26, 16.09 0" stroke="#1971c2" stroke-width="1" fill="none"></path></g><g transform="translate(403.62850459140736 455.95857126144847) rotate(0 31.449974060058594 12.5)"><text x="31.449974060058594" y="0" font-family="Virgil, Segoe UI Emoji" font-size="20px" fill="#2f9e44" text-anchor="middle" style="white-space: pre;" direction="ltr" dominant-baseline="text-before-edge">out[n]</text></g><g transform="translate(588.6231603290175 224.9595056407229) rotate(0 49.669944763183594 12.5)"><text x="0" y="0" font-family="Virgil, Segoe UI Emoji" font-size="20px" fill="#1e1e1e" text-anchor="start" style="white-space: pre;" direction="ltr" dominant-baseline="text-before-edge">Processing</text></g><g stroke-linecap="round"><g transform="translate(593.2915159969322 326.294111495622) rotate(0 59.587677703881525 -25.581320235236035)"><path d="M0.43 -0.3 C20.56 -9.13, 99.93 -43.36, 119.9 -51.93 M-0.81 -1.5 C19.3 -9.67, 99.19 -42.59, 119.33 -50.79" stroke="#1e1e1e" stroke-width="1" fill="none"></path></g><g transform="translate(593.2915159969322 326.294111495622) rotate(0 59.587677703881525 -25.581320235236035)"><path d="M100.83 -33.97 C104.39 -36.65, 107.82 -39.87, 119.33 -50.79 M100.83 -33.97 C105.87 -37.78, 110.98 -43.12, 119.33 -50.79" stroke="#1e1e1e" stroke-width="1" fill="none"></path></g><g transform="translate(593.2915159969322 326.294111495622) rotate(0 59.587677703881525 -25.581320235236035)"><path d="M94.35 -49.79 C99.52 -48.9, 104.42 -48.53, 119.33 -50.79 M94.35 -49.79 C100.95 -49.6, 107.72 -50.89, 119.33 -50.79" stroke="#1e1e1e" stroke-width="1" fill="none"></path></g></g><mask></mask><g transform="translate(10 212.65116965047946) rotate(0 144.7598876953125 37.5)"><text x="0" y="0" font-family="Virgil, Segoe UI Emoji" font-size="20px" fill="#1e1e1e" text-anchor="start" style="white-space: pre;" direction="ltr" dominant-baseline="text-before-edge">Convert a field element (253</text><text x="0" y="25" font-family="Virgil, Segoe UI Emoji" font-size="20px" fill="#1e1e1e" text-anchor="start" style="white-space: pre;" direction="ltr" dominant-baseline="text-before-edge">bits) to n 50-bit elements</text><text x="0" y="50" font-family="Virgil, Segoe UI Emoji" font-size="20px" fill="#1e1e1e" text-anchor="start" style="white-space: pre;" direction="ltr" dominant-baseline="text-before-edge">1 &lt; n &lt;= 5</text></g><g stroke-linecap="round" transform="translate(315.4100325371529 121.56389676447952) rotate(0 110.05757116156974 32.17741655087593)"><path d="M16.09 0 C82.91 -2.82, 152.47 -1.27, 204.03 0 M16.09 0 C83.05 1.15, 150.95 0.75, 204.03 0 M204.03 0 C214.11 -0.82, 222.06 5.02, 220.12 16.09 M204.03 0 C216.34 0.12, 221.29 4.91, 220.12 16.09 M220.12 16.09 C218.66 27.71, 222.13 36.96, 220.12 48.27 M220.12 16.09 C220.47 24.3, 221.33 30.12, 220.12 48.27 M220.12 48.27 C221.48 58.45, 216.45 63.38, 204.03 64.35 M220.12 48.27 C221.9 58.63, 215.2 66.4, 204.03 64.35 M204.03 64.35 C133.55 65.28, 62.54 63.73, 16.09 64.35 M204.03 64.35 C163.18 64.29, 120.59 63.18, 16.09 64.35 M16.09 64.35 C5.2 66.27, -1.01 60.31, 0 48.27 M16.09 64.35 C3.76 65.61, 0.99 60.49, 0 48.27 M0 48.27 C0.84 36.87, 1.29 24.03, 0 16.09 M0 48.27 C-0.45 42.07, -0.35 34.37, 0 16.09 M0 16.09 C-0.49 5.73, 4.09 0.31, 16.09 0 M0 16.09 C-0.19 4.09, 5.69 0.38, 16.09 0" stroke="#1971c2" stroke-width="1" fill="none"></path></g><g transform="translate(328.2877025756758 141.24131331535546) rotate(0 97.17990112304688 12.5)"><text x="97.17990112304688" y="0" font-family="Virgil, Segoe UI Emoji" font-size="20px" fill="#1971c2" text-anchor="middle" style="white-space: pre;" direction="ltr" dominant-baseline="text-before-edge">input (field element)</text></g><g stroke-linecap="round" transform="translate(746.8780920439989 10) rotate(0 126.57626878357974 61.92974013474486)"><path d="M30.96 0 C78.67 0.8, 123.16 -0.67, 222.19 0 M30.96 0 C92.93 -0.14, 156.52 0.1, 222.19 0 M222.19 0 C244.21 0.1, 254.18 9.92, 253.15 30.96 M222.19 0 C243.26 1.49, 251.03 8.41, 253.15 30.96 M253.15 30.96 C252.37 55.65, 253.4 76.71, 253.15 92.89 M253.15 30.96 C254.4 53.64, 254.57 76.38, 253.15 92.89 M253.15 92.89 C254.7 113.23, 243.22 125.64, 222.19 123.86 M253.15 92.89 C254.94 114.73, 244.29 124.44, 222.19 123.86 M222.19 123.86 C165.77 124.05, 111.47 123.56, 30.96 123.86 M222.19 123.86 C147.55 124.41, 72.57 124.11, 30.96 123.86 M30.96 123.86 C8.92 124.95, 0.86 114.84, 0 92.89 M30.96 123.86 C12.01 122.35, 0.85 114.26, 0 92.89 M0 92.89 C-1.87 71.1, -0.66 50.55, 0 30.96 M0 92.89 C0.1 68.4, -0.29 43.69, 0 30.96 M0 30.96 C-0.16 9.21, 10.61 0.33, 30.96 0 M0 30.96 C-1.46 11.27, 10.44 0.6, 30.96 0" stroke="#1971c2" stroke-width="1" fill="none"></path></g><g transform="translate(753.1844633666411 34.42974013474486) rotate(0 120.2698974609375 37.5)"><text x="120.2698974609375" y="0" font-family="Virgil, Segoe UI Emoji" font-size="20px" fill="#1971c2" text-anchor="middle" style="white-space: pre;" direction="ltr" dominant-baseline="text-before-edge">1. Convert to bits using </text><text x="120.2698974609375" y="25" font-family="Virgil, Segoe UI Emoji" font-size="20px" fill="#1971c2" text-anchor="middle" style="white-space: pre;" direction="ltr" dominant-baseline="text-before-edge">Num2Bits_strict() of </text><text x="120.2698974609375" y="50" font-family="Virgil, Segoe UI Emoji" font-size="20px" fill="#1971c2" text-anchor="middle" style="white-space: pre;" direction="ltr" dominant-baseline="text-before-edge">circomlib</text></g><g stroke-linecap="round" transform="translate(748.8778336764971 150.03532818601388) rotate(0 108.66984613635154 55)"><path d="M27.5 0 C86.53 1.58, 144.25 -0.43, 189.84 0 M27.5 0 C70.22 0.33, 112.06 0.08, 189.84 0 M189.84 0 C208.55 1.3, 215.5 7.5, 217.34 27.5 M189.84 0 C209.75 2.07, 217.75 7.63, 217.34 27.5 M217.34 27.5 C218.67 50.95, 215.31 72.12, 217.34 82.5 M217.34 27.5 C218.58 42.34, 218 58.39, 217.34 82.5 M217.34 82.5 C218.89 101.87, 209.44 110.5, 189.84 110 M217.34 82.5 C217.04 101.38, 206.08 108.19, 189.84 110 M189.84 110 C127.3 110.59, 60.73 111, 27.5 110 M189.84 110 C124.9 111.62, 61.79 111.72, 27.5 110 M27.5 110 C10.64 108.69, 0.74 101.46, 0 82.5 M27.5 110 C9.89 111.24, -0.23 99.06, 0 82.5 M0 82.5 C2.06 68.4, 1.02 56.02, 0 27.5 M0 82.5 C0.27 64.44, 0.49 47.65, 0 27.5 M0 27.5 C-1.27 9.99, 9.27 0.53, 27.5 0 M0 27.5 C-1.51 10.85, 8.22 -0.61, 27.5 0" stroke="#1971c2" stroke-width="1" fill="none"></path></g><g transform="translate(756.9177512239814 180.03532818601388) rotate(0 100.62992858886719 25)"><text x="100.62992858886719" y="0" font-family="Virgil, Segoe UI Emoji" font-size="20px" fill="#1971c2" text-anchor="middle" style="white-space: pre;" direction="ltr" dominant-baseline="text-before-edge">2. Loop from 0 to n</text><text x="100.62992858886719" y="25" font-family="Virgil, Segoe UI Emoji" font-size="20px" fill="#1971c2" text-anchor="middle" style="white-space: pre;" direction="ltr" dominant-baseline="text-before-edge">(not inclusive)</text></g><g stroke-linecap="round" transform="translate(752.0185281093542 278.4551425257878) rotate(0 110.05757116156974 42.5)"><path d="M21.25 0 C85.81 2.51, 151.68 1.95, 198.87 0 M21.25 0 C75.64 1, 128.73 -0.48, 198.87 0 M198.87 0 C214.4 1.8, 220.47 5.75, 220.12 21.25 M198.87 0 C215.18 -0.36, 220.24 8.71, 220.12 21.25 M220.12 21.25 C219.16 39.59, 218.73 56.07, 220.12 63.75 M220.12 21.25 C220.97 33.86, 220.83 45.67, 220.12 63.75 M220.12 63.75 C219.85 78.39, 211.21 83.42, 198.87 85 M220.12 63.75 C222.33 76.74, 214.69 87.07, 198.87 85 M198.87 85 C152.63 83.84, 103.89 83.45, 21.25 85 M198.87 85 C136.6 85.5, 73.24 86.47, 21.25 85 M21.25 85 C7.71 86.07, -0.2 76.38, 0 63.75 M21.25 85 C5.62 84.62, -1.51 80.18, 0 63.75 M0 63.75 C0.17 52.08, 0.11 42.79, 0 21.25 M0 63.75 C-0.7 53.76, -0.01 43.22, 0 21.25 M0 21.25 C-1.31 8.54, 6.26 -0.53, 21.25 0 M0 21.25 C-0.33 4.94, 8.21 0.87, 21.25 0" stroke="#1971c2" stroke-width="1" fill="none"></path></g><g transform="translate(757.7161978427013 295.9551425257878) rotate(0 104.35990142822266 25)"><text x="104.35990142822266" y="0" font-family="Virgil, Segoe UI Emoji" font-size="20px" fill="#1971c2" text-anchor="middle" style="white-space: pre;" direction="ltr" dominant-baseline="text-before-edge">3. Create n </text><text x="104.35990142822266" y="25" font-family="Virgil, Segoe UI Emoji" font-size="20px" fill="#1971c2" text-anchor="middle" style="white-space: pre;" direction="ltr" dominant-baseline="text-before-edge">Bits2Num components</text></g><g stroke-linecap="round" transform="translate(29.559420832270234 318.68748370541925) rotate(0 110.05757116156974 32.17741655087593)"><path d="M16.09 0 C77.49 -2.94, 135 0.06, 204.03 0 M16.09 0 C79.89 -0.21, 142.64 -0.33, 204.03 0 M204.03 0 C213.12 -1.84, 218.31 4.62, 220.12 16.09 M204.03 0 C216.99 -1.34, 222.17 3.65, 220.12 16.09 M220.12 16.09 C219.49 22.24, 218.11 33.82, 220.12 48.27 M220.12 16.09 C219.29 25.73, 219.32 33.15, 220.12 48.27 M220.12 48.27 C219.47 58.15, 215.81 64.62, 204.03 64.35 M220.12 48.27 C220.39 59.67, 214.78 63.08, 204.03 64.35 M204.03 64.35 C128.8 64.98, 54.36 64.36, 16.09 64.35 M204.03 64.35 C155.4 64.51, 107.98 63.64, 16.09 64.35 M16.09 64.35 C5.41 65.85, 0.08 60.69, 0 48.27 M16.09 64.35 C7.54 63.39, 0 59.39, 0 48.27 M0 48.27 C1.43 42.03, -0.81 33.18, 0 16.09 M0 48.27 C0.9 37.97, 0.04 26.83, 0 16.09 M0 16.09 C0.25 6.62, 4.61 0.83, 16.09 0 M0 16.09 C2.14 4.43, 5.88 -1.07, 16.09 0" stroke="#f08c00" stroke-width="1" fill="none"></path></g><g transform="translate(72.7370405167892 338.3649002562952) rotate(0 66.87995147705078 12.5)"><text x="66.87995147705078" y="0" font-family="Virgil, Segoe UI Emoji" font-size="20px" fill="#f08c00" text-anchor="middle" style="white-space: pre;" direction="ltr" dominant-baseline="text-before-edge">parameter: n </text></g><g stroke-linecap="round"><g transform="translate(270.36274933499556 339.70132304237313) rotate(0 22.27889688945629 -12.101152245474623)"><path d="M1.18 -0.11 C8.55 -4.15, 37.21 -19.52, 44.62 -23.67 M0.34 -1.22 C7.52 -5.67, 36.19 -21.69, 43.7 -25.51" stroke="#1e1e1e" stroke-width="1" fill="none"></path></g><g transform="translate(270.36274933499556 339.70132304237313) rotate(0 22.27889688945629 -12.101152245474623)"><path d="M27.06 -6.85 C32.36 -13.18, 39.01 -17.76, 43.7 -25.51 M27.06 -6.85 C30.18 -12.11, 35.78 -15.16, 43.7 -25.51" stroke="#1e1e1e" stroke-width="1" fill="none"></path></g><g transform="translate(270.36274933499556 339.70132304237313) rotate(0 22.27889688945629 -12.101152245474623)"><path d="M18.96 -21.91 C27.05 -23.27, 36.42 -22.8, 43.7 -25.51 M18.96 -21.91 C23.92 -23.66, 31.41 -23.2, 43.7 -25.51" stroke="#1e1e1e" stroke-width="1" fill="none"></path></g></g><mask></mask><g stroke-linecap="round" transform="translate(754.5485058920488 384.7739619843951) rotate(0 110.05757116156974 42.5)"><path d="M21.25 0 C59.27 -0.16, 92.05 2.54, 198.87 0 M21.25 0 C61.55 0.42, 100.93 -0.47, 198.87 0 M198.87 0 C214.74 1.72, 218.85 5.42, 220.12 21.25 M198.87 0 C212.14 1.41, 217.98 5.02, 220.12 21.25 M220.12 21.25 C218.32 37.36, 221.36 53.67, 220.12 63.75 M220.12 21.25 C220.44 30.84, 219.62 38.48, 220.12 63.75 M220.12 63.75 C218.6 77.55, 214.01 85.43, 198.87 85 M220.12 63.75 C221.75 75.98, 212.76 85.29, 198.87 85 M198.87 85 C143.53 85.06, 86.39 84.27, 21.25 85 M198.87 85 C135.51 84.35, 70.71 85.11, 21.25 85 M21.25 85 C7.15 85.36, 0.81 79.05, 0 63.75 M21.25 85 C5.62 86.25, -0.95 78.95, 0 63.75 M0 63.75 C-1.57 51.59, 0.29 42.51, 0 21.25 M0 63.75 C-0.88 55.05, 0.58 45.22, 0 21.25 M0 21.25 C-0.28 8.64, 8.72 1.26, 21.25 0 M0 21.25 C-0.55 6.78, 5.42 -0.09, 21.25 0" stroke="#1971c2" stroke-width="1" fill="none"></path></g><g transform="translate(769.3661478543997 402.2739619843951) rotate(0 95.23992919921875 25)"><text x="95.23992919921875" y="0" font-family="Virgil, Segoe UI Emoji" font-size="20px" fill="#1971c2" text-anchor="middle" style="white-space: pre;" direction="ltr" dominant-baseline="text-before-edge">4. Loop from 0 to </text><text x="95.23992919921875" y="25" font-family="Virgil, Segoe UI Emoji" font-size="20px" fill="#1971c2" text-anchor="middle" style="white-space: pre;" direction="ltr" dominant-baseline="text-before-edge">50 (not inclusive) </text></g><g stroke-linecap="round" transform="translate(755.2792629019352 495.02175540043936) rotate(0 140.55593966787274 65.66691706378106)"><path d="M32 0 C91.38 -0.79, 154.58 0.57, 249.11 0 M32 0 C107.39 -1.26, 183.82 -2.54, 249.11 0 M249.11 0 C272.19 -0.15, 282.29 9.82, 281.11 32 M249.11 0 C268.41 1.48, 282.02 12.97, 281.11 32 M281.11 32 C281.42 49.04, 283.37 67.12, 281.11 99.33 M281.11 32 C281.07 51.58, 281.06 70.7, 281.11 99.33 M281.11 99.33 C282.65 119.4, 270.8 132.3, 249.11 131.33 M281.11 99.33 C279.68 121.03, 268.95 131.95, 249.11 131.33 M249.11 131.33 C163.41 129.94, 76.25 132.65, 32 131.33 M249.11 131.33 C199.37 131.49, 148.2 131.61, 32 131.33 M32 131.33 C10.08 133.31, -1.63 121.92, 0 99.33 M32 131.33 C10.66 132.3, 0.86 119.6, 0 99.33 M0 99.33 C1.77 77.5, -1.3 56.18, 0 32 M0 99.33 C0.26 81.3, -0.18 62.93, 0 32 M0 32 C1.1 8.84, 9.92 1.65, 32 0 M0 32 C-1.07 10.38, 12.95 2.23, 32 0" stroke="#1971c2" stroke-width="1" fill="none"></path></g><g transform="translate(765.1553014467611 523.1886724642204) rotate(0 130.67990112304688 37.5)"><text x="130.67990112304688" y="0" font-family="Virgil, Segoe UI Emoji" font-size="20px" fill="#1971c2" text-anchor="middle" style="white-space: pre;" direction="ltr" dominant-baseline="text-before-edge">5. Assign as input to the </text><text x="130.67990112304688" y="25" font-family="Virgil, Segoe UI Emoji" font-size="20px" fill="#1971c2" text-anchor="middle" style="white-space: pre;" direction="ltr" dominant-baseline="text-before-edge">Bits2Num components the </text><text x="130.67990112304688" y="50" font-family="Virgil, Segoe UI Emoji" font-size="20px" fill="#1971c2" text-anchor="middle" style="white-space: pre;" direction="ltr" dominant-baseline="text-before-edge">input bits in chunks of 50</text></g><g stroke-linecap="round" transform="translate(752.9287189362801 651.038668361477) rotate(0 147.4030487549403 78.10699781685003)"><path d="M32 0 C89.06 -0.16, 144.53 1.68, 262.81 0 M32 0 C101.91 1.14, 170.98 1.03, 262.81 0 M262.81 0 C284.86 0.39, 294.22 12.12, 294.81 32 M262.81 0 C285.14 -1.3, 294.66 11.28, 294.81 32 M294.81 32 C297.09 62.72, 297.16 92.79, 294.81 124.21 M294.81 32 C295.17 57.22, 295.03 80.88, 294.81 124.21 M294.81 124.21 C294.59 144.1, 284.93 155.47, 262.81 156.21 M294.81 124.21 C295.55 145.72, 283.98 155.64, 262.81 156.21 M262.81 156.21 C175.51 158.4, 85.58 158.79, 32 156.21 M262.81 156.21 C216.35 157.53, 169.14 157.47, 32 156.21 M32 156.21 C11.42 154.26, -0.3 145.73, 0 124.21 M32 156.21 C9.05 157.8, 0.09 146.55, 0 124.21 M0 124.21 C0.92 91.04, 2.71 61.1, 0 32 M0 124.21 C0.11 104.33, 1.07 84.29, 0 32 M0 32 C-1.85 11.53, 10.27 -1.36, 32 0 M0 32 C2.17 10.22, 10.93 0.56, 32 0" stroke="#1971c2" stroke-width="1" fill="none"></path></g><g transform="translate(759.9018970857517 691.6456661783272) rotate(0 140.42987060546875 37.5)"><text x="140.42987060546875" y="0" font-family="Virgil, Segoe UI Emoji" font-size="20px" fill="#1971c2" text-anchor="middle" style="white-space: pre;" direction="ltr" dominant-baseline="text-before-edge">6. Wire the outputs to the </text><text x="140.42987060546875" y="25" font-family="Virgil, Segoe UI Emoji" font-size="20px" fill="#1971c2" text-anchor="middle" style="white-space: pre;" direction="ltr" dominant-baseline="text-before-edge">out array (array of </text><text x="140.42987060546875" y="50" font-family="Virgil, Segoe UI Emoji" font-size="20px" fill="#1971c2" text-anchor="middle" style="white-space: pre;" direction="ltr" dominant-baseline="text-before-edge">outputs from Bits2Num)</text></g><g stroke-linecap="round" transform="translate(1056.5650959770664 291.67193674351256) rotate(0 110.05757116156975 42.5)"><path d="M21.25 0 C69.91 2.34, 120.28 -1.16, 198.87 0 M21.25 0 C82.15 0.81, 143.4 2.16, 198.87 0 M198.87 0 C212.17 0.79, 221.87 7.59, 220.12 21.25 M198.87 0 C210.82 0.58, 218.36 6.69, 220.12 21.25 M220.12 21.25 C218.32 36.93, 218.76 48.4, 220.12 63.75 M220.12 21.25 C220.78 30.34, 219.59 38.94, 220.12 63.75 M220.12 63.75 C220.41 79.81, 214 86.87, 198.87 85 M220.12 63.75 C221.1 79.45, 212.53 86.51, 198.87 85 M198.87 85 C146.85 87.61, 91.35 86.21, 21.25 85 M198.87 85 C133.12 86.78, 66.63 86.98, 21.25 85 M21.25 85 C6.21 86.7, 0.05 79.78, 0 63.75 M21.25 85 C7.47 85.61, -0.64 77.11, 0 63.75 M0 63.75 C-1.72 45.47, -0.18 29.99, 0 21.25 M0 63.75 C-0.99 55.66, -0.33 46.2, 0 21.25 M0 21.25 C1.27 5.66, 7.99 0.72, 21.25 0 M0 21.25 C1.09 8.2, 8.47 2.28, 21.25 0" stroke="#1971c2" stroke-width="1" fill="none"></path></g><g transform="translate(1064.0027406859995 296.67193674351256) rotate(0 102.61992645263672 37.5)"><text x="102.61992645263672" y="0" font-family="Virgil, Segoe UI Emoji" font-size="20px" fill="#1971c2" text-anchor="middle" style="white-space: pre;" direction="ltr" dominant-baseline="text-before-edge">Allows to convert a </text><text x="102.61992645263672" y="25" font-family="Virgil, Segoe UI Emoji" font-size="20px" fill="#1971c2" text-anchor="middle" style="white-space: pre;" direction="ltr" dominant-baseline="text-before-edge">50-bit input to a </text><text x="102.61992645263672" y="50" font-family="Virgil, Segoe UI Emoji" font-size="20px" fill="#1971c2" text-anchor="middle" style="white-space: pre;" direction="ltr" dominant-baseline="text-before-edge">number</text></g><g stroke-linecap="round"><g transform="translate(990.5812320283471 324.77064607475904) rotate(0 26.452024971070713 -1.8498228121004558)"><path d="M0.6 0.47 C9.56 -0.3, 44.4 -2.89, 53.02 -3.7 M-0.55 -0.33 C8.33 -0.98, 43.5 -1.65, 52.13 -2.17" stroke="#1e1e1e" stroke-width="1" fill="none"></path></g><g transform="translate(990.5812320283471 324.77064607475904) rotate(0 26.452024971070713 -1.8498228121004558)"><path d="M28.97 7.25 C35.19 5.09, 39.91 1.68, 52.13 -2.17 M28.97 7.25 C34.1 5.32, 39.31 2.08, 52.13 -2.17" stroke="#1e1e1e" stroke-width="1" fill="none"></path></g><g transform="translate(990.5812320283471 324.77064607475904) rotate(0 26.452024971070713 -1.8498228121004558)"><path d="M28.33 -9.84 C34.84 -7.94, 39.7 -7.28, 52.13 -2.17 M28.33 -9.84 C33.68 -7.64, 39.04 -6.75, 52.13 -2.17" stroke="#1e1e1e" stroke-width="1" fill="none"></path></g></g><mask></mask></svg>