<svg version="1.1" xmlns="http://www.w3.org/2000/svg" viewBox="0 0 1217.3312986646956 496.83961586464534" width="3651.993895994087" height="1490.518847593936">
  <!-- svg-source:excalidraw -->
  
  <defs>
    <style class="style-fonts">
      @font-face {
        font-family: "Virgil";
        src: url("https://excalidraw.com/Virgil.woff2");
      }
      @font-face {
        font-family: "Cascadia";
        src: url("https://excalidraw.com/Cascadia.woff2");
      }
      @font-face {
        font-family: "Assistant";
        src: url("https://excalidraw.com/Assistant-Regular.woff2");
      }
    </style>
    
  </defs>
  <rect x="0" y="0" width="1217.3312986646956" height="496.83961586464534" fill="#ffffff"></rect><g stroke-linecap="round" transform="translate(321.0041776352655 269.2483868541449) rotate(0 114.33810379333897 33.800522136203085)"><path d="M16.9 0 C88.76 -0.11, 158 0.44, 211.78 0 M16.9 0 C71.53 0.82, 127.07 1.75, 211.78 0 M211.78 0 C223.68 -0.9, 227.92 5.41, 228.68 16.9 M211.78 0 C225.18 -0.9, 226.79 5.25, 228.68 16.9 M228.68 16.9 C227.74 23.13, 228.84 30.7, 228.68 50.7 M228.68 16.9 C227.98 29.02, 228.54 40.3, 228.68 50.7 M228.68 50.7 C228.21 60.46, 222 67.03, 211.78 67.6 M228.68 50.7 C228.75 64.04, 223.87 66.73, 211.78 67.6 M211.78 67.6 C168.98 65.25, 127.31 68.09, 16.9 67.6 M211.78 67.6 C163.66 70.17, 117.7 68.45, 16.9 67.6 M16.9 67.6 C6.89 68.79, 0.74 63.11, 0 50.7 M16.9 67.6 C6.18 66.16, 1.05 63.67, 0 50.7 M0 50.7 C1.57 41.72, -1.05 32.87, 0 16.9 M0 50.7 C-1.02 41.13, -0.71 32.91, 0 16.9 M0 16.9 C-1.23 6.5, 4.23 -0.32, 16.9 0 M0 16.9 C0.42 4.17, 5.24 -0.28, 16.9 0" stroke="#1971c2" stroke-width="1" fill="none"></path></g><g transform="translate(362.94235619667086 290.54890899034785) rotate(0 72.3999252319336 12.5)"><text x="72.3999252319336" y="0" font-family="Virgil, Segoe UI Emoji" font-size="20px" fill="#e03131" text-anchor="middle" style="white-space: pre;" direction="ltr" dominant-baseline="text-before-edge">VerifySignature</text></g><g stroke-linecap="round"><g transform="translate(421.4347549620111 183.87817598008132) rotate(0 -2.731305301702662 40.81570261330023)"><path d="M1.15 -0.19 C-0.03 13.24, -5.01 67.39, -6.26 80.99 M0.29 -1.34 C-0.58 12.2, -3.27 68.21, -3.96 82.19" stroke="#1e1e1e" stroke-width="1" fill="none"></path></g><g transform="translate(421.4347549620111 183.87817598008132) rotate(0 -2.731305301702662 40.81570261330023)"><path d="M-12.83 53.53 C-9.79 62.65, -7.29 73.06, -3.96 82.19 M-12.83 53.53 C-10.21 60.96, -8.45 69.25, -3.96 82.19" stroke="#1e1e1e" stroke-width="1" fill="none"></path></g><g transform="translate(421.4347549620111 183.87817598008132) rotate(0 -2.731305301702662 40.81570261330023)"><path d="M7.67 54.53 C3.17 63.48, -1.86 73.52, -3.96 82.19 M7.67 54.53 C4.61 61.83, 0.68 69.84, -3.96 82.19" stroke="#1e1e1e" stroke-width="1" fill="none"></path></g></g><mask></mask><g transform="translate(467.98908237813475 222.12563565743494) rotate(0 31.809967041015625 12.5)"><text x="0" y="0" font-family="Virgil, Segoe UI Emoji" font-size="20px" fill="#1e1e1e" text-anchor="start" style="white-space: pre;" direction="ltr" dominant-baseline="text-before-edge">Inputs</text></g><g transform="translate(479.2753184901371 370.6925433639308) rotate(0 34.84996032714844 12.5)"><text x="0" y="0" font-family="Virgil, Segoe UI Emoji" font-size="20px" fill="#1e1e1e" text-anchor="start" style="white-space: pre;" direction="ltr" dominant-baseline="text-before-edge">Output</text></g><g stroke-linecap="round"><g transform="translate(418.5707446353731 356.0076752655941) rotate(0 0.2229014099474398 20.511057519056408)"><path d="M-0.3 0.39 C-0.13 7.21, 0.53 34.01, 0.62 40.77 M0.54 0.11 C0.69 7.01, 0.41 34.44, 0.28 41.35" stroke="#1e1e1e" stroke-width="1" fill="none"></path></g><g transform="translate(418.5707446353731 356.0076752655941) rotate(0 0.2229014099474398 20.511057519056408)"><path d="M-6.48 21.98 C-4.26 26.72, -3.88 30.42, 0.28 41.35 M-6.48 21.98 C-4.85 27.51, -2.89 33.64, 0.28 41.35" stroke="#1e1e1e" stroke-width="1" fill="none"></path></g><g transform="translate(418.5707446353731 356.0076752655941) rotate(0 0.2229014099474398 20.511057519056408)"><path d="M7.55 22.17 C6.58 26.82, 3.77 30.49, 0.28 41.35 M7.55 22.17 C5.13 27.61, 3.03 33.69, 0.28 41.35" stroke="#1e1e1e" stroke-width="1" fill="none"></path></g></g><mask></mask><g stroke-linecap="round" transform="translate(321.73479892342675 421.93401753200305) rotate(0 110.05757116156974 32.17741655087593)"><path d="M16.09 0 C61.23 -1.36, 107.97 1.26, 204.03 0 M16.09 0 C64.31 1.22, 113.35 -0.31, 204.03 0 M204.03 0 C213.58 -0.15, 219.1 6.12, 220.12 16.09 M204.03 0 C212.78 -0.82, 219.17 6.98, 220.12 16.09 M220.12 16.09 C218.79 25.21, 219.73 36.48, 220.12 48.27 M220.12 16.09 C219.36 28.22, 219.51 40.52, 220.12 48.27 M220.12 48.27 C219.18 57.48, 216.66 63.23, 204.03 64.35 M220.12 48.27 C221.16 60.86, 213.23 66.63, 204.03 64.35 M204.03 64.35 C133.07 66.27, 60.87 66.01, 16.09 64.35 M204.03 64.35 C159.24 65.69, 114.06 66.52, 16.09 64.35 M16.09 64.35 C5.93 63.28, 1.28 58.4, 0 48.27 M16.09 64.35 C7.06 65.69, -1.77 58, 0 48.27 M0 48.27 C0.71 38.68, -0.47 32.27, 0 16.09 M0 48.27 C0.5 40.12, -0.75 32.37, 0 16.09 M0 16.09 C-0.54 6.98, 6.78 -1.23, 16.09 0 M0 16.09 C-1.55 4.33, 5.09 1.94, 16.09 0" stroke="#1971c2" stroke-width="1" fill="none"></path></g><g transform="translate(409.3823893110707 441.611434082879) rotate(0 22.40998077392578 12.5)"><text x="22.40998077392578" y="0" font-family="Virgil, Segoe UI Emoji" font-size="20px" fill="#2f9e44" text-anchor="middle" style="white-space: pre;" direction="ltr" dominant-baseline="text-before-edge">valid</text></g><g transform="translate(604.3045623273312 260.52445102419415) rotate(0 49.669944763183594 12.5)"><text x="0" y="0" font-family="Virgil, Segoe UI Emoji" font-size="20px" fill="#1e1e1e" text-anchor="start" style="white-space: pre;" direction="ltr" dominant-baseline="text-before-edge">Processing</text></g><g stroke-linecap="round"><g transform="translate(610.393068410685 311.06455075794474) rotate(0 93.97450351338216 1.8903043869634075)"><path d="M-0.98 -0.2 C29.99 0.69, 155.65 4.33, 186.98 4.87 M0.7 -1.35 C31.95 -0.73, 157.73 2.44, 189.18 3.32" stroke="#1e1e1e" stroke-width="1" fill="none"></path></g><g transform="translate(610.393068410685 311.06455075794474) rotate(0 93.97450351338216 1.8903043869634075)"><path d="M160.73 12.84 C171.61 7.71, 184.95 4, 189.18 3.32 M160.73 12.84 C167.04 10.98, 173.45 7.98, 189.18 3.32" stroke="#1e1e1e" stroke-width="1" fill="none"></path></g><g transform="translate(610.393068410685 311.06455075794474) rotate(0 93.97450351338216 1.8903043869634075)"><path d="M161.27 -7.68 C171.86 -4.74, 184.99 -0.39, 189.18 3.32 M161.27 -7.68 C167.33 -4.66, 173.62 -2.78, 189.18 3.32" stroke="#1e1e1e" stroke-width="1" fill="none"></path></g></g><mask></mask><g transform="translate(10 269.0311999256169) rotate(0 126.28990173339844 12.5)"><text x="0" y="0" font-family="Virgil, Segoe UI Emoji" font-size="20px" fill="#1e1e1e" text-anchor="start" style="white-space: pre;" direction="ltr" dominant-baseline="text-before-edge">Verify a EdDSA signature</text></g><g stroke-linecap="round" transform="translate(312.12392397068345 107.21675958591004) rotate(0 110.05757116156974 32.17741655087593)"><path d="M16.09 0 C56.02 0.32, 98.3 0.48, 204.03 0 M16.09 0 C79.15 1.37, 143.18 1.24, 204.03 0 M204.03 0 C214.29 -1.51, 219.08 4.79, 220.12 16.09 M204.03 0 C214.83 2.07, 220.94 4.49, 220.12 16.09 M220.12 16.09 C218.66 22, 218.47 31.69, 220.12 48.27 M220.12 16.09 C219.6 24.91, 221.1 31.02, 220.12 48.27 M220.12 48.27 C221.37 60.18, 215.49 65.5, 204.03 64.35 M220.12 48.27 C220.66 57.55, 215.8 66.06, 204.03 64.35 M204.03 64.35 C152.45 63.52, 96.71 64.23, 16.09 64.35 M204.03 64.35 C152.46 65.02, 101.97 65.93, 16.09 64.35 M16.09 64.35 C4.13 65.22, -1.4 58.67, 0 48.27 M16.09 64.35 C5.78 62.89, -0.39 58.71, 0 48.27 M0 48.27 C-1.2 36.64, 1.79 27.5, 0 16.09 M0 48.27 C0.1 41.44, -0.53 33.73, 0 16.09 M0 16.09 C-1.02 7.29, 3.92 -0.5, 16.09 0 M0 16.09 C1.22 6.57, 5.1 1.21, 16.09 0" stroke="#1971c2" stroke-width="1" fill="none"></path></g><g transform="translate(390.20152992229225 126.89417613678597) rotate(0 31.979965209960938 12.5)"><text x="31.979965209960938" y="0" font-family="Virgil, Segoe UI Emoji" font-size="20px" fill="#1971c2" text-anchor="middle" style="white-space: pre;" direction="ltr" dominant-baseline="text-before-edge">pubKey</text></g><g stroke-linecap="round" transform="translate(821.4290949205064 156.92763297834836) rotate(0 110.05757116156974 42.5)"><path d="M21.25 0 C64.85 -0.82, 106.22 0.08, 198.87 0 M21.25 0 C86.8 -1.76, 152.3 -1.29, 198.87 0 M198.87 0 C213.1 1.8, 220.83 6.33, 220.12 21.25 M198.87 0 C211.03 -0.95, 218.45 5.57, 220.12 21.25 M220.12 21.25 C218.66 32.92, 221.42 41.45, 220.12 63.75 M220.12 21.25 C221.1 38.8, 220.84 55.72, 220.12 63.75 M220.12 63.75 C220.59 76.66, 213.95 86.48, 198.87 85 M220.12 63.75 C219.72 77.8, 211.31 86.78, 198.87 85 M198.87 85 C139.94 87.61, 83.36 84.6, 21.25 85 M198.87 85 C152.62 86.28, 106.9 85.69, 21.25 85 M21.25 85 C7.45 83.73, -0.34 77.67, 0 63.75 M21.25 85 C8.11 83.74, -1.84 76.34, 0 63.75 M0 63.75 C-1.57 50.79, -1.24 40.29, 0 21.25 M0 63.75 C-0.19 48.37, -0.4 30.81, 0 21.25 M0 21.25 C1.06 8.14, 6.86 1.06, 21.25 0 M0 21.25 C-1.74 9, 5.48 -1.54, 21.25 0" stroke="#1971c2" stroke-width="1" fill="none"></path></g><g transform="translate(829.3667472588339 174.42763297834836) rotate(0 102.11991882324219 25)"><text x="102.11991882324219" y="0" font-family="Virgil, Segoe UI Emoji" font-size="20px" fill="#1971c2" text-anchor="middle" style="white-space: pre;" direction="ltr" dominant-baseline="text-before-edge">1. hash the preImage</text><text x="102.11991882324219" y="25" font-family="Virgil, Segoe UI Emoji" font-size="20px" fill="#1971c2" text-anchor="middle" style="white-space: pre;" direction="ltr" dominant-baseline="text-before-edge">using Poseidon</text></g><g stroke-linecap="round" transform="translate(819.2869353481848 267.96382233672193) rotate(0 194.02218165825548 55)"><path d="M27.5 0 C99.75 1.14, 170.87 0.61, 360.54 0 M27.5 0 C102.25 1.25, 177.2 0.39, 360.54 0 M360.54 0 C377.13 -0.82, 386.6 7.85, 388.04 27.5 M360.54 0 C377.8 -1.74, 390.23 7.87, 388.04 27.5 M388.04 27.5 C390.47 48.17, 387.02 66.74, 388.04 82.5 M388.04 27.5 C388.49 46.65, 388.7 67.8, 388.04 82.5 M388.04 82.5 C387.7 100.73, 377.38 111.55, 360.54 110 M388.04 82.5 C388.7 99.6, 380.35 109.32, 360.54 110 M360.54 110 C235.51 107.65, 112.3 107.43, 27.5 110 M360.54 110 C246.4 109.21, 131.89 109.56, 27.5 110 M27.5 110 C10.06 108.91, -1.6 99.46, 0 82.5 M27.5 110 C8.55 111.86, 1.62 99.42, 0 82.5 M0 82.5 C1.94 68.21, 1.87 55.87, 0 27.5 M0 82.5 C0.93 61.22, 0.28 39.42, 0 27.5 M0 27.5 C-1.51 10.83, 7.77 -1.34, 27.5 0 M0 27.5 C0.21 10.77, 10.3 -1.48, 27.5 0" stroke="#1971c2" stroke-width="1" fill="none"></path></g><g transform="translate(831.4892470113231 272.96382233672193) rotate(0 181.8198699951172 50)"><text x="181.8198699951172" y="0" font-family="Virgil, Segoe UI Emoji" font-size="20px" fill="#1971c2" text-anchor="middle" style="white-space: pre;" direction="ltr" dominant-baseline="text-before-edge">2. Verify using </text><text x="181.8198699951172" y="25" font-family="Virgil, Segoe UI Emoji" font-size="20px" fill="#1971c2" text-anchor="middle" style="white-space: pre;" direction="ltr" dominant-baseline="text-before-edge">EdDSAPoseidonVerifier_patched</text><text x="181.8198699951172" y="50" font-family="Virgil, Segoe UI Emoji" font-size="20px" fill="#1971c2" text-anchor="middle" style="white-space: pre;" direction="ltr" dominant-baseline="text-before-edge">which takes all inputs and the hash </text><text x="181.8198699951172" y="75" font-family="Virgil, Segoe UI Emoji" font-size="20px" fill="#1971c2" text-anchor="middle" style="white-space: pre;" direction="ltr" dominant-baseline="text-before-edge">of the preImage of the signature</text></g><g stroke-linecap="round" transform="translate(818.1681233501882 401.83961586464534) rotate(0 110.05757116156974 42.5)"><path d="M21.25 0 C75.84 -0.63, 132.88 0.48, 198.87 0 M21.25 0 C89.63 0.26, 159.03 0.01, 198.87 0 M198.87 0 C212.09 -1.52, 222.02 5.95, 220.12 21.25 M198.87 0 C214.07 1.87, 218.6 9.36, 220.12 21.25 M220.12 21.25 C220.99 38.3, 220.95 54.36, 220.12 63.75 M220.12 21.25 C220.14 31.29, 219.56 42.2, 220.12 63.75 M220.12 63.75 C220.68 76.85, 214.31 84.41, 198.87 85 M220.12 63.75 C221.81 79.26, 211.27 84.01, 198.87 85 M198.87 85 C154.56 82.5, 108.21 84.27, 21.25 85 M198.87 85 C157.35 84.24, 114.13 84.1, 21.25 85 M21.25 85 C6.55 86.62, 1.41 76.69, 0 63.75 M21.25 85 C5.54 83.96, -0.27 79.86, 0 63.75 M0 63.75 C1.58 52.71, -0.85 45.62, 0 21.25 M0 63.75 C-0.71 49.6, -0.65 33.11, 0 21.25 M0 21.25 C0.19 8.48, 8.07 -1.28, 21.25 0 M0 21.25 C1.8 5.83, 7.43 -0.4, 21.25 0" stroke="#1971c2" stroke-width="1" fill="none"></path></g><g transform="translate(826.6457766040431 419.33961586464534) rotate(0 101.57991790771484 25)"><text x="101.57991790771484" y="0" font-family="Virgil, Segoe UI Emoji" font-size="20px" fill="#1971c2" text-anchor="middle" style="white-space: pre;" direction="ltr" dominant-baseline="text-before-edge">3. Return whether is</text><text x="101.57991790771484" y="25" font-family="Virgil, Segoe UI Emoji" font-size="20px" fill="#1971c2" text-anchor="middle" style="white-space: pre;" direction="ltr" dominant-baseline="text-before-edge">valid or not</text></g><g stroke-linecap="round" transform="translate(61.99469259540717 105.26086868321454) rotate(0 110.05757116156974 32.17741655087593)"><path d="M16.09 0 C55.1 -0.82, 97.29 -0.92, 204.03 0 M16.09 0 C60.06 -0.54, 104.77 -0.21, 204.03 0 M204.03 0 C215.56 0.02, 221.19 3.66, 220.12 16.09 M204.03 0 C212.7 -0.46, 219.69 7.48, 220.12 16.09 M220.12 16.09 C218.9 24.79, 222.29 30.57, 220.12 48.27 M220.12 16.09 C219.82 25.65, 220.33 36.12, 220.12 48.27 M220.12 48.27 C220.67 59.81, 214.06 64.01, 204.03 64.35 M220.12 48.27 C218.84 57.11, 215.53 65.49, 204.03 64.35 M204.03 64.35 C134.44 65.69, 64.81 63.6, 16.09 64.35 M204.03 64.35 C143.77 63.08, 84.22 63.05, 16.09 64.35 M16.09 64.35 C3.45 63.62, -0.75 60.78, 0 48.27 M16.09 64.35 C6.47 65.87, -1.2 57.38, 0 48.27 M0 48.27 C-2.21 38.1, 1.4 31.59, 0 16.09 M0 48.27 C0.64 35.13, -1.24 22.69, 0 16.09 M0 16.09 C-1.63 6.15, 6.4 0.31, 16.09 0 M0 16.09 C-1.72 5.89, 4.62 -0.88, 16.09 0" stroke="#1971c2" stroke-width="1" fill="none"></path></g><g transform="translate(120.202311059223 124.93828523409047) rotate(0 51.849952697753906 12.5)"><text x="51.849952697753906" y="0" font-family="Virgil, Segoe UI Emoji" font-size="20px" fill="#1971c2" text-anchor="middle" style="white-space: pre;" direction="ltr" dominant-baseline="text-before-edge">signatureR</text></g><g stroke-linecap="round" transform="translate(552.8217271194076 104.8566288276329) rotate(0 110.05757116156974 32.17741655087593)"><path d="M16.09 0 C92.23 0.62, 166.8 -1.05, 204.03 0 M16.09 0 C64.87 1.81, 113.62 1.49, 204.03 0 M204.03 0 C214.38 -0.92, 220.6 5.98, 220.12 16.09 M204.03 0 C216.62 0.01, 221 5.33, 220.12 16.09 M220.12 16.09 C218.65 23.6, 220.85 34.37, 220.12 48.27 M220.12 16.09 C220.16 26.13, 220.33 37.13, 220.12 48.27 M220.12 48.27 C219.07 59.89, 216.63 66.01, 204.03 64.35 M220.12 48.27 C222.26 60.44, 215.63 64, 204.03 64.35 M204.03 64.35 C146.66 63.06, 85.76 65.02, 16.09 64.35 M204.03 64.35 C148.04 63.62, 91.25 62.28, 16.09 64.35 M16.09 64.35 C4.39 63.79, 0.45 57.77, 0 48.27 M16.09 64.35 C3.07 64.5, 0.29 58.04, 0 48.27 M0 48.27 C-1.58 36.6, -0.76 24, 0 16.09 M0 48.27 C-0.94 36.5, -0.41 25.6, 0 16.09 M0 16.09 C1.69 6.74, 3.6 -1.36, 16.09 0 M0 16.09 C-1.76 5.43, 3.32 1.68, 16.09 0" stroke="#1971c2" stroke-width="1" fill="none"></path></g><g transform="translate(611.7293501608601 124.53404537850884) rotate(0 51.14994812011719 12.5)"><text x="51.14994812011719" y="0" font-family="Virgil, Segoe UI Emoji" font-size="20px" fill="#1971c2" text-anchor="middle" style="white-space: pre;" direction="ltr" dominant-baseline="text-before-edge">signatureS</text></g><g stroke-linecap="round" transform="translate(319.9645984579398 10) rotate(0 110.05757116156974 32.17741655087593)"><path d="M16.09 0 C56.1 -3.17, 96.71 -3.37, 204.03 0 M16.09 0 C67.11 -0.94, 117.53 -0.81, 204.03 0 M204.03 0 C216.63 -1.52, 218.55 5.29, 220.12 16.09 M204.03 0 C213.59 0.13, 219.04 5.35, 220.12 16.09 M220.12 16.09 C220.84 26.31, 218.45 37.31, 220.12 48.27 M220.12 16.09 C221.15 28.91, 219.9 40.65, 220.12 48.27 M220.12 48.27 C218.34 58.62, 215.88 65.94, 204.03 64.35 M220.12 48.27 C221.98 60.4, 216.18 62.69, 204.03 64.35 M204.03 64.35 C154.41 64.6, 108.46 63.64, 16.09 64.35 M204.03 64.35 C142.34 64.99, 81.51 64.34, 16.09 64.35 M16.09 64.35 C3.84 64.21, -1.05 57.06, 0 48.27 M16.09 64.35 C6.55 66.09, -1.49 61.09, 0 48.27 M0 48.27 C0.34 36.09, -0.03 24.79, 0 16.09 M0 48.27 C-1.02 39.7, -0.21 30.88, 0 16.09 M0 16.09 C1.6 3.93, 6.96 0.4, 16.09 0 M0 16.09 C-1.78 5.13, 4.26 -1.6, 16.09 0" stroke="#1971c2" stroke-width="1" fill="none"></path></g><g transform="translate(365.8422227200955 17.177416550875932) rotate(0 64.17994689941406 25)"><text x="64.17994689941406" y="0" font-family="Virgil, Segoe UI Emoji" font-size="20px" fill="#1971c2" text-anchor="middle" style="white-space: pre;" direction="ltr" dominant-baseline="text-before-edge">preImage (4 </text><text x="64.17994689941406" y="25" font-family="Virgil, Segoe UI Emoji" font-size="20px" fill="#1971c2" text-anchor="middle" style="white-space: pre;" direction="ltr" dominant-baseline="text-before-edge">elements)</text></g></svg>