<svg version="1.1" xmlns="http://www.w3.org/2000/svg" viewBox="0 0 1745.7428388252538 3896.0760805259206" width="5237.228516475761" height="11688.228241577763">
  <!-- svg-source:excalidraw -->
  
  <defs>
    <style class="style-fonts">
      @font-face {
        font-family: "Virgil";
        src: url("https://excalidraw.com/Virgil.woff2");
      }
      @font-face {
        font-family: "Cascadia";
        src: url("https://excalidraw.com/Cascadia.woff2");
      }
      @font-face {
        font-family: "Assistant";
        src: url("https://excalidraw.com/Assistant-Regular.woff2");
      }
    </style>
    
  </defs>
  <rect x="0" y="0" width="1745.7428388252538" height="3896.0760805259206" fill="#ffffff"></rect><g stroke-linecap="round" transform="translate(1160.6460401616528 10) rotate(0 217.3787705561797 235)"><path d="M272.5 59 C299.62 85.02, 317.17 109.77, 380.26 177 C437.4 238.13, 436.83 238.32, 380.26 295 C354.6 324.87, 331.54 353.5, 272.5 411 C220.47 467.2, 215.95 472.01, 163.5 411 C139.59 381.37, 107.76 351.63, 54.5 295 C2.62 239.08, 0.79 235.05, 54.5 177 C83.57 144.05, 117.7 111.1, 163.5 59 C214.74 -3.36, 220.05 2.09, 272.5 59" stroke="none" stroke-width="0" fill="#ffffff"></path><path d="M272.5 59 C300.8 91.01, 329.03 120.37, 380.26 177 M272.5 59 C301.04 89.64, 329.89 120.04, 380.26 177 M380.26 177 C433.34 235.22, 434.68 234.1, 380.26 295 M380.26 177 C436.41 237.53, 435.88 233.77, 380.26 295 M380.26 295 C338.98 340.18, 297.21 384.45, 272.5 411 M380.26 295 C353.87 323.65, 326.28 352.65, 272.5 411 M272.5 411 C219.5 468.4, 219.39 468.94, 163.5 411 M272.5 411 C216.27 468.59, 217.78 471.96, 163.5 411 M163.5 411 C142.15 387.06, 117.44 362.09, 54.5 295 M163.5 411 C138.33 383.37, 111.37 357.23, 54.5 295 M54.5 295 C-1.32 236.72, 0.27 234.09, 54.5 177 M54.5 295 C-0.17 235.14, -1.14 237.32, 54.5 177 M54.5 177 C97.17 133.85, 138.26 87.11, 163.5 59 M54.5 177 C85.75 144.32, 116.81 112.15, 163.5 59 M163.5 59 C218.11 -1.35, 219.81 -1.46, 272.5 59 M163.5 59 C216.24 -0.28, 217.73 -1.27, 272.5 59" stroke="#1e1e1e" stroke-width="2" fill="none"></path></g><g transform="translate(1282.0020895632779 200) rotate(0 95.83333587646484 45)"><text x="95.83333587646484" y="0" font-family="Virgil, Segoe UI Emoji" font-size="36px" fill="#1e1e1e" text-anchor="middle" style="white-space: pre;" direction="ltr" dominant-baseline="text-before-edge">1. Process </text><text x="95.83333587646484" y="45" font-family="Virgil, Segoe UI Emoji" font-size="36px" fill="#1e1e1e" text-anchor="middle" style="white-space: pre;" direction="ltr" dominant-baseline="text-before-edge">messages</text></g><g stroke-linecap="round" transform="translate(1098.7565794265697 679.5217573111763) rotate(0 272.14759196711384 197.76647841846895)"><path d="M341.25 49.5 C377.36 77.26, 415.82 110.66, 476.05 148.5 C547.7 195.28, 546.02 194.7, 476.05 247.5 C442.54 274.33, 406.95 298.21, 341.25 346.03 C270.74 396.7, 272.16 397.74, 204.75 346.03 C165.94 317.26, 120.77 287.37, 68.25 247.5 C-1.63 194.77, 0.56 197.76, 68.25 148.5 C109.25 118.83, 146.16 92.77, 204.75 49.5 C269.68 0.11, 272.31 -0.73, 341.25 49.5" stroke="none" stroke-width="0" fill="#ffffff"></path><path d="M341.25 49.5 C371.42 71.39, 403.31 92.43, 476.05 148.5 M341.25 49.5 C383.56 81.51, 423.96 111.27, 476.05 148.5 M476.05 148.5 C542.31 199.87, 542.51 196.97, 476.05 247.5 M476.05 148.5 C546.53 196.26, 543.39 197.37, 476.05 247.5 M476.05 247.5 C428.1 283.48, 378 319.88, 341.25 346.03 M476.05 247.5 C446.43 266.78, 418.07 287.83, 341.25 346.03 M341.25 346.03 C271.38 396.07, 274.08 396.69, 204.75 346.03 M341.25 346.03 C275.01 395.26, 272.41 393.27, 204.75 346.03 M204.75 346.03 C171.42 319.67, 133.78 294.01, 68.25 247.5 M204.75 346.03 C167.68 318.21, 129.58 291.83, 68.25 247.5 M68.25 247.5 C0.16 199.15, -0.35 197.33, 68.25 148.5 M68.25 247.5 C-0.87 198.71, 0.75 197.8, 68.25 148.5 M68.25 148.5 C106.71 119.37, 150.73 88.89, 204.75 49.5 M68.25 148.5 C115.62 114.28, 162.47 79.74, 204.75 49.5 M204.75 49.5 C272.72 -0.23, 274.52 0.07, 341.25 49.5 M204.75 49.5 C275.03 1.9, 271.03 -1.2, 341.25 49.5" stroke="#1e1e1e" stroke-width="2" fill="none"></path></g><g transform="translate(1242.0637128124704 787.4049965204108) rotate(0 128.76666259765625 90)"><text x="128.76666259765625" y="0" font-family="Virgil, Segoe UI Emoji" font-size="36px" fill="#1e1e1e" text-anchor="middle" style="white-space: pre;" direction="ltr" dominant-baseline="text-before-edge">2.  Generate </text><text x="128.76666259765625" y="45" font-family="Virgil, Segoe UI Emoji" font-size="36px" fill="#1e1e1e" text-anchor="middle" style="white-space: pre;" direction="ltr" dominant-baseline="text-before-edge">commitments </text><text x="128.76666259765625" y="90" font-family="Virgil, Segoe UI Emoji" font-size="36px" fill="#1e1e1e" text-anchor="middle" style="white-space: pre;" direction="ltr" dominant-baseline="text-before-edge">of the current</text><text x="128.76666259765625" y="135" font-family="Virgil, Segoe UI Emoji" font-size="36px" fill="#1e1e1e" text-anchor="middle" style="white-space: pre;" direction="ltr" dominant-baseline="text-before-edge">state</text></g><g stroke-linecap="round"><g transform="translate(1036.532903079994 841.6336436959298) rotate(0 -88.45874715919786 10.28590083246479)"><path d="M0.02 1.02 C-29.37 4.11, -147.65 16.08, -176.97 19.52 M-1.43 0.52 C-30.93 3.63, -148.82 17.28, -177.95 20.5" stroke="#1e1e1e" stroke-width="2" fill="none"></path></g><g transform="translate(1036.532903079994 841.6336436959298) rotate(0 -88.45874715919786 10.28590083246479)"><path d="M-151.1 7.13 C-155.97 10.37, -166.12 15.41, -177.95 20.5 M-151.1 7.13 C-160.62 13.05, -171 16.88, -177.95 20.5" stroke="#1e1e1e" stroke-width="2" fill="none"></path></g><g transform="translate(1036.532903079994 841.6336436959298) rotate(0 -88.45874715919786 10.28590083246479)"><path d="M-148.78 27.52 C-154.4 25.68, -165.12 25.65, -177.95 20.5 M-148.78 27.52 C-159.26 25.52, -170.54 21.42, -177.95 20.5" stroke="#1e1e1e" stroke-width="2" fill="none"></path></g></g><mask></mask><g stroke-linecap="round" transform="translate(28.514621498436554 611.2294650487165) rotate(0 183.08903481787456 113.14490915711372)"><path d="M32 0 C109.79 0.58, 184.41 0.7, 334.18 0 M32 0 C144.77 1.09, 256.5 2.24, 334.18 0 M334.18 0 C357.06 -1.72, 364.54 9.5, 366.18 32 M334.18 0 C354.21 1.8, 365.04 9.94, 366.18 32 M366.18 32 C367.48 79.44, 365.77 123.4, 366.18 194.29 M366.18 32 C366.83 90.03, 367.01 147.18, 366.18 194.29 M366.18 194.29 C365.35 213.89, 353.97 225.72, 334.18 226.29 M366.18 194.29 C366.18 214.29, 354.77 224, 334.18 226.29 M334.18 226.29 C236.01 225.69, 136.02 225.97, 32 226.29 M334.18 226.29 C217.35 224.43, 102.12 224.66, 32 226.29 M32 226.29 C10.34 224.85, -0.85 216.79, 0 194.29 M32 226.29 C10.63 226.63, -0.19 215.12, 0 194.29 M0 194.29 C-0.83 143.21, 0.45 92.57, 0 32 M0 194.29 C0.57 151.26, -0.51 109, 0 32 M0 32 C0.35 11.7, 11.91 0.66, 32 0 M0 32 C-1.61 12.71, 9.26 -0.42, 32 0" stroke="#1e1e1e" stroke-width="2" fill="none"></path></g><g transform="translate(35.75365021279549 656.8743742058302) rotate(0 175.85000610351562 67.5)"><text x="175.85000610351562" y="0" font-family="Virgil, Segoe UI Emoji" font-size="36px" fill="#1e1e1e" text-anchor="middle" style="white-space: pre;" direction="ltr" dominant-baseline="text-before-edge">currentPerVOSpentV</text><text x="175.85000610351562" y="45" font-family="Virgil, Segoe UI Emoji" font-size="36px" fill="#1e1e1e" text-anchor="middle" style="white-space: pre;" direction="ltr" dominant-baseline="text-before-edge">oiceCreditsCommitme</text><text x="175.85000610351562" y="90" font-family="Virgil, Segoe UI Emoji" font-size="36px" fill="#1e1e1e" text-anchor="middle" style="white-space: pre;" direction="ltr" dominant-baseline="text-before-edge">nt</text></g><g stroke-linecap="round" transform="translate(10 888.9487875252682) rotate(0 183.08903481787456 113.14490915711372)"><path d="M32 0 C96.91 0.82, 163.57 2.61, 334.18 0 M32 0 C121.46 -1.93, 210.66 -1.35, 334.18 0 M334.18 0 C356.78 1.06, 367.22 9.74, 366.18 32 M334.18 0 C353.33 1.16, 366.55 11.36, 366.18 32 M366.18 32 C366.81 71.29, 366.61 111.11, 366.18 194.29 M366.18 32 C365.91 83.16, 366.35 135.15, 366.18 194.29 M366.18 194.29 C365.51 216.84, 354.86 226.48, 334.18 226.29 M366.18 194.29 C366 214.2, 355.3 226.06, 334.18 226.29 M334.18 226.29 C224.9 226.62, 115.63 226.51, 32 226.29 M334.18 226.29 C229.33 228.06, 124.78 228.27, 32 226.29 M32 226.29 C11.06 224.89, 1.91 214.19, 0 194.29 M32 226.29 C8.51 228.06, 1.95 216.72, 0 194.29 M0 194.29 C-0.38 146.46, -0.08 101.7, 0 32 M0 194.29 C-0.67 134.65, -0.94 75.52, 0 32 M0 32 C-1.74 11.49, 12.2 1.08, 32 0 M0 32 C0.33 10.56, 9.87 -1.28, 32 0" stroke="#1e1e1e" stroke-width="2" fill="none"></path></g><g transform="translate(20.28903176611675 957.093696682382) rotate(0 172.8000030517578 45)"><text x="172.8000030517578" y="0" font-family="Virgil, Segoe UI Emoji" font-size="36px" fill="#1e1e1e" text-anchor="middle" style="white-space: pre;" direction="ltr" dominant-baseline="text-before-edge">currentSpentVoiceCr</text><text x="172.8000030517578" y="45" font-family="Virgil, Segoe UI Emoji" font-size="36px" fill="#1e1e1e" text-anchor="middle" style="white-space: pre;" direction="ltr" dominant-baseline="text-before-edge">editsCommitment</text></g><g stroke-linecap="round" transform="translate(430.0341144118411 894.1712292000765) rotate(0 183.08903481787456 113.14490915711372)"><path d="M32 0 C109.03 1.61, 187.69 0.17, 334.18 0 M32 0 C143.62 -1.27, 256.37 -1.22, 334.18 0 M334.18 0 C353.82 -1.4, 364.37 10.57, 366.18 32 M334.18 0 C355 -0.56, 364.11 10.27, 366.18 32 M366.18 32 C365.5 89.72, 364.3 151.52, 366.18 194.29 M366.18 32 C365.94 79.62, 367.28 125.85, 366.18 194.29 M366.18 194.29 C367.34 215.49, 354.12 227.19, 334.18 226.29 M366.18 194.29 C368.37 216.64, 357.77 224.76, 334.18 226.29 M334.18 226.29 C219.4 225.79, 107.81 228.2, 32 226.29 M334.18 226.29 C221.62 225.35, 107.85 224.27, 32 226.29 M32 226.29 C10.36 228.19, 0.31 214.02, 0 194.29 M32 226.29 C11.64 224.02, 0.96 214.23, 0 194.29 M0 194.29 C-0.46 143.22, -2.56 95.58, 0 32 M0 194.29 C1.4 144.66, 1.04 96.38, 0 32 M0 32 C0.72 11.99, 10 1.53, 32 0 M0 32 C-2.12 10.79, 9.31 0.79, 32 0" stroke="#1e1e1e" stroke-width="2" fill="none"></path></g><g transform="translate(435.72315533323126 962.3161383571902) rotate(0 177.39999389648438 45)"><text x="177.39999389648438" y="0" font-family="Virgil, Segoe UI Emoji" font-size="36px" fill="#1e1e1e" text-anchor="middle" style="white-space: pre;" direction="ltr" dominant-baseline="text-before-edge">currentTallyCommitm</text><text x="177.39999389648438" y="45" font-family="Virgil, Segoe UI Emoji" font-size="36px" fill="#1e1e1e" text-anchor="middle" style="white-space: pre;" direction="ltr" dominant-baseline="text-before-edge">ent</text></g><g stroke-linecap="round" transform="translate(429.66475396456735 613.2866452152105) rotate(0 183.08903481787456 113.14490915711372)"><path d="M32 0 C113.97 0.87, 195.95 2, 334.18 0 M32 0 C149.56 0.31, 268.14 -0.49, 334.18 0 M334.18 0 C355.72 1.26, 365.76 11.83, 366.18 32 M334.18 0 C354.5 0.44, 365.46 8.54, 366.18 32 M366.18 32 C368.97 86.7, 368.53 140.72, 366.18 194.29 M366.18 32 C365.31 79.26, 364.74 124, 366.18 194.29 M366.18 194.29 C366 216.36, 356.81 227.01, 334.18 226.29 M366.18 194.29 C364.91 216, 357.55 228.52, 334.18 226.29 M334.18 226.29 C254.04 224.83, 172.31 225.18, 32 226.29 M334.18 226.29 C263.44 226.67, 192.76 226.16, 32 226.29 M32 226.29 C12.06 225.6, 0.44 216.63, 0 194.29 M32 226.29 C12.7 228.23, 0.72 217.18, 0 194.29 M0 194.29 C1.61 137.04, 3.1 80.02, 0 32 M0 194.29 C-0.67 148.45, -1.01 102.69, 0 32 M0 32 C-0.3 9.59, 9.18 -1.02, 32 0 M0 32 C0.53 10.56, 11.14 2.15, 32 0" stroke="#1e1e1e" stroke-width="2" fill="none"></path></g><g transform="translate(438.5537918341997 681.4315543723242) rotate(0 174.1999969482422 45)"><text x="174.1999969482422" y="0" font-family="Virgil, Segoe UI Emoji" font-size="36px" fill="#1e1e1e" text-anchor="middle" style="white-space: pre;" direction="ltr" dominant-baseline="text-before-edge">currentResultsComm</text><text x="174.1999969482422" y="45" font-family="Virgil, Segoe UI Emoji" font-size="36px" fill="#1e1e1e" text-anchor="middle" style="white-space: pre;" direction="ltr" dominant-baseline="text-before-edge">itment</text></g><g stroke-linecap="round" transform="translate(1105.877218750717 1193.026682626903) rotate(0 272.14759196711384 197.76647841846895)"><path d="M341.25 49.5 C367.6 76.95, 396.94 94.82, 476.05 148.5 C544.07 200.51, 542.09 195.45, 476.05 247.5 C432.03 282.43, 387.34 309.76, 341.25 346.03 C273.5 395.35, 273.4 393.85, 204.75 346.03 C170.76 318.31, 140.14 301.04, 68.25 247.5 C-2.93 199.43, -2.03 197.38, 68.25 148.5 C96.94 128.14, 125.09 107.1, 204.75 49.5 C276.13 0.28, 272.1 -2.93, 341.25 49.5" stroke="none" stroke-width="0" fill="#ffffff"></path><path d="M341.25 49.5 C373.82 75, 410.05 99.19, 476.05 148.5 M341.25 49.5 C368.33 69.69, 395.2 90.62, 476.05 148.5 M476.05 148.5 C542.8 197.41, 544.7 199.88, 476.05 247.5 M476.05 148.5 C545.65 199.9, 543.13 196.1, 476.05 247.5 M476.05 247.5 C436.75 274.27, 397.26 305.65, 341.25 346.03 M476.05 247.5 C443.79 270.85, 411.94 295.52, 341.25 346.03 M341.25 346.03 C271.56 393.92, 274.63 394.98, 204.75 346.03 M341.25 346.03 C274.61 393.5, 273.75 397.27, 204.75 346.03 M204.75 346.03 C176.42 324.73, 144.91 300.63, 68.25 247.5 M204.75 346.03 C153.67 309.05, 104.6 273.12, 68.25 247.5 M68.25 247.5 C1.43 196.8, 1.77 199.44, 68.25 148.5 M68.25 247.5 C-1.34 199.49, 1.73 196.56, 68.25 148.5 M68.25 148.5 C104.12 122.13, 142.99 91.91, 204.75 49.5 M68.25 148.5 C122.6 108.61, 174.42 71.07, 204.75 49.5 M204.75 49.5 C273.77 1.72, 274.18 -0.05, 341.25 49.5 M204.75 49.5 C274.22 1.64, 274.02 -1.52, 341.25 49.5" stroke="#1e1e1e" stroke-width="2" fill="none"></path></g><g transform="translate(1274.7510177860318 1323.4099218361375) rotate(0 103.19999694824219 67.5)"><text x="103.19999694824219" y="0" font-family="Virgil, Segoe UI Emoji" font-size="36px" fill="#1e1e1e" text-anchor="middle" style="white-space: pre;" direction="ltr" dominant-baseline="text-before-edge">3. Process </text><text x="103.19999694824219" y="45" font-family="Virgil, Segoe UI Emoji" font-size="36px" fill="#1e1e1e" text-anchor="middle" style="white-space: pre;" direction="ltr" dominant-baseline="text-before-edge">the next </text><text x="103.19999694824219" y="90" font-family="Virgil, Segoe UI Emoji" font-size="36px" fill="#1e1e1e" text-anchor="middle" style="white-space: pre;" direction="ltr" dominant-baseline="text-before-edge">batch</text></g><g stroke-linecap="round"><g transform="translate(1112.7047609314545 1433.629380372696) rotate(0 -126.54467608492541 59.89430046490236)"><path d="M-0.32 0.31 C-42.27 20.3, -210.18 99.86, -252.31 119.75 M1.71 -0.57 C-40.28 19.64, -210.25 101.02, -252.85 121.27" stroke="#1e1e1e" stroke-width="2" fill="none"></path></g><g transform="translate(1112.7047609314545 1433.629380372696) rotate(0 -126.54467608492541 59.89430046490236)"><path d="M-231.83 99.86 C-236.63 106.49, -242.5 110.59, -252.85 121.27 M-231.83 99.86 C-238.02 104.98, -243.18 111.33, -252.85 121.27" stroke="#1e1e1e" stroke-width="2" fill="none"></path></g><g transform="translate(1112.7047609314545 1433.629380372696) rotate(0 -126.54467608492541 59.89430046490236)"><path d="M-222.99 118.38 C-229.98 120.33, -238.08 119.76, -252.85 121.27 M-222.99 118.38 C-231.65 118.07, -239.38 119.05, -252.85 121.27" stroke="#1e1e1e" stroke-width="2" fill="none"></path></g></g><mask></mask><g stroke-linecap="round" transform="translate(198.40732001475544 2309.2648886748657) rotate(0 183.08903481787456 113.14490915711372)"><path d="M32 0 C127.08 -2.72, 224.3 -1.61, 334.18 0 M32 0 C102.4 0.88, 172.86 2.09, 334.18 0 M334.18 0 C356.49 1.85, 367.11 10.01, 366.18 32 M334.18 0 C357.14 2.15, 365.99 12.72, 366.18 32 M366.18 32 C364.1 91.54, 365.08 151.17, 366.18 194.29 M366.18 32 C365.55 71.81, 364.58 110.28, 366.18 194.29 M366.18 194.29 C364.76 214.42, 356.11 227.41, 334.18 226.29 M366.18 194.29 C366.99 216.95, 356.6 224.45, 334.18 226.29 M334.18 226.29 C248.61 227.76, 163.03 226.29, 32 226.29 M334.18 226.29 C238.4 227.98, 141.83 228.07, 32 226.29 M32 226.29 C9.64 225.9, 0.38 216.13, 0 194.29 M32 226.29 C10.28 224.95, 1.1 215.35, 0 194.29 M0 194.29 C1.49 135.34, 1.74 78.46, 0 32 M0 194.29 C-0.3 133.92, 0.48 74.41, 0 32 M0 32 C1.53 10.24, 9.07 -0.19, 32 0 M0 32 C-0.42 10.39, 11.78 0.82, 32 0" stroke="#1e1e1e" stroke-width="2" fill="none"></path></g><g transform="translate(205.6630265855597 2354.9097978319796) rotate(0 175.8333282470703 67.5)"><text x="175.8333282470703" y="0" font-family="Virgil, Segoe UI Emoji" font-size="36px" fill="#1e1e1e" text-anchor="middle" style="white-space: pre;" direction="ltr" dominant-baseline="text-before-edge">add to total votes</text><text x="175.8333282470703" y="45" font-family="Virgil, Segoe UI Emoji" font-size="36px" fill="#1e1e1e" text-anchor="middle" style="white-space: pre;" direction="ltr" dominant-baseline="text-before-edge">for x project the </text><text x="175.8333282470703" y="90" font-family="Virgil, Segoe UI Emoji" font-size="36px" fill="#1e1e1e" text-anchor="middle" style="white-space: pre;" direction="ltr" dominant-baseline="text-before-edge">current vote</text></g><g stroke-linecap="round" transform="translate(465.12200440206425 2027.144215609831) rotate(0 183.08903481787456 113.14490915711372)"><path d="M32 0 C101.14 -0.13, 171.29 -0.81, 334.18 0 M32 0 C101.91 -1.46, 171.45 -2.38, 334.18 0 M334.18 0 C356.93 1.87, 366.01 12.45, 366.18 32 M334.18 0 C357.16 -1.3, 367.06 9.33, 366.18 32 M366.18 32 C364.88 72.94, 364.44 118.59, 366.18 194.29 M366.18 32 C365.04 87.34, 366.05 144.43, 366.18 194.29 M366.18 194.29 C366.89 216.78, 356.45 224.69, 334.18 226.29 M366.18 194.29 C365.77 214.8, 356.66 225.9, 334.18 226.29 M334.18 226.29 C236.19 225.82, 139.13 224.92, 32 226.29 M334.18 226.29 C263.1 224.97, 192.92 225.3, 32 226.29 M32 226.29 C10.33 225.13, 0.96 215.38, 0 194.29 M32 226.29 C12.07 224.95, -0.31 216.24, 0 194.29 M0 194.29 C0.78 148.83, 0.04 102.74, 0 32 M0 194.29 C-0.13 147.48, -1.69 101.01, 0 32 M0 32 C-0.37 10.43, 11.63 0.72, 32 0 M0 32 C-0.62 12.83, 9.54 -1.29, 32 0" stroke="#1e1e1e" stroke-width="2" fill="none"></path></g><g transform="translate(471.2610422716966 2072.789124766945) rotate(0 176.9499969482422 67.5)"><text x="176.9499969482422" y="0" font-family="Virgil, Segoe UI Emoji" font-size="36px" fill="#1e1e1e" text-anchor="middle" style="white-space: pre;" direction="ltr" dominant-baseline="text-before-edge">add to the spent </text><text x="176.9499969482422" y="45" font-family="Virgil, Segoe UI Emoji" font-size="36px" fill="#1e1e1e" text-anchor="middle" style="white-space: pre;" direction="ltr" dominant-baseline="text-before-edge">per this vote option</text><text x="176.9499969482422" y="90" font-family="Virgil, Segoe UI Emoji" font-size="36px" fill="#1e1e1e" text-anchor="middle" style="white-space: pre;" direction="ltr" dominant-baseline="text-before-edge">the squared vote</text></g><g stroke-linecap="round" transform="translate(20.36935211050786 2009.9582971201903) rotate(0 183.08903481787456 113.14490915711372)"><path d="M32 0 C100.81 -0.4, 166.45 -0.05, 334.18 0 M32 0 C151.39 -2.38, 270.02 -2.39, 334.18 0 M334.18 0 C354.76 -0.18, 364.77 9.52, 366.18 32 M334.18 0 C353.62 -1.83, 367.8 11.69, 366.18 32 M366.18 32 C364.26 77.03, 366.58 121.57, 366.18 194.29 M366.18 32 C366.77 89.7, 367.44 147.95, 366.18 194.29 M366.18 194.29 C366.68 214.91, 354 226.64, 334.18 226.29 M366.18 194.29 C368.05 217.89, 355.98 224.77, 334.18 226.29 M334.18 226.29 C263.83 225.43, 194.42 224.91, 32 226.29 M334.18 226.29 C261.51 225.6, 187.86 226.22, 32 226.29 M32 226.29 C10.28 227.08, 1.31 217.05, 0 194.29 M32 226.29 C10.76 227.07, -0.53 215.33, 0 194.29 M0 194.29 C-1.4 135.09, -1.16 78.72, 0 32 M0 194.29 C-1.05 148.47, -1.27 100.21, 0 32 M0 32 C-0.13 8.93, 10.72 0, 32 0 M0 32 C1.1 10.65, 11.58 0.61, 32 0" stroke="#1e1e1e" stroke-width="2" fill="none"></path></g><g transform="translate(26.441724330726174 2055.603206277304) rotate(0 177.01666259765625 67.5)"><text x="177.01666259765625" y="0" font-family="Virgil, Segoe UI Emoji" font-size="36px" fill="#1e1e1e" text-anchor="middle" style="white-space: pre;" direction="ltr" dominant-baseline="text-before-edge">add to the total </text><text x="177.01666259765625" y="45" font-family="Virgil, Segoe UI Emoji" font-size="36px" fill="#1e1e1e" text-anchor="middle" style="white-space: pre;" direction="ltr" dominant-baseline="text-before-edge">spent voice credits </text><text x="177.01666259765625" y="90" font-family="Virgil, Segoe UI Emoji" font-size="36px" fill="#1e1e1e" text-anchor="middle" style="white-space: pre;" direction="ltr" dominant-baseline="text-before-edge">the squared vote</text></g><g stroke-linecap="round" transform="translate(373.17925293129383 1515.496201329021) rotate(0 183.08903481787456 140)"><path d="M32 0 C98.17 -0.4, 163.62 -2.81, 334.18 0 M32 0 C138.11 -0.04, 245.62 -0.58, 334.18 0 M334.18 0 C356.82 -0.21, 365.66 12.45, 366.18 32 M334.18 0 C353.97 1.53, 368.01 11.5, 366.18 32 M366.18 32 C366.6 101.71, 366.92 168.95, 366.18 248 M366.18 32 C367.48 77.02, 366.82 123.69, 366.18 248 M366.18 248 C366.48 270.95, 353.97 280.51, 334.18 280 M366.18 248 C366.54 269.66, 357.49 282.14, 334.18 280 M334.18 280 C238.02 279.98, 141.51 280.82, 32 280 M334.18 280 C257.64 280.65, 181.47 281.59, 32 280 M32 280 C9.54 278.85, -1.94 271.26, 0 248 M32 280 C9.9 278.58, 1.33 268.67, 0 248 M0 248 C0.68 178.46, 2.63 111.76, 0 32 M0 248 C0.32 200.36, -0.1 154.12, 0 32 M0 32 C-0.37 11.97, 10.8 -1.61, 32 0 M0 32 C1.5 9.69, 12.64 1.48, 32 0" stroke="#1e1e1e" stroke-width="2" fill="none"></path></g><g transform="translate(386.2682877491684 1520.496201329021) rotate(0 170 135)"><text x="170" y="0" font-family="Virgil, Segoe UI Emoji" font-size="36px" fill="#1e1e1e" text-anchor="middle" style="white-space: pre;" direction="ltr" dominant-baseline="text-before-edge">for each ballot in </text><text x="170" y="45" font-family="Virgil, Segoe UI Emoji" font-size="36px" fill="#1e1e1e" text-anchor="middle" style="white-space: pre;" direction="ltr" dominant-baseline="text-before-edge">this batch, loop </text><text x="170" y="90" font-family="Virgil, Segoe UI Emoji" font-size="36px" fill="#1e1e1e" text-anchor="middle" style="white-space: pre;" direction="ltr" dominant-baseline="text-before-edge">through all of the </text><text x="170" y="135" font-family="Virgil, Segoe UI Emoji" font-size="36px" fill="#1e1e1e" text-anchor="middle" style="white-space: pre;" direction="ltr" dominant-baseline="text-before-edge">vote options and </text><text x="170" y="180" font-family="Virgil, Segoe UI Emoji" font-size="36px" fill="#1e1e1e" text-anchor="middle" style="white-space: pre;" direction="ltr" dominant-baseline="text-before-edge">do the processing </text><text x="170" y="225" font-family="Virgil, Segoe UI Emoji" font-size="36px" fill="#1e1e1e" text-anchor="middle" style="white-space: pre;" direction="ltr" dominant-baseline="text-before-edge">below</text></g><g stroke-linecap="round"><g transform="translate(513.6355198039269 1861.2624341609815) rotate(0 1.8724999428559386 61.792498114242676)"><path d="M0.72 0.99 C1.26 21.66, 3.76 103.92, 4.31 124.51 M-0.36 0.47 C-0.02 20.77, 3.03 102.51, 3.65 122.87" stroke="#1e1e1e" stroke-width="2" fill="none"></path></g><g transform="translate(513.6355198039269 1861.2624341609815) rotate(0 1.8724999428559386 61.792498114242676)"><path d="M-7.56 95.05 C-1.45 106.72, 2.8 117.02, 3.65 122.87 M-7.56 95.05 C-2.28 106.16, 1.11 116.86, 3.65 122.87" stroke="#1e1e1e" stroke-width="2" fill="none"></path></g><g transform="translate(513.6355198039269 1861.2624341609815) rotate(0 1.8724999428559386 61.792498114242676)"><path d="M12.94 94.35 C11.1 106.41, 7.39 116.99, 3.65 122.87 M12.94 94.35 C10.51 105.69, 6.17 116.64, 3.65 122.87" stroke="#1e1e1e" stroke-width="2" fill="none"></path></g></g><mask></mask><g stroke-linecap="round"><g transform="translate(1355.3910326081686 508.5917908584188) rotate(0 -1.8724999428557112 65.53749799995433)"><path d="M-0.45 0.65 C-1.11 22.68, -4.27 110.44, -4.91 132.17 M1.52 -0.06 C1.29 21.67, -1.67 108.56, -2.81 130.62" stroke="#1e1e1e" stroke-width="2" fill="none"></path></g><g transform="translate(1355.3910326081686 508.5917908584188) rotate(0 -1.8724999428557112 65.53749799995433)"><path d="M-11.9 102.03 C-8.83 106.44, -6.07 113.83, -2.81 130.62 M-11.9 102.03 C-9.79 110.8, -5.89 119.18, -2.81 130.62" stroke="#1e1e1e" stroke-width="2" fill="none"></path></g><g transform="translate(1355.3910326081686 508.5917908584188) rotate(0 -1.8724999428557112 65.53749799995433)"><path d="M8.6 102.87 C7.15 107.02, 5.37 114.23, -2.81 130.62 M8.6 102.87 C4.71 111.48, 2.59 119.62, -2.81 130.62" stroke="#1e1e1e" stroke-width="2" fill="none"></path></g></g><mask></mask><g stroke-linecap="round"><g transform="translate(1370.3710321510139 1081.5767733723048) rotate(0 7.489999771423527 48.68499851425179)"><path d="M0.42 0.74 C2.57 17.08, 11.44 80.88, 14.01 96.86 M-0.81 0.08 C1.6 16.68, 13.49 81.88, 16.21 98.13" stroke="#1e1e1e" stroke-width="2" fill="none"></path></g><g transform="translate(1370.3710321510139 1081.5767733723048) rotate(0 7.489999771423527 48.68499851425179)"><path d="M1.23 72.14 C8.1 80.69, 11.92 93.95, 16.21 98.13 M1.23 72.14 C5.28 78.74, 9.38 85.27, 16.21 98.13" stroke="#1e1e1e" stroke-width="2" fill="none"></path></g><g transform="translate(1370.3710321510139 1081.5767733723048) rotate(0 7.489999771423527 48.68499851425179)"><path d="M21.45 68.59 C20.32 78.62, 16.18 93.27, 16.21 98.13 M21.45 68.59 C20.65 75.85, 19.89 83.24, 16.21 98.13" stroke="#1e1e1e" stroke-width="2" fill="none"></path></g></g><mask></mask><g stroke-linecap="round" transform="translate(1125.4662688370117 1774.8159346081234) rotate(0 272.14759196711384 325)"><path d="M341.25 81.5 C378.24 123.36, 408.68 166.48, 476.05 244.5 C543.3 326.6, 546.78 326.6, 476.05 407.5 C439.65 451.31, 406.09 486.92, 341.25 568.5 C269.71 648.91, 276.24 651.2, 204.75 568.5 C173.24 529.53, 137.83 493.39, 68.25 407.5 C1.03 322.46, 3.39 324.62, 68.25 244.5 C118.21 182.23, 163.69 127.5, 204.75 81.5 C270.78 2.01, 275.69 -3.13, 341.25 81.5" stroke="none" stroke-width="0" fill="#ffffff"></path><path d="M341.25 81.5 C390.73 138.36, 440.05 198.21, 476.05 244.5 M341.25 81.5 C381.05 128.56, 420.2 176.54, 476.05 244.5 M476.05 244.5 C542.63 324.28, 542.6 327.43, 476.05 407.5 M476.05 244.5 C545.12 326.83, 545.07 324.45, 476.05 407.5 M476.05 407.5 C430.46 461.9, 382.94 515.41, 341.25 568.5 M476.05 407.5 C432.88 460.7, 389.03 512.71, 341.25 568.5 M341.25 568.5 C275 649.11, 274.6 648.96, 204.75 568.5 M341.25 568.5 C271.35 648.72, 272.05 648.27, 204.75 568.5 M204.75 568.5 C162.02 516.49, 115.41 464.95, 68.25 407.5 M204.75 568.5 C155.6 510.67, 106.97 452.85, 68.25 407.5 M68.25 407.5 C0.12 326.08, 1.84 325.42, 68.25 244.5 M68.25 407.5 C-1.24 324.26, -0.86 325.39, 68.25 244.5 M68.25 244.5 C118.87 188.09, 166.61 128.24, 204.75 81.5 M68.25 244.5 C108.47 195.77, 147.79 148.43, 204.75 81.5 M204.75 81.5 C273.25 -0.93, 274.62 -0.07, 341.25 81.5 M204.75 81.5 C271.7 0.4, 273.04 -1.56, 341.25 81.5" stroke="#1e1e1e" stroke-width="2" fill="none"></path></g><g transform="translate(1270.8067350476194 1942.3159346081234) rotate(0 126.73332977294922 157.5)"><text x="126.73332977294922" y="0" font-family="Virgil, Segoe UI Emoji" font-size="36px" fill="#1e1e1e" text-anchor="middle" style="white-space: pre;" direction="ltr" dominant-baseline="text-before-edge">4. If this is </text><text x="126.73332977294922" y="45" font-family="Virgil, Segoe UI Emoji" font-size="36px" fill="#1e1e1e" text-anchor="middle" style="white-space: pre;" direction="ltr" dominant-baseline="text-before-edge">the last </text><text x="126.73332977294922" y="90" font-family="Virgil, Segoe UI Emoji" font-size="36px" fill="#1e1e1e" text-anchor="middle" style="white-space: pre;" direction="ltr" dominant-baseline="text-before-edge">batch then fill</text><text x="126.73332977294922" y="135" font-family="Virgil, Segoe UI Emoji" font-size="36px" fill="#1e1e1e" text-anchor="middle" style="white-space: pre;" direction="ltr" dominant-baseline="text-before-edge">the rest of </text><text x="126.73332977294922" y="180" font-family="Virgil, Segoe UI Emoji" font-size="36px" fill="#1e1e1e" text-anchor="middle" style="white-space: pre;" direction="ltr" dominant-baseline="text-before-edge">the ballots </text><text x="126.73332977294922" y="225" font-family="Virgil, Segoe UI Emoji" font-size="36px" fill="#1e1e1e" text-anchor="middle" style="white-space: pre;" direction="ltr" dominant-baseline="text-before-edge">array with </text><text x="126.73332977294922" y="270" font-family="Virgil, Segoe UI Emoji" font-size="36px" fill="#1e1e1e" text-anchor="middle" style="white-space: pre;" direction="ltr" dominant-baseline="text-before-edge">empty ballots</text></g><g stroke-linecap="round"><g transform="translate(1385.9475303862678 1603.1486164610776) rotate(0 -1.9443884029765286 77.7755361190558)"><path d="M0.08 -0.04 C-0.79 25.68, -3.93 128.68, -4.54 154.52 M-1.33 -1.11 C-1.88 24.72, -1.69 129.32, -2.17 155.52" stroke="#1e1e1e" stroke-width="2" fill="none"></path></g><g transform="translate(1385.9475303862678 1603.1486164610776) rotate(0 -1.9443884029765286 77.7755361190558)"><path d="M-12.23 127.25 C-8.64 136.35, -6.66 148.15, -2.17 155.52 M-12.23 127.25 C-10.04 134.97, -6.62 141.06, -2.17 155.52" stroke="#1e1e1e" stroke-width="2" fill="none"></path></g><g transform="translate(1385.9475303862678 1603.1486164610776) rotate(0 -1.9443884029765286 77.7755361190558)"><path d="M8.29 127.4 C4.48 136.46, -0.94 148.21, -2.17 155.52 M8.29 127.4 C5.24 135.04, 3.42 141.1, -2.17 155.52" stroke="#1e1e1e" stroke-width="2" fill="none"></path></g></g><mask></mask><g stroke-linecap="round" transform="translate(1041.4307729558413 2633.620371873916) rotate(0 347.1560329347062 235)"><path d="M435 59 C496.74 105.72, 558.95 150.89, 607.31 177 C690.92 239.41, 696.38 239.18, 607.31 295 C575.21 319.86, 540.43 341.86, 435 411 C347.95 467.88, 350.28 468.85, 261 411 C212.33 376.9, 157.03 344.92, 87 295 C-0.2 233.56, -3.35 236.69, 87 177 C147.3 136.41, 205.36 96.3, 261 59 C345.04 -0.23, 349.12 0.5, 435 59" stroke="none" stroke-width="0" fill="#ffffff"></path><path d="M435 59 C489.26 97.72, 545.6 135.11, 607.31 177 M435 59 C480.9 91.88, 525.66 122.29, 607.31 177 M607.31 177 C693.18 236.28, 695.35 237.24, 607.31 295 M607.31 177 C692.77 237.65, 695.78 237.94, 607.31 295 M607.31 295 C554.57 330.07, 497.31 368.53, 435 411 M607.31 295 C539.64 339.69, 471.23 386.95, 435 411 M435 411 C347.29 471.83, 349.99 470.96, 261 411 M435 411 C347.1 469.27, 347.03 469.39, 261 411 M261 411 C215.11 381.97, 168.66 349.3, 87 295 M261 411 C195.43 367.43, 131.59 324.46, 87 295 M87 295 C1.32 236.15, 1.09 236.95, 87 177 M87 295 C0.02 234, -0.67 237.88, 87 177 M87 177 C153.38 131.23, 219.28 88.96, 261 59 M87 177 C138.8 142.13, 190.21 108.73, 261 59 M261 59 C348.53 -0.64, 348.44 1.04, 435 59 M261 59 C349.35 -2.07, 347.64 1.11, 435 59" stroke="#1e1e1e" stroke-width="2" fill="none"></path></g><g transform="translate(1222.3587955267099 2756.120371873916) rotate(0 166.14999389648438 112.5)"><text x="166.14999389648438" y="0" font-family="Virgil, Segoe UI Emoji" font-size="36px" fill="#1e1e1e" text-anchor="middle" style="white-space: pre;" direction="ltr" dominant-baseline="text-before-edge">5. Generate </text><text x="166.14999389648438" y="45" font-family="Virgil, Segoe UI Emoji" font-size="36px" fill="#1e1e1e" text-anchor="middle" style="white-space: pre;" direction="ltr" dominant-baseline="text-before-edge">random salts to </text><text x="166.14999389648438" y="90" font-family="Virgil, Segoe UI Emoji" font-size="36px" fill="#1e1e1e" text-anchor="middle" style="white-space: pre;" direction="ltr" dominant-baseline="text-before-edge">be used while </text><text x="166.14999389648438" y="135" font-family="Virgil, Segoe UI Emoji" font-size="36px" fill="#1e1e1e" text-anchor="middle" style="white-space: pre;" direction="ltr" dominant-baseline="text-before-edge">computing the new </text><text x="166.14999389648438" y="180" font-family="Virgil, Segoe UI Emoji" font-size="36px" fill="#1e1e1e" text-anchor="middle" style="white-space: pre;" direction="ltr" dominant-baseline="text-before-edge">commitments</text></g><g stroke-linecap="round"><g transform="translate(1386.9654193929996 2449.371032218245) rotate(0 -1.6119932378437625 79.72832802402718)"><path d="M0.97 0.04 C0.49 26.5, -2.39 133.21, -3.13 159.89 M0.03 -0.99 C-0.58 25.62, -3.29 131.48, -4.02 157.99" stroke="#1e1e1e" stroke-width="2" fill="none"></path></g><g transform="translate(1386.9654193929996 2449.371032218245) rotate(0 -1.6119932378437625 79.72832802402718)"><path d="M-13.54 129.54 C-10.54 137.61, -7.21 145.02, -4.02 157.99 M-13.54 129.54 C-11.13 140.5, -6.29 150.32, -4.02 157.99" stroke="#1e1e1e" stroke-width="2" fill="none"></path></g><g transform="translate(1386.9654193929996 2449.371032218245) rotate(0 -1.6119932378437625 79.72832802402718)"><path d="M6.98 130.08 C4.22 138.17, 1.78 145.43, -4.02 157.99 M6.98 130.08 C2.15 140.81, -0.23 150.44, -4.02 157.99" stroke="#1e1e1e" stroke-width="2" fill="none"></path></g></g><mask></mask><g stroke-linecap="round"><g transform="translate(1388.0866492388755 3127.0642688287703) rotate(0 0 106.9708724143319)"><path d="M0.67 0.44 C0.3 36.09, -0.89 179.3, -1.09 214.92 M-0.44 -0.37 C-0.54 35.47, 1.25 177.32, 1.06 213.31" stroke="#1e1e1e" stroke-width="2" fill="none"></path></g><g transform="translate(1388.0866492388755 3127.0642688287703) rotate(0 0 106.9708724143319)"><path d="M-9.34 185.17 C-4.3 194.3, 0.66 206.22, 1.06 213.31 M-9.34 185.17 C-6.43 194.84, -2.35 203.76, 1.06 213.31" stroke="#1e1e1e" stroke-width="2" fill="none"></path></g><g transform="translate(1388.0866492388755 3127.0642688287703) rotate(0 0 106.9708724143319)"><path d="M11.18 185.07 C8.21 194.35, 5.15 206.31, 1.06 213.31 M11.18 185.07 C7.53 194.87, 5.06 203.82, 1.06 213.31" stroke="#1e1e1e" stroke-width="2" fill="none"></path></g></g><mask></mask><g stroke-linecap="round" transform="translate(1037.0589383439928 3416.0760805259206) rotate(0 347.1560329347062 235)"><path d="M435 59 C488.78 93.26, 541.34 134.31, 607.31 177 C697.35 234.31, 693.67 238.91, 607.31 295 C554.57 330.38, 499.34 362.67, 435 411 C349.92 471.51, 351.17 472.56, 261 411 C207.22 375.65, 154.56 341.78, 87 295 C-2.23 233.09, 3 236.75, 87 177 C128.92 141.99, 179.27 110.13, 261 59 C345.37 -1.61, 348.97 -3.59, 435 59" stroke="none" stroke-width="0" fill="#ffffff"></path><path d="M435 59 C502.59 105.09, 568.86 149.87, 607.31 177 M435 59 C482.13 90.43, 528.77 121.96, 607.31 177 M607.31 177 C693.84 236.35, 696.06 236.06, 607.31 295 M607.31 177 C695.36 237.59, 693.98 236.26, 607.31 295 M607.31 295 C571.01 320.86, 534.26 343.7, 435 411 M607.31 295 C544.14 338.82, 478.9 382.04, 435 411 M435 411 C349.96 470.64, 349.39 468.12, 261 411 M435 411 C350.19 468.8, 347.2 467.91, 261 411 M261 411 C224.52 385.08, 185.41 359.13, 87 295 M261 411 C197.66 370.29, 135.08 328.67, 87 295 M87 295 C-0.37 234.52, 1.84 234.5, 87 177 M87 295 C-1.97 237.48, 0.51 234.29, 87 177 M87 177 C139.95 141.22, 194.76 102.52, 261 59 M87 177 C137.13 142.87, 187.96 109.22, 261 59 M261 59 C347.77 -0.84, 347.34 -0.4, 435 59 M261 59 C346.69 0.58, 347.93 -0.45, 435 59" stroke="#1e1e1e" stroke-width="2" fill="none"></path></g><g transform="translate(1229.4202952654473 3583.5760805259206) rotate(0 154.71665954589844 67.5)"><text x="154.71665954589844" y="0" font-family="Virgil, Segoe UI Emoji" font-size="36px" fill="#1e1e1e" text-anchor="middle" style="white-space: pre;" direction="ltr" dominant-baseline="text-before-edge">6. Generate new </text><text x="154.71665954589844" y="45" font-family="Virgil, Segoe UI Emoji" font-size="36px" fill="#1e1e1e" text-anchor="middle" style="white-space: pre;" direction="ltr" dominant-baseline="text-before-edge">commitments and </text><text x="154.71665954589844" y="90" font-family="Virgil, Segoe UI Emoji" font-size="36px" fill="#1e1e1e" text-anchor="middle" style="white-space: pre;" direction="ltr" dominant-baseline="text-before-edge">circuit inputs</text></g></svg>