<svg version="1.1" xmlns="http://www.w3.org/2000/svg" viewBox="0 0 1046.4527372003845 505.5084278328601" width="3139.3582116011535" height="1516.5252834985804">
  <!-- svg-source:excalidraw -->
  
  <defs>
    <style class="style-fonts">
      @font-face {
        font-family: "Virgil";
        src: url("https://excalidraw.com/Virgil.woff2");
      }
      @font-face {
        font-family: "Cascadia";
        src: url("https://excalidraw.com/Cascadia.woff2");
      }
      @font-face {
        font-family: "Assistant";
        src: url("https://excalidraw.com/Assistant-Regular.woff2");
      }
    </style>
    
  </defs>
  <rect x="0" y="0" width="1046.4527372003845" height="505.5084278328601" fill="#ffffff"></rect><g stroke-linecap="round" transform="translate(317.50900623810526 152.4211258690167) rotate(0 114.33810379333897 33.80052213620306)"><path d="M16.9 0 C96.42 0.87, 172.41 2.95, 211.78 0 M16.9 0 C77.76 0.71, 137.9 1.21, 211.78 0 M211.78 0 C222.33 -1.63, 230.54 6.17, 228.68 16.9 M211.78 0 C223.84 -0.2, 226.67 6.79, 228.68 16.9 M228.68 16.9 C226.82 28.77, 228.67 41.18, 228.68 50.7 M228.68 16.9 C229.36 28.13, 227.99 41.19, 228.68 50.7 M228.68 50.7 C227.5 60.36, 224.84 65.93, 211.78 67.6 M228.68 50.7 C230.75 60.4, 224.65 68.12, 211.78 67.6 M211.78 67.6 C145.53 68.9, 77.85 67.4, 16.9 67.6 M211.78 67.6 C136.38 67.76, 61.71 67.47, 16.9 67.6 M16.9 67.6 C4.17 69.3, 0.93 60.22, 0 50.7 M16.9 67.6 C6.48 67.97, 1.34 64.03, 0 50.7 M0 50.7 C0.12 41.21, -0.35 34.75, 0 16.9 M0 50.7 C-1.21 44.36, -0.92 37.63, 0 16.9 M0 16.9 C-1.09 4.01, 5.99 0.97, 16.9 0 M0 16.9 C-0.67 4.34, 3.87 1.37, 16.9 0" stroke="#1971c2" stroke-width="1" fill="none"></path></g><g transform="translate(351.45717167695216 173.72164800521966) rotate(0 80.38993835449219 12.5)"><text x="80.38993835449219" y="0" font-family="Virgil, Segoe UI Emoji" font-size="20px" fill="#e03131" text-anchor="middle" style="white-space: pre;" direction="ltr" dominant-baseline="text-before-edge">Calculate Total</text></g><g stroke-linecap="round" transform="translate(315.8000954285076 11.33186172321075) rotate(0 110.05757116156974 32.177416550875904)"><path d="M16.09 0 C81.89 -0.83, 150.25 2.03, 204.03 0 M16.09 0 C75.11 0.45, 133.1 1.21, 204.03 0 M204.03 0 C213.08 -1.36, 220.55 7.17, 220.12 16.09 M204.03 0 C215.36 0.57, 220.56 4.17, 220.12 16.09 M220.12 16.09 C222.08 27.94, 218.57 36.04, 220.12 48.27 M220.12 16.09 C219.42 27.55, 219.99 37.66, 220.12 48.27 M220.12 48.27 C221.48 58.56, 215.59 64.92, 204.03 64.35 M220.12 48.27 C221.09 59.96, 213.31 66.07, 204.03 64.35 M204.03 64.35 C145.67 65.73, 89.41 65.72, 16.09 64.35 M204.03 64.35 C163.4 66.16, 123.25 65.65, 16.09 64.35 M16.09 64.35 C7.28 66.12, 1.7 59.29, 0 48.27 M16.09 64.35 C3.85 65.77, -1.9 57.73, 0 48.27 M0 48.27 C-1.11 40.08, 0.37 35.63, 0 16.09 M0 48.27 C0.68 41.2, -1.02 31.41, 0 16.09 M0 16.09 C1.12 4.32, 5.65 1.76, 16.09 0 M0 16.09 C-0.47 5.64, 4.48 0.54, 16.09 0" stroke="#1971c2" stroke-width="1" fill="none"></path></g><g transform="translate(332.7177434943742 18.509278274086682) rotate(0 93.13992309570312 25)"><text x="93.13992309570312" y="0" font-family="Virgil, Segoe UI Emoji" font-size="20px" fill="#1971c2" text-anchor="middle" style="white-space: pre;" direction="ltr" dominant-baseline="text-before-edge">numbers (array of </text><text x="93.13992309570312" y="25" font-family="Virgil, Segoe UI Emoji" font-size="20px" fill="#1971c2" text-anchor="middle" style="white-space: pre;" direction="ltr" dominant-baseline="text-before-edge">len n)</text></g><g stroke-linecap="round"><g transform="translate(419.0921960177825 102.75151967346221) rotate(0 -0.44580281989499326 19.782500132839004)"><path d="M0.11 -0.01 C-0.14 6.52, -1.18 32.97, -1.33 39.64 M-0.5 -0.48 C-0.59 6.38, -0.22 33.77, -0.32 40.39" stroke="#1e1e1e" stroke-width="1" fill="none"></path></g><g transform="translate(419.0921960177825 102.75151967346221) rotate(0 -0.44580281989499326 19.782500132839004)"><path d="M-7.11 21.8 C-4.83 27.04, -2.47 34.05, -0.32 40.39 M-7.11 21.8 C-4.05 28.96, -1.42 35.76, -0.32 40.39" stroke="#1e1e1e" stroke-width="1" fill="none"></path></g><g transform="translate(419.0921960177825 102.75151967346221) rotate(0 -0.44580281989499326 19.782500132839004)"><path d="M6.42 21.78 C4.31 27.04, 2.27 34.06, -0.32 40.39 M6.42 21.78 C4.27 28.88, 1.68 35.69, -0.32 40.39" stroke="#1e1e1e" stroke-width="1" fill="none"></path></g></g><mask></mask><g stroke-linecap="round" transform="translate(10 155.81738121194633) rotate(0 110.05757116156974 32.177416550875904)"><path d="M16.09 0 C74.5 1.54, 134.65 -0.52, 204.03 0 M16.09 0 C80.64 -0.04, 143.36 -0.94, 204.03 0 M204.03 0 C214 -1.74, 218.63 6.12, 220.12 16.09 M204.03 0 C214.37 0.63, 219.56 7.27, 220.12 16.09 M220.12 16.09 C218.33 25.25, 219.73 31.23, 220.12 48.27 M220.12 16.09 C219.49 22.38, 220.68 29.42, 220.12 48.27 M220.12 48.27 C219.44 60.49, 215.42 63.16, 204.03 64.35 M220.12 48.27 C218.76 59.51, 216.15 66.64, 204.03 64.35 M204.03 64.35 C144 66.51, 79.62 63.36, 16.09 64.35 M204.03 64.35 C157.59 65.96, 109.47 65.49, 16.09 64.35 M16.09 64.35 C5.05 63.75, -1.81 57.54, 0 48.27 M16.09 64.35 C4.29 64.93, 0.87 57.72, 0 48.27 M0 48.27 C0.92 39.43, 0.15 33.39, 0 16.09 M0 48.27 C-0.03 39.31, 0.19 30.56, 0 16.09 M0 16.09 C-1.82 5.57, 5.09 0.78, 16.09 0 M0 16.09 C-1.58 5.64, 3.97 -1.33, 16.09 0" stroke="#f08c00" stroke-width="1" fill="none"></path></g><g transform="translate(58.17761968451896 175.49479776282226) rotate(0 61.87995147705078 12.5)"><text x="61.87995147705078" y="0" font-family="Virgil, Segoe UI Emoji" font-size="20px" fill="#f08c00" text-anchor="middle" style="white-space: pre;" direction="ltr" dominant-baseline="text-before-edge">parameter: n</text></g><g transform="translate(464.4939109809743 105.29837467230652) rotate(0 26.379974365234375 12.5)"><text x="0" y="0" font-family="Virgil, Segoe UI Emoji" font-size="20px" fill="#1e1e1e" text-anchor="start" style="white-space: pre;" direction="ltr" dominant-baseline="text-before-edge">Input</text></g><g transform="translate(475.7801470929769 253.8652823788026) rotate(0 34.84996032714844 12.5)"><text x="0" y="0" font-family="Virgil, Segoe UI Emoji" font-size="20px" fill="#1e1e1e" text-anchor="start" style="white-space: pre;" direction="ltr" dominant-baseline="text-before-edge">Output</text></g><g stroke-linecap="round"><g transform="translate(414.7992799743495 252.59492860871353) rotate(0 0.2229014099474398 20.511057519056408)"><path d="M0.54 -0.09 C0.68 6.76, 0.76 33.84, 0.82 40.67 M0.16 -0.62 C0.26 6.33, 0.47 34.19, 0.58 41.2" stroke="#1e1e1e" stroke-width="1" fill="none"></path></g><g transform="translate(414.7992799743495 252.59492860871353) rotate(0 0.2229014099474398 20.511057519056408)"><path d="M-6.65 22 C-4.74 28.37, -3.04 34.28, 0.58 41.2 M-6.65 22 C-5.13 27.07, -2.34 32.6, 0.58 41.2" stroke="#1e1e1e" stroke-width="1" fill="none"></path></g><g transform="translate(414.7992799743495 252.59492860871353) rotate(0 0.2229014099474398 20.511057519056408)"><path d="M7.38 21.84 C5.11 28.33, 2.62 34.29, 0.58 41.2 M7.38 21.84 C4.99 26.95, 3.86 32.53, 0.58 41.2" stroke="#1e1e1e" stroke-width="1" fill="none"></path></g></g><mask></mask><g stroke-linecap="round" transform="translate(318.2396275262663 319.4930609756058) rotate(0 110.05757116156974 32.177416550875904)"><path d="M16.09 0 C81.5 1.8, 142.62 1.47, 204.03 0 M16.09 0 C81.52 -0.57, 147.71 -0.65, 204.03 0 M204.03 0 C214.21 -0.18, 219.41 3.83, 220.12 16.09 M204.03 0 C214.54 1.23, 220.91 7.39, 220.12 16.09 M220.12 16.09 C221.17 24.39, 221.76 32.61, 220.12 48.27 M220.12 16.09 C220.42 27.12, 218.9 36.85, 220.12 48.27 M220.12 48.27 C220.25 60.97, 213.52 64.82, 204.03 64.35 M220.12 48.27 C217.97 60.31, 215.77 63.54, 204.03 64.35 M204.03 64.35 C147.29 67.33, 88.11 63.73, 16.09 64.35 M204.03 64.35 C149.91 66.13, 96.81 64.38, 16.09 64.35 M16.09 64.35 C5.52 62.44, 1.54 58.98, 0 48.27 M16.09 64.35 C3.6 63.94, 1.1 58.99, 0 48.27 M0 48.27 C0.33 35.34, -0.78 27.54, 0 16.09 M0 48.27 C-0.24 37.35, 0.52 25.93, 0 16.09 M0 16.09 C1.83 7.09, 3.46 -0.17, 16.09 0 M0 16.09 C-2.01 3.88, 3.23 1.83, 16.09 0" stroke="#1971c2" stroke-width="1" fill="none"></path></g><g transform="translate(410.8572191346134 339.1704775264817) rotate(0 17.439979553222656 12.5)"><text x="17.439979553222656" y="0" font-family="Virgil, Segoe UI Emoji" font-size="20px" fill="#2f9e44" text-anchor="middle" style="white-space: pre;" direction="ltr" dominant-baseline="text-before-edge">sum</text></g><g stroke-linecap="round"><g transform="translate(245.41484743370188 189.27854477196468) rotate(0 24.285934174555905 -0.22909311577939206)"><path d="M-0.54 -0.13 C7.57 -0.15, 40.65 -0.63, 48.83 -0.6 M0.19 -0.67 C8.23 -0.56, 40.54 0.04, 48.53 0.03" stroke="#1e1e1e" stroke-width="1" fill="none"></path></g><g transform="translate(245.41484743370188 189.27854477196468) rotate(0 24.285934174555905 -0.22909311577939206)"><path d="M25.62 8.1 C33.1 5.97, 40.75 2.7, 48.53 0.03 M25.62 8.1 C34.6 5.3, 43.76 2.03, 48.53 0.03" stroke="#1e1e1e" stroke-width="1" fill="none"></path></g><g transform="translate(245.41484743370188 189.27854477196468) rotate(0 24.285934174555905 -0.22909311577939206)"><path d="M25.79 -8.51 C33.13 -5.07, 40.73 -2.78, 48.53 0.03 M25.79 -8.51 C34.76 -4.76, 43.85 -1.48, 48.53 0.03" stroke="#1e1e1e" stroke-width="1" fill="none"></path></g></g><mask></mask><g stroke-linecap="round" transform="translate(760.6122423903735 10) rotate(0 110.05757116156974 32.177416550875904)"><path d="M16.09 0 C59.3 0.38, 102.66 -2.36, 204.03 0 M16.09 0 C78.15 1.92, 139.22 0.44, 204.03 0 M204.03 0 C212.91 1.65, 220.94 3.48, 220.12 16.09 M204.03 0 C212.64 -0.23, 221.2 5.63, 220.12 16.09 M220.12 16.09 C218.38 21.34, 218.04 30.76, 220.12 48.27 M220.12 16.09 C220.68 22.14, 219.98 30.3, 220.12 48.27 M220.12 48.27 C221.4 58.59, 216.3 64.52, 204.03 64.35 M220.12 48.27 C220.82 56.95, 212.61 64.13, 204.03 64.35 M204.03 64.35 C147.97 65.14, 94.01 62.95, 16.09 64.35 M204.03 64.35 C162.35 64.21, 119.28 63.41, 16.09 64.35 M16.09 64.35 C5.48 64.61, 0.53 58.04, 0 48.27 M16.09 64.35 C3.55 66.09, 1.05 59.74, 0 48.27 M0 48.27 C-0.87 40.51, -1.59 34.15, 0 16.09 M0 48.27 C0.42 39.13, 0.97 27.78, 0 16.09 M0 16.09 C1.57 4.26, 4.99 -0.74, 16.09 0 M0 16.09 C-1.64 5.6, 7.13 -2.13, 16.09 0" stroke="#1971c2" stroke-width="1" fill="none"></path></g><g transform="translate(778.289884963076 17.177416550875932) rotate(0 92.37992858886719 25)"><text x="92.37992858886719" y="0" font-family="Virgil, Segoe UI Emoji" font-size="20px" fill="#1971c2" text-anchor="middle" style="white-space: pre;" direction="ltr" dominant-baseline="text-before-edge">1. create tmp sum </text><text x="92.37992858886719" y="25" font-family="Virgil, Segoe UI Emoji" font-size="20px" fill="#1971c2" text-anchor="middle" style="white-space: pre;" direction="ltr" dominant-baseline="text-before-edge">signal</text></g><g stroke-linecap="round" transform="translate(761.3635026979741 94.3103944106914) rotate(0 110.05757116156974 32.177416550875904)"><path d="M16.09 0 C65.97 0.94, 116.16 0.9, 204.03 0 M16.09 0 C68.37 0.74, 118.36 0.32, 204.03 0 M204.03 0 C215.2 -1.15, 219.82 5.81, 220.12 16.09 M204.03 0 C213.39 -0.65, 217.97 5.54, 220.12 16.09 M220.12 16.09 C220.77 28.75, 221.84 40.02, 220.12 48.27 M220.12 16.09 C220.57 27.82, 220.54 37.44, 220.12 48.27 M220.12 48.27 C221.47 57.73, 215.46 65.91, 204.03 64.35 M220.12 48.27 C218.1 58.94, 215.87 65.55, 204.03 64.35 M204.03 64.35 C153.94 64.83, 105.02 65.06, 16.09 64.35 M204.03 64.35 C164.55 63.58, 123.32 63.6, 16.09 64.35 M16.09 64.35 C4.42 63.31, 1.48 57.07, 0 48.27 M16.09 64.35 C3.29 66.27, 1.64 61.29, 0 48.27 M0 48.27 C1.89 37.91, 1.84 29.39, 0 16.09 M0 48.27 C-0.26 36.04, -0.95 25.62, 0 16.09 M0 16.09 C-0.39 4.13, 4.09 -1.23, 16.09 0 M0 16.09 C0.29 4.88, 3.24 -0.99, 16.09 0" stroke="#1971c2" stroke-width="1" fill="none"></path></g><g transform="translate(769.8411635812236 101.48781096156733) rotate(0 101.57991027832031 25)"><text x="101.57991027832031" y="0" font-family="Virgil, Segoe UI Emoji" font-size="20px" fill="#1971c2" text-anchor="middle" style="white-space: pre;" direction="ltr" dominant-baseline="text-before-edge">2. sum[0] is the </text><text x="101.57991027832031" y="25" font-family="Virgil, Segoe UI Emoji" font-size="20px" fill="#1971c2" text-anchor="middle" style="white-space: pre;" direction="ltr" dominant-baseline="text-before-edge">first number (num[0]</text></g><g stroke-linecap="round" transform="translate(765.7926362697085 178.13370796260904) rotate(0 110.05757116156974 32.177416550875904)"><path d="M16.09 0 C90.74 -1.14, 163.23 -1.24, 204.03 0 M16.09 0 C59.42 2.22, 100.96 1.78, 204.03 0 M204.03 0 C213.1 -1.57, 220.62 5.12, 220.12 16.09 M204.03 0 C212.67 -0.04, 220.47 6.63, 220.12 16.09 M220.12 16.09 C221.25 27.34, 220.44 39.16, 220.12 48.27 M220.12 16.09 C219.46 27.29, 220.16 38.63, 220.12 48.27 M220.12 48.27 C220.04 60.06, 214.23 66.1, 204.03 64.35 M220.12 48.27 C220.82 58.16, 213.91 66.42, 204.03 64.35 M204.03 64.35 C147.12 63.07, 90.66 62.78, 16.09 64.35 M204.03 64.35 C164.46 63.8, 125.7 64.52, 16.09 64.35 M16.09 64.35 C7.07 64.14, -1.96 60.89, 0 48.27 M16.09 64.35 C4.71 64.88, -0.82 56.92, 0 48.27 M0 48.27 C-0.17 35.4, 0.38 27.74, 0 16.09 M0 48.27 C0.29 36.74, -0.11 24.73, 0 16.09 M0 16.09 C1.39 4.12, 6.97 -0.98, 16.09 0 M0 16.09 C0.69 6.62, 7.29 1.06, 16.09 0" stroke="#1971c2" stroke-width="1" fill="none"></path></g><g transform="translate(783.0602751803017 197.81112451348497) rotate(0 92.78993225097656 12.5)"><text x="92.78993225097656" y="0" font-family="Virgil, Segoe UI Emoji" font-size="20px" fill="#1971c2" text-anchor="middle" style="white-space: pre;" direction="ltr" dominant-baseline="text-before-edge">3. loop from 1 to n</text></g><g stroke-linecap="round" transform="translate(719.0411294351684 256.9706344179232) rotate(0 158.70580388260805 62.98936442506215)"><path d="M31.49 0 C92.47 1.06, 154.42 1.35, 285.92 0 M31.49 0 C130.03 1.6, 230.55 2.29, 285.92 0 M285.92 0 C305.44 0.88, 316.59 9.32, 317.41 31.49 M285.92 0 C305.82 1.3, 317.97 9.74, 317.41 31.49 M317.41 31.49 C318.21 42.69, 316.31 58.36, 317.41 94.48 M317.41 31.49 C316.78 50.67, 318.5 69.39, 317.41 94.48 M317.41 94.48 C318.46 114.33, 305.82 127.92, 285.92 125.98 M317.41 94.48 C315.64 113.75, 306.44 128.21, 285.92 125.98 M285.92 125.98 C234.81 123.83, 181.66 124.82, 31.49 125.98 M285.92 125.98 C192.28 126.28, 97.95 126.53, 31.49 125.98 M31.49 125.98 C10.12 125.63, 1.52 114.27, 0 94.48 M31.49 125.98 C11.69 127.75, -2.2 117.37, 0 94.48 M0 94.48 C-0.13 80.03, -0.1 68.1, 0 31.49 M0 94.48 C-0.19 78.43, 1.16 61.4, 0 31.49 M0 31.49 C-1.58 9.5, 12.26 0.67, 31.49 0 M0 31.49 C-2.03 12.75, 10.96 1.59, 31.49 0" stroke="#1971c2" stroke-width="1" fill="none"></path></g><g transform="translate(730.7770541673858 282.4599988429853) rotate(0 146.96987915039062 37.5)"><text x="146.96987915039062" y="0" font-family="Virgil, Segoe UI Emoji" font-size="20px" fill="#1971c2" text-anchor="middle" style="white-space: pre;" direction="ltr" dominant-baseline="text-before-edge">4. sum[loopIndex] = previous </text><text x="146.96987915039062" y="25" font-family="Virgil, Segoe UI Emoji" font-size="20px" fill="#1971c2" text-anchor="middle" style="white-space: pre;" direction="ltr" dominant-baseline="text-before-edge">sum + current number </text><text x="146.96987915039062" y="50" font-family="Virgil, Segoe UI Emoji" font-size="20px" fill="#1971c2" text-anchor="middle" style="white-space: pre;" direction="ltr" dominant-baseline="text-before-edge">(num[loopIndex])</text></g><g transform="translate(602.5904103336547 130.8209952164906) rotate(0 49.669944763183594 12.5)"><text x="0" y="0" font-family="Virgil, Segoe UI Emoji" font-size="20px" fill="#1e1e1e" text-anchor="start" style="white-space: pre;" direction="ltr" dominant-baseline="text-before-edge">Processing</text></g><g stroke-linecap="round"><g transform="translate(585.4137980735957 191.455316353483) rotate(0 54.0494641083767 -0.8482636989667753)"><path d="M-0.63 0.3 C17.51 0.22, 89.87 -0.36, 108.03 -0.72 M1.24 -0.58 C19.28 -0.97, 89.31 -2.33, 107.04 -2.33" stroke="#1e1e1e" stroke-width="1" fill="none"></path></g><g transform="translate(585.4137980735957 191.455316353483) rotate(0 54.0494641083767 -0.8482636989667753)"><path d="M78.97 8.24 C86.05 5.8, 93.74 3.8, 107.04 -2.33 M78.97 8.24 C86.93 5.32, 94.58 2.67, 107.04 -2.33" stroke="#1e1e1e" stroke-width="1" fill="none"></path></g><g transform="translate(585.4137980735957 191.455316353483) rotate(0 54.0494641083767 -0.8482636989667753)"><path d="M78.74 -12.28 C85.84 -9.92, 93.58 -7.13, 107.04 -2.33 M78.74 -12.28 C86.94 -9.25, 94.66 -5.97, 107.04 -2.33" stroke="#1e1e1e" stroke-width="1" fill="none"></path></g></g><mask></mask><g stroke-linecap="round" transform="translate(778.2895625403751 401.09088750974445) rotate(0 102.19823255897688 47.20877016155782)"><path d="M23.6 0 C61.31 1.52, 101.4 1.05, 180.79 0 M23.6 0 C62.28 0.2, 100.66 0.18, 180.79 0 M180.79 0 C197.71 1.56, 203.04 6.98, 204.4 23.6 M180.79 0 C198.44 2.2, 202.38 9.16, 204.4 23.6 M204.4 23.6 C203.91 37.47, 206.63 47.6, 204.4 70.81 M204.4 23.6 C204.32 34.15, 204.86 46.18, 204.4 70.81 M204.4 70.81 C205.48 86.45, 197.95 92.83, 180.79 94.42 M204.4 70.81 C203.09 84.99, 197.75 96.18, 180.79 94.42 M180.79 94.42 C148.58 93.97, 115.94 94.53, 23.6 94.42 M180.79 94.42 C121.11 93.61, 61.75 92.24, 23.6 94.42 M23.6 94.42 C8.2 94.61, -1.08 87.4, 0 70.81 M23.6 94.42 C6.66 93.7, -2 87.6, 0 70.81 M0 70.81 C-1.74 58.92, 1.23 49.24, 0 23.6 M0 70.81 C0.68 59.02, 0 45.95, 0 23.6 M0 23.6 C-1.54 7.59, 6.2 0.19, 23.6 0 M0 23.6 C-1.19 6.9, 8.99 -1.82, 23.6 0" stroke="#1971c2" stroke-width="1" fill="none"></path></g><g transform="translate(783.44787047777 410.79965767130227) rotate(0 97.03992462158203 37.5)"><text x="97.03992462158203" y="0" font-family="Virgil, Segoe UI Emoji" font-size="20px" fill="#1971c2" text-anchor="middle" style="white-space: pre;" direction="ltr" dominant-baseline="text-before-edge">5. the last item in </text><text x="97.03992462158203" y="25" font-family="Virgil, Segoe UI Emoji" font-size="20px" fill="#1971c2" text-anchor="middle" style="white-space: pre;" direction="ltr" dominant-baseline="text-before-edge">the tmp sum array </text><text x="97.03992462158203" y="50" font-family="Virgil, Segoe UI Emoji" font-size="20px" fill="#1971c2" text-anchor="middle" style="white-space: pre;" direction="ltr" dominant-baseline="text-before-edge">is the sum</text></g></svg>