<svg version="1.1" xmlns="http://www.w3.org/2000/svg" viewBox="0 0 1851.1274286693515 1064.773807758092" width="3702.254857338703" height="2129.547615516184">
  <!-- svg-source:excalidraw -->
  
  <defs>
    <style class="style-fonts">
      @font-face {
        font-family: "Virgil";
        src: url("https://excalidraw.com/Virgil.woff2");
      }
      @font-face {
        font-family: "Cascadia";
        src: url("https://excalidraw.com/Cascadia.woff2");
      }
      @font-face {
        font-family: "Assistant";
        src: url("https://excalidraw.com/Assistant-Regular.woff2");
      }
    </style>
    
  </defs>
  <rect x="0" y="0" width="1851.1274286693515" height="1064.773807758092" fill="#ffffff"></rect><g stroke-linecap="round" transform="translate(318.45488347209357 148.53333269738232) rotate(0 131.7047520102601 33.80052213620297)"><path d="M16.9 0 C103.31 2.26, 185.9 2.82, 246.51 0 M16.9 0 C78.12 -1.6, 138.79 -0.44, 246.51 0 M246.51 0 C257.02 -1.54, 262.82 6.12, 263.41 16.9 M246.51 0 C258.76 2.09, 263.8 7.51, 263.41 16.9 M263.41 16.9 C263.51 25.38, 263.58 32.51, 263.41 50.7 M263.41 16.9 C264.46 28.15, 264.72 41.42, 263.41 50.7 M263.41 50.7 C264.15 62.79, 259.46 65.77, 246.51 67.6 M263.41 50.7 C263.19 61.17, 259.66 68.87, 246.51 67.6 M246.51 67.6 C161.51 64.63, 72.73 65.18, 16.9 67.6 M246.51 67.6 C158.5 67.18, 69.13 67.49, 16.9 67.6 M16.9 67.6 C4.66 67.87, 0.39 62.65, 0 50.7 M16.9 67.6 C6.69 66.58, -2 60.51, 0 50.7 M0 50.7 C-0.74 45.43, 0.81 36.92, 0 16.9 M0 50.7 C0.52 40.93, 0.02 31.29, 0 16.9 M0 16.9 C-0.56 6, 5 1.01, 16.9 0 M0 16.9 C1.92 3.9, 6.17 -1.23, 16.9 0" stroke="#1971c2" stroke-width="1" fill="none"></path></g><g transform="translate(327.18974107317354 169.83385483358552) rotate(0 122.96989440917969 12.5)"><text x="122.96989440917969" y="0" font-family="Virgil, Segoe UI Emoji" font-size="20px" fill="#e03131" text-anchor="middle" style="white-space: pre;" direction="ltr" dominant-baseline="text-before-edge">QuinGeneratePathIndices</text></g><g stroke-linecap="round"><g transform="translate(420.60434368431834 98.62956225189691) rotate(0 2.896194545956405 19.89958225780424)"><path d="M0.04 -0.33 C1 6.33, 4.58 33.6, 5.51 40.22 M-0.61 0.69 C0.56 7.17, 5.64 32.96, 6.59 39.47" stroke="#1e1e1e" stroke-width="1" fill="none"></path></g><g transform="translate(420.60434368431834 98.62956225189691) rotate(0 2.896194545956405 19.89958225780424)"><path d="M-3.44 22.04 C-1.49 25.86, 2.37 30.34, 6.59 39.47 M-3.44 22.04 C-1.02 26.37, 1.09 30.2, 6.59 39.47" stroke="#1e1e1e" stroke-width="1" fill="none"></path></g><g transform="translate(420.60434368431834 98.62956225189691) rotate(0 2.896194545956405 19.89958225780424)"><path d="M10.11 19.67 C8.69 24.08, 9.18 29.15, 6.59 39.47 M10.11 19.67 C9.51 24.54, 8.6 28.91, 6.59 39.47" stroke="#1e1e1e" stroke-width="1" fill="none"></path></g></g><mask></mask><g stroke-linecap="round" transform="translate(10 154.29769668039535) rotate(0 110.05757116156974 32.17741655087593)"><path d="M16.09 0 C75.3 0.22, 129.92 0.39, 204.03 0 M16.09 0 C77.18 -0.89, 137.11 -0.88, 204.03 0 M204.03 0 C214.34 -0.18, 221.19 5.25, 220.12 16.09 M204.03 0 C215.67 1.23, 222.39 4.96, 220.12 16.09 M220.12 16.09 C221.13 28.77, 220.71 41.67, 220.12 48.27 M220.12 16.09 C220.91 23.34, 220.86 29.91, 220.12 48.27 M220.12 48.27 C218.25 60.92, 213.4 63.77, 204.03 64.35 M220.12 48.27 C219.29 60.95, 216.63 64.53, 204.03 64.35 M204.03 64.35 C137.63 62.28, 72.7 63.64, 16.09 64.35 M204.03 64.35 C140.34 62.89, 77.42 64.03, 16.09 64.35 M16.09 64.35 C3.57 63.79, 1.53 59.98, 0 48.27 M16.09 64.35 C5.17 64.23, -1.81 58.07, 0 48.27 M0 48.27 C0.95 37.24, 0.3 26.7, 0 16.09 M0 48.27 C-0.04 36.45, -1.27 26.02, 0 16.09 M0 16.09 C1.01 5.06, 6.46 -0.25, 16.09 0 M0 16.09 C-1.07 7.02, 6.97 0.15, 16.09 0" stroke="#f08c00" stroke-width="1" fill="none"></path></g><g transform="translate(35.98764776069129 173.97511323127128) rotate(0 84.0699234008789 12.5)"><text x="84.0699234008789" y="0" font-family="Virgil, Segoe UI Emoji" font-size="20px" fill="#f08c00" text-anchor="middle" style="white-space: pre;" direction="ltr" dominant-baseline="text-before-edge">parameter: levels</text></g><g transform="translate(466.0060586475129 101.17641725074145) rotate(0 31.809967041015625 12.5)"><text x="0" y="0" font-family="Virgil, Segoe UI Emoji" font-size="20px" fill="#1e1e1e" text-anchor="start" style="white-space: pre;" direction="ltr" dominant-baseline="text-before-edge">Inputs</text></g><g stroke-linecap="round"><g transform="translate(248.99317077492378 190.21808733086846) rotate(0 23.123652268284786 -2.632667694413385)"><path d="M0.23 0.5 C7.98 -0.32, 38.75 -3.93, 46.34 -4.82 M-0.31 0.28 C7.39 -0.7, 38.09 -4.56, 45.96 -5.55" stroke="#1e1e1e" stroke-width="1" fill="none"></path></g><g transform="translate(248.99317077492378 190.21808733086846) rotate(0 23.123652268284786 -2.632667694413385)"><path d="M25.25 5.07 C31.75 2.33, 37.26 -1.53, 45.96 -5.55 M25.25 5.07 C33.46 0.99, 41.31 -2.78, 45.96 -5.55" stroke="#1e1e1e" stroke-width="1" fill="none"></path></g><g transform="translate(248.99317077492378 190.21808733086846) rotate(0 23.123652268284786 -2.632667694413385)"><path d="M23.27 -10.72 C30.32 -9.2, 36.36 -8.78, 45.96 -5.55 M23.27 -10.72 C32.21 -8.76, 40.83 -6.49, 45.96 -5.55" stroke="#1e1e1e" stroke-width="1" fill="none"></path></g></g><mask></mask><g stroke-linecap="round" transform="translate(741.5355262249486 86.0528003415825) rotate(0 137.57057402750797 59.700137989597806)"><path d="M29.85 0 C105.09 -1.74, 178.92 -0.68, 245.29 0 M29.85 0 C92.89 0.57, 156.08 -0.05, 245.29 0 M245.29 0 C266.62 -1.4, 277.1 11.19, 275.14 29.85 M245.29 0 C266.04 0.94, 277.07 7.84, 275.14 29.85 M275.14 29.85 C276.04 48.75, 275.79 62.69, 275.14 89.55 M275.14 29.85 C274.38 54.37, 275.55 77.27, 275.14 89.55 M275.14 89.55 C276.14 108.12, 264.02 118.8, 245.29 119.4 M275.14 89.55 C274.03 109.76, 265.63 120.19, 245.29 119.4 M245.29 119.4 C169.67 116.03, 97.16 116.19, 29.85 119.4 M245.29 119.4 C186.66 120.28, 127.48 119.98, 29.85 119.4 M29.85 119.4 C10.46 119.78, -0.5 110.47, 0 89.55 M29.85 119.4 C9.31 119.82, -0.72 110.61, 0 89.55 M0 89.55 C-0.62 64.67, 1.06 44.8, 0 29.85 M0 89.55 C-0.79 73.27, 0.37 55.6, 0 29.85 M0 29.85 C0.5 9.43, 9.13 1.14, 29.85 0 M0 29.85 C-1.18 7.99, 10.56 1.58, 29.85 0" stroke="#1971c2" stroke-width="1" fill="none"></path></g><g transform="translate(750.4561979087066 108.2529383311803) rotate(0 128.64990234375 37.5)"><text x="128.64990234375" y="0" font-family="Virgil, Segoe UI Emoji" font-size="20px" fill="#1971c2" text-anchor="middle" style="white-space: pre;" direction="ltr" dominant-baseline="text-before-edge">1. Loop from 0 to levels </text><text x="128.64990234375" y="25" font-family="Virgil, Segoe UI Emoji" font-size="20px" fill="#1971c2" text-anchor="middle" style="white-space: pre;" direction="ltr" dominant-baseline="text-before-edge">to calculate the index at</text><text x="128.64990234375" y="50" font-family="Virgil, Segoe UI Emoji" font-size="20px" fill="#1971c2" text-anchor="middle" style="white-space: pre;" direction="ltr" dominant-baseline="text-before-edge">each level of the tree</text></g><g transform="translate(604.1025580001924 126.69903779492552) rotate(0 49.669944763183594 12.5)"><text x="0" y="0" font-family="Virgil, Segoe UI Emoji" font-size="20px" fill="#1e1e1e" text-anchor="start" style="white-space: pre;" direction="ltr" dominant-baseline="text-before-edge">Processing</text></g><g stroke-linecap="round"><g transform="translate(587.1802965633333 187.3313363392108) rotate(0 53.92228869677592 -0.8472524026133215)"><path d="M0.64 -0.07 C18.74 -0.22, 90.26 -0.75, 108.33 -1.05 M-0.48 -1.15 C17.52 -1.64, 89.4 -2.91, 107.63 -2.84" stroke="#1e1e1e" stroke-width="1" fill="none"></path></g><g transform="translate(587.1802965633333 187.3313363392108) rotate(0 53.92228869677592 -0.8472524026133215)"><path d="M84.21 5.91 C90.65 4.14, 98.38 2.87, 107.63 -2.84 M84.21 5.91 C91.74 4.23, 97.74 1.54, 107.63 -2.84" stroke="#1e1e1e" stroke-width="1" fill="none"></path></g><g transform="translate(587.1802965633333 187.3313363392108) rotate(0 53.92228869677592 -0.8472524026133215)"><path d="M84.07 -11.19 C90.53 -8.18, 98.3 -4.67, 107.63 -2.84 M84.07 -11.19 C91.76 -8.05, 97.8 -5.9, 107.63 -2.84" stroke="#1e1e1e" stroke-width="1" fill="none"></path></g></g><mask></mask><g stroke-linecap="round" transform="translate(324.24438275414013 10) rotate(0 110.05757116156974 32.17741655087593)"><path d="M16.09 0 C83.64 1.23, 148.69 0.67, 204.03 0 M16.09 0 C59.7 -0.76, 103.42 -2.08, 204.03 0 M204.03 0 C214.56 -0.69, 221.76 6.47, 220.12 16.09 M204.03 0 C216.53 0.98, 217.98 7.58, 220.12 16.09 M220.12 16.09 C221.72 25.2, 220.17 32.04, 220.12 48.27 M220.12 16.09 C219.44 23.74, 220.12 31.46, 220.12 48.27 M220.12 48.27 C221.03 58.11, 213.01 63.08, 204.03 64.35 M220.12 48.27 C217.85 60.17, 212.7 63.71, 204.03 64.35 M204.03 64.35 C133.13 62.62, 61.64 64.7, 16.09 64.35 M204.03 64.35 C143.79 65.49, 83.79 65.81, 16.09 64.35 M16.09 64.35 C7.03 62.85, 0.46 57.92, 0 48.27 M16.09 64.35 C3.06 65.06, 1.16 58.64, 0 48.27 M0 48.27 C1.48 38.25, 0.17 25.95, 0 16.09 M0 48.27 C-0.38 38.6, 0.4 31.32, 0 16.09 M0 16.09 C-0.02 4.95, 6.7 -1.38, 16.09 0 M0 16.09 C0.95 3.31, 4.56 2.11, 16.09 0" stroke="#1971c2" stroke-width="1" fill="none"></path></g><g transform="translate(382.5420051852416 29.677416550875932) rotate(0 51.75994873046875 12.5)"><text x="51.75994873046875" y="0" font-family="Virgil, Segoe UI Emoji" font-size="20px" fill="#1971c2" text-anchor="middle" style="white-space: pre;" direction="ltr" dominant-baseline="text-before-edge">input index</text></g><g transform="translate(507.6467641010968 246.4537661800914) rotate(0 34.84996032714844 12.5)"><text x="0" y="0" font-family="Virgil, Segoe UI Emoji" font-size="20px" fill="#1e1e1e" text-anchor="start" style="white-space: pre;" direction="ltr" dominant-baseline="text-before-edge">Output</text></g><g stroke-linecap="round"><g transform="translate(446.66589698247117 245.18341241000235) rotate(0 0.22290140994755347 20.51105751905652)"><path d="M-0.49 0.45 C-0.33 7.25, 0.34 33.91, 0.45 40.74 M0.26 0.2 C0.38 7.08, 0.11 34.56, 0.02 41.3" stroke="#1e1e1e" stroke-width="1" fill="none"></path></g><g transform="translate(446.66589698247117 245.18341241000235) rotate(0 0.22290140994755347 20.51105751905652)"><path d="M-6.78 21.95 C-4.56 26.06, -4.44 29.65, 0.02 41.3 M-6.78 21.95 C-3.68 29.42, -1.36 36.54, 0.02 41.3" stroke="#1e1e1e" stroke-width="1" fill="none"></path></g><g transform="translate(446.66589698247117 245.18341241000235) rotate(0 0.22290140994755347 20.51105751905652)"><path d="M7.25 22.1 C6.52 26.12, 3.68 29.68, 0.02 41.3 M7.25 22.1 C5.02 29.47, 2.01 36.53, 0.02 41.3" stroke="#1e1e1e" stroke-width="1" fill="none"></path></g></g><mask></mask><g stroke-linecap="round" transform="translate(349.64494313223986 312.0815447768946) rotate(0 110.05757116156974 42.5)"><path d="M21.25 0 C57.64 -0.97, 97.66 1.68, 198.87 0 M21.25 0 C63.16 -0.61, 104.46 0.08, 198.87 0 M198.87 0 C211.22 -0.71, 221.96 8.08, 220.12 21.25 M198.87 0 C212.21 1.45, 220.52 4.84, 220.12 21.25 M220.12 21.25 C220.89 35.29, 218.54 48.94, 220.12 63.75 M220.12 21.25 C219.26 32.62, 221.07 44.69, 220.12 63.75 M220.12 63.75 C218.98 77.12, 211.24 84.74, 198.87 85 M220.12 63.75 C218.51 76.29, 213.46 83.46, 198.87 85 M198.87 85 C127.22 84.2, 56.17 86.5, 21.25 85 M198.87 85 C137.09 85.08, 76.31 85.11, 21.25 85 M21.25 85 C7.53 84.07, 1.23 78.85, 0 63.75 M21.25 85 C7.84 83.11, -1.25 77.71, 0 63.75 M0 63.75 C-1.58 54.71, -0.19 43.15, 0 21.25 M0 63.75 C-0.35 49.22, -1.05 36.42, 0 21.25 M0 21.25 C1.29 6.11, 5.62 -0.6, 21.25 0 M0 21.25 C1.7 8.14, 6.56 -1.99, 21.25 0" stroke="#1971c2" stroke-width="1" fill="none"></path></g><g transform="translate(357.12260401548974 317.0815447768946) rotate(0 102.57991027832031 37.5)"><text x="102.57991027832031" y="0" font-family="Virgil, Segoe UI Emoji" font-size="20px" fill="#2f9e44" text-anchor="middle" style="white-space: pre;" direction="ltr" dominant-baseline="text-before-edge">out (array of len </text><text x="102.57991027832031" y="25" font-family="Virgil, Segoe UI Emoji" font-size="20px" fill="#2f9e44" text-anchor="middle" style="white-space: pre;" direction="ltr" dominant-baseline="text-before-edge">levels) containing the</text><text x="102.57991027832031" y="50" font-family="Virgil, Segoe UI Emoji" font-size="20px" fill="#2f9e44" text-anchor="middle" style="white-space: pre;" direction="ltr" dominant-baseline="text-before-edge">indices</text></g><g stroke-linecap="round" transform="translate(1182.4233924767987 92.1438400072725) rotate(0 110.05757116156974 55)"><path d="M27.5 0 C67.4 0.46, 109.31 1.31, 192.62 0 M27.5 0 C65.67 2.11, 105.16 0.62, 192.62 0 M192.62 0 C212.6 -0.5, 220.24 9.61, 220.12 27.5 M192.62 0 C211.42 -0.12, 219.98 10.64, 220.12 27.5 M220.12 27.5 C220.4 45.17, 219.44 60.93, 220.12 82.5 M220.12 27.5 C220.09 48.86, 221.49 71.96, 220.12 82.5 M220.12 82.5 C222.06 102.59, 209.15 108.1, 192.62 110 M220.12 82.5 C220.94 99.13, 210.21 111.59, 192.62 110 M192.62 110 C140.52 110.07, 92.39 111.93, 27.5 110 M192.62 110 C130.71 109.82, 68.91 109.58, 27.5 110 M27.5 110 C10.6 109.92, 0.28 100.93, 0 82.5 M27.5 110 C7.05 111.63, -1.36 102.89, 0 82.5 M0 82.5 C-0.92 71.63, 1.06 59.62, 0 27.5 M0 82.5 C0.03 67.51, 0.23 54.74, 0 27.5 M0 27.5 C-1.85 10.59, 8.84 -1.45, 27.5 0 M0 27.5 C0.54 9.42, 8.62 0.63, 27.5 0" stroke="#1971c2" stroke-width="1" fill="none"></path></g><g transform="translate(1197.0710515289938 109.6438400072725) rotate(0 95.409912109375 37.5)"><text x="95.409912109375" y="0" font-family="Virgil, Segoe UI Emoji" font-size="20px" fill="#1971c2" text-anchor="middle" style="white-space: pre;" direction="ltr" dominant-baseline="text-before-edge">divide the input by </text><text x="95.409912109375" y="25" font-family="Virgil, Segoe UI Emoji" font-size="20px" fill="#1971c2" text-anchor="middle" style="white-space: pre;" direction="ltr" dominant-baseline="text-before-edge">the base (5) and </text><text x="95.409912109375" y="50" font-family="Virgil, Segoe UI Emoji" font-size="20px" fill="#1971c2" text-anchor="middle" style="white-space: pre;" direction="ltr" dominant-baseline="text-before-edge">take the remainder</text></g><g stroke-linecap="round" transform="translate(1437.1809081754418 61.649239881258836) rotate(0 201.97326024695485 77.07826296629332)"><path d="M32 0 C148.01 -1.51, 260.67 -0.93, 371.95 0 M32 0 C159.45 -1.39, 286.47 -1.4, 371.95 0 M371.95 0 C393.63 0.25, 403.82 12.21, 403.95 32 M371.95 0 C392.99 -1.35, 402.69 11.52, 403.95 32 M403.95 32 C405.5 54.47, 403.39 76.97, 403.95 122.16 M403.95 32 C404.55 54.19, 404.78 77.84, 403.95 122.16 M403.95 122.16 C404.34 145.44, 392.55 154.89, 371.95 154.16 M403.95 122.16 C405.63 144.45, 395.47 152.2, 371.95 154.16 M371.95 154.16 C301.73 152.2, 231.08 152.57, 32 154.16 M371.95 154.16 C257.21 151.76, 142.77 151.87, 32 154.16 M32 154.16 C11.5 152.72, 0.05 143.36, 0 122.16 M32 154.16 C11.11 155.04, -2.17 145.1, 0 122.16 M0 122.16 C1.19 91.85, -2.36 66.21, 0 32 M0 122.16 C-0.05 100.59, 0.53 77.8, 0 32 M0 32 C-0.89 9.06, 9.1 0.41, 32 0 M0 32 C-1.6 10.85, 9.16 -1.77, 32 0" stroke="#1971c2" stroke-width="1" fill="none"></path></g><g transform="translate(1451.3243039204435 88.72750284755239) rotate(0 187.82986450195312 50)"><text x="187.82986450195312" y="0" font-family="Virgil, Segoe UI Emoji" font-size="20px" fill="#1971c2" text-anchor="middle" style="white-space: pre;" direction="ltr" dominant-baseline="text-before-edge">The remainder (m % BASE) gives the </text><text x="187.82986450195312" y="25" font-family="Virgil, Segoe UI Emoji" font-size="20px" fill="#1971c2" text-anchor="middle" style="white-space: pre;" direction="ltr" dominant-baseline="text-before-edge">index at a particular level, and the </text><text x="187.82986450195312" y="50" font-family="Virgil, Segoe UI Emoji" font-size="20px" fill="#1971c2" text-anchor="middle" style="white-space: pre;" direction="ltr" dominant-baseline="text-before-edge">quotient (m \ BASE) is used as the </text><text x="187.82986450195312" y="75" font-family="Virgil, Segoe UI Emoji" font-size="20px" fill="#1971c2" text-anchor="middle" style="white-space: pre;" direction="ltr" dominant-baseline="text-before-edge">input for the next iteration.</text></g><g stroke-linecap="round"><g transform="translate(1025.9523336778566 153.51355165181076) rotate(0 62.55337452264848 0.11552772232425923)"><path d="M0.15 0.62 C21.25 0.73, 104.73 0.32, 125.66 0.23 M-1.24 -0.1 C19.84 0.26, 103.91 1.53, 125 1.76" stroke="#1e1e1e" stroke-width="2" fill="none"></path></g><g transform="translate(1025.9523336778566 153.51355165181076) rotate(0 62.55337452264848 0.11552772232425923)"><path d="M101.39 10 C107.6 9.09, 111.71 7.39, 125 1.76 M101.39 10 C107.56 6.93, 114.89 5.49, 125 1.76" stroke="#1e1e1e" stroke-width="2" fill="none"></path></g><g transform="translate(1025.9523336778566 153.51355165181076) rotate(0 62.55337452264848 0.11552772232425923)"><path d="M101.62 -7.1 C107.72 -4.28, 111.77 -2.25, 125 1.76 M101.62 -7.1 C107.83 -5.28, 115.1 -1.82, 125 1.76" stroke="#1e1e1e" stroke-width="2" fill="none"></path></g></g><mask></mask><g stroke-linecap="round" transform="translate(735.2327519872097 251.34651885525136) rotate(0 147.87945843468287 81.6386264727737)"><path d="M32 0 C118.16 0.99, 204.75 2.3, 263.76 0 M32 0 C96.64 -0.15, 162.32 -0.87, 263.76 0 M263.76 0 C283.99 -0.42, 294.29 8.71, 295.76 32 M263.76 0 C285.52 -1.59, 293.87 10.7, 295.76 32 M295.76 32 C294.65 65.57, 295.91 99.06, 295.76 131.28 M295.76 32 C295.42 70.94, 295.7 108.49, 295.76 131.28 M295.76 131.28 C295.88 154.43, 284.83 161.91, 263.76 163.28 M295.76 131.28 C295.6 152.5, 284.73 161.61, 263.76 163.28 M263.76 163.28 C184.9 161.63, 106.8 161.05, 32 163.28 M263.76 163.28 C194.45 163.02, 125.6 164.24, 32 163.28 M32 163.28 C9.07 162.57, 0.43 150.78, 0 131.28 M32 163.28 C12.8 162.21, 0.53 154.63, 0 131.28 M0 131.28 C-0.71 99.78, 0.15 68.03, 0 32 M0 131.28 C-1.36 95.58, -0.47 61.1, 0 32 M0 32 C-0.67 12.23, 10.89 0.11, 32 0 M0 32 C-1.03 11.09, 12.68 1.75, 32 0" stroke="#1971c2" stroke-width="1" fill="none"></path></g><g transform="translate(749.472317843768 282.9851453280253) rotate(0 133.639892578125 50)"><text x="133.639892578125" y="0" font-family="Virgil, Segoe UI Emoji" font-size="20px" fill="#1971c2" text-anchor="middle" style="white-space: pre;" direction="ltr" dominant-baseline="text-before-edge">2. Loop again from 0 to </text><text x="133.639892578125" y="25" font-family="Virgil, Segoe UI Emoji" font-size="20px" fill="#1971c2" text-anchor="middle" style="white-space: pre;" direction="ltr" dominant-baseline="text-before-edge">levels to check that each </text><text x="133.639892578125" y="50" font-family="Virgil, Segoe UI Emoji" font-size="20px" fill="#1971c2" text-anchor="middle" style="white-space: pre;" direction="ltr" dominant-baseline="text-before-edge">output is &lt; 5 and to sum </text><text x="133.639892578125" y="75" font-family="Virgil, Segoe UI Emoji" font-size="20px" fill="#1971c2" text-anchor="middle" style="white-space: pre;" direction="ltr" dominant-baseline="text-before-edge">the output elements</text></g><g stroke-linecap="round" transform="translate(1173.2295693221886 250.74673478112027) rotate(0 140.19874513460854 65.19000106145859)"><path d="M32 0 C102.82 0.4, 177.45 -0.81, 248.4 0 M32 0 C108.08 0.56, 185.67 1.95, 248.4 0 M248.4 0 C270.99 -0.92, 280.92 10.58, 280.4 32 M248.4 0 C271.32 -0.97, 282.02 12.87, 280.4 32 M280.4 32 C281.33 53.14, 282.21 73.06, 280.4 98.38 M280.4 32 C281.22 49.78, 281.82 65.88, 280.4 98.38 M280.4 98.38 C279.27 119.55, 268.48 131.34, 248.4 130.38 M280.4 98.38 C278.56 120.82, 270.46 129.4, 248.4 130.38 M248.4 130.38 C197.23 131.16, 147.4 129.01, 32 130.38 M248.4 130.38 C202.37 132.96, 157.28 132.32, 32 130.38 M32 130.38 C12.26 132.36, -0.86 118.19, 0 98.38 M32 130.38 C9.76 132.16, -0.87 121.23, 0 98.38 M0 98.38 C0.29 82.23, 1.26 62.69, 0 32 M0 98.38 C-0.31 72.43, -0.3 45.47, 0 32 M0 32 C-0.13 10.86, 8.83 1.04, 32 0 M0 32 C1.67 8.68, 9.69 1.67, 32 0" stroke="#1971c2" stroke-width="1" fill="none"></path></g><g transform="translate(1199.7484057043557 278.43673584257886) rotate(0 113.6799087524414 37.5)"><text x="113.6799087524414" y="0" font-family="Virgil, Segoe UI Emoji" font-size="20px" fill="#1971c2" text-anchor="middle" style="white-space: pre;" direction="ltr" dominant-baseline="text-before-edge">use SafeLessThan to </text><text x="113.6799087524414" y="25" font-family="Virgil, Segoe UI Emoji" font-size="20px" fill="#1971c2" text-anchor="middle" style="white-space: pre;" direction="ltr" dominant-baseline="text-before-edge">check that output at </text><text x="113.6799087524414" y="50" font-family="Virgil, Segoe UI Emoji" font-size="20px" fill="#1971c2" text-anchor="middle" style="white-space: pre;" direction="ltr" dominant-baseline="text-before-edge">index i &lt; 5</text></g><g stroke-linecap="round"><g transform="translate(1048.7092678375739 314.6248986355108) rotate(0 38.813388371497695 -0.9916461194504791)"><path d="M-0.08 0.16 C12.97 -0.48, 64.77 -2.67, 77.82 -3.09 M-1.58 -0.8 C11.36 -1.4, 63.75 -2.07, 76.97 -2.13" stroke="#1e1e1e" stroke-width="2" fill="none"></path></g><g transform="translate(1048.7092678375739 314.6248986355108) rotate(0 38.813388371497695 -0.9916461194504791)"><path d="M53.56 6.65 C59.91 4.68, 63.92 3, 76.97 -2.13 M53.56 6.65 C60.35 4.77, 65.59 0.93, 76.97 -2.13" stroke="#1e1e1e" stroke-width="2" fill="none"></path></g><g transform="translate(1048.7092678375739 314.6248986355108) rotate(0 38.813388371497695 -0.9916461194504791)"><path d="M53.39 -10.45 C59.89 -7.94, 63.95 -5.14, 76.97 -2.13 M53.39 -10.45 C60.14 -7.69, 65.42 -6.9, 76.97 -2.13" stroke="#1e1e1e" stroke-width="2" fill="none"></path></g></g><mask></mask><g stroke-linecap="round" transform="translate(1151.5324415219966 635.0881743993596) rotate(0 138.50041162436537 78.93403035771144)"><path d="M32 0 C93.4 1.28, 159.64 1.06, 245 0 M32 0 C104.23 0.93, 176.79 0.57, 245 0 M245 0 C265.52 0.19, 277.47 9.83, 277 32 M245 0 C268.14 1.56, 279.16 12.23, 277 32 M277 32 C274.9 57.03, 275.04 86.51, 277 125.87 M277 32 C277.99 59.53, 277.22 85.15, 277 125.87 M277 125.87 C276.97 145.74, 267.39 159.23, 245 157.87 M277 125.87 C278.94 148.64, 265.28 158.47, 245 157.87 M245 157.87 C189.02 155.05, 132.74 156.33, 32 157.87 M245 157.87 C190.23 158.27, 134.86 158.22, 32 157.87 M32 157.87 C8.99 157.84, 1.55 148.78, 0 125.87 M32 157.87 C9.7 155.77, -1.37 148.6, 0 125.87 M0 125.87 C-1.35 103.91, -0.55 79.88, 0 32 M0 125.87 C0.79 97.7, 0.71 68.26, 0 32 M0 32 C1.85 10.89, 8.75 0.09, 32 0 M0 32 C1.74 10.76, 9.36 -2.13, 32 0" stroke="#1971c2" stroke-width="1" fill="none"></path></g><g transform="translate(1159.7829446990963 676.522204757071) rotate(0 130.24990844726562 37.5)"><text x="130.24990844726562" y="0" font-family="Virgil, Segoe UI Emoji" font-size="20px" fill="#1971c2" text-anchor="middle" style="white-space: pre;" direction="ltr" dominant-baseline="text-before-edge">add to the CalculateSum </text><text x="130.24990844726562" y="25" font-family="Virgil, Segoe UI Emoji" font-size="20px" fill="#1971c2" text-anchor="middle" style="white-space: pre;" direction="ltr" dominant-baseline="text-before-edge">component the output at </text><text x="130.24990844726562" y="50" font-family="Virgil, Segoe UI Emoji" font-size="20px" fill="#1971c2" text-anchor="middle" style="white-space: pre;" direction="ltr" dominant-baseline="text-before-edge">index i * (5 ** i)</text></g><g stroke-linecap="round" transform="translate(1117.465200019723 859.771154111982) rotate(0 196.59708185255067 97.50132682305502)"><path d="M32 0 C114.35 0, 194.79 0.08, 361.19 0 M32 0 C143.34 -1.68, 256.12 -2.04, 361.19 0 M361.19 0 C380.85 -0.26, 393.57 9.18, 393.19 32 M361.19 0 C381.18 2.03, 392.03 9.98, 393.19 32 M393.19 32 C391.07 74.12, 393.54 115.43, 393.19 163 M393.19 32 C393.13 68.1, 394.02 102.55, 393.19 163 M393.19 163 C391.79 186.23, 384.4 193.73, 361.19 195 M393.19 163 C391.05 182.34, 383.18 195.01, 361.19 195 M361.19 195 C251.13 195.74, 143.88 193.96, 32 195 M361.19 195 C271.61 194.36, 181.18 194.99, 32 195 M32 195 C11.4 194.05, 1.26 182.44, 0 163 M32 195 C11.6 193.24, 2.1 186.42, 0 163 M0 163 C-0.3 116.13, 1.7 69.64, 0 32 M0 163 C-0.32 117.66, 0.28 71.69, 0 32 M0 32 C0.02 10.41, 12.13 -0.52, 32 0 M0 32 C0.65 8.76, 8.81 0.95, 32 0" stroke="#1971c2" stroke-width="1" fill="none"></path></g><g transform="translate(1124.0424454464928 894.772480935037) rotate(0 190.01983642578125 62.5)"><text x="190.01983642578125" y="0" font-family="Virgil, Segoe UI Emoji" font-size="20px" fill="#1971c2" text-anchor="middle" style="white-space: pre;" direction="ltr" dominant-baseline="text-before-edge">each index is multiplied by 5 raised to</text><text x="190.01983642578125" y="25" font-family="Virgil, Segoe UI Emoji" font-size="20px" fill="#1971c2" text-anchor="middle" style="white-space: pre;" direction="ltr" dominant-baseline="text-before-edge">the power of its level. This is </text><text x="190.01983642578125" y="50" font-family="Virgil, Segoe UI Emoji" font-size="20px" fill="#1971c2" text-anchor="middle" style="white-space: pre;" direction="ltr" dominant-baseline="text-before-edge">because we're converting from a base-</text><text x="190.01983642578125" y="75" font-family="Virgil, Segoe UI Emoji" font-size="20px" fill="#1971c2" text-anchor="middle" style="white-space: pre;" direction="ltr" dominant-baseline="text-before-edge">5 number to a base-10 number.</text><text x="190.01983642578125" y="100" font-family="Virgil, Segoe UI Emoji" font-size="20px" fill="#1971c2" text-anchor="middle" style="white-space: pre;" direction="ltr" dominant-baseline="text-before-edge"></text></g><g stroke-linecap="round" transform="translate(1136.2728084395876 452.50542740239644) rotate(0 198.35089697684452 58.71698798554303)"><path d="M29.36 0 C122.04 1.83, 216.87 1.32, 367.34 0 M29.36 0 C140.7 -0.24, 251.81 -0.78, 367.34 0 M367.34 0 C387.67 -1.82, 397.49 11.78, 396.7 29.36 M367.34 0 C385.61 -2.24, 396.66 9.3, 396.7 29.36 M396.7 29.36 C395.33 50.03, 394.82 70.41, 396.7 88.08 M396.7 29.36 C396.48 41.25, 396.09 53.72, 396.7 88.08 M396.7 88.08 C397.91 109.36, 388.17 118.69, 367.34 117.43 M396.7 88.08 C394.97 109.61, 386.67 117.3, 367.34 117.43 M367.34 117.43 C261.99 116.08, 156.92 116.53, 29.36 117.43 M367.34 117.43 C256.23 118.41, 145.91 118.3, 29.36 117.43 M29.36 117.43 C10.98 116.15, -0.52 106.61, 0 88.08 M29.36 117.43 C11.57 116.48, 1.77 108.01, 0 88.08 M0 88.08 C-1.03 66.7, 0.52 41.18, 0 29.36 M0 88.08 C1.08 75.23, 0.36 61.92, 0 29.36 M0 29.36 C-1.92 10.46, 8.24 -1.1, 29.36 0 M0 29.36 C-0.22 11.32, 10.82 2.07, 29.36 0" stroke="#1971c2" stroke-width="1" fill="none"></path></g><g transform="translate(1154.5938592250259 473.7224153879397) rotate(0 180.02984619140625 37.5)"><text x="180.02984619140625" y="0" font-family="Virgil, Segoe UI Emoji" font-size="20px" fill="#1971c2" text-anchor="middle" style="white-space: pre;" direction="ltr" dominant-baseline="text-before-edge">we use a quinary tree so the index </text><text x="180.02984619140625" y="25" font-family="Virgil, Segoe UI Emoji" font-size="20px" fill="#1971c2" text-anchor="middle" style="white-space: pre;" direction="ltr" dominant-baseline="text-before-edge">must be &lt; 5 </text><text x="180.02984619140625" y="50" font-family="Virgil, Segoe UI Emoji" font-size="20px" fill="#1971c2" text-anchor="middle" style="white-space: pre;" direction="ltr" dominant-baseline="text-before-edge">(0 &lt;= index &lt; 5)</text></g><g stroke-linecap="round"><g transform="translate(1297.8129512395253 811.0308836291847) rotate(0 -0.8781508727374785 15.917543169664441)"><path d="M-0.13 -0.02 C-0.56 5.28, -1.73 26.31, -2.04 31.68 M0.8 -0.51 C0.51 4.88, -0.41 27, -0.95 32.3" stroke="#1e1e1e" stroke-width="2" fill="none"></path></g><g transform="translate(1297.8129512395253 811.0308836291847) rotate(0 -0.8781508727374785 15.917543169664441)"><path d="M-5.39 16.98 C-3.68 22.64, -2.12 28.76, -0.95 32.3 M-5.39 16.98 C-3.79 22.88, -2.41 27.66, -0.95 32.3" stroke="#1e1e1e" stroke-width="2" fill="none"></path></g><g transform="translate(1297.8129512395253 811.0308836291847) rotate(0 -0.8781508727374785 15.917543169664441)"><path d="M5.49 17.71 C2.89 23.06, 0.15 28.9, -0.95 32.3 M5.49 17.71 C3.2 23.31, 0.68 27.84, -0.95 32.3" stroke="#1e1e1e" stroke-width="2" fill="none"></path></g></g><mask></mask><g stroke-linecap="round"><g transform="translate(1284.3784514014715 394.1474025007992) rotate(0 -2.656717494154691 18.656006844578314)"><path d="M0.38 -0.09 C-0.48 6.06, -4.6 31.1, -5.63 37.26 M-0.09 -0.62 C-0.73 5.59, -3.78 31.63, -4.55 37.94" stroke="#1e1e1e" stroke-width="2" fill="none"></path></g><g transform="translate(1284.3784514014715 394.1474025007992) rotate(0 -2.656717494154691 18.656006844578314)"><path d="M-8.86 19.59 C-8.03 22.97, -7.04 26.59, -4.55 37.94 M-8.86 19.59 C-7.57 24.15, -7.35 28.14, -4.55 37.94" stroke="#1e1e1e" stroke-width="2" fill="none"></path></g><g transform="translate(1284.3784514014715 394.1474025007992) rotate(0 -2.656717494154691 18.656006844578314)"><path d="M3.94 21.12 C2.02 24.21, 0.28 27.5, -4.55 37.94 M3.94 21.12 C2.37 25.34, -0.26 28.99, -4.55 37.94" stroke="#1e1e1e" stroke-width="2" fill="none"></path></g></g><mask></mask><g stroke-linecap="round" transform="translate(744.2051025889568 439.2498964303127) rotate(0 146.69062497751293 75.84306336906911)"><path d="M32 0 C85.16 0.34, 135.44 0.57, 261.38 0 M32 0 C105.41 -2.36, 178.2 -2.52, 261.38 0 M261.38 0 C283.14 1.19, 293.58 11.84, 293.38 32 M261.38 0 C281.23 -2.16, 292.01 8.46, 293.38 32 M293.38 32 C294.85 55.98, 292.18 80.78, 293.38 119.69 M293.38 32 C292.9 60.71, 294.12 89.74, 293.38 119.69 M293.38 119.69 C293.3 141.23, 282.48 150.26, 261.38 151.69 M293.38 119.69 C291.14 138.81, 282.54 149.55, 261.38 151.69 M261.38 151.69 C190.63 153.01, 119.73 154.49, 32 151.69 M261.38 151.69 C191.98 150.17, 120.31 150.61, 32 151.69 M32 151.69 C11.74 149.92, -0.2 141.9, 0 119.69 M32 151.69 C10.59 150.29, 1.53 138.85, 0 119.69 M0 119.69 C0.47 93.68, -0.39 70.75, 0 32 M0 119.69 C-0.77 88.96, -0.41 56.37, 0 32 M0 32 C-0.22 9.19, 8.81 0.48, 32 0 M0 32 C-1.19 11.71, 12.45 -2.21, 32 0" stroke="#1971c2" stroke-width="1" fill="none"></path></g><g transform="translate(755.0258240020166 490.0929597993818) rotate(0 135.86990356445312 25)"><text x="135.86990356445312" y="0" font-family="Virgil, Segoe UI Emoji" font-size="20px" fill="#1971c2" text-anchor="middle" style="white-space: pre;" direction="ltr" dominant-baseline="text-before-edge">3. Ensure that the sum is </text><text x="135.86990356445312" y="25" font-family="Virgil, Segoe UI Emoji" font-size="20px" fill="#1971c2" text-anchor="middle" style="white-space: pre;" direction="ltr" dominant-baseline="text-before-edge">equal to the input index</text></g><g stroke-linecap="round"><g transform="translate(1291.0613371450745 579.2123614620255) rotate(0 0.40083312327897147 13.735085498648914)"><path d="M0.48 0.27 C0.66 4.73, 0.43 22.6, 0.57 27.18 M0.06 -0.06 C0.2 4.7, -0.18 23.25, 0.02 27.73" stroke="#1e1e1e" stroke-width="2" fill="none"></path></g><g transform="translate(1291.0613371450745 579.2123614620255) rotate(0 0.40083312327897147 13.735085498648914)"><path d="M-4.78 14.86 C-3.39 17.2, -3.1 20.83, 0.02 27.73 M-4.78 14.86 C-2.72 19.48, -1.64 23.89, 0.02 27.73" stroke="#1e1e1e" stroke-width="2" fill="none"></path></g><g transform="translate(1291.0613371450745 579.2123614620255) rotate(0 0.40083312327897147 13.735085498648914)"><path d="M4.62 14.78 C4.07 17.19, 2.42 20.82, 0.02 27.73 M4.62 14.78 C3.39 19.42, 1.19 23.86, 0.02 27.73" stroke="#1e1e1e" stroke-width="2" fill="none"></path></g></g><mask></mask></svg>