<?xml version="1.0" standalone="no"?>
<!DOCTYPE svg PUBLIC "-//W3C//DTD SVG 20010904//EN"
 "http://www.w3.org/TR/2001/REC-SVG-20010904/DTD/svg10.dtd">
<svg version="1.0" xmlns="http://www.w3.org/2000/svg"
 width="1200.000000pt" height="630.000000pt" viewBox="0 0 1200.000000 630.000000"
 preserveAspectRatio="xMidYMid meet">

<g transform="translate(0.000000,630.000000) scale(0.100000,-0.100000)"
fill="#000000" stroke="none">
<path d="M16 6284 c-15 -14 -16 -313 -16 -3139 0 -3079 0 -3124 19 -3135 30
-16 11953 -14 11969 2 9 9 12 719 12 3134 0 2825 -1 3124 -16 3138 -14 15
-571 16 -5984 16 -5413 0 -5970 -1 -5984 -16z m10234 -2754 l0 -1640 -4225 0
-4225 0 0 1640 0 1640 4225 0 4225 0 0 -1640z m-7996 -1932 c23 -37 -35 -76
-70 -48 -15 13 -19 52 -7 64 13 13 66 1 77 -16z m424 -6 c4 -30 -14 -52 -44
-52 -31 0 -49 32 -34 61 16 30 74 23 78 -9z m840 -124 c2 -123 5 -148 17 -148
10 0 15 -10 15 -30 0 -28 -3 -30 -35 -30 -22 0 -41 8 -55 22 -18 20 -20 35
-20 180 l0 159 38 -3 37 -3 3 -147z m1057 112 c0 -32 -3 -35 -32 -38 -28 -3
-33 1 -39 22 -10 41 1 58 38 54 30 -3 33 -6 33 -38z m925 -110 c0 -127 2 -150
15 -150 10 0 15 -10 15 -30 0 -26 -4 -30 -28 -30 -15 0 -38 7 -50 16 -21 15
-22 21 -22 180 l0 164 35 0 35 0 0 -150z m140 0 c0 -139 1 -150 19 -150 13 0
18 -7 17 -27 -1 -24 -6 -28 -33 -31 -22 -2 -38 3 -52 17 -19 19 -21 33 -21
181 l0 160 35 0 35 0 0 -150z m675 110 c0 -33 -2 -35 -35 -35 -29 0 -36 4 -38
23 -6 40 5 54 40 50 30 -3 33 -6 33 -38z m1373 13 c-2 -20 -9 -29 -25 -31 -15
-2 -23 -10 -23 -22 0 -12 8 -20 23 -22 16 -2 23 -11 25 -30 3 -24 0 -28 -22
-28 l-26 0 0 -100 0 -100 -40 0 -40 0 0 100 c0 82 -3 100 -15 100 -10 0 -15
10 -15 30 0 20 5 30 15 30 9 0 15 9 15 25 0 41 42 75 90 75 39 0 41 -1 38 -27z
m-2653 7 c15 0 75 -57 75 -71 0 -5 -14 -15 -32 -22 -29 -12 -33 -11 -55 11
-18 18 -30 22 -51 17 -47 -11 -57 -29 -57 -106 0 -62 3 -73 24 -90 31 -25 54
-24 88 5 26 22 30 23 55 10 35 -18 35 -24 0 -58 -59 -55 -151 -55 -204 1 -63
67 -58 216 8 274 28 24 75 39 108 34 16 -3 34 -5 41 -5z m-3131 -75 c22 -41
42 -73 45 -70 2 3 21 36 41 73 35 65 38 67 78 70 l42 3 0 -170 0 -171 -35 0
-35 0 0 108 -1 107 -42 -77 c-23 -43 -45 -78 -49 -78 -4 0 -26 35 -47 78 l-40
77 -1 -107 0 -108 -35 0 -35 0 0 170 0 170 38 0 c36 0 38 -2 76 -75z m2033
-90 c29 -88 53 -163 53 -167 0 -5 -17 -8 -38 -8 -37 0 -40 2 -51 40 l-12 41
-57 -3 c-56 -3 -56 -3 -65 -40 -8 -36 -11 -38 -48 -38 -21 0 -39 1 -39 3 0 5
82 254 97 295 16 43 16 43 61 40 l46 -3 53 -160z m3273 135 c0 -23 -4 -30 -20
-30 -19 0 -20 -7 -20 -110 0 -103 1 -110 20 -110 16 0 20 -7 20 -30 l0 -31
-82 3 c-82 3 -83 3 -86 31 -3 23 0 27 22 27 l26 0 0 110 0 110 -25 0 c-20 0
-25 5 -25 23 0 13 3 27 7 30 3 4 42 7 85 7 l78 0 0 -30z m-2800 -19 c0 -23 5
-30 23 -33 16 -2 23 -11 25 -30 3 -24 0 -28 -22 -28 -25 0 -26 -2 -26 -70 0
-63 2 -70 20 -70 16 0 20 -7 20 -30 0 -28 -3 -30 -37 -30 -24 0 -45 8 -60 22
-20 19 -23 31 -23 100 0 63 -3 78 -15 78 -10 0 -15 10 -15 30 0 23 4 30 20 30
16 0 20 7 20 30 0 28 3 30 35 30 32 0 35 -2 35 -29z m4100 -1 c0 -25 4 -30 25
-30 21 0 25 -5 25 -30 0 -25 -4 -30 -25 -30 -24 0 -25 -2 -25 -70 0 -68 1 -70
25 -70 21 0 25 -5 25 -30 0 -28 -2 -30 -40 -30 -64 0 -80 24 -80 120 0 73 -2
80 -20 80 -15 0 -20 7 -20 26 0 17 6 28 20 31 14 4 20 14 20 34 0 26 3 29 35
29 32 0 35 -2 35 -30z m920 1 c0 -23 5 -30 23 -33 16 -2 23 -11 25 -30 3 -24
0 -28 -22 -28 -25 0 -26 -2 -26 -70 0 -63 2 -70 20 -70 16 0 20 -7 20 -30 0
-27 -3 -30 -34 -30 -19 0 -45 9 -60 21 -24 19 -26 26 -26 100 0 64 -3 79 -15
79 -10 0 -15 10 -15 30 0 23 4 30 20 30 16 0 20 7 20 30 0 28 3 30 35 30 32 0
35 -2 35 -29z m-7180 -161 l0 -130 -35 0 -35 0 0 130 0 130 35 0 35 0 0 -130z
m138 114 c8 -14 10 -14 21 0 18 22 74 20 102 -3 22 -18 24 -28 27 -130 l4
-111 -36 0 -36 0 0 74 c0 87 -12 126 -38 126 -34 0 -42 -21 -42 -112 l0 -88
-40 0 -40 0 0 123 c0 68 3 127 7 130 12 13 62 7 71 -9z m287 -6 c3 -13 5 -70
3 -128 l-3 -105 -37 -3 -38 -3 0 130 0 131 35 0 c28 0 36 -5 40 -22z m135 2
l0 -20 20 20 c26 26 81 26 105 0 17 -19 18 -19 43 0 13 11 40 20 58 20 28 0
38 -6 54 -32 16 -27 20 -51 20 -130 l0 -98 -40 0 -40 0 0 95 c0 79 -3 97 -16
102 -37 14 -49 -10 -52 -106 l-3 -91 -34 0 -35 0 0 81 c0 86 -10 119 -38 119
-34 0 -42 -21 -42 -112 l0 -88 -35 0 -35 0 0 130 0 130 35 0 c28 0 35 -4 35
-20z m535 -5 c22 -21 25 -33 25 -100 0 -60 3 -75 15 -75 10 0 15 -10 15 -30 0
-28 -3 -30 -34 -30 -24 0 -39 7 -49 20 -12 18 -15 19 -21 5 -8 -22 -50 -36
-87 -28 -42 8 -63 43 -55 89 6 28 14 38 41 50 19 8 51 14 70 14 32 0 36 3 33
23 -4 27 -40 35 -74 16 -20 -10 -27 -10 -44 6 -36 32 9 63 93 64 38 1 53 -4
72 -24z m763 9 c8 -14 10 -14 21 0 14 16 56 21 86 10 32 -12 45 -59 45 -159
l0 -95 -40 0 -39 0 -3 98 -3 97 -30 0 -30 0 -3 -97 -3 -98 -39 0 -40 0 0 130
0 130 35 0 c20 0 37 -6 43 -16z m470 -116 l3 -128 -41 0 -40 0 0 123 c0 68 3
127 7 131 4 4 21 6 38 4 l30 -3 3 -127z m748 113 c38 -23 59 -77 51 -133 -7
-52 -31 -87 -74 -104 -110 -46 -204 80 -145 196 30 60 106 79 168 41z m464
-81 l5 -95 30 0 30 0 5 95 5 95 38 3 37 3 0 -130 0 -131 -34 0 c-19 0 -38 4
-41 10 -3 6 -19 3 -39 -7 -29 -13 -37 -14 -62 -2 -16 8 -34 25 -41 39 -14 27
-18 201 -6 214 4 4 21 6 38 4 l30 -3 5 -95z m370 85 c35 -18 37 -26 12 -48
-15 -14 -23 -15 -49 -5 -33 13 -67 5 -61 -14 3 -7 24 -16 48 -20 52 -9 90 -42
90 -78 0 -33 -40 -75 -78 -83 -37 -8 -99 7 -123 29 -20 18 -20 18 1 38 19 20
21 20 49 3 35 -21 55 -22 70 -3 10 12 8 17 -8 25 -11 6 -31 11 -46 11 -55 0
-96 80 -62 122 31 39 105 50 157 23z m160 -116 l0 -130 -37 3 -38 3 -3 114
c-1 63 0 121 2 128 3 7 21 13 41 13 l35 0 0 -131z m239 106 c79 -67 57 -209
-37 -234 -55 -16 -106 1 -132 45 -18 29 -22 46 -18 96 4 53 9 65 36 89 43 39
107 40 151 4z m171 9 c0 -14 2 -14 22 0 32 23 81 20 104 -5 16 -17 20 -40 22
-130 l4 -109 -36 0 -36 0 0 83 c0 97 -12 124 -53 113 -27 -6 -27 -7 -27 -101
l0 -95 -40 0 -40 0 0 123 c0 68 3 127 7 130 3 4 21 7 40 7 23 0 33 -5 33 -16z
m608 0 c8 -14 10 -14 21 0 18 22 74 20 102 -3 22 -18 24 -28 27 -131 l4 -111
-39 3 -38 3 -5 95 -5 95 -30 0 -30 0 -3 -97 -3 -98 -39 0 -40 0 0 123 c0 68 3
127 7 130 12 13 62 7 71 -9z m462 -4 c0 -20 0 -20 21 1 28 28 53 21 57 -17 3
-28 0 -31 -35 -40 l-38 -9 -3 -87 -3 -88 -39 0 -40 0 0 123 c0 68 3 127 7 130
3 4 21 7 40 7 26 0 33 -4 33 -20z m287 -4 c25 -21 28 -31 31 -100 2 -42 8 -76
13 -76 5 0 9 -13 9 -30 0 -27 -3 -30 -30 -30 -17 0 -37 9 -48 21 -17 17 -20
18 -25 4 -18 -46 -118 -35 -136 16 -21 60 22 109 97 109 39 0 43 2 40 23 -4
28 -52 36 -77 13 -16 -15 -19 -15 -36 4 -35 38 3 68 87 69 36 1 54 -5 75 -23z
m264 5 c23 -19 23 -19 5 -40 -14 -15 -23 -18 -37 -11 -22 12 -66 13 -73 1 -9
-13 15 -28 57 -35 101 -19 105 -130 5 -157 -47 -12 -106 0 -128 27 -11 12 -10
18 6 35 19 18 22 19 52 3 38 -18 65 -15 70 8 2 13 -6 19 -35 24 -60 11 -91 30
-98 63 -13 58 33 101 106 101 31 0 55 -6 70 -19z m329 -7 c0 -26 0 -26 18 -6
9 11 27 23 40 27 20 6 22 3 22 -28 0 -32 -3 -35 -34 -41 -42 -8 -46 -18 -46
-112 l0 -74 -35 0 -35 0 0 130 0 130 35 0 c31 0 35 -3 35 -26z m190 -51 c0
-111 5 -125 44 -121 l31 3 5 95 5 95 35 0 35 0 3 -127 3 -128 -41 0 c-31 0
-40 4 -40 18 0 11 -3 13 -8 5 -14 -22 -59 -33 -90 -22 -42 14 -52 46 -52 159
l0 100 35 0 35 0 0 -77z m403 45 l32 -32 -34 -13 c-30 -13 -35 -13 -43 1 -13
22 -55 20 -68 -3 -15 -30 -12 -97 6 -115 20 -21 26 -20 57 4 24 19 29 19 53 7
l26 -13 -26 -31 c-48 -57 -141 -50 -183 13 -10 16 -16 46 -16 83 0 89 38 130
121 131 36 0 49 -6 75 -32z m317 -45 c0 -95 6 -120 30 -126 38 -10 49 13 52
108 l3 90 35 0 35 0 3 -127 3 -128 -41 0 c-31 0 -40 4 -40 18 0 11 -3 13 -8 5
-14 -22 -59 -33 -90 -22 -42 14 -52 46 -52 159 l0 100 35 0 35 0 0 -77z m290
55 c0 -19 1 -20 18 -6 9 9 27 19 40 22 20 7 22 4 22 -27 0 -32 -3 -35 -34 -41
-42 -8 -46 -18 -46 -112 l0 -74 -35 0 -35 0 0 130 0 130 35 0 c29 0 35 -4 35
-22z m306 -12 c21 -21 34 -44 34 -59 0 -14 3 -32 6 -41 5 -14 -6 -16 -80 -16
-90 0 -100 -6 -66 -40 24 -24 48 -25 79 -3 23 15 25 15 37 -2 8 -10 14 -22 14
-27 0 -18 -55 -41 -99 -41 -88 0 -127 49 -119 150 4 48 10 61 37 85 25 22 41
28 77 28 39 0 51 -5 80 -34z m-5408 -79 l3 -38 -73 3 c-68 3 -73 5 -76 26 -7
47 3 53 75 50 l68 -3 3 -38z"/>
<path d="M2100 3530 l0 -1340 3925 0 3925 0 0 1340 0 1340 -3925 0 -3925 0 0
-1340z m5657 822 c94 -25 189 -74 252 -129 80 -70 195 -244 174 -264 -4 -4
-78 -44 -164 -88 l-157 -80 -31 64 c-64 129 -160 181 -320 173 -195 -9 -312
-124 -340 -331 -14 -101 -14 -364 0 -463 31 -222 176 -346 389 -331 47 3 96
13 126 27 58 25 128 97 168 171 16 30 30 55 31 57 1 1 73 -38 159 -89 l157
-91 -27 -47 c-46 -79 -92 -136 -159 -199 -77 -72 -127 -103 -226 -139 -69 -25
-85 -27 -249 -28 -196 0 -253 10 -375 69 -206 100 -341 297 -389 570 -66 368
16 746 205 951 53 57 150 127 222 159 50 22 150 48 232 60 63 9 252 -4 322
-22z m-4562 -67 c130 -248 180 -344 271 -520 137 -266 125 -253 161 -180 16
33 75 148 131 255 55 107 137 265 181 350 l80 155 205 3 206 2 0 -880 0 -880
-180 0 -180 0 0 578 -1 577 -87 -170 c-49 -93 -120 -226 -158 -295 -39 -69
-105 -189 -148 -267 -43 -79 -81 -143 -85 -143 -4 0 -17 19 -30 43 -90 168
-135 251 -209 387 -47 85 -118 223 -158 305 l-73 150 -1 -582 0 -583 -185 0
-185 0 0 873 c0 481 3 877 7 881 4 3 97 5 207 4 l200 -3 31 -60z m2780 -262
c59 -181 115 -353 125 -383 10 -30 64 -197 120 -370 97 -302 208 -641 218
-668 3 -10 -38 -12 -198 -10 l-203 3 -60 203 -61 202 -292 0 -293 0 -35 -112
c-19 -62 -47 -155 -62 -205 l-28 -93 -193 0 c-134 0 -193 3 -193 11 0 10 61
197 438 1337 l137 412 237 0 237 0 106 -327z m3395 188 c0 -77 3 -146 6 -155
5 -14 -8 -16 -110 -16 l-116 0 2 -572 c2 -450 6 -573 16 -574 6 -1 56 -2 110
-3 l97 -1 -2 -147 -2 -148 -418 -3 -418 -2 0 150 0 150 98 1 c53 1 103 2 110
3 9 1 13 124 15 574 l2 572 -109 0 c-90 0 -110 3 -115 16 -8 20 -8 242 0 272
l6 22 414 0 414 0 0 -139z"/>
<path d="M5566 3823 c-27 -93 -70 -240 -96 -328 l-47 -160 195 -3 c107 -1 196
-1 198 1 5 5 -189 657 -195 657 -4 0 -28 -75 -55 -167z"/>
<path d="M3817 1470 c-9 -30 -14 -56 -12 -58 1 -2 16 -2 33 0 l30 3 -17 55
-17 55 -17 -55z"/>
<path d="M3248 1362 c-11 -2 -18 -13 -18 -28 0 -22 4 -25 33 -22 26 2 32 7 32
27 0 24 -14 31 -47 23z"/>
<path d="M5227 1453 c-4 -3 -7 -32 -7 -63 0 -68 14 -86 54 -70 24 9 26 14 26
63 0 29 -5 58 -12 65 -13 13 -50 16 -61 5z"/>
<path d="M6450 1441 c-18 -35 -12 -98 11 -115 22 -15 48 -11 61 8 12 18 9 101
-4 114 -18 18 -56 14 -68 -7z"/>
<path d="M7982 1361 c-25 -16 -10 -46 23 -46 25 0 31 4 33 28 3 23 0 27 -20
27 -13 0 -29 -4 -36 -9z"/>
<path d="M10080 1450 c-30 -30 -24 -40 25 -40 44 0 55 10 37 36 -15 22 -42 24
-62 4z"/>
</g>
</svg>
