<svg version="1.1" xmlns="http://www.w3.org/2000/svg" viewBox="0 0 1573.1294034977443 740.7964760740288" width="3146.2588069954886" height="1481.5929521480575">
  <!-- svg-source:excalidraw -->
  
  <defs>
    <style class="style-fonts">
      @font-face {
        font-family: "Virgil";
        src: url("https://excalidraw.com/Virgil.woff2");
      }
      @font-face {
        font-family: "Cascadia";
        src: url("https://excalidraw.com/Cascadia.woff2");
      }
      @font-face {
        font-family: "Assistant";
        src: url("https://excalidraw.com/Assistant-Regular.woff2");
      }
    </style>
    
  </defs>
  <rect x="0" y="0" width="1573.1294034977443" height="740.7964760740288" fill="#ffffff"></rect><g stroke-linecap="round" transform="translate(214.81856099386096 267.03286190372273) rotate(0 154.86392832774038 34.91191061813606)"><path d="M17.46 0 C101.23 -0.79, 185.2 1.1, 292.27 0 M17.46 0 C94.42 1.65, 171.38 2.61, 292.27 0 M292.27 0 C305.68 1.35, 307.8 4.73, 309.73 17.46 M292.27 0 C305.43 1.22, 310.61 6.23, 309.73 17.46 M309.73 17.46 C310.52 30.42, 310.13 43.62, 309.73 52.37 M309.73 17.46 C309.89 26.22, 309.49 35.05, 309.73 52.37 M309.73 52.37 C310.13 64.4, 302.58 70.71, 292.27 69.82 M309.73 52.37 C309.03 63.99, 304.77 70.81, 292.27 69.82 M292.27 69.82 C223.13 69.27, 152.88 67.7, 17.46 69.82 M292.27 69.82 C201.33 67.36, 109.76 68.38, 17.46 69.82 M17.46 69.82 C5.53 69.57, -0.31 62.02, 0 52.37 M17.46 69.82 C4.81 70.51, 2.01 62.46, 0 52.37 M0 52.37 C-0.97 44, -1.39 33.26, 0 17.46 M0 52.37 C-0.32 40.13, 0.01 29.68, 0 17.46 M0 17.46 C1.58 7.13, 7.51 0.59, 17.46 0 M0 17.46 C-1.6 6.64, 3.81 -2.03, 17.46 0" stroke="#1971c2" stroke-width="1" fill="none"></path></g><g transform="translate(226.6126345852731 289.4447725218588) rotate(0 143.06985473632812 12.5)"><text x="143.06985473632812" y="0" font-family="Virgil, Segoe UI Emoji" font-size="20px" fill="#e03131" text-anchor="middle" style="white-space: pre;" direction="ltr" dominant-baseline="text-before-edge">ProcessMessagesInputHasher</text></g><g stroke-linecap="round" transform="translate(10 102.87685076280945) rotate(0 126.4982138566952 32.17741655087593)"><path d="M16.09 0 C74.39 -0.84, 131.89 -0.85, 236.91 0 M16.09 0 C75.85 -1.15, 133.24 -2.21, 236.91 0 M236.91 0 C248.96 1.06, 253.76 5.72, 253 16.09 M236.91 0 C249.86 -0.31, 253.41 6.33, 253 16.09 M253 16.09 C251.9 25.79, 253.18 32.31, 253 48.27 M253 16.09 C253.04 26.98, 252.17 37.93, 253 48.27 M253 48.27 C252.39 58.98, 248.38 65.21, 236.91 64.35 M253 48.27 C251.98 60.34, 246.12 66.04, 236.91 64.35 M236.91 64.35 C159.15 61.79, 78.79 65, 16.09 64.35 M236.91 64.35 C190.02 65.05, 143.26 64.3, 16.09 64.35 M16.09 64.35 C4.49 64.95, 1.75 57.65, 0 48.27 M16.09 64.35 C4.64 66.65, 1.74 58.28, 0 48.27 M0 48.27 C0.77 38.78, 0.48 25.7, 0 16.09 M0 48.27 C0.68 41.59, 0.74 33.89, 0 16.09 M0 16.09 C-1.39 6.07, 3.61 -1.77, 16.09 0 M0 16.09 C0.57 5.87, 6.29 1.99, 16.09 0" stroke="#1971c2" stroke-width="1" fill="none"></path></g><g transform="translate(72.79827031421519 122.55426731368539) rotate(0 63.69994354248047 12.5)"><text x="63.69994354248047" y="0" font-family="Virgil, Segoe UI Emoji" font-size="20px" fill="#1971c2" text-anchor="middle" style="white-space: pre;" direction="ltr" dominant-baseline="text-before-edge">packedValues</text></g><g stroke-linecap="round"><g transform="translate(304.12919692151627 194.5748184885565) rotate(0 1.595621253302852 21.722771252156463)"><path d="M0.26 -0.18 C0.83 7.23, 3.14 36.61, 3.71 43.95 M-0.27 -0.75 C0.25 6.56, 2.9 35.95, 3.54 43.24" stroke="#1e1e1e" stroke-width="1" fill="none"></path></g><g transform="translate(304.12919692151627 194.5748184885565) rotate(0 1.595621253302852 21.722771252156463)"><path d="M-5.69 23.51 C-2.89 31.3, 1.56 38.12, 3.54 43.24 M-5.69 23.51 C-2.06 31.05, 1.19 38.13, 3.54 43.24" stroke="#1e1e1e" stroke-width="1" fill="none"></path></g><g transform="translate(304.12919692151627 194.5748184885565) rotate(0 1.595621253302852 21.722771252156463)"><path d="M9.15 22.19 C6.77 30.47, 6.06 37.75, 3.54 43.24 M9.15 22.19 C7.32 30.18, 5.12 37.74, 3.54 43.24" stroke="#1e1e1e" stroke-width="1" fill="none"></path></g></g><mask></mask><g transform="translate(390.3781520522498 222.8987784432602) rotate(0 31.809967041015625 12.5)"><text x="0" y="0" font-family="Virgil, Segoe UI Emoji" font-size="20px" fill="#1e1e1e" text-anchor="start" style="white-space: pre;" direction="ltr" dominant-baseline="text-before-edge">Inputs</text></g><g stroke-linecap="round" transform="translate(289.17256946463203 104.38214322122849) rotate(0 110.05757116156974 32.17741655087593)"><path d="M16.09 0 C91.47 -3.59, 163.06 -0.33, 204.03 0 M16.09 0 C83.4 -0.47, 148.95 0.08, 204.03 0 M204.03 0 C213.85 0.45, 218.56 4.2, 220.12 16.09 M204.03 0 C216.48 0.13, 219.89 6.11, 220.12 16.09 M220.12 16.09 C220.73 22.8, 221.23 31.58, 220.12 48.27 M220.12 16.09 C219.79 26.31, 219.58 36.08, 220.12 48.27 M220.12 48.27 C221.21 60.49, 213.83 65.02, 204.03 64.35 M220.12 48.27 C217.87 57.08, 216.77 62.32, 204.03 64.35 M204.03 64.35 C129.66 63.78, 53.81 63.21, 16.09 64.35 M204.03 64.35 C141.71 64.09, 80.78 62.78, 16.09 64.35 M16.09 64.35 C6.38 63.31, -0.35 59.59, 0 48.27 M16.09 64.35 C7.42 64.71, -0.01 57.34, 0 48.27 M0 48.27 C1.2 39.27, 0.47 25.49, 0 16.09 M0 48.27 C0.53 37.69, 0.69 27.53, 0 16.09 M0 16.09 C-0.17 5.34, 6.41 0.96, 16.09 0 M0 16.09 C0.45 3.8, 5.2 -0.43, 16.09 0" stroke="#1971c2" stroke-width="1" fill="none"></path></g><g transform="translate(300.6202391979791 124.05955977210442) rotate(0 98.60990142822266 12.5)"><text x="98.60990142822266" y="0" font-family="Virgil, Segoe UI Emoji" font-size="20px" fill="#1971c2" text-anchor="middle" style="white-space: pre;" direction="ltr" dominant-baseline="text-before-edge">coordinatorPublicKey</text></g><g stroke-linecap="round" transform="translate(540.9921643422958 104.34332131207475) rotate(0 110.05757116156974 32.17741655087593)"><path d="M16.09 0 C55.41 -0.48, 92.96 0.69, 204.03 0 M16.09 0 C69.51 -0.56, 123.06 -1.37, 204.03 0 M204.03 0 C216.25 0.11, 219.92 6.01, 220.12 16.09 M204.03 0 C213.6 1.63, 220.58 5.81, 220.12 16.09 M220.12 16.09 C220.24 24.35, 221.12 30.23, 220.12 48.27 M220.12 16.09 C220.45 28.38, 219.44 39.51, 220.12 48.27 M220.12 48.27 C218.17 57.33, 216.51 62.59, 204.03 64.35 M220.12 48.27 C222.29 59.96, 214.42 64.06, 204.03 64.35 M204.03 64.35 C151.13 65.28, 95.69 62.91, 16.09 64.35 M204.03 64.35 C129.41 63.25, 53.61 64.07, 16.09 64.35 M16.09 64.35 C7.15 64.66, -0.01 57.55, 0 48.27 M16.09 64.35 C6.1 65.16, 1.81 60.5, 0 48.27 M0 48.27 C0.62 34.14, -1.86 24.01, 0 16.09 M0 48.27 C-0.21 37.9, 0.4 28.02, 0 16.09 M0 16.09 C0.39 4, 5.22 -0.37, 16.09 0 M0 16.09 C1.31 4.81, 4.53 -0.85, 16.09 0" stroke="#1971c2" stroke-width="1" fill="none"></path></g><g transform="translate(564.4498209530843 124.02073786295068) rotate(0 86.59991455078125 12.5)"><text x="86.59991455078125" y="0" font-family="Virgil, Segoe UI Emoji" font-size="20px" fill="#1971c2" text-anchor="middle" style="white-space: pre;" direction="ltr" dominant-baseline="text-before-edge">messageTreeRoot</text></g><g stroke-linecap="round" transform="translate(543.523918851628 10) rotate(0 110.05757116156974 32.17741655087593)"><path d="M16.09 0 C79.38 -1.46, 144.04 -2.72, 204.03 0 M16.09 0 C77.47 1.15, 137.26 1.42, 204.03 0 M204.03 0 C213.75 1.42, 220.52 5.75, 220.12 16.09 M204.03 0 C213.22 1.02, 219.42 5.35, 220.12 16.09 M220.12 16.09 C221.43 25.63, 221.72 38.91, 220.12 48.27 M220.12 16.09 C218.99 27.33, 220.85 39.35, 220.12 48.27 M220.12 48.27 C222 59.84, 214.46 64.1, 204.03 64.35 M220.12 48.27 C219.76 56.71, 213.75 65.04, 204.03 64.35 M204.03 64.35 C133.22 65.28, 57.81 64.78, 16.09 64.35 M204.03 64.35 C158.37 65.07, 110.93 64.2, 16.09 64.35 M16.09 64.35 C6.01 65.05, 1.58 60.3, 0 48.27 M16.09 64.35 C7.31 65.03, -1.6 59.81, 0 48.27 M0 48.27 C0.72 42.24, 2.01 34.43, 0 16.09 M0 48.27 C0.03 37.96, -0.24 28.83, 0 16.09 M0 16.09 C1.14 4.88, 4.64 -0.74, 16.09 0 M0 16.09 C0.27 7.15, 3.72 -0.93, 16.09 0" stroke="#1971c2" stroke-width="1" fill="none"></path></g><g transform="translate(552.7315907212055 29.677416550875932) rotate(0 100.84989929199219 12.5)"><text x="100.84989929199219" y="0" font-family="Virgil, Segoe UI Emoji" font-size="20px" fill="#1971c2" text-anchor="middle" style="white-space: pre;" direction="ltr" dominant-baseline="text-before-edge">currentSbCommitment</text></g><g stroke-linecap="round"><g transform="translate(525.959153881261 298.6031760673377) rotate(0 108.38376029738583 0.4619128446606737)"><path d="M-0.54 0.27 C35.4 0.23, 179.47 0.11, 215.84 0.22 M1.38 -0.63 C37.67 -0.58, 182.06 0.9, 218.06 1.4" stroke="#1e1e1e" stroke-width="1" fill="none"></path></g><g transform="translate(525.959153881261 298.6031760673377) rotate(0 108.38376029738583 0.4619128446606737)"><path d="M194.47 9.67 C202.39 5.59, 208.27 6.01, 218.06 1.4 M194.47 9.67 C201.19 7.78, 209.1 4.73, 218.06 1.4" stroke="#1e1e1e" stroke-width="1" fill="none"></path></g><g transform="translate(525.959153881261 298.6031760673377) rotate(0 108.38376029738583 0.4619128446606737)"><path d="M194.67 -7.43 C202.59 -6.07, 208.41 -0.21, 218.06 1.4 M194.67 -7.43 C201.31 -4.1, 209.16 -1.91, 218.06 1.4" stroke="#1e1e1e" stroke-width="1" fill="none"></path></g></g><mask></mask><g transform="translate(566.9964634489988 249.43708447729568) rotate(0 49.669944763183594 12.5)"><text x="0" y="0" font-family="Virgil, Segoe UI Emoji" font-size="20px" fill="#1e1e1e" text-anchor="start" style="white-space: pre;" direction="ltr" dominant-baseline="text-before-edge">Processing</text></g><g stroke-linecap="round" transform="translate(802.9495467368438 211.60406149631808) rotate(0 136.64542853387945 43.84461860677061)"><path d="M21.92 0 C73.04 -1.63, 124.51 -2.31, 251.37 0 M21.92 0 C106.47 0, 191.89 -0.39, 251.37 0 M251.37 0 C266.73 0.86, 272.41 8.48, 273.29 21.92 M251.37 0 C264.47 1.68, 274.55 9.03, 273.29 21.92 M273.29 21.92 C271.77 34.81, 271.67 46.08, 273.29 65.77 M273.29 21.92 C273.07 35.94, 272.79 52.23, 273.29 65.77 M273.29 65.77 C275.04 79.04, 265.36 89.68, 251.37 87.69 M273.29 65.77 C275.03 79.67, 267.15 86.49, 251.37 87.69 M251.37 87.69 C186.8 89.43, 120.49 89.99, 21.92 87.69 M251.37 87.69 C175.23 89.22, 97.06 89.27, 21.92 87.69 M21.92 87.69 C5.56 85.92, 0.5 80.82, 0 65.77 M21.92 87.69 C8.24 89.67, -0.19 80.36, 0 65.77 M0 65.77 C-1.57 50.16, -0.58 35.99, 0 21.92 M0 65.77 C0.28 54.44, -0.56 41.16, 0 21.92 M0 21.92 C-0.98 6.78, 5.47 0.56, 21.92 0 M0 21.92 C-2.29 7.11, 6.93 -1.94, 21.92 0" stroke="#1971c2" stroke-width="1" fill="none"></path></g><g transform="translate(826.7550552267778 230.44868010308846) rotate(0 112.83992004394531 25)"><text x="112.83992004394531" y="0" font-family="Virgil, Segoe UI Emoji" font-size="20px" fill="#1971c2" text-anchor="middle" style="white-space: pre;" direction="ltr" dominant-baseline="text-before-edge">1. Unpack values using </text><text x="112.83992004394531" y="25" font-family="Virgil, Segoe UI Emoji" font-size="20px" fill="#1971c2" text-anchor="middle" style="white-space: pre;" direction="ltr" dominant-baseline="text-before-edge">UnpackElement</text></g><g stroke-linecap="round" transform="translate(818.6170598942742 331.71185714807507) rotate(0 128.1905618457971 48.770478637969745)"><path d="M24.39 0 C76.65 -1.55, 129 -0.91, 232 0 M24.39 0 C86.13 -0.27, 148.08 -0.14, 232 0 M232 0 C249.35 1.5, 255.46 8.8, 256.38 24.39 M232 0 C246.01 -1.92, 258.4 6.1, 256.38 24.39 M256.38 24.39 C256.33 43.31, 254.61 61.98, 256.38 73.16 M256.38 24.39 C256.49 41.47, 257.56 56.25, 256.38 73.16 M256.38 73.16 C257.39 88.37, 247.9 98.14, 232 97.54 M256.38 73.16 C258.44 89.77, 248.25 95.88, 232 97.54 M232 97.54 C164.18 100.49, 94.56 97.76, 24.39 97.54 M232 97.54 C162.55 96.11, 93.02 96.68, 24.39 97.54 M24.39 97.54 C7.96 97.52, 1.05 90.37, 0 73.16 M24.39 97.54 C8.58 95.97, -0.17 88.99, 0 73.16 M0 73.16 C-0.62 55.97, 1.67 36.89, 0 24.39 M0 73.16 C-0.68 60.77, -0.75 47.75, 0 24.39 M0 24.39 C-0.33 6.44, 9.06 0.99, 24.39 0 M0 24.39 C2.2 9.54, 6.62 1.29, 24.39 0" stroke="#1971c2" stroke-width="1" fill="none"></path></g><g transform="translate(828.0477340447587 342.98233578604504) rotate(0 118.7598876953125 37.5)"><text x="118.7598876953125" y="0" font-family="Virgil, Segoe UI Emoji" font-size="20px" fill="#1971c2" text-anchor="middle" style="white-space: pre;" direction="ltr" dominant-baseline="text-before-edge">2. Hash the </text><text x="118.7598876953125" y="25" font-family="Virgil, Segoe UI Emoji" font-size="20px" fill="#1971c2" text-anchor="middle" style="white-space: pre;" direction="ltr" dominant-baseline="text-before-edge">coordinator's public key </text><text x="118.7598876953125" y="50" font-family="Virgil, Segoe UI Emoji" font-size="20px" fill="#1971c2" text-anchor="middle" style="white-space: pre;" direction="ltr" dominant-baseline="text-before-edge">using poseidon</text></g><g stroke-linecap="round" transform="translate(20.897458336503405 10.535611501115909) rotate(0 110.05757116156974 32.17741655087593)"><path d="M16.09 0 C89.42 -2.13, 166.76 0.07, 204.03 0 M16.09 0 C72.53 0.27, 131.08 0.59, 204.03 0 M204.03 0 C214.43 -0.96, 219.86 6.8, 220.12 16.09 M204.03 0 C212.58 1.93, 217.91 4.35, 220.12 16.09 M220.12 16.09 C221.36 28.29, 219.46 37.82, 220.12 48.27 M220.12 16.09 C219.3 26.94, 220.92 37.57, 220.12 48.27 M220.12 48.27 C221.27 59.89, 216.49 65.41, 204.03 64.35 M220.12 48.27 C217.87 59.32, 213.17 64.49, 204.03 64.35 M204.03 64.35 C161.94 64.74, 123.26 64.9, 16.09 64.35 M204.03 64.35 C156.51 63.62, 108.85 63.71, 16.09 64.35 M16.09 64.35 C6.73 65.98, -0.73 57.88, 0 48.27 M16.09 64.35 C4.09 63.96, -0.67 59.34, 0 48.27 M0 48.27 C-0.69 42.78, 0.21 34.83, 0 16.09 M0 48.27 C0.48 37.37, 0.55 26.01, 0 16.09 M0 16.09 C0.03 4.03, 3.44 -1.74, 16.09 0 M0 16.09 C-0.51 5.26, 4.96 -0.63, 16.09 0" stroke="#1971c2" stroke-width="1" fill="none"></path></g><g transform="translate(48.96510792824938 30.21302805199184) rotate(0 81.98992156982422 12.5)"><text x="81.98992156982422" y="0" font-family="Virgil, Segoe UI Emoji" font-size="20px" fill="#1971c2" text-anchor="middle" style="white-space: pre;" direction="ltr" dominant-baseline="text-before-edge">newSbCommitment</text></g><g stroke-linecap="round" transform="translate(285.120869680306 14.738279204319724) rotate(0 110.05757116156974 32.17741655087593)"><path d="M16.09 0 C61.77 2.61, 105.1 0.5, 204.03 0 M16.09 0 C90.63 -0.41, 166.01 -0.91, 204.03 0 M204.03 0 C216.32 0.03, 220 3.78, 220.12 16.09 M204.03 0 C213.03 -1.85, 220.81 4.37, 220.12 16.09 M220.12 16.09 C221.3 22.58, 219.96 33.98, 220.12 48.27 M220.12 16.09 C219.78 26.44, 219.72 38.23, 220.12 48.27 M220.12 48.27 C219.24 58.56, 214.56 62.39, 204.03 64.35 M220.12 48.27 C220.5 58.71, 215.92 64.6, 204.03 64.35 M204.03 64.35 C144.5 62.25, 87.39 64.19, 16.09 64.35 M204.03 64.35 C142.8 64.05, 81.97 62.6, 16.09 64.35 M16.09 64.35 C5.57 66.35, 0.6 60.52, 0 48.27 M16.09 64.35 C4.89 65.01, -0.01 58.47, 0 48.27 M0 48.27 C-0.54 40.46, -1.08 34.95, 0 16.09 M0 48.27 C-0.09 42.01, 0.89 34.84, 0 16.09 M0 16.09 C-1.14 5.83, 4.57 1.06, 16.09 0 M0 16.09 C-0.87 4.11, 7.27 0.01, 16.09 0" stroke="#1971c2" stroke-width="1" fill="none"></path></g><g transform="translate(311.30852201863354 34.41569575519566) rotate(0 83.86991882324219 12.5)"><text x="83.86991882324219" y="0" font-family="Virgil, Segoe UI Emoji" font-size="20px" fill="#1971c2" text-anchor="middle" style="white-space: pre;" direction="ltr" dominant-baseline="text-before-edge">pollEndTimestamp</text></g><g transform="translate(402.8178820188291 406.17540973685755) rotate(0 40.27995300292969 12.5)"><text x="0" y="0" font-family="Virgil, Segoe UI Emoji" font-size="20px" fill="#1e1e1e" text-anchor="start" style="white-space: pre;" direction="ltr" dominant-baseline="text-before-edge">Outputs</text></g><g stroke-linecap="round"><g transform="translate(341.83701490020167 404.9050559667685) rotate(0 0.2229014099473261 20.51105751905652)"><path d="M-0.05 0.16 C0.01 6.92, 0.79 33.93, 0.79 40.68 M-0.73 -0.23 C-0.75 6.57, 0.25 34.32, 0.54 41.2" stroke="#1e1e1e" stroke-width="1" fill="none"></path></g><g transform="translate(341.83701490020167 404.9050559667685) rotate(0 0.2229014099473261 20.51105751905652)"><path d="M-7.21 22.2 C-3.93 30.07, -1.91 35.77, 0.54 41.2 M-7.21 22.2 C-5.5 26.34, -3.32 31.35, 0.54 41.2" stroke="#1e1e1e" stroke-width="1" fill="none"></path></g><g transform="translate(341.83701490020167 404.9050559667685) rotate(0 0.2229014099473261 20.51105751905652)"><path d="M6.82 21.67 C4.75 29.73, 1.44 35.64, 0.54 41.2 M6.82 21.67 C5.32 25.89, 4.3 31.03, 0.54 41.2" stroke="#1e1e1e" stroke-width="1" fill="none"></path></g></g><mask></mask><g stroke-linecap="round" transform="translate(244.66070407486768 469.8980532349224) rotate(0 110.05757116156974 32.17741655087593)"><path d="M16.09 0 C69.65 -2.96, 124.29 -0.93, 204.03 0 M16.09 0 C64.35 1.75, 111.32 0.32, 204.03 0 M204.03 0 C213.3 -0.76, 220.66 6.04, 220.12 16.09 M204.03 0 C215.86 -1, 219.23 5.96, 220.12 16.09 M220.12 16.09 C220.97 25.35, 221.52 36.78, 220.12 48.27 M220.12 16.09 C220.51 27.15, 220.76 38.62, 220.12 48.27 M220.12 48.27 C219.16 58.45, 213.83 64.83, 204.03 64.35 M220.12 48.27 C220.44 57.23, 214.32 63.61, 204.03 64.35 M204.03 64.35 C163.59 62.51, 125.33 62.22, 16.09 64.35 M204.03 64.35 C130.67 63.96, 58.65 62.89, 16.09 64.35 M16.09 64.35 C7.24 65.85, 1.62 57.06, 0 48.27 M16.09 64.35 C7.22 62.52, 1.22 61.07, 0 48.27 M0 48.27 C1.32 35.7, -1.06 24.7, 0 16.09 M0 48.27 C-0.91 38.83, -0.37 30.91, 0 16.09 M0 16.09 C0.07 5.13, 4.84 -1.34, 16.09 0 M0 16.09 C1.68 3.14, 5.4 0.03, 16.09 0" stroke="#1971c2" stroke-width="1" fill="none"></path></g><g transform="translate(304.0483304732538 489.5754697857983) rotate(0 50.669944763183594 12.5)"><text x="50.669944763183594" y="0" font-family="Virgil, Segoe UI Emoji" font-size="20px" fill="#2f9e44" text-anchor="middle" style="white-space: pre;" direction="ltr" dominant-baseline="text-before-edge">numSignups</text></g><g stroke-linecap="round" transform="translate(483.58820707982477 473.08275619611777) rotate(0 110.05757116156974 17.5)"><path d="M8.75 0 C50.72 -0.5, 93.58 0.99, 211.37 0 M8.75 0 C87.72 0.57, 168.23 1.22, 211.37 0 M211.37 0 C218.16 -0.87, 219.34 3.44, 220.12 8.75 M211.37 0 C218.3 1.46, 219.66 3.67, 220.12 8.75 M220.12 8.75 C221.13 11.41, 218.73 16.83, 220.12 26.25 M220.12 8.75 C219.84 13.28, 219.85 18.5, 220.12 26.25 M220.12 26.25 C220.39 30.55, 216.83 34.35, 211.37 35 M220.12 26.25 C218.04 31.71, 215.74 33.8, 211.37 35 M211.37 35 C158.78 33.67, 101.84 32.73, 8.75 35 M211.37 35 C132.33 35.44, 52.35 33.9, 8.75 35 M8.75 35 C4.54 33.41, 1.06 33.89, 0 26.25 M8.75 35 C4.14 33.05, -1.9 33.29, 0 26.25 M0 26.25 C-0.16 22.58, 0.82 16.43, 0 8.75 M0 26.25 C0.08 21.41, -0.18 16.19, 0 8.75 M0 8.75 C1.46 0.98, 2.94 0.03, 8.75 0 M0 8.75 C1.15 4.59, 2.5 -1.73, 8.75 0" stroke="#1971c2" stroke-width="1" fill="none"></path></g><g transform="translate(511.03584629559373 478.08275619611777) rotate(0 82.60993194580078 12.5)"><text x="82.60993194580078" y="0" font-family="Virgil, Segoe UI Emoji" font-size="20px" fill="#2f9e44" text-anchor="middle" style="white-space: pre;" direction="ltr" dominant-baseline="text-before-edge">batchStartIndex</text></g><g stroke-linecap="round" transform="translate(12.313339405000534 473.70564235677193) rotate(0 110.05757116156974 17.5)"><path d="M8.75 0 C68.11 -1.13, 123.23 -2.54, 211.37 0 M8.75 0 C62.26 -1.01, 114.56 -0.38, 211.37 0 M211.37 0 C218.16 1.27, 219.72 3.57, 220.12 8.75 M211.37 0 C214.97 1.38, 218.16 4.12, 220.12 8.75 M220.12 8.75 C219.49 14.53, 219.73 16.63, 220.12 26.25 M220.12 8.75 C220.16 12.86, 219.87 18.02, 220.12 26.25 M220.12 26.25 C218.31 31.76, 215.93 33.96, 211.37 35 M220.12 26.25 C219.36 32.2, 216.11 36.98, 211.37 35 M211.37 35 C157.58 33.14, 100.19 35.25, 8.75 35 M211.37 35 C136.2 32.53, 60.06 34.05, 8.75 35 M8.75 35 C3.98 33.3, -1.66 33.13, 0 26.25 M8.75 35 C1.54 33.47, -0.96 31.72, 0 26.25 M0 26.25 C-0.58 19.98, 1.53 14.75, 0 8.75 M0 26.25 C0.68 20.36, 0.06 16.18, 0 8.75 M0 8.75 C1 4.37, 2.56 -1.51, 8.75 0 M0 8.75 C-1.95 1.65, 2.95 -1.82, 8.75 0" stroke="#1971c2" stroke-width="1" fill="none"></path></g><g transform="translate(46.250984113933555 478.70564235677193) rotate(0 76.11992645263672 12.5)"><text x="76.11992645263672" y="0" font-family="Virgil, Segoe UI Emoji" font-size="20px" fill="#2f9e44" text-anchor="middle" style="white-space: pre;" direction="ltr" dominant-baseline="text-before-edge">maxVoteOptions</text></g><g stroke-linecap="round" transform="translate(492.8713939460399 532.3293628989304) rotate(0 110.05757116156974 17.5)"><path d="M8.75 0 C59.75 0.97, 114.59 0.86, 211.37 0 M8.75 0 C64.31 0.35, 119.62 1.76, 211.37 0 M211.37 0 C218.46 1.23, 219 4.31, 220.12 8.75 M211.37 0 C218.55 -1.13, 219.48 4.6, 220.12 8.75 M220.12 8.75 C220.39 12.57, 218.63 18.67, 220.12 26.25 M220.12 8.75 C219.92 13.62, 220.87 19.1, 220.12 26.25 M220.12 26.25 C218.54 33.92, 215.88 34.64, 211.37 35 M220.12 26.25 C221.31 32.22, 214.95 35.97, 211.37 35 M211.37 35 C144.87 33.79, 76.39 32.08, 8.75 35 M211.37 35 C154.75 36.63, 98.55 35.93, 8.75 35 M8.75 35 C4.61 34.95, 1.4 30.8, 0 26.25 M8.75 35 C4.3 35.72, 0.31 29.82, 0 26.25 M0 26.25 C1.48 21.21, -1.55 15.15, 0 8.75 M0 26.25 C-0.65 22.43, 0.8 19.83, 0 8.75 M0 8.75 C-1.21 3.91, 3.68 1.97, 8.75 0 M0 8.75 C0.63 3.65, 4.42 0.93, 8.75 0" stroke="#1971c2" stroke-width="1" fill="none"></path></g><g transform="translate(531.5690179030198 537.3293628989304) rotate(0 71.35994720458984 12.5)"><text x="71.35994720458984" y="0" font-family="Virgil, Segoe UI Emoji" font-size="20px" fill="#2f9e44" text-anchor="middle" style="white-space: pre;" direction="ltr" dominant-baseline="text-before-edge">batchEndIndex</text></g><g stroke-linecap="round" transform="translate(26.107430007601124 531.8927689815405) rotate(0 100.69598202867246 18.8120165048158)"><path d="M9.41 0 C56.45 -0.68, 100.77 -0.94, 191.99 0 M9.41 0 C61.16 -0.44, 111.69 -0.75, 191.99 0 M191.99 0 C196.75 1.16, 201.09 3.99, 201.39 9.41 M191.99 0 C198.73 0.71, 202.69 3.08, 201.39 9.41 M201.39 9.41 C200.73 13.73, 200.91 17.94, 201.39 28.22 M201.39 9.41 C202.23 12.9, 200.92 18.22, 201.39 28.22 M201.39 28.22 C202.7 33.58, 199.26 36.43, 191.99 37.62 M201.39 28.22 C202.76 35.29, 200.24 35.71, 191.99 37.62 M191.99 37.62 C144.89 38.47, 95.34 35.43, 9.41 37.62 M191.99 37.62 C148.02 37.24, 103.8 35.6, 9.41 37.62 M9.41 37.62 C2.07 38.13, 1.93 32.86, 0 28.22 M9.41 37.62 C1.26 35.74, 0.97 35.34, 0 28.22 M0 28.22 C0.43 25.34, -1.71 20.4, 0 9.41 M0 28.22 C0.37 23.84, 1.07 20.29, 0 9.41 M0 9.41 C0.91 5.03, 2.33 -1.18, 9.41 0 M0 9.41 C-1.23 1.47, 1.82 0.78, 9.41 0" stroke="#1971c2" stroke-width="1" fill="none"></path></g><g transform="translate(104.82343156752358 538.2047854863563) rotate(0 21.97998046875 12.5)"><text x="21.97998046875" y="0" font-family="Virgil, Segoe UI Emoji" font-size="20px" fill="#2f9e44" text-anchor="middle" style="white-space: pre;" direction="ltr" dominant-baseline="text-before-edge">hash</text></g><g stroke-linecap="round" transform="translate(808.3598847939502 460.21521954600166) rotate(0 139.43116576484636 57.405236106649454)"><path d="M28.7 0 C79.15 -1.56, 128.01 -0.77, 250.16 0 M28.7 0 C103.02 -0.17, 178.38 -0.6, 250.16 0 M250.16 0 C271.25 -1.8, 280.5 10.43, 278.86 28.7 M250.16 0 C271.17 1.88, 280.06 7.76, 278.86 28.7 M278.86 28.7 C277.79 44.22, 277.22 64.44, 278.86 86.11 M278.86 28.7 C277.67 40.68, 278.78 52.41, 278.86 86.11 M278.86 86.11 C280.41 104.22, 268.74 116.34, 250.16 114.81 M278.86 86.11 C278.83 103.5, 267 116.51, 250.16 114.81 M250.16 114.81 C191.36 111.53, 132.24 113.27, 28.7 114.81 M250.16 114.81 C165.7 116.49, 80.62 116, 28.7 114.81 M28.7 114.81 C9.84 114.23, 0.92 106.87, 0 86.11 M28.7 114.81 C9.09 115.5, -0.45 104.2, 0 86.11 M0 86.11 C2.04 67.45, 1.41 44.52, 0 28.7 M0 86.11 C-0.07 72.1, -0.71 57.29, 0 28.7 M0 28.7 C-0.22 7.81, 7.8 -1.62, 28.7 0 M0 28.7 C-2.22 8.25, 9.25 -1.25, 28.7 0" stroke="#1971c2" stroke-width="1" fill="none"></path></g><g transform="translate(813.9911543185622 492.6204556526509) rotate(0 133.79989624023438 25)"><text x="133.79989624023438" y="0" font-family="Virgil, Segoe UI Emoji" font-size="20px" fill="#1971c2" text-anchor="middle" style="white-space: pre;" direction="ltr" dominant-baseline="text-before-edge">3. using a SHA256 hasher </text><text x="133.79989624023438" y="25" font-family="Virgil, Segoe UI Emoji" font-size="20px" fill="#1971c2" text-anchor="middle" style="white-space: pre;" direction="ltr" dominant-baseline="text-before-edge">hash all the values</text></g><g stroke-linecap="round" transform="translate(1247.7646627165261 430.4621147456146) rotate(0 157.6823703906091 89.79119820109236)"><path d="M32 0 C116.29 1.14, 203.01 0.52, 283.36 0 M32 0 C111.13 0.3, 189.62 -0.61, 283.36 0 M283.36 0 C303.85 1.25, 315.32 8.8, 315.36 32 M283.36 0 C302.49 1.65, 314.97 11.51, 315.36 32 M315.36 32 C315 56.68, 314.14 79.5, 315.36 147.58 M315.36 32 C314.79 73.51, 314.8 114.04, 315.36 147.58 M315.36 147.58 C317.15 169.41, 304.57 179.22, 283.36 179.58 M315.36 147.58 C316.05 169.73, 306.31 179.07, 283.36 179.58 M283.36 179.58 C195.55 181.25, 105.79 180.02, 32 179.58 M283.36 179.58 C196.02 178.56, 107.53 178.76, 32 179.58 M32 179.58 C11.26 181.42, -1.84 167, 0 147.58 M32 179.58 C9.83 178.83, 1.53 170.18, 0 147.58 M0 147.58 C-0.44 108.41, 0.29 68.55, 0 32 M0 147.58 C-1.19 122.76, -0.64 99.89, 0 32 M0 32 C1.11 11.01, 9.06 -0.45, 32 0 M0 32 C-1.6 12.48, 10.35 -1.28, 32 0" stroke="#1971c2" stroke-width="1" fill="none"></path></g><g transform="translate(1304.597133815143 445.25331294670696) rotate(0 100.84989929199219 75)"><text x="100.84989929199219" y="0" font-family="Virgil, Segoe UI Emoji" font-size="20px" fill="#1971c2" text-anchor="middle" style="white-space: pre;" direction="ltr" dominant-baseline="text-before-edge">Inputs:</text><text x="100.84989929199219" y="25" font-family="Virgil, Segoe UI Emoji" font-size="20px" fill="#1971c2" text-anchor="middle" style="white-space: pre;" direction="ltr" dominant-baseline="text-before-edge">packedValues</text><text x="100.84989929199219" y="50" font-family="Virgil, Segoe UI Emoji" font-size="20px" fill="#1971c2" text-anchor="middle" style="white-space: pre;" direction="ltr" dominant-baseline="text-before-edge">hashedPublicKey</text><text x="100.84989929199219" y="75" font-family="Virgil, Segoe UI Emoji" font-size="20px" fill="#1971c2" text-anchor="middle" style="white-space: pre;" direction="ltr" dominant-baseline="text-before-edge">messageTreeRoot</text><text x="100.84989929199219" y="100" font-family="Virgil, Segoe UI Emoji" font-size="20px" fill="#1971c2" text-anchor="middle" style="white-space: pre;" direction="ltr" dominant-baseline="text-before-edge">currentSbCommitment</text><text x="100.84989929199219" y="125" font-family="Virgil, Segoe UI Emoji" font-size="20px" fill="#1971c2" text-anchor="middle" style="white-space: pre;" direction="ltr" dominant-baseline="text-before-edge">pollEndTimestamp</text></g><g stroke-linecap="round"><g transform="translate(1126.9088481702345 522.1442171898125) rotate(0 45.73237227768925 0.13517117272863288)"><path d="M0.99 1.16 C16.24 1.27, 77.48 0.32, 92.41 0.33 M0.05 0.73 C15.14 1.07, 76.47 2.13, 91.96 1.9" stroke="#1e1e1e" stroke-width="2" fill="none"></path></g><g transform="translate(1126.9088481702345 522.1442171898125) rotate(0 45.73237227768925 0.13517117272863288)"><path d="M68.44 10.37 C79.29 8.55, 86.35 2.28, 91.96 1.9 M68.44 10.37 C77.29 7.46, 86.16 4.75, 91.96 1.9" stroke="#1e1e1e" stroke-width="2" fill="none"></path></g><g transform="translate(1126.9088481702345 522.1442171898125) rotate(0 45.73237227768925 0.13517117272863288)"><path d="M68.5 -6.73 C79.28 -2.08, 86.32 -1.89, 91.96 1.9 M68.5 -6.73 C77.39 -3.16, 86.24 0.62, 91.96 1.9" stroke="#1e1e1e" stroke-width="2" fill="none"></path></g></g><mask></mask><g stroke-linecap="round" transform="translate(808.4545864916281 602.3657019012053) rotate(0 139.1176418329478 64.21538708641174)"><path d="M32 0 C84.19 3, 133.92 3.13, 246.24 0 M32 0 C80.8 -1.67, 129.71 -0.59, 246.24 0 M246.24 0 C265.61 1.67, 279.75 10.88, 278.24 32 M246.24 0 C269.56 1.42, 276.44 11.17, 278.24 32 M278.24 32 C279.58 49.79, 279.33 69.82, 278.24 96.43 M278.24 32 C277.58 44.77, 278.55 57.32, 278.24 96.43 M278.24 96.43 C276.83 119.53, 268.86 127.16, 246.24 128.43 M278.24 96.43 C278.59 119.49, 267.7 128.97, 246.24 128.43 M246.24 128.43 C202.26 129.37, 159.23 128.22, 32 128.43 M246.24 128.43 C172.17 126.41, 99.86 127.11, 32 128.43 M32 128.43 C9.64 126.87, 1.75 117.62, 0 96.43 M32 128.43 C10.08 127.44, -1.4 120.06, 0 96.43 M0 96.43 C1.66 80.71, -1.19 60.81, 0 32 M0 96.43 C0.43 78.75, -0.91 60.29, 0 32 M0 32 C0.9 12.01, 8.81 -0.35, 32 0 M0 32 C-0.94 10.08, 8.52 -1.71, 32 0" stroke="#1971c2" stroke-width="1" fill="none"></path></g><g transform="translate(822.8423317791658 629.081088987617) rotate(0 124.72989654541016 37.5)"><text x="124.72989654541016" y="0" font-family="Virgil, Segoe UI Emoji" font-size="20px" fill="#1971c2" text-anchor="middle" style="white-space: pre;" direction="ltr" dominant-baseline="text-before-edge">4. Wire the output hash </text><text x="124.72989654541016" y="25" font-family="Virgil, Segoe UI Emoji" font-size="20px" fill="#1971c2" text-anchor="middle" style="white-space: pre;" direction="ltr" dominant-baseline="text-before-edge">to the output signal </text><text x="124.72989654541016" y="50" font-family="Virgil, Segoe UI Emoji" font-size="20px" fill="#1971c2" text-anchor="middle" style="white-space: pre;" direction="ltr" dominant-baseline="text-before-edge">(hash)</text></g><g stroke-linecap="round"><g transform="translate(1089.1574604917391 257.0930443026127) rotate(0 55.42052351083339 0.8414543730668811)"><path d="M-0.38 -0.57 C18.21 -0.44, 92.4 0.59, 111 1.13 M1.61 1.74 C20.11 2.01, 91.96 2.53, 110.13 2.37" stroke="#1e1e1e" stroke-width="2" fill="none"></path></g><g transform="translate(1089.1574604917391 257.0930443026127) rotate(0 55.42052351083339 0.8414543730668811)"><path d="M86.63 10.91 C91.63 9.07, 97.63 7.25, 110.13 2.37 M86.63 10.91 C94.86 7.8, 103.7 5.02, 110.13 2.37" stroke="#1e1e1e" stroke-width="2" fill="none"></path></g><g transform="translate(1089.1574604917391 257.0930443026127) rotate(0 55.42052351083339 0.8414543730668811)"><path d="M86.64 -6.19 C91.68 -3.68, 97.68 -1.15, 110.13 2.37 M86.64 -6.19 C94.9 -2.81, 103.74 0.91, 110.13 2.37" stroke="#1e1e1e" stroke-width="2" fill="none"></path></g></g><mask></mask><g stroke-linecap="round" transform="translate(1216.2388380182044 175.4350566963201) rotate(0 147.75239930162763 92.05782203662068)"><path d="M32 0 C121.39 2.44, 215.65 0.65, 263.5 0 M32 0 C109.24 0.02, 184.71 0.4, 263.5 0 M263.5 0 C286.11 0.71, 297.38 12.01, 295.5 32 M263.5 0 C284.48 1.49, 294.54 12.88, 295.5 32 M295.5 32 C297.94 60.42, 296.11 88.74, 295.5 152.12 M295.5 32 C296.98 67.8, 295.89 102.52, 295.5 152.12 M295.5 152.12 C296.99 173.41, 284.59 185.62, 263.5 184.12 M295.5 152.12 C294.77 172.59, 283.99 183.55, 263.5 184.12 M263.5 184.12 C189.37 182.81, 113.82 181.42, 32 184.12 M263.5 184.12 C209.32 183.95, 156.02 183.79, 32 184.12 M32 184.12 C11.1 184.13, -0.26 174.81, 0 152.12 M32 184.12 C9.34 185.59, 0.67 173.03, 0 152.12 M0 152.12 C0.88 105.57, -1.4 56.29, 0 32 M0 152.12 C-0.01 119.29, -0.94 86.04, 0 32 M0 32 C-1.66 11.83, 10 -0.15, 32 0 M0 32 C0.06 10.48, 11.32 -0.96, 32 0" stroke="#1971c2" stroke-width="1" fill="none"></path></g><g transform="translate(1281.3813053740314 204.99287873294088) rotate(0 82.60993194580078 62.5)"><text x="82.60993194580078" y="0" font-family="Virgil, Segoe UI Emoji" font-size="20px" fill="#1971c2" text-anchor="middle" style="white-space: pre;" direction="ltr" dominant-baseline="text-before-edge">Wire outputs to:</text><text x="82.60993194580078" y="25" font-family="Virgil, Segoe UI Emoji" font-size="20px" fill="#1971c2" text-anchor="middle" style="white-space: pre;" direction="ltr" dominant-baseline="text-before-edge">maxVoteOptions</text><text x="82.60993194580078" y="50" font-family="Virgil, Segoe UI Emoji" font-size="20px" fill="#1971c2" text-anchor="middle" style="white-space: pre;" direction="ltr" dominant-baseline="text-before-edge">numSignups</text><text x="82.60993194580078" y="75" font-family="Virgil, Segoe UI Emoji" font-size="20px" fill="#1971c2" text-anchor="middle" style="white-space: pre;" direction="ltr" dominant-baseline="text-before-edge">batchStartIndex</text><text x="82.60993194580078" y="100" font-family="Virgil, Segoe UI Emoji" font-size="20px" fill="#1971c2" text-anchor="middle" style="white-space: pre;" direction="ltr" dominant-baseline="text-before-edge">batchEndIndex</text></g></svg>