<svg version="1.1" xmlns="http://www.w3.org/2000/svg" viewBox="0 0 2838.7553757346163 1625.0829563676589" width="8516.26612720385" height="4875.248869102977">
  <!-- svg-source:excalidraw -->
  
  <defs>
    <style class="style-fonts">
      @font-face {
        font-family: "Virgil";
        src: url("https://excalidraw.com/Virgil.woff2");
      }
      @font-face {
        font-family: "Cascadia";
        src: url("https://excalidraw.com/Cascadia.woff2");
      }
      @font-face {
        font-family: "Assistant";
        src: url("https://excalidraw.com/Assistant-Regular.woff2");
      }
    </style>
    
  </defs>
  <rect x="0" y="0" width="2838.7553757346163" height="1625.0829563676589" fill="#ffffff"></rect><g stroke-linecap="round" transform="translate(10 221.45954758435073) rotate(0 210.56991931007474 83.99484987970982)"><path d="M32 0 C139.65 -4.79, 251.49 -5.28, 389.14 0 C407.68 0.41, 424.46 14.18, 421.14 32 C422.33 55.31, 418.44 74.44, 421.14 135.99 C422.22 157.55, 411.7 169.97, 389.14 167.99 C293.92 164.58, 193.94 165.96, 32 167.99 C12.87 167.23, -2.88 160.66, 0 135.99 C0.4 101.22, 0.89 70.29, 0 32 C0.22 7.43, 10.85 -1.08, 32 0" stroke="none" stroke-width="0" fill="#ffffff"></path><path d="M32 0 C112.07 -1.05, 193.7 -2.31, 389.14 0 M32 0 C111.38 1.27, 189.26 0.97, 389.14 0 M389.14 0 C410.71 -1.83, 419.22 11.94, 421.14 32 M389.14 0 C409.99 -0.04, 419.63 10.46, 421.14 32 M421.14 32 C420.31 53.31, 421.62 77.24, 421.14 135.99 M421.14 32 C422.07 61.35, 421.79 89.81, 421.14 135.99 M421.14 135.99 C421.46 159.05, 409.14 166.11, 389.14 167.99 M421.14 135.99 C420.86 157.07, 410.46 169.61, 389.14 167.99 M389.14 167.99 C310.44 167.6, 230.34 167.11, 32 167.99 M389.14 167.99 C300.97 167.15, 213.48 166.87, 32 167.99 M32 167.99 C12.02 169.93, 1.83 157.68, 0 135.99 M32 167.99 C8.49 169.04, 1.91 158.27, 0 135.99 M0 135.99 C-1.31 103.09, -1.22 68.36, 0 32 M0 135.99 C-0.99 106.56, -0.61 78.51, 0 32 M0 32 C1.18 8.68, 12.22 -1.94, 32 0 M0 32 C-0.39 10.07, 9.12 -0.78, 32 0" stroke="#e03131" stroke-width="2" fill="none"></path></g><g transform="translate(118.81594439552373 282.9543974640601) rotate(0 101.75397491455078 22.5)"><text x="101.75397491455078" y="0" font-family="Virgil, Segoe UI Emoji" font-size="36px" fill="#e03131" text-anchor="middle" style="white-space: pre;" direction="ltr" dominant-baseline="text-before-edge">Coordinator</text></g><g stroke-linecap="round"><g transform="translate(495.6860543559055 303.01089761149615) rotate(0 63.90057999176406 0.6910400870706326)"><path d="M0.85 -1.03 C22.45 -1.06, 107.57 0.2, 128.93 0.41 M-0.17 1.04 C21.43 1.08, 107.07 1.45, 128.57 1.44" stroke="#1e1e1e" stroke-width="2" fill="none"></path></g><g transform="translate(495.6860543559055 303.01089761149615) rotate(0 63.90057999176406 0.6910400870706326)"><path d="M100.35 11.64 C105.46 10.83, 112.43 8.42, 128.57 1.44 M100.35 11.64 C105.62 10.28, 111.75 6.53, 128.57 1.44" stroke="#1e1e1e" stroke-width="2" fill="none"></path></g><g transform="translate(495.6860543559055 303.01089761149615) rotate(0 63.90057999176406 0.6910400870706326)"><path d="M100.4 -8.88 C105.6 -4.69, 112.56 -2.1, 128.57 1.44 M100.4 -8.88 C105.79 -6.01, 111.91 -5.52, 128.57 1.44" stroke="#1e1e1e" stroke-width="2" fill="none"></path></g></g><mask></mask><g stroke-linecap="round" transform="translate(652.4843987700187 10) rotate(0 165.6794393830528 145.44846728171387)"><path d="M207.5 36.5 C226.83 57.01, 247.21 76.05, 289.86 109.5 C328.58 146.68, 330.85 147.58, 289.86 182.5 C264.47 207.88, 232.83 232.9, 207.5 254.4 C167.74 290.07, 168.53 291.05, 124.5 254.4 C95.65 228.99, 68.95 208.09, 41.5 182.5 C-2.93 147.92, 3.45 147.07, 41.5 109.5 C62.68 91.07, 74.5 76.8, 124.5 36.5 C167.42 -3.5, 166.54 3.03, 207.5 36.5" stroke="none" stroke-width="0" fill="#ffffff"></path><path d="M207.5 36.5 C239.23 64.93, 271.53 94.78, 289.86 109.5 M207.5 36.5 C227.52 55.16, 247.17 72.31, 289.86 109.5 M289.86 109.5 C330.24 144.06, 332.72 147.4, 289.86 182.5 M289.86 109.5 C333.08 145.41, 331.08 143.87, 289.86 182.5 M289.86 182.5 C259.46 211.73, 228.84 235.99, 207.5 254.4 M289.86 182.5 C268.2 201.95, 246.06 222.49, 207.5 254.4 M207.5 254.4 C164.97 289.66, 166.64 290.36, 124.5 254.4 M207.5 254.4 C167.65 290.83, 167.52 293.16, 124.5 254.4 M124.5 254.4 C93.68 226.16, 64.36 199.45, 41.5 182.5 M124.5 254.4 C102.95 237.09, 82.76 218.84, 41.5 182.5 M41.5 182.5 C1.42 146.65, -0.57 146.29, 41.5 109.5 M41.5 182.5 C-0.72 145.13, -2.19 145.81, 41.5 109.5 M41.5 109.5 C71.09 80.92, 105.32 53.57, 124.5 36.5 M41.5 109.5 C70.7 84.58, 100.26 59.24, 124.5 36.5 M124.5 36.5 C165.07 0.88, 166.84 -1.26, 207.5 36.5 M124.5 36.5 C165.8 0.89, 164.96 -1.69, 207.5 36.5" stroke="#1e1e1e" stroke-width="2" fill="none"></path></g><g transform="translate(759.0861423873266 87.72423364085716) rotate(0 59.23797607421875 67.5)"><text x="59.23797607421875" y="0" font-family="Virgil, Segoe UI Emoji" font-size="36px" fill="#1e1e1e" text-anchor="middle" style="white-space: pre;" direction="ltr" dominant-baseline="text-before-edge">merge </text><text x="59.23797607421875" y="45" font-family="Virgil, Segoe UI Emoji" font-size="36px" fill="#1e1e1e" text-anchor="middle" style="white-space: pre;" direction="ltr" dominant-baseline="text-before-edge">signup </text><text x="59.23797607421875" y="90" font-family="Virgil, Segoe UI Emoji" font-size="36px" fill="#1e1e1e" text-anchor="middle" style="white-space: pre;" direction="ltr" dominant-baseline="text-before-edge">tree</text></g><g stroke-linecap="round" transform="translate(657.8322239214554 357.96446891810774) rotate(0 165.6794393830528 145.44846728171387)"><path d="M207.5 36.5 C237.65 60.25, 264.1 83.16, 289.86 109.5 C333.09 142.45, 329.69 146.19, 289.86 182.5 C273.35 195.25, 259.38 208.69, 207.5 254.4 C165.52 290.81, 164.5 288.09, 124.5 254.4 C105.35 236.52, 92.14 225.64, 41.5 182.5 C1.38 147.37, -1.76 147.57, 41.5 109.5 C66.79 85.94, 97.5 61.69, 124.5 36.5 C164.9 3.5, 163.11 0.33, 207.5 36.5" stroke="none" stroke-width="0" fill="#ffffff"></path><path d="M207.5 36.5 C238.59 63.87, 273.73 96.67, 289.86 109.5 M207.5 36.5 C235.7 61.1, 263.39 85.88, 289.86 109.5 M289.86 109.5 C332.32 147.99, 330.7 146.53, 289.86 182.5 M289.86 109.5 C333.23 148.22, 330.52 147.27, 289.86 182.5 M289.86 182.5 C256.74 210.85, 228.12 238.57, 207.5 254.4 M289.86 182.5 C256.8 209.28, 225.79 238.87, 207.5 254.4 M207.5 254.4 C165.36 290.15, 167.64 292.86, 124.5 254.4 M207.5 254.4 C163.85 289.11, 167.61 290.81, 124.5 254.4 M124.5 254.4 C105.21 242.02, 91.81 225.11, 41.5 182.5 M124.5 254.4 C92.51 226.63, 58.3 197.77, 41.5 182.5 M41.5 182.5 C1.46 147.11, -0.76 144.72, 41.5 109.5 M41.5 182.5 C0.84 145.55, 1.16 145.93, 41.5 109.5 M41.5 109.5 C72.54 81.73, 100.46 57.23, 124.5 36.5 M41.5 109.5 C58.36 94.63, 77.37 78.36, 124.5 36.5 M124.5 36.5 C164.07 -0.05, 167.84 -1.78, 207.5 36.5 M124.5 36.5 C167.35 -1.44, 164.84 -0.82, 207.5 36.5" stroke="#1e1e1e" stroke-width="2" fill="none"></path></g><g transform="translate(752.0139769992124 435.6887025589649) rotate(0 71.65796661376953 67.5)"><text x="71.65796661376953" y="0" font-family="Virgil, Segoe UI Emoji" font-size="36px" fill="#1e1e1e" text-anchor="middle" style="white-space: pre;" direction="ltr" dominant-baseline="text-before-edge">merge </text><text x="71.65796661376953" y="45" font-family="Virgil, Segoe UI Emoji" font-size="36px" fill="#1e1e1e" text-anchor="middle" style="white-space: pre;" direction="ltr" dominant-baseline="text-before-edge">message</text><text x="71.65796661376953" y="90" font-family="Virgil, Segoe UI Emoji" font-size="36px" fill="#1e1e1e" text-anchor="middle" style="white-space: pre;" direction="ltr" dominant-baseline="text-before-edge">tree</text></g><g stroke-linecap="round"><g transform="translate(964.8816772571481 306.9530097088473) rotate(0 63.90057999176406 0.6910400870706326)"><path d="M1.13 0.57 C22.26 0.58, 105.71 0.49, 126.73 0.52 M0.27 -0.18 C21.76 -0.07, 107.89 1.29, 128.88 1.6" stroke="#1e1e1e" stroke-width="2" fill="none"></path></g><g transform="translate(964.8816772571481 306.9530097088473) rotate(0 63.90057999176406 0.6910400870706326)"><path d="M100.53 11.43 C109.87 6.45, 115.91 4.41, 128.88 1.6 M100.53 11.43 C107.44 10.14, 113.58 7.29, 128.88 1.6" stroke="#1e1e1e" stroke-width="2" fill="none"></path></g><g transform="translate(964.8816772571481 306.9530097088473) rotate(0 63.90057999176406 0.6910400870706326)"><path d="M100.84 -9.09 C110.16 -7.96, 116.1 -3.91, 128.88 1.6 M100.84 -9.09 C107.8 -5.36, 113.86 -3.18, 128.88 1.6" stroke="#1e1e1e" stroke-width="2" fill="none"></path></g></g><mask></mask><g transform="translate(85.73425822441459 94.45087372101625) rotate(0 166.93194580078125 22.5)"><text x="0" y="0" font-family="Virgil, Segoe UI Emoji" font-size="36px" fill="#1e1e1e" text-anchor="start" style="white-space: pre;" direction="ltr" dominant-baseline="text-before-edge">Poll has now ended</text></g><g stroke-linecap="round" transform="translate(1156.9852116902343 137.23277846073142) rotate(0 192.5423335140431 190)"><path d="M241.25 47.75 C279.74 82.08, 312.81 115.84, 336.83 143.25 C385.46 191.69, 384.62 190.95, 336.83 238.75 C311.69 267.1, 278.56 297.07, 241.25 332.25 C196.03 378.12, 192.55 379.46, 144.75 332.25 C113.93 303.88, 88.47 276.83, 48.25 238.75 C-0.3 188.26, 1.2 190.12, 48.25 143.25 C68.56 118.4, 90.68 95.32, 144.75 47.75 C193.17 2.95, 195.35 0.15, 241.25 47.75" stroke="none" stroke-width="0" fill="#ffffff"></path><path d="M241.25 47.75 C263.4 67.44, 285.61 88.29, 336.83 143.25 M241.25 47.75 C264.14 69.69, 284.96 92.81, 336.83 143.25 M336.83 143.25 C383.39 189.3, 386.74 190.64, 336.83 238.75 M336.83 143.25 C382.9 191.93, 385.23 189.97, 336.83 238.75 M336.83 238.75 C305.25 267.52, 273.04 298.11, 241.25 332.25 M336.83 238.75 C305.94 267.57, 277.04 297.39, 241.25 332.25 M241.25 332.25 C193.82 380.23, 193.51 381.26, 144.75 332.25 M241.25 332.25 C193.64 380.42, 191.15 381.7, 144.75 332.25 M144.75 332.25 C106.67 296.98, 71.35 260.89, 48.25 238.75 M144.75 332.25 C117.94 306.94, 91.27 281.98, 48.25 238.75 M48.25 238.75 C0.47 191.4, 1.51 189.7, 48.25 143.25 M48.25 238.75 C-0.41 192.18, 2.15 190.21, 48.25 143.25 M48.25 143.25 C74.46 119.76, 97.52 93.02, 144.75 47.75 M48.25 143.25 C86.22 105.91, 125.26 67.4, 144.75 47.75 M144.75 47.75 C193.88 -1.06, 191.94 0.48, 241.25 47.75 M144.75 47.75 C192.07 -1.32, 191.65 -0.75, 241.25 47.75" stroke="#1e1e1e" stroke-width="2" fill="none"></path></g><g transform="translate(1263.8784106127832 237.23277846073142) rotate(0 85.87796783447266 90)"><text x="85.87796783447266" y="0" font-family="Virgil, Segoe UI Emoji" font-size="36px" fill="#1e1e1e" text-anchor="middle" style="white-space: pre;" direction="ltr" dominant-baseline="text-before-edge">generate </text><text x="85.87796783447266" y="45" font-family="Virgil, Segoe UI Emoji" font-size="36px" fill="#1e1e1e" text-anchor="middle" style="white-space: pre;" direction="ltr" dominant-baseline="text-before-edge">MACI </text><text x="85.87796783447266" y="90" font-family="Virgil, Segoe UI Emoji" font-size="36px" fill="#1e1e1e" text-anchor="middle" style="white-space: pre;" direction="ltr" dominant-baseline="text-before-edge">state </text><text x="85.87796783447266" y="135" font-family="Virgil, Segoe UI Emoji" font-size="36px" fill="#1e1e1e" text-anchor="middle" style="white-space: pre;" direction="ltr" dominant-baseline="text-before-edge">locally</text></g><g stroke-linecap="round"><g transform="translate(1581.289171885765 321.1860759127612) rotate(0 63.90057999176406 0.6910400870706326)"><path d="M0.72 0.91 C21.96 1.07, 105.54 0.32, 126.61 0.28 M-0.36 0.34 C21.29 0.66, 107.62 1.03, 128.69 1.24" stroke="#1e1e1e" stroke-width="2" fill="none"></path></g><g transform="translate(1581.289171885765 321.1860759127612) rotate(0 63.90057999176406 0.6910400870706326)"><path d="M100.43 11.31 C108.64 6.79, 111.92 5.35, 128.69 1.24 M100.43 11.31 C106.66 8.35, 114.5 5.93, 128.69 1.24" stroke="#1e1e1e" stroke-width="2" fill="none"></path></g><g transform="translate(1581.289171885765 321.1860759127612) rotate(0 63.90057999176406 0.6910400870706326)"><path d="M100.58 -9.21 C108.64 -8.92, 111.88 -5.54, 128.69 1.24 M100.58 -9.21 C106.75 -7.19, 114.55 -4.63, 128.69 1.24" stroke="#1e1e1e" stroke-width="2" fill="none"></path></g></g><mask></mask><g stroke-linecap="round" transform="translate(1751.8418570404199 86.8981079505711) rotate(0 204.7822887517841 235)"><path d="M256.25 59 C284.07 94.36, 314.29 126.22, 358.31 177 C409.51 234.91, 411.38 235.72, 358.31 295 C320.17 338.88, 281.73 376.57, 256.25 411 C206.06 467.73, 201.48 470.5, 153.75 411 C133.25 382.26, 106.48 360.68, 51.25 295 C-0.19 234.16, -3.54 239.24, 51.25 177 C72.47 155.37, 90.36 124.57, 153.75 59 C203.07 -3.08, 205.21 -0.81, 256.25 59" stroke="none" stroke-width="0" fill="#ffffff"></path><path d="M256.25 59 C291.63 99.24, 327.89 143.26, 358.31 177 M256.25 59 C282.59 91.46, 311.49 123.76, 358.31 177 M358.31 177 C410.53 234.13, 408.37 236.3, 358.31 295 M358.31 177 C410.91 237.57, 411 237.59, 358.31 295 M358.31 295 C334.36 321.02, 311.42 345.02, 256.25 411 M358.31 295 C330.67 324.19, 306.25 352.96, 256.25 411 M256.25 411 C206.34 471.99, 203.95 471.86, 153.75 411 M256.25 411 C205.33 467.97, 203.2 470.86, 153.75 411 M153.75 411 C120.65 372.87, 85.86 332.48, 51.25 295 M153.75 411 C117.7 371.27, 81.61 328.79, 51.25 295 M51.25 295 C-0.07 234.57, -1.81 237.43, 51.25 177 M51.25 295 C1 234.59, -1.99 234.17, 51.25 177 M51.25 177 C77.48 147.4, 104.39 117.79, 153.75 59 M51.25 177 C71.82 151.46, 95.54 125.18, 153.75 59 M153.75 59 C206.63 0.78, 206.11 -1.8, 256.25 59 M153.75 59 C203 -0.78, 202.7 -1.45, 256.25 59" stroke="#1e1e1e" stroke-width="2" fill="none"></path></g><g transform="translate(1862.3950573855502 209.3981079505711) rotate(0 94.33794403076172 112.5)"><text x="94.33794403076172" y="0" font-family="Virgil, Segoe UI Emoji" font-size="36px" fill="#1e1e1e" text-anchor="middle" style="white-space: pre;" direction="ltr" dominant-baseline="text-before-edge">process </text><text x="94.33794403076172" y="45" font-family="Virgil, Segoe UI Emoji" font-size="36px" fill="#1e1e1e" text-anchor="middle" style="white-space: pre;" direction="ltr" dominant-baseline="text-before-edge">messages </text><text x="94.33794403076172" y="90" font-family="Virgil, Segoe UI Emoji" font-size="36px" fill="#1e1e1e" text-anchor="middle" style="white-space: pre;" direction="ltr" dominant-baseline="text-before-edge">locally </text><text x="94.33794403076172" y="135" font-family="Virgil, Segoe UI Emoji" font-size="36px" fill="#1e1e1e" text-anchor="middle" style="white-space: pre;" direction="ltr" dominant-baseline="text-before-edge">(typescript</text><text x="94.33794403076172" y="180" font-family="Virgil, Segoe UI Emoji" font-size="36px" fill="#1e1e1e" text-anchor="middle" style="white-space: pre;" direction="ltr" dominant-baseline="text-before-edge">code)</text></g><g stroke-linecap="round"><g transform="translate(2222.3352424360282 320.70868051409707) rotate(0 63.90057999176406 0.6910400870706326)"><path d="M-0.86 -1.13 C20.5 -0.7, 106.04 1.89, 127.33 2.5 M0.9 0.9 C22.13 1.02, 104.74 0.98, 126.14 0.97" stroke="#1e1e1e" stroke-width="2" fill="none"></path></g><g transform="translate(2222.3352424360282 320.70868051409707) rotate(0 63.90057999176406 0.6910400870706326)"><path d="M97.95 11.24 C102.59 8.29, 112.85 5.16, 126.14 0.97 M97.95 11.24 C109.25 6.41, 120.21 3.41, 126.14 0.97" stroke="#1e1e1e" stroke-width="2" fill="none"></path></g><g transform="translate(2222.3352424360282 320.70868051409707) rotate(0 63.90057999176406 0.6910400870706326)"><path d="M97.94 -9.28 C102.57 -7.49, 112.83 -5.88, 126.14 0.97 M97.94 -9.28 C109.38 -5.96, 120.34 -0.8, 126.14 0.97" stroke="#1e1e1e" stroke-width="2" fill="none"></path></g></g><mask></mask><g stroke-linecap="round" transform="translate(2383.624496436406 91.01063581496237) rotate(0 192.5423335140431 235)"><path d="M241.25 59 C278.91 102.47, 311.08 144.02, 336.83 177 C383.94 234.72, 384.76 235.61, 336.83 295 C308.47 328.31, 283.12 360.66, 241.25 411 C192.04 470.4, 192.76 472.47, 144.75 411 C115.62 382.35, 92.3 347.43, 48.25 295 C-3.58 235.64, 0.8 234.08, 48.25 177 C86.87 132.05, 119.81 93.86, 144.75 59 C192.59 -0.44, 195.27 1.41, 241.25 59" stroke="none" stroke-width="0" fill="#ffffff"></path><path d="M241.25 59 C263.17 88.28, 290.11 118.89, 336.83 177 M241.25 59 C275.86 99.69, 307.86 141.94, 336.83 177 M336.83 177 C385.49 234.66, 383.97 234.36, 336.83 295 M336.83 177 C387.15 234.76, 383.79 236.46, 336.83 295 M336.83 295 C306.57 330.67, 279.15 368.41, 241.25 411 M336.83 295 C311.92 324.95, 285.18 355.06, 241.25 411 M241.25 411 C192.08 471.43, 192.35 469.5, 144.75 411 M241.25 411 C194.21 468.77, 191.72 468.16, 144.75 411 M144.75 411 C109.14 364.02, 70.42 320.75, 48.25 295 M144.75 411 C109.42 368.95, 73.81 326.29, 48.25 295 M48.25 295 C-0.97 235.66, 1.34 234.43, 48.25 177 M48.25 295 C-0.47 234.58, -2.29 235.25, 48.25 177 M48.25 177 C82.16 136.58, 112.93 95.15, 144.75 59 M48.25 177 C81.29 134.91, 115.91 93.41, 144.75 59 M144.75 59 C192.65 1.74, 191.93 -0.07, 241.25 59 M144.75 59 C194.13 -1.45, 193.29 -2.06, 241.25 59" stroke="#1e1e1e" stroke-width="2" fill="none"></path></g><g transform="translate(2490.013705185615 213.51063581496237) rotate(0 86.3819580078125 112.5)"><text x="86.3819580078125" y="0" font-family="Virgil, Segoe UI Emoji" font-size="36px" fill="#1e1e1e" text-anchor="middle" style="white-space: pre;" direction="ltr" dominant-baseline="text-before-edge">generate </text><text x="86.3819580078125" y="45" font-family="Virgil, Segoe UI Emoji" font-size="36px" fill="#1e1e1e" text-anchor="middle" style="white-space: pre;" direction="ltr" dominant-baseline="text-before-edge">zk-SNARK</text><text x="86.3819580078125" y="90" font-family="Virgil, Segoe UI Emoji" font-size="36px" fill="#1e1e1e" text-anchor="middle" style="white-space: pre;" direction="ltr" dominant-baseline="text-before-edge">proof of </text><text x="86.3819580078125" y="135" font-family="Virgil, Segoe UI Emoji" font-size="36px" fill="#1e1e1e" text-anchor="middle" style="white-space: pre;" direction="ltr" dominant-baseline="text-before-edge">valid </text><text x="86.3819580078125" y="180" font-family="Virgil, Segoe UI Emoji" font-size="36px" fill="#1e1e1e" text-anchor="middle" style="white-space: pre;" direction="ltr" dominant-baseline="text-before-edge">processing</text></g><g stroke-linecap="round" transform="translate(2317.2151785212527 965.0829563676589) rotate(0 255.7700986066818 325)"><path d="M320 81.5 C355.41 128.36, 395.75 179.03, 447.54 244.5 C512.86 328.38, 514.83 324.87, 447.54 407.5 C410.51 459.89, 370.57 507.62, 320 568.5 C253.11 653.17, 254.97 651.21, 192 568.5 C145.97 510.58, 101.2 450.86, 64 407.5 C-0.81 326.5, 3.21 325.86, 64 244.5 C100.2 199.92, 133.25 160.24, 192 81.5 C258.36 -1.96, 256.19 3.28, 320 81.5" stroke="none" stroke-width="0" fill="#ffffff"></path><path d="M320 81.5 C355.68 124.26, 390.33 169.02, 447.54 244.5 M320 81.5 C362.48 137.26, 405.16 191.55, 447.54 244.5 M447.54 244.5 C511.45 325.32, 510.47 326.87, 447.54 407.5 M447.54 244.5 C513.45 326.91, 513.74 327.87, 447.54 407.5 M447.54 407.5 C411.65 451.26, 380.29 494.28, 320 568.5 M447.54 407.5 C405.69 461.54, 363.65 514.24, 320 568.5 M320 568.5 C254.26 650.94, 257.61 650.67, 192 568.5 M320 568.5 C257.27 651.77, 255.62 648.19, 192 568.5 M192 568.5 C164.89 533.82, 138.95 501.15, 64 407.5 M192 568.5 C147.4 516.06, 105.29 461.22, 64 407.5 M64 407.5 C1.95 324.32, 0.61 327.57, 64 244.5 M64 407.5 C-1.11 325.26, -1.53 325.4, 64 244.5 M64 244.5 C95.21 205.21, 127.69 162.78, 192 81.5 M64 244.5 C93.09 208.37, 121.49 173.03, 192 81.5 M192 81.5 C254.92 0.72, 254.76 -0.12, 320 81.5 M192 81.5 C256.38 0.51, 257.09 -0.26, 320 81.5" stroke="#1e1e1e" stroke-width="2" fill="none"></path></g><g transform="translate(2450.304260722543 1132.5829563676589) rotate(0 122.79596710205078 157.5)"><text x="122.79596710205078" y="0" font-family="Virgil, Segoe UI Emoji" font-size="36px" fill="#1e1e1e" text-anchor="middle" style="white-space: pre;" direction="ltr" dominant-baseline="text-before-edge">submit proof </text><text x="122.79596710205078" y="45" font-family="Virgil, Segoe UI Emoji" font-size="36px" fill="#1e1e1e" text-anchor="middle" style="white-space: pre;" direction="ltr" dominant-baseline="text-before-edge">on chain along</text><text x="122.79596710205078" y="90" font-family="Virgil, Segoe UI Emoji" font-size="36px" fill="#1e1e1e" text-anchor="middle" style="white-space: pre;" direction="ltr" dominant-baseline="text-before-edge">the </text><text x="122.79596710205078" y="135" font-family="Virgil, Segoe UI Emoji" font-size="36px" fill="#1e1e1e" text-anchor="middle" style="white-space: pre;" direction="ltr" dominant-baseline="text-before-edge">commitment </text><text x="122.79596710205078" y="180" font-family="Virgil, Segoe UI Emoji" font-size="36px" fill="#1e1e1e" text-anchor="middle" style="white-space: pre;" direction="ltr" dominant-baseline="text-before-edge">to the state</text><text x="122.79596710205078" y="225" font-family="Virgil, Segoe UI Emoji" font-size="36px" fill="#1e1e1e" text-anchor="middle" style="white-space: pre;" direction="ltr" dominant-baseline="text-before-edge">and ballot </text><text x="122.79596710205078" y="270" font-family="Virgil, Segoe UI Emoji" font-size="36px" fill="#1e1e1e" text-anchor="middle" style="white-space: pre;" direction="ltr" dominant-baseline="text-before-edge">trees</text></g><g stroke-linecap="round"><g transform="translate(2567.3960819246677 652.678214861211) rotate(0 1.979901366224567 116.23635726933344)"><path d="M0.74 -0.74 C1.3 37.85, 2.65 192.84, 3.35 231.58 M-0.33 1.49 C0.63 40.19, 4.91 194.13, 5.74 232.64" stroke="#1e1e1e" stroke-width="2" fill="none"></path></g><g transform="translate(2567.3960819246677 652.678214861211) rotate(0 1.979901366224567 116.23635726933344)"><path d="M-5.22 204.72 C-3.15 211.98, -0.14 222.97, 5.74 232.64 M-5.22 204.72 C-1.54 211.45, 0.14 217.93, 5.74 232.64" stroke="#1e1e1e" stroke-width="2" fill="none"></path></g><g transform="translate(2567.3960819246677 652.678214861211) rotate(0 1.979901366224567 116.23635726933344)"><path d="M15.29 204.2 C11.23 211.75, 8.11 222.89, 5.74 232.64 M15.29 204.2 C14.17 211.05, 11.03 217.65, 5.74 232.64" stroke="#1e1e1e" stroke-width="2" fill="none"></path></g></g><mask></mask><g stroke-linecap="round"><g transform="translate(2282.9595037989657 1266.5675146781387) rotate(0 -104.75058072555362 2.614816230667202)"><path d="M-0.49 0.86 C-35.33 1.5, -173.92 3.88, -208.9 4.47 M1.45 0.26 C-33.5 0.98, -174.64 4.78, -209.54 5.6" stroke="#1e1e1e" stroke-width="2" fill="none"></path></g><g transform="translate(2282.9595037989657 1266.5675146781387) rotate(0 -104.75058072555362 2.614816230667202)"><path d="M-181.62 -5.37 C-188.75 -1.1, -200.08 -0.18, -209.54 5.6 M-181.62 -5.37 C-188.62 -2.28, -194.98 0.31, -209.54 5.6" stroke="#1e1e1e" stroke-width="2" fill="none"></path></g><g transform="translate(2282.9595037989657 1266.5675146781387) rotate(0 -104.75058072555362 2.614816230667202)"><path d="M-181.1 15.14 C-188.5 13.08, -199.99 7.65, -209.54 5.6 M-181.1 15.14 C-188.24 13.55, -194.72 11.44, -209.54 5.6" stroke="#1e1e1e" stroke-width="2" fill="none"></path></g></g><mask></mask><g stroke-linecap="round" transform="translate(1513.4828297714732 947.6723703017606) rotate(0 257.9217981308859 325)"><path d="M322.5 81.5 C372.16 140.35, 414.11 198.72, 451.34 244.5 C513.6 328.33, 515.57 322.51, 451.34 407.5 C425.83 441.81, 393.89 482.06, 322.5 568.5 C261.3 647.3, 255.21 648.92, 193.5 568.5 C148.69 509.24, 102.53 451.88, 64.5 407.5 C-1.67 328.81, 0.07 325.4, 64.5 244.5 C100.07 199.4, 140.56 148.53, 193.5 81.5 C255.45 -2.52, 259.98 3.17, 322.5 81.5" stroke="none" stroke-width="0" fill="#ffffff"></path><path d="M322.5 81.5 C364.14 132.4, 404.68 183.1, 451.34 244.5 M322.5 81.5 C347.83 114.11, 373.67 145.41, 451.34 244.5 M451.34 244.5 C515.29 324.79, 514.8 326.18, 451.34 407.5 M451.34 244.5 C516.28 327.65, 513.85 323.84, 451.34 407.5 M451.34 407.5 C402.06 470.98, 353.44 530.05, 322.5 568.5 M451.34 407.5 C407.69 460.96, 364.54 514.39, 322.5 568.5 M322.5 568.5 C256.22 649.68, 259.11 651.1, 193.5 568.5 M322.5 568.5 C260.21 650.97, 260.08 651.47, 193.5 568.5 M193.5 568.5 C150.02 516.17, 111.12 463.65, 64.5 407.5 M193.5 568.5 C146.21 509.69, 98.06 449.23, 64.5 407.5 M64.5 407.5 C0.12 325.19, -0.77 325.88, 64.5 244.5 M64.5 407.5 C-0.05 325.37, -0.6 325.67, 64.5 244.5 M64.5 244.5 C112.99 182.13, 160.42 120.66, 193.5 81.5 M64.5 244.5 C113.83 182.66, 161.94 120.9, 193.5 81.5 M193.5 81.5 C259.05 -0.14, 259.59 0.6, 322.5 81.5 M193.5 81.5 C256.05 2.01, 259.98 1.37, 322.5 81.5" stroke="#1e1e1e" stroke-width="2" fill="none"></path></g><g transform="translate(1668.1057848061546 1182.6723703017606) rotate(0 103.33794403076172 90)"><text x="103.33794403076172" y="0" font-family="Virgil, Segoe UI Emoji" font-size="36px" fill="#1e1e1e" text-anchor="middle" style="white-space: pre;" direction="ltr" dominant-baseline="text-before-edge">tallyVotes </text><text x="103.33794403076172" y="45" font-family="Virgil, Segoe UI Emoji" font-size="36px" fill="#1e1e1e" text-anchor="middle" style="white-space: pre;" direction="ltr" dominant-baseline="text-before-edge">locally </text><text x="103.33794403076172" y="90" font-family="Virgil, Segoe UI Emoji" font-size="36px" fill="#1e1e1e" text-anchor="middle" style="white-space: pre;" direction="ltr" dominant-baseline="text-before-edge">(typescript </text><text x="103.33794403076172" y="135" font-family="Virgil, Segoe UI Emoji" font-size="36px" fill="#1e1e1e" text-anchor="middle" style="white-space: pre;" direction="ltr" dominant-baseline="text-before-edge">code)</text></g><g stroke-linecap="round" transform="translate(818.4786729049006 955.6614556165059) rotate(0 257.9217981308859 325)"><path d="M322.5 81.5 C356.62 126.37, 391.92 170.68, 451.34 244.5 C518.87 328.5, 518.56 324.29, 451.34 407.5 C421.84 449.27, 388.63 490.7, 322.5 568.5 C256.31 650.59, 260.87 651.96, 193.5 568.5 C151.61 513.74, 104.99 455.59, 64.5 407.5 C-1.54 329.03, -0.83 326.58, 64.5 244.5 C113.75 183.77, 161.17 118.18, 193.5 81.5 C257.34 -1.64, 261.55 1.94, 322.5 81.5" stroke="none" stroke-width="0" fill="#ffffff"></path><path d="M322.5 81.5 C375.23 145.98, 424.36 208.98, 451.34 244.5 M322.5 81.5 C369.22 138.56, 416.28 197.59, 451.34 244.5 M451.34 244.5 C515.05 324.01, 516.56 327.81, 451.34 407.5 M451.34 244.5 C515.35 327.99, 516 327.4, 451.34 407.5 M451.34 407.5 C417.89 446.39, 385.35 488.99, 322.5 568.5 M451.34 407.5 C424.88 438.51, 398.17 472.1, 322.5 568.5 M322.5 568.5 C256.78 648.51, 258.55 648.26, 193.5 568.5 M322.5 568.5 C259.78 649.74, 256.95 651.25, 193.5 568.5 M193.5 568.5 C151.65 514.62, 108.59 461.97, 64.5 407.5 M193.5 568.5 C149.6 516.2, 108.79 462.54, 64.5 407.5 M64.5 407.5 C-1.04 327.83, -1.13 326.24, 64.5 244.5 M64.5 407.5 C1.58 328.01, 1.55 326.45, 64.5 244.5 M64.5 244.5 C112.67 183.36, 164.68 120.64, 193.5 81.5 M64.5 244.5 C94.85 206.33, 126.26 166.93, 193.5 81.5 M193.5 81.5 C259 0.49, 257.6 0.66, 322.5 81.5 M193.5 81.5 C258.59 0.11, 258.93 -2.05, 322.5 81.5" stroke="#1e1e1e" stroke-width="2" fill="none"></path></g><g transform="translate(955.5516019996403 1190.661455616506) rotate(0 120.88796997070312 90)"><text x="120.88796997070312" y="0" font-family="Virgil, Segoe UI Emoji" font-size="36px" fill="#1e1e1e" text-anchor="middle" style="white-space: pre;" direction="ltr" dominant-baseline="text-before-edge">generate zk-</text><text x="120.88796997070312" y="45" font-family="Virgil, Segoe UI Emoji" font-size="36px" fill="#1e1e1e" text-anchor="middle" style="white-space: pre;" direction="ltr" dominant-baseline="text-before-edge">SNARK proof </text><text x="120.88796997070312" y="90" font-family="Virgil, Segoe UI Emoji" font-size="36px" fill="#1e1e1e" text-anchor="middle" style="white-space: pre;" direction="ltr" dominant-baseline="text-before-edge">of valid </text><text x="120.88796997070312" y="135" font-family="Virgil, Segoe UI Emoji" font-size="36px" fill="#1e1e1e" text-anchor="middle" style="white-space: pre;" direction="ltr" dominant-baseline="text-before-edge">tallying</text></g><g stroke-linecap="round" transform="translate(151.64048659562513 938.3723517513681) rotate(0 257.9217981308859 325)"><path d="M322.5 81.5 C364.41 140.92, 413.76 198.85, 451.34 244.5 C514.74 326.66, 515.53 328.25, 451.34 407.5 C403.34 469.36, 355.92 524.55, 322.5 568.5 C257.18 647.49, 258.14 650.58, 193.5 568.5 C160.38 526.49, 129.02 487.74, 64.5 407.5 C-3.35 325.39, 1.24 328.67, 64.5 244.5 C97.84 197.61, 135.94 153.6, 193.5 81.5 C254.85 -0.74, 255.48 -2.5, 322.5 81.5" stroke="none" stroke-width="0" fill="#ffffff"></path><path d="M322.5 81.5 C367.33 136.75, 411.22 193.54, 451.34 244.5 M322.5 81.5 C362.54 134.22, 405.32 187.73, 451.34 244.5 M451.34 244.5 C517.25 324.53, 517.75 327.81, 451.34 407.5 M451.34 244.5 C517.15 324.55, 517.34 323.81, 451.34 407.5 M451.34 407.5 C401.3 469.51, 354.79 528.05, 322.5 568.5 M451.34 407.5 C399.9 469.52, 350.46 533.29, 322.5 568.5 M322.5 568.5 C259.81 648.89, 256.84 649.08, 193.5 568.5 M322.5 568.5 C257.15 650.94, 259.27 648.43, 193.5 568.5 M193.5 568.5 C147.91 510.51, 102.77 452.98, 64.5 407.5 M193.5 568.5 C155.47 521.24, 116.25 471.49, 64.5 407.5 M64.5 407.5 C1.28 327.43, 1.48 324.15, 64.5 244.5 M64.5 407.5 C-1.33 324.18, -0.17 325.86, 64.5 244.5 M64.5 244.5 C101.99 199.91, 139.03 152.52, 193.5 81.5 M64.5 244.5 C113.15 182.58, 162.11 121, 193.5 81.5 M193.5 81.5 C258.85 -0.53, 259.39 -1.12, 322.5 81.5 M193.5 81.5 C258.99 1.2, 256.62 0.09, 322.5 81.5" stroke="#1e1e1e" stroke-width="2" fill="none"></path></g><g transform="translate(289.81143815130235 1105.8723517513681) rotate(0 119.78994750976562 157.5)"><text x="119.78994750976562" y="0" font-family="Virgil, Segoe UI Emoji" font-size="36px" fill="#1e1e1e" text-anchor="middle" style="white-space: pre;" direction="ltr" dominant-baseline="text-before-edge">submit proof </text><text x="119.78994750976562" y="45" font-family="Virgil, Segoe UI Emoji" font-size="36px" fill="#1e1e1e" text-anchor="middle" style="white-space: pre;" direction="ltr" dominant-baseline="text-before-edge">on chain for </text><text x="119.78994750976562" y="90" font-family="Virgil, Segoe UI Emoji" font-size="36px" fill="#1e1e1e" text-anchor="middle" style="white-space: pre;" direction="ltr" dominant-baseline="text-before-edge">verification </text><text x="119.78994750976562" y="135" font-family="Virgil, Segoe UI Emoji" font-size="36px" fill="#1e1e1e" text-anchor="middle" style="white-space: pre;" direction="ltr" dominant-baseline="text-before-edge">along with </text><text x="119.78994750976562" y="180" font-family="Virgil, Segoe UI Emoji" font-size="36px" fill="#1e1e1e" text-anchor="middle" style="white-space: pre;" direction="ltr" dominant-baseline="text-before-edge">the </text><text x="119.78994750976562" y="225" font-family="Virgil, Segoe UI Emoji" font-size="36px" fill="#1e1e1e" text-anchor="middle" style="white-space: pre;" direction="ltr" dominant-baseline="text-before-edge">tallyCommitme</text><text x="119.78994750976562" y="270" font-family="Virgil, Segoe UI Emoji" font-size="36px" fill="#1e1e1e" text-anchor="middle" style="white-space: pre;" direction="ltr" dominant-baseline="text-before-edge">nt</text></g><g stroke-linecap="round"><g transform="translate(1499.4498385471727 1271.9843975690865) rotate(0 -70.95610732250918 0.49195441272649987)"><path d="M0.35 -0.14 C-23.39 0.04, -119.02 -0.16, -142.83 -0.16 M-0.93 -1.25 C-24.27 -0.87, -116.82 0.47, -140.6 0.78" stroke="#1e1e1e" stroke-width="2" fill="none"></path></g><g transform="translate(1499.4498385471727 1271.9843975690865) rotate(0 -70.95610732250918 0.49195441272649987)"><path d="M-112.56 -9.87 C-120.44 -8.46, -129.66 -5.11, -140.6 0.78 M-112.56 -9.87 C-119.27 -8.39, -123.73 -5.01, -140.6 0.78" stroke="#1e1e1e" stroke-width="2" fill="none"></path></g><g transform="translate(1499.4498385471727 1271.9843975690865) rotate(0 -70.95610732250918 0.49195441272649987)"><path d="M-112.27 10.65 C-120.02 6.54, -129.32 4.37, -140.6 0.78 M-112.27 10.65 C-118.91 7.84, -123.42 6.92, -140.6 0.78" stroke="#1e1e1e" stroke-width="2" fill="none"></path></g></g><mask></mask><g stroke-linecap="round"><g transform="translate(788.4895513835186 1271.562042900683) rotate(0 -59.759620709967976 -0.01901409038282509)"><path d="M0.68 -0.97 C-19.27 -0.99, -100.2 -1.32, -120.09 -1.09 M-0.43 1.13 C-20.54 1.32, -101.58 0.37, -121.33 -0.11" stroke="#1e1e1e" stroke-width="2" fill="none"></path></g><g transform="translate(788.4895513835186 1271.562042900683) rotate(0 -59.759620709967976 -0.01901409038282509)"><path d="M-92.98 -9.9 C-102.18 -8.1, -109.81 -3.11, -121.33 -0.11 M-92.98 -9.9 C-102.12 -6.49, -112.63 -3.27, -121.33 -0.11" stroke="#1e1e1e" stroke-width="2" fill="none"></path></g><g transform="translate(788.4895513835186 1271.562042900683) rotate(0 -59.759620709967976 -0.01901409038282509)"><path d="M-93.32 10.62 C-102.26 7, -109.79 6.55, -121.33 -0.11 M-93.32 10.62 C-102.37 7.17, -112.77 3.52, -121.33 -0.11" stroke="#1e1e1e" stroke-width="2" fill="none"></path></g></g><mask></mask></svg>