<svg version="1.1" xmlns="http://www.w3.org/2000/svg" viewBox="0 0 2025.1000061521704 1513.6276378637117" width="6075.300018456512" height="4540.882913591135">
  <!-- svg-source:excalidraw -->
  
  <defs>
    <style class="style-fonts">
      @font-face {
        font-family: "Virgil";
        src: url("https://excalidraw.com/Virgil.woff2");
      }
      @font-face {
        font-family: "Cascadia";
        src: url("https://excalidraw.com/Cascadia.woff2");
      }
      @font-face {
        font-family: "Assistant";
        src: url("https://excalidraw.com/Assistant-Regular.woff2");
      }
    </style>
    
  </defs>
  <rect x="0" y="0" width="2025.1000061521704" height="1513.6276378637117" fill="#ffffff"></rect><g stroke-linecap="round" transform="translate(759.3826065547128 732.9136055212538) rotate(0 129.27623258310314 33.800522136203085)"><path d="M16.9 0 C93.02 2.08, 166.33 2.21, 241.65 0 M16.9 0 C86.1 0.69, 154.76 0.63, 241.65 0 M241.65 0 C252.48 1.24, 259.36 5.2, 258.55 16.9 M241.65 0 C255.15 1.6, 260.48 7.57, 258.55 16.9 M258.55 16.9 C259.63 24, 259.36 31.03, 258.55 50.7 M258.55 16.9 C259.16 27.84, 258.24 37.69, 258.55 50.7 M258.55 50.7 C256.87 62, 253.74 66.73, 241.65 67.6 M258.55 50.7 C259.27 63.41, 253.11 69.61, 241.65 67.6 M241.65 67.6 C189.77 70.38, 139.3 68.38, 16.9 67.6 M241.65 67.6 C183.63 69.68, 125.93 68.85, 16.9 67.6 M16.9 67.6 C7.33 69.05, 1.56 63.64, 0 50.7 M16.9 67.6 C4.6 69.31, 1.07 61.03, 0 50.7 M0 50.7 C-0.06 37.37, 1.09 24.35, 0 16.9 M0 50.7 C-0.89 40.53, -0.72 27.51, 0 16.9 M0 16.9 C-0.93 7.3, 4.9 1.8, 16.9 0 M0 16.9 C-0.75 7.16, 6.2 -2.25, 16.9 0" stroke="#1971c2" stroke-width="1" fill="none"></path></g><g transform="translate(804.2889279439678 754.214127657457) rotate(0 84.36991119384766 12.5)"><text x="84.36991119384766" y="0" font-family="Virgil, Segoe UI Emoji" font-size="20px" fill="#e03131" text-anchor="middle" style="white-space: pre;" direction="ltr" dominant-baseline="text-before-edge">ProcessMessages</text></g><g stroke-linecap="round" transform="translate(288.6522364620041 550.0063025285351) rotate(0 126.4982138566952 32.177416550875876)"><path d="M16.09 0 C87.37 -0.71, 157.63 0.37, 236.91 0 M16.09 0 C76.09 1.19, 136.83 0.47, 236.91 0 M236.91 0 C249.57 1.39, 254.67 7.05, 253 16.09 M236.91 0 C245.49 0.33, 253.83 6.54, 253 16.09 M253 16.09 C253.54 25.79, 251.24 37.02, 253 48.27 M253 16.09 C252.06 26.03, 253.31 35.51, 253 48.27 M253 48.27 C253.62 60.25, 247.8 66.1, 236.91 64.35 M253 48.27 C251.34 59.6, 249.42 63.43, 236.91 64.35 M236.91 64.35 C153.53 63.39, 72.87 62.79, 16.09 64.35 M236.91 64.35 C152.8 64.75, 67.88 64.85, 16.09 64.35 M16.09 64.35 C4.47 65.84, 0.93 58.18, 0 48.27 M16.09 64.35 C7.22 63.59, -0.37 58.79, 0 48.27 M0 48.27 C0.41 40.56, -1.25 29.1, 0 16.09 M0 48.27 C-0.3 36.43, -0.2 23.82, 0 16.09 M0 16.09 C-0.65 6.69, 5.85 -1.95, 16.09 0 M0 16.09 C1.34 5.04, 4.35 1.31, 16.09 0" stroke="#1971c2" stroke-width="1" fill="none"></path></g><g transform="translate(303.30056628549664 569.6837190794109) rotate(0 111.84988403320312 12.5)"><text x="111.84988403320312" y="0" font-family="Virgil, Segoe UI Emoji" font-size="20px" fill="#1971c2" text-anchor="middle" style="white-space: pre;" direction="ltr" dominant-baseline="text-before-edge">inputHash (public input)</text></g><g stroke-linecap="round"><g transform="translate(835.461774485243 638.2574325031886) rotate(0 3.6861204519241255 34.44869999829109)"><path d="M0.65 -0.33 C1.99 11.18, 6.84 56.82, 7.92 68.49 M-0.47 -1.55 C0.77 10.18, 6.15 58.27, 7.26 69.81" stroke="#1e1e1e" stroke-width="1" fill="none"></path></g><g transform="translate(835.461774485243 638.2574325031886) rotate(0 3.6861204519241255 34.44869999829109)"><path d="M-5.9 42.85 C-2.73 51.57, 0.97 58.08, 7.26 69.81 M-5.9 42.85 C-0.05 53.34, 4.58 63.24, 7.26 69.81" stroke="#1e1e1e" stroke-width="1" fill="none"></path></g><g transform="translate(835.461774485243 638.2574325031886) rotate(0 3.6861204519241255 34.44869999829109)"><path d="M14.51 40.7 C11.71 50.15, 9.45 57.3, 7.26 69.81 M14.51 40.7 C12.97 51.92, 10.22 62.61, 7.26 69.81" stroke="#1e1e1e" stroke-width="1" fill="none"></path></g></g><mask></mask><g transform="translate(909.1410618441678 679.2627309399676) rotate(0 31.809967041015625 12.5)"><text x="0" y="0" font-family="Virgil, Segoe UI Emoji" font-size="20px" fill="#1e1e1e" text-anchor="start" style="white-space: pre;" direction="ltr" dominant-baseline="text-before-edge">Inputs</text></g><g stroke-linecap="round" transform="translate(567.8174457380137 552.4463389419576) rotate(0 110.05757116156974 32.17741655087593)"><path d="M16.09 0 C88.51 2.48, 161.4 1.87, 204.03 0 M16.09 0 C79.5 -1.34, 143.68 -0.31, 204.03 0 M204.03 0 C214.17 -1.84, 218.43 5.4, 220.12 16.09 M204.03 0 C215.7 -1, 220.84 6.81, 220.12 16.09 M220.12 16.09 C220.92 27.56, 219.59 37.4, 220.12 48.27 M220.12 16.09 C219.89 26.5, 219.54 36.34, 220.12 48.27 M220.12 48.27 C219.14 58.75, 216.45 65.8, 204.03 64.35 M220.12 48.27 C221.9 60.91, 213.72 66.07, 204.03 64.35 M204.03 64.35 C138.26 65.55, 73.65 65.4, 16.09 64.35 M204.03 64.35 C139.04 64.34, 72.17 65.83, 16.09 64.35 M16.09 64.35 C4.34 62.39, -0.93 60.66, 0 48.27 M16.09 64.35 C4.51 66.42, -0.75 60.52, 0 48.27 M0 48.27 C0.03 36.94, 1.45 26.64, 0 16.09 M0 48.27 C-0.26 39.68, 0.34 32.39, 0 16.09 M0 16.09 C0.3 5.3, 5.84 1.91, 16.09 0 M0 16.09 C-0.17 6.79, 5.29 -0.94, 16.09 0" stroke="#1971c2" stroke-width="1" fill="none"></path></g><g transform="translate(625.3250596241933 572.1237554928335) rotate(0 52.549957275390625 12.5)"><text x="52.549957275390625" y="0" font-family="Virgil, Segoe UI Emoji" font-size="20px" fill="#1971c2" text-anchor="middle" style="white-space: pre;" direction="ltr" dominant-baseline="text-before-edge">packedVals</text></g><g stroke-linecap="round" transform="translate(820.1080926874911 552.4075170328039) rotate(0 110.05757116156974 32.17741655087593)"><path d="M16.09 0 C80 0.06, 142.83 -0.24, 204.03 0 M16.09 0 C54.52 -1.08, 92.69 -0.14, 204.03 0 M204.03 0 C215.57 -0.87, 220.74 6.62, 220.12 16.09 M204.03 0 C214.94 2.01, 218.45 5.97, 220.12 16.09 M220.12 16.09 C220.02 27.4, 219.12 40.23, 220.12 48.27 M220.12 16.09 C219.49 27.88, 220.83 40.64, 220.12 48.27 M220.12 48.27 C221.67 60.66, 213.86 65.84, 204.03 64.35 M220.12 48.27 C221.18 58.06, 216.61 63.59, 204.03 64.35 M204.03 64.35 C151.63 63.3, 97.85 65.11, 16.09 64.35 M204.03 64.35 C157.44 65.14, 111.41 66.95, 16.09 64.35 M16.09 64.35 C4.63 66.15, -0.65 60.32, 0 48.27 M16.09 64.35 C5.93 62.11, 1.34 58.67, 0 48.27 M0 48.27 C-1.01 39.67, 1.7 31.17, 0 16.09 M0 48.27 C0.06 39.4, 0.15 31.55, 0 16.09 M0 16.09 C-0.14 6.6, 5.3 -0.82, 16.09 0 M0 16.09 C1.03 4.91, 4.86 -2.26, 16.09 0" stroke="#1971c2" stroke-width="1" fill="none"></path></g><g transform="translate(846.2957450258182 572.0849335836798) rotate(0 83.86991882324219 12.5)"><text x="83.86991882324219" y="0" font-family="Virgil, Segoe UI Emoji" font-size="20px" fill="#1971c2" text-anchor="middle" style="white-space: pre;" direction="ltr" dominant-baseline="text-before-edge">pollEndTimestamp</text></g><g stroke-linecap="round" transform="translate(1064.6796500336968 553.1063113975594) rotate(0 110.05757116156974 32.17741655087593)"><path d="M16.09 0 C72.14 1.39, 132.12 -0.46, 204.03 0 M16.09 0 C55.61 -0.47, 94.62 0.59, 204.03 0 M204.03 0 C214.91 1.74, 218.67 5.89, 220.12 16.09 M204.03 0 C216.54 -0.93, 221.82 5.4, 220.12 16.09 M220.12 16.09 C221.38 23.51, 221.66 31.7, 220.12 48.27 M220.12 16.09 C221.17 26.19, 219.94 35.36, 220.12 48.27 M220.12 48.27 C221.04 58.18, 216.36 63.69, 204.03 64.35 M220.12 48.27 C219.75 58.79, 214.21 65.48, 204.03 64.35 M204.03 64.35 C152.36 64.11, 104.77 64.45, 16.09 64.35 M204.03 64.35 C165.7 66.82, 127.79 66.58, 16.09 64.35 M16.09 64.35 C5.85 62.4, 1.17 58.71, 0 48.27 M16.09 64.35 C4.35 65.66, -0.85 58.04, 0 48.27 M0 48.27 C-0.81 39.77, 1.25 30.42, 0 16.09 M0 48.27 C-0.15 39.34, -0.11 28.76, 0 16.09 M0 16.09 C0.9 4.97, 4.93 -1.97, 16.09 0 M0 16.09 C1.5 6.18, 3.08 1.88, 16.09 0" stroke="#1971c2" stroke-width="1" fill="none"></path></g><g transform="translate(1134.4572605629428 572.7837279484353) rotate(0 40.27996063232422 12.5)"><text x="40.27996063232422" y="0" font-family="Virgil, Segoe UI Emoji" font-size="20px" fill="#1971c2" text-anchor="middle" style="white-space: pre;" direction="ltr" dominant-baseline="text-before-edge">msgRoot</text></g><g stroke-linecap="round"><g transform="translate(1070.9942515139264 762.7321947928157) rotate(0 108.38376029738583 0.46191284466056004)"><path d="M0.1 1.05 C36.02 1.13, 179.63 1.34, 215.9 1.24 M-1.31 0.55 C34.95 0.19, 181.7 -0.87, 218.16 -0.71" stroke="#1e1e1e" stroke-width="1" fill="none"></path></g><g transform="translate(1070.9942515139264 762.7321947928157) rotate(0 108.38376029738583 0.46191284466056004)"><path d="M189.99 9.61 C201 4.72, 209.12 4.3, 218.16 -0.71 M189.99 9.61 C196.8 6.49, 204.45 4.95, 218.16 -0.71" stroke="#1e1e1e" stroke-width="1" fill="none"></path></g><g transform="translate(1070.9942515139264 762.7321947928157) rotate(0 108.38376029738583 0.46191284466056004)"><path d="M189.94 -10.91 C201.1 -9, 209.23 -2.62, 218.16 -0.71 M189.94 -10.91 C196.92 -8.7, 204.58 -4.92, 218.16 -0.71" stroke="#1e1e1e" stroke-width="1" fill="none"></path></g></g><mask></mask><g transform="translate(1112.0315610816642 713.5661032027737) rotate(0 49.669944763183594 12.5)"><text x="0" y="0" font-family="Virgil, Segoe UI Emoji" font-size="20px" fill="#1e1e1e" text-anchor="start" style="white-space: pre;" direction="ltr" dominant-baseline="text-before-edge">Processing</text></g><g stroke-linecap="round" transform="translate(1337.986577985137 48.86025394450098) rotate(0 110.05757116156974 32.177416550875876)"><path d="M16.09 0 C58.09 0.02, 101.73 -2.31, 204.03 0 M16.09 0 C63.86 -0.48, 112.02 -1.44, 204.03 0 M204.03 0 C216.45 1.45, 221.67 7.03, 220.12 16.09 M204.03 0 C213.72 1.71, 221.18 4.43, 220.12 16.09 M220.12 16.09 C219.83 27.87, 220.99 39.96, 220.12 48.27 M220.12 16.09 C219.62 27.6, 219.79 36.25, 220.12 48.27 M220.12 48.27 C219.18 60.66, 214.01 66.15, 204.03 64.35 M220.12 48.27 C219.37 60.52, 215.32 62.11, 204.03 64.35 M204.03 64.35 C137.79 62.78, 68.47 63.16, 16.09 64.35 M204.03 64.35 C130.29 64.66, 56.12 63.85, 16.09 64.35 M16.09 64.35 C5.84 66.27, -0.14 60.23, 0 48.27 M16.09 64.35 C5.29 63.41, 1.03 58.54, 0 48.27 M0 48.27 C1.02 37.33, 1.96 30.36, 0 16.09 M0 48.27 C-0.86 36.48, -0.26 23.56, 0 16.09 M0 16.09 C1.02 6.55, 6.58 -0.46, 16.09 0 M0 16.09 C0.4 6.9, 5.42 1.24, 16.09 0" stroke="#1971c2" stroke-width="1" fill="none"></path></g><g transform="translate(1347.1942498547141 56.037670495376915) rotate(0 100.84989929199219 25)"><text x="100.84989929199219" y="0" font-family="Virgil, Segoe UI Emoji" font-size="20px" fill="#1971c2" text-anchor="middle" style="white-space: pre;" direction="ltr" dominant-baseline="text-before-edge">1. Verify </text><text x="100.84989929199219" y="25" font-family="Virgil, Segoe UI Emoji" font-size="20px" fill="#1971c2" text-anchor="middle" style="white-space: pre;" direction="ltr" dominant-baseline="text-before-edge">currentSbCommitment</text></g><g stroke-linecap="round"><g transform="translate(1595.0296785581659 82.24365983948883) rotate(0 18.027494216514242 -0.1900694001952843)"><path d="M-0.24 0.46 C5.73 0.32, 29.66 -0.37, 35.79 -0.45 M0.64 0.23 C6.8 0.14, 30.92 0.4, 36.88 0.22" stroke="#1e1e1e" stroke-width="1" fill="none"></path></g><g transform="translate(1595.0296785581659 82.24365983948883) rotate(0 18.027494216514242 -0.1900694001952843)"><path d="M19.98 6.5 C25.64 4.27, 29.7 3.65, 36.88 0.22 M19.98 6.5 C26.05 4.43, 32.76 1.57, 36.88 0.22" stroke="#1e1e1e" stroke-width="1" fill="none"></path></g><g transform="translate(1595.0296785581659 82.24365983948883) rotate(0 18.027494216514242 -0.1900694001952843)"><path d="M19.9 -5.83 C25.63 -4.47, 29.7 -1.5, 36.88 0.22 M19.9 -5.83 C26.05 -3.31, 32.78 -1.58, 36.88 0.22" stroke="#1e1e1e" stroke-width="1" fill="none"></path></g></g><mask></mask><g stroke-linecap="round" transform="translate(1344.9949114879764 148.1561966783388) rotate(0 110.05757116156974 42.5)"><path d="M21.25 0 C66.58 2.57, 113.84 2.42, 198.87 0 M21.25 0 C89.83 -1.73, 158.29 -1.66, 198.87 0 M198.87 0 C212.71 -0.17, 219.65 8.06, 220.12 21.25 M198.87 0 C212.32 0.66, 221.49 5.82, 220.12 21.25 M220.12 21.25 C218.55 30.16, 222.18 40.2, 220.12 63.75 M220.12 21.25 C220.22 36.84, 220.56 54.24, 220.12 63.75 M220.12 63.75 C219.23 79.05, 212.29 84.18, 198.87 85 M220.12 63.75 C219.7 80.08, 212.31 84.42, 198.87 85 M198.87 85 C140.43 85.74, 84.04 85.12, 21.25 85 M198.87 85 C135.04 84.07, 70.1 83.29, 21.25 85 M21.25 85 C8.39 85.71, -1.99 79.56, 0 63.75 M21.25 85 C7.08 86.94, 2.25 79.78, 0 63.75 M0 63.75 C-0.18 54.34, 0.94 44.1, 0 21.25 M0 63.75 C-0.05 52.52, -0.12 40.51, 0 21.25 M0 21.25 C-0.59 5.27, 8.88 -0.49, 21.25 0 M0 21.25 C0.14 5.73, 8.35 2.26, 21.25 0" stroke="#1971c2" stroke-width="1" fill="none"></path></g><g transform="translate(1357.842567488413 153.1561966783388) rotate(0 97.20991516113281 37.5)"><text x="97.20991516113281" y="0" font-family="Virgil, Segoe UI Emoji" font-size="20px" fill="#1971c2" text-anchor="middle" style="white-space: pre;" direction="ltr" dominant-baseline="text-before-edge">2. Verify inputHash </text><text x="97.20991516113281" y="25" font-family="Virgil, Segoe UI Emoji" font-size="20px" fill="#1971c2" text-anchor="middle" style="white-space: pre;" direction="ltr" dominant-baseline="text-before-edge">and assign packed </text><text x="97.20991516113281" y="50" font-family="Virgil, Segoe UI Emoji" font-size="20px" fill="#1971c2" text-anchor="middle" style="white-space: pre;" direction="ltr" dominant-baseline="text-before-edge">values</text></g><g stroke-linecap="round"><g transform="translate(1593.2140290543352 194.2077251351866) rotate(0 20.20116336662136 -0.11253888353070352)"><path d="M0.26 -0.22 C7.1 -0.36, 34.17 -0.4, 40.85 -0.41 M-0.28 -0.81 C6.56 -0.91, 33.94 0.01, 40.64 0.2" stroke="#1e1e1e" stroke-width="1" fill="none"></path></g><g transform="translate(1593.2140290543352 194.2077251351866) rotate(0 20.20116336662136 -0.11253888353070352)"><path d="M21.46 6.53 C25.92 5.67, 30.89 3.09, 40.64 0.2 M21.46 6.53 C26.9 4.78, 32.94 2.52, 40.64 0.2" stroke="#1e1e1e" stroke-width="1" fill="none"></path></g><g transform="translate(1593.2140290543352 194.2077251351866) rotate(0 20.20116336662136 -0.11253888353070352)"><path d="M21.88 -7.28 C26.29 -4.61, 31.15 -3.67, 40.64 0.2 M21.88 -7.28 C27.18 -5.01, 33.1 -3.25, 40.64 0.2" stroke="#1e1e1e" stroke-width="1" fill="none"></path></g></g><mask></mask><g stroke-linecap="round" transform="translate(368.41112470117787 726.1376622118727) rotate(0 110.05757116156974 32.17741655087593)"><path d="M16.09 0 C58.47 1.38, 99.62 0.66, 204.03 0 M16.09 0 C64.87 -0.35, 112.61 0.17, 204.03 0 M204.03 0 C212.84 -1.37, 220.62 4.48, 220.12 16.09 M204.03 0 C214.55 -1.2, 222.03 6.2, 220.12 16.09 M220.12 16.09 C219.85 21.69, 218.94 30.39, 220.12 48.27 M220.12 16.09 C219.57 25.92, 220.27 33.38, 220.12 48.27 M220.12 48.27 C221.71 59.25, 213.55 64.01, 204.03 64.35 M220.12 48.27 C221.5 58.85, 217 65.61, 204.03 64.35 M204.03 64.35 C145.7 65.04, 86.42 64.16, 16.09 64.35 M204.03 64.35 C139.66 62.32, 75.42 62.1, 16.09 64.35 M16.09 64.35 C3.45 64.19, 1.55 58.38, 0 48.27 M16.09 64.35 C7 65.93, 0.94 59.07, 0 48.27 M0 48.27 C-0.86 41.71, -0.49 33.15, 0 16.09 M0 48.27 C-1 38.35, 0.91 25.79, 0 16.09 M0 16.09 C0.62 7.29, 3.38 1.02, 16.09 0 M0 16.09 C-1.4 5.85, 5.84 -1, 16.09 0" stroke="#f08c00" stroke-width="1" fill="none"></path></g><g transform="translate(397.52877734468166 745.8150787627486) rotate(0 80.9399185180664 12.5)"><text x="80.9399185180664" y="0" font-family="Virgil, Segoe UI Emoji" font-size="20px" fill="#f08c00" text-anchor="middle" style="white-space: pre;" direction="ltr" dominant-baseline="text-before-edge">stateTreeDepth</text></g><g stroke-linecap="round"><g transform="translate(627.9444685993385 822.5701009922601) rotate(0 24.285934174556132 0.3162331742965989)"><path d="M-0.24 -0.25 C7.94 -0.07, 40.8 0.51, 49.02 0.63 M0.64 0.81 C8.79 1.12, 40.76 1.3, 48.82 1.32" stroke="#1e1e1e" stroke-width="1" fill="none"></path></g><g transform="translate(627.9444685993385 822.5701009922601) rotate(0 24.285934174556132 0.3162331742965989)"><path d="M25.96 9.52 C32.24 7.98, 39.39 5.74, 48.82 1.32 M25.96 9.52 C31.46 7, 38.07 4.97, 48.82 1.32" stroke="#1e1e1e" stroke-width="1" fill="none"></path></g><g transform="translate(627.9444685993385 822.5701009922601) rotate(0 24.285934174556132 0.3162331742965989)"><path d="M26.04 -7.1 C32.23 -3.76, 39.36 -1.13, 48.82 1.32 M26.04 -7.1 C31.59 -5.24, 38.19 -2.91, 48.82 1.32" stroke="#1e1e1e" stroke-width="1" fill="none"></path></g></g><mask></mask><g stroke-linecap="round" transform="translate(378.85820969540964 917.5277889462365) rotate(0 110.05757116156974 32.17741655087593)"><path d="M16.09 0 C53.94 1.86, 94.93 1.32, 204.03 0 M16.09 0 C59.94 -0.55, 105.26 0.71, 204.03 0 M204.03 0 C214.17 -0.39, 219.18 6.42, 220.12 16.09 M204.03 0 C215.21 2.11, 222.33 5.06, 220.12 16.09 M220.12 16.09 C220.84 28.22, 218.57 36.53, 220.12 48.27 M220.12 16.09 C221.27 25.41, 220.1 35.36, 220.12 48.27 M220.12 48.27 C221.66 57.03, 212.88 64.98, 204.03 64.35 M220.12 48.27 C222.15 60.79, 214.62 63.39, 204.03 64.35 M204.03 64.35 C128.06 64.01, 55.33 63.94, 16.09 64.35 M204.03 64.35 C166.4 65.45, 128.48 64.07, 16.09 64.35 M16.09 64.35 C6.19 66.21, -1.35 60.95, 0 48.27 M16.09 64.35 C4.74 65.91, -2.17 60.47, 0 48.27 M0 48.27 C1.7 35.44, -1.13 23.95, 0 16.09 M0 48.27 C-0.28 38.27, -0.75 29.2, 0 16.09 M0 16.09 C-0.58 4.46, 7.09 -1.7, 16.09 0 M0 16.09 C-0.37 5.9, 5.52 -2.02, 16.09 0" stroke="#f08c00" stroke-width="1" fill="none"></path></g><g transform="translate(413.80584891117905 937.2052054971124) rotate(0 75.10993194580078 12.5)"><text x="75.10993194580078" y="0" font-family="Virgil, Segoe UI Emoji" font-size="20px" fill="#f08c00" text-anchor="middle" style="white-space: pre;" direction="ltr" dominant-baseline="text-before-edge">msgBatchDepth</text></g><g stroke-linecap="round" transform="translate(371.89973627392555 1008.0415697848158) rotate(0 110.05757116156974 32.17741655087593)"><path d="M16.09 0 C57.91 -1.56, 100.21 0.56, 204.03 0 M16.09 0 C62.93 0.65, 111.97 0.38, 204.03 0 M204.03 0 C216.73 1.13, 218.84 4.62, 220.12 16.09 M204.03 0 C214.49 -1.61, 220.63 6.9, 220.12 16.09 M220.12 16.09 C220.4 25.21, 219.02 38.5, 220.12 48.27 M220.12 16.09 C220.3 29.34, 219.27 40.68, 220.12 48.27 M220.12 48.27 C220.58 57.79, 212.81 65.6, 204.03 64.35 M220.12 48.27 C219.42 57.07, 213.18 63.78, 204.03 64.35 M204.03 64.35 C147 65.69, 92.52 64.28, 16.09 64.35 M204.03 64.35 C139.12 66.21, 76.21 65.34, 16.09 64.35 M16.09 64.35 C3.52 65.84, -1.15 58.72, 0 48.27 M16.09 64.35 C5.48 62.89, -0.79 60.98, 0 48.27 M0 48.27 C-1.41 40.93, -0.42 32.25, 0 16.09 M0 48.27 C0.45 39.34, 0.62 31.26, 0 16.09 M0 16.09 C-1.06 4.6, 3.41 -0.91, 16.09 0 M0 16.09 C-1.53 6.1, 5.29 1.79, 16.09 0" stroke="#f08c00" stroke-width="1" fill="none"></path></g><g transform="translate(377.7574172987761 1027.7189863356916) rotate(0 104.19989013671875 12.5)"><text x="104.19989013671875" y="0" font-family="Virgil, Segoe UI Emoji" font-size="20px" fill="#f08c00" text-anchor="middle" style="white-space: pre;" direction="ltr" dominant-baseline="text-before-edge">voteOptionTreeDepth</text></g><g transform="translate(609.8125422494304 869.428490212471) rotate(0 56.89994812011719 12.5)"><text x="0" y="0" font-family="Virgil, Segoe UI Emoji" font-size="20px" fill="#1e1e1e" text-anchor="start" style="white-space: pre;" direction="ltr" dominant-baseline="text-before-edge">Parameters</text></g><g stroke-linecap="round" transform="translate(107.54052428443993 731.1450446329385) rotate(0 110.05757116156974 32.17741655087593)"><path d="M16.09 0 C84.02 0.69, 154.21 0.12, 204.03 0 M16.09 0 C85.9 0.65, 156.76 1.42, 204.03 0 M204.03 0 C215.68 1.37, 221.13 7.26, 220.12 16.09 M204.03 0 C214.25 -0.96, 218.2 3.08, 220.12 16.09 M220.12 16.09 C218.92 28.52, 221.71 40.08, 220.12 48.27 M220.12 16.09 C219.45 28.65, 220.05 39.84, 220.12 48.27 M220.12 48.27 C221.02 57.01, 213.26 64.61, 204.03 64.35 M220.12 48.27 C220.34 60.64, 215.61 65.27, 204.03 64.35 M204.03 64.35 C135.24 64.1, 64.29 65.16, 16.09 64.35 M204.03 64.35 C166.35 65.19, 128.18 65.61, 16.09 64.35 M16.09 64.35 C3.93 63.52, -0.43 60.71, 0 48.27 M16.09 64.35 C3.29 64.3, 0.94 61.25, 0 48.27 M0 48.27 C-0.11 34.29, -1.98 24.63, 0 16.09 M0 48.27 C0.86 42.39, 0.44 33.65, 0 16.09 M0 16.09 C1.09 5.12, 6.8 1.31, 16.09 0 M0 16.09 C-1.07 3.83, 5.91 1.35, 16.09 0" stroke="#1971c2" stroke-width="1" fill="none"></path></g><g transform="translate(123.56818059005309 738.3224611838144) rotate(0 94.02991485595703 25)"><text x="94.02991485595703" y="0" font-family="Virgil, Segoe UI Emoji" font-size="20px" fill="#1971c2" text-anchor="middle" style="white-space: pre;" direction="ltr" dominant-baseline="text-before-edge">depth of the tree </text><text x="94.02991485595703" y="25" font-family="Virgil, Segoe UI Emoji" font-size="20px" fill="#1971c2" text-anchor="middle" style="white-space: pre;" direction="ltr" dominant-baseline="text-before-edge">holding signups</text></g><g stroke-linecap="round" transform="translate(10 910.9799896277849) rotate(0 177.02417679414475 42.5)"><path d="M21.25 0 C86.75 1.83, 153.65 2.23, 332.8 0 M21.25 0 C118.73 -0.7, 216.51 -1.4, 332.8 0 M332.8 0 C345.22 -0.59, 355.18 8.47, 354.05 21.25 M332.8 0 C348.11 2.18, 353.28 6.31, 354.05 21.25 M354.05 21.25 C351.83 38.43, 353.51 53.64, 354.05 63.75 M354.05 21.25 C354.09 34.86, 353.17 50.43, 354.05 63.75 M354.05 63.75 C352.6 76.85, 345.02 84.95, 332.8 85 M354.05 63.75 C353.37 78.16, 348.81 85.02, 332.8 85 M332.8 85 C246.77 85.76, 158.44 87.65, 21.25 85 M332.8 85 C223.6 83.25, 113.52 84, 21.25 85 M21.25 85 C6.3 86.43, 0.3 78.17, 0 63.75 M21.25 85 C8.85 85.1, 2.27 79.72, 0 63.75 M0 63.75 C-1.25 52.77, -1.74 46.4, 0 21.25 M0 63.75 C0.88 48.72, -0.54 35.08, 0 21.25 M0 21.25 C-0.22 8.3, 9.07 0.21, 21.25 0 M0 21.25 C-2.03 6.91, 7.32 1.77, 21.25 0" stroke="#1971c2" stroke-width="1" fill="none"></path></g><g transform="translate(17.674323278520205 915.9799896277849) rotate(0 169.349853515625 37.5)"><text x="169.349853515625" y="0" font-family="Virgil, Segoe UI Emoji" font-size="20px" fill="#1971c2" text-anchor="middle" style="white-space: pre;" direction="ltr" dominant-baseline="text-before-edge">depth of the shortest tree that </text><text x="169.349853515625" y="25" font-family="Virgil, Segoe UI Emoji" font-size="20px" fill="#1971c2" text-anchor="middle" style="white-space: pre;" direction="ltr" dominant-baseline="text-before-edge">can fit all the messages in a </text><text x="169.349853515625" y="50" font-family="Virgil, Segoe UI Emoji" font-size="20px" fill="#1971c2" text-anchor="middle" style="white-space: pre;" direction="ltr" dominant-baseline="text-before-edge">batch</text></g><g stroke-linecap="round" transform="translate(108.64623532511996 1018.7544515736012) rotate(0 110.05757116156974 32.17741655087593)"><path d="M16.09 0 C82.03 2.88, 147.68 1.02, 204.03 0 M16.09 0 C89.72 0.36, 162.11 -0.93, 204.03 0 M204.03 0 C214.54 -0.44, 218.89 5.32, 220.12 16.09 M204.03 0 C213.78 -2.11, 218.32 3.36, 220.12 16.09 M220.12 16.09 C219.85 27.67, 221.46 34.16, 220.12 48.27 M220.12 16.09 C220.52 29.01, 220.38 40.92, 220.12 48.27 M220.12 48.27 C220.25 58.11, 216.69 62.9, 204.03 64.35 M220.12 48.27 C219.04 57.56, 215.1 66.26, 204.03 64.35 M204.03 64.35 C150.06 64.2, 96.1 64.36, 16.09 64.35 M204.03 64.35 C130.8 66, 57.6 66.2, 16.09 64.35 M16.09 64.35 C3.68 65.67, -1.38 58.19, 0 48.27 M16.09 64.35 C5.75 64.01, 2.26 57.96, 0 48.27 M0 48.27 C1.68 38.8, 0.65 25.14, 0 16.09 M0 48.27 C0.28 41.59, 0.8 34.3, 0 16.09 M0 16.09 C-1.53 7.15, 4.26 1.91, 16.09 0 M0 16.09 C-0.18 7.12, 7.58 2.16, 16.09 0" stroke="#1971c2" stroke-width="1" fill="none"></path></g><g transform="translate(124.67389163073312 1025.9318681244772) rotate(0 94.02991485595703 25)"><text x="94.02991485595703" y="0" font-family="Virgil, Segoe UI Emoji" font-size="20px" fill="#1971c2" text-anchor="middle" style="white-space: pre;" direction="ltr" dominant-baseline="text-before-edge">depth of the tree </text><text x="94.02991485595703" y="25" font-family="Virgil, Segoe UI Emoji" font-size="20px" fill="#1971c2" text-anchor="middle" style="white-space: pre;" direction="ltr" dominant-baseline="text-before-edge">holding votes</text></g><g stroke-linecap="round" transform="translate(374.8625398043914 819.4029609911748) rotate(0 110.05757116156974 32.17741655087593)"><path d="M16.09 0 C59.11 2.9, 104.06 2.4, 204.03 0 M16.09 0 C80.08 -1, 145.58 -0.51, 204.03 0 M204.03 0 C215.72 0.57, 220.03 4.93, 220.12 16.09 M204.03 0 C216.82 2.2, 221.55 4.24, 220.12 16.09 M220.12 16.09 C222.21 25.17, 218.63 36.73, 220.12 48.27 M220.12 16.09 C220.26 24.64, 221.16 33.56, 220.12 48.27 M220.12 48.27 C220.59 58.75, 213.98 64.12, 204.03 64.35 M220.12 48.27 C220.38 59.08, 216.53 64.61, 204.03 64.35 M204.03 64.35 C159.27 63.06, 109.65 64.61, 16.09 64.35 M204.03 64.35 C160.77 64.91, 118.72 65.12, 16.09 64.35 M16.09 64.35 C3.68 64.25, -0.09 57.71, 0 48.27 M16.09 64.35 C5.4 63.22, 0.94 61.07, 0 48.27 M0 48.27 C-0.88 38.47, 0.64 29.46, 0 16.09 M0 48.27 C1.17 39.62, 0.2 29.69, 0 16.09 M0 16.09 C0.83 4.55, 6.8 0.55, 16.09 0 M0 16.09 C0.83 5.22, 7.09 1.24, 16.09 0" stroke="#f08c00" stroke-width="1" fill="none"></path></g><g transform="translate(416.08018329262177 839.0803775420508) rotate(0 68.83992767333984 12.5)"><text x="68.83992767333984" y="0" font-family="Virgil, Segoe UI Emoji" font-size="20px" fill="#f08c00" text-anchor="middle" style="white-space: pre;" direction="ltr" dominant-baseline="text-before-edge">msgTreeDepth</text></g><g stroke-linecap="round" transform="translate(117.53583302960396 823.2393896248831) rotate(0 110.05757116156974 32.17741655087593)"><path d="M16.09 0 C68.91 0.98, 124.57 -1.59, 204.03 0 M16.09 0 C68.05 2, 120.66 2.55, 204.03 0 M204.03 0 C213.91 0.28, 218.31 4.62, 220.12 16.09 M204.03 0 C216.06 -2, 220.9 7.52, 220.12 16.09 M220.12 16.09 C220.64 23.46, 221.17 31.1, 220.12 48.27 M220.12 16.09 C220.81 29.16, 220.51 41.04, 220.12 48.27 M220.12 48.27 C218.76 58.03, 216.67 63.83, 204.03 64.35 M220.12 48.27 C222.14 58.17, 213.39 62.84, 204.03 64.35 M204.03 64.35 C139.9 66.46, 75.05 63.15, 16.09 64.35 M204.03 64.35 C143.64 63.04, 84.55 62.38, 16.09 64.35 M16.09 64.35 C3.8 65.11, -0.58 58.25, 0 48.27 M16.09 64.35 C5.5 63.43, 2.01 61.03, 0 48.27 M0 48.27 C-0.18 39.02, -0.43 34.92, 0 16.09 M0 48.27 C-0.69 39.68, -0.22 32.52, 0 16.09 M0 16.09 C-1.68 5.25, 5.52 -1.51, 16.09 0 M0 16.09 C-2.06 3.52, 4.08 -0.91, 16.09 0" stroke="#1971c2" stroke-width="1" fill="none"></path></g><g transform="translate(138.39348353687728 830.416806175759) rotate(0 89.19992065429688 25)"><text x="89.19992065429688" y="0" font-family="Virgil, Segoe UI Emoji" font-size="20px" fill="#1971c2" text-anchor="middle" style="white-space: pre;" direction="ltr" dominant-baseline="text-before-edge">the depth of the </text><text x="89.19992065429688" y="25" font-family="Virgil, Segoe UI Emoji" font-size="20px" fill="#1971c2" text-anchor="middle" style="white-space: pre;" direction="ltr" dominant-baseline="text-before-edge">message tree</text></g><g stroke-linecap="round" transform="translate(322.39954295005464 445.2250956016791) rotate(0 110.05757116156974 32.17741655087593)"><path d="M16.09 0 C82.27 -0.16, 145.94 2.09, 204.03 0 M16.09 0 C78.14 -1.57, 137.55 -1.33, 204.03 0 M204.03 0 C214.39 -0.46, 222.05 3.65, 220.12 16.09 M204.03 0 C213.19 0.67, 219.51 6.4, 220.12 16.09 M220.12 16.09 C219.36 26.16, 221.58 33.37, 220.12 48.27 M220.12 16.09 C220.76 23.24, 219.76 31.01, 220.12 48.27 M220.12 48.27 C219.68 60.57, 216.34 63.16, 204.03 64.35 M220.12 48.27 C219.39 61.17, 216.22 62.26, 204.03 64.35 M204.03 64.35 C153.9 67.29, 107.69 66.94, 16.09 64.35 M204.03 64.35 C134.46 62.62, 64.72 63.42, 16.09 64.35 M16.09 64.35 C5.87 63.21, -1.7 59.49, 0 48.27 M16.09 64.35 C7.54 62.93, -1.14 58.12, 0 48.27 M0 48.27 C0.23 38.8, 0.4 34.34, 0 16.09 M0 48.27 C0.05 41.09, -0.3 32.73, 0 16.09 M0 16.09 C-1.88 5.99, 3.48 1.27, 16.09 0 M0 16.09 C1.82 6.36, 5.56 0.76, 16.09 0" stroke="#1971c2" stroke-width="1" fill="none"></path></g><g transform="translate(387.2171620242225 464.902512152555) rotate(0 45.239952087402344 12.5)"><text x="45.239952087402344" y="0" font-family="Virgil, Segoe UI Emoji" font-size="20px" fill="#1971c2" text-anchor="middle" style="white-space: pre;" direction="ltr" dominant-baseline="text-before-edge">messages</text></g><g stroke-linecap="round" transform="translate(568.1136215506585 449.5504712032224) rotate(0 110.05757116156974 32.17741655087593)"><path d="M16.09 0 C60.31 -1.01, 104.17 0.81, 204.03 0 M16.09 0 C54.46 1.08, 94.17 0.46, 204.03 0 M204.03 0 C213.4 0.58, 219.59 6.26, 220.12 16.09 M204.03 0 C214.39 -1.35, 222.11 4.71, 220.12 16.09 M220.12 16.09 C219.06 28.99, 218.67 39.1, 220.12 48.27 M220.12 16.09 C219.69 25.33, 220.71 32.39, 220.12 48.27 M220.12 48.27 C219.48 60.89, 216.03 62.54, 204.03 64.35 M220.12 48.27 C219.14 59.28, 216.94 62.4, 204.03 64.35 M204.03 64.35 C138.33 63.84, 68.12 65.53, 16.09 64.35 M204.03 64.35 C151.19 64.95, 97 65.77, 16.09 64.35 M16.09 64.35 C7.26 63.12, -0.99 58.23, 0 48.27 M16.09 64.35 C3.81 65.36, 0.93 59.42, 0 48.27 M0 48.27 C-1.43 42.24, -1.21 35.56, 0 16.09 M0 48.27 C-0.86 37.94, -0.87 27.61, 0 16.09 M0 16.09 C1.59 6.23, 5.54 0.66, 16.09 0 M0 16.09 C0.83 4.58, 4.09 1.65, 16.09 0" stroke="#1971c2" stroke-width="1" fill="none"></path></g><g transform="translate(578.4912915891819 456.72788775409833) rotate(0 99.67990112304688 25)"><text x="99.67990112304688" y="0" font-family="Virgil, Segoe UI Emoji" font-size="20px" fill="#1971c2" text-anchor="middle" style="white-space: pre;" direction="ltr" dominant-baseline="text-before-edge">msgSubrootPathElem</text><text x="99.67990112304688" y="25" font-family="Virgil, Segoe UI Emoji" font-size="20px" fill="#1971c2" text-anchor="middle" style="white-space: pre;" direction="ltr" dominant-baseline="text-before-edge">ents</text></g><g stroke-linecap="round" transform="translate(820.4042685001359 449.51164929406866) rotate(0 110.05757116156974 32.17741655087593)"><path d="M16.09 0 C68.97 -3.54, 124.24 -1.92, 204.03 0 M16.09 0 C67.44 1.9, 119.88 2.06, 204.03 0 M204.03 0 C214.43 -1.17, 221.85 4.8, 220.12 16.09 M204.03 0 C215.82 1.91, 218.96 3.84, 220.12 16.09 M220.12 16.09 C219.09 27.3, 219.56 40.61, 220.12 48.27 M220.12 16.09 C220.05 29.23, 221.01 39.57, 220.12 48.27 M220.12 48.27 C219.27 59.24, 216.66 62.65, 204.03 64.35 M220.12 48.27 C221.43 59.58, 215.66 66, 204.03 64.35 M204.03 64.35 C159.15 65.29, 116.2 65.27, 16.09 64.35 M204.03 64.35 C159.31 64.21, 112.2 64.44, 16.09 64.35 M16.09 64.35 C4.02 65.23, 0.81 59.37, 0 48.27 M16.09 64.35 C3.09 64.97, 1.2 57.44, 0 48.27 M0 48.27 C0.8 37.44, -0.95 25.65, 0 16.09 M0 48.27 C1.1 38.03, 0.39 27.26, 0 16.09 M0 16.09 C0.72 4.69, 4.26 1.43, 16.09 0 M0 16.09 C0.93 7.42, 6.11 2.07, 16.09 0" stroke="#1971c2" stroke-width="1" fill="none"></path></g><g transform="translate(869.7519016123897 469.1890658449446) rotate(0 60.709938049316406 12.5)"><text x="60.709938049316406" y="0" font-family="Virgil, Segoe UI Emoji" font-size="20px" fill="#1971c2" text-anchor="middle" style="white-space: pre;" direction="ltr" dominant-baseline="text-before-edge">coordPrivKey</text></g><g stroke-linecap="round" transform="translate(1064.9758258463416 450.21044365882415) rotate(0 110.05757116156974 32.17741655087593)"><path d="M16.09 0 C53.37 2.27, 89.87 -1.01, 204.03 0 M16.09 0 C77.8 -1.43, 140.69 -1.13, 204.03 0 M204.03 0 C215.68 1.66, 219.11 4.04, 220.12 16.09 M204.03 0 C216.77 -1.97, 220.95 4.5, 220.12 16.09 M220.12 16.09 C221.65 25.29, 218.88 30.67, 220.12 48.27 M220.12 16.09 C219.9 28.92, 221.27 40.64, 220.12 48.27 M220.12 48.27 C221.26 59.5, 215.55 65.78, 204.03 64.35 M220.12 48.27 C218.66 57.08, 215.25 63.95, 204.03 64.35 M204.03 64.35 C141.51 63.13, 81.78 66.73, 16.09 64.35 M204.03 64.35 C158.6 64.08, 114.92 63.83, 16.09 64.35 M16.09 64.35 C3.39 64.89, 1.05 57.64, 0 48.27 M16.09 64.35 C5.88 63.07, 0.28 59.7, 0 48.27 M0 48.27 C0.81 37.47, 1.45 32.03, 0 16.09 M0 48.27 C0.33 36.87, -0.58 26.87, 0 16.09 M0 16.09 C0.81 7.15, 6.01 1.8, 16.09 0 M0 16.09 C-1.94 7.52, 6.51 2.05, 16.09 0" stroke="#1971c2" stroke-width="1" fill="none"></path></g><g transform="translate(1115.2834580430672 469.8878602097001) rotate(0 59.74993896484375 12.5)"><text x="59.74993896484375" y="0" font-family="Virgil, Segoe UI Emoji" font-size="20px" fill="#1971c2" text-anchor="middle" style="white-space: pre;" direction="ltr" dominant-baseline="text-before-edge">coordPubKey</text></g><g stroke-linecap="round" transform="translate(320.9905273427639 345.40536415168344) rotate(0 110.05757116156974 32.177416550875876)"><path d="M16.09 0 C70 0.14, 122.49 0.85, 204.03 0 M16.09 0 C82.16 0.67, 148.89 0.87, 204.03 0 M204.03 0 C216.36 0.66, 222.02 4.7, 220.12 16.09 M204.03 0 C214.07 -0.67, 222.03 6.8, 220.12 16.09 M220.12 16.09 C219.49 24.42, 220.79 30.04, 220.12 48.27 M220.12 16.09 C220.35 22.8, 219.36 32.02, 220.12 48.27 M220.12 48.27 C220.7 57.47, 214.77 65.79, 204.03 64.35 M220.12 48.27 C222.35 60.61, 212.57 62.17, 204.03 64.35 M204.03 64.35 C146.61 64.13, 87.05 66.01, 16.09 64.35 M204.03 64.35 C142.49 63.93, 78.54 63.78, 16.09 64.35 M16.09 64.35 C4.35 63.55, -0.43 59.13, 0 48.27 M16.09 64.35 C6.71 66.24, 0.37 59.21, 0 48.27 M0 48.27 C-1.15 41.42, -2.07 32.55, 0 16.09 M0 48.27 C-1.27 37.94, 0.61 26.97, 0 16.09 M0 16.09 C1.79 7.35, 6.82 1.76, 16.09 0 M0 16.09 C0.87 6.21, 7.28 1.75, 16.09 0" stroke="#1971c2" stroke-width="1" fill="none"></path></g><g transform="translate(376.79815191009584 365.0827807025594) rotate(0 54.24994659423828 12.5)"><text x="54.24994659423828" y="0" font-family="Virgil, Segoe UI Emoji" font-size="20px" fill="#1971c2" text-anchor="middle" style="white-space: pre;" direction="ltr" dominant-baseline="text-before-edge">encPubKeys</text></g><g stroke-linecap="round" transform="translate(566.7046059433678 349.73073975322677) rotate(0 110.05757116156974 32.177416550875876)"><path d="M16.09 0 C57.64 2.33, 95.71 -0.04, 204.03 0 M16.09 0 C62.45 1.03, 108.16 0.37, 204.03 0 M204.03 0 C214.16 -0.58, 221.78 6.61, 220.12 16.09 M204.03 0 C212.81 2.09, 218.59 4.31, 220.12 16.09 M220.12 16.09 C218.95 28.86, 221.62 40.06, 220.12 48.27 M220.12 16.09 C220.12 21.85, 219.84 29.86, 220.12 48.27 M220.12 48.27 C222.06 60.39, 212.85 62.46, 204.03 64.35 M220.12 48.27 C220.33 59, 216.43 65.17, 204.03 64.35 M204.03 64.35 C163.35 63.48, 121.39 66.56, 16.09 64.35 M204.03 64.35 C155.21 62.85, 107.19 63.32, 16.09 64.35 M16.09 64.35 C6.53 66, 0.32 59.18, 0 48.27 M16.09 64.35 C4.7 65.65, 0.36 57.88, 0 48.27 M0 48.27 C0.83 37.43, -0.85 20.95, 0 16.09 M0 48.27 C0.6 39.04, 0.44 28.71, 0 16.09 M0 16.09 C0.75 6.1, 7.03 1.53, 16.09 0 M0 16.09 C2.2 5.03, 5.94 0.29, 16.09 0" stroke="#1971c2" stroke-width="1" fill="none"></path></g><g transform="translate(588.6422582816958 369.4081563041027) rotate(0 88.11991882324219 12.5)"><text x="88.11991882324219" y="0" font-family="Virgil, Segoe UI Emoji" font-size="20px" fill="#1971c2" text-anchor="middle" style="white-space: pre;" direction="ltr" dominant-baseline="text-before-edge">currentStateRoot</text></g><g stroke-linecap="round" transform="translate(818.9952528928452 349.69191784407303) rotate(0 110.05757116156974 32.177416550875876)"><path d="M16.09 0 C84.53 0.31, 154.52 2.51, 204.03 0 M16.09 0 C78.39 0.33, 142.13 1.24, 204.03 0 M204.03 0 C213.07 1.82, 218.79 4.45, 220.12 16.09 M204.03 0 C216.35 0.44, 220.19 3.95, 220.12 16.09 M220.12 16.09 C218.4 25.37, 221.49 38.8, 220.12 48.27 M220.12 16.09 C221.09 23.99, 219.17 29.55, 220.12 48.27 M220.12 48.27 C220.3 59, 216.21 65.06, 204.03 64.35 M220.12 48.27 C218.27 58.16, 215.08 65.1, 204.03 64.35 M204.03 64.35 C157.52 65.21, 111.55 65.16, 16.09 64.35 M204.03 64.35 C155.8 65.3, 106.57 64.58, 16.09 64.35 M16.09 64.35 C4.79 65.48, 0.31 58.03, 0 48.27 M16.09 64.35 C7.53 62.18, 2.01 59.6, 0 48.27 M0 48.27 C0.54 37.45, -0.38 24.81, 0 16.09 M0 48.27 C0.14 35.78, 0.6 23.33, 0 16.09 M0 16.09 C1.91 5.08, 5.86 0.25, 16.09 0 M0 16.09 C-0.68 7.48, 6.74 1.47, 16.09 0" stroke="#1971c2" stroke-width="1" fill="none"></path></g><g transform="translate(830.1829128605677 369.36933439494896) rotate(0 98.86991119384766 12.5)"><text x="98.86991119384766" y="0" font-family="Virgil, Segoe UI Emoji" font-size="20px" fill="#1971c2" text-anchor="middle" style="white-space: pre;" direction="ltr" dominant-baseline="text-before-edge">currentStateLeaves</text></g><g stroke-linecap="round" transform="translate(1063.566810239051 350.3907122088285) rotate(0 110.05757116156974 32.177416550875876)"><path d="M16.09 0 C67.56 0.4, 117.05 -2.1, 204.03 0 M16.09 0 C66.14 -0.27, 117.21 -1.63, 204.03 0 M204.03 0 C216.14 0.38, 220.18 4.14, 220.12 16.09 M204.03 0 C215.76 1.66, 220.34 3.13, 220.12 16.09 M220.12 16.09 C218.78 22.89, 221.74 31.59, 220.12 48.27 M220.12 16.09 C219.9 28, 220.54 40.26, 220.12 48.27 M220.12 48.27 C218.51 58.27, 215.04 65.01, 204.03 64.35 M220.12 48.27 C218.8 59, 216.98 63.37, 204.03 64.35 M204.03 64.35 C155.93 62.97, 109.59 64.57, 16.09 64.35 M204.03 64.35 C131.93 65.1, 60.56 64.05, 16.09 64.35 M16.09 64.35 C7.25 62.46, 1.75 59.52, 0 48.27 M16.09 64.35 C7.48 63.03, -2.25 59.4, 0 48.27 M0 48.27 C2.08 37.16, 1.85 23.89, 0 16.09 M0 48.27 C0.69 37.28, -0.02 26.71, 0 16.09 M0 16.09 C-0.59 7.2, 6.56 1.28, 16.09 0 M0 16.09 C-1.61 7.5, 5.58 1.99, 16.09 0" stroke="#1971c2" stroke-width="1" fill="none"></path></g><g transform="translate(1074.7544702067726 357.56812875970445) rotate(0 98.86991119384766 25)"><text x="98.86991119384766" y="0" font-family="Virgil, Segoe UI Emoji" font-size="20px" fill="#1971c2" text-anchor="middle" style="white-space: pre;" direction="ltr" dominant-baseline="text-before-edge">currentStateLeaves</text><text x="98.86991119384766" y="25" font-family="Virgil, Segoe UI Emoji" font-size="20px" fill="#1971c2" text-anchor="middle" style="white-space: pre;" direction="ltr" dominant-baseline="text-before-edge">PathElements</text></g><g stroke-linecap="round" transform="translate(315.5567493324761 246.1873307473694) rotate(0 110.05757116156974 32.17741655087593)"><path d="M16.09 0 C85.52 -3.06, 157.24 -1.84, 204.03 0 M16.09 0 C70.43 -0.07, 124.13 -0.89, 204.03 0 M204.03 0 C213.41 1.19, 218.26 4.4, 220.12 16.09 M204.03 0 C212.93 1.11, 222.38 5.24, 220.12 16.09 M220.12 16.09 C217.91 24.19, 221.41 35.74, 220.12 48.27 M220.12 16.09 C219.9 27.99, 220.56 41.28, 220.12 48.27 M220.12 48.27 C219.38 58.16, 216.42 65.99, 204.03 64.35 M220.12 48.27 C218.57 60.43, 216.46 66.25, 204.03 64.35 M204.03 64.35 C162.34 63.2, 125.62 64.56, 16.09 64.35 M204.03 64.35 C161.76 63.11, 117.48 64.17, 16.09 64.35 M16.09 64.35 C5.3 62.48, -1.16 57.48, 0 48.27 M16.09 64.35 C6.78 66.43, 0.55 57.89, 0 48.27 M0 48.27 C-0.48 42.26, 1.56 31.9, 0 16.09 M0 48.27 C0.8 40.64, -0.54 33.94, 0 16.09 M0 16.09 C-1.38 4.83, 6.53 1.41, 16.09 0 M0 16.09 C-1.96 5.06, 4.07 1.52, 16.09 0" stroke="#1971c2" stroke-width="1" fill="none"></path></g><g transform="translate(324.7644212020541 265.86474729824533) rotate(0 100.84989929199219 12.5)"><text x="100.84989929199219" y="0" font-family="Virgil, Segoe UI Emoji" font-size="20px" fill="#1971c2" text-anchor="middle" style="white-space: pre;" direction="ltr" dominant-baseline="text-before-edge">currentSbCommitment</text></g><g stroke-linecap="round" transform="translate(561.27082793308 250.51270634891273) rotate(0 110.05757116156974 32.17741655087593)"><path d="M16.09 0 C58.44 -0.48, 101.48 1.79, 204.03 0 M16.09 0 C72.15 2.09, 128.63 1.01, 204.03 0 M204.03 0 C213.17 0.96, 222.08 5.26, 220.12 16.09 M204.03 0 C214.77 -1.89, 221.14 3.13, 220.12 16.09 M220.12 16.09 C222.19 23.68, 220.29 29.76, 220.12 48.27 M220.12 16.09 C219.87 23.14, 221.07 31.84, 220.12 48.27 M220.12 48.27 C218.78 60.24, 216.24 66, 204.03 64.35 M220.12 48.27 C218.1 61.19, 212.75 62.28, 204.03 64.35 M204.03 64.35 C141.73 67.72, 81.27 67.98, 16.09 64.35 M204.03 64.35 C153.75 64.8, 102.95 64.98, 16.09 64.35 M16.09 64.35 C6.6 66.16, 0.48 58.03, 0 48.27 M16.09 64.35 C4.12 62.57, 0.28 58.16, 0 48.27 M0 48.27 C-1.67 34.49, 0.59 24.08, 0 16.09 M0 48.27 C-0.46 39.36, 0.81 31.71, 0 16.09 M0 16.09 C-1.7 5.1, 4.24 1.33, 16.09 0 M0 16.09 C1 5.68, 5.04 -0.58, 16.09 0" stroke="#1971c2" stroke-width="1" fill="none"></path></g><g transform="translate(604.0484613505087 270.19012289978866) rotate(0 67.27993774414062 12.5)"><text x="67.27993774414062" y="0" font-family="Virgil, Segoe UI Emoji" font-size="20px" fill="#1971c2" text-anchor="middle" style="white-space: pre;" direction="ltr" dominant-baseline="text-before-edge">currentSbSalt</text></g><g stroke-linecap="round" transform="translate(813.5614748825574 250.473884439759) rotate(0 110.05757116156974 32.17741655087593)"><path d="M16.09 0 C65.86 0.38, 113.97 -2.81, 204.03 0 M16.09 0 C82.85 1.38, 152.18 0.85, 204.03 0 M204.03 0 C214.76 -1.64, 221.01 3.43, 220.12 16.09 M204.03 0 C212.94 1.79, 220.47 7.46, 220.12 16.09 M220.12 16.09 C218.74 27.22, 220.14 36.16, 220.12 48.27 M220.12 16.09 C219.71 25.03, 221.13 33.54, 220.12 48.27 M220.12 48.27 C218.36 60.9, 213.01 62.55, 204.03 64.35 M220.12 48.27 C220.67 60.56, 216.87 62.74, 204.03 64.35 M204.03 64.35 C131.64 65.93, 62.03 66.07, 16.09 64.35 M204.03 64.35 C165.87 63.84, 126.73 62.45, 16.09 64.35 M16.09 64.35 C4.28 62.81, 0.25 58.27, 0 48.27 M16.09 64.35 C7.56 65.86, -0.62 57.32, 0 48.27 M0 48.27 C-0.76 38.88, 0.44 30.98, 0 16.09 M0 48.27 C-1.04 39.35, -0.75 31.35, 0 16.09 M0 16.09 C0.87 5.64, 5.08 -0.5, 16.09 0 M0 16.09 C0.84 5.78, 4.75 0.34, 16.09 0" stroke="#1971c2" stroke-width="1" fill="none"></path></g><g transform="translate(841.6291244743024 270.1513009906349) rotate(0 81.98992156982422 12.5)"><text x="81.98992156982422" y="0" font-family="Virgil, Segoe UI Emoji" font-size="20px" fill="#1971c2" text-anchor="middle" style="white-space: pre;" direction="ltr" dominant-baseline="text-before-edge">newSbCommitment</text></g><g stroke-linecap="round" transform="translate(1058.133032228763 251.17267880451448) rotate(0 110.05757116156974 32.17741655087593)"><path d="M16.09 0 C90.97 -0.6, 162.52 -0.32, 204.03 0 M16.09 0 C81.52 -0.72, 147.39 -0.87, 204.03 0 M204.03 0 C213.18 1.55, 220.42 7.19, 220.12 16.09 M204.03 0 C215.29 -0.08, 219.46 3.8, 220.12 16.09 M220.12 16.09 C219.29 28.59, 221.76 36.42, 220.12 48.27 M220.12 16.09 C219.48 28.71, 219.48 38.51, 220.12 48.27 M220.12 48.27 C220.6 60.36, 216.59 62.95, 204.03 64.35 M220.12 48.27 C221.99 57.87, 216.94 63.6, 204.03 64.35 M204.03 64.35 C147.76 63.13, 93.74 65.53, 16.09 64.35 M204.03 64.35 C130.12 62.68, 57.42 63.09, 16.09 64.35 M16.09 64.35 C7.27 65.66, -0.54 57.53, 0 48.27 M16.09 64.35 C4.15 65.28, 1.46 58.26, 0 48.27 M0 48.27 C-0.63 42.07, 1.32 31.84, 0 16.09 M0 48.27 C0.61 39.18, 0.04 29.56, 0 16.09 M0 16.09 C0.73 5.72, 4.83 0.3, 16.09 0 M0 16.09 C-2.19 3.59, 7.38 1.48, 16.09 0" stroke="#1971c2" stroke-width="1" fill="none"></path></g><g transform="translate(1119.7706433683607 270.8500953553904) rotate(0 48.419960021972656 12.5)"><text x="48.419960021972656" y="0" font-family="Virgil, Segoe UI Emoji" font-size="20px" fill="#1971c2" text-anchor="middle" style="white-space: pre;" direction="ltr" dominant-baseline="text-before-edge">newSbSalt</text></g><g stroke-linecap="round" transform="translate(314.1477337251854 146.36759929737377) rotate(0 110.05757116156974 32.177416550875876)"><path d="M16.09 0 C56 3.45, 93.88 1.5, 204.03 0 M16.09 0 C56.24 2.6, 98.12 2.73, 204.03 0 M204.03 0 C215.22 -0.07, 219.54 4, 220.12 16.09 M204.03 0 C215.6 0.05, 219.28 4.41, 220.12 16.09 M220.12 16.09 C221.63 29.91, 222.02 38.99, 220.12 48.27 M220.12 16.09 C220.08 29.5, 220.75 40.84, 220.12 48.27 M220.12 48.27 C221.75 58.02, 216.65 63.7, 204.03 64.35 M220.12 48.27 C219.87 60.68, 214.67 62.2, 204.03 64.35 M204.03 64.35 C160.4 66, 112.19 64.43, 16.09 64.35 M204.03 64.35 C163.15 64.33, 120.08 62.95, 16.09 64.35 M16.09 64.35 C4.31 65.16, 1.27 58.36, 0 48.27 M16.09 64.35 C3.73 65.01, -1.58 58.37, 0 48.27 M0 48.27 C-0.49 35.62, 1.1 26.09, 0 16.09 M0 48.27 C0.41 38.35, -0.22 28.23, 0 16.09 M0 16.09 C-1.91 3.82, 7.12 1.29, 16.09 0 M0 16.09 C-1.18 5.61, 7.66 1.4, 16.09 0" stroke="#1971c2" stroke-width="1" fill="none"></path></g><g transform="translate(335.21538331693137 166.0450158482497) rotate(0 88.98992156982422 12.5)"><text x="88.98992156982422" y="0" font-family="Virgil, Segoe UI Emoji" font-size="20px" fill="#1971c2" text-anchor="middle" style="white-space: pre;" direction="ltr" dominant-baseline="text-before-edge">currentBallotRoot</text></g><g stroke-linecap="round" transform="translate(559.8618123257893 150.6929748989171) rotate(0 110.05757116156974 32.177416550875876)"><path d="M16.09 0 C89.31 0.88, 163.88 -1.58, 204.03 0 M16.09 0 C87.31 -1.75, 157.78 -2.39, 204.03 0 M204.03 0 C215.49 0.04, 219.38 4.53, 220.12 16.09 M204.03 0 C216.67 1.88, 218.57 6.8, 220.12 16.09 M220.12 16.09 C222.29 26.4, 218.58 40.67, 220.12 48.27 M220.12 16.09 C221.23 27.45, 221.36 39.47, 220.12 48.27 M220.12 48.27 C219.9 60.46, 214.68 62.48, 204.03 64.35 M220.12 48.27 C218.78 57.25, 216.17 66.43, 204.03 64.35 M204.03 64.35 C141.56 63.59, 81.47 65.25, 16.09 64.35 M204.03 64.35 C134.84 63.39, 67.35 62.67, 16.09 64.35 M16.09 64.35 C3.94 64.92, -1.38 58.45, 0 48.27 M16.09 64.35 C6.7 65.98, -1.96 58.69, 0 48.27 M0 48.27 C0.06 40.13, -0.72 33.3, 0 16.09 M0 48.27 C-0.87 37.26, 0.96 28.45, 0 16.09 M0 16.09 C-1.03 5.58, 7.36 1.22, 16.09 0 M0 16.09 C-0.92 3.61, 4.71 0.02, 16.09 0" stroke="#1971c2" stroke-width="1" fill="none"></path></g><g transform="translate(599.0094484898 170.37039144979303) rotate(0 70.9099349975586 12.5)"><text x="70.9099349975586" y="0" font-family="Virgil, Segoe UI Emoji" font-size="20px" fill="#1971c2" text-anchor="middle" style="white-space: pre;" direction="ltr" dominant-baseline="text-before-edge">currentBallots</text></g><g stroke-linecap="round" transform="translate(812.1524592752667 150.65415298976336) rotate(0 110.05757116156974 32.177416550875876)"><path d="M16.09 0 C82.4 1.79, 147.41 1.94, 204.03 0 M16.09 0 C72.17 1.3, 127.16 0.86, 204.03 0 M204.03 0 C216.42 1.63, 218.78 6.61, 220.12 16.09 M204.03 0 C216.46 1.89, 218.1 7.56, 220.12 16.09 M220.12 16.09 C221.19 24.78, 218.42 31.43, 220.12 48.27 M220.12 16.09 C220.31 24.91, 220.39 31.32, 220.12 48.27 M220.12 48.27 C218.95 57.48, 215.99 66.16, 204.03 64.35 M220.12 48.27 C220.67 57.89, 213.51 62.57, 204.03 64.35 M204.03 64.35 C146.63 65.61, 85.15 65.1, 16.09 64.35 M204.03 64.35 C139.37 64.04, 75.45 63.49, 16.09 64.35 M16.09 64.35 C6.53 65.77, -1.7 58.73, 0 48.27 M16.09 64.35 C4.07 65.88, 1 59.31, 0 48.27 M0 48.27 C0.44 38.54, 0.38 27.97, 0 16.09 M0 48.27 C-0.8 41.21, 0.72 34.54, 0 16.09 M0 16.09 C-0.8 3.84, 4.79 0.01, 16.09 0 M0 16.09 C0.48 6.83, 6.64 -1.38, 16.09 0" stroke="#1971c2" stroke-width="1" fill="none"></path></g><g transform="translate(818.0601204636914 157.8315695406393) rotate(0 104.14990997314453 25)"><text x="104.14990997314453" y="0" font-family="Virgil, Segoe UI Emoji" font-size="20px" fill="#1971c2" text-anchor="middle" style="white-space: pre;" direction="ltr" dominant-baseline="text-before-edge">currentBallotsPathEl</text><text x="104.14990997314453" y="25" font-family="Virgil, Segoe UI Emoji" font-size="20px" fill="#1971c2" text-anchor="middle" style="white-space: pre;" direction="ltr" dominant-baseline="text-before-edge">ements</text></g><g stroke-linecap="round" transform="translate(1056.7240166214724 151.35294735451885) rotate(0 110.05757116156974 32.177416550875876)"><path d="M16.09 0 C75.31 -1.01, 133.31 0.3, 204.03 0 M16.09 0 C73.68 1.6, 128.94 1.41, 204.03 0 M204.03 0 C216.24 1.65, 218.36 7.27, 220.12 16.09 M204.03 0 C212.75 -2.07, 220.67 6.94, 220.12 16.09 M220.12 16.09 C218.91 30.6, 219.24 41.1, 220.12 48.27 M220.12 16.09 C219.52 27.35, 220.72 41.03, 220.12 48.27 M220.12 48.27 C220.6 58.03, 213.67 62.81, 204.03 64.35 M220.12 48.27 C220.4 58.16, 216.95 65.86, 204.03 64.35 M204.03 64.35 C153.51 64.63, 100.74 61.94, 16.09 64.35 M204.03 64.35 C142.87 64.56, 79.7 63.72, 16.09 64.35 M16.09 64.35 C4.24 65.68, 0.87 59.27, 0 48.27 M16.09 64.35 C5.04 63.78, 0.84 59.4, 0 48.27 M0 48.27 C-1.59 41.22, 1.24 29.63, 0 16.09 M0 48.27 C-0.72 37.51, -0.61 28.28, 0 16.09 M0 16.09 C0.42 6.64, 6.47 -1.2, 16.09 0 M0 16.09 C-2.21 5.16, 7.54 -0.12, 16.09 0" stroke="#1971c2" stroke-width="1" fill="none"></path></g><g transform="translate(1073.7116796409528 171.03036390539478) rotate(0 93.06990814208984 12.5)"><text x="93.06990814208984" y="0" font-family="Virgil, Segoe UI Emoji" font-size="20px" fill="#1971c2" text-anchor="middle" style="white-space: pre;" direction="ltr" dominant-baseline="text-before-edge">currentVoteWeights</text></g><g stroke-linecap="round" transform="translate(684.4384037285663 54.16907314407149) rotate(0 110.05757116156974 32.177416550875876)"><path d="M16.09 0 C70.37 1.25, 122.16 -0.42, 204.03 0 M16.09 0 C59.15 0.78, 101.59 1.59, 204.03 0 M204.03 0 C215.87 -0.29, 222.08 5.17, 220.12 16.09 M204.03 0 C214.88 0.89, 221.21 3.88, 220.12 16.09 M220.12 16.09 C217.87 26.84, 220.65 39.97, 220.12 48.27 M220.12 16.09 C220.87 26.49, 220.08 34.84, 220.12 48.27 M220.12 48.27 C218.54 58.28, 215.61 64.84, 204.03 64.35 M220.12 48.27 C221.26 56.97, 215.93 65.96, 204.03 64.35 M204.03 64.35 C138.84 63.94, 72.62 66.23, 16.09 64.35 M204.03 64.35 C154.02 66.86, 103.33 65.23, 16.09 64.35 M16.09 64.35 C5.47 62.51, -1.31 57.67, 0 48.27 M16.09 64.35 C4.75 62.66, -2.22 59.76, 0 48.27 M0 48.27 C0.9 34, -0.44 21.93, 0 16.09 M0 48.27 C1.06 41.6, -0.75 34.73, 0 16.09 M0 16.09 C-0.83 6.51, 5.35 0.75, 16.09 0 M0 16.09 C-1.76 6.11, 5.74 -0.78, 16.09 0" stroke="#1971c2" stroke-width="1" fill="none"></path></g><g transform="translate(694.8160737670896 61.34648969494742) rotate(0 99.67990112304688 25)"><text x="99.67990112304688" y="0" font-family="Virgil, Segoe UI Emoji" font-size="20px" fill="#1971c2" text-anchor="middle" style="white-space: pre;" direction="ltr" dominant-baseline="text-before-edge">currentVoteWeightsP</text><text x="99.67990112304688" y="25" font-family="Virgil, Segoe UI Emoji" font-size="20px" fill="#1971c2" text-anchor="middle" style="white-space: pre;" direction="ltr" dominant-baseline="text-before-edge">athElements</text></g><g stroke-linecap="round" transform="translate(1660.0039216770883 52.93379769079161) rotate(0 137.97459774819367 42.5)"><path d="M21.25 0 C83.34 -1.44, 148.28 1.19, 254.7 0 M21.25 0 C103.33 -2.04, 185.09 -2.18, 254.7 0 M254.7 0 C269.85 1.37, 275.28 6.5, 275.95 21.25 M254.7 0 C268.42 1.18, 277.1 4.8, 275.95 21.25 M275.95 21.25 C275.43 37.74, 274.56 52.68, 275.95 63.75 M275.95 21.25 C275.36 37.15, 275.78 52.83, 275.95 63.75 M275.95 63.75 C276.69 78.66, 270.83 85.39, 254.7 85 M275.95 63.75 C277.86 76.94, 269.31 86.02, 254.7 85 M254.7 85 C168.39 83.73, 79.98 84.3, 21.25 85 M254.7 85 C202 83.62, 149.87 83.72, 21.25 85 M21.25 85 C8.59 83.03, -0.38 77.14, 0 63.75 M21.25 85 C5.6 83.75, -2.22 79.83, 0 63.75 M0 63.75 C-0.79 51.2, 1.21 39.02, 0 21.25 M0 63.75 C0.24 52.77, 0.84 40.17, 0 21.25 M0 21.25 C-0.09 6.78, 5.16 -0.85, 21.25 0 M0 21.25 C0.91 6.18, 6.49 2.06, 21.25 0" stroke="#1971c2" stroke-width="1" fill="none"></path></g><g transform="translate(1676.158626541981 57.93379769079161) rotate(0 121.81989288330078 37.5)"><text x="121.81989288330078" y="0" font-family="Virgil, Segoe UI Emoji" font-size="20px" fill="#1971c2" text-anchor="middle" style="white-space: pre;" direction="ltr" dominant-baseline="text-before-edge">hash(currentStateRoot, </text><text x="121.81989288330078" y="25" font-family="Virgil, Segoe UI Emoji" font-size="20px" fill="#1971c2" text-anchor="middle" style="white-space: pre;" direction="ltr" dominant-baseline="text-before-edge">currentBallotRoot, </text><text x="121.81989288330078" y="50" font-family="Virgil, Segoe UI Emoji" font-size="20px" fill="#1971c2" text-anchor="middle" style="white-space: pre;" direction="ltr" dominant-baseline="text-before-edge">currentSbSalt)</text></g><g stroke-linecap="round" transform="translate(1660.1669425376003 159.10036240309478) rotate(0 165.89398562887186 42.5)"><path d="M21.25 0 C128.57 1.73, 239.03 3.25, 310.54 0 M21.25 0 C86.38 1.4, 152.21 0.47, 310.54 0 M310.54 0 C324.49 -0.81, 331.39 7.7, 331.79 21.25 M310.54 0 C322.74 -0.77, 330.7 9.3, 331.79 21.25 M331.79 21.25 C332.12 33.84, 333.39 43.03, 331.79 63.75 M331.79 21.25 C332.15 35.16, 331.66 51.07, 331.79 63.75 M331.79 63.75 C332.41 79.23, 324.36 86.98, 310.54 85 M331.79 63.75 C331.73 76.26, 323.78 83.4, 310.54 85 M310.54 85 C206.38 86.4, 103.67 86.29, 21.25 85 M310.54 85 C231.16 85.04, 151.46 85.47, 21.25 85 M21.25 85 C8.13 83.03, -0.58 77.98, 0 63.75 M21.25 85 C6.82 82.85, -0.39 79.46, 0 63.75 M0 63.75 C1.9 53.37, 0.11 43.05, 0 21.25 M0 63.75 C-1.08 50.17, 0.75 34.68, 0 21.25 M0 21.25 C1.53 8.44, 7.73 1.55, 21.25 0 M0 21.25 C-0.1 5.08, 4.94 -1.42, 21.25 0" stroke="#1971c2" stroke-width="1" fill="none"></path></g><g transform="translate(1682.9910734301438 176.60036240309478) rotate(0 143.06985473632812 25)"><text x="143.06985473632812" y="0" font-family="Virgil, Segoe UI Emoji" font-size="20px" fill="#1971c2" text-anchor="middle" style="white-space: pre;" direction="ltr" dominant-baseline="text-before-edge">use </text><text x="143.06985473632812" y="25" font-family="Virgil, Segoe UI Emoji" font-size="20px" fill="#1971c2" text-anchor="middle" style="white-space: pre;" direction="ltr" dominant-baseline="text-before-edge">ProcessMessagesInputHasher</text></g><g stroke-linecap="round" transform="translate(1349.5114382420143 262.6934718142354) rotate(0 110.05757116156974 55)"><path d="M27.5 0 C83.48 0.27, 144.38 -2.58, 192.62 0 M27.5 0 C79.24 -0.74, 129.75 0.03, 192.62 0 M192.62 0 C209.56 0.63, 220.86 8.28, 220.12 27.5 M192.62 0 C211.67 0.14, 218.64 10.96, 220.12 27.5 M220.12 27.5 C219.32 48.49, 218.16 66.89, 220.12 82.5 M220.12 27.5 C220.8 48.79, 219.73 70.45, 220.12 82.5 M220.12 82.5 C220.83 102.25, 208.99 111.3, 192.62 110 M220.12 82.5 C218.28 100.37, 210.26 108.34, 192.62 110 M192.62 110 C136.95 111.77, 84.36 108.35, 27.5 110 M192.62 110 C151.48 109.37, 110.06 108.36, 27.5 110 M27.5 110 C8.79 109.2, 0.72 99.04, 0 82.5 M27.5 110 C10.75 107.85, 1.91 98.72, 0 82.5 M0 82.5 C-0.06 65.58, 1.43 49.12, 0 27.5 M0 82.5 C0.19 60.88, 0.34 38.78, 0 27.5 M0 27.5 C1.13 8.55, 10.67 -1.75, 27.5 0 M0 27.5 C0.32 6.92, 10.76 -0.58, 27.5 0" stroke="#1971c2" stroke-width="1" fill="none"></path></g><g transform="translate(1359.909104923603 267.6934718142354) rotate(0 99.65990447998047 50)"><text x="99.65990447998047" y="0" font-family="Virgil, Segoe UI Emoji" font-size="20px" fill="#1971c2" text-anchor="middle" style="white-space: pre;" direction="ltr" dominant-baseline="text-before-edge">3. ensure the </text><text x="99.65990447998047" y="25" font-family="Virgil, Segoe UI Emoji" font-size="20px" fill="#1971c2" text-anchor="middle" style="white-space: pre;" direction="ltr" dominant-baseline="text-before-edge">maxVoteOptions </text><text x="99.65990447998047" y="50" font-family="Virgil, Segoe UI Emoji" font-size="20px" fill="#1971c2" text-anchor="middle" style="white-space: pre;" direction="ltr" dominant-baseline="text-before-edge">(output of step 2) </text><text x="99.65990447998047" y="75" font-family="Virgil, Segoe UI Emoji" font-size="20px" fill="#1971c2" text-anchor="middle" style="white-space: pre;" direction="ltr" dominant-baseline="text-before-edge">signal is valid </text></g><g stroke-linecap="round"><g transform="translate(1590.8765805651533 314.2742667777993) rotate(0 25.528542186071718 0.6866541585913524)"><path d="M-0.32 1.14 C8.16 1.3, 41.45 2.15, 49.94 2.02 M1.71 0.69 C10.62 1.02, 44.08 0.16, 52.07 0.24" stroke="#1e1e1e" stroke-width="2" fill="none"></path></g><g transform="translate(1590.8765805651533 314.2742667777993) rotate(0 25.528542186071718 0.6866541585913524)"><path d="M28.15 9.21 C35.31 5.41, 39.84 4.55, 52.07 0.24 M28.15 9.21 C32.89 7.68, 38.05 6.06, 52.07 0.24" stroke="#1e1e1e" stroke-width="2" fill="none"></path></g><g transform="translate(1590.8765805651533 314.2742667777993) rotate(0 25.528542186071718 0.6866541585913524)"><path d="M27.99 -8.26 C35.34 -8.16, 39.9 -5.11, 52.07 0.24 M27.99 -8.26 C32.63 -5.96, 37.83 -3.75, 52.07 0.24" stroke="#1e1e1e" stroke-width="2" fill="none"></path></g></g><mask></mask><g stroke-linecap="round" transform="translate(1663.1185805425125 264.24956307153775) rotate(0 153.77156840439397 42.5)"><path d="M21.25 0 C126.35 -2.05, 229.91 -0.58, 286.29 0 M21.25 0 C126.12 0.12, 230.98 0.23, 286.29 0 M286.29 0 C300.37 -2, 306.65 6.33, 307.54 21.25 M286.29 0 C298.62 0.41, 308.24 5.31, 307.54 21.25 M307.54 21.25 C308.9 32.54, 308.64 42, 307.54 63.75 M307.54 21.25 C308.81 33.98, 308.81 48.87, 307.54 63.75 M307.54 63.75 C305.93 77.89, 299.81 86.99, 286.29 85 M307.54 63.75 C309.21 77.62, 300.09 86.95, 286.29 85 M286.29 85 C193.9 85.46, 100.32 85.5, 21.25 85 M286.29 85 C220.16 85.82, 153.09 85.14, 21.25 85 M21.25 85 C6.58 85.01, 1.49 77.17, 0 63.75 M21.25 85 C5.81 82.74, -0.56 79.74, 0 63.75 M0 63.75 C0.61 48.77, 0.36 34.39, 0 21.25 M0 63.75 C-0.45 54.85, -0.57 45.53, 0 21.25 M0 21.25 C1.97 6.62, 7.26 -0.4, 21.25 0 M0 21.25 C0.19 4.89, 6.13 -1.87, 21.25 0" stroke="#1971c2" stroke-width="1" fill="none"></path></g><g transform="translate(1692.0502441617505 281.74956307153775) rotate(0 124.83990478515625 25)"><text x="124.83990478515625" y="0" font-family="Virgil, Segoe UI Emoji" font-size="20px" fill="#1971c2" text-anchor="middle" style="white-space: pre;" direction="ltr" dominant-baseline="text-before-edge">maxVoteOptions &lt;= 5 ** </text><text x="124.83990478515625" y="25" font-family="Virgil, Segoe UI Emoji" font-size="20px" fill="#1971c2" text-anchor="middle" style="white-space: pre;" direction="ltr" dominant-baseline="text-before-edge">voteOptionTreeDepth</text></g><g stroke-linecap="round" transform="translate(1362.4619764539802 396.9110301506398) rotate(0 110.05757116156974 55)"><path d="M27.5 0 C91.09 -1.35, 155.87 -1.99, 192.62 0 M27.5 0 C63.01 -0.52, 97.83 -0.64, 192.62 0 M192.62 0 C209.76 0.55, 218.24 10.35, 220.12 27.5 M192.62 0 C211.83 -1.64, 221.99 6.99, 220.12 27.5 M220.12 27.5 C218.73 39.15, 220.67 54.22, 220.12 82.5 M220.12 27.5 C219.59 41.65, 220.23 58.54, 220.12 82.5 M220.12 82.5 C219.09 100.33, 209.52 110.25, 192.62 110 M220.12 82.5 C220.39 100.88, 211.87 112.18, 192.62 110 M192.62 110 C158.93 111.16, 122.49 111.95, 27.5 110 M192.62 110 C139.65 111.12, 87.83 111.73, 27.5 110 M27.5 110 C8.69 108.19, 1.59 102.82, 0 82.5 M27.5 110 C10.24 109.79, 1.08 102.79, 0 82.5 M0 82.5 C-0.22 64.57, -0.06 50.35, 0 27.5 M0 82.5 C0.64 65.58, 0.02 46.6, 0 27.5 M0 27.5 C1.85 7.73, 9.37 -0.27, 27.5 0 M0 27.5 C-1.85 11.18, 8.02 -1.12, 27.5 0" stroke="#1971c2" stroke-width="1" fill="none"></path></g><g transform="translate(1369.62964740803 401.9110301506398) rotate(0 102.88990020751953 50)"><text x="102.88990020751953" y="0" font-family="Virgil, Segoe UI Emoji" font-size="20px" fill="#1971c2" text-anchor="middle" style="white-space: pre;" direction="ltr" dominant-baseline="text-before-edge">4. Ensure that the </text><text x="102.88990020751953" y="25" font-family="Virgil, Segoe UI Emoji" font-size="20px" fill="#1971c2" text-anchor="middle" style="white-space: pre;" direction="ltr" dominant-baseline="text-before-edge">number of signups is </text><text x="102.88990020751953" y="50" font-family="Virgil, Segoe UI Emoji" font-size="20px" fill="#1971c2" text-anchor="middle" style="white-space: pre;" direction="ltr" dominant-baseline="text-before-edge">not more than what </text><text x="102.88990020751953" y="75" font-family="Virgil, Segoe UI Emoji" font-size="20px" fill="#1971c2" text-anchor="middle" style="white-space: pre;" direction="ltr" dominant-baseline="text-before-edge">the circuit supports</text></g><g stroke-linecap="round"><g transform="translate(1608.1810520561694 441.16310190717127) rotate(0 26.443641294522877 0.36896770217674657)"><path d="M0.38 -0.08 C9.15 0.13, 43.35 1.53, 52.29 1.48 M-0.89 -1.16 C8.31 -1.32, 45.56 -0.5, 54.69 -0.26" stroke="#1e1e1e" stroke-width="2" fill="none"></path></g><g transform="translate(1608.1810520561694 441.16310190717127) rotate(0 26.443641294522877 0.36896770217674657)"><path d="M29.63 8.21 C36.31 4.83, 44.5 5.43, 54.69 -0.26 M29.63 8.21 C34.62 6.91, 39.55 4.53, 54.69 -0.26" stroke="#1e1e1e" stroke-width="2" fill="none"></path></g><g transform="translate(1608.1810520561694 441.16310190717127) rotate(0 26.443641294522877 0.36896770217674657)"><path d="M30.05 -9.87 C36.65 -8.33, 44.72 -2.8, 54.69 -0.26 M30.05 -9.87 C34.8 -7.51, 39.65 -6.24, 54.69 -0.26" stroke="#1e1e1e" stroke-width="2" fill="none"></path></g></g><mask></mask><g stroke-linecap="round" transform="translate(1680.9824751093938 389.96761423070575) rotate(0 153.77156840439397 42.5)"><path d="M21.25 0 C101.55 0.63, 184.07 0.07, 286.29 0 M21.25 0 C86.52 -0.91, 152.62 -0.59, 286.29 0 M286.29 0 C301.28 -1.47, 309.3 7.51, 307.54 21.25 M286.29 0 C299.35 -0.18, 306.18 5.1, 307.54 21.25 M307.54 21.25 C306.98 37.05, 306.51 52.96, 307.54 63.75 M307.54 21.25 C307.27 33.28, 306.68 47.51, 307.54 63.75 M307.54 63.75 C306.41 79.49, 299.92 86.32, 286.29 85 M307.54 63.75 C309.71 77.03, 302.75 83.48, 286.29 85 M286.29 85 C206.73 83, 126.63 81.99, 21.25 85 M286.29 85 C211.14 83.1, 137.24 83.11, 21.25 85 M21.25 85 C7.85 83.78, -0.22 76.99, 0 63.75 M21.25 85 C6.89 86.9, -1.03 79.21, 0 63.75 M0 63.75 C-0.66 53.59, -1.25 45.59, 0 21.25 M0 63.75 C0.39 49.15, -0.35 34.69, 0 21.25 M0 21.25 C-0.89 8.06, 7.77 -1.81, 21.25 0 M0 21.25 C-0.99 7.52, 6.59 -1.4, 21.25 0" stroke="#1971c2" stroke-width="1" fill="none"></path></g><g transform="translate(1735.364120418085 407.46761423070575) rotate(0 99.38992309570312 25)"><text x="99.38992309570312" y="0" font-family="Virgil, Segoe UI Emoji" font-size="20px" fill="#1971c2" text-anchor="middle" style="white-space: pre;" direction="ltr" dominant-baseline="text-before-edge">numSignups &lt;= 5 ** </text><text x="99.38992309570312" y="25" font-family="Virgil, Segoe UI Emoji" font-size="20px" fill="#1971c2" text-anchor="middle" style="white-space: pre;" direction="ltr" dominant-baseline="text-before-edge">stateTreeDepth</text></g><g stroke-linecap="round" transform="translate(1372.292985000965 536.4933711334929) rotate(0 110.05757116156974 42.50000000000006)"><path d="M21.25 0 C90.57 1.14, 164.58 -2.09, 198.87 0 M21.25 0 C79.9 -1.59, 137.78 -0.88, 198.87 0 M198.87 0 C214.46 0.72, 219.46 5.95, 220.12 21.25 M198.87 0 C213.53 0.53, 220.4 8.52, 220.12 21.25 M220.12 21.25 C221.89 35.23, 220.21 54.23, 220.12 63.75 M220.12 21.25 C218.81 29.67, 218.91 38.63, 220.12 63.75 M220.12 63.75 C220.81 79.87, 214.09 86.6, 198.87 85 M220.12 63.75 C222.14 79.11, 212.85 87.26, 198.87 85 M198.87 85 C149.17 86.86, 100.49 84.7, 21.25 85 M198.87 85 C155.71 83.73, 113.9 84.03, 21.25 85 M21.25 85 C6.09 83.15, 1.53 77.26, 0 63.75 M21.25 85 C8.1 86.32, 1.14 77.74, 0 63.75 M0 63.75 C2.26 48.57, 0.12 34.25, 0 21.25 M0 63.75 C-0.57 52.78, 0.42 44.55, 0 21.25 M0 21.25 C-0.64 6.4, 7.12 1.74, 21.25 0 M0 21.25 C0.58 8.19, 8.14 0.54, 21.25 0" stroke="#1971c2" stroke-width="1" fill="none"></path></g><g transform="translate(1379.6606529032579 541.4933711334929) rotate(0 102.68990325927734 37.50000000000006)"><text x="102.68990325927734" y="0" font-family="Virgil, Segoe UI Emoji" font-size="20px" fill="#1971c2" text-anchor="middle" style="white-space: pre;" direction="ltr" dominant-baseline="text-before-edge">5. Hash each </text><text x="102.68990325927734" y="25" font-family="Virgil, Segoe UI Emoji" font-size="20px" fill="#1971c2" text-anchor="middle" style="white-space: pre;" direction="ltr" dominant-baseline="text-before-edge">message and their </text><text x="102.68990325927734" y="50" font-family="Virgil, Segoe UI Emoji" font-size="20px" fill="#1971c2" text-anchor="middle" style="white-space: pre;" direction="ltr" dominant-baseline="text-before-edge">encryption public key </text></g><g stroke-linecap="round"><g transform="translate(1614.959203488544 572.5231343614497) rotate(0 19.377641434103452 0.29442817213873695)"><path d="M0 -0.13 C6.51 -0.05, 32.28 0.21, 38.78 0.32 M-0.66 -0.67 C5.81 -0.51, 31.79 0.59, 38.37 0.88" stroke="#1e1e1e" stroke-width="2" fill="none"></path></g><g transform="translate(1614.959203488544 572.5231343614497) rotate(0 19.377641434103452 0.29442817213873695)"><path d="M19.89 6.73 C24.22 5.33, 28.52 4.3, 38.37 0.88 M19.89 6.73 C25.46 5.36, 30.14 3.6, 38.37 0.88" stroke="#1e1e1e" stroke-width="2" fill="none"></path></g><g transform="translate(1614.959203488544 572.5231343614497) rotate(0 19.377641434103452 0.29442817213873695)"><path d="M20.45 -6.52 C24.62 -4.65, 28.79 -2.42, 38.37 0.88 M20.45 -6.52 C25.9 -4.14, 30.42 -2.15, 38.37 0.88" stroke="#1e1e1e" stroke-width="2" fill="none"></path></g></g><mask></mask><g stroke-linecap="round" transform="translate(1673.6286268209296 521.3434628414152) rotate(0 153.77156840439397 42.50000000000006)"><path d="M21.25 0 C99.98 0.64, 180.01 0.75, 286.29 0 M21.25 0 C115.7 -1.09, 211.19 -1.72, 286.29 0 M286.29 0 C301.59 -0.45, 305.94 7.13, 307.54 21.25 M286.29 0 C298.74 -0.39, 306.69 8.92, 307.54 21.25 M307.54 21.25 C306.04 35.27, 308.87 46.96, 307.54 63.75 M307.54 21.25 C307.98 32.27, 306.96 43.95, 307.54 63.75 M307.54 63.75 C306.15 76.83, 300.36 86.43, 286.29 85 M307.54 63.75 C308.01 77.84, 299.73 84.76, 286.29 85 M286.29 85 C208.91 87.48, 132.71 87.22, 21.25 85 M286.29 85 C231.2 85.34, 174.91 85.9, 21.25 85 M21.25 85 C8.34 85.81, -0.71 78.37, 0 63.75 M21.25 85 C6.94 84.08, 0.39 80.09, 0 63.75 M0 63.75 C0.77 51.44, 1.39 40.6, 0 21.25 M0 63.75 C0.68 51.13, -0.58 37.96, 0 21.25 M0 21.25 C-0.06 6.97, 5.67 -0.31, 21.25 0 M0 21.25 C1.14 5.98, 6.12 -0.42, 21.25 0" stroke="#1971c2" stroke-width="1" fill="none"></path></g><g transform="translate(1706.3003035627262 538.8434628414152) rotate(0 121.09989166259766 25.000000000000057)"><text x="121.09989166259766" y="0" font-family="Virgil, Segoe UI Emoji" font-size="20px" fill="#1971c2" text-anchor="middle" style="white-space: pre;" direction="ltr" dominant-baseline="text-before-edge">use the MessageHasher </text><text x="121.09989166259766" y="25" font-family="Virgil, Segoe UI Emoji" font-size="20px" fill="#1971c2" text-anchor="middle" style="white-space: pre;" direction="ltr" dominant-baseline="text-before-edge">template</text></g><g stroke-linecap="round" transform="translate(1366.7037544310851 646.5378012434707) rotate(0 110.05757116156974 55)"><path d="M27.5 0 C75.22 2.42, 123.32 1.67, 192.62 0 M27.5 0 C83.23 1.8, 137.51 0.06, 192.62 0 M192.62 0 C209.79 -1.77, 218.15 7.65, 220.12 27.5 M192.62 0 C209.86 -0.89, 221.32 7.54, 220.12 27.5 M220.12 27.5 C219.56 38.62, 220.98 49.06, 220.12 82.5 M220.12 27.5 C219.03 43.22, 218.89 57.13, 220.12 82.5 M220.12 82.5 C219.5 101.07, 212.36 110.17, 192.62 110 M220.12 82.5 C218.15 99.76, 209.44 111.16, 192.62 110 M192.62 110 C158.49 111.01, 122.08 111.96, 27.5 110 M192.62 110 C135.53 108.83, 78.88 108.31, 27.5 110 M27.5 110 C9.43 108.1, -0.55 101.96, 0 82.5 M27.5 110 C11.32 107.79, -1.1 100.37, 0 82.5 M0 82.5 C0.08 62.45, 2.04 39.06, 0 27.5 M0 82.5 C0.09 60.99, -0.6 38.32, 0 27.5 M0 27.5 C1.36 8.11, 9.5 0.14, 27.5 0 M0 27.5 C1.56 10.97, 9.42 1.24, 27.5 0" stroke="#1971c2" stroke-width="1" fill="none"></path></g><g transform="translate(1371.9414174505655 651.5378012434707) rotate(0 104.81990814208984 50)"><text x="104.81990814208984" y="0" font-family="Virgil, Segoe UI Emoji" font-size="20px" fill="#1971c2" text-anchor="middle" style="white-space: pre;" direction="ltr" dominant-baseline="text-before-edge">6. Ensure the </text><text x="104.81990814208984" y="25" font-family="Virgil, Segoe UI Emoji" font-size="20px" fill="#1971c2" text-anchor="middle" style="white-space: pre;" direction="ltr" dominant-baseline="text-before-edge">hashed messages are</text><text x="104.81990814208984" y="50" font-family="Virgil, Segoe UI Emoji" font-size="20px" fill="#1971c2" text-anchor="middle" style="white-space: pre;" direction="ltr" dominant-baseline="text-before-edge">part of the message</text><text x="104.81990814208984" y="75" font-family="Virgil, Segoe UI Emoji" font-size="20px" fill="#1971c2" text-anchor="middle" style="white-space: pre;" direction="ltr" dominant-baseline="text-before-edge">tree</text></g><g transform="translate(1507.0768246479238 10) rotate(0 110.77992248535156 12.5)"><text x="0" y="0" font-family="Virgil, Segoe UI Emoji" font-size="20px" fill="#1e1e1e" text-anchor="start" style="white-space: pre;" direction="ltr" dominant-baseline="text-before-edge">sb = state and ballot</text></g><g stroke-linecap="round"><g transform="translate(1627.690881506278 706.694520590611) rotate(0 25.0780729143587 -0.7832375148162782)"><path d="M0.97 0.77 C9.15 0.54, 42.09 -2.01, 50.1 -2.48 M0.02 0.13 C7.96 0.13, 40.56 -1.23, 49.13 -1.42" stroke="#1e1e1e" stroke-width="2" fill="none"></path></g><g transform="translate(1627.690881506278 706.694520590611) rotate(0 25.0780729143587 -0.7832375148162782)"><path d="M25.84 7.92 C36.1 4.08, 42.19 -1.22, 49.13 -1.42 M25.84 7.92 C32.04 5.23, 37.7 3.63, 49.13 -1.42" stroke="#1e1e1e" stroke-width="2" fill="none"></path></g><g transform="translate(1627.690881506278 706.694520590611) rotate(0 25.0780729143587 -0.7832375148162782)"><path d="M25.28 -9.23 C35.6 -6.53, 41.9 -5.28, 49.13 -1.42 M25.28 -9.23 C31.69 -7.48, 37.5 -4.65, 49.13 -1.42" stroke="#1e1e1e" stroke-width="2" fill="none"></path></g></g><mask></mask><g stroke-linecap="round" transform="translate(1697.7611677991736 644.6409989044565) rotate(0 153.77156840439397 42.5)"><path d="M21.25 0 C120.94 -1.34, 222.38 0.72, 286.29 0 M21.25 0 C84.82 1.19, 148.96 0.61, 286.29 0 M286.29 0 C299.64 1.96, 308.58 6.7, 307.54 21.25 M286.29 0 C301.68 -0.5, 307.53 9, 307.54 21.25 M307.54 21.25 C308.3 29.37, 307.7 38.93, 307.54 63.75 M307.54 21.25 C307.08 31.3, 307 41.58, 307.54 63.75 M307.54 63.75 C309.5 79.21, 299.99 83.86, 286.29 85 M307.54 63.75 C306.54 79.42, 299.94 85.01, 286.29 85 M286.29 85 C192.26 84.07, 97.48 83.89, 21.25 85 M286.29 85 C219.75 86.44, 152.33 86.01, 21.25 85 M21.25 85 C8.18 85.74, -0.23 77.64, 0 63.75 M21.25 85 C4.97 84.48, 2.04 78.39, 0 63.75 M0 63.75 C0.77 52.45, 0.36 41.57, 0 21.25 M0 63.75 C0.63 46.44, 1.1 30.35, 0 21.25 M0 21.25 C0.88 8.32, 7.89 1.46, 21.25 0 M0 21.25 C-1.29 5.82, 7.01 0.04, 21.25 0" stroke="#1971c2" stroke-width="1" fill="none"></path></g><g transform="translate(1732.072836301224 649.6409989044565) rotate(0 119.45989990234375 37.5)"><text x="119.45989990234375" y="0" font-family="Virgil, Segoe UI Emoji" font-size="20px" fill="#1971c2" text-anchor="middle" style="white-space: pre;" direction="ltr" dominant-baseline="text-before-edge">use the </text><text x="119.45989990234375" y="25" font-family="Virgil, Segoe UI Emoji" font-size="20px" fill="#1971c2" text-anchor="middle" style="white-space: pre;" direction="ltr" dominant-baseline="text-before-edge">QuinBatchLeavesExists </text><text x="119.45989990234375" y="50" font-family="Virgil, Segoe UI Emoji" font-size="20px" fill="#1971c2" text-anchor="middle" style="white-space: pre;" direction="ltr" dominant-baseline="text-before-edge">template</text></g><g stroke-linecap="round" transform="translate(1700.2306290624597 736.7826628287695) rotate(0 153.77156840439397 42.5)"><path d="M21.25 0 C77 -2.21, 129.13 -1.07, 286.29 0 M21.25 0 C109.31 0.51, 197.89 0.41, 286.29 0 M286.29 0 C299.56 -0.12, 305.82 5.33, 307.54 21.25 M286.29 0 C302.16 -1.66, 308.97 7.39, 307.54 21.25 M307.54 21.25 C306.43 35.21, 308.32 52.7, 307.54 63.75 M307.54 21.25 C308.12 31.45, 307.52 42.59, 307.54 63.75 M307.54 63.75 C305.68 79.57, 301.81 86.94, 286.29 85 M307.54 63.75 C308.36 77.5, 298.77 87.25, 286.29 85 M286.29 85 C232.39 86.08, 179.22 86.08, 21.25 85 M286.29 85 C227.81 83.86, 168.34 83.85, 21.25 85 M21.25 85 C9.07 83.7, -0.29 79.64, 0 63.75 M21.25 85 C7.97 86.97, 2.27 76.75, 0 63.75 M0 63.75 C1.03 54, 1.85 43.75, 0 21.25 M0 63.75 C0.01 49.91, -0.23 34.14, 0 21.25 M0 21.25 C-0.37 6.48, 5.93 -1.5, 21.25 0 M0 21.25 C-1.62 8.61, 5.63 -1.5, 21.25 0" stroke="#1971c2" stroke-width="1" fill="none"></path></g><g transform="translate(1729.4423067197836 766.7826628287695) rotate(0 124.55989074707031 12.5)"><text x="124.55989074707031" y="0" font-family="Virgil, Segoe UI Emoji" font-size="20px" fill="#1971c2" text-anchor="middle" style="white-space: pre;" direction="ltr" dominant-baseline="text-before-edge">loop from 0 to batchSize</text></g><g stroke-linecap="round" transform="translate(1707.5568693433825 839.5723430416423) rotate(0 153.77156840439397 42.5)"><path d="M21.25 0 C116.98 2.96, 211.81 1.47, 286.29 0 M21.25 0 C86.2 1.86, 152.07 2.17, 286.29 0 M286.29 0 C299.73 -0.98, 307.17 8.43, 307.54 21.25 M286.29 0 C301.58 1.55, 308.51 6.13, 307.54 21.25 M307.54 21.25 C309.04 31.93, 308.08 44.47, 307.54 63.75 M307.54 21.25 C307.45 32.3, 308.22 42.34, 307.54 63.75 M307.54 63.75 C306.85 79.02, 300.5 84.49, 286.29 85 M307.54 63.75 C307.98 79.17, 299.93 84.89, 286.29 85 M286.29 85 C189.81 83.09, 96.49 83.18, 21.25 85 M286.29 85 C213.73 84.6, 141.09 84.03, 21.25 85 M21.25 85 C8.04 86.91, 1.2 78.62, 0 63.75 M21.25 85 C8.66 84.64, -1.1 78.05, 0 63.75 M0 63.75 C0.57 56.13, -1.69 45.42, 0 21.25 M0 63.75 C-0.14 47.13, -0.5 30.21, 0 21.25 M0 21.25 C0.89 5.25, 8.26 -0.65, 21.25 0 M0 21.25 C-1.91 7.43, 8.09 -1.29, 21.25 0" stroke="#1971c2" stroke-width="1" fill="none"></path></g><g transform="translate(1727.4885329626204 844.5723430416423) rotate(0 133.83990478515625 37.5)"><text x="133.83990478515625" y="0" font-family="Virgil, Segoe UI Emoji" font-size="20px" fill="#1971c2" text-anchor="middle" style="white-space: pre;" direction="ltr" dominant-baseline="text-before-edge">check whether </text><text x="133.83990478515625" y="25" font-family="Virgil, Segoe UI Emoji" font-size="20px" fill="#1971c2" text-anchor="middle" style="white-space: pre;" direction="ltr" dominant-baseline="text-before-edge">batchStartIndex + i (loop </text><text x="133.83990478515625" y="50" font-family="Virgil, Segoe UI Emoji" font-size="20px" fill="#1971c2" text-anchor="middle" style="white-space: pre;" direction="ltr" dominant-baseline="text-before-edge">index) &lt; batchEndIndex</text></g><g stroke-linecap="round" transform="translate(1704.8911094945543 931.1499045467773) rotate(0 153.77156840439397 67.5)"><path d="M32 0 C120.81 -1.84, 208.9 -0.55, 275.54 0 M32 0 C91.21 -0.1, 150.76 0.32, 275.54 0 M275.54 0 C296.47 1.89, 308.82 8.8, 307.54 32 M275.54 0 C298.58 0.26, 305.8 11.47, 307.54 32 M307.54 32 C307.25 46.93, 305.54 63.11, 307.54 103 M307.54 32 C307.67 57.42, 307.68 80.12, 307.54 103 M307.54 103 C306.8 126.04, 295.67 134.96, 275.54 135 M307.54 103 C306.31 126.63, 295.06 134.22, 275.54 135 M275.54 135 C201.15 134.86, 124.95 135.14, 32 135 M275.54 135 C200.34 133.57, 123.18 133.31, 32 135 M32 135 C10.97 133.78, 0.37 123.95, 0 103 M32 135 C10.04 136.91, -2.12 124.32, 0 103 M0 103 C1.77 77.01, 0.09 48.75, 0 32 M0 103 C-1.15 82.79, -0.71 62.58, 0 32 M0 32 C1.39 12.63, 10.63 -1.4, 32 0 M0 32 C-0.68 10.95, 10.19 -2.14, 32 0" stroke="#1971c2" stroke-width="1" fill="none"></path></g><g transform="translate(1710.3528024106672 936.1499045467773) rotate(0 148.30987548828125 62.5)"><text x="148.30987548828125" y="0" font-family="Virgil, Segoe UI Emoji" font-size="20px" fill="#1971c2" text-anchor="middle" style="white-space: pre;" direction="ltr" dominant-baseline="text-before-edge">if above is true we pass as </text><text x="148.30987548828125" y="25" font-family="Virgil, Segoe UI Emoji" font-size="20px" fill="#1971c2" text-anchor="middle" style="white-space: pre;" direction="ltr" dominant-baseline="text-before-edge">input to </text><text x="148.30987548828125" y="50" font-family="Virgil, Segoe UI Emoji" font-size="20px" fill="#1971c2" text-anchor="middle" style="white-space: pre;" direction="ltr" dominant-baseline="text-before-edge">QuinBatchLeavesExists (leaf)</text><text x="148.30987548828125" y="75" font-family="Virgil, Segoe UI Emoji" font-size="20px" fill="#1971c2" text-anchor="middle" style="white-space: pre;" direction="ltr" dominant-baseline="text-before-edge">the hash of the message else</text><text x="148.30987548828125" y="100" font-family="Virgil, Segoe UI Emoji" font-size="20px" fill="#1971c2" text-anchor="middle" style="white-space: pre;" direction="ltr" dominant-baseline="text-before-edge">we pass the zero value</text></g><g stroke-linecap="round" transform="translate(1711.5770941138799 1078.6359419199803) rotate(0 140.41042912247258 30.789128269416324)"><path d="M15.39 0 C94.71 1.01, 175.16 -0.58, 265.43 0 M15.39 0 C104.63 1.23, 195.72 2.23, 265.43 0 M265.43 0 C275.86 1.34, 279.18 3.77, 280.82 15.39 M265.43 0 C274.31 -1.17, 279.27 3.42, 280.82 15.39 M280.82 15.39 C282.86 23.12, 282.15 27.97, 280.82 46.18 M280.82 15.39 C280.11 28.27, 281.43 39.01, 280.82 46.18 M280.82 46.18 C280.45 58.22, 275.15 62.51, 265.43 61.58 M280.82 46.18 C281.48 56.02, 277.58 61.49, 265.43 61.58 M265.43 61.58 C186.03 59.85, 103.72 59.34, 15.39 61.58 M265.43 61.58 C204.59 62.71, 143.93 62.4, 15.39 61.58 M15.39 61.58 C5.49 61.71, -1.84 55.02, 0 46.18 M15.39 61.58 C4.7 63.31, -1.97 58.25, 0 46.18 M0 46.18 C0.9 38.2, -0.9 31.79, 0 15.39 M0 46.18 C0.37 38.29, 0.96 27.93, 0 15.39 M0 15.39 C0.24 6.66, 5.77 0.33, 15.39 0 M0 15.39 C1.76 5.06, 5.92 0.2, 15.39 0" stroke="#1971c2" stroke-width="1" fill="none"></path></g><g transform="translate(1720.7976428652587 1084.4250701893966) rotate(0 131.18988037109375 25)"><text x="131.18988037109375" y="0" font-family="Virgil, Segoe UI Emoji" font-size="20px" fill="#1971c2" text-anchor="middle" style="white-space: pre;" direction="ltr" dominant-baseline="text-before-edge">pass the subroot path </text><text x="131.18988037109375" y="25" font-family="Virgil, Segoe UI Emoji" font-size="20px" fill="#1971c2" text-anchor="middle" style="white-space: pre;" direction="ltr" dominant-baseline="text-before-edge">elements to the component</text></g><g stroke-linecap="round" transform="translate(1725.0443007198796 1164.293021471969) rotate(0 140.41042912247258 67.5)"><path d="M32 0 C86.73 -0.46, 143.78 0.91, 248.82 0 M32 0 C96.89 0.67, 163.35 0.3, 248.82 0 M248.82 0 C270.88 0.45, 281.6 9.27, 280.82 32 M248.82 0 C269.06 1.97, 279.61 10.97, 280.82 32 M280.82 32 C282.39 59.98, 282.2 86.92, 280.82 103 M280.82 32 C279.91 53.14, 281.07 73.96, 280.82 103 M280.82 103 C280.45 123.17, 269.14 136.29, 248.82 135 M280.82 103 C281.36 123.97, 269.79 134.85, 248.82 135 M248.82 135 C182.52 135.03, 113.49 133.03, 32 135 M248.82 135 C168.22 135.98, 87.95 136.88, 32 135 M32 135 C10.84 136.96, 1.73 123.88, 0 103 M32 135 C9 135, -1.08 126.55, 0 103 M0 103 C1.05 76.51, 1.55 50.31, 0 32 M0 103 C-0.31 85.81, -0.05 69.89, 0 32 M0 32 C0.97 12.05, 10.2 0.06, 32 0 M0 32 C-1.62 10.24, 10.7 0.94, 32 0" stroke="#1971c2" stroke-width="1" fill="none"></path></g><g transform="translate(1737.4848354331725 1169.293021471969) rotate(0 127.96989440917969 62.5)"><text x="127.96989440917969" y="0" font-family="Virgil, Segoe UI Emoji" font-size="20px" fill="#1971c2" text-anchor="middle" style="white-space: pre;" direction="ltr" dominant-baseline="text-before-edge">pass the batch path </text><text x="127.96989440917969" y="25" font-family="Virgil, Segoe UI Emoji" font-size="20px" fill="#1971c2" text-anchor="middle" style="white-space: pre;" direction="ltr" dominant-baseline="text-before-edge">indices generated using </text><text x="127.96989440917969" y="50" font-family="Virgil, Segoe UI Emoji" font-size="20px" fill="#1971c2" text-anchor="middle" style="white-space: pre;" direction="ltr" dominant-baseline="text-before-edge">QuinGeneratePathIndices </text><text x="127.96989440917969" y="75" font-family="Virgil, Segoe UI Emoji" font-size="20px" fill="#1971c2" text-anchor="middle" style="white-space: pre;" direction="ltr" dominant-baseline="text-before-edge">(index is the </text><text x="127.96989440917969" y="100" font-family="Virgil, Segoe UI Emoji" font-size="20px" fill="#1971c2" text-anchor="middle" style="white-space: pre;" direction="ltr" dominant-baseline="text-before-edge">batchStartIndex)</text></g><g stroke-linecap="round" transform="translate(1382.996737543731 795.2693465965505) rotate(0 110.05757116156974 55)"><path d="M27.5 0 C63.6 0.62, 97.43 1.28, 192.62 0 M27.5 0 C67.5 1.29, 107.59 0.27, 192.62 0 M192.62 0 C212.88 0.52, 218.27 10.55, 220.12 27.5 M192.62 0 C208.69 1.33, 219.64 8, 220.12 27.5 M220.12 27.5 C221.85 46.67, 221.83 64.34, 220.12 82.5 M220.12 27.5 C219.66 42.06, 220.83 54.49, 220.12 82.5 M220.12 82.5 C218.94 100.57, 210.56 109.79, 192.62 110 M220.12 82.5 C218.76 99.23, 209.97 107.97, 192.62 110 M192.62 110 C137.42 110.41, 82.12 107.57, 27.5 110 M192.62 110 C154.07 110.29, 117.05 108.99, 27.5 110 M27.5 110 C8.1 111.85, -1.88 99.03, 0 82.5 M27.5 110 C10.58 109.59, 0.32 101.37, 0 82.5 M0 82.5 C-0.98 70.64, -0.84 55.77, 0 27.5 M0 82.5 C1.16 63.54, 0.65 46.11, 0 27.5 M0 27.5 C-0.17 10.33, 8.84 1.58, 27.5 0 M0 27.5 C-1.67 8.02, 7.34 1.55, 27.5 0" stroke="#1971c2" stroke-width="1" fill="none"></path></g><g transform="translate(1388.6943920182894 800.2693465965505) rotate(0 104.35991668701172 50)"><text x="104.35991668701172" y="0" font-family="Virgil, Segoe UI Emoji" font-size="20px" fill="#1971c2" text-anchor="middle" style="white-space: pre;" direction="ltr" dominant-baseline="text-before-edge">7. Extract the public</text><text x="104.35991668701172" y="25" font-family="Virgil, Segoe UI Emoji" font-size="20px" fill="#1971c2" text-anchor="middle" style="white-space: pre;" direction="ltr" dominant-baseline="text-before-edge">key from the </text><text x="104.35991668701172" y="50" font-family="Virgil, Segoe UI Emoji" font-size="20px" fill="#1971c2" text-anchor="middle" style="white-space: pre;" direction="ltr" dominant-baseline="text-before-edge">coordinator's private</text><text x="104.35991668701172" y="75" font-family="Virgil, Segoe UI Emoji" font-size="20px" fill="#1971c2" text-anchor="middle" style="white-space: pre;" direction="ltr" dominant-baseline="text-before-edge">key</text></g><g transform="translate(920.2439679376075 830.8276667722654) rotate(0 172.6898651123047 25)"><text x="0" y="0" font-family="Virgil, Segoe UI Emoji" font-size="20px" fill="#1e1e1e" text-anchor="start" style="white-space: pre;" direction="ltr" dominant-baseline="text-before-edge">May only be run by the coordinator</text><text x="0" y="25" font-family="Virgil, Segoe UI Emoji" font-size="20px" fill="#1e1e1e" text-anchor="start" style="white-space: pre;" direction="ltr" dominant-baseline="text-before-edge">as it requires their private key</text></g><g stroke-linecap="round" transform="translate(1388.4304776681092 938.3872595308295) rotate(0 110.05757116156974 55)"><path d="M27.5 0 C77.53 0.28, 129.04 -2.55, 192.62 0 M27.5 0 C94.32 2.35, 159.77 1.97, 192.62 0 M192.62 0 C211.45 -1.48, 220.96 10.63, 220.12 27.5 M192.62 0 C210.51 2.18, 219.44 8.31, 220.12 27.5 M220.12 27.5 C221.04 44.07, 222.39 62.45, 220.12 82.5 M220.12 27.5 C219.96 40.61, 219.74 52.25, 220.12 82.5 M220.12 82.5 C221.03 99.57, 210.47 110.8, 192.62 110 M220.12 82.5 C220.96 100.75, 211.1 107.72, 192.62 110 M192.62 110 C153.9 111.96, 110.88 109.83, 27.5 110 M192.62 110 C153.41 110.12, 112.29 110.01, 27.5 110 M27.5 110 C10.82 110.11, -0.1 101.24, 0 82.5 M27.5 110 C7.76 109.23, 0.25 102.97, 0 82.5 M0 82.5 C-2.3 66.05, -1.25 49.43, 0 27.5 M0 82.5 C-1.02 61.45, 0.68 40.23, 0 27.5 M0 27.5 C1.63 10.15, 9.85 -1.21, 27.5 0 M0 27.5 C-0.77 11.06, 8.33 -2.04, 27.5 0" stroke="#1971c2" stroke-width="1" fill="none"></path></g><g transform="translate(1402.0981333633708 943.3872595308295) rotate(0 96.3899154663086 50)"><text x="96.3899154663086" y="0" font-family="Virgil, Segoe UI Emoji" font-size="20px" fill="#1971c2" text-anchor="middle" style="white-space: pre;" direction="ltr" dominant-baseline="text-before-edge">8. Decrypt each </text><text x="96.3899154663086" y="25" font-family="Virgil, Segoe UI Emoji" font-size="20px" fill="#1971c2" text-anchor="middle" style="white-space: pre;" direction="ltr" dominant-baseline="text-before-edge">message into a </text><text x="96.3899154663086" y="50" font-family="Virgil, Segoe UI Emoji" font-size="20px" fill="#1971c2" text-anchor="middle" style="white-space: pre;" direction="ltr" dominant-baseline="text-before-edge">command using </text><text x="96.3899154663086" y="75" font-family="Virgil, Segoe UI Emoji" font-size="20px" fill="#1971c2" text-anchor="middle" style="white-space: pre;" direction="ltr" dominant-baseline="text-before-edge">MessageToCommand</text></g><g stroke-linecap="round" transform="translate(1385.6683329708121 1079.3430632977615) rotate(0 110.05757116156974 55)"><path d="M27.5 0 C83.4 2.7, 135.18 0.15, 192.62 0 M27.5 0 C66.3 -0.29, 105.52 -1.47, 192.62 0 M192.62 0 C209.83 -0.09, 220.8 7.71, 220.12 27.5 M192.62 0 C209.75 2.11, 222.23 9.35, 220.12 27.5 M220.12 27.5 C220.61 47.04, 221.17 67.2, 220.12 82.5 M220.12 27.5 C219.5 47.88, 220.48 65.75, 220.12 82.5 M220.12 82.5 C221.95 99.12, 211.6 110.93, 192.62 110 M220.12 82.5 C217.98 101.56, 209.58 110.92, 192.62 110 M192.62 110 C150.78 108.38, 110.18 107.31, 27.5 110 M192.62 110 C155.31 109.2, 116.96 109.17, 27.5 110 M27.5 110 C8.55 110.51, 0.45 100.23, 0 82.5 M27.5 110 C10.7 108.34, 0.35 99.82, 0 82.5 M0 82.5 C1.08 67.95, 1.06 53.69, 0 27.5 M0 82.5 C-1.01 67.62, -0.68 53.14, 0 27.5 M0 27.5 C-1.44 10.3, 8.42 -1.76, 27.5 0 M0 27.5 C-1.15 9.87, 8.23 -0.39, 27.5 0" stroke="#1971c2" stroke-width="1" fill="none"></path></g><g transform="translate(1395.5559898867768 1096.8430632977615) rotate(0 100.16991424560547 37.5)"><text x="100.16991424560547" y="0" font-family="Virgil, Segoe UI Emoji" font-size="20px" fill="#1971c2" text-anchor="middle" style="white-space: pre;" direction="ltr" dominant-baseline="text-before-edge">9. Start processing </text><text x="100.16991424560547" y="25" font-family="Virgil, Segoe UI Emoji" font-size="20px" fill="#1971c2" text-anchor="middle" style="white-space: pre;" direction="ltr" dominant-baseline="text-before-edge">the messages in </text><text x="100.16991424560547" y="50" font-family="Virgil, Segoe UI Emoji" font-size="20px" fill="#1971c2" text-anchor="middle" style="white-space: pre;" direction="ltr" dominant-baseline="text-before-edge">reverse order</text></g><g stroke-linecap="round" transform="translate(927.8084003412005 928.0740741723101) rotate(0 140.41042912247258 67.5)"><path d="M32 0 C79.41 -0.01, 125.62 -0.63, 248.82 0 M32 0 C96.48 0.7, 159.71 0.65, 248.82 0 M248.82 0 C271.28 -1.15, 281.67 9.62, 280.82 32 M248.82 0 C270.33 -0.86, 281.26 11.26, 280.82 32 M280.82 32 C281.9 52.09, 280.35 71.62, 280.82 103 M280.82 32 C280.93 59.9, 280.86 87.3, 280.82 103 M280.82 103 C279.23 125.89, 269.28 134.39, 248.82 135 M280.82 103 C281.73 123.19, 272.26 136.9, 248.82 135 M248.82 135 C193.83 134.73, 135.6 133.42, 32 135 M248.82 135 C189.61 136.42, 131.32 136.29, 32 135 M32 135 C11.87 135.93, -1.89 126.03, 0 103 M32 135 C10.92 132.87, -0.43 125.94, 0 103 M0 103 C-1.21 77.72, 1.45 52.27, 0 32 M0 103 C-0.12 77.72, 0.82 53.24, 0 32 M0 32 C1.04 9.81, 9.82 -0.69, 32 0 M0 32 C0.49 11.26, 9.85 1.29, 32 0" stroke="#1971c2" stroke-width="1" fill="none"></path></g><g transform="translate(933.3489411580094 970.5740741723101) rotate(0 134.86988830566406 25)"><text x="134.86988830566406" y="0" font-family="Virgil, Segoe UI Emoji" font-size="20px" fill="#1971c2" text-anchor="middle" style="white-space: pre;" direction="ltr" dominant-baseline="text-before-edge">we loop from batchSize - 1 </text><text x="134.86988830566406" y="25" font-family="Virgil, Segoe UI Emoji" font-size="20px" fill="#1971c2" text-anchor="middle" style="white-space: pre;" direction="ltr" dominant-baseline="text-before-edge">to 0 in revere order</text></g><g stroke-linecap="round" transform="translate(763.0408777583552 1078.8175481502867) rotate(0 136.40602275339097 51.1996032310949)"><path d="M25.6 0 C72.18 0.07, 119.35 -0.15, 247.21 0 M25.6 0 C112.06 0.65, 199.72 -0.03, 247.21 0 M247.21 0 C263.75 0.86, 272.84 10.33, 272.81 25.6 M247.21 0 C262.65 2.09, 272.2 9.7, 272.81 25.6 M272.81 25.6 C274.79 42.45, 274.01 57.41, 272.81 76.8 M272.81 25.6 C273.19 40.74, 273.94 54.14, 272.81 76.8 M272.81 76.8 C272.4 94.22, 266.2 104.16, 247.21 102.4 M272.81 76.8 C274.11 95.91, 262.82 101.07, 247.21 102.4 M247.21 102.4 C188.68 101.28, 132.9 102.84, 25.6 102.4 M247.21 102.4 C187 102.54, 127.28 103.59, 25.6 102.4 M25.6 102.4 C9.33 101.09, -0.54 92.1, 0 76.8 M25.6 102.4 C6.34 103.38, 0.06 94.72, 0 76.8 M0 76.8 C-1.68 58.98, -0.27 37.3, 0 25.6 M0 76.8 C0.29 66.31, 0.66 54.9, 0 25.6 M0 25.6 C-1.08 10.23, 9.9 -0.8, 25.6 0 M0 25.6 C2.3 8.91, 6.93 0.45, 25.6 0" stroke="#1971c2" stroke-width="1" fill="none"></path></g><g transform="translate(786.1970149526642 1105.0171513813816) rotate(0 113.24988555908203 25)"><text x="113.24988555908203" y="0" font-family="Virgil, Segoe UI Emoji" font-size="20px" fill="#1971c2" text-anchor="middle" style="white-space: pre;" direction="ltr" dominant-baseline="text-before-edge">use ProcessOne to </text><text x="113.24988555908203" y="25" font-family="Virgil, Segoe UI Emoji" font-size="20px" fill="#1971c2" text-anchor="middle" style="white-space: pre;" direction="ltr" dominant-baseline="text-before-edge">process vote messages</text></g><g stroke-linecap="round" transform="translate(1060.1702344118194 1084.60907560931) rotate(0 123.47151653161836 49.192839219254324)"><path d="M24.6 0 C99.74 1.8, 176.8 0.82, 222.35 0 M24.6 0 C73.42 0.18, 123.38 -0.15, 222.35 0 M222.35 0 C239.15 0.64, 248.18 7.37, 246.94 24.6 M222.35 0 C238.66 1.52, 246.66 7.82, 246.94 24.6 M246.94 24.6 C247.08 36.84, 248.05 49.07, 246.94 73.79 M246.94 24.6 C246.72 38.04, 246.63 50.01, 246.94 73.79 M246.94 73.79 C247.82 89.1, 238.13 98.47, 222.35 98.39 M246.94 73.79 C246.17 89.03, 238.88 100.15, 222.35 98.39 M222.35 98.39 C160.78 100.36, 102.04 100.07, 24.6 98.39 M222.35 98.39 C161.44 96.07, 98.02 96.47, 24.6 98.39 M24.6 98.39 C6.22 97.28, 0.89 90.02, 0 73.79 M24.6 98.39 C9.33 96.36, -0.9 92.42, 0 73.79 M0 73.79 C0.2 60.76, -1.1 46.75, 0 24.6 M0 73.79 C-0.35 63.73, -0.64 51.55, 0 24.6 M0 24.6 C-0.33 8.64, 7.69 -1.7, 24.6 0 M0 24.6 C-0.38 10.32, 8.15 1.68, 24.6 0" stroke="#1971c2" stroke-width="1" fill="none"></path></g><g transform="translate(1065.5518766758596 1108.8019148285643) rotate(0 118.08987426757812 25)"><text x="118.08987426757812" y="0" font-family="Virgil, Segoe UI Emoji" font-size="20px" fill="#1971c2" text-anchor="middle" style="white-space: pre;" direction="ltr" dominant-baseline="text-before-edge">use ProcessTopup to </text><text x="118.08987426757812" y="25" font-family="Virgil, Segoe UI Emoji" font-size="20px" fill="#1971c2" text-anchor="middle" style="white-space: pre;" direction="ltr" dominant-baseline="text-before-edge">process topup messages</text></g><g stroke-linecap="round"><g transform="translate(1368.5535118386333 1115.1630835758879) rotate(0 -71.14398117885275 -62.63349984943102)"><path d="M0.14 -0.86 C-23.58 -21.89, -119.5 -104.62, -143.41 -125.43 M-1.24 1.3 C-24.52 -19.6, -118 -102.98, -141.29 -123.98" stroke="#1e1e1e" stroke-width="2" fill="none"></path></g><g transform="translate(1368.5535118386333 1115.1630835758879) rotate(0 -71.14398117885275 -62.63349984943102)"><path d="M-113.45 -112.8 C-120.85 -117.02, -125.59 -119.27, -141.29 -123.98 M-113.45 -112.8 C-121.06 -116.83, -128.59 -119.69, -141.29 -123.98" stroke="#1e1e1e" stroke-width="2" fill="none"></path></g><g transform="translate(1368.5535118386333 1115.1630835758879) rotate(0 -71.14398117885275 -62.63349984943102)"><path d="M-127.15 -97.52 C-131.74 -104.99, -133.57 -110.48, -141.29 -123.98 M-127.15 -97.52 C-131.16 -105.47, -135.12 -112.31, -141.29 -123.98" stroke="#1e1e1e" stroke-width="2" fill="none"></path></g></g><mask></mask><g stroke-linecap="round" transform="translate(917.6238021772124 1203.5611584259286) rotate(0 140.41042912247258 67.5)"><path d="M32 0 C76.96 -0.01, 122.34 1.72, 248.82 0 M32 0 C94.39 0.85, 156.59 0.59, 248.82 0 M248.82 0 C269.76 1.98, 281.53 10.3, 280.82 32 M248.82 0 C271.06 -2.15, 279.4 10.46, 280.82 32 M280.82 32 C282.27 48.78, 279.07 68.26, 280.82 103 M280.82 32 C280.72 55.78, 281.69 79.73, 280.82 103 M280.82 103 C282.01 124.39, 270.04 135.45, 248.82 135 M280.82 103 C279.63 124.65, 271.65 136.75, 248.82 135 M248.82 135 C172.82 134.69, 98.67 135.29, 32 135 M248.82 135 C187.33 133.35, 124.93 134.34, 32 135 M32 135 C9.86 136.85, 1.21 125.66, 0 103 M32 135 C10.08 136.8, 1.73 126.07, 0 103 M0 103 C0.17 80.85, -1.01 61.71, 0 32 M0 103 C1.29 74.73, 1.26 46.6, 0 32 M0 32 C0.16 9.74, 11.54 -0.59, 32 0 M0 32 C-1.02 10.26, 10.12 1.26, 32 0" stroke="#1971c2" stroke-width="1" fill="none"></path></g><g transform="translate(923.9443570321073 1246.0611584259286) rotate(0 134.08987426757812 25)"><text x="134.08987426757812" y="0" font-family="Virgil, Segoe UI Emoji" font-size="20px" fill="#1971c2" text-anchor="middle" style="white-space: pre;" direction="ltr" dominant-baseline="text-before-edge">we pick the correct result </text><text x="134.08987426757812" y="25" font-family="Virgil, Segoe UI Emoji" font-size="20px" fill="#1971c2" text-anchor="middle" style="white-space: pre;" direction="ltr" dominant-baseline="text-before-edge">by message type</text></g><g stroke-linecap="round" transform="translate(1388.1983653173047 1214.3786232618413) rotate(0 110.05757116156974 55)"><path d="M27.5 0 C93.79 1.64, 158.9 1.28, 192.62 0 M27.5 0 C72.37 -0.03, 117.67 0.13, 192.62 0 M192.62 0 C212.82 -0.07, 219.81 10.78, 220.12 27.5 M192.62 0 C210.6 1.58, 222.23 7.06, 220.12 27.5 M220.12 27.5 C219.27 44.41, 218.9 58.99, 220.12 82.5 M220.12 27.5 C220.15 48.3, 220.67 69.03, 220.12 82.5 M220.12 82.5 C221.23 100.02, 209.89 108.2, 192.62 110 M220.12 82.5 C220.01 100.48, 210.64 108.1, 192.62 110 M192.62 110 C142.99 109.84, 92.43 108.95, 27.5 110 M192.62 110 C128.86 111.21, 64.81 111.14, 27.5 110 M27.5 110 C10.15 110.12, 0.12 102.34, 0 82.5 M27.5 110 C8.55 111.78, -0.2 99.93, 0 82.5 M0 82.5 C-1.9 65.27, -2.09 50.76, 0 27.5 M0 82.5 C-0.92 68.02, -0.54 53.81, 0 27.5 M0 27.5 C-0.64 7.88, 10.83 -1.04, 27.5 0 M0 27.5 C0.49 9.88, 7.97 -0.46, 27.5 0" stroke="#1971c2" stroke-width="1" fill="none"></path></g><g transform="translate(1408.0059975140312 1231.8786232618413) rotate(0 90.24993896484375 37.5)"><text x="90.24993896484375" y="0" font-family="Virgil, Segoe UI Emoji" font-size="20px" fill="#1971c2" text-anchor="middle" style="white-space: pre;" direction="ltr" dominant-baseline="text-before-edge">10. Calculate the </text><text x="90.24993896484375" y="25" font-family="Virgil, Segoe UI Emoji" font-size="20px" fill="#1971c2" text-anchor="middle" style="white-space: pre;" direction="ltr" dominant-baseline="text-before-edge">state and ballot </text><text x="90.24993896484375" y="50" font-family="Virgil, Segoe UI Emoji" font-size="20px" fill="#1971c2" text-anchor="middle" style="white-space: pre;" direction="ltr" dominant-baseline="text-before-edge">root commitment</text></g><g stroke-linecap="round" transform="translate(1699.1521358639961 1348.0927928461329) rotate(0 140.41042912247258 67.5)"><path d="M32 0 C87.43 -0.17, 141.65 0.55, 248.82 0 M32 0 C110.46 1.93, 188 2.26, 248.82 0 M248.82 0 C272.12 -0.07, 281.64 10.35, 280.82 32 M248.82 0 C272.04 1.93, 280.78 9.41, 280.82 32 M280.82 32 C279.77 46.07, 281.33 61.27, 280.82 103 M280.82 32 C280.05 52.61, 280.87 72.67, 280.82 103 M280.82 103 C279.64 123.56, 269.85 135.41, 248.82 135 M280.82 103 C281.77 125.84, 268.05 132.78, 248.82 135 M248.82 135 C179.37 133.13, 108.95 133.37, 32 135 M248.82 135 C163.46 135.87, 79.62 134.89, 32 135 M32 135 C9.38 135.31, 0.3 123.91, 0 103 M32 135 C11.12 136.45, 0.03 126.63, 0 103 M0 103 C0.59 84.81, 1.24 67.74, 0 32 M0 103 C0.1 81.91, 1.31 61.48, 0 32 M0 32 C1.18 10.35, 10.99 -1.4, 32 0 M0 32 C-1.06 9.47, 10.87 -0.85, 32 0" stroke="#1971c2" stroke-width="1" fill="none"></path></g><g transform="translate(1728.4826547081484 1390.5927928461329) rotate(0 111.07991027832031 25)"><text x="111.07991027832031" y="0" font-family="Virgil, Segoe UI Emoji" font-size="20px" fill="#1971c2" text-anchor="middle" style="white-space: pre;" direction="ltr" dominant-baseline="text-before-edge">hash(stateRoot, </text><text x="111.07991027832031" y="25" font-family="Virgil, Segoe UI Emoji" font-size="20px" fill="#1971c2" text-anchor="middle" style="white-space: pre;" direction="ltr" dominant-baseline="text-before-edge">ballotRoot, newSbSalt)</text></g><g stroke-linecap="round"><g transform="translate(1631.1580670227472 1268.2882416096272) rotate(0 36.684443367599215 30.41477955093069)"><path d="M-1.11 -0.76 C11.36 9.14, 61.52 49.57, 74.06 59.68 M0.51 1.45 C12.95 11.44, 61.27 50.73, 73.47 60.61" stroke="#1e1e1e" stroke-width="2" fill="none"></path></g><g transform="translate(1631.1580670227472 1268.2882416096272) rotate(0 36.684443367599215 30.41477955093069)"><path d="M45.12 50.81 C50.48 54.51, 56.45 56.87, 73.47 60.61 M45.12 50.81 C51.16 52.53, 57.17 55.59, 73.47 60.61" stroke="#1e1e1e" stroke-width="2" fill="none"></path></g><g transform="translate(1631.1580670227472 1268.2882416096272) rotate(0 36.684443367599215 30.41477955093069)"><path d="M58.05 34.88 C60.43 42.18, 63.38 48.26, 73.47 60.61 M58.05 34.88 C61.09 40.11, 64.22 46.72, 73.47 60.61" stroke="#1e1e1e" stroke-width="2" fill="none"></path></g></g><mask></mask><g stroke-linecap="round" transform="translate(1390.9049073209135 1343.6276378637117) rotate(0 110.05757116156974 80)"><path d="M32 0 C66.77 -0.13, 97.51 -1.34, 188.12 0 M32 0 C88.23 0.62, 144.81 -0.14, 188.12 0 M188.12 0 C210.31 1.29, 220.7 8.7, 220.12 32 M188.12 0 C210.02 -2.23, 221.22 10.91, 220.12 32 M220.12 32 C221.54 60.54, 221.93 83.66, 220.12 128 M220.12 32 C220.57 53.72, 219.16 74.85, 220.12 128 M220.12 128 C219.55 148.53, 209.79 161.48, 188.12 160 M220.12 128 C219.22 150.97, 207.9 158.93, 188.12 160 M188.12 160 C152.15 161.46, 116.77 161.91, 32 160 M188.12 160 C137.63 158.31, 88.45 159.64, 32 160 M32 160 C10.75 160.12, 1.77 150.32, 0 128 M32 160 C9.25 157.85, 1.49 150.94, 0 128 M0 128 C-1.31 94.89, -0.29 59.19, 0 32 M0 128 C-0.16 102.63, -0.47 76.52, 0 32 M0 32 C-1.87 10.05, 9.87 0.8, 32 0 M0 32 C-0.41 10.9, 9.12 2.16, 32 0" stroke="#1971c2" stroke-width="1" fill="none"></path></g><g transform="translate(1398.7425764439095 1348.6276378637117) rotate(0 102.21990203857422 75)"><text x="102.21990203857422" y="0" font-family="Virgil, Segoe UI Emoji" font-size="20px" fill="#1971c2" text-anchor="middle" style="white-space: pre;" direction="ltr" dominant-baseline="text-before-edge">11. Check that the </text><text x="102.21990203857422" y="25" font-family="Virgil, Segoe UI Emoji" font-size="20px" fill="#1971c2" text-anchor="middle" style="white-space: pre;" direction="ltr" dominant-baseline="text-before-edge">provided commitment </text><text x="102.21990203857422" y="50" font-family="Virgil, Segoe UI Emoji" font-size="20px" fill="#1971c2" text-anchor="middle" style="white-space: pre;" direction="ltr" dominant-baseline="text-before-edge">(newSbCommitment)</text><text x="102.21990203857422" y="75" font-family="Virgil, Segoe UI Emoji" font-size="20px" fill="#1971c2" text-anchor="middle" style="white-space: pre;" direction="ltr" dominant-baseline="text-before-edge">matches the </text><text x="102.21990203857422" y="100" font-family="Virgil, Segoe UI Emoji" font-size="20px" fill="#1971c2" text-anchor="middle" style="white-space: pre;" direction="ltr" dominant-baseline="text-before-edge">commitment </text><text x="102.21990203857422" y="125" font-family="Virgil, Segoe UI Emoji" font-size="20px" fill="#1971c2" text-anchor="middle" style="white-space: pre;" direction="ltr" dominant-baseline="text-before-edge">generated in step 10</text></g></svg>