<svg version="1.1" xmlns="http://www.w3.org/2000/svg" viewBox="0 0 1679.5630749545771 709.1643059314802" width="5038.689224863731" height="2127.4929177944405">
  <!-- svg-source:excalidraw -->
  
  <defs>
    <style class="style-fonts">
      @font-face {
        font-family: "Virgil";
        src: url("https://excalidraw.com/Virgil.woff2");
      }
      @font-face {
        font-family: "Cascadia";
        src: url("https://excalidraw.com/Cascadia.woff2");
      }
      @font-face {
        font-family: "Assistant";
        src: url("https://excalidraw.com/Assistant-Regular.woff2");
      }
    </style>
    
  </defs>
  <rect x="0" y="0" width="1679.5630749545771" height="709.1643059314802" fill="#ffffff"></rect><g stroke-linecap="round" transform="translate(318.45488347209357 174.777137313823) rotate(0 131.7047520102601 33.80052213620297)"><path d="M16.9 0 C103.31 2.26, 185.9 2.82, 246.51 0 M16.9 0 C78.12 -1.6, 138.79 -0.44, 246.51 0 M246.51 0 C257.02 -1.54, 262.82 6.12, 263.41 16.9 M246.51 0 C258.76 2.09, 263.8 7.51, 263.41 16.9 M263.41 16.9 C263.51 25.38, 263.58 32.51, 263.41 50.7 M263.41 16.9 C264.46 28.15, 264.72 41.42, 263.41 50.7 M263.41 50.7 C264.15 62.79, 259.46 65.77, 246.51 67.6 M263.41 50.7 C263.19 61.17, 259.66 68.87, 246.51 67.6 M246.51 67.6 C161.51 64.63, 72.73 65.18, 16.9 67.6 M246.51 67.6 C158.5 67.18, 69.13 67.49, 16.9 67.6 M16.9 67.6 C4.66 67.87, 0.39 62.65, 0 50.7 M16.9 67.6 C6.69 66.58, -2 60.51, 0 50.7 M0 50.7 C-0.74 45.43, 0.81 36.92, 0 16.9 M0 50.7 C0.52 40.93, 0.02 31.29, 0 16.9 M0 16.9 C-0.56 6, 5 1.01, 16.9 0 M0 16.9 C1.92 3.9, 6.17 -1.23, 16.9 0" stroke="#1971c2" stroke-width="1" fill="none"></path></g><g transform="translate(327.18974107317354 196.0776594500262) rotate(0 122.96989440917969 12.5)"><text x="122.96989440917969" y="0" font-family="Virgil, Segoe UI Emoji" font-size="20px" fill="#e03131" text-anchor="middle" style="white-space: pre;" direction="ltr" dominant-baseline="text-before-edge">QuinGeneratePathIndices</text></g><g stroke-linecap="round"><g transform="translate(420.60434368431834 124.8733668683376) rotate(0 2.896194545956405 19.89958225780424)"><path d="M0.04 -0.33 C1 6.33, 4.58 33.6, 5.51 40.22 M-0.61 0.69 C0.56 7.17, 5.64 32.96, 6.59 39.47" stroke="#1e1e1e" stroke-width="1" fill="none"></path></g><g transform="translate(420.60434368431834 124.8733668683376) rotate(0 2.896194545956405 19.89958225780424)"><path d="M-3.44 22.04 C-1.49 25.86, 2.37 30.34, 6.59 39.47 M-3.44 22.04 C-1.02 26.37, 1.09 30.2, 6.59 39.47" stroke="#1e1e1e" stroke-width="1" fill="none"></path></g><g transform="translate(420.60434368431834 124.8733668683376) rotate(0 2.896194545956405 19.89958225780424)"><path d="M10.11 19.67 C8.69 24.08, 9.18 29.15, 6.59 39.47 M10.11 19.67 C9.51 24.54, 8.6 28.91, 6.59 39.47" stroke="#1e1e1e" stroke-width="1" fill="none"></path></g></g><mask></mask><g stroke-linecap="round" transform="translate(10 180.54150129683603) rotate(0 110.05757116156974 32.17741655087593)"><path d="M16.09 0 C75.3 0.22, 129.92 0.39, 204.03 0 M16.09 0 C77.18 -0.89, 137.11 -0.88, 204.03 0 M204.03 0 C214.34 -0.18, 221.19 5.25, 220.12 16.09 M204.03 0 C215.67 1.23, 222.39 4.96, 220.12 16.09 M220.12 16.09 C221.13 28.77, 220.71 41.67, 220.12 48.27 M220.12 16.09 C220.91 23.34, 220.86 29.91, 220.12 48.27 M220.12 48.27 C218.25 60.92, 213.4 63.77, 204.03 64.35 M220.12 48.27 C219.29 60.95, 216.63 64.53, 204.03 64.35 M204.03 64.35 C137.63 62.28, 72.7 63.64, 16.09 64.35 M204.03 64.35 C140.34 62.89, 77.42 64.03, 16.09 64.35 M16.09 64.35 C3.57 63.79, 1.53 59.98, 0 48.27 M16.09 64.35 C5.17 64.23, -1.81 58.07, 0 48.27 M0 48.27 C0.95 37.24, 0.3 26.7, 0 16.09 M0 48.27 C-0.04 36.45, -1.27 26.02, 0 16.09 M0 16.09 C1.01 5.06, 6.46 -0.25, 16.09 0 M0 16.09 C-1.07 7.02, 6.97 0.15, 16.09 0" stroke="#f08c00" stroke-width="1" fill="none"></path></g><g transform="translate(35.98764776069129 200.21891784771196) rotate(0 84.0699234008789 12.5)"><text x="84.0699234008789" y="0" font-family="Virgil, Segoe UI Emoji" font-size="20px" fill="#f08c00" text-anchor="middle" style="white-space: pre;" direction="ltr" dominant-baseline="text-before-edge">parameter: levels</text></g><g transform="translate(466.0060586475129 127.42022186718214) rotate(0 31.809967041015625 12.5)"><text x="0" y="0" font-family="Virgil, Segoe UI Emoji" font-size="20px" fill="#1e1e1e" text-anchor="start" style="white-space: pre;" direction="ltr" dominant-baseline="text-before-edge">Inputs</text></g><g stroke-linecap="round"><g transform="translate(248.99317077492378 216.46189194730914) rotate(0 23.123652268284786 -2.632667694413385)"><path d="M0.23 0.5 C7.98 -0.32, 38.75 -3.93, 46.34 -4.82 M-0.31 0.28 C7.39 -0.7, 38.09 -4.56, 45.96 -5.55" stroke="#1e1e1e" stroke-width="1" fill="none"></path></g><g transform="translate(248.99317077492378 216.46189194730914) rotate(0 23.123652268284786 -2.632667694413385)"><path d="M25.25 5.07 C31.75 2.33, 37.26 -1.53, 45.96 -5.55 M25.25 5.07 C33.46 0.99, 41.31 -2.78, 45.96 -5.55" stroke="#1e1e1e" stroke-width="1" fill="none"></path></g><g transform="translate(248.99317077492378 216.46189194730914) rotate(0 23.123652268284786 -2.632667694413385)"><path d="M23.27 -10.72 C30.32 -9.2, 36.36 -8.78, 45.96 -5.55 M23.27 -10.72 C32.21 -8.76, 40.83 -6.49, 45.96 -5.55" stroke="#1e1e1e" stroke-width="1" fill="none"></path></g></g><mask></mask><g stroke-linecap="round" transform="translate(733.0608420088356 134.79952396874432) rotate(0 110.05757116156974 55)"><path d="M27.5 0 C85.7 -1.9, 142.29 -0.69, 192.62 0 M27.5 0 C75.94 0.63, 124.57 -0.08, 192.62 0 M192.62 0 C212.37 -1.4, 222.07 10.41, 220.12 27.5 M192.62 0 C211.8 0.94, 222.05 7.06, 220.12 27.5 M220.12 27.5 C221.03 45.03, 220.78 57.61, 220.12 82.5 M220.12 27.5 C219.39 50.16, 220.56 71.19, 220.12 82.5 M220.12 82.5 C221.12 99.5, 209.78 109.4, 192.62 110 M220.12 82.5 C219 101.14, 211.39 110.79, 192.62 110 M192.62 110 C134.24 106.59, 79.43 106.77, 27.5 110 M192.62 110 C147.65 110.76, 102.07 110.41, 27.5 110 M27.5 110 C9.67 110.38, -0.5 101.85, 0 82.5 M27.5 110 C8.53 110.42, -0.72 102, 0 82.5 M0 82.5 C-0.66 59.42, 1.03 41.35, 0 27.5 M0 82.5 C-0.76 67.56, 0.4 51.23, 0 27.5 M0 27.5 C0.5 8.65, 8.35 1.14, 27.5 0 M0 27.5 C-1.18 7.21, 9.78 1.58, 27.5 0" stroke="#1971c2" stroke-width="1" fill="none"></path></g><g transform="translate(744.6284916005816 139.79952396874432) rotate(0 98.48992156982422 50)"><text x="98.48992156982422" y="0" font-family="Virgil, Segoe UI Emoji" font-size="20px" fill="#1971c2" text-anchor="middle" style="white-space: pre;" direction="ltr" dominant-baseline="text-before-edge">1. Loop from 0 to </text><text x="98.48992156982422" y="25" font-family="Virgil, Segoe UI Emoji" font-size="20px" fill="#1971c2" text-anchor="middle" style="white-space: pre;" direction="ltr" dominant-baseline="text-before-edge">levels to calculate </text><text x="98.48992156982422" y="50" font-family="Virgil, Segoe UI Emoji" font-size="20px" fill="#1971c2" text-anchor="middle" style="white-space: pre;" direction="ltr" dominant-baseline="text-before-edge">the index at each </text><text x="98.48992156982422" y="75" font-family="Virgil, Segoe UI Emoji" font-size="20px" fill="#1971c2" text-anchor="middle" style="white-space: pre;" direction="ltr" dominant-baseline="text-before-edge">level of the tree</text></g><g transform="translate(604.1025580001924 152.9428424113662) rotate(0 49.669944763183594 12.5)"><text x="0" y="0" font-family="Virgil, Segoe UI Emoji" font-size="20px" fill="#1e1e1e" text-anchor="start" style="white-space: pre;" direction="ltr" dominant-baseline="text-before-edge">Processing</text></g><g stroke-linecap="round"><g transform="translate(587.1802965633333 213.57514095565148) rotate(0 53.92228869677592 -0.8472524026133215)"><path d="M0.64 -0.07 C18.74 -0.22, 90.26 -0.75, 108.33 -1.05 M-0.48 -1.15 C17.52 -1.64, 89.4 -2.91, 107.63 -2.84" stroke="#1e1e1e" stroke-width="1" fill="none"></path></g><g transform="translate(587.1802965633333 213.57514095565148) rotate(0 53.92228869677592 -0.8472524026133215)"><path d="M79.53 7.66 C87.28 5.38, 96.32 3.62, 107.63 -2.84 M79.53 7.66 C88.37 5.51, 95.69 2.34, 107.63 -2.84" stroke="#1e1e1e" stroke-width="1" fill="none"></path></g><g transform="translate(587.1802965633333 213.57514095565148) rotate(0 53.92228869677592 -0.8472524026133215)"><path d="M79.35 -12.86 C87.14 -9.41, 96.22 -5.43, 107.63 -2.84 M79.35 -12.86 C88.39 -9.21, 95.76 -6.59, 107.63 -2.84" stroke="#1e1e1e" stroke-width="1" fill="none"></path></g></g><mask></mask><g stroke-linecap="round" transform="translate(324.24438275414013 36.243804616440684) rotate(0 110.05757116156974 32.17741655087593)"><path d="M16.09 0 C83.64 1.23, 148.69 0.67, 204.03 0 M16.09 0 C59.7 -0.76, 103.42 -2.08, 204.03 0 M204.03 0 C214.56 -0.69, 221.76 6.47, 220.12 16.09 M204.03 0 C216.53 0.98, 217.98 7.58, 220.12 16.09 M220.12 16.09 C221.72 25.2, 220.17 32.04, 220.12 48.27 M220.12 16.09 C219.44 23.74, 220.12 31.46, 220.12 48.27 M220.12 48.27 C221.03 58.11, 213.01 63.08, 204.03 64.35 M220.12 48.27 C217.85 60.17, 212.7 63.71, 204.03 64.35 M204.03 64.35 C133.13 62.62, 61.64 64.7, 16.09 64.35 M204.03 64.35 C143.79 65.49, 83.79 65.81, 16.09 64.35 M16.09 64.35 C7.03 62.85, 0.46 57.92, 0 48.27 M16.09 64.35 C3.06 65.06, 1.16 58.64, 0 48.27 M0 48.27 C1.48 38.25, 0.17 25.95, 0 16.09 M0 48.27 C-0.38 38.6, 0.4 31.32, 0 16.09 M0 16.09 C-0.02 4.95, 6.7 -1.38, 16.09 0 M0 16.09 C0.95 3.31, 4.56 2.11, 16.09 0" stroke="#1971c2" stroke-width="1" fill="none"></path></g><g transform="translate(382.5420051852416 55.92122116731662) rotate(0 51.75994873046875 12.5)"><text x="51.75994873046875" y="0" font-family="Virgil, Segoe UI Emoji" font-size="20px" fill="#1971c2" text-anchor="middle" style="white-space: pre;" direction="ltr" dominant-baseline="text-before-edge">input index</text></g><g transform="translate(507.6467641010968 272.6975707965321) rotate(0 34.84996032714844 12.5)"><text x="0" y="0" font-family="Virgil, Segoe UI Emoji" font-size="20px" fill="#1e1e1e" text-anchor="start" style="white-space: pre;" direction="ltr" dominant-baseline="text-before-edge">Output</text></g><g stroke-linecap="round"><g transform="translate(446.66589698247117 271.42721702644303) rotate(0 0.22290140994755347 20.51105751905652)"><path d="M-0.49 0.45 C-0.33 7.25, 0.34 33.91, 0.45 40.74 M0.26 0.2 C0.38 7.08, 0.11 34.56, 0.02 41.3" stroke="#1e1e1e" stroke-width="1" fill="none"></path></g><g transform="translate(446.66589698247117 271.42721702644303) rotate(0 0.22290140994755347 20.51105751905652)"><path d="M-6.78 21.95 C-4.56 26.06, -4.44 29.65, 0.02 41.3 M-6.78 21.95 C-3.68 29.42, -1.36 36.54, 0.02 41.3" stroke="#1e1e1e" stroke-width="1" fill="none"></path></g><g transform="translate(446.66589698247117 271.42721702644303) rotate(0 0.22290140994755347 20.51105751905652)"><path d="M7.25 22.1 C6.52 26.12, 3.68 29.68, 0.02 41.3 M7.25 22.1 C5.02 29.47, 2.01 36.53, 0.02 41.3" stroke="#1e1e1e" stroke-width="1" fill="none"></path></g></g><mask></mask><g stroke-linecap="round" transform="translate(349.64494313223986 338.3253493933353) rotate(0 110.05757116156974 42.5)"><path d="M21.25 0 C57.64 -0.97, 97.66 1.68, 198.87 0 M21.25 0 C63.16 -0.61, 104.46 0.08, 198.87 0 M198.87 0 C211.22 -0.71, 221.96 8.08, 220.12 21.25 M198.87 0 C212.21 1.45, 220.52 4.84, 220.12 21.25 M220.12 21.25 C220.89 35.29, 218.54 48.94, 220.12 63.75 M220.12 21.25 C219.26 32.62, 221.07 44.69, 220.12 63.75 M220.12 63.75 C218.98 77.12, 211.24 84.74, 198.87 85 M220.12 63.75 C218.51 76.29, 213.46 83.46, 198.87 85 M198.87 85 C127.22 84.2, 56.17 86.5, 21.25 85 M198.87 85 C137.09 85.08, 76.31 85.11, 21.25 85 M21.25 85 C7.53 84.07, 1.23 78.85, 0 63.75 M21.25 85 C7.84 83.11, -1.25 77.71, 0 63.75 M0 63.75 C-1.58 54.71, -0.19 43.15, 0 21.25 M0 63.75 C-0.35 49.22, -1.05 36.42, 0 21.25 M0 21.25 C1.29 6.11, 5.62 -0.6, 21.25 0 M0 21.25 C1.7 8.14, 6.56 -1.99, 21.25 0" stroke="#1971c2" stroke-width="1" fill="none"></path></g><g transform="translate(357.12260401548974 343.3253493933353) rotate(0 102.57991027832031 37.5)"><text x="102.57991027832031" y="0" font-family="Virgil, Segoe UI Emoji" font-size="20px" fill="#2f9e44" text-anchor="middle" style="white-space: pre;" direction="ltr" dominant-baseline="text-before-edge">out (array of len </text><text x="102.57991027832031" y="25" font-family="Virgil, Segoe UI Emoji" font-size="20px" fill="#2f9e44" text-anchor="middle" style="white-space: pre;" direction="ltr" dominant-baseline="text-before-edge">levels) containing the</text><text x="102.57991027832031" y="50" font-family="Virgil, Segoe UI Emoji" font-size="20px" fill="#2f9e44" text-anchor="middle" style="white-space: pre;" direction="ltr" dominant-baseline="text-before-edge">indices</text></g><g stroke-linecap="round" transform="translate(1025.8455344999384 10) rotate(0 110.05757116156974 55)"><path d="M27.5 0 C67.4 0.46, 109.31 1.31, 192.62 0 M27.5 0 C65.67 2.11, 105.16 0.62, 192.62 0 M192.62 0 C212.6 -0.5, 220.24 9.61, 220.12 27.5 M192.62 0 C211.42 -0.12, 219.98 10.64, 220.12 27.5 M220.12 27.5 C220.4 45.17, 219.44 60.93, 220.12 82.5 M220.12 27.5 C220.09 48.86, 221.49 71.96, 220.12 82.5 M220.12 82.5 C222.06 102.59, 209.15 108.1, 192.62 110 M220.12 82.5 C220.94 99.13, 210.21 111.59, 192.62 110 M192.62 110 C140.52 110.07, 92.39 111.93, 27.5 110 M192.62 110 C130.71 109.82, 68.91 109.58, 27.5 110 M27.5 110 C10.6 109.92, 0.28 100.93, 0 82.5 M27.5 110 C7.05 111.63, -1.36 102.89, 0 82.5 M0 82.5 C-0.92 71.63, 1.06 59.62, 0 27.5 M0 82.5 C0.03 67.51, 0.23 54.74, 0 27.5 M0 27.5 C-1.85 10.59, 8.84 -1.45, 27.5 0 M0 27.5 C0.54 9.42, 8.62 0.63, 27.5 0" stroke="#1971c2" stroke-width="1" fill="none"></path></g><g transform="translate(1040.4931935521336 27.5) rotate(0 95.409912109375 37.5)"><text x="95.409912109375" y="0" font-family="Virgil, Segoe UI Emoji" font-size="20px" fill="#1971c2" text-anchor="middle" style="white-space: pre;" direction="ltr" dominant-baseline="text-before-edge">divide the input by </text><text x="95.409912109375" y="25" font-family="Virgil, Segoe UI Emoji" font-size="20px" fill="#1971c2" text-anchor="middle" style="white-space: pre;" direction="ltr" dominant-baseline="text-before-edge">the base (5) and </text><text x="95.409912109375" y="50" font-family="Virgil, Segoe UI Emoji" font-size="20px" fill="#1971c2" text-anchor="middle" style="white-space: pre;" direction="ltr" dominant-baseline="text-before-edge">take the remainder</text></g><g stroke-linecap="round" transform="translate(1067.5046530008312 129.24746547211817) rotate(0 160.3725809135508 84.21975537686558)"><path d="M32 0 C120.22 -1.29, 204.38 -0.6, 288.75 0 M32 0 C128.38 -1.22, 224.24 -1.22, 288.75 0 M288.75 0 C310.43 0.25, 320.62 12.21, 320.75 32 M288.75 0 C309.79 -1.35, 319.49 11.52, 320.75 32 M320.75 32 C322.28 57.88, 320.17 83.78, 320.75 136.44 M320.75 32 C321.47 57.8, 321.7 85.06, 320.75 136.44 M320.75 136.44 C321.13 159.72, 309.35 169.18, 288.75 168.44 M320.75 136.44 C322.43 158.73, 312.27 166.48, 288.75 168.44 M288.75 168.44 C235.63 166.53, 182 166.97, 32 168.44 M288.75 168.44 C202.09 166.09, 115.77 166.22, 32 168.44 M32 168.44 C11.5 167, 0.05 157.64, 0 136.44 M32 168.44 C11.11 169.33, -2.17 159.38, 0 136.44 M0 136.44 C1.08 101.64, -2.47 71.51, 0 32 M0 136.44 C0.02 111.31, 0.6 84.97, 0 32 M0 32 C-0.89 9.06, 9.1 0.41, 32 0 M0 32 C-1.6 10.85, 9.16 -1.77, 32 0" stroke="#1971c2" stroke-width="1" fill="none"></path></g><g transform="translate(1072.8173584261003 150.96722084898374) rotate(0 155.05987548828125 62.5)"><text x="155.05987548828125" y="0" font-family="Virgil, Segoe UI Emoji" font-size="20px" fill="#1971c2" text-anchor="middle" style="white-space: pre;" direction="ltr" dominant-baseline="text-before-edge">The remainder (m % BASE) </text><text x="155.05987548828125" y="25" font-family="Virgil, Segoe UI Emoji" font-size="20px" fill="#1971c2" text-anchor="middle" style="white-space: pre;" direction="ltr" dominant-baseline="text-before-edge">gives the index at a particular</text><text x="155.05987548828125" y="50" font-family="Virgil, Segoe UI Emoji" font-size="20px" fill="#1971c2" text-anchor="middle" style="white-space: pre;" direction="ltr" dominant-baseline="text-before-edge">level, and the quotient (m \ </text><text x="155.05987548828125" y="75" font-family="Virgil, Segoe UI Emoji" font-size="20px" fill="#1971c2" text-anchor="middle" style="white-space: pre;" direction="ltr" dominant-baseline="text-before-edge">BASE) is used as the input </text><text x="155.05987548828125" y="100" font-family="Virgil, Segoe UI Emoji" font-size="20px" fill="#1971c2" text-anchor="middle" style="white-space: pre;" direction="ltr" dominant-baseline="text-before-edge">for the next iteration.</text></g><g stroke-linecap="round"><g transform="translate(973.9069032564557 168.5842005115228) rotate(0 17.445636490593643 -40.075487466882805)"><path d="M0.15 0.62 C6.22 -12.66, 29.55 -66.67, 35.44 -80.16 M-1.24 -0.1 C4.81 -13.14, 28.73 -65.46, 34.78 -78.62" stroke="#1e1e1e" stroke-width="2" fill="none"></path></g><g transform="translate(973.9069032564557 168.5842005115228) rotate(0 17.445636490593643 -40.075487466882805)"><path d="M32.36 -48.72 C34.04 -54.33, 33.52 -60.75, 34.78 -78.62 M32.36 -48.72 C32.33 -57.99, 33.59 -65.63, 34.78 -78.62" stroke="#1e1e1e" stroke-width="2" fill="none"></path></g><g transform="translate(973.9069032564557 168.5842005115228) rotate(0 17.445636490593643 -40.075487466882805)"><path d="M13.71 -57.27 C19.42 -61.03, 22.97 -65.59, 34.78 -78.62 M13.71 -57.27 C19.07 -64.09, 25.67 -69.28, 34.78 -78.62" stroke="#1e1e1e" stroke-width="2" fill="none"></path></g></g><mask></mask><g stroke-linecap="round" transform="translate(729.9679181054553 290.32782479851494) rotate(0 110.05757116156974 67.5)"><path d="M32 0 C89.81 0.65, 148.11 2.19, 188.12 0 M32 0 C75.43 -0.01, 120.09 -0.86, 188.12 0 M188.12 0 C208.35 -0.42, 218.64 8.71, 220.12 32 M188.12 0 C209.87 -1.59, 218.23 10.7, 220.12 32 M220.12 32 C218.85 56.13, 220.11 80.18, 220.12 103 M220.12 32 C219.77 60.1, 220.05 86.82, 220.12 103 M220.12 103 C220.24 126.15, 209.19 133.63, 188.12 135 M220.12 103 C219.96 124.22, 209.08 133.34, 188.12 135 M188.12 135 C134.61 133.31, 82.01 132.63, 32 135 M188.12 135 C141.31 134.47, 95.07 135.91, 32 135 M32 135 C9.07 134.3, 0.43 122.51, 0 103 M32 135 C12.8 133.94, 0.53 126.35, 0 103 M0 103 C-0.46 80.79, 0.4 58.31, 0 32 M0 103 C-1.1 77.41, -0.22 53.04, 0 32 M0 32 C-0.67 12.23, 10.89 0.11, 32 0 M0 32 C-1.03 11.09, 12.68 1.75, 32 0" stroke="#1971c2" stroke-width="1" fill="none"></path></g><g transform="translate(735.0455622040372 295.32782479851494) rotate(0 104.97992706298828 62.5)"><text x="104.97992706298828" y="0" font-family="Virgil, Segoe UI Emoji" font-size="20px" fill="#1971c2" text-anchor="middle" style="white-space: pre;" direction="ltr" dominant-baseline="text-before-edge">2. Loop again from 0</text><text x="104.97992706298828" y="25" font-family="Virgil, Segoe UI Emoji" font-size="20px" fill="#1971c2" text-anchor="middle" style="white-space: pre;" direction="ltr" dominant-baseline="text-before-edge">to levels to check </text><text x="104.97992706298828" y="50" font-family="Virgil, Segoe UI Emoji" font-size="20px" fill="#1971c2" text-anchor="middle" style="white-space: pre;" direction="ltr" dominant-baseline="text-before-edge">that each output is</text><text x="104.97992706298828" y="75" font-family="Virgil, Segoe UI Emoji" font-size="20px" fill="#1971c2" text-anchor="middle" style="white-space: pre;" direction="ltr" dominant-baseline="text-before-edge">&lt; 5 and to sum the </text><text x="104.97992706298828" y="100" font-family="Virgil, Segoe UI Emoji" font-size="20px" fill="#1971c2" text-anchor="middle" style="white-space: pre;" direction="ltr" dominant-baseline="text-before-edge">output elements</text></g><g stroke-linecap="round" transform="translate(1054.847231990695 404.84108604865924) rotate(0 110.05757116156974 55)"><path d="M27.5 0 C80.87 0.27, 138.62 -1.11, 192.62 0 M27.5 0 C85.25 0.34, 144.73 1.94, 192.62 0 M192.62 0 C212.21 -0.92, 220.64 9.08, 220.12 27.5 M192.62 0 C212.54 -0.97, 221.73 11.37, 220.12 27.5 M220.12 27.5 C220.96 45, 221.85 61.28, 220.12 82.5 M220.12 27.5 C220.86 42.32, 221.46 55.45, 220.12 82.5 M220.12 82.5 C218.99 100.67, 209.7 110.96, 192.62 110 M220.12 82.5 C218.28 101.94, 211.68 109.02, 192.62 110 M192.62 110 C153.13 110.82, 115.17 108.36, 27.5 110 M192.62 110 C157.25 112.45, 122.97 111.72, 27.5 110 M27.5 110 C10.76 111.98, -0.86 99.31, 0 82.5 M27.5 110 C8.26 111.78, -0.87 102.35, 0 82.5 M0 82.5 C0.27 69.28, 1.25 52.67, 0 27.5 M0 82.5 C-0.32 61.01, -0.3 38.51, 0 27.5 M0 27.5 C-0.13 9.36, 7.33 1.04, 27.5 0 M0 27.5 C1.67 7.18, 8.19 1.67, 27.5 0" stroke="#1971c2" stroke-width="1" fill="none"></path></g><g transform="translate(1062.5748852445504 409.84108604865924) rotate(0 102.32991790771484 50)"><text x="102.32991790771484" y="0" font-family="Virgil, Segoe UI Emoji" font-size="20px" fill="#1971c2" text-anchor="middle" style="white-space: pre;" direction="ltr" dominant-baseline="text-before-edge">use SafeLessThan </text><text x="102.32991790771484" y="25" font-family="Virgil, Segoe UI Emoji" font-size="20px" fill="#1971c2" text-anchor="middle" style="white-space: pre;" direction="ltr" dominant-baseline="text-before-edge">to check that </text><text x="102.32991790771484" y="50" font-family="Virgil, Segoe UI Emoji" font-size="20px" fill="#1971c2" text-anchor="middle" style="white-space: pre;" direction="ltr" dominant-baseline="text-before-edge">output at index i &lt; </text><text x="102.32991790771484" y="75" font-family="Virgil, Segoe UI Emoji" font-size="20px" fill="#1971c2" text-anchor="middle" style="white-space: pre;" direction="ltr" dominant-baseline="text-before-edge">5</text></g><g stroke-linecap="round"><g transform="translate(978.2285581517272 364.02607605860703) rotate(0 25.3285548055469 23.78211593838705)"><path d="M-0.08 0.16 C8.47 7.78, 42.3 38.62, 50.85 46.46 M-1.58 -0.8 C6.87 6.86, 41.28 39.22, 50 47.41" stroke="#1e1e1e" stroke-width="2" fill="none"></path></g><g transform="translate(978.2285581517272 364.02607605860703) rotate(0 25.3285548055469 23.78211593838705)"><path d="M22.42 35.59 C29.99 39.02, 35.1 42.74, 50 47.41 M22.42 35.59 C30.24 39.29, 36.6 41.04, 50 47.41" stroke="#1e1e1e" stroke-width="2" fill="none"></path></g><g transform="translate(978.2285581517272 364.02607605860703) rotate(0 25.3285548055469 23.78211593838705)"><path d="M36.48 20.63 C40.46 27.97, 41.88 35.6, 50 47.41 M36.48 20.63 C40.4 28.39, 42.96 34.19, 50 47.41" stroke="#1e1e1e" stroke-width="2" fill="none"></path></g></g><mask></mask><g stroke-linecap="round" transform="translate(1059.7035486231534 529.7620819772701) rotate(0 110.05757116156974 67.5)"><path d="M32 0 C76.35 1.24, 126.21 0.99, 188.12 0 M32 0 C84.84 0.78, 138.06 0.37, 188.12 0 M188.12 0 C208.64 0.19, 220.59 9.83, 220.12 32 M188.12 0 C211.25 1.56, 222.27 12.23, 220.12 32 M220.12 32 C218.08 50.46, 218.21 73.37, 220.12 103 M220.12 32 C221.1 53.05, 220.33 72.2, 220.12 103 M220.12 103 C220.08 122.87, 210.51 136.36, 188.12 135 M220.12 103 C222.06 125.77, 208.39 135.61, 188.12 135 M188.12 135 C147.17 132.14, 105.89 133.6, 32 135 M188.12 135 C148 135.29, 107.19 135.23, 32 135 M32 135 C8.99 134.97, 1.55 125.91, 0 103 M32 135 C9.7 132.9, -1.37 125.73, 0 103 M0 103 C-1.33 86.58, -0.54 68.11, 0 32 M0 103 C0.75 81.87, 0.66 59.46, 0 32 M0 32 C1.85 10.89, 8.75 0.09, 32 0 M0 32 C1.74 10.76, 9.36 -2.13, 32 0" stroke="#1971c2" stroke-width="1" fill="none"></path></g><g transform="translate(1068.3212012666572 534.7620819772701) rotate(0 101.4399185180664 62.5)"><text x="101.4399185180664" y="0" font-family="Virgil, Segoe UI Emoji" font-size="20px" fill="#1971c2" text-anchor="middle" style="white-space: pre;" direction="ltr" dominant-baseline="text-before-edge">add to the </text><text x="101.4399185180664" y="25" font-family="Virgil, Segoe UI Emoji" font-size="20px" fill="#1971c2" text-anchor="middle" style="white-space: pre;" direction="ltr" dominant-baseline="text-before-edge">CalculateSum </text><text x="101.4399185180664" y="50" font-family="Virgil, Segoe UI Emoji" font-size="20px" fill="#1971c2" text-anchor="middle" style="white-space: pre;" direction="ltr" dominant-baseline="text-before-edge">component the </text><text x="101.4399185180664" y="75" font-family="Virgil, Segoe UI Emoji" font-size="20px" fill="#1971c2" text-anchor="middle" style="white-space: pre;" direction="ltr" dominant-baseline="text-before-edge">output at index i * </text><text x="101.4399185180664" y="100" font-family="Virgil, Segoe UI Emoji" font-size="20px" fill="#1971c2" text-anchor="middle" style="white-space: pre;" direction="ltr" dominant-baseline="text-before-edge">(5 ** i)</text></g><g stroke-linecap="round" transform="translate(1338.2060980135675 539.1643059314802) rotate(0 152.39370641469895 80)"><path d="M32 0 C92.49 0.14, 150.65 0.23, 272.79 0 M32 0 C113.19 -1.36, 196.11 -1.8, 272.79 0 M272.79 0 C292.45 -0.26, 305.17 9.18, 304.79 32 M272.79 0 C292.77 2.03, 303.63 9.98, 304.79 32 M304.79 32 C302.74 63.1, 305.21 93.39, 304.79 128 M304.79 32 C304.63 58.59, 305.53 83.53, 304.79 128 M304.79 128 C303.39 151.23, 296 158.73, 272.79 160 M304.79 128 C302.64 147.34, 294.78 160.01, 272.79 160 M272.79 160 C191.63 160.8, 113.89 158.63, 32 160 M272.79 160 C207.36 159.22, 140.92 159.98, 32 160 M32 160 C11.4 159.05, 1.26 147.44, 0 128 M32 160 C11.6 158.24, 2.1 151.42, 0 128 M0 128 C-0.34 93.58, 1.66 59.55, 0 32 M0 128 C-0.22 94.91, 0.38 61.2, 0 32 M0 32 C0.02 10.41, 12.13 -0.52, 32 0 M0 32 C0.65 8.76, 8.81 0.95, 32 0" stroke="#1971c2" stroke-width="1" fill="none"></path></g><g transform="translate(1347.8999295503372 544.1643059314802) rotate(0 142.6998748779297 75)"><text x="142.6998748779297" y="0" font-family="Virgil, Segoe UI Emoji" font-size="20px" fill="#1971c2" text-anchor="middle" style="white-space: pre;" direction="ltr" dominant-baseline="text-before-edge">each index is multiplied by 5 </text><text x="142.6998748779297" y="25" font-family="Virgil, Segoe UI Emoji" font-size="20px" fill="#1971c2" text-anchor="middle" style="white-space: pre;" direction="ltr" dominant-baseline="text-before-edge">raised to the power of its </text><text x="142.6998748779297" y="50" font-family="Virgil, Segoe UI Emoji" font-size="20px" fill="#1971c2" text-anchor="middle" style="white-space: pre;" direction="ltr" dominant-baseline="text-before-edge">level. This is because we're </text><text x="142.6998748779297" y="75" font-family="Virgil, Segoe UI Emoji" font-size="20px" fill="#1971c2" text-anchor="middle" style="white-space: pre;" direction="ltr" dominant-baseline="text-before-edge">converting from a base-5 </text><text x="142.6998748779297" y="100" font-family="Virgil, Segoe UI Emoji" font-size="20px" fill="#1971c2" text-anchor="middle" style="white-space: pre;" direction="ltr" dominant-baseline="text-before-edge">number to a base-10 number.</text><text x="142.6998748779297" y="125" font-family="Virgil, Segoe UI Emoji" font-size="20px" fill="#1971c2" text-anchor="middle" style="white-space: pre;" direction="ltr" dominant-baseline="text-before-edge"></text></g><g stroke-linecap="round" transform="translate(1341.7541798438979 395.6158066924386) rotate(0 163.90444755533963 51.724099757117074)"><path d="M25.86 0 C101.27 1.81, 179.18 1.21, 301.95 0 M25.86 0 C116.93 -0.11, 207.74 -0.74, 301.95 0 M301.95 0 C319.94 -1.82, 328.6 10.62, 327.81 25.86 M301.95 0 C317.88 -2.24, 327.77 8.14, 327.81 25.86 M327.81 25.86 C326.44 44.01, 325.92 61.86, 327.81 77.59 M327.81 25.86 C327.62 36.27, 327.23 47.25, 327.81 77.59 M327.81 77.59 C329.01 96.54, 320.45 104.7, 301.95 103.45 M327.81 77.59 C326.08 96.79, 318.95 103.32, 301.95 103.45 M301.95 103.45 C216.03 101.97, 130.43 102.49, 25.86 103.45 M301.95 103.45 C211.08 104.37, 121.14 104.24, 25.86 103.45 M25.86 103.45 C9.82 102.16, -0.52 93.79, 0 77.59 M25.86 103.45 C10.41 102.49, 1.77 95.19, 0 77.59 M0 77.59 C-1.05 58.99, 0.5 36.23, 0 25.86 M0 77.59 C1.04 66.33, 0.32 54.61, 0 25.86 M0 25.86 C-1.92 9.29, 7.07 -1.1, 25.86 0 M0 25.86 C-0.22 10.16, 9.65 2.07, 25.86 0" stroke="#1971c2" stroke-width="1" fill="none"></path></g><g transform="translate(1354.268750079902 409.83990644955566) rotate(0 151.38987731933594 37.5)"><text x="151.38987731933594" y="0" font-family="Virgil, Segoe UI Emoji" font-size="20px" fill="#1971c2" text-anchor="middle" style="white-space: pre;" direction="ltr" dominant-baseline="text-before-edge">we use a quinary tree so the </text><text x="151.38987731933594" y="25" font-family="Virgil, Segoe UI Emoji" font-size="20px" fill="#1971c2" text-anchor="middle" style="white-space: pre;" direction="ltr" dominant-baseline="text-before-edge">index must be &lt; 5 </text><text x="151.38987731933594" y="50" font-family="Virgil, Segoe UI Emoji" font-size="20px" fill="#1971c2" text-anchor="middle" style="white-space: pre;" direction="ltr" dominant-baseline="text-before-edge">(0 &lt;= index &lt; 5)</text></g><g stroke-linecap="round"><g transform="translate(1297.8933394606956 601.5014213259442) rotate(0 12.366137273696495 1.2831712689878714)"><path d="M-0.13 -0.02 C3.85 0.4, 20.34 1.92, 24.45 2.41 M0.8 -0.51 C4.92 0, 21.66 2.61, 25.53 3.03" stroke="#1e1e1e" stroke-width="2" fill="none"></path></g><g transform="translate(1297.8933394606956 601.5014213259442) rotate(0 12.366137273696495 1.2831712689878714)"><path d="M13.39 5.67 C18.17 4.32, 22.82 3.33, 25.53 3.03 M13.39 5.67 C17.8 5.07, 21.99 3.58, 25.53 3.03" stroke="#1e1e1e" stroke-width="2" fill="none"></path></g><g transform="translate(1297.8933394606956 601.5014213259442) rotate(0 12.366137273696495 1.2831712689878714)"><path d="M14.53 -2.76 C18.85 -0.78, 23.05 1.57, 25.53 3.03 M14.53 -2.76 C18.5 -0.35, 22.28 1.18, 25.53 3.03" stroke="#1e1e1e" stroke-width="2" fill="none"></path></g></g><mask></mask><g stroke-linecap="round"><g transform="translate(1293.8507821884868 441.6330433574117) rotate(0 16.6045768856402 -1.0134781925412426)"><path d="M0.38 -0.09 C5.94 -0.5, 27.51 -1.68, 32.9 -2.07 M-0.09 -0.62 C5.69 -0.97, 28.32 -1.16, 33.97 -1.4" stroke="#1e1e1e" stroke-width="2" fill="none"></path></g><g transform="translate(1293.8507821884868 441.6330433574117) rotate(0 16.6045768856402 -1.0134781925412426)"><path d="M18.48 4.66 C21.63 2.84, 25.02 1.27, 33.97 -1.4 M18.48 4.66 C22.24 3.71, 25.04 2.27, 33.97 -1.4" stroke="#1e1e1e" stroke-width="2" fill="none"></path></g><g transform="translate(1293.8507821884868 441.6330433574117) rotate(0 16.6045768856402 -1.0134781925412426)"><path d="M18.2 -6.71 C21.46 -6.1, 24.9 -5.24, 33.97 -1.4 M18.2 -6.71 C22.02 -5.13, 24.88 -4.03, 33.97 -1.4" stroke="#1e1e1e" stroke-width="2" fill="none"></path></g></g><mask></mask><g stroke-linecap="round" transform="translate(736.5626017928626 473.22111851835916) rotate(0 110.05757116156974 67.5)"><path d="M32 0 C68.83 -0.17, 102.27 0.1, 188.12 0 M32 0 C82.01 -2.09, 131.29 -2.28, 188.12 0 M188.12 0 C209.87 1.19, 220.32 11.84, 220.12 32 M188.12 0 C207.96 -2.16, 218.74 8.46, 220.12 32 M220.12 32 C221.43 51.45, 218.77 71.71, 220.12 103 M220.12 32 C219.66 55.3, 220.89 78.94, 220.12 103 M220.12 103 C220.04 124.54, 209.21 133.57, 188.12 135 M220.12 103 C217.87 122.12, 209.27 132.86, 188.12 135 M188.12 135 C139.83 136, 91.38 137.73, 32 135 M188.12 135 C141.23 133.48, 91.7 134.01, 32 135 M32 135 C11.74 133.24, -0.2 125.21, 0 103 M32 135 C10.59 133.6, 1.53 122.17, 0 103 M0 103 C0.46 81.76, -0.4 63.58, 0 32 M0 103 C-0.63 78.27, -0.27 51.67, 0 32 M0 32 C-0.22 9.19, 8.81 0.48, 32 0 M0 32 C-1.19 11.71, 12.45 -2.21, 32 0" stroke="#1971c2" stroke-width="1" fill="none"></path></g><g transform="translate(743.4002556570695 503.22111851835916) rotate(0 103.21991729736328 37.5)"><text x="103.21991729736328" y="0" font-family="Virgil, Segoe UI Emoji" font-size="20px" fill="#1971c2" text-anchor="middle" style="white-space: pre;" direction="ltr" dominant-baseline="text-before-edge">3. Ensure that the </text><text x="103.21991729736328" y="25" font-family="Virgil, Segoe UI Emoji" font-size="20px" fill="#1971c2" text-anchor="middle" style="white-space: pre;" direction="ltr" dominant-baseline="text-before-edge">sum is equal to the </text><text x="103.21991729736328" y="50" font-family="Virgil, Segoe UI Emoji" font-size="20px" fill="#1971c2" text-anchor="middle" style="white-space: pre;" direction="ltr" dominant-baseline="text-before-edge">input index</text></g></svg>