<svg version="1.1" xmlns="http://www.w3.org/2000/svg" viewBox="0 0 1397.6537476216627 598.5463809259545" width="4192.961242864988" height="1795.6391427778635">
  <!-- svg-source:excalidraw -->
  
  <defs>
    <style class="style-fonts">
      @font-face {
        font-family: "Virgil";
        src: url("https://excalidraw.com/Virgil.woff2");
      }
      @font-face {
        font-family: "Cascadia";
        src: url("https://excalidraw.com/Cascadia.woff2");
      }
      @font-face {
        font-family: "Assistant";
        src: url("https://excalidraw.com/Assistant-Regular.woff2");
      }
    </style>
    
  </defs>
  <rect x="0" y="0" width="1397.6537476216627" height="598.5463809259545" fill="#ffffff"></rect><g stroke-linecap="round" transform="translate(317.5090062381055 202.9056605698836) rotate(0 114.33810379333909 33.80052213620306)"><path d="M16.9 0 C72.55 2.34, 132.99 1.53, 211.78 0 M16.9 0 C88.23 1.51, 160.2 1.11, 211.78 0 M211.78 0 C221.4 -0.9, 228.03 4.57, 228.68 16.9 M211.78 0 C223.53 -2.05, 229.36 5.89, 228.68 16.9 M228.68 16.9 C227.3 25.43, 228.65 30.07, 228.68 50.7 M228.68 16.9 C228.34 24.66, 229.43 31.74, 228.68 50.7 M228.68 50.7 C227.41 60.67, 222.15 66.99, 211.78 67.6 M228.68 50.7 C228.29 60.16, 224.61 68.44, 211.78 67.6 M211.78 67.6 C169.85 65.81, 125.64 65.97, 16.9 67.6 M211.78 67.6 C169.39 69.18, 125.54 68.43, 16.9 67.6 M16.9 67.6 C6.67 68.07, -1.92 61.77, 0 50.7 M16.9 67.6 C5.51 68.88, 2.29 62.3, 0 50.7 M0 50.7 C-1.87 43.4, 0.28 35.31, 0 16.9 M0 50.7 C1.28 40.31, 0.13 30.36, 0 16.9 M0 16.9 C1.02 7.57, 5.31 1.13, 16.9 0 M0 16.9 C-1.1 7.63, 7.74 0.04, 16.9 0" stroke="#1971c2" stroke-width="1" fill="none"></path></g><g transform="translate(372.0971710666008 224.20618270608668) rotate(0 59.74993896484375 12.5)"><text x="59.74993896484375" y="0" font-family="Virgil, Segoe UI Emoji" font-size="20px" fill="#e03131" text-anchor="middle" style="white-space: pre;" direction="ltr" dominant-baseline="text-before-edge">QuinSelector</text></g><g stroke-linecap="round" transform="translate(448.72075975248936 57.31440060653699) rotate(0 110.05757116156974 32.177416550875904)"><path d="M16.09 0 C84.07 1.21, 147.39 -0.83, 204.03 0 M16.09 0 C64.24 1.04, 113.7 0.96, 204.03 0 M204.03 0 C215.18 -1.78, 220.71 5.58, 220.12 16.09 M204.03 0 C212.68 -0.47, 220.72 3.86, 220.12 16.09 M220.12 16.09 C218.72 29.08, 218.34 38.96, 220.12 48.27 M220.12 16.09 C219.67 25.06, 219.86 35.02, 220.12 48.27 M220.12 48.27 C219.78 57.42, 216.11 65.08, 204.03 64.35 M220.12 48.27 C218.22 57.46, 214.31 64.92, 204.03 64.35 M204.03 64.35 C159.38 62.49, 119.59 63.98, 16.09 64.35 M204.03 64.35 C148.75 63.12, 91.48 62.79, 16.09 64.35 M16.09 64.35 C5.26 65.47, 1.99 59.28, 0 48.27 M16.09 64.35 C4.19 65.33, -2.13 57, 0 48.27 M0 48.27 C-0.16 35.11, -1.64 27.36, 0 16.09 M0 48.27 C0.56 40.87, -0.11 32.11, 0 16.09 M0 16.09 C-0.96 7.1, 7.19 0.03, 16.09 0 M0 16.09 C-0.34 5.39, 4.09 2.09, 16.09 0" stroke="#1971c2" stroke-width="1" fill="none"></path></g><g transform="translate(456.27841483739894 64.49181715741298) rotate(0 102.49991607666016 25)"><text x="102.49991607666016" y="0" font-family="Virgil, Segoe UI Emoji" font-size="20px" fill="#1971c2" text-anchor="middle" style="white-space: pre;" direction="ltr" dominant-baseline="text-before-edge">inputs (array of len </text><text x="102.49991607666016" y="25" font-family="Virgil, Segoe UI Emoji" font-size="20px" fill="#1971c2" text-anchor="middle" style="white-space: pre;" direction="ltr" dominant-baseline="text-before-edge">choices)</text></g><g stroke-linecap="round"><g transform="translate(419.09219601778295 153.23605437432911) rotate(0 -0.4458028198948796 19.782500132839004)"><path d="M-0.16 -0.22 C-0.37 6.39, -0.66 32.54, -0.86 39.13 M0.76 -0.8 C0.45 5.91, -1.1 32.84, -1.27 39.6" stroke="#1e1e1e" stroke-width="1" fill="none"></path></g><g transform="translate(419.09219601778295 153.23605437432911) rotate(0 -0.4458028198948796 19.782500132839004)"><path d="M-7.22 20.73 C-5.48 27.85, -3.65 34.02, -1.27 39.6 M-7.22 20.73 C-5.63 25.12, -4.07 30.43, -1.27 39.6" stroke="#1e1e1e" stroke-width="1" fill="none"></path></g><g transform="translate(419.09219601778295 153.23605437432911) rotate(0 -0.4458028198948796 19.782500132839004)"><path d="M6.3 21.32 C2.99 28.2, -0.23 34.15, -1.27 39.6 M6.3 21.32 C4.45 25.52, 2.56 30.68, -1.27 39.6" stroke="#1e1e1e" stroke-width="1" fill="none"></path></g></g><mask></mask><g stroke-linecap="round" transform="translate(10 206.30191591281323) rotate(0 110.05757116156974 32.177416550875904)"><path d="M16.09 0 C65.52 -1.77, 117.23 -0.77, 204.03 0 M16.09 0 C62.77 1.79, 107.96 1.47, 204.03 0 M204.03 0 C215.28 -1.3, 221.54 5.4, 220.12 16.09 M204.03 0 C213.57 -1.61, 221.31 3.31, 220.12 16.09 M220.12 16.09 C218.69 22.82, 218.81 31.19, 220.12 48.27 M220.12 16.09 C220.74 25.12, 219.24 32.76, 220.12 48.27 M220.12 48.27 C219.73 59.49, 213.33 63.06, 204.03 64.35 M220.12 48.27 C218.67 57.14, 213.96 66.25, 204.03 64.35 M204.03 64.35 C138.53 64.17, 76.62 61.21, 16.09 64.35 M204.03 64.35 C150.49 65.55, 94.45 65.82, 16.09 64.35 M16.09 64.35 C3.51 62.62, 1.11 59.42, 0 48.27 M16.09 64.35 C7.02 64.25, -1.98 57.19, 0 48.27 M0 48.27 C-0.61 36.46, 2.06 22.29, 0 16.09 M0 48.27 C1.07 36.82, 0.01 25.35, 0 16.09 M0 16.09 C-1.11 7.18, 7.2 -1.97, 16.09 0 M0 16.09 C0.91 3.21, 4.75 0.94, 16.09 0" stroke="#f08c00" stroke-width="1" fill="none"></path></g><g transform="translate(29.237655390085365 225.97933246368916) rotate(0 90.81991577148438 12.5)"><text x="90.81991577148438" y="0" font-family="Virgil, Segoe UI Emoji" font-size="20px" fill="#f08c00" text-anchor="middle" style="white-space: pre;" direction="ltr" dominant-baseline="text-before-edge">parameter: choices</text></g><g transform="translate(464.49391098097476 155.78290937317342) rotate(0 31.809967041015625 12.5)"><text x="0" y="0" font-family="Virgil, Segoe UI Emoji" font-size="20px" fill="#1e1e1e" text-anchor="start" style="white-space: pre;" direction="ltr" dominant-baseline="text-before-edge">Inputs</text></g><g transform="translate(475.78014709297713 304.3498170796695) rotate(0 34.84996032714844 12.5)"><text x="0" y="0" font-family="Virgil, Segoe UI Emoji" font-size="20px" fill="#1e1e1e" text-anchor="start" style="white-space: pre;" direction="ltr" dominant-baseline="text-before-edge">Output</text></g><g stroke-linecap="round"><g transform="translate(414.7992799743497 303.07946330958043) rotate(0 0.2229014099473261 20.511057519056408)"><path d="M0.16 0.06 C0.14 6.96, -0.12 34.14, -0.05 40.91 M-0.42 -0.38 C-0.29 6.64, 0.81 34.64, 0.93 41.55" stroke="#1e1e1e" stroke-width="1" fill="none"></path></g><g transform="translate(414.7992799743497 303.07946330958043) rotate(0 0.2229014099473261 20.511057519056408)"><path d="M-6.66 22.49 C-4.19 27.7, -2.07 34.99, 0.93 41.55 M-6.66 22.49 C-5.06 26.62, -2.76 31, 0.93 41.55" stroke="#1e1e1e" stroke-width="1" fill="none"></path></g><g transform="translate(414.7992799743497 303.07946330958043) rotate(0 0.2229014099473261 20.511057519056408)"><path d="M7.37 22.07 C5.33 27.44, 2.94 34.86, 0.93 41.55 M7.37 22.07 C5.67 26.3, 4.68 30.78, 0.93 41.55" stroke="#1e1e1e" stroke-width="1" fill="none"></path></g></g><mask></mask><g stroke-linecap="round" transform="translate(318.2396275262663 369.9775956764727) rotate(0 110.05757116156974 32.177416550875904)"><path d="M16.09 0 C77.67 2.22, 138.76 3.12, 204.03 0 M16.09 0 C73.38 0.42, 129.11 1.31, 204.03 0 M204.03 0 C215.92 -1.42, 218.85 4.06, 220.12 16.09 M204.03 0 C213.72 -0.7, 219.73 3.56, 220.12 16.09 M220.12 16.09 C218.9 27.55, 220.73 38.36, 220.12 48.27 M220.12 16.09 C219.57 24.48, 220.32 31.19, 220.12 48.27 M220.12 48.27 C218.81 57.43, 215.79 64.82, 204.03 64.35 M220.12 48.27 C217.91 58.77, 214.63 65.64, 204.03 64.35 M204.03 64.35 C129.77 61.54, 52.09 64.5, 16.09 64.35 M204.03 64.35 C142.8 63.48, 84.29 63.87, 16.09 64.35 M16.09 64.35 C5.04 63.62, 1.02 60.93, 0 48.27 M16.09 64.35 C4.99 65.65, -1.1 60.99, 0 48.27 M0 48.27 C0.02 34.56, 1.82 24.9, 0 16.09 M0 48.27 C-0.39 42.18, -0.8 34.49, 0 16.09 M0 16.09 C1.82 6.6, 6.15 1.96, 16.09 0 M0 16.09 C1.49 5.33, 6.15 2.09, 16.09 0" stroke="#1971c2" stroke-width="1" fill="none"></path></g><g transform="translate(339.257274066254 377.1550122273486) rotate(0 89.03992462158203 25)"><text x="89.03992462158203" y="0" font-family="Virgil, Segoe UI Emoji" font-size="20px" fill="#2f9e44" text-anchor="middle" style="white-space: pre;" direction="ltr" dominant-baseline="text-before-edge">out (the item at </text><text x="89.03992462158203" y="25" font-family="Virgil, Segoe UI Emoji" font-size="20px" fill="#2f9e44" text-anchor="middle" style="white-space: pre;" direction="ltr" dominant-baseline="text-before-edge">position index)</text></g><g stroke-linecap="round"><g transform="translate(245.4148474337021 239.76307947283158) rotate(0 24.285934174555905 -0.22909311577939206)"><path d="M0.39 0.01 C8.42 -0.07, 40.21 -0.68, 48.29 -0.84 M-0.07 -0.46 C8.12 -0.45, 41.26 -0.32, 49.38 -0.34" stroke="#1e1e1e" stroke-width="1" fill="none"></path></g><g transform="translate(245.4148474337021 239.76307947283158) rotate(0 24.285934174555905 -0.22909311577939206)"><path d="M26.55 7.94 C34.04 4.64, 40.77 2.98, 49.38 -0.34 M26.55 7.94 C31.68 5.84, 35.88 4.12, 49.38 -0.34" stroke="#1e1e1e" stroke-width="1" fill="none"></path></g><g transform="translate(245.4148474337021 239.76307947283158) rotate(0 24.285934174555905 -0.22909311577939206)"><path d="M26.56 -8.67 C34 -6.55, 40.72 -2.8, 49.38 -0.34 M26.56 -8.67 C31.65 -7.27, 35.85 -5.48, 49.38 -0.34" stroke="#1e1e1e" stroke-width="1" fill="none"></path></g></g><mask></mask><g stroke-linecap="round" transform="translate(761.6589818242487 41.445055774992284) rotate(0 110.05757116156974 32.177416550875904)"><path d="M16.09 0 C84.49 2.01, 153.91 -0.06, 204.03 0 M16.09 0 C71.65 0.69, 128.03 1.03, 204.03 0 M204.03 0 C214.42 -1.57, 221.48 6.09, 220.12 16.09 M204.03 0 C212.86 -1.53, 219.67 5.93, 220.12 16.09 M220.12 16.09 C218.3 22.77, 221.56 31.63, 220.12 48.27 M220.12 16.09 C220.43 25.87, 218.95 35.1, 220.12 48.27 M220.12 48.27 C220.01 60.11, 216.74 64.65, 204.03 64.35 M220.12 48.27 C218.94 59.96, 212.62 62.36, 204.03 64.35 M204.03 64.35 C137.14 63.99, 68.86 67.68, 16.09 64.35 M204.03 64.35 C155.7 64.63, 106.2 64.23, 16.09 64.35 M16.09 64.35 C4.41 66.09, 1.83 59.03, 0 48.27 M16.09 64.35 C5.02 64.38, -1.27 61.09, 0 48.27 M0 48.27 C-1.55 35.13, 1.14 21.71, 0 16.09 M0 48.27 C0.1 42.13, 0.36 34.03, 0 16.09 M0 16.09 C0.69 7.18, 6.85 1.5, 16.09 0 M0 16.09 C1.2 6.4, 6.7 -2.15, 16.09 0" stroke="#1971c2" stroke-width="1" fill="none"></path></g><g transform="translate(767.4266283642364 48.622472325868216) rotate(0 104.28992462158203 25)"><text x="104.28992462158203" y="0" font-family="Virgil, Segoe UI Emoji" font-size="20px" fill="#1971c2" text-anchor="middle" style="white-space: pre;" direction="ltr" dominant-baseline="text-before-edge">1. Ensure that index </text><text x="104.28992462158203" y="25" font-family="Virgil, Segoe UI Emoji" font-size="20px" fill="#1971c2" text-anchor="middle" style="white-space: pre;" direction="ltr" dominant-baseline="text-before-edge">is less than choices </text></g><g stroke-linecap="round" transform="translate(760.3879008955275 124.61724808282906) rotate(0 110.05757116156974 67.5)"><path d="M32 0 C86.95 1.97, 140.52 -0.46, 188.12 0 M32 0 C68.51 -0.31, 106.04 0.84, 188.12 0 M188.12 0 C207.8 -1.33, 219.73 11.16, 220.12 32 M188.12 0 C207.82 -1.49, 218.67 8.82, 220.12 32 M220.12 32 C220.64 49.55, 219.14 70.75, 220.12 103 M220.12 32 C219.38 55.5, 220.43 78.04, 220.12 103 M220.12 103 C219.09 125.18, 207.59 133.27, 188.12 135 M220.12 103 C221.39 124.82, 211.1 134.89, 188.12 135 M188.12 135 C153.9 136.22, 120.55 137.56, 32 135 M188.12 135 C125.7 136.75, 65.15 135.9, 32 135 M32 135 C10.37 135.02, -1.11 126.15, 0 103 M32 135 C12.78 132.74, 0.91 122.18, 0 103 M0 103 C-1.87 85.4, 0.95 64.95, 0 32 M0 103 C-0.12 75.67, 0.28 47.27, 0 32 M0 32 C1.04 11.57, 11.83 -1.87, 32 0 M0 32 C1.98 10.57, 8.71 2.27, 32 0" stroke="#1971c2" stroke-width="1" fill="none"></path></g><g transform="translate(766.4655602528981 129.61724808282906) rotate(0 103.97991180419922 62.5)"><text x="103.97991180419922" y="0" font-family="Virgil, Segoe UI Emoji" font-size="20px" fill="#1971c2" text-anchor="middle" style="white-space: pre;" direction="ltr" dominant-baseline="text-before-edge">2. Loop through the </text><text x="103.97991180419922" y="25" font-family="Virgil, Segoe UI Emoji" font-size="20px" fill="#1971c2" text-anchor="middle" style="white-space: pre;" direction="ltr" dominant-baseline="text-before-edge">input array and for </text><text x="103.97991180419922" y="50" font-family="Virgil, Segoe UI Emoji" font-size="20px" fill="#1971c2" text-anchor="middle" style="white-space: pre;" direction="ltr" dominant-baseline="text-before-edge">each item check </text><text x="103.97991180419922" y="75" font-family="Virgil, Segoe UI Emoji" font-size="20px" fill="#1971c2" text-anchor="middle" style="white-space: pre;" direction="ltr" dominant-baseline="text-before-edge">whether it matches </text><text x="103.97991180419922" y="100" font-family="Virgil, Segoe UI Emoji" font-size="20px" fill="#1971c2" text-anchor="middle" style="white-space: pre;" direction="ltr" dominant-baseline="text-before-edge">the input index</text></g><g transform="translate(602.5904103336552 181.3055299173575) rotate(0 49.669944763183594 12.5)"><text x="0" y="0" font-family="Virgil, Segoe UI Emoji" font-size="20px" fill="#1e1e1e" text-anchor="start" style="white-space: pre;" direction="ltr" dominant-baseline="text-before-edge">Processing</text></g><g stroke-linecap="round"><g transform="translate(585.4137980735959 241.9398510543499) rotate(0 54.0494641083767 -0.8482636989667753)"><path d="M-0.23 0.3 C17.81 0.02, 89.32 -1.98, 107.25 -2.47 M-1.81 -0.59 C16.69 -0.67, 90.9 -1.14, 109.51 -1.35" stroke="#1e1e1e" stroke-width="1" fill="none"></path></g><g transform="translate(585.4137980735959 241.9398510543499) rotate(0 54.0494641083767 -0.8482636989667753)"><path d="M81.41 9.15 C88.09 5.5, 92.42 3.38, 109.51 -1.35 M81.41 9.15 C88.02 6.58, 93.14 3.53, 109.51 -1.35" stroke="#1e1e1e" stroke-width="1" fill="none"></path></g><g transform="translate(585.4137980735959 241.9398510543499) rotate(0 54.0494641083767 -0.8482636989667753)"><path d="M81.24 -11.37 C87.82 -10.55, 92.18 -8.21, 109.51 -1.35 M81.24 -11.37 C87.81 -9.43, 92.97 -7.98, 109.51 -1.35" stroke="#1e1e1e" stroke-width="1" fill="none"></path></g></g><mask></mask><g stroke-linecap="round" transform="translate(205.81880349909534 56.65612369826056) rotate(0 110.05757116156974 32.177416550875904)"><path d="M16.09 0 C61.8 1.78, 107.24 0.5, 204.03 0 M16.09 0 C65.95 0.51, 117.25 2.04, 204.03 0 M204.03 0 C213.8 0.53, 219.65 5.46, 220.12 16.09 M204.03 0 C213.39 1.83, 220.01 6.95, 220.12 16.09 M220.12 16.09 C221.28 28.81, 218.68 42.51, 220.12 48.27 M220.12 16.09 C219.9 27.03, 220.83 37.38, 220.12 48.27 M220.12 48.27 C219.45 58.57, 216.19 62.61, 204.03 64.35 M220.12 48.27 C222.21 58.52, 213.17 62.33, 204.03 64.35 M204.03 64.35 C128.58 61.75, 55.69 62.95, 16.09 64.35 M204.03 64.35 C157.94 63.52, 109.97 62.85, 16.09 64.35 M16.09 64.35 C6.84 65.63, -0.15 58.73, 0 48.27 M16.09 64.35 C6.75 62.25, 0.19 56.91, 0 48.27 M0 48.27 C-0.2 40.4, 0.37 31.16, 0 16.09 M0 48.27 C0.24 39.33, 0.55 31.4, 0 16.09 M0 16.09 C-0.03 6.7, 3.54 1.27, 16.09 0 M0 16.09 C0.45 7.63, 4.34 0.74, 16.09 0" stroke="#1971c2" stroke-width="1" fill="none"></path></g><g transform="translate(292.23639815920023 76.33354024913643) rotate(0 23.639976501464844 12.5)"><text x="23.639976501464844" y="0" font-family="Virgil, Segoe UI Emoji" font-size="20px" fill="#1971c2" text-anchor="middle" style="white-space: pre;" direction="ltr" dominant-baseline="text-before-edge">index</text></g><g stroke-linecap="round" transform="translate(767.8467418586231 273.1912430620284) rotate(0 110.05757116156974 67.5)"><path d="M32 0 C92.13 0.27, 152.8 -0.66, 188.12 0 M32 0 C94.32 -1.62, 154.99 -0.42, 188.12 0 M188.12 0 C209.51 1.33, 221.8 10.53, 220.12 32 M188.12 0 C207.99 -1.54, 219.3 9.01, 220.12 32 M220.12 32 C222.04 56.53, 220.22 81.72, 220.12 103 M220.12 32 C219.59 55.81, 219.87 76.89, 220.12 103 M220.12 103 C218.35 124.13, 209.88 133.88, 188.12 135 M220.12 103 C220.59 123.49, 211.72 136.74, 188.12 135 M188.12 135 C149.97 134.84, 111.89 135.93, 32 135 M188.12 135 C144.85 137.1, 100.84 135.5, 32 135 M32 135 C9.72 136.84, -1.72 125.74, 0 103 M32 135 C12.63 133.93, -1.99 123.96, 0 103 M0 103 C0.25 85.91, -1.81 68.45, 0 32 M0 103 C0.37 87.64, 1.02 73.51, 0 32 M0 32 C-1.21 9.75, 10.68 -1.51, 32 0 M0 32 C-1.08 9.95, 9.95 -0.54, 32 0" stroke="#1971c2" stroke-width="1" fill="none"></path></g><g transform="translate(779.7443932814233 278.1912430620284) rotate(0 98.15991973876953 62.5)"><text x="98.15991973876953" y="0" font-family="Virgil, Segoe UI Emoji" font-size="20px" fill="#1971c2" text-anchor="middle" style="white-space: pre;" direction="ltr" dominant-baseline="text-before-edge">3. Wire the output </text><text x="98.15991973876953" y="25" font-family="Virgil, Segoe UI Emoji" font-size="20px" fill="#1971c2" text-anchor="middle" style="white-space: pre;" direction="ltr" dominant-baseline="text-before-edge">(sum) of the </text><text x="98.15991973876953" y="50" font-family="Virgil, Segoe UI Emoji" font-size="20px" fill="#1971c2" text-anchor="middle" style="white-space: pre;" direction="ltr" dominant-baseline="text-before-edge">CalculateTotal </text><text x="98.15991973876953" y="75" font-family="Virgil, Segoe UI Emoji" font-size="20px" fill="#1971c2" text-anchor="middle" style="white-space: pre;" direction="ltr" dominant-baseline="text-before-edge">component to the </text><text x="98.15991973876953" y="100" font-family="Virgil, Segoe UI Emoji" font-size="20px" fill="#1971c2" text-anchor="middle" style="white-space: pre;" direction="ltr" dominant-baseline="text-before-edge">output signal</text></g><g stroke-linecap="round"><g transform="translate(1003.528288863374 145.86988217609456) rotate(0 15.808540956628917 -3.5240059205904117)"><path d="M0.27 0.51 C5.61 -0.66, 26.34 -5.52, 31.54 -6.78 M-0.25 0.3 C5.05 -1.05, 25.85 -6.48, 31.06 -7.6" stroke="#1e1e1e" stroke-width="2" fill="none"></path></g><g transform="translate(1003.528288863374 145.86988217609456) rotate(0 15.808540956628917 -3.5240059205904117)"><path d="M17.57 1.36 C21.17 -0.7, 23.67 -2.71, 31.06 -7.6 M17.57 1.36 C21.98 -1.38, 25.59 -3.86, 31.06 -7.6" stroke="#1e1e1e" stroke-width="2" fill="none"></path></g><g transform="translate(1003.528288863374 145.86988217609456) rotate(0 15.808540956628917 -3.5240059205904117)"><path d="M14.97 -9.41 C19.14 -9.19, 22.19 -8.92, 31.06 -7.6 M14.97 -9.41 C20.16 -8.95, 24.55 -8.22, 31.06 -7.6" stroke="#1e1e1e" stroke-width="2" fill="none"></path></g></g><mask></mask><g stroke-linecap="round" transform="translate(1048.4288039904286 10) rotate(0 110.05757116156974 55)"><path d="M27.5 0 C67.69 -2.39, 112.69 1.47, 192.62 0 M27.5 0 C79.22 -1.28, 131.29 -0.57, 192.62 0 M192.62 0 C209.16 0.01, 220.67 8.56, 220.12 27.5 M192.62 0 C209.39 -0.77, 220.99 9.86, 220.12 27.5 M220.12 27.5 C217.82 40.86, 220.14 54, 220.12 82.5 M220.12 27.5 C219.69 43.25, 218.8 57.93, 220.12 82.5 M220.12 82.5 C219.84 99.98, 212.63 111.75, 192.62 110 M220.12 82.5 C220.26 101.92, 209.03 112.23, 192.62 110 M192.62 110 C149.12 111.96, 107.13 111.8, 27.5 110 M192.62 110 C151.9 109.98, 110.51 109.61, 27.5 110 M27.5 110 C10.59 108.73, 0.57 99.33, 0 82.5 M27.5 110 C10.07 108.67, 1.96 98.61, 0 82.5 M0 82.5 C0.5 68.99, -0.06 56.59, 0 27.5 M0 82.5 C0.38 60.86, 0.92 39.92, 0 27.5 M0 27.5 C-1.71 7.21, 11.15 -0.95, 27.5 0 M0 27.5 C-1.99 8.6, 9.79 -0.7, 27.5 0" stroke="#1971c2" stroke-width="1" fill="none"></path></g><g transform="translate(1056.7964642633265 15) rotate(0 101.68991088867188 50)"><text x="101.68991088867188" y="0" font-family="Virgil, Segoe UI Emoji" font-size="20px" fill="#1971c2" text-anchor="middle" style="white-space: pre;" direction="ltr" dominant-baseline="text-before-edge">Use IsEqual to </text><text x="101.68991088867188" y="25" font-family="Virgil, Segoe UI Emoji" font-size="20px" fill="#1971c2" text-anchor="middle" style="white-space: pre;" direction="ltr" dominant-baseline="text-before-edge">compare the loop </text><text x="101.68991088867188" y="50" font-family="Virgil, Segoe UI Emoji" font-size="20px" fill="#1971c2" text-anchor="middle" style="white-space: pre;" direction="ltr" dominant-baseline="text-before-edge">index with the input </text><text x="101.68991088867188" y="75" font-family="Virgil, Segoe UI Emoji" font-size="20px" fill="#1971c2" text-anchor="middle" style="white-space: pre;" direction="ltr" dominant-baseline="text-before-edge">index</text></g><g stroke-linecap="round" transform="translate(1056.7366630893894 130.57055647299626) rotate(0 165.45854226613665 80)"><path d="M32 0 C114.79 -1.73, 201.29 -0.41, 298.92 0 M32 0 C103.04 1.4, 172.69 1.46, 298.92 0 M298.92 0 C319.81 -0.64, 330.48 9.19, 330.92 32 M298.92 0 C321.04 0.24, 329.93 9.08, 330.92 32 M330.92 32 C330.61 60.27, 330.48 89.82, 330.92 128 M330.92 32 C332.15 60.62, 330.46 89.98, 330.92 128 M330.92 128 C331.91 148.17, 318.57 161.12, 298.92 160 M330.92 128 C328.92 150.27, 318.22 158.27, 298.92 160 M298.92 160 C237.22 158.87, 178.02 160, 32 160 M298.92 160 C200.68 160.06, 101.86 158.91, 32 160 M32 160 C9.54 159.88, 0.93 149.4, 0 128 M32 160 C9.92 161.74, 1.55 149.95, 0 128 M0 128 C-1.37 103.26, 0.85 80.79, 0 32 M0 128 C1.41 99.2, 0.93 69.84, 0 32 M0 32 C-1.36 11.34, 12.44 -0.28, 32 0 M0 32 C-2.18 10.59, 12.15 -1.4, 32 0" stroke="#1971c2" stroke-width="1" fill="none"></path></g><g transform="translate(1063.4853359707604 135.57055647299626) rotate(0 158.70986938476562 75)"><text x="158.70986938476562" y="0" font-family="Virgil, Segoe UI Emoji" font-size="20px" fill="#1971c2" text-anchor="middle" style="white-space: pre;" direction="ltr" dominant-baseline="text-before-edge">Multiply the output of IsEqual </text><text x="158.70986938476562" y="25" font-family="Virgil, Segoe UI Emoji" font-size="20px" fill="#1971c2" text-anchor="middle" style="white-space: pre;" direction="ltr" dominant-baseline="text-before-edge">(1 if it matches 0 if not) with </text><text x="158.70986938476562" y="50" font-family="Virgil, Segoe UI Emoji" font-size="20px" fill="#1971c2" text-anchor="middle" style="white-space: pre;" direction="ltr" dominant-baseline="text-before-edge">the input item at index i </text><text x="158.70986938476562" y="75" font-family="Virgil, Segoe UI Emoji" font-size="20px" fill="#1971c2" text-anchor="middle" style="white-space: pre;" direction="ltr" dominant-baseline="text-before-edge">(current loop index)</text><text x="158.70986938476562" y="100" font-family="Virgil, Segoe UI Emoji" font-size="20px" fill="#1971c2" text-anchor="middle" style="white-space: pre;" direction="ltr" dominant-baseline="text-before-edge">and assign it to the </text><text x="158.70986938476562" y="125" font-family="Virgil, Segoe UI Emoji" font-size="20px" fill="#1971c2" text-anchor="middle" style="white-space: pre;" direction="ltr" dominant-baseline="text-before-edge">CalculateTotal component</text></g><g stroke-linecap="round" transform="translate(1069.8209060128277 353.5463809259545) rotate(0 110.05757116156974 117.5)"><path d="M32 0 C67.19 -2.09, 102.79 -1.2, 188.12 0 M32 0 C94.25 0.97, 155.52 0.93, 188.12 0 M188.12 0 C208.55 -0.46, 218.62 11.2, 220.12 32 M188.12 0 C207.16 1.49, 220.47 8.45, 220.12 32 M220.12 32 C220.84 98.5, 220.83 166.56, 220.12 203 M220.12 32 C218.61 82.67, 220.04 133.16, 220.12 203 M220.12 203 C218.88 223.84, 207.92 236.39, 188.12 235 M220.12 203 C221.83 225.75, 207.47 233.77, 188.12 235 M188.12 235 C133.82 237.42, 77.47 236.64, 32 235 M188.12 235 C151.91 234.7, 116.83 234.15, 32 235 M32 235 C8.81 235.68, 0.23 224.1, 0 203 M32 235 C11.73 233.52, -0.23 226.34, 0 203 M0 203 C-0.96 166.49, -0.91 125.35, 0 32 M0 203 C0.24 144.39, 0.45 84.64, 0 32 M0 32 C-0.61 9.45, 9.1 -1.2, 32 0 M0 32 C-1.61 9.73, 12.92 1.28, 32 0" stroke="#1971c2" stroke-width="1" fill="none"></path></g><g transform="translate(1075.3885556045732 358.5463809259545) rotate(0 104.48992156982422 112.5)"><text x="104.48992156982422" y="0" font-family="Virgil, Segoe UI Emoji" font-size="20px" fill="#1971c2" text-anchor="middle" style="white-space: pre;" direction="ltr" dominant-baseline="text-before-edge">Because only 1 input </text><text x="104.48992156982422" y="25" font-family="Virgil, Segoe UI Emoji" font-size="20px" fill="#1971c2" text-anchor="middle" style="white-space: pre;" direction="ltr" dominant-baseline="text-before-edge">to CalculateTotal </text><text x="104.48992156982422" y="50" font-family="Virgil, Segoe UI Emoji" font-size="20px" fill="#1971c2" text-anchor="middle" style="white-space: pre;" direction="ltr" dominant-baseline="text-before-edge">would have been not </text><text x="104.48992156982422" y="75" font-family="Virgil, Segoe UI Emoji" font-size="20px" fill="#1971c2" text-anchor="middle" style="white-space: pre;" direction="ltr" dominant-baseline="text-before-edge">0 (as the index </text><text x="104.48992156982422" y="100" font-family="Virgil, Segoe UI Emoji" font-size="20px" fill="#1971c2" text-anchor="middle" style="white-space: pre;" direction="ltr" dominant-baseline="text-before-edge">matched in the step </text><text x="104.48992156982422" y="125" font-family="Virgil, Segoe UI Emoji" font-size="20px" fill="#1971c2" text-anchor="middle" style="white-space: pre;" direction="ltr" dominant-baseline="text-before-edge">above) we can use </text><text x="104.48992156982422" y="150" font-family="Virgil, Segoe UI Emoji" font-size="20px" fill="#1971c2" text-anchor="middle" style="white-space: pre;" direction="ltr" dominant-baseline="text-before-edge">the sum as the </text><text x="104.48992156982422" y="175" font-family="Virgil, Segoe UI Emoji" font-size="20px" fill="#1971c2" text-anchor="middle" style="white-space: pre;" direction="ltr" dominant-baseline="text-before-edge">actual number we </text><text x="104.48992156982422" y="200" font-family="Virgil, Segoe UI Emoji" font-size="20px" fill="#1971c2" text-anchor="middle" style="white-space: pre;" direction="ltr" dominant-baseline="text-before-edge">were looking for</text></g><g stroke-linecap="round"><g transform="translate(1007.2325269570383 386.79350948702495) rotate(0 24.303663651576926 18.79303784556913)"><path d="M-0.69 0.58 C7.28 6.96, 40.06 32.38, 48.16 38.55 M1.16 -0.16 C8.9 5.87, 38.76 30.42, 46.97 36.93" stroke="#1e1e1e" stroke-width="2" fill="none"></path></g><g transform="translate(1007.2325269570383 386.79350948702495) rotate(0 24.303663651576926 18.79303784556913)"><path d="M18.6 27.19 C28.92 29.81, 38.9 32.59, 46.97 36.93 M18.6 27.19 C26.82 29.12, 35.21 33.15, 46.97 36.93" stroke="#1e1e1e" stroke-width="2" fill="none"></path></g><g transform="translate(1007.2325269570383 386.79350948702495) rotate(0 24.303663651576926 18.79303784556913)"><path d="M31.5 11.23 C37.62 19.03, 43.35 27.05, 46.97 36.93 M31.5 11.23 C35.92 18.07, 40.43 26.89, 46.97 36.93" stroke="#1e1e1e" stroke-width="2" fill="none"></path></g></g><mask></mask></svg>