<svg version="1.1" xmlns="http://www.w3.org/2000/svg" viewBox="0 0 1436.2211634820942 999.8422318232763" width="2872.4423269641884" height="1999.6844636465526">
  <!-- svg-source:excalidraw -->
  
  <defs>
    <style class="style-fonts">
      @font-face {
        font-family: "Virgil";
        src: url("https://excalidraw.com/Virgil.woff2");
      }
      @font-face {
        font-family: "Cascadia";
        src: url("https://excalidraw.com/Cascadia.woff2");
      }
      @font-face {
        font-family: "Assistant";
        src: url("https://excalidraw.com/Assistant-Regular.woff2");
      }
    </style>
    
  </defs>
  <rect x="0" y="0" width="1436.2211634820942" height="999.8422318232763" fill="#ffffff"></rect><g stroke-linecap="round" transform="translate(319.1642555971598 250.24969994289063) rotate(0 114.33810379333897 33.80052213620297)"><path d="M16.9 0 C80.41 0.5, 142.77 2.76, 211.78 0 M16.9 0 C57.25 0.79, 95.75 2.22, 211.78 0 M211.78 0 C223.26 0.53, 227.55 5.44, 228.68 16.9 M211.78 0 C221.94 0.98, 226.6 4.85, 228.68 16.9 M228.68 16.9 C228.98 27.68, 230.66 42.94, 228.68 50.7 M228.68 16.9 C228.45 26.7, 228.22 37.39, 228.68 50.7 M228.68 50.7 C226.95 61.3, 222.77 67.32, 211.78 67.6 M228.68 50.7 C230.05 62.12, 224.44 69.02, 211.78 67.6 M211.78 67.6 C162.86 68.81, 111.5 69.99, 16.9 67.6 M211.78 67.6 C152.38 67.27, 91.5 67.89, 16.9 67.6 M16.9 67.6 C5.89 69.44, 0.12 62.08, 0 50.7 M16.9 67.6 C6.32 68.27, 2.03 61.37, 0 50.7 M0 50.7 C1.09 42.55, -0.53 31.01, 0 16.9 M0 50.7 C0.17 42.19, -0.36 31.32, 0 16.9 M0 16.9 C-1.82 4.51, 6.99 1.84, 16.9 0 M0 16.9 C-1.53 4.83, 3.51 -0.47, 16.9 0" stroke="#1971c2" stroke-width="1" fill="none"></path></g><g transform="translate(363.6624240877645 271.5502220790934) rotate(0 69.83993530273438 12.5)"><text x="69.83993530273438" y="0" font-family="Virgil, Segoe UI Emoji" font-size="20px" fill="#e03131" text-anchor="middle" style="white-space: pre;" direction="ltr" dominant-baseline="text-before-edge">QuinCheckRoot</text></g><g stroke-linecap="round" transform="translate(317.45534478756235 109.16043579708457) rotate(0 110.05757116156975 32.17741655087593)"><path d="M16.09 0 C61.49 -0.8, 109.04 0.21, 204.03 0 M16.09 0 C56.1 -0.77, 95.33 -1.13, 204.03 0 M204.03 0 C213.8 0.85, 218.31 4.68, 220.12 16.09 M204.03 0 C216.25 1.86, 221.02 5.4, 220.12 16.09 M220.12 16.09 C220.2 23.09, 218.87 29.93, 220.12 48.27 M220.12 16.09 C219.11 25.36, 219.84 35.17, 220.12 48.27 M220.12 48.27 C221.31 59.13, 215.97 65.59, 204.03 64.35 M220.12 48.27 C219.16 56.84, 216.11 66.06, 204.03 64.35 M204.03 64.35 C147.26 64.25, 90.18 66.55, 16.09 64.35 M204.03 64.35 C153.48 65.87, 102.75 65.01, 16.09 64.35 M16.09 64.35 C5.96 64.93, 1.76 58.47, 0 48.27 M16.09 64.35 C5.16 65.71, -1.11 60.47, 0 48.27 M0 48.27 C-0.39 33.9, 0.61 23.19, 0 16.09 M0 48.27 C-0.69 35.21, 0.9 24.2, 0 16.09 M0 16.09 C-1.33 4.66, 3.52 -0.41, 16.09 0 M0 16.09 C1.49 4.14, 6.44 -1.81, 16.09 0" stroke="#1971c2" stroke-width="1" fill="none"></path></g><g transform="translate(322.6629937689563 116.3378523479605) rotate(0 104.84992218017578 25)"><text x="104.84992218017578" y="0" font-family="Virgil, Segoe UI Emoji" font-size="20px" fill="#1971c2" text-anchor="middle" style="white-space: pre;" direction="ltr" dominant-baseline="text-before-edge">leaves (array of len </text><text x="104.84992218017578" y="25" font-family="Virgil, Segoe UI Emoji" font-size="20px" fill="#1971c2" text-anchor="middle" style="white-space: pre;" direction="ltr" dominant-baseline="text-before-edge">5 ** levels)</text></g><g stroke-linecap="round"><g transform="translate(420.7474453768373 200.58009374733615) rotate(0 -0.44580281989499326 19.782500132839004)"><path d="M0.39 -0.48 C0.18 6.24, -0.92 33.17, -1.12 39.87 M-0.07 0.46 C-0.38 7.06, -1.49 32.4, -1.67 39.06" stroke="#1e1e1e" stroke-width="1" fill="none"></path></g><g transform="translate(420.7474453768373 200.58009374733615) rotate(0 -0.44580281989499326 19.782500132839004)"><path d="M-7.76 20.23 C-6.75 25.83, -3.39 32.39, -1.67 39.06 M-7.76 20.23 C-6.06 26.59, -4.28 32.35, -1.67 39.06" stroke="#1e1e1e" stroke-width="1" fill="none"></path></g><g transform="translate(420.7474453768373 200.58009374733615) rotate(0 -0.44580281989499326 19.782500132839004)"><path d="M5.77 20.72 C2.44 26.21, 1.46 32.61, -1.67 39.06 M5.77 20.72 C3.05 26.91, 0.41 32.52, -1.67 39.06" stroke="#1e1e1e" stroke-width="1" fill="none"></path></g></g><mask></mask><g stroke-linecap="round" transform="translate(10 253.33636999422674) rotate(0 110.05757116156974 32.17741655087593)"><path d="M16.09 0 C86.91 1.01, 156.06 -0.33, 204.03 0 M16.09 0 C69.71 -1.14, 125.8 0.01, 204.03 0 M204.03 0 C215.54 0.03, 218.55 7.08, 220.12 16.09 M204.03 0 C216.29 -0.22, 219.97 3.61, 220.12 16.09 M220.12 16.09 C221.83 23.34, 219.44 33.78, 220.12 48.27 M220.12 16.09 C220.92 25.91, 219.89 33.56, 220.12 48.27 M220.12 48.27 C221.3 60.47, 214.81 64.88, 204.03 64.35 M220.12 48.27 C221.54 59.16, 213.29 64.33, 204.03 64.35 M204.03 64.35 C138.56 63.76, 73.66 63.63, 16.09 64.35 M204.03 64.35 C147.51 64.64, 89.13 65.49, 16.09 64.35 M16.09 64.35 C4.4 65.64, 1.69 58.67, 0 48.27 M16.09 64.35 C5.34 63.84, -2.3 59.63, 0 48.27 M0 48.27 C-1.48 37.34, -1.41 31.41, 0 16.09 M0 48.27 C-0.71 35.44, 0.86 22.49, 0 16.09 M0 16.09 C0.93 3.79, 6.61 -0.86, 16.09 0 M0 16.09 C-0.4 4.42, 3.94 0.85, 16.09 0" stroke="#f08c00" stroke-width="1" fill="none"></path></g><g transform="translate(35.987647760690834 273.0137865451027) rotate(0 84.0699234008789 12.5)"><text x="84.0699234008789" y="0" font-family="Virgil, Segoe UI Emoji" font-size="20px" fill="#f08c00" text-anchor="middle" style="white-space: pre;" direction="ltr" dominant-baseline="text-before-edge">parameter: levels</text></g><g transform="translate(466.1491603400291 203.1269487461807) rotate(0 26.379974365234375 12.5)"><text x="0" y="0" font-family="Virgil, Segoe UI Emoji" font-size="20px" fill="#1e1e1e" text-anchor="start" style="white-space: pre;" direction="ltr" dominant-baseline="text-before-edge">Input</text></g><g transform="translate(477.43539645203145 351.6938564526765) rotate(0 34.84996032714844 12.5)"><text x="0" y="0" font-family="Virgil, Segoe UI Emoji" font-size="20px" fill="#1e1e1e" text-anchor="start" style="white-space: pre;" direction="ltr" dominant-baseline="text-before-edge">Output</text></g><g stroke-linecap="round"><g transform="translate(416.454529333404 350.42350268258747) rotate(0 0.2229014099474398 20.51105751905652)"><path d="M-0.5 -0.19 C-0.32 6.68, 0.61 34.6, 0.81 41.47 M0.25 -0.76 C0.41 5.95, 0.53 33.67, 0.56 40.73" stroke="#1e1e1e" stroke-width="1" fill="none"></path></g><g transform="translate(416.454529333404 350.42350268258747) rotate(0 0.2229014099474398 20.51105751905652)"><path d="M-6.54 21.49 C-5.05 27.03, -2.11 31.62, 0.56 40.73 M-6.54 21.49 C-4.14 27.21, -2.37 32.68, 0.56 40.73" stroke="#1e1e1e" stroke-width="1" fill="none"></path></g><g transform="translate(416.454529333404 350.42350268258747) rotate(0 0.2229014099474398 20.51105751905652)"><path d="M7.49 21.42 C5.44 26.92, 4.84 31.53, 0.56 40.73 M7.49 21.42 C5.66 27.23, 3.2 32.72, 0.56 40.73" stroke="#1e1e1e" stroke-width="1" fill="none"></path></g></g><mask></mask><g stroke-linecap="round" transform="translate(319.8948768853206 417.3216350494797) rotate(0 110.05757116156975 32.17741655087593)"><path d="M16.09 0 C57.15 -0.44, 95 -2.8, 204.03 0 M16.09 0 C88.51 -0.58, 160.86 0.17, 204.03 0 M204.03 0 C213.89 1.72, 218.39 4.69, 220.12 16.09 M204.03 0 C214.44 -0.32, 221.49 5.52, 220.12 16.09 M220.12 16.09 C218.45 28.88, 221.8 39.37, 220.12 48.27 M220.12 16.09 C219.68 26.57, 220.83 36.77, 220.12 48.27 M220.12 48.27 C219.22 59.63, 215 66.19, 204.03 64.35 M220.12 48.27 C220.26 59.12, 215.44 65.02, 204.03 64.35 M204.03 64.35 C132.24 63.22, 59.39 65.87, 16.09 64.35 M204.03 64.35 C149.71 64.22, 97.23 64.82, 16.09 64.35 M16.09 64.35 C3.96 63.16, -1.82 57.86, 0 48.27 M16.09 64.35 C6.92 66.48, -1.53 58.18, 0 48.27 M0 48.27 C-1 42.52, -1.51 36.15, 0 16.09 M0 48.27 C-0.56 40.37, 0.21 31.32, 0 16.09 M0 16.09 C1.08 3.4, 4.27 -1.82, 16.09 0 M0 16.09 C0.59 6.28, 4.81 0.54, 16.09 0" stroke="#1971c2" stroke-width="1" fill="none"></path></g><g transform="translate(408.9224721557771 436.99905160035564) rotate(0 21.02997589111328 12.5)"><text x="21.02997589111328" y="0" font-family="Virgil, Segoe UI Emoji" font-size="20px" fill="#2f9e44" text-anchor="middle" style="white-space: pre;" direction="ltr" dominant-baseline="text-before-edge">root</text></g><g stroke-linecap="round"><g transform="translate(245.4148474337021 287.0251667424425) rotate(0 25.113558854083067 -0.18811706408132522)"><path d="M-0.94 1.03 C7.48 0.94, 42.52 -0.11, 51.03 -0.49 M0.76 0.52 C9.06 0.63, 42.41 1.15, 50.51 0.98" stroke="#1e1e1e" stroke-width="1" fill="none"></path></g><g transform="translate(245.4148474337021 287.0251667424425) rotate(0 25.113558854083067 -0.18811706408132522)"><path d="M27.01 9.52 C36.7 8.15, 42.76 3.79, 50.51 0.98 M27.01 9.52 C31.85 8.47, 36.68 5.37, 50.51 0.98" stroke="#1e1e1e" stroke-width="1" fill="none"></path></g><g transform="translate(245.4148474337021 287.0251667424425) rotate(0 25.113558854083067 -0.18811706408132522)"><path d="M27.02 -7.58 C36.7 -3.15, 42.77 -1.71, 50.51 0.98 M27.02 -7.58 C31.82 -4.8, 36.65 -4.08, 50.51 0.98" stroke="#1e1e1e" stroke-width="1" fill="none"></path></g></g><mask></mask><g stroke-linecap="round" transform="translate(758.9446096196552 86.71485718718168) rotate(0 110.05757116156974 55)"><path d="M27.5 0 C63.88 -1.23, 99.12 -1.52, 192.62 0 M27.5 0 C75.95 -1.75, 126 -1.56, 192.62 0 M192.62 0 C212.14 0.14, 221.33 10.4, 220.12 27.5 M192.62 0 C210 -2.15, 221.47 10.87, 220.12 27.5 M220.12 27.5 C220.41 42.88, 220.23 61.85, 220.12 82.5 M220.12 27.5 C219.99 43.25, 219.93 57.21, 220.12 82.5 M220.12 82.5 C220.72 101.41, 212.71 109.48, 192.62 110 M220.12 82.5 C219.91 102.19, 209.84 111.48, 192.62 110 M192.62 110 C128.72 107.98, 66.26 109.64, 27.5 110 M192.62 110 C127.59 108.45, 65.06 109.93, 27.5 110 M27.5 110 C7.83 109.3, -1.85 100.43, 0 82.5 M27.5 110 C10.65 108.77, 1.07 99.02, 0 82.5 M0 82.5 C-0.59 61.33, 0.98 42.94, 0 27.5 M0 82.5 C-0.84 67.37, -0.04 54.46, 0 27.5 M0 27.5 C-0.48 9.63, 9.53 0.25, 27.5 0 M0 27.5 C0.26 10.02, 10.3 -1.03, 27.5 0" stroke="#1971c2" stroke-width="1" fill="none"></path></g><g transform="translate(764.1822497509515 91.71485718718168) rotate(0 104.81993103027344 50)"><text x="104.81993103027344" y="0" font-family="Virgil, Segoe UI Emoji" font-size="20px" fill="#1971c2" text-anchor="middle" style="white-space: pre;" direction="ltr" dominant-baseline="text-before-edge">1. calculate how many</text><text x="104.81993103027344" y="25" font-family="Virgil, Segoe UI Emoji" font-size="20px" fill="#1971c2" text-anchor="middle" style="white-space: pre;" direction="ltr" dominant-baseline="text-before-edge">Poseidon hashers </text><text x="104.81993103027344" y="50" font-family="Virgil, Segoe UI Emoji" font-size="20px" fill="#1971c2" text-anchor="middle" style="white-space: pre;" direction="ltr" dominant-baseline="text-before-edge">objects we need to </text><text x="104.81993103027344" y="75" font-family="Virgil, Segoe UI Emoji" font-size="20px" fill="#1971c2" text-anchor="middle" style="white-space: pre;" direction="ltr" dominant-baseline="text-before-edge">hash the leaves</text></g><g stroke-linecap="round" transform="translate(1120.4700575350334 94.26873830206864) rotate(0 110.05757116156974 32.17741655087593)"><path d="M16.09 0 C71.28 -0.47, 128.23 -1.34, 204.03 0 M16.09 0 C66.75 0.33, 116.83 0.88, 204.03 0 M204.03 0 C213.92 -1.87, 221.3 6.84, 220.12 16.09 M204.03 0 C214.82 0.6, 221.54 5.53, 220.12 16.09 M220.12 16.09 C219.5 22.8, 220.75 31.56, 220.12 48.27 M220.12 16.09 C220.43 28.99, 221.02 41.05, 220.12 48.27 M220.12 48.27 C219.94 60.17, 213.79 65.64, 204.03 64.35 M220.12 48.27 C222.05 58.62, 214.73 63.84, 204.03 64.35 M204.03 64.35 C168.19 62.63, 127.63 62.21, 16.09 64.35 M204.03 64.35 C157.57 65.74, 111.52 65.88, 16.09 64.35 M16.09 64.35 C6.65 63.29, 0.93 57.41, 0 48.27 M16.09 64.35 C6.8 63.36, -0.4 58.05, 0 48.27 M0 48.27 C-0.95 41.69, -2.08 31.86, 0 16.09 M0 48.27 C-0.32 41.77, 0.1 34.93, 0 16.09 M0 16.09 C0.22 6.1, 6.35 -0.89, 16.09 0 M0 16.09 C-0.99 3.28, 7.39 1.76, 16.09 0" stroke="#1971c2" stroke-width="1" fill="none"></path></g><g transform="translate(1152.8176906472868 113.94615485294457) rotate(0 77.7099380493164 12.5)"><text x="77.7099380493164" y="0" font-family="Virgil, Segoe UI Emoji" font-size="20px" fill="#1971c2" text-anchor="middle" style="white-space: pre;" direction="ltr" dominant-baseline="text-before-edge">5 ** (levels - 1)</text></g><g stroke-linecap="round" transform="translate(762.036334731705 207.68015012257115) rotate(0 110.05757116156974 55)"><path d="M27.5 0 C69.22 1.16, 112.01 2.62, 192.62 0 M27.5 0 C77.74 -1.95, 129.41 -0.28, 192.62 0 M192.62 0 C211 0.52, 221.35 9.32, 220.12 27.5 M192.62 0 C209.49 -0.03, 221.31 8.47, 220.12 27.5 M220.12 27.5 C222.13 41.65, 220.4 56.16, 220.12 82.5 M220.12 27.5 C220.51 46.19, 220.12 64.33, 220.12 82.5 M220.12 82.5 C221.8 100.51, 210.93 109.56, 192.62 110 M220.12 82.5 C217.82 101.47, 210.55 112.03, 192.62 110 M192.62 110 C153.5 109.85, 118.49 107.16, 27.5 110 M192.62 110 C149.52 109.13, 105.61 108.88, 27.5 110 M27.5 110 C10.41 109.14, -0.35 100.01, 0 82.5 M27.5 110 C7.74 110.85, 0.35 99.88, 0 82.5 M0 82.5 C-1.28 63.53, 1.34 43.05, 0 27.5 M0 82.5 C0.01 65.09, 0.39 46.49, 0 27.5 M0 27.5 C-0.86 7.36, 10.93 1.53, 27.5 0 M0 27.5 C0.48 7.41, 8.14 -0.95, 27.5 0" stroke="#1971c2" stroke-width="1" fill="none"></path></g><g transform="translate(772.8839907321419 212.68015012257115) rotate(0 99.20991516113281 50)"><text x="99.20991516113281" y="0" font-family="Virgil, Segoe UI Emoji" font-size="20px" fill="#1971c2" text-anchor="middle" style="white-space: pre;" direction="ltr" dominant-baseline="text-before-edge">2. Calculate how </text><text x="99.20991516113281" y="25" font-family="Virgil, Segoe UI Emoji" font-size="20px" fill="#1971c2" text-anchor="middle" style="white-space: pre;" direction="ltr" dominant-baseline="text-before-edge">many Poseidon </text><text x="99.20991516113281" y="50" font-family="Virgil, Segoe UI Emoji" font-size="20px" fill="#1971c2" text-anchor="middle" style="white-space: pre;" direction="ltr" dominant-baseline="text-before-edge">hashers objects we </text><text x="99.20991516113281" y="75" font-family="Virgil, Segoe UI Emoji" font-size="20px" fill="#1971c2" text-anchor="middle" style="white-space: pre;" direction="ltr" dominant-baseline="text-before-edge">need in total</text></g><g stroke-linecap="round" transform="translate(765.9783874446657 341.6232584815682) rotate(0 98.33254421794342 50.71327566239893)"><path d="M25.36 0 C67.32 0.35, 110.24 -1.7, 171.31 0 M25.36 0 C55.54 -0.82, 86.29 -1.01, 171.31 0 M171.31 0 C186.94 -0.03, 197.7 7.84, 196.67 25.36 M171.31 0 C187.18 0.73, 196.96 10.57, 196.67 25.36 M196.67 25.36 C197.27 42.64, 196.17 56.22, 196.67 76.07 M196.67 25.36 C197.26 43.4, 196.41 61.55, 196.67 76.07 M196.67 76.07 C194.67 93.53, 187.87 103.19, 171.31 101.43 M196.67 76.07 C195.06 91.6, 186.12 100.13, 171.31 101.43 M171.31 101.43 C116.95 98.61, 63.59 101.75, 25.36 101.43 M171.31 101.43 C135.94 99.84, 99.14 99.86, 25.36 101.43 M25.36 101.43 C7.21 102.17, 0.3 92.14, 0 76.07 M25.36 101.43 C9.7 99.17, -1.26 90.88, 0 76.07 M0 76.07 C0.26 59.92, 0.05 43.27, 0 25.36 M0 76.07 C-0.68 58.08, 0.63 42.67, 0 25.36 M0 25.36 C0.41 6.93, 7.56 -0.82, 25.36 0 M0 25.36 C0.26 8.13, 8.99 1.31, 25.36 0" stroke="#1971c2" stroke-width="1" fill="none"></path></g><g transform="translate(780.8709978857537 367.33653414396736) rotate(0 83.43993377685547 25)"><text x="83.43993377685547" y="0" font-family="Virgil, Segoe UI Emoji" font-size="20px" fill="#1971c2" text-anchor="middle" style="white-space: pre;" direction="ltr" dominant-baseline="text-before-edge">3. Initialize the </text><text x="83.43993377685547" y="25" font-family="Virgil, Segoe UI Emoji" font-size="20px" fill="#1971c2" text-anchor="middle" style="white-space: pre;" direction="ltr" dominant-baseline="text-before-edge">hashers</text></g><g transform="translate(604.2456596927095 228.64956929036475) rotate(0 49.669944763183594 12.5)"><text x="0" y="0" font-family="Virgil, Segoe UI Emoji" font-size="20px" fill="#1e1e1e" text-anchor="start" style="white-space: pre;" direction="ltr" dominant-baseline="text-before-edge">Processing</text></g><g stroke-linecap="round"><g transform="translate(587.0690474326502 289.28389042735694) rotate(0 54.0494641083767 -0.8482636989667753)"><path d="M0.71 0.89 C18.81 0.85, 90.11 -0.97, 108.13 -1.38 M-0.38 0.31 C17.61 -0.01, 89.06 -3.25, 107.2 -3.34" stroke="#1e1e1e" stroke-width="1" fill="none"></path></g><g transform="translate(587.0690474326502 289.28389042735694) rotate(0 54.0494641083767 -0.8482636989667753)"><path d="M83.96 5.85 C91.53 3.39, 96.59 2.2, 107.2 -3.34 M83.96 5.85 C91.68 2.73, 97.86 0.52, 107.2 -3.34" stroke="#1e1e1e" stroke-width="1" fill="none"></path></g><g transform="translate(587.0690474326502 289.28389042735694) rotate(0 54.0494641083767 -0.8482636989667753)"><path d="M83.48 -11.24 C91.03 -9.28, 96.2 -6.06, 107.2 -3.34 M83.48 -11.24 C91.24 -9.11, 97.57 -6.06, 107.2 -3.34" stroke="#1e1e1e" stroke-width="1" fill="none"></path></g></g><mask></mask><g stroke-linecap="round" transform="translate(768.7460799515125 461.1005223625291) rotate(0 102.19823255897688 42.5)"><path d="M21.25 0 C79.9 1.19, 137.66 -1.32, 183.15 0 M21.25 0 C69.17 0.81, 118.11 1.41, 183.15 0 M183.15 0 C197.44 0.11, 205 7.66, 204.4 21.25 M183.15 0 C199.34 -0.6, 204.19 8.44, 204.4 21.25 M204.4 21.25 C204.34 31.93, 204.23 40.66, 204.4 63.75 M204.4 21.25 C203.62 34.58, 203.41 48.55, 204.4 63.75 M204.4 63.75 C205.75 79.76, 195.98 84.3, 183.15 85 M204.4 63.75 C202.27 77.45, 198.8 83.77, 183.15 85 M183.15 85 C126.15 85.66, 70.07 84.77, 21.25 85 M183.15 85 C129.14 83.35, 73.5 83.42, 21.25 85 M21.25 85 C7.6 85.8, -0.48 78.38, 0 63.75 M21.25 85 C7.5 85.29, 0.26 78.77, 0 63.75 M0 63.75 C-1.62 50.67, 1.72 34.48, 0 21.25 M0 63.75 C0.3 54.1, 0.42 45.31, 0 21.25 M0 21.25 C0.78 5.6, 5.4 0.01, 21.25 0 M0 21.25 C0.38 7, 7.27 2.1, 21.25 0" stroke="#1971c2" stroke-width="1" fill="none"></path></g><g transform="translate(775.4243845319738 466.1005223625291) rotate(0 95.51992797851562 37.5)"><text x="95.51992797851562" y="0" font-family="Virgil, Segoe UI Emoji" font-size="20px" fill="#1971c2" text-anchor="middle" style="white-space: pre;" direction="ltr" dominant-baseline="text-before-edge">4. Wire the leaves </text><text x="95.51992797851562" y="25" font-family="Virgil, Segoe UI Emoji" font-size="20px" fill="#1971c2" text-anchor="middle" style="white-space: pre;" direction="ltr" dominant-baseline="text-before-edge">values into the </text><text x="95.51992797851562" y="50" font-family="Virgil, Segoe UI Emoji" font-size="20px" fill="#1971c2" text-anchor="middle" style="white-space: pre;" direction="ltr" dominant-baseline="text-before-edge">leaf hashers</text></g><g stroke-linecap="round"><g transform="translate(1011.8221314011867 131.45457777799106) rotate(0 46.90836338228155 -1.0051202467076337)"><path d="M-0.35 0.82 C15.17 0.38, 77.42 -1.6, 93.12 -2.08 M1.66 0.21 C17.58 -0.08, 80.22 -0.42, 95.47 -0.58" stroke="#1e1e1e" stroke-width="1" fill="none"></path></g><g transform="translate(1011.8221314011867 131.45457777799106) rotate(0 46.90836338228155 -1.0051202467076337)"><path d="M72.04 8.15 C80.37 4.45, 85.88 3.1, 95.47 -0.58 M72.04 8.15 C79.28 4.92, 84.97 3.94, 95.47 -0.58" stroke="#1e1e1e" stroke-width="1" fill="none"></path></g><g transform="translate(1011.8221314011867 131.45457777799106) rotate(0 46.90836338228155 -1.0051202467076337)"><path d="M71.91 -8.95 C80.36 -7.54, 85.91 -3.78, 95.47 -0.58 M71.91 -8.95 C79.34 -7.09, 85.07 -2.98, 95.47 -0.58" stroke="#1e1e1e" stroke-width="1" fill="none"></path></g></g><mask></mask><g transform="translate(329.0591834206367 10) rotate(0 99.9638442993164 20.43776687646323)"><text x="0" y="0" font-family="Virgil, Segoe UI Emoji" font-size="32.70042700234123px" fill="#1e1e1e" text-anchor="start" style="white-space: pre;" direction="ltr" dominant-baseline="text-before-edge">Quinary tree</text></g><g stroke-linecap="round" transform="translate(1126.49221888676 223.22247058183643) rotate(0 110.05757116156974 42.5)"><path d="M21.25 0 C82.17 -2.68, 146.21 -0.9, 198.87 0 M21.25 0 C68.27 1.75, 116.02 2.36, 198.87 0 M198.87 0 C211.14 1.52, 219.49 8.04, 220.12 21.25 M198.87 0 C213.37 0.44, 218.73 8.69, 220.12 21.25 M220.12 21.25 C220.62 36.63, 220.26 54.44, 220.12 63.75 M220.12 21.25 C220.72 36.11, 220.38 50.22, 220.12 63.75 M220.12 63.75 C221.67 78.25, 213.3 86.57, 198.87 85 M220.12 63.75 C221.11 78.81, 211.78 86.18, 198.87 85 M198.87 85 C159.93 83.59, 120.98 84.2, 21.25 85 M198.87 85 C129.23 85.91, 58.43 86, 21.25 85 M21.25 85 C7.21 85.06, 1.89 76.94, 0 63.75 M21.25 85 C4.85 85.79, 0.33 75.74, 0 63.75 M0 63.75 C0.49 55.83, 1.54 47.57, 0 21.25 M0 63.75 C-1.33 54.53, 0.36 44.72, 0 21.25 M0 21.25 C0.08 6.08, 6.93 -1.4, 21.25 0 M0 21.25 C1.9 7.72, 9.01 -1.75, 21.25 0" stroke="#1971c2" stroke-width="1" fill="none"></path></g><g transform="translate(1131.949883126943 228.22247058183643) rotate(0 104.59990692138672 37.5)"><text x="104.59990692138672" y="0" font-family="Virgil, Segoe UI Emoji" font-size="20px" fill="#1971c2" text-anchor="middle" style="white-space: pre;" direction="ltr" dominant-baseline="text-before-edge">loop from 0 to levels</text><text x="104.59990692138672" y="25" font-family="Virgil, Segoe UI Emoji" font-size="20px" fill="#1971c2" text-anchor="middle" style="white-space: pre;" direction="ltr" dominant-baseline="text-before-edge">and sum 5 ** the </text><text x="104.59990692138672" y="50" font-family="Virgil, Segoe UI Emoji" font-size="20px" fill="#1971c2" text-anchor="middle" style="white-space: pre;" direction="ltr" dominant-baseline="text-before-edge">loop index</text></g><g stroke-linecap="round"><g transform="translate(1017.8442927529136 260.4083100577593) rotate(0 46.90836338228155 -1.00512024670752)"><path d="M0.2 -0.4 C15.8 -0.98, 77.21 -2.85, 92.73 -3.09 M-1.16 -1.65 C14.88 -2.15, 79.3 -2.33, 94.88 -2.12" stroke="#1e1e1e" stroke-width="1" fill="none"></path></g><g transform="translate(1017.8442927529136 260.4083100577593) rotate(0 46.90836338228155 -1.00512024670752)"><path d="M71.36 6.35 C76.02 2.57, 80.23 1.63, 94.88 -2.12 M71.36 6.35 C77.82 4.26, 85.86 1.32, 94.88 -2.12" stroke="#1e1e1e" stroke-width="1" fill="none"></path></g><g transform="translate(1017.8442927529136 260.4083100577593) rotate(0 46.90836338228155 -1.00512024670752)"><path d="M71.41 -10.75 C76.12 -10.63, 80.32 -7.68, 94.88 -2.12 M71.41 -10.75 C77.85 -7.45, 85.87 -5.02, 94.88 -2.12" stroke="#1e1e1e" stroke-width="1" fill="none"></path></g></g><mask></mask><g stroke-linecap="round" transform="translate(1098.9119209804364 522.3110310592585) rotate(0 135.31147534784162 35.430081767388856)"><path d="M17.72 0 C88.27 -0.81, 158.85 -1.29, 252.91 0 M17.72 0 C80.34 -0.34, 141.93 1.19, 252.91 0 M252.91 0 C264.93 -0.31, 270.58 6.12, 270.62 17.72 M252.91 0 C266.15 -1.45, 270.08 3.8, 270.62 17.72 M270.62 17.72 C272.6 27.07, 270.58 36.59, 270.62 53.15 M270.62 17.72 C271.29 25.14, 269.83 33.02, 270.62 53.15 M270.62 53.15 C270.31 65.83, 262.92 72.46, 252.91 70.86 M270.62 53.15 C269.27 66, 264.47 70.9, 252.91 70.86 M252.91 70.86 C191.94 68.49, 130.6 69.33, 17.72 70.86 M252.91 70.86 C189.34 69.99, 124.97 69.87, 17.72 70.86 M17.72 70.86 C5.08 71.44, 1.67 63.08, 0 53.15 M17.72 70.86 C7.66 69.95, -2.12 64.87, 0 53.15 M0 53.15 C-1.87 40.6, -1.39 32.44, 0 17.72 M0 53.15 C-0.17 41.08, 0.77 28.42, 0 17.72 M0 17.72 C1.31 4.06, 4.39 -1.99, 17.72 0 M0 17.72 C-0.29 4.64, 3.78 -1.89, 17.72 0" stroke="#1971c2" stroke-width="1" fill="none"></path></g><g transform="translate(1120.743484524079 545.2411128266478) rotate(0 113.47991180419922 12.5)"><text x="113.47991180419922" y="0" font-family="Virgil, Segoe UI Emoji" font-size="20px" fill="#1971c2" text-anchor="middle" style="white-space: pre;" direction="ltr" dominant-baseline="text-before-edge">Inner loop from 0 to 5</text></g><g stroke-linecap="round" transform="translate(1100.9654148086922 621.5480466938486) rotate(0 109.52714836197231 33.28155984372802)"><path d="M16.64 0 C64.46 1.6, 110.05 -0.93, 202.41 0 M16.64 0 C73.15 0.45, 129.93 -1.16, 202.41 0 M202.41 0 C214.38 -1.32, 217.77 7.49, 219.05 16.64 M202.41 0 C215.78 -1.76, 216.78 5.33, 219.05 16.64 M219.05 16.64 C217.24 29.43, 220.66 39.83, 219.05 49.92 M219.05 16.64 C219.08 26.15, 218.66 36.62, 219.05 49.92 M219.05 49.92 C219.77 61.3, 212.72 66.26, 202.41 66.56 M219.05 49.92 C218.03 62.91, 214.59 68.82, 202.41 66.56 M202.41 66.56 C144.85 64.51, 88.28 68.01, 16.64 66.56 M202.41 66.56 C137.42 65.53, 70.94 65.32, 16.64 66.56 M16.64 66.56 C5.33 65.86, 1.76 59.33, 0 49.92 M16.64 66.56 C3.76 66.93, -2.23 60.82, 0 49.92 M0 49.92 C-0.3 38.6, -0.5 24.35, 0 16.64 M0 49.92 C0.83 37.27, -0.97 24.46, 0 16.64 M0 16.64 C-0.61 3.98, 6.44 -0.51, 16.64 0 M0 16.64 C2.17 5.49, 4.21 1.72, 16.64 0" stroke="#1971c2" stroke-width="1" fill="none"></path></g><g transform="translate(1117.3326358025004 629.8296065375764) rotate(0 93.15992736816406 25)"><text x="93.15992736816406" y="0" font-family="Virgil, Segoe UI Emoji" font-size="20px" fill="#1971c2" text-anchor="middle" style="white-space: pre;" direction="ltr" dominant-baseline="text-before-edge">Wire the leaf into </text><text x="93.15992736816406" y="25" font-family="Virgil, Segoe UI Emoji" font-size="20px" fill="#1971c2" text-anchor="middle" style="white-space: pre;" direction="ltr" dominant-baseline="text-before-edge">the hasher</text></g><g stroke-linecap="round"><g transform="translate(1019.2439227916593 514.520067325361) rotate(0 27.421001227428405 0.910180757285616)"><path d="M0.75 -0.6 C9.81 -0.3, 45.68 1.67, 54.7 2.07 M-0.32 1.7 C8.55 1.59, 44.6 -0.16, 53.67 0.08" stroke="#1e1e1e" stroke-width="1" fill="none"></path></g><g transform="translate(1019.2439227916593 514.520067325361) rotate(0 27.421001227428405 0.910180757285616)"><path d="M30.32 9 C36.9 5.71, 45.91 3.09, 53.67 0.08 M30.32 9 C36.53 7.33, 44.59 4.69, 53.67 0.08" stroke="#1e1e1e" stroke-width="1" fill="none"></path></g><g transform="translate(1019.2439227916593 514.520067325361) rotate(0 27.421001227428405 0.910180757285616)"><path d="M30.05 -8.09 C36.76 -5.82, 45.86 -2.88, 53.67 0.08 M30.05 -8.09 C36.48 -4.66, 44.62 -2.2, 53.67 0.08" stroke="#1e1e1e" stroke-width="1" fill="none"></path></g></g><mask></mask><g stroke-linecap="round" transform="translate(772.7376663111265 589.3223434154213) rotate(0 102.19823255897688 67.5)"><path d="M32 0 C69.57 -0.94, 104.23 -0.43, 172.4 0 M32 0 C78.24 -0.96, 124.89 -0.17, 172.4 0 M172.4 0 C192.01 -0.97, 205.98 9.36, 204.4 32 M172.4 0 C195.27 -1.23, 206.45 11.32, 204.4 32 M204.4 32 C202.28 58.57, 202.77 87.63, 204.4 103 M204.4 32 C204.37 57.52, 204.93 84.91, 204.4 103 M204.4 103 C202.87 125.38, 194.99 133.97, 172.4 135 M204.4 103 C206.02 122.75, 192.16 136.66, 172.4 135 M172.4 135 C124.25 134.13, 79.67 136.6, 32 135 M172.4 135 C127.51 134.38, 82.06 134.31, 32 135 M32 135 C10.04 135.34, -1.44 124.76, 0 103 M32 135 C10.98 134.05, 0.13 125.74, 0 103 M0 103 C0.6 77.24, -0.03 53.13, 0 32 M0 103 C-0.76 84.56, -0.27 64.77, 0 32 M0 32 C0.29 9.93, 12.13 -1.92, 32 0 M0 32 C1.56 8.92, 12.87 1, 32 0" stroke="#1971c2" stroke-width="1" fill="none"></path></g><g transform="translate(789.1259776054551 594.3223434154213) rotate(0 85.80992126464844 62.5)"><text x="85.80992126464844" y="0" font-family="Virgil, Segoe UI Emoji" font-size="20px" fill="#1971c2" text-anchor="middle" style="white-space: pre;" direction="ltr" dominant-baseline="text-before-edge">5. Wire the </text><text x="85.80992126464844" y="25" font-family="Virgil, Segoe UI Emoji" font-size="20px" fill="#1971c2" text-anchor="middle" style="white-space: pre;" direction="ltr" dominant-baseline="text-before-edge">outputs of the </text><text x="85.80992126464844" y="50" font-family="Virgil, Segoe UI Emoji" font-size="20px" fill="#1971c2" text-anchor="middle" style="white-space: pre;" direction="ltr" dominant-baseline="text-before-edge">leaf hashers to </text><text x="85.80992126464844" y="75" font-family="Virgil, Segoe UI Emoji" font-size="20px" fill="#1971c2" text-anchor="middle" style="white-space: pre;" direction="ltr" dominant-baseline="text-before-edge">the intermediate </text><text x="85.80992126464844" y="100" font-family="Virgil, Segoe UI Emoji" font-size="20px" fill="#1971c2" text-anchor="middle" style="white-space: pre;" direction="ltr" dominant-baseline="text-before-edge">hasher inputs</text></g><g stroke-linecap="round" transform="translate(1092.9793878789303 421.06431424229345) rotate(0 162.00804699294042 42.55980890920955)"><path d="M21.28 0 C123.54 0.45, 227.06 0.15, 302.74 0 M21.28 0 C79.98 -1.78, 137.18 -1.63, 302.74 0 M302.74 0 C317.18 -0.4, 323.97 7.74, 324.02 21.28 M302.74 0 C318.29 1.12, 326.03 6.1, 324.02 21.28 M324.02 21.28 C324.52 33.07, 325.7 49.77, 324.02 63.84 M324.02 21.28 C323.2 36.12, 324.49 50.31, 324.02 63.84 M324.02 63.84 C324.04 77.68, 317.22 84.67, 302.74 85.12 M324.02 63.84 C322.53 76.44, 315.35 85.04, 302.74 85.12 M302.74 85.12 C192.83 84.39, 82.91 83.78, 21.28 85.12 M302.74 85.12 C228.2 83.57, 153.85 84.42, 21.28 85.12 M21.28 85.12 C8.88 83.31, 0.95 78.27, 0 63.84 M21.28 85.12 C5.33 84.87, -0.31 76.82, 0 63.84 M0 63.84 C1.41 49.68, 0.22 39.31, 0 21.28 M0 63.84 C-1.4 54.51, 0.46 46.56, 0 21.28 M0 21.28 C1.79 6.63, 7.04 0.61, 21.28 0 M0 21.28 C-1.04 4.9, 8.34 2.03, 21.28 0" stroke="#1971c2" stroke-width="1" fill="none"></path></g><g transform="translate(1100.8975606042925 438.624123151503) rotate(0 154.08987426757812 25)"><text x="154.08987426757812" y="0" font-family="Virgil, Segoe UI Emoji" font-size="20px" fill="#1971c2" text-anchor="middle" style="white-space: pre;" direction="ltr" dominant-baseline="text-before-edge"> Loop from 0 to the number of</text><text x="154.08987426757812" y="25" font-family="Virgil, Segoe UI Emoji" font-size="20px" fill="#1971c2" text-anchor="middle" style="white-space: pre;" direction="ltr" dominant-baseline="text-before-edge">leaves hashers components</text></g><g stroke-linecap="round" transform="translate(1137.6711605011903 829.4492975888436) rotate(0 135.31147534784162 35.430081767388856)"><path d="M17.72 0 C77.73 -2.37, 133.34 -2.27, 252.91 0 M17.72 0 C76.81 0.28, 137.52 1.12, 252.91 0 M252.91 0 C263.3 0.88, 270.62 6, 270.62 17.72 M252.91 0 C266.98 2.24, 271.36 4.06, 270.62 17.72 M270.62 17.72 C272.15 30.01, 269.22 43.85, 270.62 53.15 M270.62 17.72 C271.59 26.86, 270.8 35.78, 270.62 53.15 M270.62 53.15 C272.24 63.1, 265.81 70.04, 252.91 70.86 M270.62 53.15 C269.67 63.28, 263.69 69.95, 252.91 70.86 M252.91 70.86 C194.38 70.93, 138.09 71.88, 17.72 70.86 M252.91 70.86 C196.04 73.24, 140.12 72.34, 17.72 70.86 M17.72 70.86 C4.31 70.8, 0.74 66.33, 0 53.15 M17.72 70.86 C5.74 69.42, -1.72 65.64, 0 53.15 M0 53.15 C1.44 40.58, -1.19 25.2, 0 17.72 M0 53.15 C0.04 40.88, -0.13 27.56, 0 17.72 M0 17.72 C0.04 4.92, 7.23 -0.52, 17.72 0 M0 17.72 C0.54 7.75, 3.85 0.06, 17.72 0" stroke="#1971c2" stroke-width="1" fill="none"></path></g><g transform="translate(1159.5027240448328 852.3793793562324) rotate(0 113.47991180419922 12.5)"><text x="113.47991180419922" y="0" font-family="Virgil, Segoe UI Emoji" font-size="20px" fill="#1971c2" text-anchor="middle" style="white-space: pre;" direction="ltr" dominant-baseline="text-before-edge">Inner loop from 0 to 5</text></g><g stroke-linecap="round" transform="translate(1168.07811869301 923.2791121358202) rotate(0 109.52714836197231 33.28155984372802)"><path d="M16.64 0 C64 0.53, 112.11 -0.7, 202.41 0 M16.64 0 C53.75 0.38, 92.27 -0.02, 202.41 0 M202.41 0 C215.47 1.95, 219.69 3.94, 219.05 16.64 M202.41 0 C215.45 -2.11, 219.29 7.68, 219.05 16.64 M219.05 16.64 C217.71 24.35, 218.93 34.18, 219.05 49.92 M219.05 16.64 C219.93 27.64, 219.66 40.08, 219.05 49.92 M219.05 49.92 C218.23 59.56, 212.62 65.77, 202.41 66.56 M219.05 49.92 C217.85 61.7, 215.25 66.18, 202.41 66.56 M202.41 66.56 C161.23 67.64, 124.43 64.04, 16.64 66.56 M202.41 66.56 C135.23 65.61, 70 66.33, 16.64 66.56 M16.64 66.56 C5.4 65.31, -1.49 61.61, 0 49.92 M16.64 66.56 C7.38 68.43, 0.07 63, 0 49.92 M0 49.92 C1.42 37.51, -1.68 26.75, 0 16.64 M0 49.92 C0.12 37.43, 0.76 25.65, 0 16.64 M0 16.64 C0.47 7.15, 3.76 0.06, 16.64 0 M0 16.64 C-1.49 4.81, 4.96 -1.24, 16.64 0" stroke="#1971c2" stroke-width="1" fill="none"></path></g><g transform="translate(1182.0953412126971 931.560671979548) rotate(0 95.50992584228516 25)"><text x="95.50992584228516" y="0" font-family="Virgil, Segoe UI Emoji" font-size="20px" fill="#1971c2" text-anchor="middle" style="white-space: pre;" direction="ltr" dominant-baseline="text-before-edge">Wire the hash into </text><text x="95.50992584228516" y="25" font-family="Virgil, Segoe UI Emoji" font-size="20px" fill="#1971c2" text-anchor="middle" style="white-space: pre;" direction="ltr" dominant-baseline="text-before-edge">the hasher</text></g><g stroke-linecap="round" transform="translate(1102.2050694962134 729.5387713408725) rotate(0 162.00804699294042 42.55980890920955)"><path d="M21.28 0 C102.79 2.31, 187.3 0.36, 302.74 0 M21.28 0 C118.89 0.64, 215.24 -0.72, 302.74 0 M302.74 0 C318.61 -1.83, 324.22 8.94, 324.02 21.28 M302.74 0 C315.41 -1.24, 322.76 5.75, 324.02 21.28 M324.02 21.28 C325.2 34.25, 325.91 48.08, 324.02 63.84 M324.02 21.28 C323.84 29.38, 323.8 38.54, 324.02 63.84 M324.02 63.84 C322.97 78.62, 318.44 84.79, 302.74 85.12 M324.02 63.84 C322.06 80.32, 316.27 83.7, 302.74 85.12 M302.74 85.12 C196.64 81.65, 88.04 81.75, 21.28 85.12 M302.74 85.12 C219.04 86.12, 134.88 86.83, 21.28 85.12 M21.28 85.12 C8.68 86.74, 0.06 79.75, 0 63.84 M21.28 85.12 C8.11 84.08, -1.2 79.48, 0 63.84 M0 63.84 C1.6 52.51, 0.71 42.42, 0 21.28 M0 63.84 C-0.05 53.96, -1.18 42.51, 0 21.28 M0 21.28 C-1.3 6.45, 6.58 -1.08, 21.28 0 M0 21.28 C-0.66 7.26, 7.81 -0.66, 21.28 0" stroke="#1971c2" stroke-width="1" fill="none"></path></g><g transform="translate(1112.5732391698177 747.098580250082) rotate(0 151.63987731933594 25)"><text x="151.63987731933594" y="0" font-family="Virgil, Segoe UI Emoji" font-size="20px" fill="#1971c2" text-anchor="middle" style="white-space: pre;" direction="ltr" dominant-baseline="text-before-edge">Loop from numLeafHashers to </text><text x="151.63987731933594" y="25" font-family="Virgil, Segoe UI Emoji" font-size="20px" fill="#1971c2" text-anchor="middle" style="white-space: pre;" direction="ltr" dominant-baseline="text-before-edge">the total number of hashers</text></g><g stroke-linecap="round"><g transform="translate(1027.111517002028 723.994892170296) rotate(0 30.08577071968341 13.61195998737071)"><path d="M0.64 -0.74 C10.58 4.14, 50.26 23.54, 60.33 28.3 M-0.48 1.49 C9.25 6.14, 49.25 22.7, 59.47 26.74" stroke="#1e1e1e" stroke-width="1" fill="none"></path></g><g transform="translate(1027.111517002028 723.994892170296) rotate(0 30.08577071968341 13.61195998737071)"><path d="M34.48 25.8 C42.21 26.27, 54.18 27.87, 59.47 26.74 M34.48 25.8 C43.37 26.53, 50.79 26.1, 59.47 26.74" stroke="#1e1e1e" stroke-width="1" fill="none"></path></g><g transform="translate(1027.111517002028 723.994892170296) rotate(0 30.08577071968341 13.61195998737071)"><path d="M40.93 9.96 C46.21 16.14, 55.88 23.42, 59.47 26.74 M40.93 9.96 C47.43 16.16, 52.61 21.22, 59.47 26.74" stroke="#1e1e1e" stroke-width="1" fill="none"></path></g></g><mask></mask><g stroke-linecap="round" transform="translate(774.0291121717642 747.7827496182133) rotate(0 102.19823255897688 67.5)"><path d="M32 0 C82.48 1.55, 132.26 -1.43, 172.4 0 M32 0 C87.97 -0.83, 141.23 -1.37, 172.4 0 M172.4 0 C194.13 -0.8, 203.12 10.16, 204.4 32 M172.4 0 C193.39 -2.1, 205.17 8.72, 204.4 32 M204.4 32 C205.12 54.02, 206.1 71.95, 204.4 103 M204.4 32 C205.37 59.61, 204.11 87.79, 204.4 103 M204.4 103 C205.62 124.82, 194.9 136.33, 172.4 135 M204.4 103 C203.11 126.58, 195.18 137.22, 172.4 135 M172.4 135 C119.92 137.27, 67.78 134.48, 32 135 M172.4 135 C122.22 135.4, 73.88 134.73, 32 135 M32 135 C11.73 136.48, 0.44 123.02, 0 103 M32 135 C11.03 134.41, 1.81 122.64, 0 103 M0 103 C-2.14 86.9, -0.64 69.49, 0 32 M0 103 C-0.46 77.43, 0.14 50.51, 0 32 M0 32 C-1.34 10.69, 11.75 -1.05, 32 0 M0 32 C1.3 12.85, 10.85 -0.98, 32 0" stroke="#1971c2" stroke-width="1" fill="none"></path></g><g transform="translate(783.9274256023227 777.7827496182133) rotate(0 92.29991912841797 37.5)"><text x="92.29991912841797" y="0" font-family="Virgil, Segoe UI Emoji" font-size="20px" fill="#1971c2" text-anchor="middle" style="white-space: pre;" direction="ltr" dominant-baseline="text-before-edge">6. The root is the</text><text x="92.29991912841797" y="25" font-family="Virgil, Segoe UI Emoji" font-size="20px" fill="#1971c2" text-anchor="middle" style="white-space: pre;" direction="ltr" dominant-baseline="text-before-edge">last hasher </text><text x="92.29991912841797" y="50" font-family="Virgil, Segoe UI Emoji" font-size="20px" fill="#1971c2" text-anchor="middle" style="white-space: pre;" direction="ltr" dominant-baseline="text-before-edge">component hash</text></g><g stroke-linecap="round" transform="translate(191.10963872436196 584.824635600475) rotate(0 229.17028524127693 110.43800192740105)"><path d="M32 0 C130.28 2.33, 229.69 2.1, 426.34 0 M32 0 C171.39 1.85, 311.36 1.77, 426.34 0 M426.34 0 C448.46 -0.05, 459.66 10.72, 458.34 32 M426.34 0 C446.95 -0.97, 460.31 8.72, 458.34 32 M458.34 32 C457.18 84.01, 459.27 136.29, 458.34 188.88 M458.34 32 C458.89 85.52, 459.83 138.86, 458.34 188.88 M458.34 188.88 C458.81 211.2, 447.89 222.71, 426.34 220.88 M458.34 188.88 C460.45 209.03, 449.81 221.79, 426.34 220.88 M426.34 220.88 C274.03 220.95, 122.53 220.85, 32 220.88 M426.34 220.88 C310.96 220.25, 196.69 219.35, 32 220.88 M32 220.88 C10.69 219.9, -1.2 210.34, 0 188.88 M32 220.88 C10.04 218.81, -1.43 211.94, 0 188.88 M0 188.88 C0.26 143.14, -0.97 101.14, 0 32 M0 188.88 C0.89 136.87, 0.5 84.7, 0 32 M0 32 C1.61 9.03, 10.37 1.13, 32 0 M0 32 C0.2 11.92, 11.18 1.06, 32 0" stroke="#1971c2" stroke-width="1" fill="none"></path></g><g transform="translate(203.00012355059982 645.2626375278762) rotate(0 217.27980041503906 50)"><text x="217.27980041503906" y="0" font-family="Virgil, Segoe UI Emoji" font-size="20px" fill="#1971c2" text-anchor="middle" style="white-space: pre;" direction="ltr" dominant-baseline="text-before-edge">The intermediate hashers are the hashers </text><text x="217.27980041503906" y="25" font-family="Virgil, Segoe UI Emoji" font-size="20px" fill="#1971c2" text-anchor="middle" style="white-space: pre;" direction="ltr" dominant-baseline="text-before-edge">at the higher levels of the Quinary Tree </text><text x="217.27980041503906" y="50" font-family="Virgil, Segoe UI Emoji" font-size="20px" fill="#1971c2" text-anchor="middle" style="white-space: pre;" direction="ltr" dominant-baseline="text-before-edge">each of which will hash the outputs of the </text><text x="217.27980041503906" y="75" font-family="Virgil, Segoe UI Emoji" font-size="20px" fill="#1971c2" text-anchor="middle" style="white-space: pre;" direction="ltr" dominant-baseline="text-before-edge">hashers at the level below it</text></g><g stroke-linecap="round"><g transform="translate(729.4637858267306 663.3817126416836) rotate(0 -27.787600165383637 -1.921574042713246)"><path d="M-1.05 0.55 C-10.09 -0.22, -45.41 -3.21, -54.45 -4.11 M0.61 -0.2 C-8.49 -0.84, -45.39 -2.07, -54.8 -2.71" stroke="#1e1e1e" stroke-width="1" fill="none"></path></g><g transform="translate(729.4637858267306 663.3817126416836) rotate(0 -27.787600165383637 -1.921574042713246)"><path d="M-30.92 -10.1 C-36.81 -6.31, -45.03 -5.52, -54.8 -2.71 M-30.92 -10.1 C-36.88 -7.75, -41.79 -7.52, -54.8 -2.71" stroke="#1e1e1e" stroke-width="1" fill="none"></path></g><g transform="translate(729.4637858267306 663.3817126416836) rotate(0 -27.787600165383637 -1.921574042713246)"><path d="M-31.75 6.98 C-37.48 5.88, -45.46 1.77, -54.8 -2.71 M-31.75 6.98 C-37.61 5.6, -42.34 2.11, -54.8 -2.71" stroke="#1e1e1e" stroke-width="1" fill="none"></path></g></g><mask></mask></svg>