<svg version="1.1" xmlns="http://www.w3.org/2000/svg" viewBox="0 0 1629.0087534767117 546.4862977078576" width="4887.026260430135" height="1639.4588931235728">
  <!-- svg-source:excalidraw -->
  
  <defs>
    <style class="style-fonts">
      @font-face {
        font-family: "Virgil";
        src: url("https://excalidraw.com/Virgil.woff2");
      }
      @font-face {
        font-family: "Cascadia";
        src: url("https://excalidraw.com/Cascadia.woff2");
      }
      @font-face {
        font-family: "Assistant";
        src: url("https://excalidraw.com/Assistant-Regular.woff2");
      }
    </style>
    
  </defs>
  <rect x="0" y="0" width="1629.0087534767117" height="546.4862977078576" fill="#ffffff"></rect><g stroke-linecap="round" transform="translate(317.4465741934473 260.11561139102986) rotate(0 123.7048130233893 33.80052213620306)"><path d="M16.9 0 C88.66 -2.52, 156.58 -2.45, 230.51 0 M16.9 0 C66.77 -1.7, 117.36 -1.73, 230.51 0 M230.51 0 C242.24 1.63, 247.43 7.01, 247.41 16.9 M230.51 0 C242.62 -2.15, 246.2 7.38, 247.41 16.9 M247.41 16.9 C246.38 28.17, 248.55 35.49, 247.41 50.7 M247.41 16.9 C248.03 29.22, 246.89 43.41, 247.41 50.7 M247.41 50.7 C245.65 60.13, 241.11 68.68, 230.51 67.6 M247.41 50.7 C248.77 60.22, 241.21 65.36, 230.51 67.6 M230.51 67.6 C179.25 68.27, 128.1 66.52, 16.9 67.6 M230.51 67.6 C154.16 66.28, 77.13 65.93, 16.9 67.6 M16.9 67.6 C6.3 65.98, 0.99 61.68, 0 50.7 M16.9 67.6 C7.51 66.29, -1.08 59.91, 0 50.7 M0 50.7 C1.97 43, -1.17 35.48, 0 16.9 M0 50.7 C-0.43 40.05, -0.32 30.73, 0 16.9 M0 16.9 C-1.08 4.81, 4.96 0.96, 16.9 0 M0 16.9 C-1.51 6.35, 5.18 -0.17, 16.9 0" stroke="#1971c2" stroke-width="1" fill="none"></path></g><g transform="translate(326.6914873144924 281.4161335272329) rotate(0 114.45989990234375 12.5)"><text x="114.45989990234375" y="0" font-family="Virgil, Segoe UI Emoji" font-size="20px" fill="#e03131" text-anchor="middle" style="white-space: pre;" direction="ltr" dominant-baseline="text-before-edge">QuinBatchLeavesExists</text></g><g stroke-linecap="round" transform="translate(448.9836842292516 114.84970794910697) rotate(0 110.05757116156974 32.177416550875904)"><path d="M16.09 0 C59.6 -0.59, 107.31 1.21, 204.03 0 M16.09 0 C67.06 1.44, 117.58 1.31, 204.03 0 M204.03 0 C215.48 -1.87, 219.06 6.88, 220.12 16.09 M204.03 0 C214.35 1, 221.03 4.01, 220.12 16.09 M220.12 16.09 C221.83 29.83, 221.13 41.76, 220.12 48.27 M220.12 16.09 C219 23.41, 219.54 33.1, 220.12 48.27 M220.12 48.27 C221.3 57.47, 214.26 62.41, 204.03 64.35 M220.12 48.27 C218.73 60.22, 215.48 64.35, 204.03 64.35 M204.03 64.35 C148.05 64.4, 88.7 63.66, 16.09 64.35 M204.03 64.35 C156.41 61.94, 108.62 62.61, 16.09 64.35 M16.09 64.35 C6.99 63.22, -0.94 57.2, 0 48.27 M16.09 64.35 C3.79 63.88, -1.24 61.18, 0 48.27 M0 48.27 C0.29 38.79, 1.99 27.82, 0 16.09 M0 48.27 C-0.46 39.34, -0.25 31.72, 0 16.09 M0 16.09 C-1.31 5.99, 4.97 -0.14, 16.09 0 M0 16.09 C1.93 7.3, 7.49 0.11, 16.09 0" stroke="#1971c2" stroke-width="1" fill="none"></path></g><g transform="translate(504.9512971999038 134.5271244999829) rotate(0 54.08995819091797 12.5)"><text x="54.08995819091797" y="0" font-family="Virgil, Segoe UI Emoji" font-size="20px" fill="#1971c2" text-anchor="middle" style="white-space: pre;" direction="ltr" dominant-baseline="text-before-edge">pathIndex </text></g><g stroke-linecap="round"><g transform="translate(419.03484766876863 210.44600519547538) rotate(0 1.4394641477324512 19.78250013283899)"><path d="M0.04 -0.17 C0.68 6.33, 2.91 32.69, 3.41 39.38 M-0.61 -0.73 C0.05 5.81, 2.69 33.34, 3.25 39.99" stroke="#1e1e1e" stroke-width="1" fill="none"></path></g><g transform="translate(419.03484766876863 210.44600519547538) rotate(0 1.4394641477324512 19.78250013283899)"><path d="M-5.2 22.04 C-3.6 26.88, -1.8 30.04, 3.25 39.99 M-5.2 22.04 C-1.79 28.39, 0.98 36.08, 3.25 39.99" stroke="#1e1e1e" stroke-width="1" fill="none"></path></g><g transform="translate(419.03484766876863 210.44600519547538) rotate(0 1.4394641477324512 19.78250013283899)"><path d="M8.32 20.81 C6.99 25.92, 5.87 29.35, 3.25 39.99 M8.32 20.81 C6.57 27.68, 4.19 35.84, 3.25 39.99" stroke="#1e1e1e" stroke-width="1" fill="none"></path></g></g><mask></mask><g stroke-linecap="round" transform="translate(10.98612416042397 238.20014610632353) rotate(0 110.05757116156974 32.177416550875904)"><path d="M16.09 0 C73.06 -1.34, 132.99 -1.78, 204.03 0 M16.09 0 C84.86 2.52, 154.52 2.19, 204.03 0 M204.03 0 C215.55 -1.17, 221.84 6.36, 220.12 16.09 M204.03 0 C214.18 1.78, 221.62 6.35, 220.12 16.09 M220.12 16.09 C221.95 25.27, 218.13 37.31, 220.12 48.27 M220.12 16.09 C220.06 26.5, 219.7 39.4, 220.12 48.27 M220.12 48.27 C220.75 58.99, 214.84 64.48, 204.03 64.35 M220.12 48.27 C217.92 60.36, 216.86 63.22, 204.03 64.35 M204.03 64.35 C135.62 65.64, 69.01 65.97, 16.09 64.35 M204.03 64.35 C149.85 62.39, 95.93 63.08, 16.09 64.35 M16.09 64.35 C4.28 66.25, 0.13 57.75, 0 48.27 M16.09 64.35 C5.86 64.46, 0.44 61.05, 0 48.27 M0 48.27 C1.38 38.71, -0.71 30.63, 0 16.09 M0 48.27 C0.02 36.99, 1.05 26.7, 0 16.09 M0 16.09 C1.85 5.45, 4.18 1.62, 16.09 0 M0 16.09 C1.6 4.23, 6.34 0.98, 16.09 0" stroke="#f08c00" stroke-width="1" fill="none"></path></g><g transform="translate(36.97377192111526 257.8775626571994) rotate(0 84.0699234008789 12.5)"><text x="84.0699234008789" y="0" font-family="Virgil, Segoe UI Emoji" font-size="20px" fill="#f08c00" text-anchor="middle" style="white-space: pre;" direction="ltr" dominant-baseline="text-before-edge">parameter: levels</text></g><g transform="translate(464.43656263196317 212.9928601943197) rotate(0 31.809967041015625 12.5)"><text x="0" y="0" font-family="Virgil, Segoe UI Emoji" font-size="20px" fill="#1e1e1e" text-anchor="start" style="white-space: pre;" direction="ltr" dominant-baseline="text-before-edge">Inputs</text></g><g stroke-linecap="round"><g transform="translate(247.68206289723003 301.7801794512458) rotate(0 23.123652268284786 -2.6326676944133425)"><path d="M0.48 0.27 C8.12 -0.48, 38.42 -3.96, 46.11 -4.84 M0.06 -0.06 C7.6 -0.93, 37.88 -4.6, 45.61 -5.59" stroke="#1e1e1e" stroke-width="1" fill="none"></path></g><g transform="translate(247.68206289723003 301.7801794512458) rotate(0 23.123652268284786 -2.6326676944133425)"><path d="M24.88 5 C32.46 1.06, 39.78 -1.63, 45.61 -5.59 M24.88 5 C31.6 1.91, 38.64 -2.68, 45.61 -5.59" stroke="#1e1e1e" stroke-width="1" fill="none"></path></g><g transform="translate(247.68206289723003 301.7801794512458) rotate(0 23.123652268284786 -2.6326676944133425)"><path d="M22.93 -10.8 C31.12 -9.37, 39.11 -6.7, 45.61 -5.59 M22.93 -10.8 C30.35 -8.47, 38.05 -7.63, 45.61 -5.59" stroke="#1e1e1e" stroke-width="1" fill="none"></path></g></g><mask></mask><g stroke-linecap="round" transform="translate(755.152973840808 107.06593525709354) rotate(0 110.05757116156974 32.177416550875904)"><path d="M16.09 0 C90.26 1.77, 162.2 1.27, 204.03 0 M16.09 0 C63.32 -2.78, 111.97 -1.32, 204.03 0 M204.03 0 C215.93 -1.52, 219.63 3.42, 220.12 16.09 M204.03 0 C213.37 1.23, 220.84 5.36, 220.12 16.09 M220.12 16.09 C221.33 27.71, 219.15 36.76, 220.12 48.27 M220.12 16.09 C220.55 23.49, 220.72 32.37, 220.12 48.27 M220.12 48.27 C221.75 57.86, 213.81 62.56, 204.03 64.35 M220.12 48.27 C218.54 58.51, 213.51 66.54, 204.03 64.35 M204.03 64.35 C146.55 65.15, 90.67 64.03, 16.09 64.35 M204.03 64.35 C153.75 65.13, 104.22 66.02, 16.09 64.35 M16.09 64.35 C4.05 64.98, -0.39 58.85, 0 48.27 M16.09 64.35 C7.29 66.3, 2.13 59.1, 0 48.27 M0 48.27 C-1.25 41.36, 0.59 32.12, 0 16.09 M0 48.27 C-0.37 35.87, 1.06 25.72, 0 16.09 M0 16.09 C0.26 6.47, 6.19 0.5, 16.09 0 M0 16.09 C-1.7 5.27, 3.11 1.18, 16.09 0" stroke="#1971c2" stroke-width="1" fill="none"></path></g><g transform="translate(788.6606106151712 114.24335180796942) rotate(0 76.54993438720703 25)"><text x="76.54993438720703" y="0" font-family="Virgil, Segoe UI Emoji" font-size="20px" fill="#1971c2" text-anchor="middle" style="white-space: pre;" direction="ltr" dominant-baseline="text-before-edge">1. Compute the </text><text x="76.54993438720703" y="25" font-family="Virgil, Segoe UI Emoji" font-size="20px" fill="#1971c2" text-anchor="middle" style="white-space: pre;" direction="ltr" dominant-baseline="text-before-edge">subroot</text></g><g transform="translate(602.5330619846427 238.51548073850375) rotate(0 49.669944763183594 12.5)"><text x="0" y="0" font-family="Virgil, Segoe UI Emoji" font-size="20px" fill="#1e1e1e" text-anchor="start" style="white-space: pre;" direction="ltr" dominant-baseline="text-before-edge">Processing</text></g><g stroke-linecap="round"><g transform="translate(585.3564497245825 299.14980187549617) rotate(0 54.04946410837647 -0.8482636989667753)"><path d="M-0.89 1.19 C16.87 0.81, 88.94 -2.43, 107.04 -2.8 M0.85 0.77 C18.93 0.54, 91.55 -1.21, 109.2 -1.84" stroke="#1e1e1e" stroke-width="1" fill="none"></path></g><g transform="translate(585.3564497245825 299.14980187549617) rotate(0 54.04946410837647 -0.8482636989667753)"><path d="M81.32 9.23 C92.83 3.91, 98.49 1.24, 109.2 -1.84 M81.32 9.23 C90.87 4.55, 100.38 2.14, 109.2 -1.84" stroke="#1e1e1e" stroke-width="1" fill="none"></path></g><g transform="translate(585.3564497245825 299.14980187549617) rotate(0 54.04946410837647 -0.8482636989667753)"><path d="M80.72 -11.29 C92.35 -9.63, 98.21 -5.32, 109.2 -1.84 M80.72 -11.29 C90.61 -8.7, 100.33 -3.85, 109.2 -1.84" stroke="#1e1e1e" stroke-width="1" fill="none"></path></g></g><mask></mask><g stroke-linecap="round" transform="translate(206.40200080163322 112.93838801946617) rotate(0 110.05757116156974 32.177416550875904)"><path d="M16.09 0 C56.74 0.99, 102.15 2.83, 204.03 0 M16.09 0 C57.56 2.37, 100.55 1.83, 204.03 0 M204.03 0 C214.84 0.13, 218.21 6.56, 220.12 16.09 M204.03 0 C216.86 -1.13, 221.38 4.33, 220.12 16.09 M220.12 16.09 C218.22 27.8, 219.56 39.15, 220.12 48.27 M220.12 16.09 C219.28 23.71, 219.42 32.69, 220.12 48.27 M220.12 48.27 C220.24 57.75, 215.18 64.45, 204.03 64.35 M220.12 48.27 C220.56 61.05, 213.91 63.54, 204.03 64.35 M204.03 64.35 C151.65 62.67, 101.88 62.03, 16.09 64.35 M204.03 64.35 C142.63 65.06, 80.47 64.27, 16.09 64.35 M16.09 64.35 C4.18 65.97, 1.39 58, 0 48.27 M16.09 64.35 C6.34 65.33, -0.73 60.31, 0 48.27 M0 48.27 C-1.95 42.9, 0.73 34.62, 0 16.09 M0 48.27 C-0.87 36.8, -1.12 25.92, 0 16.09 M0 16.09 C1.93 5.3, 4.37 0.84, 16.09 0 M0 16.09 C0.78 7.24, 6.91 -0.57, 16.09 0" stroke="#1971c2" stroke-width="1" fill="none"></path></g><g transform="translate(295.42959607209013 132.6158045703421) rotate(0 21.02997589111328 12.5)"><text x="21.02997589111328" y="0" font-family="Virgil, Segoe UI Emoji" font-size="20px" fill="#1971c2" text-anchor="middle" style="white-space: pre;" direction="ltr" dominant-baseline="text-before-edge">root</text></g><g stroke-linecap="round" transform="translate(375.6422509985141 10) rotate(0 151.45918851273836 42.5)"><path d="M21.25 0 C89.49 -1.62, 158.61 -2.19, 281.67 0 M21.25 0 C113.36 0.05, 204.65 0.48, 281.67 0 M281.67 0 C297.67 -0.99, 304.02 6.19, 302.92 21.25 M281.67 0 C296.6 -1.96, 303.69 5.22, 302.92 21.25 M302.92 21.25 C301.72 35.17, 301.07 49.6, 302.92 63.75 M302.92 21.25 C302.75 32.5, 302.91 45.03, 302.92 63.75 M302.92 63.75 C303.3 79.7, 295.1 84.29, 281.67 85 M302.92 63.75 C302.33 79.37, 294.59 84.06, 281.67 85 M281.67 85 C212.83 83.32, 142.87 84.97, 21.25 85 M281.67 85 C181.1 85.74, 82.03 84.7, 21.25 85 M21.25 85 C7.93 85.85, -0.64 79.06, 0 63.75 M21.25 85 C5.15 86.15, -1.46 75.86, 0 63.75 M0 63.75 C0.92 48.46, 0.31 30.03, 0 21.25 M0 63.75 C1.38 51.14, -0.08 39.01, 0 21.25 M0 21.25 C0.68 8.71, 8.43 -0.5, 21.25 0 M0 21.25 C-1.4 7.81, 5.35 2.02, 21.25 0" stroke="#1971c2" stroke-width="1" fill="none"></path></g><g transform="translate(406.65153411574465 27.5) rotate(0 120.44990539550781 25)"><text x="120.44990539550781" y="0" font-family="Virgil, Segoe UI Emoji" font-size="20px" fill="#1971c2" text-anchor="middle" style="white-space: pre;" direction="ltr" dominant-baseline="text-before-edge">leaves (array of length </text><text x="120.44990539550781" y="25" font-family="Virgil, Segoe UI Emoji" font-size="20px" fill="#1971c2" text-anchor="middle" style="white-space: pre;" direction="ltr" dominant-baseline="text-before-edge">batchLevels ** 5)</text></g><g stroke-linecap="round" transform="translate(10 304.409111720117) rotate(0 110.05757116156974 32.177416550875904)"><path d="M16.09 0 C57.86 2.97, 96.12 1.95, 204.03 0 M16.09 0 C76.97 1.3, 137.97 0.2, 204.03 0 M204.03 0 C212.99 0.97, 220.35 5.21, 220.12 16.09 M204.03 0 C215.03 0.2, 221.22 4.71, 220.12 16.09 M220.12 16.09 C218.71 23.21, 220.6 33.02, 220.12 48.27 M220.12 16.09 C218.89 21.81, 219.92 29.19, 220.12 48.27 M220.12 48.27 C221.64 59.25, 216.54 63.94, 204.03 64.35 M220.12 48.27 C220.56 58.62, 213.27 63.06, 204.03 64.35 M204.03 64.35 C131.09 62.78, 60.47 63.23, 16.09 64.35 M204.03 64.35 C139.89 64.49, 76.67 63.41, 16.09 64.35 M16.09 64.35 C4.04 63.8, -1.77 59.15, 0 48.27 M16.09 64.35 C6.72 65.95, 0.28 58.7, 0 48.27 M0 48.27 C1.17 34.98, -2.08 24.37, 0 16.09 M0 48.27 C-0.39 39.76, -0.69 30.77, 0 16.09 M0 16.09 C0.34 6.15, 3.99 0.45, 16.09 0 M0 16.09 C1.13 5.36, 5.42 -0.42, 16.09 0" stroke="#f08c00" stroke-width="1" fill="none"></path></g><g transform="translate(62.477622736277226 311.58652827099286) rotate(0 57.57994842529297 25)"><text x="57.57994842529297" y="0" font-family="Virgil, Segoe UI Emoji" font-size="20px" fill="#f08c00" text-anchor="middle" style="white-space: pre;" direction="ltr" dominant-baseline="text-before-edge">parameter: </text><text x="57.57994842529297" y="25" font-family="Virgil, Segoe UI Emoji" font-size="20px" fill="#f08c00" text-anchor="middle" style="white-space: pre;" direction="ltr" dominant-baseline="text-before-edge">batchLevels</text></g><g stroke-linecap="round" transform="translate(148.2714379094332 23.68743807921254) rotate(0 110.05757116156974 32.177416550875904)"><path d="M16.09 0 C71.32 -2.09, 126.38 -2.46, 204.03 0 M16.09 0 C64.73 0.75, 115.64 -0.07, 204.03 0 M204.03 0 C216.25 0.5, 219.52 4.71, 220.12 16.09 M204.03 0 C213.05 1.74, 221.21 4.14, 220.12 16.09 M220.12 16.09 C221.76 27.38, 218.94 35.94, 220.12 48.27 M220.12 16.09 C219.58 24.64, 219.15 34.44, 220.12 48.27 M220.12 48.27 C219.79 58.61, 213.57 63.15, 204.03 64.35 M220.12 48.27 C221.22 58.72, 214.39 62.69, 204.03 64.35 M204.03 64.35 C165.17 61.83, 125.49 64.85, 16.09 64.35 M204.03 64.35 C135.15 63.7, 68.02 63.18, 16.09 64.35 M16.09 64.35 C6.7 63.14, 0.23 59.61, 0 48.27 M16.09 64.35 C6.43 63.08, 1.2 58.03, 0 48.27 M0 48.27 C0.05 37.36, 0.5 22.8, 0 16.09 M0 48.27 C0.19 39.18, -0.44 31.06, 0 16.09 M0 16.09 C-0.7 7.09, 7 -1.58, 16.09 0 M0 16.09 C0.48 7.16, 7.61 -0.51, 16.09 0" stroke="#1971c2" stroke-width="1" fill="none"></path></g><g transform="translate(193.74906827510495 43.36485463008847) rotate(0 64.57994079589844 12.5)"><text x="64.57994079589844" y="0" font-family="Virgil, Segoe UI Emoji" font-size="20px" fill="#1971c2" text-anchor="middle" style="white-space: pre;" direction="ltr" dominant-baseline="text-before-edge">pathElements</text></g><g stroke-linecap="round"><g transform="translate(1014.8388420332776 148.43386867078368) rotate(0 22.533480956416497 0)"><path d="M0.45 -0.03 C8.04 -0.03, 38.02 0.02, 45.39 0.06 M0.01 -0.53 C7.58 -0.43, 37.5 0.84, 45.12 0.8" stroke="#1e1e1e" stroke-width="2" fill="none"></path></g><g transform="translate(1014.8388420332776 148.43386867078368) rotate(0 22.533480956416497 0)"><path d="M23.79 8.05 C29.45 6.6, 35.35 3.32, 45.12 0.8 M23.79 8.05 C31.21 5.95, 38.27 3.74, 45.12 0.8" stroke="#1e1e1e" stroke-width="2" fill="none"></path></g><g transform="translate(1014.8388420332776 148.43386867078368) rotate(0 22.533480956416497 0)"><path d="M24.12 -7.36 C29.7 -4.68, 35.51 -3.82, 45.12 0.8 M24.12 -7.36 C31.48 -4.28, 38.42 -1.3, 45.12 0.8" stroke="#1e1e1e" stroke-width="2" fill="none"></path></g></g><mask></mask><g stroke-linecap="round" transform="translate(1079.634982658722 104.980815174317) rotate(0 122.9523651708082 42.5)"><path d="M21.25 0 C92.73 -2.31, 164.87 -1.27, 224.65 0 M21.25 0 C68.24 2.32, 114.51 1.04, 224.65 0 M224.65 0 C238.28 -1.25, 246 8.35, 245.9 21.25 M224.65 0 C239.62 -1.62, 245.31 5.77, 245.9 21.25 M245.9 21.25 C245.09 31.75, 245.62 40.43, 245.9 63.75 M245.9 21.25 C246.9 35.91, 246.01 50.04, 245.9 63.75 M245.9 63.75 C247.46 76.99, 240.65 84.35, 224.65 85 M245.9 63.75 C247.89 78.45, 237.76 85.61, 224.65 85 M224.65 85 C147.32 84.92, 66.58 87.58, 21.25 85 M224.65 85 C143.9 85, 63.36 84.42, 21.25 85 M21.25 85 C8.18 85.68, -1.02 77.31, 0 63.75 M21.25 85 C5.4 87.06, 2.01 79.5, 0 63.75 M0 63.75 C-1.99 52.33, -0.7 43.78, 0 21.25 M0 63.75 C-0.45 52.84, 0.13 43.74, 0 21.25 M0 21.25 C0.55 6.66, 5.4 -1.84, 21.25 0 M0 21.25 C1.17 6.22, 6.46 1.25, 21.25 0" stroke="#1971c2" stroke-width="1" fill="none"></path></g><g transform="translate(1094.837408864687 122.480815174317) rotate(0 107.74993896484375 25)"><text x="107.74993896484375" y="0" font-family="Virgil, Segoe UI Emoji" font-size="20px" fill="#1971c2" text-anchor="middle" style="white-space: pre;" direction="ltr" dominant-baseline="text-before-edge">loop from 0 to </text><text x="107.74993896484375" y="25" font-family="Virgil, Segoe UI Emoji" font-size="20px" fill="#1971c2" text-anchor="middle" style="white-space: pre;" direction="ltr" dominant-baseline="text-before-edge">LEAVES_PER_BATCH</text></g><g transform="translate(975.9231518536126 62.84476875375623) rotate(0 214.16986083984375 12.5)"><text x="0" y="0" font-family="Virgil, Segoe UI Emoji" font-size="20px" fill="#1e1e1e" text-anchor="start" style="white-space: pre;" direction="ltr" dominant-baseline="text-before-edge">LEAVES_PER_BATCH == 5 ** batchLevels</text></g><g stroke-linecap="round" transform="translate(1373.1040231350953 101.56697410979962) rotate(0 122.9523651708082 42.5)"><path d="M21.25 0 C76.57 0.85, 135.64 -0.74, 224.65 0 M21.25 0 C69.7 0.14, 116.68 -0.27, 224.65 0 M224.65 0 C238.01 -1.01, 247.82 6.36, 245.9 21.25 M224.65 0 C238.05 -1.19, 247.87 6.14, 245.9 21.25 M245.9 21.25 C247.66 33.63, 244.67 44.33, 245.9 63.75 M245.9 21.25 C245.98 35.63, 246.07 51.38, 245.9 63.75 M245.9 63.75 C244.65 76.83, 239.54 84.8, 224.65 85 M245.9 63.75 C246.63 79.15, 238.65 82.87, 224.65 85 M224.65 85 C164.82 84.45, 106.54 84.19, 21.25 85 M224.65 85 C160.52 87.4, 96.1 87.14, 21.25 85 M21.25 85 C7.46 84.65, 1.51 78.48, 0 63.75 M21.25 85 C8.25 84.34, 0.9 76.31, 0 63.75 M0 63.75 C1.83 53.92, -1.76 43.21, 0 21.25 M0 63.75 C0.16 52.76, -0.36 43.09, 0 21.25 M0 21.25 C0.32 6.25, 8.5 0.54, 21.25 0 M0 21.25 C1.92 8.15, 8.03 -2.03, 21.25 0" stroke="#1971c2" stroke-width="1" fill="none"></path></g><g transform="translate(1387.4764780275837 119.06697410979962) rotate(0 108.57991027832031 25)"><text x="108.57991027832031" y="0" font-family="Virgil, Segoe UI Emoji" font-size="20px" fill="#1971c2" text-anchor="middle" style="white-space: pre;" direction="ltr" dominant-baseline="text-before-edge">pass leaves as input </text><text x="108.57991027832031" y="25" font-family="Virgil, Segoe UI Emoji" font-size="20px" fill="#1971c2" text-anchor="middle" style="white-space: pre;" direction="ltr" dominant-baseline="text-before-edge">to QuinCheckRoot</text></g><g stroke-linecap="round" transform="translate(758.1471536225554 214.58529332893283) rotate(0 110.05757116156974 42.5)"><path d="M21.25 0 C78.97 3.17, 134.16 2.85, 198.87 0 M21.25 0 C70.9 -1.18, 119.65 -1.56, 198.87 0 M198.87 0 C214.05 -1.2, 220.54 6.39, 220.12 21.25 M198.87 0 C214.4 1.55, 220.7 4.9, 220.12 21.25 M220.12 21.25 C218.6 37.04, 219.07 53.26, 220.12 63.75 M220.12 21.25 C219.89 33.49, 221.16 44.13, 220.12 63.75 M220.12 63.75 C219.13 78.21, 211.51 83.2, 198.87 85 M220.12 63.75 C221.09 79.41, 213.54 83.93, 198.87 85 M198.87 85 C131.52 85.85, 66.42 82.94, 21.25 85 M198.87 85 C145.13 85.67, 91.39 86.66, 21.25 85 M21.25 85 C8.19 86.12, -0.03 77.32, 0 63.75 M21.25 85 C5.34 86.3, 1.71 78.77, 0 63.75 M0 63.75 C0.14 50.7, 2.03 39.16, 0 21.25 M0 63.75 C0.14 47.5, -0.87 32.63, 0 21.25 M0 21.25 C-0.66 7.5, 6.92 1.08, 21.25 0 M0 21.25 C-1.04 8.16, 9.13 -0.03, 21.25 0" stroke="#1971c2" stroke-width="1" fill="none"></path></g><g transform="translate(763.684812064399 219.58529332893283) rotate(0 104.51991271972656 37.5)"><text x="104.51991271972656" y="0" font-family="Virgil, Segoe UI Emoji" font-size="20px" fill="#1971c2" text-anchor="middle" style="white-space: pre;" direction="ltr" dominant-baseline="text-before-edge">2. Check whether the</text><text x="104.51991271972656" y="25" font-family="Virgil, Segoe UI Emoji" font-size="20px" fill="#1971c2" text-anchor="middle" style="white-space: pre;" direction="ltr" dominant-baseline="text-before-edge"> Merkle path is valid</text><text x="104.51991271972656" y="50" font-family="Virgil, Segoe UI Emoji" font-size="20px" fill="#1971c2" text-anchor="middle" style="white-space: pre;" direction="ltr" dominant-baseline="text-before-edge">using QuinLeafExists</text></g><g stroke-linecap="round" transform="translate(1092.6187413417883 212.83382074106493) rotate(0 110.05757116156974 42.5)"><path d="M21.25 0 C68.22 -0.58, 112.13 -0.05, 198.87 0 M21.25 0 C56.45 1.05, 93.67 -0.41, 198.87 0 M198.87 0 C211.53 1.29, 221.07 6.81, 220.12 21.25 M198.87 0 C212.01 0.19, 219.29 8.61, 220.12 21.25 M220.12 21.25 C221.3 37.41, 219.52 53.7, 220.12 63.75 M220.12 21.25 C219.7 38.28, 220.14 54.31, 220.12 63.75 M220.12 63.75 C218.97 76.4, 211.32 84.24, 198.87 85 M220.12 63.75 C219.31 79.5, 214.9 87.01, 198.87 85 M198.87 85 C141.17 85.46, 81.5 84.93, 21.25 85 M198.87 85 C135.47 85.33, 72.01 86.42, 21.25 85 M21.25 85 C8.44 83.98, -1.01 78.58, 0 63.75 M21.25 85 C5.97 86.53, -0.79 79.46, 0 63.75 M0 63.75 C-0.91 53.76, 0.21 41.92, 0 21.25 M0 63.75 C-0.81 49.09, 0.09 36.13, 0 21.25 M0 21.25 C-1.61 7.01, 5.67 1.07, 21.25 0 M0 21.25 C-0.11 7.23, 5.76 -1.91, 21.25 0" stroke="#1971c2" stroke-width="1" fill="none"></path></g><g transform="translate(1100.9363909335343 217.83382074106493) rotate(0 101.73992156982422 37.5)"><text x="101.73992156982422" y="0" font-family="Virgil, Segoe UI Emoji" font-size="20px" fill="#1971c2" text-anchor="middle" style="white-space: pre;" direction="ltr" dominant-baseline="text-before-edge">the subroot </text><text x="101.73992156982422" y="25" font-family="Virgil, Segoe UI Emoji" font-size="20px" fill="#1971c2" text-anchor="middle" style="white-space: pre;" direction="ltr" dominant-baseline="text-before-edge">calculated above is </text><text x="101.73992156982422" y="50" font-family="Virgil, Segoe UI Emoji" font-size="20px" fill="#1971c2" text-anchor="middle" style="white-space: pre;" direction="ltr" dominant-baseline="text-before-edge">passed as leaf</text></g><g stroke-linecap="round"><g transform="translate(1012.1953202967106 255.0389663935248) rotate(0 30.85294888313365 -0.3406076083654739)"><path d="M0.8 -0.41 C11.15 -0.51, 52.55 -1.24, 62.51 -1.15 M-0.24 -1.67 C9.99 -1.55, 51.46 0.16, 61.99 0.15" stroke="#1e1e1e" stroke-width="2" fill="none"></path></g><g transform="translate(1012.1953202967106 255.0389663935248) rotate(0 30.85294888313365 -0.3406076083654739)"><path d="M33.57 9.77 C42.4 7.72, 51.78 1.31, 61.99 0.15 M33.57 9.77 C43.98 6.26, 54.78 3.07, 61.99 0.15" stroke="#1e1e1e" stroke-width="2" fill="none"></path></g><g transform="translate(1012.1953202967106 255.0389663935248) rotate(0 30.85294888313365 -0.3406076083654739)"><path d="M34.03 -10.74 C42.61 -5.96, 51.83 -5.53, 61.99 0.15 M34.03 -10.74 C44.14 -6.72, 54.77 -2.37, 61.99 0.15" stroke="#1e1e1e" stroke-width="2" fill="none"></path></g></g><mask></mask><g stroke-linecap="round" transform="translate(1092.2323804725975 323.2466065035931) rotate(0 110.05757116156974 42.5)"><path d="M21.25 0 C85.59 1.16, 150.83 -2.03, 198.87 0 M21.25 0 C86.82 -1.6, 154.31 -0.43, 198.87 0 M198.87 0 C212.48 1.47, 220.14 7.41, 220.12 21.25 M198.87 0 C211.78 1.41, 220.94 5.66, 220.12 21.25 M220.12 21.25 C221.3 30.8, 219.11 43.76, 220.12 63.75 M220.12 21.25 C221.12 30.1, 220.16 40.57, 220.12 63.75 M220.12 63.75 C221.24 79, 212.96 83.07, 198.87 85 M220.12 63.75 C221.92 78.76, 214.05 85.97, 198.87 85 M198.87 85 C163.6 84.14, 128.19 83.43, 21.25 85 M198.87 85 C140.99 85.48, 80.29 85.71, 21.25 85 M21.25 85 C6.65 83.92, -1.56 78.74, 0 63.75 M21.25 85 C7.36 85.31, -0.65 76.58, 0 63.75 M0 63.75 C1.68 49.62, -0.47 37.71, 0 21.25 M0 63.75 C0.3 53.61, -0.64 42.18, 0 21.25 M0 21.25 C-1.17 8.62, 5.71 0.08, 21.25 0 M0 21.25 C0.18 6.07, 5.79 -1.52, 21.25 0" stroke="#1971c2" stroke-width="1" fill="none"></path></g><g transform="translate(1114.4600337264528 340.7466065035931) rotate(0 87.82991790771484 25)"><text x="87.82991790771484" y="0" font-family="Virgil, Segoe UI Emoji" font-size="20px" fill="#1971c2" text-anchor="middle" style="white-space: pre;" direction="ltr" dominant-baseline="text-before-edge">the root input is </text><text x="87.82991790771484" y="25" font-family="Virgil, Segoe UI Emoji" font-size="20px" fill="#1971c2" text-anchor="middle" style="white-space: pre;" direction="ltr" dominant-baseline="text-before-edge">passed as root</text></g><g stroke-linecap="round" transform="translate(1094.9623250351697 426.48629770785766) rotate(0 110.05757116156974 55)"><path d="M27.5 0 C77.99 -2, 124.87 -2.95, 192.62 0 M27.5 0 C80.86 -1.84, 132.58 -1.88, 192.62 0 M192.62 0 C210 0.05, 221.22 9.44, 220.12 27.5 M192.62 0 C211.46 -0.16, 222.01 10.11, 220.12 27.5 M220.12 27.5 C219.51 41.42, 218.38 53.74, 220.12 82.5 M220.12 27.5 C220.42 45.55, 220.71 62.84, 220.12 82.5 M220.12 82.5 C220.62 102.03, 212.72 110.58, 192.62 110 M220.12 82.5 C219.73 100.74, 209.11 108.93, 192.62 110 M192.62 110 C147.67 107.52, 98.81 111.11, 27.5 110 M192.62 110 C130.28 109.94, 69.84 109.6, 27.5 110 M27.5 110 C9.32 110.88, 1.25 100.2, 0 82.5 M27.5 110 C10.34 111.76, 0.79 102.74, 0 82.5 M0 82.5 C-0.17 70.12, -1.36 53.38, 0 27.5 M0 82.5 C-1.19 66.16, 0.54 50.34, 0 27.5 M0 27.5 C0.49 9.71, 8.59 -1.36, 27.5 0 M0 27.5 C1.06 6.98, 9.82 0.32, 27.5 0" stroke="#1971c2" stroke-width="1" fill="none"></path></g><g transform="translate(1104.1999651664664 431.48629770785766) rotate(0 100.81993103027344 50)"><text x="100.81993103027344" y="0" font-family="Virgil, Segoe UI Emoji" font-size="20px" fill="#1971c2" text-anchor="middle" style="white-space: pre;" direction="ltr" dominant-baseline="text-before-edge">wire each index and </text><text x="100.81993103027344" y="25" font-family="Virgil, Segoe UI Emoji" font-size="20px" fill="#1971c2" text-anchor="middle" style="white-space: pre;" direction="ltr" dominant-baseline="text-before-edge">each element in the </text><text x="100.81993103027344" y="50" font-family="Virgil, Segoe UI Emoji" font-size="20px" fill="#1971c2" text-anchor="middle" style="white-space: pre;" direction="ltr" dominant-baseline="text-before-edge">path to </text><text x="100.81993103027344" y="75" font-family="Virgil, Segoe UI Emoji" font-size="20px" fill="#1971c2" text-anchor="middle" style="white-space: pre;" direction="ltr" dominant-baseline="text-before-edge">QuinLeafExists</text></g><g stroke-linecap="round"><g transform="translate(1340.3072047612332 153.88991524738225) rotate(0 14.801179876955757 -4.185633933381212)"><path d="M0.45 0.47 C5.39 -1.05, 24.95 -7.41, 29.85 -8.91 M0.02 0.23 C4.89 -1.25, 24.61 -7.11, 29.55 -8.48" stroke="#1e1e1e" stroke-width="2" fill="none"></path></g><g transform="translate(1340.3072047612332 153.88991524738225) rotate(0 14.801179876955757 -4.185633933381212)"><path d="M17.13 0.59 C22.03 -2.23, 24.89 -5.33, 29.55 -8.48 M17.13 0.59 C20.38 -2.13, 23.58 -4.53, 29.55 -8.48" stroke="#1e1e1e" stroke-width="2" fill="none"></path></g><g transform="translate(1340.3072047612332 153.88991524738225) rotate(0 14.801179876955757 -4.185633933381212)"><path d="M14.2 -9.52 C20.13 -8.88, 24 -8.51, 29.55 -8.48 M14.2 -9.52 C18.24 -9.48, 22.24 -9.14, 29.55 -8.48" stroke="#1e1e1e" stroke-width="2" fill="none"></path></g></g><mask></mask></svg>