<svg version="1.1" xmlns="http://www.w3.org/2000/svg" viewBox="0 0 1612.2808342448166 1968.5076951335047" width="4836.842502734449" height="5905.523085400514">
  <!-- svg-source:excalidraw -->
  
  <defs>
    <style class="style-fonts">
      @font-face {
        font-family: "Virgil";
        src: url("https://excalidraw.com/Virgil.woff2");
      }
      @font-face {
        font-family: "Cascadia";
        src: url("https://excalidraw.com/Cascadia.woff2");
      }
      @font-face {
        font-family: "Assistant";
        src: url("https://excalidraw.com/Assistant-Regular.woff2");
      }
    </style>
    
  </defs>
  <rect x="0" y="0" width="1612.2808342448166" height="1968.5076951335047" fill="#ffffff"></rect><g stroke-linecap="round" transform="translate(604.972089273273 461.5031559281699) rotate(0 127.89348496577497 33.80052213620297)"><path d="M16.9 0 C91.35 -0.07, 162.53 -0.36, 238.89 0 M16.9 0 C82.51 -0.06, 148.69 0.37, 238.89 0 M238.89 0 C250.21 -0.71, 254.83 4.27, 255.79 16.9 M238.89 0 C250.38 -1.8, 256.6 3.42, 255.79 16.9 M255.79 16.9 C255.35 31.2, 254.26 44.82, 255.79 50.7 M255.79 16.9 C254.96 26.7, 256.61 34.64, 255.79 50.7 M255.79 50.7 C254.53 61.33, 251.89 66.63, 238.89 67.6 M255.79 50.7 C255.05 62.63, 247.98 66.67, 238.89 67.6 M238.89 67.6 C174.19 67.6, 108.95 69.84, 16.9 67.6 M238.89 67.6 C188.99 67.21, 139.65 66.19, 16.9 67.6 M16.9 67.6 C4.72 68.03, -0.07 62.62, 0 50.7 M16.9 67.6 C3.41 68.79, -0.35 63.28, 0 50.7 M0 50.7 C-1.26 40.43, 0.8 31.11, 0 16.9 M0 50.7 C-0.17 41.85, 0.47 31.37, 0 16.9 M0 16.9 C-0.74 6.67, 5.41 0.44, 16.9 0 M0 16.9 C-0.86 4.83, 5.64 0.18, 16.9 0" stroke="#1971c2" stroke-width="1" fill="none"></path></g><g transform="translate(612.6757014973487 482.8036780643731) rotate(0 120.18987274169922 12.5)"><text x="120.18987274169922" y="0" font-family="Virgil, Segoe UI Emoji" font-size="20px" fill="#e03131" text-anchor="middle" style="white-space: pre;" direction="ltr" dominant-baseline="text-before-edge">ResultCommitmentVerifier</text></g><g stroke-linecap="round" transform="translate(13.660285564443484 17.772808320453123) rotate(0 110.05757116156974 32.17741655087593)"><path d="M16.09 0 C68.84 0.9, 121.79 -0.92, 204.03 0 M16.09 0 C74.01 -1.46, 131.41 -1.79, 204.03 0 M204.03 0 C214.95 -1.56, 220.82 3.44, 220.12 16.09 M204.03 0 C216.88 0.18, 218.84 4.83, 220.12 16.09 M220.12 16.09 C219.38 28.26, 220.68 36.8, 220.12 48.27 M220.12 16.09 C219.71 26.99, 221.2 38.05, 220.12 48.27 M220.12 48.27 C219.48 59.57, 212.86 63.55, 204.03 64.35 M220.12 48.27 C219.92 57.84, 216.7 64.42, 204.03 64.35 M204.03 64.35 C163.78 65.23, 125.97 63.43, 16.09 64.35 M204.03 64.35 C141.21 62.95, 79.28 63.07, 16.09 64.35 M16.09 64.35 C3.43 65.39, -0.3 60.14, 0 48.27 M16.09 64.35 C5.01 65.7, -0.52 57.77, 0 48.27 M0 48.27 C-0.47 41.11, 0.01 31.21, 0 16.09 M0 48.27 C-0.6 36.68, -0.34 24.27, 0 16.09 M0 16.09 C-0.75 4.66, 5.37 0.16, 16.09 0 M0 16.09 C0.43 5.17, 3.8 0.54, 16.09 0" stroke="#1971c2" stroke-width="1" fill="none"></path></g><g transform="translate(63.23791440423588 37.450224871329056) rotate(0 60.479942321777344 12.5)"><text x="60.479942321777344" y="0" font-family="Virgil, Segoe UI Emoji" font-size="20px" fill="#1971c2" text-anchor="middle" style="white-space: pre;" direction="ltr" dominant-baseline="text-before-edge">isFirstBatch</text></g><g stroke-linecap="round"><g transform="translate(701.4929553139748 226.9135889552988) rotate(0 3.3473253415148747 94.6017641396279)"><path d="M-0.96 0.1 C-0.05 31.73, 4.3 158.46, 5.58 189.91 M0.74 -0.9 C1.99 30.39, 6.83 156.36, 7.7 188.16" stroke="#1e1e1e" stroke-width="1" fill="none"></path></g><g transform="translate(701.4929553139748 226.9135889552988) rotate(0 3.3473253415148747 94.6017641396279)"><path d="M-3.51 160.33 C0.17 167.22, 4.67 177.8, 7.7 188.16 M-3.51 160.33 C-0.57 166.99, 2.64 174.17, 7.7 188.16" stroke="#1e1e1e" stroke-width="1" fill="none"></path></g><g transform="translate(701.4929553139748 226.9135889552988) rotate(0 3.3473253415148747 94.6017641396279)"><path d="M17 159.64 C14.29 166.58, 12.41 177.38, 7.7 188.16 M17 159.64 C14.51 166.34, 12.3 173.7, 7.7 188.16" stroke="#1e1e1e" stroke-width="1" fill="none"></path></g></g><mask></mask><g stroke-linecap="round" transform="translate(294.6523168749395 466.80243527689095) rotate(0 110.05757116156974 32.17741655087593)"><path d="M16.09 0 C58.67 1.81, 98.19 0.8, 204.03 0 M16.09 0 C60 0.51, 104.13 1.54, 204.03 0 M204.03 0 C213.64 -0.46, 221.16 3.81, 220.12 16.09 M204.03 0 C216.35 -0.56, 221.09 6.3, 220.12 16.09 M220.12 16.09 C218.47 21.36, 219.63 30.88, 220.12 48.27 M220.12 16.09 C219.07 23.78, 219.93 31.77, 220.12 48.27 M220.12 48.27 C221.81 59.04, 212.87 63.82, 204.03 64.35 M220.12 48.27 C220.93 57.19, 214.99 63.55, 204.03 64.35 M204.03 64.35 C160.86 61.68, 121.56 62.52, 16.09 64.35 M204.03 64.35 C141.33 65.9, 78.78 65.91, 16.09 64.35 M16.09 64.35 C4.91 63.29, -0.66 59.99, 0 48.27 M16.09 64.35 C4.95 64, 1.66 59.19, 0 48.27 M0 48.27 C-0.45 37.65, 0.8 28.29, 0 16.09 M0 48.27 C0.12 37.99, 0.31 27.47, 0 16.09 M0 16.09 C-1.36 5.83, 4.31 -1.37, 16.09 0 M0 16.09 C-0.86 5.77, 6.84 -2.09, 16.09 0" stroke="#f08c00" stroke-width="1" fill="none"></path></g><g transform="translate(300.5099978997905 473.9798518277669) rotate(0 104.19989013671875 25)"><text x="104.19989013671875" y="0" font-family="Virgil, Segoe UI Emoji" font-size="20px" fill="#f08c00" text-anchor="middle" style="white-space: pre;" direction="ltr" dominant-baseline="text-before-edge">parameter: </text><text x="104.19989013671875" y="25" font-family="Virgil, Segoe UI Emoji" font-size="20px" fill="#f08c00" text-anchor="middle" style="white-space: pre;" direction="ltr" dominant-baseline="text-before-edge">voteOptionTreeDepth</text></g><g transform="translate(750.4953177349116 407.24987127538884) rotate(0 31.809967041015625 12.5)"><text x="0" y="0" font-family="Virgil, Segoe UI Emoji" font-size="20px" fill="#1e1e1e" text-anchor="start" style="white-space: pre;" direction="ltr" dominant-baseline="text-before-edge">Inputs</text></g><g stroke-linecap="round"><g transform="translate(530.0671643086418 500.48962379467935) rotate(0 24.960479114054465 -0.18731294886765681)"><path d="M0.29 -0.43 C8.72 -0.49, 41.99 -0.55, 50.3 -0.51 M-0.23 0.54 C8.19 0.57, 41.71 0.4, 50.07 0.12" stroke="#1e1e1e" stroke-width="1" fill="none"></path></g><g transform="translate(530.0671643086418 500.48962379467935) rotate(0 24.960479114054465 -0.18731294886765681)"><path d="M26.76 9.05 C31.69 7.51, 37.92 5.05, 50.07 0.12 M26.76 9.05 C35.09 5.5, 42.38 2.75, 50.07 0.12" stroke="#1e1e1e" stroke-width="1" fill="none"></path></g><g transform="translate(530.0671643086418 500.48962379467935) rotate(0 24.960479114054465 -0.18731294886765681)"><path d="M26.47 -8.02 C31.46 -5.4, 37.75 -3.68, 50.07 0.12 M26.47 -8.02 C34.82 -5.75, 42.2 -2.69, 50.07 0.12" stroke="#1e1e1e" stroke-width="1" fill="none"></path></g></g><mask></mask><g transform="translate(768.2816986487414 572.3231499964725) rotate(0 49.669944763183594 12.5)"><text x="0" y="0" font-family="Virgil, Segoe UI Emoji" font-size="20px" fill="#1e1e1e" text-anchor="start" style="white-space: pre;" direction="ltr" dominant-baseline="text-before-edge">Processing</text></g><g stroke-linecap="round"><g transform="translate(718.414643975037 550.3735906940208) rotate(0 -0.5472169645011036 42.731954703593374)"><path d="M0.51 0.49 C-0.01 14.88, -2.13 72.07, -2.26 86.05 M-0.68 -0.3 C-0.92 13.76, -0.17 69.99, -0.16 84.23" stroke="#1e1e1e" stroke-width="1" fill="none"></path></g><g transform="translate(718.414643975037 550.3735906940208) rotate(0 -0.5472169645011036 42.731954703593374)"><path d="M-10.63 56.12 C-6.02 64.52, -1.99 78.22, -0.16 84.23 M-10.63 56.12 C-7.74 61.57, -6.73 68.25, -0.16 84.23" stroke="#1e1e1e" stroke-width="1" fill="none"></path></g><g transform="translate(718.414643975037 550.3735906940208) rotate(0 -0.5472169645011036 42.731954703593374)"><path d="M9.89 55.97 C6.92 64.51, 3.37 78.27, -0.16 84.23 M9.89 55.97 C8.47 61.39, 5.17 68.1, -0.16 84.23" stroke="#1e1e1e" stroke-width="1" fill="none"></path></g></g><mask></mask><g stroke-linecap="round" transform="translate(14.774504305367827 102.9114125870608) rotate(0 122.99280919396722 32.17741655087593)"><path d="M16.09 0 C98.5 1.55, 180.21 0.58, 229.9 0 M16.09 0 C69.2 -0.3, 120.16 0.32, 229.9 0 M229.9 0 C239.73 1.04, 246.33 7.06, 245.99 16.09 M229.9 0 C238.97 2.25, 246.45 6.52, 245.99 16.09 M245.99 16.09 C244.02 26.77, 246.36 36.74, 245.99 48.27 M245.99 16.09 C246.68 25.06, 246.88 34.72, 245.99 48.27 M245.99 48.27 C244.16 58.55, 239.53 65.01, 229.9 64.35 M245.99 48.27 C243.73 59.96, 238.41 65.3, 229.9 64.35 M229.9 64.35 C158.67 63.37, 86.57 62.08, 16.09 64.35 M229.9 64.35 C146.65 63.88, 62.05 64.31, 16.09 64.35 M16.09 64.35 C4.66 62.89, 1.17 59.59, 0 48.27 M16.09 64.35 C3.53 62.23, -0.05 58.84, 0 48.27 M0 48.27 C-0.44 39.44, -0.21 32.4, 0 16.09 M0 48.27 C0.73 40.9, -0.34 32.74, 0 16.09 M0 16.09 C-1.59 6.06, 6.37 -1.52, 16.09 0 M0 16.09 C1.91 7.53, 5.74 -0.01, 16.09 0" stroke="#1971c2" stroke-width="1" fill="none"></path></g><g transform="translate(23.417421836737276 122.58882913793673) rotate(0 114.34989166259766 12.5)"><text x="114.34989166259766" y="0" font-family="Virgil, Segoe UI Emoji" font-size="20px" fill="#1971c2" text-anchor="middle" style="white-space: pre;" direction="ltr" dominant-baseline="text-before-edge">currentTallyCommitment</text></g><g stroke-linecap="round" transform="translate(10 193.50294701350754) rotate(0 122.99280919396722 32.17741655087593)"><path d="M16.09 0 C80.32 -0.48, 145.89 0.02, 229.9 0 M16.09 0 C82.41 -2.4, 150.9 -1.13, 229.9 0 M229.9 0 C239.46 -1.05, 246.65 5.57, 245.99 16.09 M229.9 0 C242.21 -1.2, 246.67 7.11, 245.99 16.09 M245.99 16.09 C247.3 25.29, 246.51 38.27, 245.99 48.27 M245.99 16.09 C246.64 25.49, 246.55 33.24, 245.99 48.27 M245.99 48.27 C245.11 57.69, 242.35 66.23, 229.9 64.35 M245.99 48.27 C244.77 57.29, 241.28 65.31, 229.9 64.35 M229.9 64.35 C160.47 62.57, 88.39 64.7, 16.09 64.35 M229.9 64.35 C153.64 64.59, 76.63 65.06, 16.09 64.35 M16.09 64.35 C6.97 62.42, -0.15 57.98, 0 48.27 M16.09 64.35 C4.09 63.1, -0.93 57.22, 0 48.27 M0 48.27 C-0.17 35.99, -0.74 28.35, 0 16.09 M0 48.27 C-0.61 36.34, -0.28 23.48, 0 16.09 M0 16.09 C-1.43 4.4, 6.07 1.49, 16.09 0 M0 16.09 C-1 5.57, 4.67 0.88, 16.09 0" stroke="#1971c2" stroke-width="1" fill="none"></path></g><g transform="translate(37.50289525353742 213.18036356438347) rotate(0 95.48991394042969 12.5)"><text x="95.48991394042969" y="0" font-family="Virgil, Segoe UI Emoji" font-size="20px" fill="#1971c2" text-anchor="middle" style="white-space: pre;" direction="ltr" dominant-baseline="text-before-edge">newTallyCommitment</text></g><g stroke-linecap="round" transform="translate(277.7523011447988 12.425450395117196) rotate(0 122.99280919396722 42.5)"><path d="M21.25 0 C79.49 -0.66, 138.45 -0.91, 224.74 0 M21.25 0 C86.54 1.26, 151.28 0.91, 224.74 0 M224.74 0 C240.47 -1.15, 244.79 8.49, 245.99 21.25 M224.74 0 C238.1 -0.05, 247.49 5.89, 245.99 21.25 M245.99 21.25 C245.24 35.26, 246.11 53.63, 245.99 63.75 M245.99 21.25 C245.65 34.65, 246.26 48.49, 245.99 63.75 M245.99 63.75 C247.46 79.61, 240.71 86.88, 224.74 85 M245.99 63.75 C245.79 75.91, 240.18 82.76, 224.74 85 M224.74 85 C176.08 84.34, 125.16 83.15, 21.25 85 M224.74 85 C177.75 86.36, 130.9 86.6, 21.25 85 M21.25 85 C7.06 86.67, 2 79.83, 0 63.75 M21.25 85 C5.92 86.96, 0.34 79.76, 0 63.75 M0 63.75 C-1.84 55.51, 1.12 47.52, 0 21.25 M0 63.75 C-1.22 49.65, 0.61 34.86, 0 21.25 M0 21.25 C-0.92 5.58, 6 -1, 21.25 0 M0 21.25 C0.77 6.83, 6.99 -0.82, 21.25 0" stroke="#1971c2" stroke-width="1" fill="none"></path></g><g transform="translate(287.8052070794886 17.425450395117196) rotate(0 112.93990325927734 37.5)"><text x="112.93990325927734" y="0" font-family="Virgil, Segoe UI Emoji" font-size="20px" fill="#1971c2" text-anchor="middle" style="white-space: pre;" direction="ltr" dominant-baseline="text-before-edge">currentResults (array </text><text x="112.93990325927734" y="25" font-family="Virgil, Segoe UI Emoji" font-size="20px" fill="#1971c2" text-anchor="middle" style="white-space: pre;" direction="ltr" dominant-baseline="text-before-edge">of length 5 ** </text><text x="112.93990325927734" y="50" font-family="Virgil, Segoe UI Emoji" font-size="20px" fill="#1971c2" text-anchor="middle" style="white-space: pre;" direction="ltr" dominant-baseline="text-before-edge">voteOptionTreeDepth)</text></g><g stroke-linecap="round" transform="translate(282.61918115535605 114.08333608260978) rotate(0 122.99280919396722 42.5)"><path d="M21.25 0 C75.91 -1.82, 127.49 -2.83, 224.74 0 M21.25 0 C85.47 -1.22, 149.11 -1.25, 224.74 0 M224.74 0 C237.57 1.21, 247.34 5.68, 245.99 21.25 M224.74 0 C238.08 2.02, 246.59 5.24, 245.99 21.25 M245.99 21.25 C245.14 38.54, 245.72 53.09, 245.99 63.75 M245.99 21.25 C245.71 32.7, 245.77 42.61, 245.99 63.75 M245.99 63.75 C245.36 78.29, 237.13 86.63, 224.74 85 M245.99 63.75 C244.37 79.48, 239.7 82.93, 224.74 85 M224.74 85 C156.63 84.89, 88.45 83.25, 21.25 85 M224.74 85 C163.86 84.74, 102.44 84.96, 21.25 85 M21.25 85 C7.26 84.42, -1.19 78.63, 0 63.75 M21.25 85 C5.97 85.45, -0.42 78.64, 0 63.75 M0 63.75 C-1.99 50.44, -0.09 33.53, 0 21.25 M0 63.75 C0.96 52.15, 0.93 40.1, 0 21.25 M0 21.25 C2 5.79, 6.96 0.69, 21.25 0 M0 21.25 C-2.26 7.55, 5.11 -2.19, 21.25 0" stroke="#1971c2" stroke-width="1" fill="none"></path></g><g transform="translate(288.9121002126044 144.08333608260978) rotate(0 116.69989013671875 12.5)"><text x="116.69989013671875" y="0" font-family="Virgil, Segoe UI Emoji" font-size="20px" fill="#1971c2" text-anchor="middle" style="white-space: pre;" direction="ltr" dominant-baseline="text-before-edge">currentResultsRootSalt</text></g><g stroke-linecap="round" transform="translate(552.3509616970741 116.6754643528759) rotate(0 122.99280919396722 42.5)"><path d="M21.25 0 C99.39 0.91, 173.76 -1.12, 224.74 0 M21.25 0 C73.6 1.28, 126.46 1.71, 224.74 0 M224.74 0 C238.59 -1.56, 247.33 8.18, 245.99 21.25 M224.74 0 C239.61 -0.23, 244.2 8.83, 245.99 21.25 M245.99 21.25 C245.29 34.45, 244.33 51.75, 245.99 63.75 M245.99 21.25 C245.56 35.04, 246.08 48.45, 245.99 63.75 M245.99 63.75 C244.39 78.78, 237.76 86.19, 224.74 85 M245.99 63.75 C246.12 76.34, 236.9 83.21, 224.74 85 M224.74 85 C180.25 83.67, 137.45 82.99, 21.25 85 M224.74 85 C179.85 85.64, 133.67 85.39, 21.25 85 M21.25 85 C8.39 85.95, 0.46 76.24, 0 63.75 M21.25 85 C5.83 83.93, -1.82 79.24, 0 63.75 M0 63.75 C1.97 51.89, 0.46 42.68, 0 21.25 M0 63.75 C1.2 55.62, 0.71 47.31, 0 21.25 M0 21.25 C-0.59 5.81, 7.46 1.52, 21.25 0 M0 21.25 C0.67 6.98, 7.17 1.2, 21.25 0" stroke="#1971c2" stroke-width="1" fill="none"></path></g><g transform="translate(577.5038584764904 146.6754643528759) rotate(0 97.83991241455078 12.5)"><text x="97.83991241455078" y="0" font-family="Virgil, Segoe UI Emoji" font-size="20px" fill="#1971c2" text-anchor="middle" style="white-space: pre;" direction="ltr" dominant-baseline="text-before-edge">newResultsRootSalt</text></g><g stroke-linecap="round" transform="translate(553.1005245620408 16.835802184025624) rotate(0 122.99280919396722 42.5)"><path d="M21.25 0 C62.91 -0.7, 103.63 -1.37, 224.74 0 M21.25 0 C95.23 0.73, 169.1 -0.19, 224.74 0 M224.74 0 C240.67 -0.94, 245.32 6.59, 245.99 21.25 M224.74 0 C239.99 0.25, 245.66 8, 245.99 21.25 M245.99 21.25 C245.33 33.86, 244.73 43.54, 245.99 63.75 M245.99 21.25 C246.49 36.85, 246.54 52.5, 245.99 63.75 M245.99 63.75 C244.81 79.48, 237.16 83.58, 224.74 85 M245.99 63.75 C245.72 76.1, 238.72 84.38, 224.74 85 M224.74 85 C177.38 85.43, 134.54 84.85, 21.25 85 M224.74 85 C151.33 86.6, 76.65 85.57, 21.25 85 M21.25 85 C7.32 85.02, -0.01 76.05, 0 63.75 M21.25 85 C5.63 85.94, 0.83 77.64, 0 63.75 M0 63.75 C-0.74 50.04, 0.48 32.99, 0 21.25 M0 63.75 C0.05 52.44, 0.65 40.94, 0 21.25 M0 21.25 C-1.36 8.59, 5.8 -0.95, 21.25 0 M0 21.25 C0.42 7.4, 4.83 -1.43, 21.25 0" stroke="#1971c2" stroke-width="1" fill="none"></path></g><g transform="translate(566.613421951809 21.835802184025624) rotate(0 109.47991180419922 37.5)"><text x="109.47991180419922" y="0" font-family="Virgil, Segoe UI Emoji" font-size="20px" fill="#1971c2" text-anchor="middle" style="white-space: pre;" direction="ltr" dominant-baseline="text-before-edge">newResults (array of </text><text x="109.47991180419922" y="25" font-family="Virgil, Segoe UI Emoji" font-size="20px" fill="#1971c2" text-anchor="middle" style="white-space: pre;" direction="ltr" dominant-baseline="text-before-edge">length 5 ** </text><text x="109.47991180419922" y="50" font-family="Virgil, Segoe UI Emoji" font-size="20px" fill="#1971c2" text-anchor="middle" style="white-space: pre;" direction="ltr" dominant-baseline="text-before-edge">voteOptionTreeDepth)</text></g><g stroke-linecap="round" transform="translate(832.3443634324176 16.387120187390565) rotate(0 122.9928091939671 42.5)"><path d="M21.25 0 C100.08 -2.84, 176.02 -1.18, 224.74 0 M21.25 0 C72.13 -1.71, 121.75 -0.98, 224.74 0 M224.74 0 C237.19 -0.37, 244.39 6.39, 245.99 21.25 M224.74 0 C237.67 -1.1, 245.98 7.13, 245.99 21.25 M245.99 21.25 C245.34 34.35, 247.87 48.52, 245.99 63.75 M245.99 21.25 C246.34 30.48, 246.28 38.38, 245.99 63.75 M245.99 63.75 C246.34 79.86, 237.35 86.58, 224.74 85 M245.99 63.75 C244.92 79.42, 237.91 83.43, 224.74 85 M224.74 85 C148.75 82.45, 73.98 81.9, 21.25 85 M224.74 85 C151.2 83.51, 79.67 83.2, 21.25 85 M21.25 85 C8.67 84.28, -1.94 77.23, 0 63.75 M21.25 85 C6.93 87.1, -1.01 79.3, 0 63.75 M0 63.75 C-0.62 52.97, 0.12 41.07, 0 21.25 M0 63.75 C0.37 48.43, 0.58 32.15, 0 21.25 M0 21.25 C1.69 6, 7.5 -1.33, 21.25 0 M0 21.25 C0.88 9.16, 5.35 -2.07, 21.25 0" stroke="#1971c2" stroke-width="1" fill="none"></path></g><g transform="translate(842.3372870673029 33.887120187390565) rotate(0 112.99988555908203 25)"><text x="112.99988555908203" y="0" font-family="Virgil, Segoe UI Emoji" font-size="20px" fill="#1971c2" text-anchor="middle" style="white-space: pre;" direction="ltr" dominant-baseline="text-before-edge">newSpentVoiceCreditSub</text><text x="112.99988555908203" y="25" font-family="Virgil, Segoe UI Emoji" font-size="20px" fill="#1971c2" text-anchor="middle" style="white-space: pre;" direction="ltr" dominant-baseline="text-before-edge">total</text></g><g stroke-linecap="round" transform="translate(1096.3805219227352 10) rotate(0 122.9928091939671 42.5)"><path d="M21.25 0 C94.07 -1.36, 166.23 1.56, 224.74 0 M21.25 0 C69.49 -0.7, 116.42 -1.71, 224.74 0 M224.74 0 C240.9 0.62, 246.2 6.75, 245.99 21.25 M224.74 0 C239.51 -1.04, 247.39 7.46, 245.99 21.25 M245.99 21.25 C245.84 31.44, 245.96 40.28, 245.99 63.75 M245.99 21.25 C245.65 33.25, 246.19 45.84, 245.99 63.75 M245.99 63.75 C246.53 78.54, 238.41 84.37, 224.74 85 M245.99 63.75 C246.12 79.98, 239.04 85.34, 224.74 85 M224.74 85 C154.41 83.21, 80.44 83.59, 21.25 85 M224.74 85 C176.62 84.25, 129.03 83.67, 21.25 85 M21.25 85 C7.48 85.62, -0.77 76.68, 0 63.75 M21.25 85 C7.08 83.43, 0.5 77.95, 0 63.75 M0 63.75 C-0.95 48.91, -1.15 30.3, 0 21.25 M0 63.75 C0.18 54.95, 0.28 46.41, 0 21.25 M0 21.25 C0.93 7.22, 6.82 1.56, 21.25 0 M0 21.25 C1.93 7.44, 6.02 -2.29, 21.25 0" stroke="#1971c2" stroke-width="1" fill="none"></path></g><g transform="translate(1106.3734455576205 27.5) rotate(0 112.99988555908203 25)"><text x="112.99988555908203" y="0" font-family="Virgil, Segoe UI Emoji" font-size="20px" fill="#1971c2" text-anchor="middle" style="white-space: pre;" direction="ltr" dominant-baseline="text-before-edge">newSpentVoiceCreditSub</text><text x="112.99988555908203" y="25" font-family="Virgil, Segoe UI Emoji" font-size="20px" fill="#1971c2" text-anchor="middle" style="white-space: pre;" direction="ltr" dominant-baseline="text-before-edge">totalSalt</text></g><g stroke-linecap="round" transform="translate(838.451717198378 113.23380950809928) rotate(0 122.9928091939671 55)"><path d="M27.5 0 C66.79 -0.04, 110.91 -0.86, 218.49 0 M27.5 0 C93.83 -0.18, 160.23 -1.6, 218.49 0 M218.49 0 C237.35 0.14, 244.45 7.6, 245.99 27.5 M218.49 0 C236.1 1.43, 245.51 10.38, 245.99 27.5 M245.99 27.5 C246.77 39.92, 245.02 54.98, 245.99 82.5 M245.99 27.5 C245.57 39.39, 245.87 53.27, 245.99 82.5 M245.99 82.5 C247.27 100.77, 235.16 108.72, 218.49 110 M245.99 82.5 C248.16 99.84, 236.89 108.86, 218.49 110 M218.49 110 C161.15 109.28, 105.84 107.68, 27.5 110 M218.49 110 C155.67 108.72, 91.05 110, 27.5 110 M27.5 110 C7.29 111.72, -0.84 101.3, 0 82.5 M27.5 110 C9.07 109.22, -1.5 103.12, 0 82.5 M0 82.5 C-0.3 70.39, -1.8 62.33, 0 27.5 M0 82.5 C0.64 68.45, -0.27 53.41, 0 27.5 M0 27.5 C-1.1 8.29, 8.45 1.17, 27.5 0 M0 27.5 C-1.08 8.42, 8.27 2.07, 27.5 0" stroke="#1971c2" stroke-width="1" fill="none"></path></g><g transform="translate(846.1446225227164 118.23380950809928) rotate(0 115.2999038696289 50)"><text x="115.2999038696289" y="0" font-family="Virgil, Segoe UI Emoji" font-size="20px" fill="#1971c2" text-anchor="middle" style="white-space: pre;" direction="ltr" dominant-baseline="text-before-edge">currentPerVOSpentVoice</text><text x="115.2999038696289" y="25" font-family="Virgil, Segoe UI Emoji" font-size="20px" fill="#1971c2" text-anchor="middle" style="white-space: pre;" direction="ltr" dominant-baseline="text-before-edge">Credits (array of len 5</text><text x="115.2999038696289" y="50" font-family="Virgil, Segoe UI Emoji" font-size="20px" fill="#1971c2" text-anchor="middle" style="white-space: pre;" direction="ltr" dominant-baseline="text-before-edge">** </text><text x="115.2999038696289" y="75" font-family="Virgil, Segoe UI Emoji" font-size="20px" fill="#1971c2" text-anchor="middle" style="white-space: pre;" direction="ltr" dominant-baseline="text-before-edge">voteOptionTreeDepth)</text></g><g stroke-linecap="round" transform="translate(1110.7541816502257 110.98668800105611) rotate(0 122.9928091939671 55)"><path d="M27.5 0 C97.61 1.98, 166.74 2.16, 218.49 0 M27.5 0 C101.14 2.73, 174.5 1.59, 218.49 0 M218.49 0 C238.33 1.62, 245.66 8.87, 245.99 27.5 M218.49 0 C235.66 -0.69, 244.96 11.1, 245.99 27.5 M245.99 27.5 C246.71 38.37, 244.67 51.78, 245.99 82.5 M245.99 27.5 C246.54 42.54, 246.05 55.1, 245.99 82.5 M245.99 82.5 C247.76 100.78, 235 110.2, 218.49 110 M245.99 82.5 C248.28 102.73, 238.96 109.59, 218.49 110 M218.49 110 C153.03 113.4, 88.19 113.3, 27.5 110 M218.49 110 C145.46 110.52, 72.5 110.31, 27.5 110 M27.5 110 C7.29 109.44, 1.54 100.42, 0 82.5 M27.5 110 C7.47 108.9, 1.52 98.55, 0 82.5 M0 82.5 C1.38 72.14, 0.46 57.61, 0 27.5 M0 82.5 C0.79 71.89, -0.93 60, 0 27.5 M0 27.5 C1.37 10.56, 7.78 -0.75, 27.5 0 M0 27.5 C1.97 11.35, 8.05 -1.34, 27.5 0" stroke="#1971c2" stroke-width="1" fill="none"></path></g><g transform="translate(1119.657101317826 140.9866880010561) rotate(0 114.08988952636719 25)"><text x="114.08988952636719" y="0" font-family="Virgil, Segoe UI Emoji" font-size="20px" fill="#1971c2" text-anchor="middle" style="white-space: pre;" direction="ltr" dominant-baseline="text-before-edge">currentPerVOSpentVoice</text><text x="114.08988952636719" y="25" font-family="Virgil, Segoe UI Emoji" font-size="20px" fill="#1971c2" text-anchor="middle" style="white-space: pre;" direction="ltr" dominant-baseline="text-before-edge">CreditsRootSalt</text></g><g stroke-linecap="round" transform="translate(302.6251195935463 229.84518821550023) rotate(0 122.99280919396722 55)"><path d="M27.5 0 C102.23 1.23, 178.55 0.73, 218.49 0 M27.5 0 C80.64 0.82, 133.45 -0.6, 218.49 0 M218.49 0 C237.87 1.39, 247.57 10.12, 245.99 27.5 M218.49 0 C238.72 -0.55, 246.47 9.57, 245.99 27.5 M245.99 27.5 C247.54 39.66, 244.27 51.08, 245.99 82.5 M245.99 27.5 C245.82 48.41, 245.44 69.35, 245.99 82.5 M245.99 82.5 C247.42 99.78, 236.52 108.16, 218.49 110 M245.99 82.5 C244.99 99.2, 236.03 107.88, 218.49 110 M218.49 110 C157.24 110.58, 92.02 111.4, 27.5 110 M218.49 110 C174.89 111.71, 132.42 110.75, 27.5 110 M27.5 110 C10.75 109.65, -0.02 102.34, 0 82.5 M27.5 110 C11.18 109.16, 1.47 98.67, 0 82.5 M0 82.5 C-1.11 67.63, -0.34 54.67, 0 27.5 M0 82.5 C1.35 68.24, -0.46 53.89, 0 27.5 M0 27.5 C0.36 8.98, 8.58 1.56, 27.5 0 M0 27.5 C1.58 7.52, 9.07 2.11, 27.5 0" stroke="#1971c2" stroke-width="1" fill="none"></path></g><g transform="translate(308.4880383456191 259.84518821550023) rotate(0 117.12989044189453 25)"><text x="117.12989044189453" y="0" font-family="Virgil, Segoe UI Emoji" font-size="20px" fill="#1971c2" text-anchor="middle" style="white-space: pre;" direction="ltr" dominant-baseline="text-before-edge">newPerVOSpentVoiceCred</text><text x="117.12989044189453" y="25" font-family="Virgil, Segoe UI Emoji" font-size="20px" fill="#1971c2" text-anchor="middle" style="white-space: pre;" direction="ltr" dominant-baseline="text-before-edge">itsRootSalt</text></g><g stroke-linecap="round" transform="translate(836.6728250470132 252.50626835142498) rotate(0 122.9928091939671 55)"><path d="M27.5 0 C102.27 1.86, 176.61 -0.37, 218.49 0 M27.5 0 C79.13 -0.55, 132.61 -0.36, 218.49 0 M218.49 0 C238.26 -1.55, 245.96 10.98, 245.99 27.5 M218.49 0 C235.23 -1.87, 245.87 6.9, 245.99 27.5 M245.99 27.5 C247.64 43.13, 245.39 61.86, 245.99 82.5 M245.99 27.5 C246.94 44.95, 247.01 61.38, 245.99 82.5 M245.99 82.5 C244.24 100.68, 238.68 110.48, 218.49 110 M245.99 82.5 C243.97 101.77, 238.15 109.59, 218.49 110 M218.49 110 C165.34 109.17, 112.02 108.34, 27.5 110 M218.49 110 C148.8 108.15, 80.39 108.14, 27.5 110 M27.5 110 C7.83 110, -0.16 99.42, 0 82.5 M27.5 110 C9.12 112.23, 0.48 101.15, 0 82.5 M0 82.5 C0.94 63.72, 0.78 44.91, 0 27.5 M0 82.5 C-0.55 69.33, -0.72 56.55, 0 27.5 M0 27.5 C-1.86 10.38, 8.97 1.37, 27.5 0 M0 27.5 C-1.28 9.25, 7.83 -0.51, 27.5 0" stroke="#1971c2" stroke-width="1" fill="none"></path></g><g transform="translate(842.535743799086 270.006268351425) rotate(0 117.12989044189453 37.5)"><text x="117.12989044189453" y="0" font-family="Virgil, Segoe UI Emoji" font-size="20px" fill="#1971c2" text-anchor="middle" style="white-space: pre;" direction="ltr" dominant-baseline="text-before-edge">newPerVOSpentVoiceCred</text><text x="117.12989044189453" y="25" font-family="Virgil, Segoe UI Emoji" font-size="20px" fill="#1971c2" text-anchor="middle" style="white-space: pre;" direction="ltr" dominant-baseline="text-before-edge">its (array of len 5 ** </text><text x="117.12989044189453" y="50" font-family="Virgil, Segoe UI Emoji" font-size="20px" fill="#1971c2" text-anchor="middle" style="white-space: pre;" direction="ltr" dominant-baseline="text-before-edge">voteOptionTreeDepth)</text></g><g stroke-linecap="round" transform="translate(409.6526355461808 688.0175210802165) rotate(0 122.99280919396722 55)"><path d="M27.5 0 C81.6 2.09, 132.79 0.18, 218.49 0 M27.5 0 C75.29 -2.13, 121.38 -1.85, 218.49 0 M218.49 0 C237.11 0.38, 244.98 8.27, 245.99 27.5 M218.49 0 C237.68 -1.23, 248 10.68, 245.99 27.5 M245.99 27.5 C245.47 43.2, 245.99 58.28, 245.99 82.5 M245.99 27.5 C246.68 39.26, 245.3 52.03, 245.99 82.5 M245.99 82.5 C244.26 100.08, 237.4 111.95, 218.49 110 M245.99 82.5 C244.03 100.35, 238.48 110.2, 218.49 110 M218.49 110 C170.34 111.08, 125.83 112.09, 27.5 110 M218.49 110 C144.12 110.56, 70 111.08, 27.5 110 M27.5 110 C10.11 111.54, 1.4 99.77, 0 82.5 M27.5 110 C9.73 109.65, -1.62 99.54, 0 82.5 M0 82.5 C-0.23 67.83, 0.54 56.84, 0 27.5 M0 82.5 C0.36 66.59, -0.63 50.31, 0 27.5 M0 27.5 C-1.74 10.14, 8.97 -1.43, 27.5 0 M0 27.5 C-2.06 10.77, 7.84 2.24, 27.5 0" stroke="#1971c2" stroke-width="1" fill="none"></path></g><g transform="translate(437.215528358312 705.5175210802165) rotate(0 95.42991638183594 37.5)"><text x="95.42991638183594" y="0" font-family="Virgil, Segoe UI Emoji" font-size="20px" fill="#1971c2" text-anchor="middle" style="white-space: pre;" direction="ltr" dominant-baseline="text-before-edge">1. Compute the </text><text x="95.42991638183594" y="25" font-family="Virgil, Segoe UI Emoji" font-size="20px" fill="#1971c2" text-anchor="middle" style="white-space: pre;" direction="ltr" dominant-baseline="text-before-edge">commitment to the </text><text x="95.42991638183594" y="50" font-family="Virgil, Segoe UI Emoji" font-size="20px" fill="#1971c2" text-anchor="middle" style="white-space: pre;" direction="ltr" dominant-baseline="text-before-edge">current results</text></g><g stroke-linecap="round" transform="translate(805.4345686830961 678.5032644316832) rotate(0 122.9928091939671 55)"><path d="M27.5 0 C65.29 -0.08, 107.2 -1.29, 218.49 0 M27.5 0 C104.59 -0.04, 179.01 0.84, 218.49 0 M218.49 0 C235.51 -0.53, 245.65 10.76, 245.99 27.5 M218.49 0 C235.94 -0.46, 243.73 11.05, 245.99 27.5 M245.99 27.5 C245.96 44.26, 246.21 55.83, 245.99 82.5 M245.99 27.5 C245.94 43.81, 246.37 61.5, 245.99 82.5 M245.99 82.5 C247.96 99.86, 237.8 108.31, 218.49 110 M245.99 82.5 C247.18 101.96, 237.9 110.15, 218.49 110 M218.49 110 C148.13 110.19, 76.32 112.21, 27.5 110 M218.49 110 C165.42 110.33, 112.49 109.61, 27.5 110 M27.5 110 C7.38 111.31, -1.07 99.69, 0 82.5 M27.5 110 C7.98 110.6, 1.94 101.88, 0 82.5 M0 82.5 C1.59 59.97, 0.79 40.98, 0 27.5 M0 82.5 C-0.5 63.21, 0.44 43.58, 0 27.5 M0 27.5 C-0.96 8.17, 8.17 -1.61, 27.5 0 M0 27.5 C1.33 9.24, 11.33 -1.5, 27.5 0" stroke="#1971c2" stroke-width="1" fill="none"></path></g><g transform="translate(814.9774724815557 683.5032644316832) rotate(0 113.44990539550781 50)"><text x="113.44990539550781" y="0" font-family="Virgil, Segoe UI Emoji" font-size="20px" fill="#1971c2" text-anchor="middle" style="white-space: pre;" direction="ltr" dominant-baseline="text-before-edge">use QuinCheckRoot and</text><text x="113.44990539550781" y="25" font-family="Virgil, Segoe UI Emoji" font-size="20px" fill="#1971c2" text-anchor="middle" style="white-space: pre;" direction="ltr" dominant-baseline="text-before-edge">pass all items in the </text><text x="113.44990539550781" y="50" font-family="Virgil, Segoe UI Emoji" font-size="20px" fill="#1971c2" text-anchor="middle" style="white-space: pre;" direction="ltr" dominant-baseline="text-before-edge">currentResults array </text><text x="113.44990539550781" y="75" font-family="Virgil, Segoe UI Emoji" font-size="20px" fill="#1971c2" text-anchor="middle" style="white-space: pre;" direction="ltr" dominant-baseline="text-before-edge">as leaves</text></g><g stroke-linecap="round"><g transform="translate(691.8008668641289 739.2544016142676) rotate(0 32.3183002870245 0.3167167035071543)"><path d="M-0.18 0.81 C10.35 0.9, 53.41 1.65, 64.36 1.42 M-1.73 0.19 C8.51 -0.13, 52.11 -0.27, 63.26 -0.28" stroke="#1e1e1e" stroke-width="1" fill="none"></path></g><g transform="translate(691.8008668641289 739.2544016142676) rotate(0 32.3183002870245 0.3167167035071543)"><path d="M35.1 10.05 C47.63 5.5, 58.84 3.27, 63.26 -0.28 M35.1 10.05 C41.46 7.84, 46.33 4.78, 63.26 -0.28" stroke="#1e1e1e" stroke-width="1" fill="none"></path></g><g transform="translate(691.8008668641289 739.2544016142676) rotate(0 32.3183002870245 0.3167167035071543)"><path d="M35.04 -10.47 C47.74 -6.82, 58.98 -0.86, 63.26 -0.28 M35.04 -10.47 C41.61 -8.57, 46.49 -7.51, 63.26 -0.28" stroke="#1e1e1e" stroke-width="1" fill="none"></path></g></g><mask></mask><g stroke-linecap="round" transform="translate(1081.7365641824176 675.4682203016976) rotate(0 122.9928091939671 55)"><path d="M27.5 0 C104.01 -0.79, 178.6 -1.71, 218.49 0 M27.5 0 C95.53 -1.22, 164.01 -0.85, 218.49 0 M218.49 0 C236.27 0.3, 246.98 8.97, 245.99 27.5 M218.49 0 C237.78 1.86, 247.2 7.2, 245.99 27.5 M245.99 27.5 C244.39 46.33, 244.04 62.88, 245.99 82.5 M245.99 27.5 C246.5 46.71, 245.98 66.03, 245.99 82.5 M245.99 82.5 C246.84 99.39, 236.41 111.9, 218.49 110 M245.99 82.5 C246.74 101.72, 234.74 111.99, 218.49 110 M218.49 110 C160.05 108.43, 101.64 106.74, 27.5 110 M218.49 110 C147.99 112.27, 78.98 112.44, 27.5 110 M27.5 110 C8.86 108.72, 1.07 99.15, 0 82.5 M27.5 110 C9.07 111.82, -1.28 100.44, 0 82.5 M0 82.5 C-0.09 62.93, 2.04 41.31, 0 27.5 M0 82.5 C-0.52 68.64, 0.25 54.04, 0 27.5 M0 27.5 C-0.74 9.99, 10.19 0.16, 27.5 0 M0 27.5 C1.51 9.64, 11.18 2.13, 27.5 0" stroke="#1971c2" stroke-width="1" fill="none"></path></g><g transform="translate(1092.2994646239435 705.4682203016976) rotate(0 112.4299087524414 25)"><text x="112.4299087524414" y="0" font-family="Virgil, Segoe UI Emoji" font-size="20px" fill="#1971c2" text-anchor="middle" style="white-space: pre;" direction="ltr" dominant-baseline="text-before-edge">hash the root of the </text><text x="112.4299087524414" y="25" font-family="Virgil, Segoe UI Emoji" font-size="20px" fill="#1971c2" text-anchor="middle" style="white-space: pre;" direction="ltr" dominant-baseline="text-before-edge">new tree with the salt</text></g><g stroke-linecap="round" transform="translate(412.2546780324035 836.9565268182967) rotate(0 122.99280919396722 55)"><path d="M27.5 0 C72.17 -2.1, 122.14 -0.09, 218.49 0 M27.5 0 C71.22 -0.06, 115.33 1.49, 218.49 0 M218.49 0 C235.8 -0.59, 247.78 7.55, 245.99 27.5 M218.49 0 C237.57 1.38, 247.79 11.09, 245.99 27.5 M245.99 27.5 C246.21 42.61, 246.93 61.43, 245.99 82.5 M245.99 27.5 C246.36 44.54, 246.3 62.72, 245.99 82.5 M245.99 82.5 C244.77 99.38, 236.15 110.87, 218.49 110 M245.99 82.5 C245.99 101.52, 237.52 108.68, 218.49 110 M218.49 110 C143.16 110.02, 68.24 113.03, 27.5 110 M218.49 110 C149.67 110.84, 81.79 110.49, 27.5 110 M27.5 110 C9.47 111.21, -0.38 101.99, 0 82.5 M27.5 110 C7.85 109.35, 2.3 102.03, 0 82.5 M0 82.5 C-0.68 69.57, -0.8 54.9, 0 27.5 M0 82.5 C0.29 62.27, -0.22 41.14, 0 27.5 M0 27.5 C-0.56 11.13, 8.25 -0.3, 27.5 0 M0 27.5 C-1.28 9.42, 8.6 -1.18, 27.5 0" stroke="#1971c2" stroke-width="1" fill="none"></path></g><g transform="translate(435.5575763376987 841.9565268182967) rotate(0 99.68991088867188 50)"><text x="99.68991088867188" y="0" font-family="Virgil, Segoe UI Emoji" font-size="20px" fill="#1971c2" text-anchor="middle" style="white-space: pre;" direction="ltr" dominant-baseline="text-before-edge">2. Compute the </text><text x="99.68991088867188" y="25" font-family="Virgil, Segoe UI Emoji" font-size="20px" fill="#1971c2" text-anchor="middle" style="white-space: pre;" direction="ltr" dominant-baseline="text-before-edge">commitment to the </text><text x="99.68991088867188" y="50" font-family="Virgil, Segoe UI Emoji" font-size="20px" fill="#1971c2" text-anchor="middle" style="white-space: pre;" direction="ltr" dominant-baseline="text-before-edge">current spent voice </text><text x="99.68991088867188" y="75" font-family="Virgil, Segoe UI Emoji" font-size="20px" fill="#1971c2" text-anchor="middle" style="white-space: pre;" direction="ltr" dominant-baseline="text-before-edge">credits</text></g><g stroke-linecap="round" transform="translate(805.0645078625575 835.515146963198) rotate(0 122.9928091939671 55)"><path d="M27.5 0 C77.87 -3.71, 130.41 -2.03, 218.49 0 M27.5 0 C88.73 0.32, 150.47 -0.03, 218.49 0 M218.49 0 C237.33 1.16, 247.77 9.03, 245.99 27.5 M218.49 0 C238.72 0.14, 247.81 9, 245.99 27.5 M245.99 27.5 C245.4 41.63, 244.85 50.81, 245.99 82.5 M245.99 27.5 C245.08 46.83, 246.44 64.93, 245.99 82.5 M245.99 82.5 C244.53 101.31, 237.14 110.6, 218.49 110 M245.99 82.5 C248.01 100.87, 235.37 111.63, 218.49 110 M218.49 110 C144.33 111.04, 68.52 110.99, 27.5 110 M218.49 110 C154.95 109.57, 92.83 108.9, 27.5 110 M27.5 110 C11.02 110.29, -1.66 98.84, 0 82.5 M27.5 110 C7.02 109.19, 2.2 100.86, 0 82.5 M0 82.5 C0.68 69.12, -1.49 58.01, 0 27.5 M0 82.5 C0.59 66.87, 1.12 49.4, 0 27.5 M0 27.5 C1.23 9.13, 7.93 -0.29, 27.5 0 M0 27.5 C-1.64 11.39, 7.61 -1.9, 27.5 0" stroke="#1971c2" stroke-width="1" fill="none"></path></g><g transform="translate(810.2074330233218 865.515146963198) rotate(0 117.84988403320312 25)"><text x="117.84988403320312" y="0" font-family="Virgil, Segoe UI Emoji" font-size="20px" fill="#1971c2" text-anchor="middle" style="white-space: pre;" direction="ltr" dominant-baseline="text-before-edge">hash(currentSpentVoiceC</text><text x="117.84988403320312" y="25" font-family="Virgil, Segoe UI Emoji" font-size="20px" fill="#1971c2" text-anchor="middle" style="white-space: pre;" direction="ltr" dominant-baseline="text-before-edge">reditSubtotal, salt)</text></g><g stroke-linecap="round"><g transform="translate(691.4308060435906 896.266284145782) rotate(0 32.3183002870245 0.3167167035071543)"><path d="M-0.17 0.27 C10.84 0.54, 54.13 0.71, 64.87 0.93 M-1.72 -0.64 C9.25 -0.68, 53.21 -1.1, 64.05 -1.04" stroke="#1e1e1e" stroke-width="1" fill="none"></path></g><g transform="translate(691.4308060435906 896.266284145782) rotate(0 32.3183002870245 0.3167167035071543)"><path d="M35.89 9.31 C42.08 7.65, 47.81 4.58, 64.05 -1.04 M35.89 9.31 C46.82 5.85, 58.12 1.28, 64.05 -1.04" stroke="#1e1e1e" stroke-width="1" fill="none"></path></g><g transform="translate(691.4308060435906 896.266284145782) rotate(0 32.3183002870245 0.3167167035071543)"><path d="M35.83 -11.21 C41.9 -8.73, 47.65 -7.66, 64.05 -1.04 M35.83 -11.21 C46.76 -6.9, 58.09 -3.7, 64.05 -1.04" stroke="#1e1e1e" stroke-width="1" fill="none"></path></g></g><mask></mask><g stroke-linecap="round" transform="translate(414.38352495841104 977.1161952460341) rotate(0 122.99280919396722 55)"><path d="M27.5 0 C80.7 0.55, 136.01 0.05, 218.49 0 M27.5 0 C67.29 -0.23, 105.43 -0.98, 218.49 0 M218.49 0 C236.43 0.64, 246.68 7.39, 245.99 27.5 M218.49 0 C234.82 -0.68, 244.01 9.62, 245.99 27.5 M245.99 27.5 C244.71 41.08, 245.8 56.27, 245.99 82.5 M245.99 27.5 C246.23 39.44, 246.68 52.08, 245.99 82.5 M245.99 82.5 C246.62 100.28, 238.31 110.19, 218.49 110 M245.99 82.5 C247.94 99.33, 237.79 108.77, 218.49 110 M218.49 110 C170.87 112.48, 124.2 110.13, 27.5 110 M218.49 110 C174.99 109.48, 131.09 110.48, 27.5 110 M27.5 110 C8.23 109.19, 1.49 101.67, 0 82.5 M27.5 110 C10.24 110.09, 1.33 99.79, 0 82.5 M0 82.5 C0.11 65.34, 1.27 48.67, 0 27.5 M0 82.5 C0.44 70.44, 0.6 57.99, 0 27.5 M0 27.5 C-0.78 10.51, 7.88 0.12, 27.5 0 M0 27.5 C2.12 7.79, 10.5 -2.02, 27.5 0" stroke="#1971c2" stroke-width="1" fill="none"></path></g><g transform="translate(424.3264455415383 982.1161952460341) rotate(0 113.04988861083984 50)"><text x="113.04988861083984" y="0" font-family="Virgil, Segoe UI Emoji" font-size="20px" fill="#1971c2" text-anchor="middle" style="white-space: pre;" direction="ltr" dominant-baseline="text-before-edge">3. Compute the </text><text x="113.04988861083984" y="25" font-family="Virgil, Segoe UI Emoji" font-size="20px" fill="#1971c2" text-anchor="middle" style="white-space: pre;" direction="ltr" dominant-baseline="text-before-edge">commitment of the </text><text x="113.04988861083984" y="50" font-family="Virgil, Segoe UI Emoji" font-size="20px" fill="#1971c2" text-anchor="middle" style="white-space: pre;" direction="ltr" dominant-baseline="text-before-edge">spent voice credits per</text><text x="113.04988861083984" y="75" font-family="Virgil, Segoe UI Emoji" font-size="20px" fill="#1971c2" text-anchor="middle" style="white-space: pre;" direction="ltr" dominant-baseline="text-before-edge">vote option</text></g><g stroke-linecap="round" transform="translate(814.4690933531524 973.0000990106589) rotate(0 122.9928091939671 55)"><path d="M27.5 0 C91.76 -3.42, 158.29 -1.29, 218.49 0 M27.5 0 C94.08 -0.96, 161.9 -1.29, 218.49 0 M218.49 0 C237.75 -1.41, 246.59 9.03, 245.99 27.5 M218.49 0 C238.7 1.12, 244.44 9.11, 245.99 27.5 M245.99 27.5 C247.68 48.7, 246.04 68.88, 245.99 82.5 M245.99 27.5 C245.53 47.3, 246.85 68.39, 245.99 82.5 M245.99 82.5 C244.29 101.45, 235.76 110.87, 218.49 110 M245.99 82.5 C243.8 99.64, 234.78 111.73, 218.49 110 M218.49 110 C174.56 107.78, 130.12 108.36, 27.5 110 M218.49 110 C171.75 111.42, 123.44 109.98, 27.5 110 M27.5 110 C11.06 109.32, 0.97 102.15, 0 82.5 M27.5 110 C9.85 109.76, -0.46 98.93, 0 82.5 M0 82.5 C-0.49 60.64, 0.05 40.93, 0 27.5 M0 82.5 C-0.45 70.67, 0.4 56.71, 0 27.5 M0 27.5 C-0.01 8.26, 10.53 -1.58, 27.5 0 M0 27.5 C-1.9 9.46, 10.02 -0.37, 27.5 0" stroke="#1971c2" stroke-width="1" fill="none"></path></g><g transform="translate(823.3720130207525 978.0000990106589) rotate(0 114.08988952636719 50)"><text x="114.08988952636719" y="0" font-family="Virgil, Segoe UI Emoji" font-size="20px" fill="#1971c2" text-anchor="middle" style="white-space: pre;" direction="ltr" dominant-baseline="text-before-edge">use QuinCheckRoot and</text><text x="114.08988952636719" y="25" font-family="Virgil, Segoe UI Emoji" font-size="20px" fill="#1971c2" text-anchor="middle" style="white-space: pre;" direction="ltr" dominant-baseline="text-before-edge">pass all items in </text><text x="114.08988952636719" y="50" font-family="Virgil, Segoe UI Emoji" font-size="20px" fill="#1971c2" text-anchor="middle" style="white-space: pre;" direction="ltr" dominant-baseline="text-before-edge">currentPerVOSpentVoice</text><text x="114.08988952636719" y="75" font-family="Virgil, Segoe UI Emoji" font-size="20px" fill="#1971c2" text-anchor="middle" style="white-space: pre;" direction="ltr" dominant-baseline="text-before-edge">Credits</text></g><g stroke-linecap="round"><g transform="translate(700.8353915341854 1033.7512361932438) rotate(0 32.3183002870245 0.3167167035071543)"><path d="M0.16 0.62 C11.29 0.91, 55.01 1.2, 65.64 1.19 M-1.21 -0.1 C9.94 -0.12, 53.94 -0.96, 65.22 -0.64" stroke="#1e1e1e" stroke-width="1" fill="none"></path></g><g transform="translate(700.8353915341854 1033.7512361932438) rotate(0 32.3183002870245 0.3167167035071543)"><path d="M37.01 9.58 C43.93 9.1, 49.66 4.14, 65.22 -0.64 M37.01 9.58 C45.73 5.99, 53.83 3.64, 65.22 -0.64" stroke="#1e1e1e" stroke-width="1" fill="none"></path></g><g transform="translate(700.8353915341854 1033.7512361932438) rotate(0 32.3183002870245 0.3167167035071543)"><path d="M37.05 -10.94 C43.86 -7.18, 49.59 -7.89, 65.22 -0.64 M37.05 -10.94 C45.77 -8.52, 53.86 -4.86, 65.22 -0.64" stroke="#1e1e1e" stroke-width="1" fill="none"></path></g></g><mask></mask><g stroke-linecap="round" transform="translate(1091.2054844591257 971.4867744828396) rotate(0 122.9928091939671 55)"><path d="M27.5 0 C75.88 -0.66, 127.02 0.37, 218.49 0 M27.5 0 C68.74 0.93, 108.25 0.35, 218.49 0 M218.49 0 C235.4 -1.5, 246.48 7.78, 245.99 27.5 M218.49 0 C234.71 0.3, 245.68 7.16, 245.99 27.5 M245.99 27.5 C247.83 46.2, 245.98 63.56, 245.99 82.5 M245.99 27.5 C246.57 48.49, 246.26 69.44, 245.99 82.5 M245.99 82.5 C246.24 101.58, 238.74 108.77, 218.49 110 M245.99 82.5 C245.54 100.09, 235.19 111.81, 218.49 110 M218.49 110 C172.28 109.53, 124.06 111.07, 27.5 110 M218.49 110 C179.02 109.84, 140.45 109.54, 27.5 110 M27.5 110 C10.34 112, 0.21 99.47, 0 82.5 M27.5 110 C10.09 107.73, -0.09 103.07, 0 82.5 M0 82.5 C0.38 66.97, 1.17 56.46, 0 27.5 M0 82.5 C-0.82 65.61, 0.24 47.82, 0 27.5 M0 27.5 C0.94 7.87, 9.28 1.63, 27.5 0 M0 27.5 C2.15 8.58, 8.53 1.39, 27.5 0" stroke="#1971c2" stroke-width="1" fill="none"></path></g><g transform="translate(1101.5183925300462 988.9867744828396) rotate(0 112.67990112304688 37.5)"><text x="112.67990112304688" y="0" font-family="Virgil, Segoe UI Emoji" font-size="20px" fill="#1971c2" text-anchor="middle" style="white-space: pre;" direction="ltr" dominant-baseline="text-before-edge">hash the root of this </text><text x="112.67990112304688" y="25" font-family="Virgil, Segoe UI Emoji" font-size="20px" fill="#1971c2" text-anchor="middle" style="white-space: pre;" direction="ltr" dominant-baseline="text-before-edge">tree with the perVO </text><text x="112.67990112304688" y="50" font-family="Virgil, Segoe UI Emoji" font-size="20px" fill="#1971c2" text-anchor="middle" style="white-space: pre;" direction="ltr" dominant-baseline="text-before-edge">salt</text></g><g stroke-linecap="round" transform="translate(422.33740487232194 1123.0307081879125) rotate(0 122.99280919396722 55)"><path d="M27.5 0 C84.08 -1.64, 143.12 -0.3, 218.49 0 M27.5 0 C80.88 -0.45, 132.52 0.93, 218.49 0 M218.49 0 C236.04 -0.72, 246.12 10.27, 245.99 27.5 M218.49 0 C235.13 2.05, 245.19 7.68, 245.99 27.5 M245.99 27.5 C247.68 50.28, 247.6 69.03, 245.99 82.5 M245.99 27.5 C246.28 42.06, 245.6 55.47, 245.99 82.5 M245.99 82.5 C246.16 102.01, 235.27 108.16, 218.49 110 M245.99 82.5 C247.97 101.83, 236.54 109.13, 218.49 110 M218.49 110 C157.06 109.08, 93.23 109.89, 27.5 110 M218.49 110 C161.99 110.69, 106.1 110.99, 27.5 110 M27.5 110 C9.09 109.64, -0.75 99.6, 0 82.5 M27.5 110 C11.03 110.49, 0.3 102.59, 0 82.5 M0 82.5 C-0.72 64.74, 0.03 49.34, 0 27.5 M0 82.5 C0.35 61.29, -0.38 39.01, 0 27.5 M0 27.5 C1.76 8.74, 9.92 1.05, 27.5 0 M0 27.5 C1.8 9.88, 10.83 -1.66, 27.5 0" stroke="#1971c2" stroke-width="1" fill="none"></path></g><g transform="translate(458.27027754285155 1153.0307081879125) rotate(0 87.0599365234375 25)"><text x="87.0599365234375" y="0" font-family="Virgil, Segoe UI Emoji" font-size="20px" fill="#1971c2" text-anchor="middle" style="white-space: pre;" direction="ltr" dominant-baseline="text-before-edge">4. Calculate the </text><text x="87.0599365234375" y="25" font-family="Virgil, Segoe UI Emoji" font-size="20px" fill="#1971c2" text-anchor="middle" style="white-space: pre;" direction="ltr" dominant-baseline="text-before-edge">tallyCommitment</text></g><g stroke-linecap="round" transform="translate(811.5367632464358 1104.8728023632527) rotate(0 238.36700725209585 74.16975346443473)"><path d="M32 0 C143.64 1.07, 254.6 0.11, 444.73 0 M32 0 C196.62 -1.62, 361.52 -1.27, 444.73 0 M444.73 0 C467.01 -0.74, 478.7 9.09, 476.73 32 M444.73 0 C467.69 -1.55, 474.84 10.62, 476.73 32 M476.73 32 C476.1 63.58, 477.27 94.21, 476.73 116.34 M476.73 32 C476.83 53.04, 476.71 73.47, 476.73 116.34 M476.73 116.34 C477.6 136.56, 467.18 148.44, 444.73 148.34 M476.73 116.34 C475.12 137.17, 465.59 148.9, 444.73 148.34 M444.73 148.34 C293.74 147.53, 142.06 147.59, 32 148.34 M444.73 148.34 C282.35 148.45, 118.86 148.93, 32 148.34 M32 148.34 C9.94 148.78, -0.05 139.38, 0 116.34 M32 148.34 C9.12 148.21, 1.63 139.79, 0 116.34 M0 116.34 C0.66 86.32, -2.06 58.41, 0 32 M0 116.34 C0.04 86.26, -1.07 55.04, 0 32 M0 32 C-0.78 10.56, 10.93 1.63, 32 0 M0 32 C-1.95 9.8, 12.6 1.93, 32 0" stroke="#1971c2" stroke-width="1" fill="none"></path></g><g transform="translate(820.1139755766567 1141.5425558276877) rotate(0 229.789794921875 37.5)"><text x="229.789794921875" y="0" font-family="Virgil, Segoe UI Emoji" font-size="20px" fill="#1971c2" text-anchor="middle" style="white-space: pre;" direction="ltr" dominant-baseline="text-before-edge">hash(currentResultsCommitmentHash, </text><text x="229.789794921875" y="25" font-family="Virgil, Segoe UI Emoji" font-size="20px" fill="#1971c2" text-anchor="middle" style="white-space: pre;" direction="ltr" dominant-baseline="text-before-edge">currentSpentVoiceCreditsCommitmentHash, </text><text x="229.789794921875" y="50" font-family="Virgil, Segoe UI Emoji" font-size="20px" fill="#1971c2" text-anchor="middle" style="white-space: pre;" direction="ltr" dominant-baseline="text-before-edge">currentPerVOSpentVoiceCreditsCommitmentHash)</text></g><g stroke-linecap="round"><g transform="translate(701.3366058564193 1179.8853169910938) rotate(0 32.3183002870245 0.3167167035071543)"><path d="M-0.39 1.18 C10.23 1.24, 53.55 1.58, 64.42 1.47 M1.6 0.76 C11.99 1, 52.94 -0.38, 63.36 -0.22" stroke="#1e1e1e" stroke-width="1" fill="none"></path></g><g transform="translate(701.3366058564193 1179.8853169910938) rotate(0 32.3183002870245 0.3167167035071543)"><path d="M35.28 10.37 C47.13 6.34, 56.51 3.21, 63.36 -0.22 M35.28 10.37 C43.81 6.78, 52.45 3.29, 63.36 -0.22" stroke="#1e1e1e" stroke-width="1" fill="none"></path></g><g transform="translate(701.3366058564193 1179.8853169910938) rotate(0 32.3183002870245 0.3167167035071543)"><path d="M35.05 -10.15 C47.17 -6.9, 56.63 -2.73, 63.36 -0.22 M35.05 -10.15 C43.8 -7.8, 52.52 -5.34, 63.36 -0.22" stroke="#1e1e1e" stroke-width="1" fill="none"></path></g></g><mask></mask><g stroke-linecap="round" transform="translate(1362.3274583309749 1143.790954498604) rotate(0 119.97668795692084 42.5)"><path d="M21.25 0 C63.94 -1.82, 101.92 -1.6, 218.7 0 M21.25 0 C86.86 -0.75, 151.68 -2.06, 218.7 0 M218.7 0 C232.61 -1.44, 238.44 5.29, 239.95 21.25 M218.7 0 C233.54 -0.49, 240.3 5.86, 239.95 21.25 M239.95 21.25 C237.9 39.16, 239.62 53.12, 239.95 63.75 M239.95 21.25 C239.78 36.13, 240.43 50.95, 239.95 63.75 M239.95 63.75 C239.74 77.49, 231.25 86.81, 218.7 85 M239.95 63.75 C239.51 77.46, 234.22 84.15, 218.7 85 M218.7 85 C177.27 86.86, 131.38 86.29, 21.25 85 M218.7 85 C163.98 84.99, 107.55 83.63, 21.25 85 M21.25 85 C6.26 85.9, 0.56 77.61, 0 63.75 M21.25 85 C9.31 83.08, -1.23 77.37, 0 63.75 M0 63.75 C1.04 55.77, -0.51 45.58, 0 21.25 M0 63.75 C-0.04 54.67, 0.59 44.71, 0 21.25 M0 21.25 C1.64 6.85, 5.28 -0.17, 21.25 0 M0 21.25 C0.37 6.19, 4.96 1.82, 21.25 0" stroke="#1971c2" stroke-width="1" fill="none"></path></g><g transform="translate(1370.974228380181 1148.790954498604) rotate(0 111.32991790771484 37.5)"><text x="111.32991790771484" y="0" font-family="Virgil, Segoe UI Emoji" font-size="20px" fill="#1971c2" text-anchor="middle" style="white-space: pre;" direction="ltr" dominant-baseline="text-before-edge">if this is the first </text><text x="111.32991790771484" y="25" font-family="Virgil, Segoe UI Emoji" font-size="20px" fill="#1971c2" text-anchor="middle" style="white-space: pre;" direction="ltr" dominant-baseline="text-before-edge">batch we do not check</text><text x="111.32991790771484" y="50" font-family="Virgil, Segoe UI Emoji" font-size="20px" fill="#1971c2" text-anchor="middle" style="white-space: pre;" direction="ltr" dominant-baseline="text-before-edge">that it is correct</text></g><g stroke-linecap="round" transform="translate(430.9601596613754 1287.8693579779072) rotate(0 122.99280919396722 55)"><path d="M27.5 0 C69.8 -0.4, 113.56 -2.11, 218.49 0 M27.5 0 C94.39 -1.82, 158.94 -0.2, 218.49 0 M218.49 0 C236.92 -0.46, 245.61 7.99, 245.99 27.5 M218.49 0 C238.18 0.28, 245.43 9.6, 245.99 27.5 M245.99 27.5 C246.03 49.43, 247.67 69.25, 245.99 82.5 M245.99 27.5 C245.65 43.97, 245.45 60.57, 245.99 82.5 M245.99 82.5 C246 100.46, 237.66 109.41, 218.49 110 M245.99 82.5 C247.31 102.29, 235.16 110.36, 218.49 110 M218.49 110 C175.07 109.67, 127.9 109.24, 27.5 110 M218.49 110 C155.43 111.32, 91.57 111.91, 27.5 110 M27.5 110 C7.78 109.48, -0.26 101.27, 0 82.5 M27.5 110 C7.27 109.24, 1.7 101.13, 0 82.5 M0 82.5 C0.63 60.2, 0.1 39.54, 0 27.5 M0 82.5 C0.16 67, -0.05 52.78, 0 27.5 M0 27.5 C1.64 9.72, 8.16 -1.42, 27.5 0 M0 27.5 C-1.67 8.21, 10.73 -0.26, 27.5 0" stroke="#1971c2" stroke-width="1" fill="none"></path></g><g transform="translate(438.0830652908894 1305.3693579779072) rotate(0 115.86990356445312 37.5)"><text x="115.86990356445312" y="0" font-family="Virgil, Segoe UI Emoji" font-size="20px" fill="#1971c2" text-anchor="middle" style="white-space: pre;" direction="ltr" dominant-baseline="text-before-edge">5. Compute the </text><text x="115.86990356445312" y="25" font-family="Virgil, Segoe UI Emoji" font-size="20px" fill="#1971c2" text-anchor="middle" style="white-space: pre;" direction="ltr" dominant-baseline="text-before-edge">commitment of the new </text><text x="115.86990356445312" y="50" font-family="Virgil, Segoe UI Emoji" font-size="20px" fill="#1971c2" text-anchor="middle" style="white-space: pre;" direction="ltr" dominant-baseline="text-before-edge">results tree</text></g><g stroke-linecap="round"><g transform="translate(704.0839186901162 1339.7168870348348) rotate(0 32.3183002870245 0.3167167035071543)"><path d="M0.39 -0.64 C11.14 -0.4, 54.15 0.25, 64.87 0.35 M-0.86 1.63 C9.71 2.16, 53.24 1.85, 64.05 1.74" stroke="#1e1e1e" stroke-width="1" fill="none"></path></g><g transform="translate(704.0839186901162 1339.7168870348348) rotate(0 32.3183002870245 0.3167167035071543)"><path d="M35.94 12.21 C44.36 9.01, 54.35 5.27, 64.05 1.74 M35.94 12.21 C43.54 10.5, 49.36 8.07, 64.05 1.74" stroke="#1e1e1e" stroke-width="1" fill="none"></path></g><g transform="translate(704.0839186901162 1339.7168870348348) rotate(0 32.3183002870245 0.3167167035071543)"><path d="M35.78 -8.31 C44.06 -4.65, 54.11 -1.54, 64.05 1.74 M35.78 -8.31 C43.39 -4.99, 49.25 -2.4, 64.05 1.74" stroke="#1e1e1e" stroke-width="1" fill="none"></path></g></g><mask></mask><g stroke-linecap="round" transform="translate(817.1710380020172 1293.890262848067) rotate(0 122.9928091939671 55)"><path d="M27.5 0 C104.63 -0.24, 179.8 2.51, 218.49 0 M27.5 0 C102.19 0.71, 177.35 2.08, 218.49 0 M218.49 0 C238.46 1.91, 245.36 7.54, 245.99 27.5 M218.49 0 C237.23 1.01, 245.63 7.63, 245.99 27.5 M245.99 27.5 C247.05 43.62, 244.84 62.76, 245.99 82.5 M245.99 27.5 C246.84 40.39, 245.19 54.21, 245.99 82.5 M245.99 82.5 C247.05 100.3, 237.13 111.91, 218.49 110 M245.99 82.5 C247.54 102.77, 235.93 110.16, 218.49 110 M218.49 110 C175.21 108.22, 133.52 109.64, 27.5 110 M218.49 110 C172.31 111.42, 127.28 111.38, 27.5 110 M27.5 110 C7.86 108.4, 1.59 99.6, 0 82.5 M27.5 110 C7.49 107.74, 1.14 101.13, 0 82.5 M0 82.5 C0.8 63.45, 0.85 44.73, 0 27.5 M0 82.5 C-1.18 67.47, -1.02 51.1, 0 27.5 M0 27.5 C1.56 8.23, 8.55 1.47, 27.5 0 M0 27.5 C0.1 10.14, 11.38 0.57, 27.5 0" stroke="#1971c2" stroke-width="1" fill="none"></path></g><g transform="translate(826.7139418004767 1311.390262848067) rotate(0 113.44990539550781 37.5)"><text x="113.44990539550781" y="0" font-family="Virgil, Segoe UI Emoji" font-size="20px" fill="#1971c2" text-anchor="middle" style="white-space: pre;" direction="ltr" dominant-baseline="text-before-edge">use QuinCheckRoot and</text><text x="113.44990539550781" y="25" font-family="Virgil, Segoe UI Emoji" font-size="20px" fill="#1971c2" text-anchor="middle" style="white-space: pre;" direction="ltr" dominant-baseline="text-before-edge">pass all items in </text><text x="113.44990539550781" y="50" font-family="Virgil, Segoe UI Emoji" font-size="20px" fill="#1971c2" text-anchor="middle" style="white-space: pre;" direction="ltr" dominant-baseline="text-before-edge">newResults</text></g><g stroke-linecap="round" transform="translate(1079.37811252938 1295.5448916604203) rotate(0 122.9928091939671 55)"><path d="M27.5 0 C71.76 2.48, 115.58 0.17, 218.49 0 M27.5 0 C94.37 -2.17, 159.07 -1.72, 218.49 0 M218.49 0 C237.9 -0.49, 245.26 8.3, 245.99 27.5 M218.49 0 C234.7 1.34, 247.9 8.95, 245.99 27.5 M245.99 27.5 C245.86 41.52, 247.05 50.39, 245.99 82.5 M245.99 27.5 C245.29 44.7, 247.13 63.04, 245.99 82.5 M245.99 82.5 C244.71 102.25, 237.58 111.13, 218.49 110 M245.99 82.5 C246.37 100.16, 235.72 107.99, 218.49 110 M218.49 110 C172.37 108.45, 125.28 110.4, 27.5 110 M218.49 110 C157.06 110.96, 95.93 111.11, 27.5 110 M27.5 110 C9.63 110.56, -1.86 100.96, 0 82.5 M27.5 110 C10.33 110.1, -1.31 101.57, 0 82.5 M0 82.5 C-0.26 66.38, 0.89 53.45, 0 27.5 M0 82.5 C-1.05 70.85, -0.43 58.5, 0 27.5 M0 27.5 C0.62 9.6, 8.58 -1.93, 27.5 0 M0 27.5 C0.05 9.64, 10.37 -1.93, 27.5 0" stroke="#1971c2" stroke-width="1" fill="none"></path></g><g transform="translate(1089.6910206003004 1325.5448916604203) rotate(0 112.67990112304688 25)"><text x="112.67990112304688" y="0" font-family="Virgil, Segoe UI Emoji" font-size="20px" fill="#1971c2" text-anchor="middle" style="white-space: pre;" direction="ltr" dominant-baseline="text-before-edge">hash the root of this </text><text x="112.67990112304688" y="25" font-family="Virgil, Segoe UI Emoji" font-size="20px" fill="#1971c2" text-anchor="middle" style="white-space: pre;" direction="ltr" dominant-baseline="text-before-edge">tree with the salt</text></g><g stroke-linecap="round" transform="translate(430.92202544395127 1432.5284998538252) rotate(0 122.99280919396722 55)"><path d="M27.5 0 C69.75 3.25, 110.41 3.61, 218.49 0 M27.5 0 C70.34 0.52, 112.21 1.89, 218.49 0 M218.49 0 C238.35 1.16, 245.01 9.66, 245.99 27.5 M218.49 0 C235.29 1.31, 247.54 7.13, 245.99 27.5 M245.99 27.5 C246.33 37.88, 244.67 51.34, 245.99 82.5 M245.99 27.5 C246.45 39.39, 245.65 50.89, 245.99 82.5 M245.99 82.5 C247.88 101.35, 235.13 109.45, 218.49 110 M245.99 82.5 C248.05 99.77, 237.77 109.25, 218.49 110 M218.49 110 C160.89 107.89, 101.65 110.87, 27.5 110 M218.49 110 C171.58 111.99, 123.99 112.54, 27.5 110 M27.5 110 C8.64 109.91, -0.12 98.85, 0 82.5 M27.5 110 C7.3 109.48, -0.47 102.84, 0 82.5 M0 82.5 C1.5 65.68, 0.48 48.19, 0 27.5 M0 82.5 C-0.08 64.13, 0.85 46.71, 0 27.5 M0 27.5 C-1.25 8.84, 9.5 -0.44, 27.5 0 M0 27.5 C1.55 8.92, 10.42 1.48, 27.5 0" stroke="#1971c2" stroke-width="1" fill="none"></path></g><g transform="translate(438.04493107346525 1437.5284998538252) rotate(0 115.86990356445312 50)"><text x="115.86990356445312" y="0" font-family="Virgil, Segoe UI Emoji" font-size="20px" fill="#1971c2" text-anchor="middle" style="white-space: pre;" direction="ltr" dominant-baseline="text-before-edge">6. Compute the </text><text x="115.86990356445312" y="25" font-family="Virgil, Segoe UI Emoji" font-size="20px" fill="#1971c2" text-anchor="middle" style="white-space: pre;" direction="ltr" dominant-baseline="text-before-edge">commitment of the new </text><text x="115.86990356445312" y="50" font-family="Virgil, Segoe UI Emoji" font-size="20px" fill="#1971c2" text-anchor="middle" style="white-space: pre;" direction="ltr" dominant-baseline="text-before-edge">spent voice credits </text><text x="115.86990356445312" y="75" font-family="Virgil, Segoe UI Emoji" font-size="20px" fill="#1971c2" text-anchor="middle" style="white-space: pre;" direction="ltr" dominant-baseline="text-before-edge">value</text></g><g stroke-linecap="round" transform="translate(439.2567829120376 1567.3188189165437) rotate(0 122.99280919396722 55)"><path d="M27.5 0 C90.52 -0.6, 151.46 0.6, 218.49 0 M27.5 0 C97.52 1.81, 169.62 0.83, 218.49 0 M218.49 0 C236.02 -0.53, 247.41 8.82, 245.99 27.5 M218.49 0 C237.99 0.18, 245.72 11.24, 245.99 27.5 M245.99 27.5 C245.2 45.98, 246.11 60.97, 245.99 82.5 M245.99 27.5 C244.66 47.2, 245.87 66.78, 245.99 82.5 M245.99 82.5 C247.23 102.46, 236.82 108.71, 218.49 110 M245.99 82.5 C245.18 100.26, 236.65 111.21, 218.49 110 M218.49 110 C174.33 112.06, 130.06 108.7, 27.5 110 M218.49 110 C151.82 107.34, 84.03 107.52, 27.5 110 M27.5 110 C8.55 108.28, -0.41 99.82, 0 82.5 M27.5 110 C8.68 109.77, 1.59 99.12, 0 82.5 M0 82.5 C-1.13 63.48, -1.42 47.09, 0 27.5 M0 82.5 C1.07 64.66, 0.57 44.18, 0 27.5 M0 27.5 C0.66 7.5, 9 1.14, 27.5 0 M0 27.5 C-1.28 11.02, 11.04 0.99, 27.5 0" stroke="#1971c2" stroke-width="1" fill="none"></path></g><g transform="translate(467.6096766396961 1572.3188189165437) rotate(0 94.6399154663086 50)"><text x="94.6399154663086" y="0" font-family="Virgil, Segoe UI Emoji" font-size="20px" fill="#1971c2" text-anchor="middle" style="white-space: pre;" direction="ltr" dominant-baseline="text-before-edge">7. Compute the </text><text x="94.6399154663086" y="25" font-family="Virgil, Segoe UI Emoji" font-size="20px" fill="#1971c2" text-anchor="middle" style="white-space: pre;" direction="ltr" dominant-baseline="text-before-edge">commitment of the </text><text x="94.6399154663086" y="50" font-family="Virgil, Segoe UI Emoji" font-size="20px" fill="#1971c2" text-anchor="middle" style="white-space: pre;" direction="ltr" dominant-baseline="text-before-edge">perVO spent voice </text><text x="94.6399154663086" y="75" font-family="Virgil, Segoe UI Emoji" font-size="20px" fill="#1971c2" text-anchor="middle" style="white-space: pre;" direction="ltr" dominant-baseline="text-before-edge">credits commitment</text></g><g stroke-linecap="round" transform="translate(439.59461594655727 1715.669171718852) rotate(0 122.99280919396722 55)"><path d="M27.5 0 C69.52 -1.3, 110.8 1.07, 218.49 0 M27.5 0 C69.6 -0.45, 111.53 0.37, 218.49 0 M218.49 0 C236.85 0.68, 245.85 9.63, 245.99 27.5 M218.49 0 C235.56 1.85, 246.47 8, 245.99 27.5 M245.99 27.5 C246.65 43.52, 246.13 55.63, 245.99 82.5 M245.99 27.5 C245.76 46.28, 246.12 64.87, 245.99 82.5 M245.99 82.5 C245.6 101.41, 235.99 109.65, 218.49 110 M245.99 82.5 C244.52 102.72, 238.59 110.92, 218.49 110 M218.49 110 C177.7 108.67, 136.02 110.25, 27.5 110 M218.49 110 C152.63 111.71, 87.91 110.97, 27.5 110 M27.5 110 C10.99 109.3, -1.29 100.88, 0 82.5 M27.5 110 C10.66 108.62, -0.66 100.45, 0 82.5 M0 82.5 C0.93 64.72, -0.87 47.53, 0 27.5 M0 82.5 C0.06 65.71, 0.37 48.24, 0 27.5 M0 27.5 C1.75 7.54, 7.79 0.27, 27.5 0 M0 27.5 C-2.27 11.04, 10.22 0.95, 27.5 0" stroke="#1971c2" stroke-width="1" fill="none"></path></g><g transform="translate(459.8675078431611 1745.669171718852) rotate(0 102.71991729736328 25)"><text x="102.71991729736328" y="0" font-family="Virgil, Segoe UI Emoji" font-size="20px" fill="#1971c2" text-anchor="middle" style="white-space: pre;" direction="ltr" dominant-baseline="text-before-edge">8. Compute the new </text><text x="102.71991729736328" y="25" font-family="Virgil, Segoe UI Emoji" font-size="20px" fill="#1971c2" text-anchor="middle" style="white-space: pre;" direction="ltr" dominant-baseline="text-before-edge">tallyCommitment</text></g><g stroke-linecap="round" transform="translate(831.7990770039205 1708.797885489622) rotate(0 240.28566206938808 80)"><path d="M32 0 C116.56 -2.09, 203.11 -1.17, 448.57 0 M32 0 C157.81 0.76, 282.61 0.91, 448.57 0 M448.57 0 C468.62 -1.93, 481.22 11.85, 480.57 32 M448.57 0 C471.63 -1.22, 480.91 9.46, 480.57 32 M480.57 32 C479.95 55.64, 482.39 76.99, 480.57 128 M480.57 32 C479.49 64.13, 479.59 94.38, 480.57 128 M480.57 128 C479.17 147.46, 469.76 159.26, 448.57 160 M480.57 128 C479.91 148.74, 471.41 160.94, 448.57 160 M448.57 160 C323.53 160.99, 197.07 161.39, 32 160 M448.57 160 C364.26 158.41, 280.04 158.46, 32 160 M32 160 C11.09 161.8, -1.84 149.62, 0 128 M32 160 C12.38 161.01, -2.28 147.5, 0 128 M0 128 C1.96 103.11, -0.4 75.09, 0 32 M0 128 C1.14 103.02, 1.42 75.51, 0 32 M0 32 C-0.86 10.92, 11.21 -0.45, 32 0 M0 32 C1.08 9.88, 10.76 -0.4, 32 0" stroke="#1971c2" stroke-width="1" fill="none"></path></g><g transform="translate(885.7749246201834 1751.297885489622) rotate(0 186.309814453125 37.5)"><text x="186.309814453125" y="0" font-family="Virgil, Segoe UI Emoji" font-size="20px" fill="#1971c2" text-anchor="middle" style="white-space: pre;" direction="ltr" dominant-baseline="text-before-edge">hash(newResultsCommitmentHash, </text><text x="186.309814453125" y="25" font-family="Virgil, Segoe UI Emoji" font-size="20px" fill="#1971c2" text-anchor="middle" style="white-space: pre;" direction="ltr" dominant-baseline="text-before-edge">newSpentVoiceCreditsCommitmentHash, </text><text x="186.309814453125" y="50" font-family="Virgil, Segoe UI Emoji" font-size="20px" fill="#1971c2" text-anchor="middle" style="white-space: pre;" direction="ltr" dominant-baseline="text-before-edge">newPerVOCommitmentHash)</text></g><g stroke-linecap="round"><g transform="translate(716.9307193898742 1772.0932342743179) rotate(0 32.3183002870245 0.3167167035071543)"><path d="M-0.71 0.69 C10.31 0.69, 55.02 0.17, 65.81 0.01 M1.12 0 C12.12 0.16, 55.18 1.13, 65.48 1.22" stroke="#1e1e1e" stroke-width="1" fill="none"></path></g><g transform="translate(716.9307193898742 1772.0932342743179) rotate(0 32.3183002870245 0.3167167035071543)"><path d="M37.12 11.01 C46.04 10.46, 51.62 4.79, 65.48 1.22 M37.12 11.01 C43.75 8.36, 49.18 6, 65.48 1.22" stroke="#1e1e1e" stroke-width="1" fill="none"></path></g><g transform="translate(716.9307193898742 1772.0932342743179) rotate(0 32.3183002870245 0.3167167035071543)"><path d="M37.47 -9.51 C46.28 -4.44, 51.77 -4.49, 65.48 1.22 M37.47 -9.51 C44 -7.58, 49.36 -5.37, 65.48 1.22" stroke="#1e1e1e" stroke-width="1" fill="none"></path></g></g><mask></mask><g stroke-linecap="round" transform="translate(438.0535419671721 1848.5076951335047) rotate(0 122.99280919396722 55)"><path d="M27.5 0 C76.99 2.27, 126.8 3, 218.49 0 M27.5 0 C100.01 -1.5, 169.61 -0.27, 218.49 0 M218.49 0 C235.53 -0.62, 247.09 7.9, 245.99 27.5 M218.49 0 C234.95 -0.19, 243.84 8.88, 245.99 27.5 M245.99 27.5 C247.07 42.8, 247.17 59.28, 245.99 82.5 M245.99 27.5 C246.97 42.81, 246.62 55.97, 245.99 82.5 M245.99 82.5 C246.68 102.49, 236.02 109.34, 218.49 110 M245.99 82.5 C244.44 102.24, 238.34 109, 218.49 110 M218.49 110 C155.39 110.65, 88.06 107.41, 27.5 110 M218.49 110 C160.44 108.62, 100.95 110.27, 27.5 110 M27.5 110 C10.97 108.3, 0.63 101, 0 82.5 M27.5 110 C9.5 109.24, 0.25 101.83, 0 82.5 M0 82.5 C-0.68 63.48, 1.76 46.56, 0 27.5 M0 82.5 C-0.95 66.75, 0.42 50.67, 0 27.5 M0 27.5 C1.86 7.99, 9.06 0.18, 27.5 0 M0 27.5 C-1.6 8.54, 8.26 -0.78, 27.5 0" stroke="#1971c2" stroke-width="1" fill="none"></path></g><g transform="translate(447.206446375983 1853.5076951335047) rotate(0 113.83990478515625 50)"><text x="113.83990478515625" y="0" font-family="Virgil, Segoe UI Emoji" font-size="20px" fill="#1971c2" text-anchor="middle" style="white-space: pre;" direction="ltr" dominant-baseline="text-before-edge">9. Ensure this matches</text><text x="113.83990478515625" y="25" font-family="Virgil, Segoe UI Emoji" font-size="20px" fill="#1971c2" text-anchor="middle" style="white-space: pre;" direction="ltr" dominant-baseline="text-before-edge">with the </text><text x="113.83990478515625" y="50" font-family="Virgil, Segoe UI Emoji" font-size="20px" fill="#1971c2" text-anchor="middle" style="white-space: pre;" direction="ltr" dominant-baseline="text-before-edge">newTallyCommitment </text><text x="113.83990478515625" y="75" font-family="Virgil, Segoe UI Emoji" font-size="20px" fill="#1971c2" text-anchor="middle" style="white-space: pre;" direction="ltr" dominant-baseline="text-before-edge">output</text></g><g stroke-linecap="round" transform="translate(851.8064522582363 1440.1848434670612) rotate(0 122.9928091939671 55)"><path d="M27.5 0 C67.91 -2.15, 105.02 -1.2, 218.49 0 M27.5 0 C78.33 1.04, 131.93 0.85, 218.49 0 M218.49 0 C237.89 -1.19, 245.21 11.13, 245.99 27.5 M218.49 0 C234.65 2.02, 247.94 9.78, 245.99 27.5 M245.99 27.5 C246.48 38.28, 247.16 48.88, 245.99 82.5 M245.99 27.5 C246.04 44.97, 246.99 62.19, 245.99 82.5 M245.99 82.5 C244.58 98.89, 235.41 111.55, 218.49 110 M245.99 82.5 C245.4 102.38, 238.19 109.9, 218.49 110 M218.49 110 C150.83 111.23, 83.12 109.11, 27.5 110 M218.49 110 C176.7 111.08, 133.45 111.16, 27.5 110 M27.5 110 C8.44 111.28, 1.12 102.03, 0 82.5 M27.5 110 C11.18 109.25, 1.69 101.9, 0 82.5 M0 82.5 C1.61 61.47, 1.16 42.53, 0 27.5 M0 82.5 C0.86 62.9, -0.5 44.26, 0 27.5 M0 27.5 C-1.25 7.42, 8.77 -1.18, 27.5 0 M0 27.5 C1.93 9.24, 9.3 -1.81, 27.5 0" stroke="#1971c2" stroke-width="1" fill="none"></path></g><g transform="translate(858.1593765034731 1470.1848434670612) rotate(0 116.63988494873047 25)"><text x="116.63988494873047" y="0" font-family="Virgil, Segoe UI Emoji" font-size="20px" fill="#1971c2" text-anchor="middle" style="white-space: pre;" direction="ltr" dominant-baseline="text-before-edge">hash(newSpentVoiceCredi</text><text x="116.63988494873047" y="25" font-family="Virgil, Segoe UI Emoji" font-size="20px" fill="#1971c2" text-anchor="middle" style="white-space: pre;" direction="ltr" dominant-baseline="text-before-edge">tSubtotal, salt)</text></g><g stroke-linecap="round"><g transform="translate(737.524650946222 1485.229023393976) rotate(0 46.673890329224264 0.5273788440053977)"><path d="M-0.37 0.09 C15.3 0.2, 77.64 1.09, 93.39 1.06 M1.63 -0.91 C17.21 -0.63, 77.11 2.34, 92.46 2.6" stroke="#1e1e1e" stroke-width="1" fill="none"></path></g><g transform="translate(737.524650946222 1485.229023393976) rotate(0 46.673890329224264 0.5273788440053977)"><path d="M63.93 11.87 C71.06 9.74, 77.94 8.64, 92.46 2.6 M63.93 11.87 C70.6 9.11, 76.1 7.58, 92.46 2.6" stroke="#1e1e1e" stroke-width="1" fill="none"></path></g><g transform="translate(737.524650946222 1485.229023393976) rotate(0 46.673890329224264 0.5273788440053977)"><path d="M64.64 -8.64 C71.67 -5.73, 78.37 -1.78, 92.46 2.6 M64.64 -8.64 C71.28 -7.21, 76.64 -4.57, 92.46 2.6" stroke="#1e1e1e" stroke-width="1" fill="none"></path></g></g><mask></mask><g stroke-linecap="round" transform="translate(852.9540442623734 1573.779016803481) rotate(0 122.9928091939671 55)"><path d="M27.5 0 C101.62 -1.48, 172.61 -1.74, 218.49 0 M27.5 0 C77.86 -0.51, 126 -0.64, 218.49 0 M218.49 0 C237.98 -0.46, 247.69 7.52, 245.99 27.5 M218.49 0 C238.94 -0.82, 244.59 7.74, 245.99 27.5 M245.99 27.5 C245.7 38.54, 245.34 52.74, 245.99 82.5 M245.99 27.5 C246.45 42.87, 246.3 56.42, 245.99 82.5 M245.99 82.5 C246.13 102.3, 238.65 109.2, 218.49 110 M245.99 82.5 C246.62 99.05, 237.44 110.03, 218.49 110 M218.49 110 C177.01 112.06, 133.07 112.49, 27.5 110 M218.49 110 C154.03 109.37, 89.74 109.26, 27.5 110 M27.5 110 C9.61 110.55, 1.09 99.7, 0 82.5 M27.5 110 C7.03 108.44, 1.6 100.27, 0 82.5 M0 82.5 C-0.41 68.23, 1.93 58.04, 0 27.5 M0 82.5 C0.33 61.2, 0.06 39.96, 0 27.5 M0 27.5 C-1.46 8.59, 9.21 -1.92, 27.5 0 M0 27.5 C1.62 8.58, 7.53 -1.64, 27.5 0" stroke="#1971c2" stroke-width="1" fill="none"></path></g><g transform="translate(861.8569639299735 1578.779016803481) rotate(0 114.08988952636719 50)"><text x="114.08988952636719" y="0" font-family="Virgil, Segoe UI Emoji" font-size="20px" fill="#1971c2" text-anchor="middle" style="white-space: pre;" direction="ltr" dominant-baseline="text-before-edge">use QuinCheckRoot and</text><text x="114.08988952636719" y="25" font-family="Virgil, Segoe UI Emoji" font-size="20px" fill="#1971c2" text-anchor="middle" style="white-space: pre;" direction="ltr" dominant-baseline="text-before-edge">pass all items in </text><text x="114.08988952636719" y="50" font-family="Virgil, Segoe UI Emoji" font-size="20px" fill="#1971c2" text-anchor="middle" style="white-space: pre;" direction="ltr" dominant-baseline="text-before-edge">currentPerVOSpentVoice</text><text x="114.08988952636719" y="75" font-family="Virgil, Segoe UI Emoji" font-size="20px" fill="#1971c2" text-anchor="middle" style="white-space: pre;" direction="ltr" dominant-baseline="text-before-edge">Credits</text></g><g stroke-linecap="round" transform="translate(1129.6904353683462 1572.2656922756616) rotate(0 122.9928091939671 55)"><path d="M27.5 0 C73.54 1.74, 121.84 2.87, 218.49 0 M27.5 0 C87.46 -0.18, 147.12 -0.77, 218.49 0 M218.49 0 C238.66 -0.72, 244.77 7.92, 245.99 27.5 M218.49 0 C235.12 -1.59, 244.7 9.28, 245.99 27.5 M245.99 27.5 C245.24 40, 247.77 53.74, 245.99 82.5 M245.99 27.5 C246.25 48.7, 247.09 68.03, 245.99 82.5 M245.99 82.5 C246.54 99.28, 237.35 110.02, 218.49 110 M245.99 82.5 C244.21 102.53, 237.42 111.23, 218.49 110 M218.49 110 C147.09 110.92, 74.42 111.49, 27.5 110 M218.49 110 C176.62 108.53, 134.86 107.69, 27.5 110 M27.5 110 C7.31 108.64, 1.39 100.34, 0 82.5 M27.5 110 C7.74 109.06, -0.66 100.1, 0 82.5 M0 82.5 C1.27 68.56, 0.33 56.24, 0 27.5 M0 82.5 C-0.67 65.8, 0.09 48.71, 0 27.5 M0 27.5 C1.41 8.66, 7.75 -1.43, 27.5 0 M0 27.5 C1.5 8.72, 7.16 0.25, 27.5 0" stroke="#1971c2" stroke-width="1" fill="none"></path></g><g transform="translate(1140.0033434392667 1589.7656922756616) rotate(0 112.67990112304688 37.5)"><text x="112.67990112304688" y="0" font-family="Virgil, Segoe UI Emoji" font-size="20px" fill="#1971c2" text-anchor="middle" style="white-space: pre;" direction="ltr" dominant-baseline="text-before-edge">hash the root of this </text><text x="112.67990112304688" y="25" font-family="Virgil, Segoe UI Emoji" font-size="20px" fill="#1971c2" text-anchor="middle" style="white-space: pre;" direction="ltr" dominant-baseline="text-before-edge">tree with the perVO </text><text x="112.67990112304688" y="50" font-family="Virgil, Segoe UI Emoji" font-size="20px" fill="#1971c2" text-anchor="middle" style="white-space: pre;" direction="ltr" dominant-baseline="text-before-edge">salt</text></g><g stroke-linecap="round"><g transform="translate(723.7552007764552 1618.77903026627) rotate(0 46.673890329224264 0.5273788440053977)"><path d="M-0.71 -0.17 C15 0.22, 77.83 2.05, 93.7 2.21 M1.11 -1.31 C16.75 -1.21, 77.4 0.15, 92.93 0.69" stroke="#1e1e1e" stroke-width="1" fill="none"></path></g><g transform="translate(723.7552007764552 1618.77903026627) rotate(0 46.673890329224264 0.5273788440053977)"><path d="M64.47 10.17 C71.38 8.53, 80.79 7.43, 92.93 0.69 M64.47 10.17 C71.45 7.3, 79.49 4.85, 92.93 0.69" stroke="#1e1e1e" stroke-width="1" fill="none"></path></g><g transform="translate(723.7552007764552 1618.77903026627) rotate(0 46.673890329224264 0.5273788440053977)"><path d="M65.03 -10.34 C71.78 -6.8, 81.04 -2.72, 92.93 0.69 M65.03 -10.34 C71.8 -7.55, 79.68 -4.35, 92.93 0.69" stroke="#1e1e1e" stroke-width="1" fill="none"></path></g></g><mask></mask></svg>