<svg version="1.1" xmlns="http://www.w3.org/2000/svg" viewBox="0 0 1427.3766250075003 411.5604845778562" width="4282.1298750225005" height="1234.6814537335686">
  <!-- svg-source:excalidraw -->
  
  <defs>
    <style class="style-fonts">
      @font-face {
        font-family: "Virgil";
        src: url("https://excalidraw.com/Virgil.woff2");
      }
      @font-face {
        font-family: "Cascadia";
        src: url("https://excalidraw.com/Cascadia.woff2");
      }
      @font-face {
        font-family: "Assistant";
        src: url("https://excalidraw.com/Assistant-Regular.woff2");
      }
    </style>
    
  </defs>
  <rect x="0" y="0" width="1427.3766250075003" height="411.5604845778562" fill="#ffffff"></rect><g stroke-linecap="round" transform="translate(294.40926691448794 170.81402033509562) rotate(0 129.27623258310302 33.800522136203085)"><path d="M16.9 0 C99.78 1.66, 184.71 1.7, 241.65 0 M16.9 0 C64.33 0.18, 111.71 0.53, 241.65 0 M241.65 0 C254.06 0.57, 258.51 6.13, 258.55 16.9 M241.65 0 C255.18 1.11, 258.99 4.59, 258.55 16.9 M258.55 16.9 C259.09 29.5, 259.61 38.17, 258.55 50.7 M258.55 16.9 C258.26 30.76, 259.11 43.58, 258.55 50.7 M258.55 50.7 C258.05 63.26, 252.9 67.46, 241.65 67.6 M258.55 50.7 C260.36 62.99, 254.55 69.45, 241.65 67.6 M241.65 67.6 C194.67 70.41, 149.05 69.02, 16.9 67.6 M241.65 67.6 C163.96 67.17, 87.42 67.91, 16.9 67.6 M16.9 67.6 C4.92 66.7, 0.69 63.1, 0 50.7 M16.9 67.6 C4.29 69.71, -0.84 63.25, 0 50.7 M0 50.7 C1.8 38.9, 1.05 27.55, 0 16.9 M0 50.7 C0.24 43.88, -0.02 35.02, 0 16.9 M0 16.9 C-0.1 5.63, 4.26 -1.51, 16.9 0 M0 16.9 C-1.98 6.02, 4.78 0.81, 16.9 0" stroke="#1971c2" stroke-width="1" fill="none"></path></g><g transform="translate(313.0656035625324 192.1145424712986) rotate(0 110.6198959350586 12.5)"><text x="110.6198959350586" y="0" font-family="Virgil, Segoe UI Emoji" font-size="20px" fill="#e03131" text-anchor="middle" style="white-space: pre;" direction="ltr" dominant-baseline="text-before-edge">TallyVotesInputHasher</text></g><g stroke-linecap="round" transform="translate(10 10) rotate(0 110.05757116156974 32.17741655087593)"><path d="M16.09 0 C86.77 -2.57, 160.04 -2.34, 204.03 0 M16.09 0 C57.66 1.05, 98.07 1.01, 204.03 0 M204.03 0 C216.72 0.97, 220.49 4.45, 220.12 16.09 M204.03 0 C215.35 0.13, 219.87 5.95, 220.12 16.09 M220.12 16.09 C222.07 30.23, 219.53 39.25, 220.12 48.27 M220.12 16.09 C219.94 28.63, 220.18 39.81, 220.12 48.27 M220.12 48.27 C221.68 59.88, 216.17 65.96, 204.03 64.35 M220.12 48.27 C217.96 57.95, 216.69 63.58, 204.03 64.35 M204.03 64.35 C135.53 64.67, 65.52 62.74, 16.09 64.35 M204.03 64.35 C161.17 64.13, 119.37 65.15, 16.09 64.35 M16.09 64.35 C4.19 66.18, -0.73 60.1, 0 48.27 M16.09 64.35 C5.73 64.87, 1.13 61.15, 0 48.27 M0 48.27 C-1.57 40.07, 0.35 32.92, 0 16.09 M0 48.27 C-0.02 35.48, -0.66 21.95, 0 16.09 M0 16.09 C-1.72 5.7, 4.62 0.7, 16.09 0 M0 16.09 C0.02 5.38, 4.23 1.1, 16.09 0" stroke="#1971c2" stroke-width="1" fill="none"></path></g><g transform="translate(54.94763921576896 29.677416550875932) rotate(0 65.10993194580078 12.5)"><text x="65.10993194580078" y="0" font-family="Virgil, Segoe UI Emoji" font-size="20px" fill="#1971c2" text-anchor="middle" style="white-space: pre;" direction="ltr" dominant-baseline="text-before-edge">sbCommitment</text></g><g stroke-linecap="round"><g transform="translate(385.0214741061509 97.43477122007062) rotate(0 1.5956212533027951 21.722771252156463)"><path d="M-0.19 -0.45 C0.32 6.8, 2.17 35.88, 2.78 43.22 M0.71 0.51 C1.41 7.85, 3.37 36.79, 3.81 43.81" stroke="#1e1e1e" stroke-width="1" fill="none"></path></g><g transform="translate(385.0214741061509 97.43477122007062) rotate(0 1.5956212533027951 21.722771252156463)"><path d="M-4.97 23.87 C-3.6 28.21, -0.96 34.59, 3.81 43.81 M-4.97 23.87 C-1.6 30.65, 0.89 36.74, 3.81 43.81" stroke="#1e1e1e" stroke-width="1" fill="none"></path></g><g transform="translate(385.0214741061509 97.43477122007062) rotate(0 1.5956212533027951 21.722771252156463)"><path d="M9.9 22.89 C7.48 27.46, 6.35 34.08, 3.81 43.81 M9.9 22.89 C8.39 30.02, 5.99 36.42, 3.81 43.81" stroke="#1e1e1e" stroke-width="1" fill="none"></path></g></g><mask></mask><g transform="translate(471.2704292368853 125.75873117477454) rotate(0 31.809967041015625 12.5)"><text x="0" y="0" font-family="Virgil, Segoe UI Emoji" font-size="20px" fill="#1e1e1e" text-anchor="start" style="white-space: pre;" direction="ltr" dominant-baseline="text-before-edge">Inputs</text></g><g transform="translate(482.5566653488877 274.70738765460897) rotate(0 40.27995300292969 12.5)"><text x="0" y="0" font-family="Virgil, Segoe UI Emoji" font-size="20px" fill="#1e1e1e" text-anchor="start" style="white-space: pre;" direction="ltr" dominant-baseline="text-before-edge">Outputs</text></g><g stroke-linecap="round"><g transform="translate(421.57579823026026 273.4370338845199) rotate(0 0.2229014099474398 20.511057519056408)"><path d="M0.1 -0.25 C0.11 6.55, 0.54 34.15, 0.59 41.05 M-0.51 0.81 C-0.6 7.68, 0.15 34.93, 0.23 41.77" stroke="#1e1e1e" stroke-width="1" fill="none"></path></g><g transform="translate(421.57579823026026 273.4370338845199) rotate(0 0.2229014099474398 20.511057519056408)"><path d="M-7.18 22.64 C-4.63 30.51, -1.17 37.77, 0.23 41.77 M-7.18 22.64 C-4.88 29.3, -1.79 34.9, 0.23 41.77" stroke="#1e1e1e" stroke-width="1" fill="none"></path></g><g transform="translate(421.57579823026026 273.4370338845199) rotate(0 0.2229014099474398 20.511057519056408)"><path d="M6.85 22.35 C3.81 30.35, 1.68 37.72, 0.23 41.77 M6.85 22.35 C4.58 29.14, 3.1 34.83, 0.23 41.77" stroke="#1e1e1e" stroke-width="1" fill="none"></path></g></g><mask></mask><g stroke-linecap="round" transform="translate(325.01614578217686 337.2056514761043) rotate(0 110.05757116156974 32.17741655087593)"><path d="M16.09 0 C76.14 -0.7, 136.48 1.09, 204.03 0 M16.09 0 C83.23 -2.05, 147.81 -0.98, 204.03 0 M204.03 0 C215.21 0.71, 219.62 6.65, 220.12 16.09 M204.03 0 C214.73 -0.16, 221.92 6.39, 220.12 16.09 M220.12 16.09 C219.47 29.71, 219.7 41.33, 220.12 48.27 M220.12 16.09 C220.35 26.26, 219.38 35.48, 220.12 48.27 M220.12 48.27 C220 59.24, 214.04 63.45, 204.03 64.35 M220.12 48.27 C220.91 60.3, 213.4 66.46, 204.03 64.35 M204.03 64.35 C154.96 65.64, 106.88 63.54, 16.09 64.35 M204.03 64.35 C136.89 63.32, 70.28 64.02, 16.09 64.35 M16.09 64.35 C5.2 64.15, -0.1 58.98, 0 48.27 M16.09 64.35 C3.78 62.62, -1.98 59.38, 0 48.27 M0 48.27 C-0.1 38.82, 0.84 30, 0 16.09 M0 48.27 C-0.5 39.8, -0.3 29.42, 0 16.09 M0 16.09 C1.9 6.97, 3.57 -1.71, 16.09 0 M0 16.09 C0.88 5.93, 7.43 -0.7, 16.09 0" stroke="#1971c2" stroke-width="1" fill="none"></path></g><g transform="translate(384.403772180563 356.88306802698025) rotate(0 50.669944763183594 12.5)"><text x="50.669944763183594" y="0" font-family="Virgil, Segoe UI Emoji" font-size="20px" fill="#2f9e44" text-anchor="middle" style="white-space: pre;" direction="ltr" dominant-baseline="text-before-edge">numSignups</text></g><g stroke-linecap="round" transform="translate(255.71407860060526 14.325375601543328) rotate(0 110.05757116156974 32.17741655087593)"><path d="M16.09 0 C60.38 1.04, 107.75 2.08, 204.03 0 M16.09 0 C90.89 -1.11, 164.19 0.08, 204.03 0 M204.03 0 C214.75 0.63, 221.02 4.92, 220.12 16.09 M204.03 0 C215.19 0.85, 219.98 5.94, 220.12 16.09 M220.12 16.09 C221.24 28.95, 220.01 41.79, 220.12 48.27 M220.12 16.09 C220.46 27.98, 219.37 38.96, 220.12 48.27 M220.12 48.27 C219.34 57.27, 215.32 65.1, 204.03 64.35 M220.12 48.27 C222.29 60.17, 215.63 62.52, 204.03 64.35 M204.03 64.35 C159.11 65.96, 114.63 65.98, 16.09 64.35 M204.03 64.35 C159.74 63.55, 114.79 64.74, 16.09 64.35 M16.09 64.35 C6.82 62.55, 1.24 58.97, 0 48.27 M16.09 64.35 C5.58 62.49, -1.75 59.21, 0 48.27 M0 48.27 C0.4 36.43, 0.19 24.87, 0 16.09 M0 48.27 C0.95 41.34, -0.63 33.52, 0 16.09 M0 16.09 C1.77 5.99, 7.19 -2, 16.09 0 M0 16.09 C-1.3 3.32, 5.45 -2.14, 16.09 0" stroke="#1971c2" stroke-width="1" fill="none"></path></g><g transform="translate(261.74175016500703 21.50279215241926) rotate(0 104.02989959716797 25)"><text x="104.02989959716797" y="0" font-family="Virgil, Segoe UI Emoji" font-size="20px" fill="#1971c2" text-anchor="middle" style="white-space: pre;" direction="ltr" dominant-baseline="text-before-edge">currentTallyCommitme</text><text x="104.02989959716797" y="25" font-family="Virgil, Segoe UI Emoji" font-size="20px" fill="#1971c2" text-anchor="middle" style="white-space: pre;" direction="ltr" dominant-baseline="text-before-edge">nt</text></g><g stroke-linecap="round" transform="translate(508.00472555008196 14.286553692389589) rotate(0 110.05757116156974 32.17741655087593)"><path d="M16.09 0 C64.81 0.95, 111.26 -2.57, 204.03 0 M16.09 0 C73.5 1.31, 128.51 1.15, 204.03 0 M204.03 0 C214.84 1.93, 218.78 3.62, 220.12 16.09 M204.03 0 C212.75 -1.93, 221.12 7.46, 220.12 16.09 M220.12 16.09 C221.85 24.3, 220.23 34.73, 220.12 48.27 M220.12 16.09 C220.32 21.85, 219.73 29.09, 220.12 48.27 M220.12 48.27 C220.93 58.02, 214.78 64.23, 204.03 64.35 M220.12 48.27 C221.77 59.25, 213.29 64.55, 204.03 64.35 M204.03 64.35 C163.08 64.06, 123.4 64.58, 16.09 64.35 M204.03 64.35 C161.14 66.29, 116.43 65.85, 16.09 64.35 M16.09 64.35 C7 66.02, -1.17 57.12, 0 48.27 M16.09 64.35 C3.48 63.1, -2.21 57.91, 0 48.27 M0 48.27 C0.04 37.17, 0.57 29.68, 0 16.09 M0 48.27 C-0.52 39.34, -0.26 28.68, 0 16.09 M0 16.09 C1.65 5.62, 6.43 1.87, 16.09 0 M0 16.09 C0.88 5.21, 6.72 0.89, 16.09 0" stroke="#1971c2" stroke-width="1" fill="none"></path></g><g transform="translate(522.572382771222 33.96397024326552) rotate(0 95.48991394042969 12.5)"><text x="95.48991394042969" y="0" font-family="Virgil, Segoe UI Emoji" font-size="20px" fill="#1971c2" text-anchor="middle" style="white-space: pre;" direction="ltr" dominant-baseline="text-before-edge">newTallyCommitment</text></g><g stroke-linecap="round" transform="translate(752.5762828962881 14.985348057145302) rotate(0 110.05757116156974 32.17741655087593)"><path d="M16.09 0 C81.91 -0.55, 151.62 -0.51, 204.03 0 M16.09 0 C72.92 0.72, 129.25 2.01, 204.03 0 M204.03 0 C215.9 0.44, 219.38 3.37, 220.12 16.09 M204.03 0 C216.94 -0.29, 218.4 3.6, 220.12 16.09 M220.12 16.09 C219.28 22.8, 220.99 31.71, 220.12 48.27 M220.12 16.09 C219.79 23.93, 220.58 32.2, 220.12 48.27 M220.12 48.27 C219.48 59.2, 214.69 65.59, 204.03 64.35 M220.12 48.27 C219.86 56.88, 216.45 66.36, 204.03 64.35 M204.03 64.35 C159.53 62.83, 117.88 65.24, 16.09 64.35 M204.03 64.35 C159.91 65.08, 116.09 65.35, 16.09 64.35 M16.09 64.35 C7.08 65.44, 0.53 59.08, 0 48.27 M16.09 64.35 C3.23 63.14, 0.86 57.74, 0 48.27 M0 48.27 C-0.9 39.28, -1.03 31.38, 0 16.09 M0 48.27 C-0.01 39.95, 0.8 30.47, 0 16.09 M0 16.09 C-0.12 5.59, 6.91 -0.8, 16.09 0 M0 16.09 C-0.95 3.52, 4.17 0.19, 16.09 0" stroke="#1971c2" stroke-width="1" fill="none"></path></g><g transform="translate(810.0838967824673 34.662764608021234) rotate(0 52.549957275390625 12.5)"><text x="52.549957275390625" y="0" font-family="Virgil, Segoe UI Emoji" font-size="20px" fill="#1971c2" text-anchor="middle" style="white-space: pre;" direction="ltr" dominant-baseline="text-before-edge">packedVals</text></g><g stroke-linecap="round" transform="translate(563.3269904098835 342.18670710146375) rotate(0 110.05757116156974 17.5)"><path d="M8.75 0 C79.99 -0.19, 151.85 -1.64, 211.37 0 M8.75 0 C52.2 -2.57, 93.28 -1.6, 211.37 0 M211.37 0 C217.56 0.58, 218.73 3.98, 220.12 8.75 M211.37 0 C217.23 -1.93, 218.68 1.6, 220.12 8.75 M220.12 8.75 C221.37 11.44, 221.23 15.44, 220.12 26.25 M220.12 8.75 C220.86 13.96, 221 19.2, 220.12 26.25 M220.12 26.25 C221.26 32.53, 216.86 36.54, 211.37 35 M220.12 26.25 C218.47 32.21, 219.18 36.22, 211.37 35 M211.37 35 C153.56 35.9, 94.85 33.87, 8.75 35 M211.37 35 C134.26 36.56, 56.11 37.63, 8.75 35 M8.75 35 C2.22 35.46, -1.88 33.66, 0 26.25 M8.75 35 C2.37 34.93, 1.76 33.66, 0 26.25 M0 26.25 C1.17 20.01, -0.69 14.38, 0 8.75 M0 26.25 C-0.1 21.56, -0.5 17.24, 0 8.75 M0 8.75 C1.52 3.41, 4.47 1.49, 8.75 0 M0 8.75 C-2.09 3.72, 0.64 1.72, 8.75 0" stroke="#1971c2" stroke-width="1" fill="none"></path></g><g transform="translate(609.4946155875665 347.18670710146375) rotate(0 63.88994598388672 12.5)"><text x="63.88994598388672" y="0" font-family="Virgil, Segoe UI Emoji" font-size="20px" fill="#2f9e44" text-anchor="middle" style="white-space: pre;" direction="ltr" dominant-baseline="text-before-edge">batch number</text></g><g stroke-linecap="round" transform="translate(92.05212273505936 342.2376202745236) rotate(0 110.05757116156974 17.5)"><path d="M8.75 0 C87.8 1.47, 163.73 0.03, 211.37 0 M8.75 0 C80.33 1.32, 150.99 1.31, 211.37 0 M211.37 0 C217.29 1.89, 220.21 2.84, 220.12 8.75 M211.37 0 C216.45 0.06, 218.98 2.15, 220.12 8.75 M220.12 8.75 C220.91 15.34, 218.88 23.68, 220.12 26.25 M220.12 8.75 C219.53 13.76, 220.44 19.44, 220.12 26.25 M220.12 26.25 C221.21 32.93, 217.95 36.33, 211.37 35 M220.12 26.25 C217.92 33.43, 218.98 36.82, 211.37 35 M211.37 35 C143.51 34.44, 74.02 35, 8.75 35 M211.37 35 C131.56 34.14, 53.58 33.46, 8.75 35 M8.75 35 C1.81 36.98, 0.7 33.6, 0 26.25 M8.75 35 C2.1 34.43, 1.06 31.74, 0 26.25 M0 26.25 C-1.28 20.9, 0.87 17.15, 0 8.75 M0 26.25 C0.47 22.37, 0.55 16.2, 0 8.75 M0 8.75 C0.54 4.14, 4.21 0.3, 8.75 0 M0 8.75 C0.91 2.34, 2.54 1.86, 8.75 0" stroke="#1971c2" stroke-width="1" fill="none"></path></g><g transform="translate(180.1297134278791 347.2376202745236) rotate(0 21.97998046875 12.5)"><text x="21.97998046875" y="0" font-family="Virgil, Segoe UI Emoji" font-size="20px" fill="#2f9e44" text-anchor="middle" style="white-space: pre;" direction="ltr" dominant-baseline="text-before-edge">hash</text></g><g stroke-linecap="round"><g transform="translate(606.8514310658963 201.4631287988518) rotate(0 108.38376029738589 0.46191284466056004)"><path d="M-0.42 0.96 C35.67 1.31, 181.12 1.18, 217.48 1.01 M1.56 0.41 C37.47 1.07, 180.92 2.54, 216.9 2.59" stroke="#1e1e1e" stroke-width="1" fill="none"></path></g><g transform="translate(606.8514310658963 201.4631287988518) rotate(0 108.38376029738589 0.46191284466056004)"><path d="M188.64 12.66 C201.01 10.14, 210.23 6.76, 216.9 2.59 M188.64 12.66 C193.78 10.58, 200.29 7.76, 216.9 2.59" stroke="#1e1e1e" stroke-width="1" fill="none"></path></g><g transform="translate(606.8514310658963 201.4631287988518) rotate(0 108.38376029738589 0.46191284466056004)"><path d="M188.78 -7.86 C200.9 -2.63, 210.07 1.74, 216.9 2.59 M188.78 -7.86 C194.06 -5.54, 200.54 -3.95, 216.9 2.59" stroke="#1e1e1e" stroke-width="1" fill="none"></path></g></g><mask></mask><g transform="translate(647.8887406336343 152.29703720881002) rotate(0 49.669944763183594 12.5)"><text x="0" y="0" font-family="Virgil, Segoe UI Emoji" font-size="20px" fill="#1e1e1e" text-anchor="start" style="white-space: pre;" direction="ltr" dominant-baseline="text-before-edge">Processing</text></g><g stroke-linecap="round" transform="translate(873.2506181933747 135.39589617130173) rotate(0 110.05757116156975 32.17741655087593)"><path d="M16.09 0 C69.91 -0.36, 126.96 1.49, 204.03 0 M16.09 0 C76.52 0.69, 138.16 1.75, 204.03 0 M204.03 0 C212.84 1.26, 220.18 5.55, 220.12 16.09 M204.03 0 C214.27 -1.92, 219.03 6.84, 220.12 16.09 M220.12 16.09 C218.73 24.3, 219.14 30.28, 220.12 48.27 M220.12 16.09 C219.84 22.62, 219.46 29.44, 220.12 48.27 M220.12 48.27 C220.27 59.69, 216.28 64.82, 204.03 64.35 M220.12 48.27 C220.07 57.73, 213.17 64.63, 204.03 64.35 M204.03 64.35 C164.42 65.36, 118.95 63, 16.09 64.35 M204.03 64.35 C163.91 63.61, 123.64 64.68, 16.09 64.35 M16.09 64.35 C4.39 65.03, 0.66 58.29, 0 48.27 M16.09 64.35 C5.4 65.89, -0.42 59.1, 0 48.27 M0 48.27 C-1.25 36.7, -0.65 24.39, 0 16.09 M0 48.27 C0.76 38.98, 0.3 30.29, 0 16.09 M0 16.09 C-0.76 6.29, 7.14 -1.24, 16.09 0 M0 16.09 C-2.19 4.06, 3.73 0.09, 16.09 0" stroke="#1971c2" stroke-width="1" fill="none"></path></g><g transform="translate(913.4982299433234 142.57331272217766) rotate(0 69.8099594116211 25)"><text x="69.8099594116211" y="0" font-family="Virgil, Segoe UI Emoji" font-size="20px" fill="#1971c2" text-anchor="middle" style="white-space: pre;" direction="ltr" dominant-baseline="text-before-edge">1. Unpack the </text><text x="69.8099594116211" y="25" font-family="Virgil, Segoe UI Emoji" font-size="20px" fill="#1971c2" text-anchor="middle" style="white-space: pre;" direction="ltr" dominant-baseline="text-before-edge">packedVals</text></g><g stroke-linecap="round" transform="translate(1197.2614826843608 127.38203983283643) rotate(0 110.05757116156975 42.5)"><path d="M21.25 0 C64.53 0.17, 106.94 0.19, 198.87 0 M21.25 0 C68.49 2.26, 113.63 1.15, 198.87 0 M198.87 0 C213.23 0.92, 220.91 8.77, 220.12 21.25 M198.87 0 C211.95 -1.96, 221.12 6.78, 220.12 21.25 M220.12 21.25 C222.05 31.3, 218.74 42.89, 220.12 63.75 M220.12 21.25 C220.36 31.1, 219.29 38.99, 220.12 63.75 M220.12 63.75 C218.4 76.7, 213.33 86.17, 198.87 85 M220.12 63.75 C221.91 79.9, 211.07 84.48, 198.87 85 M198.87 85 C153.86 86.97, 106.49 85.76, 21.25 85 M198.87 85 C133.45 83.57, 67.27 84.39, 21.25 85 M21.25 85 C6.38 84.97, -1.65 78.78, 0 63.75 M21.25 85 C5.47 84.28, -0.99 79.2, 0 63.75 M0 63.75 C0.57 52.07, -1.38 43.61, 0 21.25 M0 63.75 C-0.28 53.53, -0.75 43.56, 0 21.25 M0 21.25 C-0.42 6.67, 7.26 -1.84, 21.25 0 M0 21.25 C0.51 9.08, 8.17 1, 21.25 0" stroke="#1971c2" stroke-width="1" fill="none"></path></g><g transform="translate(1215.6791307502274 132.38203983283643) rotate(0 91.63992309570312 37.5)"><text x="91.63992309570312" y="0" font-family="Virgil, Segoe UI Emoji" font-size="20px" fill="#1971c2" text-anchor="middle" style="white-space: pre;" direction="ltr" dominant-baseline="text-before-edge">This is the batch </text><text x="91.63992309570312" y="25" font-family="Virgil, Segoe UI Emoji" font-size="20px" fill="#1971c2" text-anchor="middle" style="white-space: pre;" direction="ltr" dominant-baseline="text-before-edge">number and the </text><text x="91.63992309570312" y="50" font-family="Virgil, Segoe UI Emoji" font-size="20px" fill="#1971c2" text-anchor="middle" style="white-space: pre;" direction="ltr" dominant-baseline="text-before-edge">number of signups</text></g><g stroke-linecap="round"><g transform="translate(1130.2937187664036 169.30603841698075) rotate(0 15.46634491356258 -0.1900694001952843)"><path d="M-0.07 0.17 C5.19 0.05, 26.11 -0.5, 31.19 -0.62 M-0.77 -0.22 C4.47 -0.28, 25.52 -0.07, 30.9 -0.05" stroke="#1e1e1e" stroke-width="1" fill="none"></path></g><g transform="translate(1130.2937187664036 169.30603841698075) rotate(0 15.46634491356258 -0.1900694001952843)"><path d="M16.32 5.14 C19.95 4.31, 22.76 2.04, 30.9 -0.05 M16.32 5.14 C19.85 3.96, 24.36 2.39, 30.9 -0.05" stroke="#1e1e1e" stroke-width="1" fill="none"></path></g><g transform="translate(1130.2937187664036 169.30603841698075) rotate(0 15.46634491356258 -0.1900694001952843)"><path d="M16.4 -5.44 C20.02 -3.81, 22.81 -3.62, 30.9 -0.05 M16.4 -5.44 C19.92 -3.79, 24.42 -2.51, 30.9 -0.05" stroke="#1e1e1e" stroke-width="1" fill="none"></path></g></g><mask></mask><g stroke-linecap="round" transform="translate(879.0411045714163 236.61006188457782) rotate(0 110.05757116156975 42.5)"><path d="M21.25 0 C80.8 -1.58, 141.7 1.88, 198.87 0 M21.25 0 C81.86 -0.19, 142.17 -0.44, 198.87 0 M198.87 0 C214.69 -1.18, 219.23 8.42, 220.12 21.25 M198.87 0 C212.25 -0.37, 221.97 5, 220.12 21.25 M220.12 21.25 C220.31 34.37, 219.64 51.44, 220.12 63.75 M220.12 21.25 C220.13 30.02, 219.41 40.7, 220.12 63.75 M220.12 63.75 C219.07 78.71, 212.5 84.35, 198.87 85 M220.12 63.75 C218.97 78.36, 213.75 85.72, 198.87 85 M198.87 85 C146.42 85.37, 91.73 84.8, 21.25 85 M198.87 85 C138.39 85.47, 77.61 84.54, 21.25 85 M21.25 85 C5.73 86.3, 1.92 76.55, 0 63.75 M21.25 85 C6.49 82.87, -1.67 77.34, 0 63.75 M0 63.75 C0.68 53.06, 1.61 44.11, 0 21.25 M0 63.75 C-0.01 54.14, -0.16 43.44, 0 21.25 M0 21.25 C1.96 5.74, 5.69 -0.07, 21.25 0 M0 21.25 C-1.59 5.14, 6.84 1.11, 21.25 0" stroke="#1971c2" stroke-width="1" fill="none"></path></g><g transform="translate(888.33876514949 241.61006188457782) rotate(0 100.7599105834961 37.5)"><text x="100.7599105834961" y="0" font-family="Virgil, Segoe UI Emoji" font-size="20px" fill="#1971c2" text-anchor="middle" style="white-space: pre;" direction="ltr" dominant-baseline="text-before-edge">2. Use a sha256 </text><text x="100.7599105834961" y="25" font-family="Virgil, Segoe UI Emoji" font-size="20px" fill="#1971c2" text-anchor="middle" style="white-space: pre;" direction="ltr" dominant-baseline="text-before-edge">hasher component to</text><text x="100.7599105834961" y="50" font-family="Virgil, Segoe UI Emoji" font-size="20px" fill="#1971c2" text-anchor="middle" style="white-space: pre;" direction="ltr" dominant-baseline="text-before-edge">hash the values</text></g><g stroke-linecap="round" transform="translate(1185.605366211921 247.09786764752926) rotate(0 110.05757116156975 67.5)"><path d="M32 0 C82.93 -0.7, 133.23 0.52, 188.12 0 M32 0 C81.9 -0.78, 132.53 -0.09, 188.12 0 M188.12 0 C210.13 1.64, 218.13 11.64, 220.12 32 M188.12 0 C207.87 -1.37, 220.01 12.2, 220.12 32 M220.12 32 C220.45 56.23, 221.67 82.42, 220.12 103 M220.12 32 C219.33 57.42, 218.57 82.82, 220.12 103 M220.12 103 C221.76 126.09, 209.05 135.51, 188.12 135 M220.12 103 C221.7 124.48, 209.04 135.69, 188.12 135 M188.12 135 C139.62 132.61, 86.85 134.07, 32 135 M188.12 135 C145.38 133.47, 103.52 133.85, 32 135 M32 135 C11.22 133.48, -0.33 125.54, 0 103 M32 135 C9.9 132.7, 2.2 123.47, 0 103 M0 103 C-1.96 80.89, 0.29 58.73, 0 32 M0 103 C-0.13 81.88, -0.38 60.8, 0 32 M0 32 C-0.85 10.48, 12.61 -0.57, 32 0 M0 32 C-1.16 12.23, 9.31 1.09, 32 0" stroke="#1971c2" stroke-width="1" fill="none"></path></g><g transform="translate(1191.6330377763227 252.09786764752926) rotate(0 104.02989959716797 62.5)"><text x="104.02989959716797" y="0" font-family="Virgil, Segoe UI Emoji" font-size="20px" fill="#1971c2" text-anchor="middle" style="white-space: pre;" direction="ltr" dominant-baseline="text-before-edge">inputs: packedValues,</text><text x="104.02989959716797" y="25" font-family="Virgil, Segoe UI Emoji" font-size="20px" fill="#1971c2" text-anchor="middle" style="white-space: pre;" direction="ltr" dominant-baseline="text-before-edge">sbCommitment, </text><text x="104.02989959716797" y="50" font-family="Virgil, Segoe UI Emoji" font-size="20px" fill="#1971c2" text-anchor="middle" style="white-space: pre;" direction="ltr" dominant-baseline="text-before-edge">currentTallyCommitme</text><text x="104.02989959716797" y="75" font-family="Virgil, Segoe UI Emoji" font-size="20px" fill="#1971c2" text-anchor="middle" style="white-space: pre;" direction="ltr" dominant-baseline="text-before-edge">nt, </text><text x="104.02989959716797" y="100" font-family="Virgil, Segoe UI Emoji" font-size="20px" fill="#1971c2" text-anchor="middle" style="white-space: pre;" direction="ltr" dominant-baseline="text-before-edge">newTallyCommitment</text></g><g stroke-linecap="round"><g transform="translate(1128.8686996605634 281.27010371267875) rotate(0 15.46634491356258 -0.1900694001952843)"><path d="M-0.45 0.03 C4.72 0.06, 25.75 0.06, 31.07 -0.05 M0.33 -0.42 C5.43 -0.53, 25.53 -0.89, 30.7 -0.85" stroke="#1e1e1e" stroke-width="1" fill="none"></path></g><g transform="translate(1128.8686996605634 281.27010371267875) rotate(0 15.46634491356258 -0.1900694001952843)"><path d="M16.2 4.53 C20.75 3.12, 25.66 1.99, 30.7 -0.85 M16.2 4.53 C20.28 3.17, 23.3 2.04, 30.7 -0.85" stroke="#1e1e1e" stroke-width="1" fill="none"></path></g><g transform="translate(1128.8686996605634 281.27010371267875) rotate(0 15.46634491356258 -0.1900694001952843)"><path d="M16.14 -6.05 C20.68 -4.19, 25.61 -2.04, 30.7 -0.85 M16.14 -6.05 C20.27 -4.68, 23.3 -3.08, 30.7 -0.85" stroke="#1e1e1e" stroke-width="1" fill="none"></path></g></g><mask></mask></svg>