<svg version="1.1" xmlns="http://www.w3.org/2000/svg" viewBox="0 0 2356.812079552763 1576.2790403060596" width="7070.436238658289" height="4728.837120918179">
  <!-- svg-source:excalidraw -->
  
  <defs>
    <style class="style-fonts">
      @font-face {
        font-family: "Virgil";
        src: url("https://excalidraw.com/Virgil.woff2");
      }
      @font-face {
        font-family: "Cascadia";
        src: url("https://excalidraw.com/Cascadia.woff2");
      }
      @font-face {
        font-family: "Assistant";
        src: url("https://excalidraw.com/Assistant-Regular.woff2");
      }
    </style>
    
  </defs>
  <rect x="0" y="0" width="2356.812079552763" height="1576.2790403060596" fill="#ffffff"></rect><g stroke-linecap="round" transform="translate(517.8468497956186 613.8964685925898) rotate(0 114.33810379333892 33.80052213620303)"><path d="M16.9 0 C73.19 -3.23, 130.79 -3.18, 211.78 0 M16.9 0 C92.83 0.63, 168.82 1.51, 211.78 0 M211.78 0 C222.82 1.28, 228.34 5.6, 228.68 16.9 M211.78 0 C224.67 0.71, 228.57 3.62, 228.68 16.9 M228.68 16.9 C228.23 26.67, 226.62 37.71, 228.68 50.7 M228.68 16.9 C228.23 25.45, 228.92 32.06, 228.68 50.7 M228.68 50.7 C229.05 63.1, 224.1 66.43, 211.78 67.6 M228.68 50.7 C230 61.15, 221.81 68.99, 211.78 67.6 M211.78 67.6 C166.79 69.94, 125 67.32, 16.9 67.6 M211.78 67.6 C166.5 68.08, 120.87 67.35, 16.9 67.6 M16.9 67.6 C5.93 68.32, 0.16 61.92, 0 50.7 M16.9 67.6 C3.93 65.55, -0.59 60.24, 0 50.7 M0 50.7 C-0.89 42.31, 0.73 38.02, 0 16.9 M0 50.7 C0.6 43.19, 0.56 33.53, 0 16.9 M0 16.9 C1.08 5.82, 5.22 -1.27, 16.9 0 M0 16.9 C-2.25 5.92, 4.31 -1.67, 16.9 0" stroke="#1971c2" stroke-width="1" fill="none"></path></g><g transform="translate(538.7950381226489 635.196990728793) rotate(0 93.38991546630854 12.5)"><text x="93.3899154663086" y="0" font-family="Virgil, Segoe UI Emoji" font-size="20px" fill="#e03131" text-anchor="middle" style="white-space: pre;" direction="ltr" dominant-baseline="text-before-edge">Tally Votes Circuit</text></g><g stroke-linecap="round" transform="translate(274.8151306253857 96.12987726788646) rotate(0 70.68038597279167 30.528358897653305)"><path d="M15.26 0 C48.98 -1.4, 83.99 -2.3, 126.1 0 M15.26 0 C47.32 -1.17, 78.38 -0.57, 126.1 0 M126.1 0 C137.99 1.09, 143.33 3.62, 141.36 15.26 M126.1 0 C134.68 -0.75, 139.2 4.28, 141.36 15.26 M141.36 15.26 C139.62 23.34, 142.52 33.63, 141.36 45.79 M141.36 15.26 C141.01 25.61, 141.77 37.12, 141.36 45.79 M141.36 45.79 C142.7 56.52, 135.6 61.53, 126.1 61.06 M141.36 45.79 C141.33 55.8, 134.2 61.54, 126.1 61.06 M126.1 61.06 C93.91 62.22, 63.14 61.16, 15.26 61.06 M126.1 61.06 C91.71 59.65, 58.86 60.74, 15.26 61.06 M15.26 61.06 C4.66 61.69, -0.69 56.3, 0 45.79 M15.26 61.06 C4.76 60.28, 0.8 57.96, 0 45.79 M0 45.79 C-0.82 35.21, 1.73 24.7, 0 15.26 M0 45.79 C-0.84 36.03, 0.86 24.06, 0 15.26 M0 15.26 C-1.27 6.49, 3.31 1.37, 15.26 0 M0 15.26 C0.36 3.93, 5.64 -0.88, 15.26 0" stroke="#1971c2" stroke-width="1" fill="none"></path></g><g transform="translate(293.11556512112645 114.15823616553979) rotate(0 52.37995147705078 12.5)"><text x="52.37995147705078" y="0" font-family="Virgil, Segoe UI Emoji" font-size="20px" fill="#1971c2" text-anchor="middle" style="white-space: pre;" direction="ltr" dominant-baseline="text-before-edge">stateRoot</text></g><g stroke-linecap="round" transform="translate(30.841281830089997 10) rotate(0 70.68038597279167 30.528358897653305)"><path d="M15.26 0 C48.59 -1.03, 84.37 1.94, 126.1 0 M15.26 0 C44.96 -1.62, 72.54 -1.18, 126.1 0 M126.1 0 C136.52 -0.65, 139.61 4.39, 141.36 15.26 M126.1 0 C135.37 -0.36, 143.09 5.71, 141.36 15.26 M141.36 15.26 C140.49 23.26, 139.65 32.67, 141.36 45.79 M141.36 15.26 C142.03 21.57, 141.94 28.2, 141.36 45.79 M141.36 45.79 C141.9 55.03, 137.29 61.93, 126.1 61.06 M141.36 45.79 C139.28 55.73, 136 59.85, 126.1 61.06 M126.1 61.06 C97.88 62.65, 73.62 60.66, 15.26 61.06 M126.1 61.06 C84.19 61.58, 44.66 61.9, 15.26 61.06 M15.26 61.06 C4.06 59.69, 0.27 55.95, 0 45.79 M15.26 61.06 C6.66 60.16, -0.19 54.83, 0 45.79 M0 45.79 C1.33 39.12, 1.55 33.95, 0 15.26 M0 45.79 C-0.48 37.91, 0.36 29.61, 0 15.26 M0 15.26 C0.82 3.86, 6.23 0.61, 15.26 0 M0 15.26 C2.2 5.15, 6.42 1.98, 15.26 0" stroke="#1971c2" stroke-width="1" fill="none"></path></g><g transform="translate(49.81171449477608 28.028358897653277) rotate(0 51.70995330810547 12.5)"><text x="51.70995330810547" y="0" font-family="Virgil, Segoe UI Emoji" font-size="20px" fill="#1971c2" text-anchor="middle" style="white-space: pre;" direction="ltr" dominant-baseline="text-before-edge">ballotRoot</text></g><g stroke-linecap="round" transform="translate(198.1205343879002 10.664576425954493) rotate(0 85.38362342154988 30.33022431103332)"><path d="M15.17 0 C45.98 0.14, 79.02 0.25, 155.6 0 M15.17 0 C63.84 1.2, 113.18 0.89, 155.6 0 M155.6 0 C167.59 -0.54, 170.58 3.32, 170.77 15.17 M155.6 0 C166.54 -0.78, 172.74 5.17, 170.77 15.17 M170.77 15.17 C171.55 23.62, 172.09 31.79, 170.77 45.5 M170.77 15.17 C170.66 22.85, 171.12 30.35, 170.77 45.5 M170.77 45.5 C170.42 53.68, 166.08 61.24, 155.6 60.66 M170.77 45.5 C172.23 54.11, 167.91 60.12, 155.6 60.66 M155.6 60.66 C122.55 61.6, 87.3 60.56, 15.17 60.66 M155.6 60.66 C113.52 60.53, 69.27 61.04, 15.17 60.66 M15.17 60.66 C6.02 59.4, 1.48 53.85, 0 45.5 M15.17 60.66 C5.76 62.4, 0.94 55.43, 0 45.5 M0 45.5 C0.29 36.94, 1.16 23.72, 0 15.17 M0 45.5 C0.5 37.99, -0.72 30.6, 0 15.17 M0 15.17 C1.12 5.33, 3.16 -0.24, 15.17 0 M0 15.17 C0.23 5.22, 4.11 1.71, 15.17 0" stroke="#1971c2" stroke-width="1" fill="none"></path></g><g transform="translate(207.3242185394305 15.99480073698777) rotate(0 76.17993927001953 25)"><text x="76.17993927001953" y="0" font-family="Virgil, Segoe UI Emoji" font-size="20px" fill="#1971c2" text-anchor="middle" style="white-space: pre;" direction="ltr" dominant-baseline="text-before-edge">stateAndBallot</text><text x="76.17993927001953" y="25" font-family="Virgil, Segoe UI Emoji" font-size="20px" fill="#1971c2" text-anchor="middle" style="white-space: pre;" direction="ltr" dominant-baseline="text-before-edge">Salt</text></g><g stroke-linecap="round" transform="translate(386.1956629330326 15.362017250403198) rotate(0 85.38362342154988 30.330224311033334)"><path d="M15.17 0 C55.85 -0.75, 95.26 -0.43, 155.6 0 M15.17 0 C69.82 2.02, 123.89 0.85, 155.6 0 M155.6 0 C163.92 -1.81, 171.61 4.83, 170.77 15.17 M155.6 0 C163.95 -2.21, 170.59 3.82, 170.77 15.17 M170.77 15.17 C169.54 25.36, 171.24 36.89, 170.77 45.5 M170.77 15.17 C169.84 23.57, 170.11 32.37, 170.77 45.5 M170.77 45.5 C169.19 57.42, 167.12 60.43, 155.6 60.66 M170.77 45.5 C168.48 55.19, 163.43 62.57, 155.6 60.66 M155.6 60.66 C100.69 62.71, 46.09 59.35, 15.17 60.66 M155.6 60.66 C105.74 61.78, 54.4 61.42, 15.17 60.66 M15.17 60.66 C3.64 60.83, -1.19 53.7, 0 45.5 M15.17 60.66 C4.15 62.59, 1.29 55.6, 0 45.5 M0 45.5 C-0.29 39.5, 1.06 31.85, 0 15.17 M0 45.5 C0.85 37.67, -0.56 30.39, 0 15.17 M0 15.17 C-1.11 4.23, 4.37 0.76, 15.17 0 M0 15.17 C0.64 4.04, 5.18 0.68, 15.17 0" stroke="#1971c2" stroke-width="1" fill="none"></path></g><g transform="translate(419.0293290791918 33.19224156143656) rotate(0 52.549957275390625 12.5)"><text x="52.549957275390625" y="0" font-family="Virgil, Segoe UI Emoji" font-size="20px" fill="#1971c2" text-anchor="middle" style="white-space: pre;" direction="ltr" dominant-baseline="text-before-edge">packedVals</text></g><g stroke-linecap="round" transform="translate(580.0951227640153 18.387697500245793) rotate(0 85.38362342154983 30.330224311033334)"><path d="M15.17 0 C50.01 1.75, 90.78 0.04, 155.6 0 M15.17 0 C48.06 -0.12, 82.42 0.3, 155.6 0 M155.6 0 C164.5 1.59, 172.4 5.01, 170.77 15.17 M155.6 0 C167.77 -0.6, 172.25 5.18, 170.77 15.17 M170.77 15.17 C170.44 23.72, 171.68 32.98, 170.77 45.5 M170.77 15.17 C170.76 21.46, 170.99 27.08, 170.77 45.5 M170.77 45.5 C170.26 56.35, 164.21 60.42, 155.6 60.66 M170.77 45.5 C168.69 57.34, 167.31 61.32, 155.6 60.66 M155.6 60.66 C107.81 58.13, 64.83 61.6, 15.17 60.66 M155.6 60.66 C105.03 61.67, 54.03 61.34, 15.17 60.66 M15.17 60.66 C3.49 59.87, 1.07 55.87, 0 45.5 M15.17 60.66 C6.15 59.41, 0.25 54.27, 0 45.5 M0 45.5 C-0.82 34.75, 0.85 25.1, 0 15.17 M0 45.5 C0.32 35.25, -0.58 26.2, 0 15.17 M0 15.17 C0.99 6.89, 3.59 0.67, 15.17 0 M0 15.17 C1.45 2.84, 4.07 -0.85, 15.17 0" stroke="#1971c2" stroke-width="1" fill="none"></path></g><g transform="translate(587.5988252260922 23.717921811279155) rotate(0 77.87992095947266 25)"><text x="77.87992095947266" y="0" font-family="Virgil, Segoe UI Emoji" font-size="20px" fill="#1971c2" text-anchor="middle" style="white-space: pre;" direction="ltr" dominant-baseline="text-before-edge">stateAndBallot</text><text x="77.87992095947266" y="25" font-family="Virgil, Segoe UI Emoji" font-size="20px" fill="#1971c2" text-anchor="middle" style="white-space: pre;" direction="ltr" dominant-baseline="text-before-edge">TreeCommitment</text></g><g stroke-linecap="round" transform="translate(779.4763061581511 22.61044087758421) rotate(0 123.65868497225415 26.666798360507585)"><path d="M13.33 0 C58.01 1.16, 104.07 0.7, 233.98 0 M13.33 0 C79.02 1.66, 146.9 0.86, 233.98 0 M233.98 0 C244.23 0.84, 245.8 3.28, 247.32 13.33 M233.98 0 C244.38 -0.7, 246.29 3.15, 247.32 13.33 M247.32 13.33 C245.54 22.73, 247.08 29.48, 247.32 40 M247.32 13.33 C248.09 20.99, 248.04 29.59, 247.32 40 M247.32 40 C246.48 50.49, 243.07 55.27, 233.98 53.33 M247.32 40 C247.34 51.18, 245.14 51.19, 233.98 53.33 M233.98 53.33 C153.2 52.76, 74.18 50.34, 13.33 53.33 M233.98 53.33 C158.27 53.13, 84.61 53.27, 13.33 53.33 M13.33 53.33 C5.16 51.69, 0.8 47.65, 0 40 M13.33 53.33 C6.6 54.44, 2.06 48.79, 0 40 M0 40 C0.71 31.71, 0.43 21.16, 0 13.33 M0 40 C-0.38 31.7, -1.02 21.36, 0 13.33 M0 13.33 C1.89 4.01, 2.89 -1.17, 13.33 0 M0 13.33 C-2.17 5.69, 4.12 0.47, 13.33 0" stroke="#1971c2" stroke-width="1" fill="none"></path></g><g transform="translate(788.7850994678074 36.777239238091795) rotate(0 114.34989166259766 12.5)"><text x="114.34989166259766" y="0" font-family="Virgil, Segoe UI Emoji" font-size="20px" fill="#1971c2" text-anchor="middle" style="white-space: pre;" direction="ltr" dominant-baseline="text-before-edge">currentTallyCommitment</text></g><g stroke-linecap="round" transform="translate(443.82186911028873 95.7860843006215) rotate(0 123.6586849722542 26.666798360507585)"><path d="M13.33 0 C83.1 2.31, 152.09 2.55, 233.98 0 M13.33 0 C86.72 0.11, 158.69 0.31, 233.98 0 M233.98 0 C242.39 1.65, 246.79 5.18, 247.32 13.33 M233.98 0 C241.56 0.3, 248.85 3.22, 247.32 13.33 M247.32 13.33 C245.61 21.82, 247.34 31.65, 247.32 40 M247.32 13.33 C247.95 22.23, 247.26 31.33, 247.32 40 M247.32 40 C249.09 49.32, 242.26 51.59, 233.98 53.33 M247.32 40 C247.45 49.58, 242.06 54.32, 233.98 53.33 M233.98 53.33 C158.33 54.46, 82.58 53.5, 13.33 53.33 M233.98 53.33 C179.37 51.55, 124.23 52.88, 13.33 53.33 M13.33 53.33 C3.58 54.55, 0.57 48.98, 0 40 M13.33 53.33 C4.76 52.79, 2.12 48.99, 0 40 M0 40 C-0.19 31.88, -1.26 19.71, 0 13.33 M0 40 C0.76 31.7, 0.48 23.35, 0 13.33 M0 13.33 C-0.36 5.2, 2.75 0.89, 13.33 0 M0 13.33 C-2.25 4.94, 5.93 1.77, 13.33 0" stroke="#1971c2" stroke-width="1" fill="none"></path></g><g transform="translate(471.9906401421132 109.95288266112908) rotate(0 95.48991394042963 12.5)"><text x="95.48991394042969" y="0" font-family="Virgil, Segoe UI Emoji" font-size="20px" fill="#1971c2" text-anchor="middle" style="white-space: pre;" direction="ltr" dominant-baseline="text-before-edge">newTallyCommitment</text></g><g stroke-linecap="round" transform="translate(736.600807174364 97.75711065710146) rotate(0 138.97283739642387 29.94840245140105)"><path d="M14.97 0 C114.23 -1.38, 212.47 0.75, 262.97 0 M14.97 0 C101.45 -1.81, 188.95 -1.89, 262.97 0 M262.97 0 C271.47 -0.37, 279.45 3.12, 277.95 14.97 M262.97 0 C274.65 -0.94, 280.2 3.21, 277.95 14.97 M277.95 14.97 C277.29 23.02, 277.09 30.57, 277.95 44.92 M277.95 14.97 C278.67 26.9, 276.83 36.99, 277.95 44.92 M277.95 44.92 C277.58 54.45, 271.64 60.67, 262.97 59.9 M277.95 44.92 C276.02 54.59, 272.51 59.48, 262.97 59.9 M262.97 59.9 C190.72 59.72, 120.04 59.96, 14.97 59.9 M262.97 59.9 C174.52 61.15, 87.39 61.05, 14.97 59.9 M14.97 59.9 C4.9 58.17, 0.93 54.95, 0 44.92 M14.97 59.9 C3.91 60.84, -0.77 54.88, 0 44.92 M0 44.92 C-0.99 34.19, -0.82 25.95, 0 14.97 M0 44.92 C1 37.9, -0.33 32.67, 0 14.97 M0 14.97 C1.21 5.55, 5.31 0.81, 14.97 0 M0 14.97 C-1.38 4.59, 2.78 -0.99, 14.97 0" stroke="#1971c2" stroke-width="1" fill="none"></path></g><g transform="translate(763.7237605375849 115.20551310850243) rotate(0 111.84988403320312 12.5)"><text x="111.84988403320312" y="0" font-family="Virgil, Segoe UI Emoji" font-size="20px" fill="#1971c2" text-anchor="middle" style="white-space: pre;" direction="ltr" dominant-baseline="text-before-edge">inputHash (public input)</text></g><g stroke-linecap="round" transform="translate(10 269.61822553049905) rotate(0 70.68038597279167 30.528358897653277)"><path d="M15.26 0 C57.79 -0.95, 96.94 0.94, 126.1 0 M15.26 0 C40.34 -1.34, 63.68 -1, 126.1 0 M126.1 0 C138.16 -1.44, 140.17 5.34, 141.36 15.26 M126.1 0 C137.31 1.07, 142.83 4.62, 141.36 15.26 M141.36 15.26 C142.65 25.91, 141.39 34.44, 141.36 45.79 M141.36 15.26 C141.24 22.37, 140.64 27.8, 141.36 45.79 M141.36 45.79 C143.12 57.23, 135.16 60.01, 126.1 61.06 M141.36 45.79 C139.75 54.3, 133.98 59.27, 126.1 61.06 M126.1 61.06 C84.94 62.38, 40.74 61.07, 15.26 61.06 M126.1 61.06 C98.32 61.86, 68.64 62.15, 15.26 61.06 M15.26 61.06 C5 59.24, 1.73 57.35, 0 45.79 M15.26 61.06 C5.61 59.85, -0.25 54.97, 0 45.79 M0 45.79 C1.33 35.77, 1.09 25.46, 0 15.26 M0 45.79 C-0.59 34.95, 0.31 26.16, 0 15.26 M0 15.26 C-0.93 6.33, 4.2 0.54, 15.26 0 M0 15.26 C1.73 6.29, 6.32 1.46, 15.26 0" stroke="#1971c2" stroke-width="1" fill="none"></path></g><g transform="translate(42.050419236951825 275.14658442815227) rotate(0 38.629966735839844 25)"><text x="38.629966735839844" y="0" font-family="Virgil, Segoe UI Emoji" font-size="20px" fill="#1971c2" text-anchor="middle" style="white-space: pre;" direction="ltr" dominant-baseline="text-before-edge">ballots </text><text x="38.629966735839844" y="25" font-family="Virgil, Segoe UI Emoji" font-size="20px" fill="#1971c2" text-anchor="middle" style="white-space: pre;" direction="ltr" dominant-baseline="text-before-edge">(array)</text></g><g stroke-linecap="round" transform="translate(12.063901943958285 182.38947377105058) rotate(0 110.05757116156974 32.177416550875904)"><path d="M16.09 0 C83.18 1.32, 152.18 0.58, 204.03 0 M16.09 0 C79.57 0.71, 144.42 2.63, 204.03 0 M204.03 0 C215.49 0.2, 218.4 4.81, 220.12 16.09 M204.03 0 C214.79 -1.03, 221.51 3.92, 220.12 16.09 M220.12 16.09 C221.03 24.27, 218.87 35.08, 220.12 48.27 M220.12 16.09 C219.79 24.06, 219.06 33.52, 220.12 48.27 M220.12 48.27 C221.45 58.16, 213.02 64.67, 204.03 64.35 M220.12 48.27 C220.85 61.21, 215.51 62.89, 204.03 64.35 M204.03 64.35 C159.53 63.62, 111.39 61.97, 16.09 64.35 M204.03 64.35 C134.3 64.53, 62.81 64.19, 16.09 64.35 M16.09 64.35 C4.43 64.88, -1.6 60.09, 0 48.27 M16.09 64.35 C6.7 66.08, 1.09 56.84, 0 48.27 M0 48.27 C1.09 40.28, -0.58 29.95, 0 16.09 M0 48.27 C-0.85 36.58, 0.51 23.9, 0 16.09 M0 16.09 C-0.1 6.52, 4.2 1.88, 16.09 0 M0 16.09 C-1.46 4.52, 6.52 -0.02, 16.09 0" stroke="#1971c2" stroke-width="1" fill="none"></path></g><g transform="translate(27.661557944395213 202.0668903219265) rotate(0 94.45991516113281 12.5)"><text x="94.45991516113281" y="0" font-family="Virgil, Segoe UI Emoji" font-size="20px" fill="#1971c2" text-anchor="middle" style="white-space: pre;" direction="ltr" dominant-baseline="text-before-edge">ballotPathElements</text></g><g stroke-linecap="round" transform="translate(191.8132500471637 269.5274138449651) rotate(0 70.68038597279167 30.528358897653277)"><path d="M15.26 0 C47.83 -1.16, 85.47 -0.08, 126.1 0 M15.26 0 C56.88 -0.3, 99.45 -0.2, 126.1 0 M126.1 0 C136.08 0.8, 141.62 6.56, 141.36 15.26 M126.1 0 C136.45 1.14, 142.08 3.09, 141.36 15.26 M141.36 15.26 C139.82 27.87, 140.67 37.85, 141.36 45.79 M141.36 15.26 C140.71 24.08, 141.84 33.9, 141.36 45.79 M141.36 45.79 C140.58 54.26, 134.28 59.86, 126.1 61.06 M141.36 45.79 C143.45 53.92, 134.17 59.28, 126.1 61.06 M126.1 61.06 C86.47 62.45, 44.91 60.01, 15.26 61.06 M126.1 61.06 C87.53 61.72, 47.38 60.27, 15.26 61.06 M15.26 61.06 C6.95 61.87, 0.02 54.51, 0 45.79 M15.26 61.06 C4.89 61.8, 2.04 54.27, 0 45.79 M0 45.79 C-1.42 40.42, -0.76 32.1, 0 15.26 M0 45.79 C0.93 39.16, 0.61 31.88, 0 15.26 M0 15.26 C1.46 5.13, 5.56 0.1, 15.26 0 M0 15.26 C-1.16 5.36, 3.95 2.03, 15.26 0" stroke="#1971c2" stroke-width="1" fill="none"></path></g><g transform="translate(228.333662875424 275.05577274261833) rotate(0 34.15997314453125 25)"><text x="34.15997314453125" y="0" font-family="Virgil, Segoe UI Emoji" font-size="20px" fill="#1971c2" text-anchor="middle" style="white-space: pre;" direction="ltr" dominant-baseline="text-before-edge">votes </text><text x="34.15997314453125" y="25" font-family="Virgil, Segoe UI Emoji" font-size="20px" fill="#1971c2" text-anchor="middle" style="white-space: pre;" direction="ltr" dominant-baseline="text-before-edge">(array)</text></g><g stroke-linecap="round" transform="translate(23.202780735500482 96.60751727431688) rotate(0 110.05757116156974 32.177416550875904)"><path d="M16.09 0 C70.78 -0.01, 123.49 -1.25, 204.03 0 M16.09 0 C57.49 1.26, 97.94 0.87, 204.03 0 M204.03 0 C216.35 -1.48, 220.29 6.79, 220.12 16.09 M204.03 0 C215.25 0.57, 217.87 4.82, 220.12 16.09 M220.12 16.09 C219.53 28.87, 221.91 38.86, 220.12 48.27 M220.12 16.09 C220.92 25.05, 219.69 33.47, 220.12 48.27 M220.12 48.27 C221.29 58.04, 214.98 64.44, 204.03 64.35 M220.12 48.27 C220.71 59.67, 215.4 63.93, 204.03 64.35 M204.03 64.35 C139.43 63.73, 74.64 62.33, 16.09 64.35 M204.03 64.35 C135.19 64.21, 65.05 65.58, 16.09 64.35 M16.09 64.35 C4.03 64.05, 1.83 57.97, 0 48.27 M16.09 64.35 C4.38 66.31, 0.48 59.87, 0 48.27 M0 48.27 C1.05 37.43, 0.81 28.06, 0 16.09 M0 48.27 C0.18 41.54, -0.41 34.98, 0 16.09 M0 16.09 C1.1 6.76, 6.39 1.34, 16.09 0 M0 16.09 C0.25 4.87, 3.25 -0.73, 16.09 0" stroke="#1971c2" stroke-width="1" fill="none"></path></g><g transform="translate(61.10042452890616 116.28493382519275) rotate(0 72.15992736816406 12.5)"><text x="72.15992736816406" y="0" font-family="Virgil, Segoe UI Emoji" font-size="20px" fill="#1971c2" text-anchor="middle" style="white-space: pre;" direction="ltr" dominant-baseline="text-before-edge">currentResults</text></g><g stroke-linecap="round" transform="translate(266.99087835584 181.52057105264402) rotate(0 110.05757116156974 32.177416550875904)"><path d="M16.09 0 C65.89 -1.89, 116.14 -1, 204.03 0 M16.09 0 C68.97 0.33, 123.11 -0.1, 204.03 0 M204.03 0 C214.71 0.52, 222.09 6.43, 220.12 16.09 M204.03 0 C216.03 1.73, 222.11 4.66, 220.12 16.09 M220.12 16.09 C220.26 25.19, 219.24 32.17, 220.12 48.27 M220.12 16.09 C220.28 25.83, 219.81 35.62, 220.12 48.27 M220.12 48.27 C220.72 59.56, 215.91 64.52, 204.03 64.35 M220.12 48.27 C218.71 58.27, 214.81 66.25, 204.03 64.35 M204.03 64.35 C149.82 63.15, 94.3 61.63, 16.09 64.35 M204.03 64.35 C139.92 63.99, 75.03 64.9, 16.09 64.35 M16.09 64.35 C5.74 63.29, 1.05 57.65, 0 48.27 M16.09 64.35 C6.79 63.52, -2.1 59.77, 0 48.27 M0 48.27 C-1.89 37.49, -1.67 28.13, 0 16.09 M0 48.27 C0.84 39.12, 0.16 29.78, 0 16.09 M0 16.09 C1.78 4.74, 6.96 0.26, 16.09 0 M0 16.09 C0.76 4.25, 6.86 0.69, 16.09 0" stroke="#1971c2" stroke-width="1" fill="none"></path></g><g transform="translate(275.2985486995386 188.6979876035199) rotate(0 101.7499008178711 25)"><text x="101.7499008178711" y="0" font-family="Virgil, Segoe UI Emoji" font-size="20px" fill="#1971c2" text-anchor="middle" style="white-space: pre;" direction="ltr" dominant-baseline="text-before-edge">currentResultsRootS</text><text x="101.7499008178711" y="25" font-family="Virgil, Segoe UI Emoji" font-size="20px" fill="#1971c2" text-anchor="middle" style="white-space: pre;" direction="ltr" dominant-baseline="text-before-edge">alt</text></g><g stroke-linecap="round" transform="translate(780.0769016238432 175.80356266788) rotate(0 110.05757116156974 32.177416550875904)"><path d="M16.09 0 C79.37 0.34, 141.5 0.53, 204.03 0 M16.09 0 C65.96 0.48, 113.49 1.17, 204.03 0 M204.03 0 C214.37 1.73, 219.4 4.71, 220.12 16.09 M204.03 0 C216.32 -2.11, 222.25 5.8, 220.12 16.09 M220.12 16.09 C220.05 23.57, 217.81 32.69, 220.12 48.27 M220.12 16.09 C219.87 25.07, 220.57 34.21, 220.12 48.27 M220.12 48.27 C221.32 58.9, 214.11 63.5, 204.03 64.35 M220.12 48.27 C220.6 60.76, 216.03 65.08, 204.03 64.35 M204.03 64.35 C130.51 66.05, 58.6 63.28, 16.09 64.35 M204.03 64.35 C154.8 64.11, 106.38 63.69, 16.09 64.35 M16.09 64.35 C5.32 65.88, 1.71 57.22, 0 48.27 M16.09 64.35 C6.35 62.11, -0.84 59.55, 0 48.27 M0 48.27 C-1.33 35.09, 0.11 23.74, 0 16.09 M0 48.27 C0.51 39.91, -0.62 30.93, 0 16.09 M0 16.09 C1.57 5.29, 5.3 -0.66, 16.09 0 M0 16.09 C-1.16 3.15, 5.58 -2.12, 16.09 0" stroke="#1971c2" stroke-width="1" fill="none"></path></g><g transform="translate(788.6445741037724 182.98097921875592) rotate(0 101.48989868164062 25)"><text x="101.48989868164062" y="0" font-family="Virgil, Segoe UI Emoji" font-size="20px" fill="#1971c2" text-anchor="middle" style="white-space: pre;" direction="ltr" dominant-baseline="text-before-edge">currentSpentVoiceCre</text><text x="101.48989868164062" y="25" font-family="Virgil, Segoe UI Emoji" font-size="20px" fill="#1971c2" text-anchor="middle" style="white-space: pre;" direction="ltr" dominant-baseline="text-before-edge">ditSubtotal</text></g><g stroke-linecap="round" transform="translate(357.00796164157634 272.56240595327967) rotate(0 124.30262237876906 30)"><path d="M15 0 C68.9 0.06, 122.61 2.11, 233.61 0 M15 0 C68.93 -0.04, 124.5 -0.57, 233.61 0 M233.61 0 C245.22 1.25, 248.92 4.21, 248.61 15 M233.61 0 C241.83 -0.93, 247.41 5.58, 248.61 15 M248.61 15 C250.22 20.79, 249.96 27.07, 248.61 45 M248.61 15 C247.62 24.44, 248.39 32.21, 248.61 45 M248.61 45 C248.38 53.75, 244.14 58.13, 233.61 60 M248.61 45 C246.77 56.79, 243.14 60.55, 233.61 60 M233.61 60 C172.18 59.48, 111.85 60.04, 15 60 M233.61 60 C155.73 61.78, 79.42 61.99, 15 60 M15 60 C4.86 60.42, 0.92 53.1, 0 45 M15 60 C6.66 59.58, 1.68 53.93, 0 45 M0 45 C0.37 34.7, -1.4 28.01, 0 15 M0 45 C-0.46 33.79, -1.12 22.94, 0 15 M0 15 C-1.81 5.96, 5.09 1.64, 15 0 M0 15 C-1.53 5.71, 5.38 -1.21, 15 0" stroke="#1971c2" stroke-width="1" fill="none"></path></g><g transform="translate(366.29070181819714 277.56240595327967) rotate(0 115.0198822021485 25)"><text x="115.01988220214844" y="0" font-family="Virgil, Segoe UI Emoji" font-size="20px" fill="#1971c2" text-anchor="middle" style="white-space: pre;" direction="ltr" dominant-baseline="text-before-edge">currentSpentVoiceCredit</text><text x="115.01988220214844" y="25" font-family="Virgil, Segoe UI Emoji" font-size="20px" fill="#1971c2" text-anchor="middle" style="white-space: pre;" direction="ltr" dominant-baseline="text-before-edge">SubtotalSalt</text></g><g stroke-linecap="round" transform="translate(517.2472446685452 177.551816608284) rotate(0 110.0575711615698 32.177416550875904)"><path d="M16.09 0 C61.23 -0.09, 109.08 0.32, 204.03 0 M16.09 0 C70.33 1.35, 123.02 -0.02, 204.03 0 M204.03 0 C216.01 0.39, 220.61 3.63, 220.12 16.09 M204.03 0 C213.31 0.76, 218.23 4.35, 220.12 16.09 M220.12 16.09 C221.37 22.89, 220.15 28.56, 220.12 48.27 M220.12 16.09 C219.77 23.84, 220.02 32.9, 220.12 48.27 M220.12 48.27 C219.49 57.17, 215.81 64.34, 204.03 64.35 M220.12 48.27 C218.01 57.64, 216.31 62.45, 204.03 64.35 M204.03 64.35 C151.78 62.38, 95.8 62.45, 16.09 64.35 M204.03 64.35 C163.11 65.18, 121.36 66.7, 16.09 64.35 M16.09 64.35 C5.88 63.34, 1.21 58.66, 0 48.27 M16.09 64.35 C5.46 65.52, 0.79 58.08, 0 48.27 M0 48.27 C0.44 37.54, -0.86 27.51, 0 16.09 M0 48.27 C0.14 39.59, 0.81 29.88, 0 16.09 M0 16.09 C1.33 3.95, 5.84 1.39, 16.09 0 M0 16.09 C-1.04 3.55, 5.59 0.93, 16.09 0" stroke="#1971c2" stroke-width="1" fill="none"></path></g><g transform="translate(523.7049165381228 184.72923315915995) rotate(0 103.59989929199213 25)"><text x="103.59989929199219" y="0" font-family="Virgil, Segoe UI Emoji" font-size="20px" fill="#1971c2" text-anchor="middle" style="white-space: pre;" direction="ltr" dominant-baseline="text-before-edge">currentPerVOSpentVoi</text><text x="103.59989929199219" y="25" font-family="Virgil, Segoe UI Emoji" font-size="20px" fill="#1971c2" text-anchor="middle" style="white-space: pre;" direction="ltr" dominant-baseline="text-before-edge">ceCredits</text></g><g stroke-linecap="round" transform="translate(643.7355392059662 277.8686735514718) rotate(0 110.05757116156974 32.17741655087593)"><path d="M16.09 0 C72.42 1.09, 132.82 2.62, 204.03 0 M16.09 0 C87.57 2.27, 159.73 0.53, 204.03 0 M204.03 0 C216.08 -0.92, 218.48 6.01, 220.12 16.09 M204.03 0 C212.82 -2.26, 219.87 7.6, 220.12 16.09 M220.12 16.09 C221.13 30.26, 218.72 42.26, 220.12 48.27 M220.12 16.09 C219.42 27.31, 219.68 40.04, 220.12 48.27 M220.12 48.27 C221.7 58.5, 213.46 65.32, 204.03 64.35 M220.12 48.27 C218.78 60.79, 214.1 62.66, 204.03 64.35 M204.03 64.35 C163.89 66.3, 128.12 65.33, 16.09 64.35 M204.03 64.35 C139.81 63.51, 74.48 63.96, 16.09 64.35 M16.09 64.35 C4.99 63.02, 0.73 60.81, 0 48.27 M16.09 64.35 C7.01 63.6, 0.77 60.67, 0 48.27 M0 48.27 C0.5 41.89, 1.58 29.75, 0 16.09 M0 48.27 C-0.62 36.33, 0.48 24.43, 0 16.09 M0 16.09 C-1.19 3.74, 6.05 0.25, 16.09 0 M0 16.09 C1.73 5.92, 3.31 -1.52, 16.09 0" stroke="#1971c2" stroke-width="1" fill="none"></path></g><g transform="translate(650.1932110755438 285.0460901023477) rotate(0 103.59989929199219 25)"><text x="103.59989929199219" y="0" font-family="Virgil, Segoe UI Emoji" font-size="20px" fill="#1971c2" text-anchor="middle" style="white-space: pre;" direction="ltr" dominant-baseline="text-before-edge">currentPerVOSpentVoi</text><text x="103.59989929199219" y="25" font-family="Virgil, Segoe UI Emoji" font-size="20px" fill="#1971c2" text-anchor="middle" style="white-space: pre;" direction="ltr" dominant-baseline="text-before-edge">ceCreditsRootSalt</text></g><g stroke-linecap="round" transform="translate(266.6111203981519 366.3131925497832) rotate(0 110.05757116156974 32.17741655087593)"><path d="M16.09 0 C83.96 0.81, 156.53 -0.12, 204.03 0 M16.09 0 C88.61 -0.39, 160.94 -1.67, 204.03 0 M204.03 0 C214.24 -0.96, 219.67 4.83, 220.12 16.09 M204.03 0 C215.47 1.54, 220.87 6.46, 220.12 16.09 M220.12 16.09 C219.8 27.04, 221.71 41.22, 220.12 48.27 M220.12 16.09 C219.39 23.48, 220.34 31.46, 220.12 48.27 M220.12 48.27 C220.44 60.43, 214.44 64.12, 204.03 64.35 M220.12 48.27 C220.45 61, 216.18 66.24, 204.03 64.35 M204.03 64.35 C141.09 63.98, 79.78 64.58, 16.09 64.35 M204.03 64.35 C161.19 65.2, 120.25 66.06, 16.09 64.35 M16.09 64.35 C6.29 65.46, -0.15 58.31, 0 48.27 M16.09 64.35 C6.57 63.95, -0.88 57.68, 0 48.27 M0 48.27 C0.76 37.31, -1.83 25.81, 0 16.09 M0 48.27 C-0.46 39.27, -0.92 29.67, 0 16.09 M0 16.09 C-1.57 7.04, 3.41 1.28, 16.09 0 M0 16.09 C-1.62 7.52, 3.96 1.5, 16.09 0" stroke="#1971c2" stroke-width="1" fill="none"></path></g><g transform="translate(278.82877914517087 385.9906091006591) rotate(0 97.83991241455078 12.5)"><text x="97.83991241455078" y="0" font-family="Virgil, Segoe UI Emoji" font-size="20px" fill="#1971c2" text-anchor="middle" style="white-space: pre;" direction="ltr" dominant-baseline="text-before-edge">newResultsRootSalt</text></g><g stroke-linecap="round" transform="translate(13.593253284431626 365.0377011484165) rotate(0 110.05757116156974 32.17741655087593)"><path d="M16.09 0 C62.57 0.23, 108.35 -2.36, 204.03 0 M16.09 0 C85.33 -1.79, 155.08 -2.25, 204.03 0 M204.03 0 C215.58 -1.57, 221.79 3.41, 220.12 16.09 M204.03 0 C216.22 -1.62, 222.27 3.96, 220.12 16.09 M220.12 16.09 C219.34 26.15, 220.76 40.67, 220.12 48.27 M220.12 16.09 C219.5 23.64, 220.48 29.53, 220.12 48.27 M220.12 48.27 C219.9 57.03, 216.3 63.6, 204.03 64.35 M220.12 48.27 C219.65 59.53, 214.89 63.06, 204.03 64.35 M204.03 64.35 C159.48 61.28, 118.45 65.15, 16.09 64.35 M204.03 64.35 C153.03 63.85, 101.79 65.21, 16.09 64.35 M16.09 64.35 C6.8 63.63, 0.54 58.72, 0 48.27 M16.09 64.35 C5.03 64.93, 1.88 60.91, 0 48.27 M0 48.27 C-1.25 37.25, 1.75 23.64, 0 16.09 M0 48.27 C1.26 37.07, 1.22 25.03, 0 16.09 M0 16.09 C-1.78 5.7, 5.98 1.33, 16.09 0 M0 16.09 C1.45 4.22, 7.57 -1.42, 16.09 0" stroke="#1971c2" stroke-width="1" fill="none"></path></g><g transform="translate(21.980917829790428 372.2151176992924) rotate(0 101.66990661621094 25)"><text x="101.66990661621094" y="0" font-family="Virgil, Segoe UI Emoji" font-size="20px" fill="#1971c2" text-anchor="middle" style="white-space: pre;" direction="ltr" dominant-baseline="text-before-edge">newPerVOSpentVoiceC</text><text x="101.66990661621094" y="25" font-family="Virgil, Segoe UI Emoji" font-size="20px" fill="#1971c2" text-anchor="middle" style="white-space: pre;" direction="ltr" dominant-baseline="text-before-edge">reditsRootSalt</text></g><g stroke-linecap="round" transform="translate(536.9657638411214 357.1018915839049) rotate(0 110.0575711615698 32.17741655087593)"><path d="M16.09 0 C56.85 -0.66, 92.06 -0.56, 204.03 0 M16.09 0 C77.78 -0.22, 139.85 -1.67, 204.03 0 M204.03 0 C214.34 -1.28, 220.06 7.29, 220.12 16.09 M204.03 0 C216.77 -0.68, 220.46 6.32, 220.12 16.09 M220.12 16.09 C221.51 24.68, 219.77 36.4, 220.12 48.27 M220.12 16.09 C220.67 26.31, 219.88 36.25, 220.12 48.27 M220.12 48.27 C219.24 57.49, 215.44 66.04, 204.03 64.35 M220.12 48.27 C219.98 60.14, 213.63 64.56, 204.03 64.35 M204.03 64.35 C136.25 63.98, 73.13 65.62, 16.09 64.35 M204.03 64.35 C143.14 64.68, 81.74 64.59, 16.09 64.35 M16.09 64.35 C7.01 62.76, -0.83 57.28, 0 48.27 M16.09 64.35 C5.28 66.37, -0.34 58.03, 0 48.27 M0 48.27 C-0.93 39.81, 1.32 27.22, 0 16.09 M0 48.27 C0.63 37.12, -0.63 25.77, 0 16.09 M0 16.09 C1.96 4.84, 7.29 -0.61, 16.09 0 M0 16.09 C1.12 5.5, 6.25 1.44, 16.09 0" stroke="#1971c2" stroke-width="1" fill="none"></path></g><g transform="translate(544.7834363210505 364.2793081347808) rotate(0 102.23989868164057 25)"><text x="102.23989868164062" y="0" font-family="Virgil, Segoe UI Emoji" font-size="20px" fill="#1971c2" text-anchor="middle" style="white-space: pre;" direction="ltr" dominant-baseline="text-before-edge">newSpentVoiceCreditS</text><text x="102.23989868164062" y="25" font-family="Virgil, Segoe UI Emoji" font-size="20px" fill="#1971c2" text-anchor="middle" style="white-space: pre;" direction="ltr" dominant-baseline="text-before-edge">ubtotalSalt</text></g><g stroke-linecap="round"><g transform="translate(588.359957435367 475.5060823760983) rotate(0 -0.5737647404203017 40.173851339145926)"><path d="M-1.16 -0.97 C-1.45 12.37, -2.28 67.64, -2.11 81.17 M0.42 1.13 C0.55 14.65, 0.23 66.09, 0.1 79.47" stroke="#1e1e1e" stroke-width="1" fill="none"></path></g><g transform="translate(588.359957435367 475.5060823760983) rotate(0 -0.5737647404203017 40.173851339145926)"><path d="M-9.95 51.21 C-8.64 57.2, -2.99 68.02, 0.1 79.47 M-9.95 51.21 C-8.04 59.96, -4.11 67.97, 0.1 79.47" stroke="#1e1e1e" stroke-width="1" fill="none"></path></g><g transform="translate(588.359957435367 475.5060823760983) rotate(0 -0.5737647404203017 40.173851339145926)"><path d="M10.57 51.36 C6.44 57.11, 6.65 67.9, 0.1 79.47 M10.57 51.36 C6.58 60.09, 4.63 68.06, 0.1 79.47" stroke="#1e1e1e" stroke-width="1" fill="none"></path></g></g><mask></mask><g transform="translate(649.1512625237958 497.939590852403) rotate(0 31.809967041015625 12.5)"><text x="0" y="0" font-family="Virgil, Segoe UI Emoji" font-size="20px" fill="#1e1e1e" text-anchor="start" style="white-space: pre;" direction="ltr" dominant-baseline="text-before-edge">Inputs</text></g><g stroke-linecap="round"><g transform="translate(801.5081075393834 625.747776767402) rotate(0 115.11289570814108 -11.985195439505617)"><path d="M0.11 -0.41 C38.68 -4.43, 192.34 -19.1, 230.8 -23.08 M-1.29 -1.67 C37.22 -5.5, 191.52 -21.16, 230.16 -24.74" stroke="#1e1e1e" stroke-width="1" fill="none"></path></g><g transform="translate(801.5081075393834 625.747776767402) rotate(0 115.11289570814108 -11.985195439505617)"><path d="M203.1 -11.79 C209.09 -14.1, 218.05 -17.14, 230.16 -24.74 M203.1 -11.79 C209.76 -16.17, 217.05 -18.91, 230.16 -24.74" stroke="#1e1e1e" stroke-width="1" fill="none"></path></g><g transform="translate(801.5081075393834 625.747776767402) rotate(0 115.11289570814108 -11.985195439505617)"><path d="M201.11 -32.21 C207.77 -29.4, 217.23 -27.32, 230.16 -24.74 M201.11 -32.21 C208.47 -31.02, 216.3 -28.19, 230.16 -24.74" stroke="#1e1e1e" stroke-width="1" fill="none"></path></g></g><mask></mask><g stroke-linecap="round" transform="translate(1096.2624978809772 76.46031262266018) rotate(0 110.05757116156974 55)"><path d="M27.5 0 C71.87 0.7, 119.81 1.52, 192.62 0 M27.5 0 C63.96 -0.07, 100.75 1.17, 192.62 0 M192.62 0 C210.57 0.79, 218.33 10.53, 220.12 27.5 M192.62 0 C210.54 -0.4, 221.91 10.26, 220.12 27.5 M220.12 27.5 C221.06 44.18, 221.53 63.86, 220.12 82.5 M220.12 27.5 C220.89 38.59, 219.78 50.31, 220.12 82.5 M220.12 82.5 C221.73 98.92, 211.28 109.97, 192.62 110 M220.12 82.5 C218.56 100.92, 210.16 109.99, 192.62 110 M192.62 110 C142.79 106.57, 95.83 109.12, 27.5 110 M192.62 110 C151.49 108.18, 110.1 109.33, 27.5 110 M27.5 110 C7.49 110.18, 0.26 99.4, 0 82.5 M27.5 110 C8.98 108.7, -0.56 102.43, 0 82.5 M0 82.5 C0.51 70.82, -0.1 60.28, 0 27.5 M0 82.5 C-0.37 63.25, 1.49 44.2, 0 27.5 M0 27.5 C1.83 8.2, 8.43 0.1, 27.5 0 M0 27.5 C-0.15 7.75, 7.28 -1.77, 27.5 0" stroke="#1971c2" stroke-width="1" fill="none"></path></g><g transform="translate(1108.230141369207 81.46031262266018) rotate(0 98.08992767333984 50)"><text x="98.08992767333984" y="0" font-family="Virgil, Segoe UI Emoji" font-size="20px" fill="#1971c2" text-anchor="middle" style="white-space: pre;" direction="ltr" dominant-baseline="text-before-edge">1. verify state and </text><text x="98.08992767333984" y="25" font-family="Virgil, Segoe UI Emoji" font-size="20px" fill="#1971c2" text-anchor="middle" style="white-space: pre;" direction="ltr" dominant-baseline="text-before-edge">ballot root </text><text x="98.08992767333984" y="50" font-family="Virgil, Segoe UI Emoji" font-size="20px" fill="#1971c2" text-anchor="middle" style="white-space: pre;" direction="ltr" dominant-baseline="text-before-edge">commitment </text><text x="98.08992767333984" y="75" font-family="Virgil, Segoe UI Emoji" font-size="20px" fill="#1971c2" text-anchor="middle" style="white-space: pre;" direction="ltr" dominant-baseline="text-before-edge">(sbCommitment)</text></g><g transform="translate(835.4534528920151 506.9384420969274) rotate(0 49.669944763183594 12.5)"><text x="0" y="0" font-family="Virgil, Segoe UI Emoji" font-size="20px" fill="#1e1e1e" text-anchor="start" style="white-space: pre;" direction="ltr" dominant-baseline="text-before-edge">Processing</text></g><g stroke-linecap="round"><g transform="translate(1366.2235614810659 127.36016902964093) rotate(0 48.12942267452274 -2.753117326093104)"><path d="M0.08 -0.98 C16.29 -2.05, 80.11 -4.78, 96.26 -5.36 M-1.34 1.13 C14.8 0.78, 78.99 -2.51, 95.32 -3.74" stroke="#1e1e1e" stroke-width="1" fill="none"></path></g><g transform="translate(1366.2235614810659 127.36016902964093) rotate(0 48.12942267452274 -2.753117326093104)"><path d="M67.8 8.22 C71.96 5.64, 79.73 4.28, 95.32 -3.74 M67.8 8.22 C78.8 4.14, 88.86 -1.56, 95.32 -3.74" stroke="#1e1e1e" stroke-width="1" fill="none"></path></g><g transform="translate(1366.2235614810659 127.36016902964093) rotate(0 48.12942267452274 -2.753117326093104)"><path d="M66.55 -12.27 C71.17 -10.45, 79.2 -7.43, 95.32 -3.74 M66.55 -12.27 C78.1 -8.41, 88.64 -6.17, 95.32 -3.74" stroke="#1e1e1e" stroke-width="1" fill="none"></path></g></g><mask></mask><g stroke-linecap="round" transform="translate(1499.2707771967544 67.36178497729338) rotate(0 110.05757116156974 55)"><path d="M27.5 0 C59.7 0.2, 94.56 0.32, 192.62 0 M27.5 0 C86.46 1.22, 142.61 -0.23, 192.62 0 M192.62 0 C211.77 -1.81, 220.09 7.77, 220.12 27.5 M192.62 0 C212.95 1.09, 220.83 8.83, 220.12 27.5 M220.12 27.5 C218.78 39.55, 219.53 52.5, 220.12 82.5 M220.12 27.5 C220.29 43.63, 220.32 59.42, 220.12 82.5 M220.12 82.5 C219.15 101.57, 210.33 110.08, 192.62 110 M220.12 82.5 C218.55 102.79, 210.07 108.28, 192.62 110 M192.62 110 C135.66 110.83, 79.69 108.74, 27.5 110 M192.62 110 C144.32 111.37, 96.45 111.46, 27.5 110 M27.5 110 C7.54 110.36, -1.39 98.87, 0 82.5 M27.5 110 C9.48 109.47, -1.95 101.62, 0 82.5 M0 82.5 C-1.99 63.3, 1.26 45.36, 0 27.5 M0 82.5 C-0.5 65.71, 0.67 51.32, 0 27.5 M0 27.5 C0.02 7.68, 9.5 1.56, 27.5 0 M0 27.5 C-1.13 6.92, 6.96 1.3, 27.5 0" stroke="#1971c2" stroke-width="1" fill="none"></path></g><g transform="translate(1517.2284185487538 72.36178497729338) rotate(0 92.09992980957031 50)"><text x="92.09992980957031" y="0" font-family="Virgil, Segoe UI Emoji" font-size="20px" fill="#1971c2" text-anchor="middle" style="white-space: pre;" direction="ltr" dominant-baseline="text-before-edge">hash3( </text><text x="92.09992980957031" y="25" font-family="Virgil, Segoe UI Emoji" font-size="20px" fill="#1971c2" text-anchor="middle" style="white-space: pre;" direction="ltr" dominant-baseline="text-before-edge">stateTreeRoot, </text><text x="92.09992980957031" y="50" font-family="Virgil, Segoe UI Emoji" font-size="20px" fill="#1971c2" text-anchor="middle" style="white-space: pre;" direction="ltr" dominant-baseline="text-before-edge">ballotTreeRoot, </text><text x="92.09992980957031" y="75" font-family="Virgil, Segoe UI Emoji" font-size="20px" fill="#1971c2" text-anchor="middle" style="white-space: pre;" direction="ltr" dominant-baseline="text-before-edge">saltAndBallotSalt)</text></g><g stroke-linecap="round" transform="translate(1097.760053450706 204.98901120744205) rotate(0 110.05757116156974 55)"><path d="M27.5 0 C68.56 2.16, 109.73 1.07, 192.62 0 M27.5 0 C75.18 -0.25, 122.42 0.72, 192.62 0 M192.62 0 C209.6 0.37, 218.64 8.19, 220.12 27.5 M192.62 0 C212.75 0.76, 221.48 7.03, 220.12 27.5 M220.12 27.5 C220.23 45.71, 220.56 63.73, 220.12 82.5 M220.12 27.5 C219.89 39.32, 219.13 49.25, 220.12 82.5 M220.12 82.5 C221.28 99.88, 211.94 111.51, 192.62 110 M220.12 82.5 C219.05 101.88, 209.68 110.49, 192.62 110 M192.62 110 C147.6 108.21, 101.57 108.96, 27.5 110 M192.62 110 C159.66 108.68, 125.85 109.31, 27.5 110 M27.5 110 C9.29 111.28, -1.64 102.8, 0 82.5 M27.5 110 C8.65 111.62, 2.1 102.64, 0 82.5 M0 82.5 C-0.89 68.63, 1.63 58.49, 0 27.5 M0 82.5 C-0.24 63.41, -0.25 45.28, 0 27.5 M0 27.5 C-0.18 7.5, 10.71 0.22, 27.5 0 M0 27.5 C0.83 10.72, 9.94 1.03, 27.5 0" stroke="#1971c2" stroke-width="1" fill="none"></path></g><g transform="translate(1109.4077125029007 222.48901120744205) rotate(0 98.409912109375 37.5)"><text x="98.409912109375" y="0" font-family="Virgil, Segoe UI Emoji" font-size="20px" fill="#1971c2" text-anchor="middle" style="white-space: pre;" direction="ltr" dominant-baseline="text-before-edge">2. verify the </text><text x="98.409912109375" y="25" font-family="Virgil, Segoe UI Emoji" font-size="20px" fill="#1971c2" text-anchor="middle" style="white-space: pre;" direction="ltr" dominant-baseline="text-before-edge">inputHash (the only </text><text x="98.409912109375" y="50" font-family="Virgil, Segoe UI Emoji" font-size="20px" fill="#1971c2" text-anchor="middle" style="white-space: pre;" direction="ltr" dominant-baseline="text-before-edge">public input)</text></g><g stroke-linecap="round"><g transform="translate(1357.2002174657748 259.82410831179044) rotate(0 48.12942267452274 -2.753117326093104)"><path d="M0.39 -0.06 C16.33 -1.18, 80.61 -4.93, 96.67 -5.9 M-0.87 -1.14 C14.87 -2.15, 79.76 -3.96, 95.94 -4.57" stroke="#1e1e1e" stroke-width="1" fill="none"></path></g><g transform="translate(1357.2002174657748 259.82410831179044) rotate(0 48.12942267452274 -2.753117326093104)"><path d="M68.1 6.61 C78.57 2.94, 88.65 -1.2, 95.94 -4.57 M68.1 6.61 C75.64 3.54, 83.25 1.43, 95.94 -4.57" stroke="#1e1e1e" stroke-width="1" fill="none"></path></g><g transform="translate(1357.2002174657748 259.82410831179044) rotate(0 48.12942267452274 -2.753117326093104)"><path d="M67.43 -13.91 C78.29 -9.74, 88.63 -6.04, 95.94 -4.57 M67.43 -13.91 C75.34 -11.49, 83.13 -8.13, 95.94 -4.57" stroke="#1e1e1e" stroke-width="1" fill="none"></path></g></g><mask></mask><g stroke-linecap="round" transform="translate(1504.200404520639 215.99278313405415) rotate(0 110.05757116156974 55)"><path d="M27.5 0 C61.25 -0.49, 96.05 0.35, 192.62 0 M27.5 0 C86.67 1.74, 145.18 1.46, 192.62 0 M192.62 0 C210.42 -0.89, 220.95 7.96, 220.12 27.5 M192.62 0 C212.42 0.79, 220.27 7.8, 220.12 27.5 M220.12 27.5 C220.14 49.71, 220.45 69.04, 220.12 82.5 M220.12 27.5 C219.57 48.66, 220.31 69.48, 220.12 82.5 M220.12 82.5 C221.82 101.29, 212.49 108.55, 192.62 110 M220.12 82.5 C218.6 102.41, 208.83 109.57, 192.62 110 M192.62 110 C148.75 109.11, 100.62 108.72, 27.5 110 M192.62 110 C131.86 109.64, 73.51 109.87, 27.5 110 M27.5 110 C7.9 110.27, 1.37 100.73, 0 82.5 M27.5 110 C10.36 110.85, 1.16 99.29, 0 82.5 M0 82.5 C0 70.59, 0.05 55.77, 0 27.5 M0 82.5 C0.49 65.33, -0.39 49.35, 0 27.5 M0 27.5 C0.66 7.43, 8.85 -1.56, 27.5 0 M0 27.5 C1.29 10.47, 10.4 2.04, 27.5 0" stroke="#1971c2" stroke-width="1" fill="none"></path></g><g transform="translate(1513.408068760822 245.99278313405415) rotate(0 100.84990692138672 25)"><text x="100.84990692138672" y="0" font-family="Virgil, Segoe UI Emoji" font-size="20px" fill="#1971c2" text-anchor="middle" style="white-space: pre;" direction="ltr" dominant-baseline="text-before-edge">TallyVotesInputHash</text><text x="100.84990692138672" y="25" font-family="Virgil, Segoe UI Emoji" font-size="20px" fill="#1971c2" text-anchor="middle" style="white-space: pre;" direction="ltr" dominant-baseline="text-before-edge">er component</text></g><g stroke-linecap="round" transform="translate(1739.973908719644 211.9807796494078) rotate(0 110.05757116156974 80)"><path d="M32 0 C84.3 -1.39, 134.54 -0.7, 188.12 0 M32 0 C69.86 -1.07, 107.91 -1.08, 188.12 0 M188.12 0 C210.56 -1.77, 221.55 9.56, 220.12 32 M188.12 0 C210.68 1.84, 220.16 11.9, 220.12 32 M220.12 32 C220.59 64.2, 220.34 96.44, 220.12 128 M220.12 32 C220.04 63.63, 220 93.86, 220.12 128 M220.12 128 C219.58 149.84, 209.36 161.16, 188.12 160 M220.12 128 C221.66 150.26, 208.44 161.05, 188.12 160 M188.12 160 C140.33 159.68, 91.32 160.62, 32 160 M188.12 160 C155.27 160.9, 120.35 160.51, 32 160 M32 160 C9.1 159.05, 1.33 147.69, 0 128 M32 160 C12.69 160.87, -1.34 150.57, 0 128 M0 128 C1.02 108.05, -0.68 85.65, 0 32 M0 128 C-0.41 93.11, -1.08 58.61, 0 32 M0 32 C1.26 10.97, 9.16 -1.28, 32 0 M0 32 C-0.62 12.64, 12.38 2.29, 32 0" stroke="#1971c2" stroke-width="1" fill="none"></path></g><g transform="translate(1746.0015802840458 216.9807796494078) rotate(0 104.02989959716797 75)"><text x="104.02989959716797" y="0" font-family="Virgil, Segoe UI Emoji" font-size="20px" fill="#1971c2" text-anchor="middle" style="white-space: pre;" direction="ltr" dominant-baseline="text-before-edge">inputs: sbCommitment,</text><text x="104.02989959716797" y="25" font-family="Virgil, Segoe UI Emoji" font-size="20px" fill="#1971c2" text-anchor="middle" style="white-space: pre;" direction="ltr" dominant-baseline="text-before-edge">currentTallyCommitme</text><text x="104.02989959716797" y="50" font-family="Virgil, Segoe UI Emoji" font-size="20px" fill="#1971c2" text-anchor="middle" style="white-space: pre;" direction="ltr" dominant-baseline="text-before-edge">nt, </text><text x="104.02989959716797" y="75" font-family="Virgil, Segoe UI Emoji" font-size="20px" fill="#1971c2" text-anchor="middle" style="white-space: pre;" direction="ltr" dominant-baseline="text-before-edge">newTallyCommitment, </text><text x="104.02989959716797" y="100" font-family="Virgil, Segoe UI Emoji" font-size="20px" fill="#1971c2" text-anchor="middle" style="white-space: pre;" direction="ltr" dominant-baseline="text-before-edge">packedVals, </text><text x="104.02989959716797" y="125" font-family="Virgil, Segoe UI Emoji" font-size="20px" fill="#1971c2" text-anchor="middle" style="white-space: pre;" direction="ltr" dominant-baseline="text-before-edge">inputHash</text></g><g stroke-linecap="round" transform="translate(1101.4984640675095 345.5554682814606) rotate(0 110.05757116156974 55)"><path d="M27.5 0 C85.05 0.78, 137.15 0.04, 192.62 0 M27.5 0 C89.46 1.41, 153.04 1.04, 192.62 0 M192.62 0 C212.36 -1.66, 220.97 10.28, 220.12 27.5 M192.62 0 C211.98 0.91, 220.39 8.21, 220.12 27.5 M220.12 27.5 C219.02 41.02, 219.87 51.72, 220.12 82.5 M220.12 27.5 C220.34 44.29, 219.49 60.5, 220.12 82.5 M220.12 82.5 C220.15 99.47, 209.89 111.77, 192.62 110 M220.12 82.5 C217.88 99.29, 213.06 110.86, 192.62 110 M192.62 110 C148.41 112.37, 104.51 109.65, 27.5 110 M192.62 110 C141.29 110.43, 89.51 111.01, 27.5 110 M27.5 110 C7.46 108.52, 1.54 101.32, 0 82.5 M27.5 110 C10.06 109.28, 0.89 99.33, 0 82.5 M0 82.5 C-0.19 65.61, -0.58 44.02, 0 27.5 M0 82.5 C0.81 64.14, 0.31 43.62, 0 27.5 M0 27.5 C-1.97 11.04, 8.48 -1.48, 27.5 0 M0 27.5 C-1.48 7.25, 11.34 1.57, 27.5 0" stroke="#1971c2" stroke-width="1" fill="none"></path></g><g transform="translate(1107.8961078609152 350.5554682814606) rotate(0 103.65992736816406 50)"><text x="103.65992736816406" y="0" font-family="Virgil, Segoe UI Emoji" font-size="20px" fill="#1971c2" text-anchor="middle" style="white-space: pre;" direction="ltr" dominant-baseline="text-before-edge">3. Validate that the</text><text x="103.65992736816406" y="25" font-family="Virgil, Segoe UI Emoji" font-size="20px" fill="#1971c2" text-anchor="middle" style="white-space: pre;" direction="ltr" dominant-baseline="text-before-edge">batch start index is</text><text x="103.65992736816406" y="50" font-family="Virgil, Segoe UI Emoji" font-size="20px" fill="#1971c2" text-anchor="middle" style="white-space: pre;" direction="ltr" dominant-baseline="text-before-edge">&lt;= than the number </text><text x="103.65992736816406" y="75" font-family="Virgil, Segoe UI Emoji" font-size="20px" fill="#1971c2" text-anchor="middle" style="white-space: pre;" direction="ltr" dominant-baseline="text-before-edge">of signups</text></g><g stroke-linecap="round" transform="translate(1102.038228298699 497.7820786115755) rotate(0 110.05757116156974 55)"><path d="M27.5 0 C84.43 1.1, 142.52 0.4, 192.62 0 M27.5 0 C74.9 1.84, 124.83 1.09, 192.62 0 M192.62 0 C209 -1.59, 221.69 9.38, 220.12 27.5 M192.62 0 C210.27 0, 221.22 7.85, 220.12 27.5 M220.12 27.5 C219.7 47.28, 219.16 70.61, 220.12 82.5 M220.12 27.5 C220.59 45.34, 218.99 63.87, 220.12 82.5 M220.12 82.5 C219.93 99.5, 209.23 109.57, 192.62 110 M220.12 82.5 C221.6 99.41, 211.23 110.47, 192.62 110 M192.62 110 C141.66 110.55, 92.47 110.93, 27.5 110 M192.62 110 C130.31 108.88, 67.06 110.74, 27.5 110 M27.5 110 C7.67 108.04, -1.97 101.73, 0 82.5 M27.5 110 C7.71 108.83, 0.54 100.91, 0 82.5 M0 82.5 C-0.39 71.65, -0.88 60.9, 0 27.5 M0 82.5 C0.3 64.27, 0.44 48.17, 0 27.5 M0 27.5 C0.73 7.46, 7.31 1.61, 27.5 0 M0 27.5 C0.68 11.3, 10.15 1.17, 27.5 0" stroke="#1971c2" stroke-width="1" fill="none"></path></g><g transform="translate(1110.10587026105 502.7820786115755) rotate(0 101.98992919921875 50)"><text x="101.98992919921875" y="0" font-family="Virgil, Segoe UI Emoji" font-size="20px" fill="#1971c2" text-anchor="middle" style="white-space: pre;" direction="ltr" dominant-baseline="text-before-edge">4. Hash each ballot </text><text x="101.98992919921875" y="25" font-family="Virgil, Segoe UI Emoji" font-size="20px" fill="#1971c2" text-anchor="middle" style="white-space: pre;" direction="ltr" dominant-baseline="text-before-edge">and generate the </text><text x="101.98992919921875" y="50" font-family="Virgil, Segoe UI Emoji" font-size="20px" fill="#1971c2" text-anchor="middle" style="white-space: pre;" direction="ltr" dominant-baseline="text-before-edge">subroot of the </text><text x="101.98992919921875" y="75" font-family="Virgil, Segoe UI Emoji" font-size="20px" fill="#1971c2" text-anchor="middle" style="white-space: pre;" direction="ltr" dominant-baseline="text-before-edge">ballots</text></g><g stroke-linecap="round"><g transform="translate(1375.0863282646587 551.4086123164175) rotate(0 43.40186081131378 -0.3239300334945483)"><path d="M0.07 0.87 C14.62 0.92, 72.42 0.48, 86.89 0.11 M-1.36 0.28 C13.09 0.01, 71.4 -1.49, 85.98 -1.62" stroke="#1e1e1e" stroke-width="1" fill="none"></path></g><g transform="translate(1375.0863282646587 551.4086123164175) rotate(0 43.40186081131378 -0.3239300334945483)"><path d="M57.98 9.16 C66.8 6.45, 73.95 3.59, 85.98 -1.62 M57.98 9.16 C64.81 6.82, 71.87 3.15, 85.98 -1.62" stroke="#1e1e1e" stroke-width="1" fill="none"></path></g><g transform="translate(1375.0863282646587 551.4086123164175) rotate(0 43.40186081131378 -0.3239300334945483)"><path d="M57.61 -11.36 C66.49 -8.68, 73.74 -6.16, 85.98 -1.62 M57.61 -11.36 C64.38 -8.85, 71.53 -7.66, 85.98 -1.62" stroke="#1e1e1e" stroke-width="1" fill="none"></path></g></g><mask></mask><g stroke-linecap="round" transform="translate(1515.1122703148499 482.6796953086022) rotate(0 110.05757116156974 55)"><path d="M27.5 0 C90.6 -2.93, 155.71 0.59, 192.62 0 M27.5 0 C77.53 0.24, 127.25 0.74, 192.62 0 M192.62 0 C211.18 -1.44, 220.49 9.27, 220.12 27.5 M192.62 0 C210.35 2.29, 219.2 10.28, 220.12 27.5 M220.12 27.5 C221.92 42.26, 222.27 51.76, 220.12 82.5 M220.12 27.5 C220.35 47.43, 220.18 66.92, 220.12 82.5 M220.12 82.5 C221.16 99.38, 209.01 110.85, 192.62 110 M220.12 82.5 C219.17 98.77, 209.16 107.74, 192.62 110 M192.62 110 C155.47 108.22, 113.21 110.82, 27.5 110 M192.62 110 C155.07 110.82, 116.39 110.64, 27.5 110 M27.5 110 C9.84 111.38, -0.53 101.78, 0 82.5 M27.5 110 C9.22 108.56, -0.79 102.52, 0 82.5 M0 82.5 C-0.7 64.12, 0.42 48.3, 0 27.5 M0 82.5 C0.69 70.22, -1.02 58.72, 0 27.5 M0 27.5 C1.48 9.06, 10.23 -0.54, 27.5 0 M0 27.5 C1.7 10.44, 7.9 1.55, 27.5 0" stroke="#1971c2" stroke-width="1" fill="none"></path></g><g transform="translate(1524.1999241790563 487.6796953086022) rotate(0 100.96991729736328 50)"><text x="100.96991729736328" y="0" font-family="Virgil, Segoe UI Emoji" font-size="20px" fill="#1971c2" text-anchor="middle" style="white-space: pre;" direction="ltr" dominant-baseline="text-before-edge">Create one hasher </text><text x="100.96991729736328" y="25" font-family="Virgil, Segoe UI Emoji" font-size="20px" fill="#1971c2" text-anchor="middle" style="white-space: pre;" direction="ltr" dominant-baseline="text-before-edge">component for each </text><text x="100.96991729736328" y="50" font-family="Virgil, Segoe UI Emoji" font-size="20px" fill="#1971c2" text-anchor="middle" style="white-space: pre;" direction="ltr" dominant-baseline="text-before-edge">element in the batch</text><text x="100.96991729736328" y="75" font-family="Virgil, Segoe UI Emoji" font-size="20px" fill="#1971c2" text-anchor="middle" style="white-space: pre;" direction="ltr" dominant-baseline="text-before-edge">(hashLeftAndRight)</text></g><g stroke-linecap="round" transform="translate(1750.4807853874204 482.2179163729863) rotate(0 110.05757116156974 55)"><path d="M27.5 0 C85.34 2.54, 141.3 0.07, 192.62 0 M27.5 0 C61.29 -1.89, 94.87 -2.48, 192.62 0 M192.62 0 C209.24 1.21, 221.48 11.03, 220.12 27.5 M192.62 0 C209.46 -1.34, 218.95 8.58, 220.12 27.5 M220.12 27.5 C219.66 48.93, 220.79 68.85, 220.12 82.5 M220.12 27.5 C219.68 42.31, 219.77 57, 220.12 82.5 M220.12 82.5 C218.14 101.83, 210.68 109.92, 192.62 110 M220.12 82.5 C222.28 102.31, 211.76 111.48, 192.62 110 M192.62 110 C138.5 109.12, 85.59 109.93, 27.5 110 M192.62 110 C137.84 111.15, 80.51 110.03, 27.5 110 M27.5 110 C9.71 111.38, -0.31 101.22, 0 82.5 M27.5 110 C8.68 109.22, 0.63 100.43, 0 82.5 M0 82.5 C-0.27 68.88, 0.58 57.36, 0 27.5 M0 82.5 C0.04 67.33, -0.31 52.11, 0 27.5 M0 27.5 C1.58 8.6, 10.28 -0.61, 27.5 0 M0 27.5 C-0.04 7.93, 10.53 -0.88, 27.5 0" stroke="#1971c2" stroke-width="1" fill="none"></path></g><g transform="translate(1759.5284230773104 499.7179163729863) rotate(0 101.00993347167969 37.5)"><text x="101.00993347167969" y="0" font-family="Virgil, Segoe UI Emoji" font-size="20px" fill="#1971c2" text-anchor="middle" style="white-space: pre;" direction="ltr" dominant-baseline="text-before-edge">Hash the nonce and </text><text x="101.00993347167969" y="25" font-family="Virgil, Segoe UI Emoji" font-size="20px" fill="#1971c2" text-anchor="middle" style="white-space: pre;" direction="ltr" dominant-baseline="text-before-edge">vote option tree </text><text x="101.00993347167969" y="50" font-family="Virgil, Segoe UI Emoji" font-size="20px" fill="#1971c2" text-anchor="middle" style="white-space: pre;" direction="ltr" dominant-baseline="text-before-edge">root</text></g><g stroke-linecap="round" transform="translate(1985.3538780558242 484.9790626327554) rotate(0 110.05757116156974 55)"><path d="M27.5 0 C76.21 0.9, 127.83 1.95, 192.62 0 M27.5 0 C92.48 -0.47, 156.42 0.87, 192.62 0 M192.62 0 C210.12 -0.7, 220.1 8.28, 220.12 27.5 M192.62 0 C209.23 0.67, 221.88 8.07, 220.12 27.5 M220.12 27.5 C218.95 49.37, 221.47 67.59, 220.12 82.5 M220.12 27.5 C219.75 41.83, 219.17 54.55, 220.12 82.5 M220.12 82.5 C221.01 98.96, 211.93 108.6, 192.62 110 M220.12 82.5 C222.1 102.61, 212.08 111.51, 192.62 110 M192.62 110 C147.66 109.22, 102.91 110.6, 27.5 110 M192.62 110 C143.63 109.13, 93.09 109.18, 27.5 110 M27.5 110 C11.11 108.59, -0.25 99.51, 0 82.5 M27.5 110 C10.59 109.97, -0.21 98.99, 0 82.5 M0 82.5 C0.09 70.25, 0.22 54.94, 0 27.5 M0 82.5 C0.28 68.43, 0.22 53.23, 0 27.5 M0 27.5 C-0.71 10.75, 9.68 0.29, 27.5 0 M0 27.5 C-0.7 8.07, 8.33 -0.1, 27.5 0" stroke="#1971c2" stroke-width="1" fill="none"></path></g><g transform="translate(1992.391544127062 502.4790626327554) rotate(0 103.01990509033203 37.5)"><text x="103.01990509033203" y="0" font-family="Virgil, Segoe UI Emoji" font-size="20px" fill="#1971c2" text-anchor="middle" style="white-space: pre;" direction="ltr" dominant-baseline="text-before-edge">The ballot subroot </text><text x="103.01990509033203" y="25" font-family="Virgil, Segoe UI Emoji" font-size="20px" fill="#1971c2" text-anchor="middle" style="white-space: pre;" direction="ltr" dominant-baseline="text-before-edge">is the hash of these</text><text x="103.01990509033203" y="50" font-family="Virgil, Segoe UI Emoji" font-size="20px" fill="#1971c2" text-anchor="middle" style="white-space: pre;" direction="ltr" dominant-baseline="text-before-edge">two values</text></g><g stroke-linecap="round" transform="translate(1102.4444623505774 634.4136737231911) rotate(0 110.05757116156974 55)"><path d="M27.5 0 C91.1 2.71, 156.15 0.49, 192.62 0 M27.5 0 C80.17 0.81, 132.17 1.4, 192.62 0 M192.62 0 C210.81 1.46, 220.74 9.08, 220.12 27.5 M192.62 0 C213.04 1.27, 221.72 8.84, 220.12 27.5 M220.12 27.5 C220.01 47.84, 222.03 70.83, 220.12 82.5 M220.12 27.5 C220.08 40.1, 220.5 51.59, 220.12 82.5 M220.12 82.5 C221.3 99.44, 210.63 108.54, 192.62 110 M220.12 82.5 C221.56 102.92, 210.89 111.27, 192.62 110 M192.62 110 C145.41 109.56, 100.75 110.29, 27.5 110 M192.62 110 C144.95 109.26, 96.38 109.11, 27.5 110 M27.5 110 C7.45 111.38, 0.84 101.17, 0 82.5 M27.5 110 C9.45 107.88, -1.11 100.93, 0 82.5 M0 82.5 C0.54 63.3, -0.8 43.77, 0 27.5 M0 82.5 C-0.24 69.24, 0.08 56.49, 0 27.5 M0 27.5 C0.08 7.35, 10.48 0.77, 27.5 0 M0 27.5 C-1.06 7.83, 7.88 -1.4, 27.5 0" stroke="#1971c2" stroke-width="1" fill="none"></path></g><g transform="translate(1110.482113163026 651.9136737231911) rotate(0 102.0199203491211 37.5)"><text x="102.0199203491211" y="0" font-family="Virgil, Segoe UI Emoji" font-size="20px" fill="#1971c2" text-anchor="middle" style="white-space: pre;" direction="ltr" dominant-baseline="text-before-edge">5. Ensure that the </text><text x="102.0199203491211" y="25" font-family="Virgil, Segoe UI Emoji" font-size="20px" fill="#1971c2" text-anchor="middle" style="white-space: pre;" direction="ltr" dominant-baseline="text-before-edge">ballots are part of </text><text x="102.0199203491211" y="50" font-family="Virgil, Segoe UI Emoji" font-size="20px" fill="#1971c2" text-anchor="middle" style="white-space: pre;" direction="ltr" dominant-baseline="text-before-edge">the quinary tree</text></g><g stroke-linecap="round"><g transform="translate(1363.1669063231693 697.7052688159902) rotate(0 43.40186081131378 -0.3239300334945483)"><path d="M-0.2 0.03 C14.24 -0.14, 72.27 -0.76, 86.8 -0.76 M-1.76 -1 C12.5 -0.99, 71.17 0.88, 85.85 0.72" stroke="#1e1e1e" stroke-width="1" fill="none"></path></g><g transform="translate(1363.1669063231693 697.7052688159902) rotate(0 43.40186081131378 -0.3239300334945483)"><path d="M57.53 10.61 C66.5 7.52, 75.21 4.71, 85.85 0.72 M57.53 10.61 C66.62 7.55, 78.07 3.81, 85.85 0.72" stroke="#1e1e1e" stroke-width="1" fill="none"></path></g><g transform="translate(1363.1669063231693 697.7052688159902) rotate(0 43.40186081131378 -0.3239300334945483)"><path d="M57.79 -9.91 C66.72 -6.51, 75.35 -2.84, 85.85 0.72 M57.79 -9.91 C66.95 -5.73, 78.31 -2.21, 85.85 0.72" stroke="#1e1e1e" stroke-width="1" fill="none"></path></g></g><mask></mask><g stroke-linecap="round" transform="translate(1517.9942948775592 637.9721404146685) rotate(0 110.05757116156974 80.00000000000006)"><path d="M32 0 C75.26 -0.94, 115.06 1.94, 188.12 0 M32 0 C91.65 -0.46, 150.64 0.25, 188.12 0 M188.12 0 C208.51 -0.47, 218.78 11.72, 220.12 32 M188.12 0 C210.26 -1.18, 222.12 11.19, 220.12 32 M220.12 32 C219.49 52.15, 220.28 77.17, 220.12 128 M220.12 32 C218.79 54.23, 218.5 76.6, 220.12 128 M220.12 128 C221.44 150.58, 209.62 158.79, 188.12 160 M220.12 128 C219.32 149.9, 210.19 158.02, 188.12 160 M188.12 160 C143.46 157.47, 101.42 159.03, 32 160 M188.12 160 C131.12 161.73, 75.51 160.94, 32 160 M32 160 C9.48 160.32, -0.69 150.82, 0 128 M32 160 C9.29 159.7, 1.15 147.42, 0 128 M0 128 C1.66 106, 0.13 87.05, 0 32 M0 128 C0.15 107.03, 1.08 85.05, 0 32 M0 32 C1.48 10.17, 12.22 -0.3, 32 0 M0 32 C-1.12 12.13, 12.73 -0.74, 32 0" stroke="#1971c2" stroke-width="1" fill="none"></path></g><g transform="translate(1524.5619444693048 642.9721404146685) rotate(0 103.48992156982422 75.00000000000006)"><text x="103.48992156982422" y="0" font-family="Virgil, Segoe UI Emoji" font-size="20px" fill="#1971c2" text-anchor="middle" style="white-space: pre;" direction="ltr" dominant-baseline="text-before-edge">Create a component </text><text x="103.48992156982422" y="25" font-family="Virgil, Segoe UI Emoji" font-size="20px" fill="#1971c2" text-anchor="middle" style="white-space: pre;" direction="ltr" dominant-baseline="text-before-edge">(QuinLeafExists) to </text><text x="103.48992156982422" y="50" font-family="Virgil, Segoe UI Emoji" font-size="20px" fill="#1971c2" text-anchor="middle" style="white-space: pre;" direction="ltr" dominant-baseline="text-before-edge">be used to verify if </text><text x="103.48992156982422" y="75" font-family="Virgil, Segoe UI Emoji" font-size="20px" fill="#1971c2" text-anchor="middle" style="white-space: pre;" direction="ltr" dominant-baseline="text-before-edge">a leaf exists in a </text><text x="103.48992156982422" y="100" font-family="Virgil, Segoe UI Emoji" font-size="20px" fill="#1971c2" text-anchor="middle" style="white-space: pre;" direction="ltr" dominant-baseline="text-before-edge">quinary tree of </text><text x="103.48992156982422" y="125" font-family="Virgil, Segoe UI Emoji" font-size="20px" fill="#1971c2" text-anchor="middle" style="white-space: pre;" direction="ltr" dominant-baseline="text-before-edge">depth k</text></g><g stroke-linecap="round" transform="translate(1776.8429737015254 616.8738151448506) rotate(0 136.32924961337426 92.86453293636038)"><path d="M32 0 C88.93 0.16, 146.72 0.15, 240.66 0 M32 0 C76.15 0.69, 122.29 0.02, 240.66 0 M240.66 0 C262.21 0.59, 271.3 10.36, 272.66 32 M240.66 0 C262.72 2.11, 271.61 10.5, 272.66 32 M272.66 32 C270.88 77.82, 270.15 120.92, 272.66 153.73 M272.66 32 C270.99 65.17, 271.62 96.98, 272.66 153.73 M272.66 153.73 C273.78 176.22, 262.26 185.79, 240.66 185.73 M272.66 153.73 C274.18 177.22, 261.34 186.39, 240.66 185.73 M240.66 185.73 C177.72 186.64, 116.07 185.09, 32 185.73 M240.66 185.73 C159.97 185.86, 78.17 186.25, 32 185.73 M32 185.73 C11.05 184.21, -1.28 176.4, 0 153.73 M32 185.73 C9.47 185.46, 1.26 174.29, 0 153.73 M0 153.73 C-1.5 112.67, -2.26 67.53, 0 32 M0 153.73 C-0.96 129, -0.57 103.12, 0 32 M0 32 C-0.28 11.01, 11.67 0.16, 32 0 M0 32 C0.07 12.75, 8.67 -1.27, 32 0" stroke="#1971c2" stroke-width="1" fill="none"></path></g><g transform="translate(1782.152341112751 634.7383480812111) rotate(0 131.01988220214844 75)"><text x="131.01988220214844" y="0" font-family="Virgil, Segoe UI Emoji" font-size="20px" fill="#1971c2" text-anchor="middle" style="white-space: pre;" direction="ltr" dominant-baseline="text-before-edge">Create a component </text><text x="131.01988220214844" y="25" font-family="Virgil, Segoe UI Emoji" font-size="20px" fill="#1971c2" text-anchor="middle" style="white-space: pre;" direction="ltr" dominant-baseline="text-before-edge">(QuinGeneratePathIndices)</text><text x="131.01988220214844" y="50" font-family="Virgil, Segoe UI Emoji" font-size="20px" fill="#1971c2" text-anchor="middle" style="white-space: pre;" direction="ltr" dominant-baseline="text-before-edge">to generate the indices of</text><text x="131.01988220214844" y="75" font-family="Virgil, Segoe UI Emoji" font-size="20px" fill="#1971c2" text-anchor="middle" style="white-space: pre;" direction="ltr" dominant-baseline="text-before-edge">the path from a leaf to </text><text x="131.01988220214844" y="100" font-family="Virgil, Segoe UI Emoji" font-size="20px" fill="#1971c2" text-anchor="middle" style="white-space: pre;" direction="ltr" dominant-baseline="text-before-edge">the root of a quinary </text><text x="131.01988220214844" y="125" font-family="Virgil, Segoe UI Emoji" font-size="20px" fill="#1971c2" text-anchor="middle" style="white-space: pre;" direction="ltr" dominant-baseline="text-before-edge">tree with a depth of k</text></g><g stroke-linecap="round" transform="translate(2088.277882521772 629.1014295847467) rotate(0 129.2670985154955 92.5)"><path d="M32 0 C95.04 -1.06, 153.85 -1.68, 226.53 0 M32 0 C92.43 0.49, 153.81 0.48, 226.53 0 M226.53 0 C247.78 -0.73, 257.01 12.29, 258.53 32 M226.53 0 C247.45 -0.28, 258.98 10.8, 258.53 32 M258.53 32 C257.33 74.2, 256.6 119.99, 258.53 153 M258.53 32 C259.35 73.07, 258.42 115.1, 258.53 153 M258.53 153 C256.94 174.45, 246 184.96, 226.53 185 M258.53 153 C258.58 173.02, 247.3 184.93, 226.53 185 M226.53 185 C183.11 183.19, 136.81 184.69, 32 185 M226.53 185 C185.69 187.34, 144.56 186.34, 32 185 M32 185 C9.71 185.82, 1.66 173.17, 0 153 M32 185 C11.34 186.91, 0.04 176.25, 0 153 M0 153 C0.82 113.23, 2.13 77.27, 0 32 M0 153 C-1.08 104.1, 0.08 57.22, 0 32 M0 32 C-0.84 8.9, 9.15 -0.63, 32 0 M0 32 C-0.45 12.64, 10.67 1.7, 32 0" stroke="#1971c2" stroke-width="1" fill="none"></path></g><g transform="translate(2099.2350826608026 634.1014295847467) rotate(0 118.30989837646484 87.5)"><text x="118.30989837646484" y="0" font-family="Virgil, Segoe UI Emoji" font-size="20px" fill="#1971c2" text-anchor="middle" style="white-space: pre;" direction="ltr" dominant-baseline="text-before-edge">Loop from 0 to k and </text><text x="118.30989837646484" y="25" font-family="Virgil, Segoe UI Emoji" font-size="20px" fill="#1971c2" text-anchor="middle" style="white-space: pre;" direction="ltr" dominant-baseline="text-before-edge">assign the path indices </text><text x="118.30989837646484" y="50" font-family="Virgil, Segoe UI Emoji" font-size="20px" fill="#1971c2" text-anchor="middle" style="white-space: pre;" direction="ltr" dominant-baseline="text-before-edge">and elements to the </text><text x="118.30989837646484" y="75" font-family="Virgil, Segoe UI Emoji" font-size="20px" fill="#1971c2" text-anchor="middle" style="white-space: pre;" direction="ltr" dominant-baseline="text-before-edge">leaf existence checker </text><text x="118.30989837646484" y="100" font-family="Virgil, Segoe UI Emoji" font-size="20px" fill="#1971c2" text-anchor="middle" style="white-space: pre;" direction="ltr" dominant-baseline="text-before-edge">to confirm that each </text><text x="118.30989837646484" y="125" font-family="Virgil, Segoe UI Emoji" font-size="20px" fill="#1971c2" text-anchor="middle" style="white-space: pre;" direction="ltr" dominant-baseline="text-before-edge">ballot is part of the </text><text x="118.30989837646484" y="150" font-family="Virgil, Segoe UI Emoji" font-size="20px" fill="#1971c2" text-anchor="middle" style="white-space: pre;" direction="ltr" dominant-baseline="text-before-edge">quinary tree</text></g><g stroke-linecap="round" transform="translate(1104.0355308573048 799.7900063619686) rotate(0 110.05757116156974 55)"><path d="M27.5 0 C62.96 1.07, 95.39 1.07, 192.62 0 M27.5 0 C80.32 -0.5, 135.42 -0.1, 192.62 0 M192.62 0 C209.62 -0.29, 218.54 10.89, 220.12 27.5 M192.62 0 C211.48 -0.31, 220.47 8.87, 220.12 27.5 M220.12 27.5 C217.9 41.69, 219.94 53.81, 220.12 82.5 M220.12 27.5 C220.48 42.58, 220.58 57.64, 220.12 82.5 M220.12 82.5 C220.24 102.55, 209.96 109.42, 192.62 110 M220.12 82.5 C218.04 99.29, 212.86 111.25, 192.62 110 M192.62 110 C139.13 107.79, 87.39 108.16, 27.5 110 M192.62 110 C157.47 109.05, 123.23 107.93, 27.5 110 M27.5 110 C8.8 108, 1.61 101.6, 0 82.5 M27.5 110 C10.47 109.31, -1.06 102.87, 0 82.5 M0 82.5 C0.39 69.64, -1.32 57.64, 0 27.5 M0 82.5 C0.1 63.19, 0.63 44.39, 0 27.5 M0 27.5 C-1.16 7.27, 10.68 -1.04, 27.5 0 M0 27.5 C1.18 10.34, 11.01 -1.27, 27.5 0" stroke="#1971c2" stroke-width="1" fill="none"></path></g><g transform="translate(1120.3231816697535 829.7900063619686) rotate(0 93.7699203491211 25)"><text x="93.7699203491211" y="0" font-family="Virgil, Segoe UI Emoji" font-size="20px" fill="#1971c2" text-anchor="middle" style="white-space: pre;" direction="ltr" dominant-baseline="text-before-edge">6. Verify the vote </text><text x="93.7699203491211" y="25" font-family="Virgil, Segoe UI Emoji" font-size="20px" fill="#1971c2" text-anchor="middle" style="white-space: pre;" direction="ltr" dominant-baseline="text-before-edge">option root</text></g><g stroke-linecap="round"><g transform="translate(1380.4373230182182 878.0175076523058) rotate(0 43.40186081131378 -0.3239300334945483)"><path d="M-0.46 -0.57 C14.19 -0.42, 72.26 -0.16, 86.85 -0.09 M1.5 1.74 C16.09 1.62, 71.77 -1.25, 85.93 -1.92" stroke="#1e1e1e" stroke-width="1" fill="none"></path></g><g transform="translate(1380.4373230182182 878.0175076523058) rotate(0 43.40186081131378 -0.3239300334945483)"><path d="M58.27 9.71 C63.23 7.45, 70.93 5.37, 85.93 -1.92 M58.27 9.71 C66.99 6.45, 76.76 1.59, 85.93 -1.92" stroke="#1e1e1e" stroke-width="1" fill="none"></path></g><g transform="translate(1380.4373230182182 878.0175076523058) rotate(0 43.40186081131378 -0.3239300334945483)"><path d="M57.27 -10.79 C62.27 -8.73, 70.18 -6.5, 85.93 -1.92 M57.27 -10.79 C66.44 -7.07, 76.55 -4.96, 85.93 -1.92" stroke="#1e1e1e" stroke-width="1" fill="none"></path></g></g><mask></mask><g stroke-linecap="round" transform="translate(1517.9085486922213 825.6447984363513) rotate(0 110.05757116156974 80)"><path d="M32 0 C87.26 -0.45, 141.73 0.56, 188.12 0 M32 0 C81.68 -0.45, 133.22 -1.27, 188.12 0 M188.12 0 C211.33 -0.86, 220.51 12.13, 220.12 32 M188.12 0 C211.32 0.01, 219.36 11.68, 220.12 32 M220.12 32 C217.83 67.97, 218.37 103.62, 220.12 128 M220.12 32 C220.71 69.46, 220.2 104.79, 220.12 128 M220.12 128 C218.95 147.56, 207.73 159.09, 188.12 160 M220.12 128 C219.77 149.23, 211.13 160.36, 188.12 160 M188.12 160 C130.95 161.07, 74.37 163.04, 32 160 M188.12 160 C134.41 160.14, 80.71 158.88, 32 160 M32 160 C9.44 160.81, -0.32 150.14, 0 128 M32 160 C8.88 162.2, -1.81 149.14, 0 128 M0 128 C0.18 91.85, 0.43 53.43, 0 32 M0 128 C0.45 93.13, 0.37 57.68, 0 32 M0 32 C1.37 8.98, 11.73 0.59, 32 0 M0 32 C2.18 11.53, 9.18 -1.02, 32 0" stroke="#1971c2" stroke-width="1" fill="none"></path></g><g transform="translate(1525.6062184255684 868.1447984363513) rotate(0 102.35990142822266 37.5)"><text x="102.35990142822266" y="0" font-family="Virgil, Segoe UI Emoji" font-size="20px" fill="#1971c2" text-anchor="middle" style="white-space: pre;" direction="ltr" dominant-baseline="text-before-edge">verify the root of </text><text x="102.35990142822266" y="25" font-family="Virgil, Segoe UI Emoji" font-size="20px" fill="#1971c2" text-anchor="middle" style="white-space: pre;" direction="ltr" dominant-baseline="text-before-edge">the vote option tree</text><text x="102.35990142822266" y="50" font-family="Virgil, Segoe UI Emoji" font-size="20px" fill="#1971c2" text-anchor="middle" style="white-space: pre;" direction="ltr" dominant-baseline="text-before-edge">for each ballot.</text></g><g stroke-linecap="round" transform="translate(1777.368251223499 831.5883296481361) rotate(0 282.7599270289961 78.11321940185974)"><path d="M32 0 C230.2 0, 427.61 1.12, 533.52 0 M32 0 C221.48 0.08, 410.1 0.73, 533.52 0 M533.52 0 C553.85 1.22, 564.63 9.48, 565.52 32 M533.52 0 C555.98 1.77, 567.75 10.95, 565.52 32 M565.52 32 C566.88 58.56, 565.94 87.9, 565.52 124.23 M565.52 32 C565.97 56.51, 566.4 79.56, 565.52 124.23 M565.52 124.23 C565.58 143.64, 554.39 156.41, 533.52 156.23 M565.52 124.23 C566.39 143.78, 553.35 155.66, 533.52 156.23 M533.52 156.23 C366.34 155.56, 199.48 156.06, 32 156.23 M533.52 156.23 C350.28 156.59, 167.07 156.52, 32 156.23 M32 156.23 C10.55 155.06, 0.9 146.37, 0 124.23 M32 156.23 C8.88 155.84, -0.38 145.82, 0 124.23 M0 124.23 C0.87 88.29, 1.08 50.56, 0 32 M0 124.23 C-0.99 91.18, -0.96 57.16, 0 32 M0 32 C-1.07 9.49, 12.01 -1.48, 32 0 M0 32 C0.05 8.71, 9.46 1.87, 32 0" stroke="#1971c2" stroke-width="1" fill="none"></path></g><g transform="translate(1783.8584028618702 847.2015490499957) rotate(0 276.269775390625 62.5)"><text x="276.269775390625" y="0" font-family="Virgil, Segoe UI Emoji" font-size="20px" fill="#1971c2" text-anchor="middle" style="white-space: pre;" direction="ltr" dominant-baseline="text-before-edge">checks that the root of the vote option tree of the i-</text><text x="276.269775390625" y="25" font-family="Virgil, Segoe UI Emoji" font-size="20px" fill="#1971c2" text-anchor="middle" style="white-space: pre;" direction="ltr" dominant-baseline="text-before-edge">th ballot is equal to the root stored in the i-th </text><text x="276.269775390625" y="50" font-family="Virgil, Segoe UI Emoji" font-size="20px" fill="#1971c2" text-anchor="middle" style="white-space: pre;" direction="ltr" dominant-baseline="text-before-edge">ballot. If the roots are not equal, the circuit will not </text><text x="276.269775390625" y="75" font-family="Virgil, Segoe UI Emoji" font-size="20px" fill="#1971c2" text-anchor="middle" style="white-space: pre;" direction="ltr" dominant-baseline="text-before-edge">be satisfied, indicating that the vote options have </text><text x="276.269775390625" y="100" font-family="Virgil, Segoe UI Emoji" font-size="20px" fill="#1971c2" text-anchor="middle" style="white-space: pre;" direction="ltr" dominant-baseline="text-before-edge">been tampered with.</text></g><g stroke-linecap="round" transform="translate(1113.8236902290898 967.5197382409087) rotate(0 110.05757116156974 55)"><path d="M27.5 0 C69.33 1.71, 110.76 -0.07, 192.62 0 M27.5 0 C69.79 1.29, 112.91 0.18, 192.62 0 M192.62 0 C211.23 0.7, 220.6 10.84, 220.12 27.5 M192.62 0 C212.75 2.18, 221.76 11.33, 220.12 27.5 M220.12 27.5 C218.63 42.05, 218.46 60.7, 220.12 82.5 M220.12 27.5 C221.26 45.29, 220.39 63.88, 220.12 82.5 M220.12 82.5 C218.79 102.18, 208.99 108.45, 192.62 110 M220.12 82.5 C220.21 98.73, 213.16 112.21, 192.62 110 M192.62 110 C143.12 108.1, 95.49 109.01, 27.5 110 M192.62 110 C150.56 111.51, 107.95 110.11, 27.5 110 M27.5 110 C10.69 110.22, 0.93 100.58, 0 82.5 M27.5 110 C7.21 109.79, -1.85 102.33, 0 82.5 M0 82.5 C1.68 66.42, -0.33 48.26, 0 27.5 M0 82.5 C0.4 61.85, -0.33 43.54, 0 27.5 M0 27.5 C0.44 10.64, 8.34 0.66, 27.5 0 M0 27.5 C-0.62 8.09, 9.33 1.77, 27.5 0" stroke="#1971c2" stroke-width="1" fill="none"></path></g><g transform="translate(1138.811315101597 997.5197382409087) rotate(0 85.0699462890625 25)"><text x="85.0699462890625" y="0" font-family="Virgil, Segoe UI Emoji" font-size="20px" fill="#1971c2" text-anchor="middle" style="white-space: pre;" direction="ltr" dominant-baseline="text-before-edge">7. Tally the new </text><text x="85.0699462890625" y="25" font-family="Virgil, Segoe UI Emoji" font-size="20px" fill="#1971c2" text-anchor="middle" style="white-space: pre;" direction="ltr" dominant-baseline="text-before-edge">result</text></g><g stroke-linecap="round"><g transform="translate(1390.337813491574 1049.8673953251687) rotate(0 43.30460759050732 3.4532420039610088)"><path d="M1.18 -1.16 C15.76 0.02, 73.25 5.92, 87.41 7.22 M0.34 0.85 C14.83 1.63, 72.75 4.11, 86.88 5.26" stroke="#1e1e1e" stroke-width="1" fill="none"></path></g><g transform="translate(1390.337813491574 1049.8673953251687) rotate(0 43.30460759050732 3.4532420039610088)"><path d="M58.14 13.84 C64.67 12.36, 75.6 7.72, 86.88 5.26 M58.14 13.84 C65.44 12.24, 74.85 10.15, 86.88 5.26" stroke="#1e1e1e" stroke-width="1" fill="none"></path></g><g transform="translate(1390.337813491574 1049.8673953251687) rotate(0 43.30460759050732 3.4532420039610088)"><path d="M59.35 -6.65 C65.56 -2.07, 76.13 -0.67, 86.88 5.26 M59.35 -6.65 C66.5 -2.62, 75.57 0.93, 86.88 5.26" stroke="#1e1e1e" stroke-width="1" fill="none"></path></g></g><mask></mask><g stroke-linecap="round" transform="translate(1495.1626607409476 1016.3859032058281) rotate(0 218.81138583144366 36.4312641367178)"><path d="M18.22 0 C162.48 -0.7, 304.28 -1.28, 419.41 0 M18.22 0 C104.06 -1.93, 189.5 -2.09, 419.41 0 M419.41 0 C430.51 1.48, 435.68 5.62, 437.62 18.22 M419.41 0 C431.93 1.63, 438.53 5.89, 437.62 18.22 M437.62 18.22 C438.57 30.01, 439.45 46.11, 437.62 54.65 M437.62 18.22 C438.63 32.9, 438.22 47.72, 437.62 54.65 M437.62 54.65 C436.19 67.85, 429.96 74.6, 419.41 72.86 M437.62 54.65 C438.83 66.95, 429.91 73.28, 419.41 72.86 M419.41 72.86 C303.69 73.65, 189.77 74.18, 18.22 72.86 M419.41 72.86 C284 70.24, 147.35 71.13, 18.22 72.86 M18.22 72.86 C5.66 71.26, 1.48 65.58, 0 54.65 M18.22 72.86 C6.53 74.79, -2.22 65.57, 0 54.65 M0 54.65 C-1.87 41.01, 0.17 29.71, 0 18.22 M0 54.65 C-0.29 46.32, -0.45 38.21, 0 18.22 M0 18.22 C0.61 5.1, 5.54 1.73, 18.22 0 M0 18.22 C0.44 7.69, 7.55 0.14, 18.22 0" stroke="#1971c2" stroke-width="1" fill="none"></path></g><g transform="translate(1509.3842333399693 1040.3171673425459) rotate(0 204.58981323242188 12.5)"><text x="204.58981323242188" y="0" font-family="Virgil, Segoe UI Emoji" font-size="20px" fill="#1971c2" text-anchor="middle" style="white-space: pre;" direction="ltr" dominant-baseline="text-before-edge">use CalculateTotal to sum up the votes</text></g><g stroke-linecap="round" transform="translate(1113.6913650097881 1136.0669070474246) rotate(0 110.05757116156974 55)"><path d="M27.5 0 C92.18 -0.65, 155.6 -0.99, 192.62 0 M27.5 0 C91.2 -0.18, 153.12 0.71, 192.62 0 M192.62 0 C211.82 -1.95, 220.07 8.79, 220.12 27.5 M192.62 0 C210.22 -0.02, 221.35 7.12, 220.12 27.5 M220.12 27.5 C219.43 38.39, 219.37 50.94, 220.12 82.5 M220.12 27.5 C220.93 44.37, 220.43 59.47, 220.12 82.5 M220.12 82.5 C218.59 102.79, 210.27 108.93, 192.62 110 M220.12 82.5 C218.47 100.83, 211.49 108.95, 192.62 110 M192.62 110 C145.5 112.87, 99.82 110.58, 27.5 110 M192.62 110 C151.69 111.5, 109.66 109.94, 27.5 110 M27.5 110 C10.95 108.42, -1.23 99.82, 0 82.5 M27.5 110 C10.79 108.66, -1.52 99.99, 0 82.5 M0 82.5 C0.36 68.98, 1.61 54.91, 0 27.5 M0 82.5 C-0.03 64.14, 0.33 43.25, 0 27.5 M0 27.5 C-0.19 9.83, 9.47 -1.6, 27.5 0 M0 27.5 C-0.35 9.9, 9.27 -1.58, 27.5 0" stroke="#1971c2" stroke-width="1" fill="none"></path></g><g transform="translate(1122.6090283344438 1153.5669070474246) rotate(0 101.13990783691406 37.5)"><text x="101.13990783691406" y="0" font-family="Virgil, Segoe UI Emoji" font-size="20px" fill="#1971c2" text-anchor="middle" style="white-space: pre;" direction="ltr" dominant-baseline="text-before-edge">8. Tally the new </text><text x="101.13990783691406" y="25" font-family="Virgil, Segoe UI Emoji" font-size="20px" fill="#1971c2" text-anchor="middle" style="white-space: pre;" direction="ltr" dominant-baseline="text-before-edge">total of spent voice</text><text x="101.13990783691406" y="50" font-family="Virgil, Segoe UI Emoji" font-size="20px" fill="#1971c2" text-anchor="middle" style="white-space: pre;" direction="ltr" dominant-baseline="text-before-edge">credits</text></g><g stroke-linecap="round" transform="translate(480.7500883641337 948.0077161054639) rotate(0 203.01703692827346 58.69960147919426)"><path d="M29.35 0 C157.02 -0.47, 284.19 -0.3, 376.68 0 M29.35 0 C167.31 -1.76, 304.77 -1.73, 376.68 0 M376.68 0 C396.14 1.23, 405.92 10.5, 406.03 29.35 M376.68 0 C396.87 -0.43, 406.93 10.69, 406.03 29.35 M406.03 29.35 C407.19 48.05, 405.38 65.19, 406.03 88.05 M406.03 29.35 C406.37 51.44, 405.18 74.29, 406.03 88.05 M406.03 88.05 C404.95 109.58, 396.97 116.77, 376.68 117.4 M406.03 88.05 C407.26 106.78, 395.16 116.76, 376.68 117.4 M376.68 117.4 C240.85 117.16, 108.68 118.77, 29.35 117.4 M376.68 117.4 C261.11 119.26, 146.1 119.71, 29.35 117.4 M29.35 117.4 C9.19 117.16, -1.5 109, 0 88.05 M29.35 117.4 C9.6 117.16, 1.26 107.94, 0 88.05 M0 88.05 C0.13 65.13, 1.61 44.79, 0 29.35 M0 88.05 C0.68 76.59, -0.39 63.77, 0 29.35 M0 29.35 C0.93 8.14, 10.44 -1.03, 29.35 0 M0 29.35 C1.09 7.58, 8.03 -1.06, 29.35 0" stroke="#1971c2" stroke-width="1" fill="none"></path></g><g transform="translate(496.5172778802978 969.2073175846583) rotate(0 187.24984741210938 37.5)"><text x="187.24984741210938" y="0" font-family="Virgil, Segoe UI Emoji" font-size="20px" fill="#1971c2" text-anchor="middle" style="white-space: pre;" direction="ltr" dominant-baseline="text-before-edge">if this is the first batch then we do </text><text x="187.24984741210938" y="25" font-family="Virgil, Segoe UI Emoji" font-size="20px" fill="#1971c2" text-anchor="middle" style="white-space: pre;" direction="ltr" dominant-baseline="text-before-edge">not add the current result (as it </text><text x="187.24984741210938" y="50" font-family="Virgil, Segoe UI Emoji" font-size="20px" fill="#1971c2" text-anchor="middle" style="white-space: pre;" direction="ltr" dominant-baseline="text-before-edge">would be zero) to the calculation</text></g><g stroke-linecap="round"><g transform="translate(1072.5666577812376 1029.057968720134) rotate(0 -77.04585966563582 -18.342157370195764)"><path d="M-0.76 -0.29 C-26.27 -6.38, -127.24 -29.48, -152.93 -35.53 M1.04 -1.49 C-24.54 -7.36, -127.7 -31.43, -153.27 -37.04" stroke="#1e1e1e" stroke-width="1" fill="none"></path></g><g transform="translate(1072.5666577812376 1029.057968720134) rotate(0 -77.04585966563582 -18.342157370195764)"><path d="M-123.51 -40.8 C-133.21 -37.89, -140.04 -39.99, -153.27 -37.04 M-123.51 -40.8 C-133.63 -39.91, -142.04 -38.02, -153.27 -37.04" stroke="#1e1e1e" stroke-width="1" fill="none"></path></g><g transform="translate(1072.5666577812376 1029.057968720134) rotate(0 -77.04585966563582 -18.342157370195764)"><path d="M-128.06 -20.79 C-136.52 -24.07, -141.94 -32.39, -153.27 -37.04 M-128.06 -20.79 C-136.93 -26.1, -143.93 -30.41, -153.27 -37.04" stroke="#1e1e1e" stroke-width="1" fill="none"></path></g></g><mask></mask><g stroke-linecap="round" transform="translate(1492.7394119544851 1146.4081905402172) rotate(0 218.81138583144366 36.4312641367178)"><path d="M18.22 0 C173.54 -2.57, 328.12 -0.9, 419.41 0 M18.22 0 C151.33 0.93, 284.78 0.12, 419.41 0 M419.41 0 C433.01 1.18, 435.67 6.12, 437.62 18.22 M419.41 0 C431.12 -0.37, 438.07 4.21, 437.62 18.22 M437.62 18.22 C435.59 27.98, 436.83 40.16, 437.62 54.65 M437.62 18.22 C437.03 26.28, 437.52 33.86, 437.62 54.65 M437.62 54.65 C437.28 68.11, 432.05 71.36, 419.41 72.86 M437.62 54.65 C438.13 65.41, 430.91 70.75, 419.41 72.86 M419.41 72.86 C335.98 72.64, 251.76 70.99, 18.22 72.86 M419.41 72.86 C312.51 70.8, 206.15 71.21, 18.22 72.86 M18.22 72.86 C5.81 73.89, 1.23 66.3, 0 54.65 M18.22 72.86 C6.18 74.88, 0.69 66.55, 0 54.65 M0 54.65 C-1.53 40.36, 1.89 26.73, 0 18.22 M0 54.65 C-0.85 43.55, -0.97 30.42, 0 18.22 M0 18.22 C-1.92 7.78, 7.47 1.8, 18.22 0 M0 18.22 C-1.47 7.72, 5.17 1.32, 18.22 0" stroke="#1971c2" stroke-width="1" fill="none"></path></g><g transform="translate(1506.960984553507 1170.339454676935) rotate(0 204.58981323242188 12.5)"><text x="204.58981323242188" y="0" font-family="Virgil, Segoe UI Emoji" font-size="20px" fill="#1971c2" text-anchor="middle" style="white-space: pre;" direction="ltr" dominant-baseline="text-before-edge">use CalculateTotal to sum up the votes</text></g><g stroke-linecap="round" transform="translate(1972.6689821408604 1146.5105224069143) rotate(0 79.24150107935225 38.57681398772138)"><path d="M19.29 0 C60.89 0.34, 98.87 -0.71, 139.19 0 M19.29 0 C55.49 -0.55, 92.29 -0.65, 139.19 0 M139.19 0 C150.68 1.09, 159.57 4.73, 158.48 19.29 M139.19 0 C153.92 -0.55, 160.2 8.27, 158.48 19.29 M158.48 19.29 C160.3 31.26, 158.99 40.45, 158.48 57.87 M158.48 19.29 C157.68 33.92, 158.62 47.98, 158.48 57.87 M158.48 57.87 C158.84 71.22, 150.93 77.04, 139.19 77.15 M158.48 57.87 C158.25 70.74, 150.1 75.95, 139.19 77.15 M139.19 77.15 C112.18 75.87, 82.8 76.47, 19.29 77.15 M139.19 77.15 C111.77 76.93, 83.25 77.46, 19.29 77.15 M19.29 77.15 C6 76.45, 0.78 72.08, 0 57.87 M19.29 77.15 C8.49 78.19, -2.18 72.73, 0 57.87 M0 57.87 C-0.75 48.68, 1.49 34.41, 0 19.29 M0 57.87 C0.4 46.35, 0.92 33.98, 0 19.29 M0 19.29 C1.2 5.39, 5.77 0.96, 19.29 0 M0 19.29 C0.63 7.96, 7.67 0.27, 19.29 0" stroke="#1971c2" stroke-width="1" fill="none"></path></g><g transform="translate(1982.8305347949195 1160.0873363946357) rotate(0 69.07994842529297 25)"><text x="69.07994842529297" y="0" font-family="Virgil, Segoe UI Emoji" font-size="20px" fill="#1971c2" text-anchor="middle" style="white-space: pre;" direction="ltr" dominant-baseline="text-before-edge">votes are ** </text><text x="69.07994842529297" y="25" font-family="Virgil, Segoe UI Emoji" font-size="20px" fill="#1971c2" text-anchor="middle" style="white-space: pre;" direction="ltr" dominant-baseline="text-before-edge">2</text></g><g stroke-linecap="round"><g transform="translate(1386.5521811024482 1175.5596077182681) rotate(0 43.30460759050732 3.4532420039610088)"><path d="M-0.14 -0.35 C14.51 0.99, 72.72 5.84, 87.11 6.93 M-1.67 -1.58 C12.93 0.07, 71.94 7.03, 86.42 8.48" stroke="#1e1e1e" stroke-width="1" fill="none"></path></g><g transform="translate(1386.5521811024482 1175.5596077182681) rotate(0 43.30460759050732 3.4532420039610088)"><path d="M57.27 15.58 C63.69 14.76, 71.25 11.54, 86.42 8.48 M57.27 15.58 C65.33 14.86, 71.76 12.31, 86.42 8.48" stroke="#1e1e1e" stroke-width="1" fill="none"></path></g><g transform="translate(1386.5521811024482 1175.5596077182681) rotate(0 43.30460759050732 3.4532420039610088)"><path d="M59.53 -4.81 C65.22 -0.79, 72.24 0.84, 86.42 8.48 M59.53 -4.81 C66.97 -0.61, 72.86 1.78, 86.42 8.48" stroke="#1e1e1e" stroke-width="1" fill="none"></path></g></g><mask></mask><g stroke-linecap="round" transform="translate(1117.7441942595585 1294.3863144446018) rotate(0 110.05757116156974 55)"><path d="M27.5 0 C76.36 0.88, 128.45 1.17, 192.62 0 M27.5 0 C64.73 -1.2, 102.61 -0.61, 192.62 0 M192.62 0 C209.57 0.31, 218.85 7.46, 220.12 27.5 M192.62 0 C211.81 -0.56, 219.3 6.88, 220.12 27.5 M220.12 27.5 C220.11 45.13, 220.19 65.17, 220.12 82.5 M220.12 27.5 C218.94 45.07, 219.09 63.63, 220.12 82.5 M220.12 82.5 C221.33 102.26, 210.73 110.91, 192.62 110 M220.12 82.5 C219.35 102.04, 212.24 108.5, 192.62 110 M192.62 110 C129.87 107.42, 65.59 109.43, 27.5 110 M192.62 110 C131.78 108.53, 70.56 109.19, 27.5 110 M27.5 110 C8.89 110.62, -0.05 101.28, 0 82.5 M27.5 110 C6.92 111.19, 0.5 101.36, 0 82.5 M0 82.5 C-0.71 71.56, -0.97 57.49, 0 27.5 M0 82.5 C1.44 67.57, 0.15 52.5, 0 27.5 M0 27.5 C-1.05 7.59, 7.9 -1.11, 27.5 0 M0 27.5 C1.42 8.87, 7.61 0.76, 27.5 0" stroke="#1971c2" stroke-width="1" fill="none"></path></g><g transform="translate(1132.1018371374369 1311.8863144446018) rotate(0 95.6999282836914 37.5)"><text x="95.6999282836914" y="0" font-family="Virgil, Segoe UI Emoji" font-size="20px" fill="#1971c2" text-anchor="middle" style="white-space: pre;" direction="ltr" dominant-baseline="text-before-edge">9. Tally the spent </text><text x="95.6999282836914" y="25" font-family="Virgil, Segoe UI Emoji" font-size="20px" fill="#1971c2" text-anchor="middle" style="white-space: pre;" direction="ltr" dominant-baseline="text-before-edge">voice credits per </text><text x="95.6999282836914" y="50" font-family="Virgil, Segoe UI Emoji" font-size="20px" fill="#1971c2" text-anchor="middle" style="white-space: pre;" direction="ltr" dominant-baseline="text-before-edge">vote option</text></g><g stroke-linecap="round"><g transform="translate(1380.704206767043 1349.2947946610825) rotate(0 41.921522033748374 0.19873772120035937)"><path d="M0.94 -0.45 C14.78 -0.3, 69.35 0.65, 83.02 0.64 M-0.03 -1.73 C14.2 -1.95, 71.06 -1.7, 85.29 -1.36" stroke="#1e1e1e" stroke-width="1" fill="none"></path></g><g transform="translate(1380.704206767043 1349.2947946610825) rotate(0 41.921522033748374 0.19873772120035937)"><path d="M56.98 8.56 C64.58 4.04, 74.07 0.99, 85.29 -1.36 M56.98 8.56 C62.68 7.48, 70.28 3.62, 85.29 -1.36" stroke="#1e1e1e" stroke-width="1" fill="none"></path></g><g transform="translate(1380.704206767043 1349.2947946610825) rotate(0 41.921522033748374 0.19873772120035937)"><path d="M57.23 -11.96 C64.72 -10.44, 74.13 -7.45, 85.29 -1.36 M57.23 -11.96 C62.72 -8.46, 70.26 -7.75, 85.29 -1.36" stroke="#1e1e1e" stroke-width="1" fill="none"></path></g></g><mask></mask><g stroke-linecap="round" transform="translate(1517.2971365352591 1298.2482038886083) rotate(0 79.24150107935225 38.57681398772138)"><path d="M19.29 0 C44.02 -0.66, 69.35 1.55, 139.19 0 M19.29 0 C49.84 -1.97, 78.94 -2.08, 139.19 0 M139.19 0 C151.02 -1.76, 156.64 5.18, 158.48 19.29 M139.19 0 C149.76 0.79, 158.61 4.2, 158.48 19.29 M158.48 19.29 C159.83 29.23, 157.9 35.6, 158.48 57.87 M158.48 19.29 C157.63 29.38, 158.2 38.69, 158.48 57.87 M158.48 57.87 C159.74 70.88, 150.51 77.28, 139.19 77.15 M158.48 57.87 C158.46 70, 151.6 74.96, 139.19 77.15 M139.19 77.15 C97.91 77.95, 54.92 78.45, 19.29 77.15 M139.19 77.15 C96.77 76.81, 55.02 77.16, 19.29 77.15 M19.29 77.15 C6.52 75.82, 0.78 71.05, 0 57.87 M19.29 77.15 C4.63 78.98, -0.47 72.2, 0 57.87 M0 57.87 C0.49 45.02, 1.3 31.41, 0 19.29 M0 57.87 C0.81 44.76, 0.41 31.29, 0 19.29 M0 19.29 C-1.4 5.59, 6.45 -1.84, 19.29 0 M0 19.29 C0.22 4.54, 7.58 -0.34, 19.29 0" stroke="#1971c2" stroke-width="1" fill="none"></path></g><g transform="translate(1527.4586891893182 1311.8250178763296) rotate(0 69.07994842529297 25)"><text x="69.07994842529297" y="0" font-family="Virgil, Segoe UI Emoji" font-size="20px" fill="#1971c2" text-anchor="middle" style="white-space: pre;" direction="ltr" dominant-baseline="text-before-edge">votes are ** </text><text x="69.07994842529297" y="25" font-family="Virgil, Segoe UI Emoji" font-size="20px" fill="#1971c2" text-anchor="middle" style="white-space: pre;" direction="ltr" dominant-baseline="text-before-edge">2</text></g><g stroke-linecap="round" transform="translate(1125.25450690667 1456.2790403060596) rotate(0 110.05757116156974 55)"><path d="M27.5 0 C92.61 -2.74, 156.61 -1.78, 192.62 0 M27.5 0 C82.18 -0.47, 135.48 -0.07, 192.62 0 M192.62 0 C211.29 -0.95, 218.56 10.09, 220.12 27.5 M192.62 0 C210.27 1.57, 220.83 8.22, 220.12 27.5 M220.12 27.5 C218.53 49.92, 221.58 70.12, 220.12 82.5 M220.12 27.5 C219.65 47.35, 220.38 66.37, 220.12 82.5 M220.12 82.5 C220.8 102.61, 212.86 108.57, 192.62 110 M220.12 82.5 C222.01 99.38, 213.2 110.53, 192.62 110 M192.62 110 C136.11 111.22, 83.99 109.65, 27.5 110 M192.62 110 C153.89 109.82, 116.53 110.46, 27.5 110 M27.5 110 C10.41 110.22, 1.1 100.21, 0 82.5 M27.5 110 C10.39 110.88, 0.43 101.41, 0 82.5 M0 82.5 C-0.44 63.93, 1.24 44.1, 0 27.5 M0 82.5 C-0.61 69.02, 0.25 56.8, 0 27.5 M0 27.5 C1.83 8.76, 8.87 1.99, 27.5 0 M0 27.5 C0.13 11.13, 11.31 1.56, 27.5 0" stroke="#1971c2" stroke-width="1" fill="none"></path></g><g transform="translate(1151.9621329998804 1473.7790403060596) rotate(0 83.34994506835938 37.5)"><text x="83.34994506835938" y="0" font-family="Virgil, Segoe UI Emoji" font-size="20px" fill="#1971c2" text-anchor="middle" style="white-space: pre;" direction="ltr" dominant-baseline="text-before-edge">10. Verify the </text><text x="83.34994506835938" y="25" font-family="Virgil, Segoe UI Emoji" font-size="20px" fill="#1971c2" text-anchor="middle" style="white-space: pre;" direction="ltr" dominant-baseline="text-before-edge">current and new </text><text x="83.34994506835938" y="50" font-family="Virgil, Segoe UI Emoji" font-size="20px" fill="#1971c2" text-anchor="middle" style="white-space: pre;" direction="ltr" dominant-baseline="text-before-edge">Tally </text></g><g stroke-linecap="round"><g transform="translate(1080.2281008871016 1321.4560961437826) rotate(0 -96.0343022707234 -125.48286237005368)"><path d="M-0.47 -0.91 C-32.36 -42.83, -159.36 -210.47, -191.17 -252.05 M1.48 1.22 C-30.5 -40.53, -159.45 -208.8, -191.64 -251.08" stroke="#1e1e1e" stroke-width="1" fill="none"></path></g><g transform="translate(1080.2281008871016 1321.4560961437826) rotate(0 -96.0343022707234 -125.48286237005368)"><path d="M-166.37 -234.91 C-175.76 -238.59, -183.99 -243.92, -191.64 -251.08 M-166.37 -234.91 C-174.49 -241.2, -184.34 -246.41, -191.64 -251.08" stroke="#1e1e1e" stroke-width="1" fill="none"></path></g><g transform="translate(1080.2281008871016 1321.4560961437826) rotate(0 -96.0343022707234 -125.48286237005368)"><path d="M-182.68 -222.45 C-186.88 -229.98, -189.99 -239.22, -191.64 -251.08 M-182.68 -222.45 C-185.15 -232.93, -189.36 -242.44, -191.64 -251.08" stroke="#1e1e1e" stroke-width="1" fill="none"></path></g></g><mask></mask><g stroke-linecap="round"><g transform="translate(1390.5898138443122 1506.2730832009502) rotate(0 41.921522033748374 0.19873772120035937)"><path d="M0.5 -1.15 C14.62 -0.74, 71.33 1.11, 85.03 1.49 M-0.7 0.86 C13.34 1.04, 70.43 0.22, 84.71 -0.05" stroke="#1e1e1e" stroke-width="1" fill="none"></path></g><g transform="translate(1390.5898138443122 1506.2730832009502) rotate(0 41.921522033748374 0.19873772120035937)"><path d="M56.68 10.65 C63.97 9.03, 76.84 1.66, 84.71 -0.05 M56.68 10.65 C66.81 7.54, 76.43 3.96, 84.71 -0.05" stroke="#1e1e1e" stroke-width="1" fill="none"></path></g><g transform="translate(1390.5898138443122 1506.2730832009502) rotate(0 41.921522033748374 0.19873772120035937)"><path d="M56.36 -9.86 C63.59 -4.81, 76.56 -5.51, 84.71 -0.05 M56.36 -9.86 C66.43 -5.5, 76.17 -1.59, 84.71 -0.05" stroke="#1e1e1e" stroke-width="1" fill="none"></path></g></g><mask></mask><g stroke-linecap="round" transform="translate(1527.1827436125282 1455.2264924284764) rotate(0 155.50068085529665 48.72157468842897)"><path d="M24.36 0 C115.42 -3.59, 204.6 -3.45, 286.64 0 M24.36 0 C80.96 -0.47, 138.41 -0.94, 286.64 0 M286.64 0 C303.95 -0.18, 311.37 7.83, 311 24.36 M286.64 0 C303.06 0.38, 311.07 9.93, 311 24.36 M311 24.36 C309.56 38.06, 311.33 48.55, 311 73.08 M311 24.36 C310.36 42.2, 309.98 58.28, 311 73.08 M311 73.08 C312.18 89.24, 302.68 96.36, 286.64 97.44 M311 73.08 C311.86 88.88, 300.82 97.16, 286.64 97.44 M286.64 97.44 C212.73 98.87, 142.52 97.69, 24.36 97.44 M286.64 97.44 C216.62 97.31, 147.09 96.65, 24.36 97.44 M24.36 97.44 C7.95 96.78, 1.82 90.88, 0 73.08 M24.36 97.44 C7.05 98.37, 1.05 90.58, 0 73.08 M0 73.08 C0.44 55.06, 1.35 35.01, 0 24.36 M0 73.08 C-0.59 57.18, -0.69 40.71, 0 24.36 M0 24.36 C1.19 9.4, 9.82 -1.15, 24.36 0 M0 24.36 C1.97 10.37, 8.4 -0.79, 24.36 0" stroke="#1971c2" stroke-width="1" fill="none"></path></g><g transform="translate(1540.9135727832545 1491.4480671169053) rotate(0 141.7698516845703 12.5)"><text x="141.7698516845703" y="0" font-family="Virgil, Segoe UI Emoji" font-size="20px" fill="#1971c2" text-anchor="middle" style="white-space: pre;" direction="ltr" dominant-baseline="text-before-edge">use ResultCommitmentVerifier</text></g><g stroke-linecap="round"><g transform="translate(1080.3886880219522 1105.367356650987) rotate(0 -94.97617241785429 -49.426962130688025)"><path d="M-0.02 -1.17 C-31.8 -17.66, -159.44 -83.48, -190.93 -99.78 M-1.49 0.83 C-32.88 -15.46, -157.45 -82.31, -188.73 -98.72" stroke="#1e1e1e" stroke-width="1" fill="none"></path></g><g transform="translate(1080.3886880219522 1105.367356650987) rotate(0 -94.97617241785429 -49.426962130688025)"><path d="M-159.02 -94.56 C-169.21 -97.35, -177.06 -95.2, -188.73 -98.72 M-159.02 -94.56 C-167.12 -96.6, -176.91 -96.25, -188.73 -98.72" stroke="#1e1e1e" stroke-width="1" fill="none"></path></g><g transform="translate(1080.3886880219522 1105.367356650987) rotate(0 -94.97617241785429 -49.426962130688025)"><path d="M-168.65 -76.44 C-176.03 -84.27, -181.21 -87.17, -188.73 -98.72 M-168.65 -76.44 C-173.88 -83.83, -180.84 -88.81, -188.73 -98.72" stroke="#1e1e1e" stroke-width="1" fill="none"></path></g></g><mask></mask></svg>