<svg version="1.1" xmlns="http://www.w3.org/2000/svg" viewBox="0 0 1286.680238300206 782.2847070008811" width="3860.040714900618" height="2346.8541210026433">
  <!-- svg-source:excalidraw -->
  
  <defs>
    <style class="style-fonts">
      @font-face {
        font-family: "Virgil";
        src: url("https://excalidraw.com/Virgil.woff2");
      }
      @font-face {
        font-family: "Cascadia";
        src: url("https://excalidraw.com/Cascadia.woff2");
      }
      @font-face {
        font-family: "Assistant";
        src: url("https://excalidraw.com/Assistant-Regular.woff2");
      }
    </style>
    
  </defs>
  <rect x="0" y="0" width="1286.680238300206" height="782.2847070008811" fill="#ffffff"></rect><g stroke-linecap="round" transform="translate(324.29028620173494 269.73604376322464) rotate(0 114.33810379333897 33.80052213620297)"><path d="M16.9 0 C78.57 -0.92, 144.93 0.05, 211.78 0 M16.9 0 C57.94 -1.04, 98.51 -2.01, 211.78 0 M211.78 0 C221.72 1.37, 229.13 6.08, 228.68 16.9 M211.78 0 C221.37 2, 229.49 5.06, 228.68 16.9 M228.68 16.9 C227.57 27.95, 229.41 41.68, 228.68 50.7 M228.68 16.9 C228.75 29.22, 229.56 40.89, 228.68 50.7 M228.68 50.7 C228.03 61.15, 224.98 67.26, 211.78 67.6 M228.68 50.7 C230.26 62.09, 224.22 67.14, 211.78 67.6 M211.78 67.6 C148 67.17, 89.36 66.16, 16.9 67.6 M211.78 67.6 C166.4 68, 121.84 66.32, 16.9 67.6 M16.9 67.6 C7 67.06, 1.7 61, 0 50.7 M16.9 67.6 C7.42 67.24, 0.45 64.02, 0 50.7 M0 50.7 C0.33 37.67, 0.3 23.35, 0 16.9 M0 50.7 C0.4 44.12, -0.61 35.53, 0 16.9 M0 16.9 C-0.17 7.55, 4.62 1.32, 16.9 0 M0 16.9 C-1.61 6.89, 6.62 1.49, 16.9 0" stroke="#1971c2" stroke-width="1" fill="none"></path></g><g transform="translate(368.36844126460517 291.03656589942784) rotate(0 70.25994873046875 12.5)"><text x="70.25994873046875" y="0" font-family="Virgil, Segoe UI Emoji" font-size="20px" fill="#e03131" text-anchor="middle" style="white-space: pre;" direction="ltr" dominant-baseline="text-before-edge">UnpackElement</text></g><g stroke-linecap="round"><g transform="translate(424.72086352848055 184.36583288916108) rotate(0 -2.731305301702662 40.81570261330012)"><path d="M1.12 -1.1 C0.13 12.55, -4.41 68.7, -5.42 82.59 M0.25 0.94 C-0.94 14.2, -5.4 67.75, -6.35 80.97" stroke="#1e1e1e" stroke-width="1" fill="none"></path></g><g transform="translate(424.72086352848055 184.36583288916108) rotate(0 -2.731305301702662 40.81570261330012)"><path d="M-14.37 52.06 C-13.26 62.03, -7.07 72.81, -6.35 80.97 M-14.37 52.06 C-12.09 62.94, -8.38 72.64, -6.35 80.97" stroke="#1e1e1e" stroke-width="1" fill="none"></path></g><g transform="translate(424.72086352848055 184.36583288916108) rotate(0 -2.731305301702662 40.81570261330012)"><path d="M6.09 53.67 C0.13 63.27, -0.73 73.5, -6.35 80.97 M6.09 53.67 C1.17 63.89, -2.31 73.02, -6.35 80.97" stroke="#1e1e1e" stroke-width="1" fill="none"></path></g></g><mask></mask><g transform="translate(471.2751909446042 222.6132925665147) rotate(0 26.379974365234375 12.5)"><text x="0" y="0" font-family="Virgil, Segoe UI Emoji" font-size="20px" fill="#1e1e1e" text-anchor="start" style="white-space: pre;" direction="ltr" dominant-baseline="text-before-edge">Input</text></g><g transform="translate(482.5614270566066 371.18020027301054) rotate(0 34.84996032714844 12.5)"><text x="0" y="0" font-family="Virgil, Segoe UI Emoji" font-size="20px" fill="#1e1e1e" text-anchor="start" style="white-space: pre;" direction="ltr" dominant-baseline="text-before-edge">Output</text></g><g stroke-linecap="round"><g transform="translate(421.85685320184257 356.4953321746739) rotate(0 0.2229014099474398 20.511057519056294)"><path d="M0.23 -0.25 C0.2 6.6, 0.03 34.5, 0.08 41.4 M-0.32 0.81 C-0.19 7.48, 1.03 33.79, 1.13 40.63" stroke="#1e1e1e" stroke-width="1" fill="none"></path></g><g transform="translate(421.85685320184257 356.4953321746739) rotate(0 0.2229014099474398 20.511057519056294)"><path d="M-6.5 21.59 C-4.29 27.46, -0.52 34.89, 1.13 40.63 M-6.5 21.59 C-3.94 27.56, -1.35 33.51, 1.13 40.63" stroke="#1e1e1e" stroke-width="1" fill="none"></path></g><g transform="translate(421.85685320184257 356.4953321746739) rotate(0 0.2229014099474398 20.511057519056294)"><path d="M7.52 21.14 C4.91 27.19, 3.86 34.78, 1.13 40.63 M7.52 21.14 C5.57 27.32, 3.63 33.41, 1.13 40.63" stroke="#1e1e1e" stroke-width="1" fill="none"></path></g></g><mask></mask><g stroke-linecap="round" transform="translate(325.0209074898962 422.4216744410828) rotate(0 110.05757116156974 32.17741655087593)"><path d="M16.09 0 C81.62 1.7, 144.87 -0.21, 204.03 0 M16.09 0 C89.43 -0.17, 162.46 0.02, 204.03 0 M204.03 0 C213.62 0.95, 220.54 6.5, 220.12 16.09 M204.03 0 C216.14 -1.09, 219.81 5.96, 220.12 16.09 M220.12 16.09 C219.25 29.88, 219.72 41.16, 220.12 48.27 M220.12 16.09 C220.47 26.56, 219.36 34.9, 220.12 48.27 M220.12 48.27 C221.48 60.8, 215.11 63.02, 204.03 64.35 M220.12 48.27 C222.26 58.63, 214.88 65.98, 204.03 64.35 M204.03 64.35 C129.91 67.34, 55.91 67.19, 16.09 64.35 M204.03 64.35 C151.36 66.55, 97.78 66.28, 16.09 64.35 M16.09 64.35 C5.1 64.83, -1.82 57.42, 0 48.27 M16.09 64.35 C7.58 63.18, 1.66 61.06, 0 48.27 M0 48.27 C1.98 38.53, 1.39 29.42, 0 16.09 M0 48.27 C0.6 36.2, 0.23 25.76, 0 16.09 M0 16.09 C0.63 6.44, 5.17 -1.54, 16.09 0 M0 16.09 C-1.47 4.99, 3.86 2.26, 16.09 0" stroke="#1971c2" stroke-width="1" fill="none"></path></g><g transform="translate(403.62850459140736 442.09909099195875) rotate(0 31.449974060058594 12.5)"><text x="31.449974060058594" y="0" font-family="Virgil, Segoe UI Emoji" font-size="20px" fill="#2f9e44" text-anchor="middle" style="white-space: pre;" direction="ltr" dominant-baseline="text-before-edge">out[n]</text></g><g transform="translate(588.6231603290175 211.1000253712332) rotate(0 49.669944763183594 12.5)"><text x="0" y="0" font-family="Virgil, Segoe UI Emoji" font-size="20px" fill="#1e1e1e" text-anchor="start" style="white-space: pre;" direction="ltr" dominant-baseline="text-before-edge">Processing</text></g><g stroke-linecap="round"><g transform="translate(593.2915159969322 312.4346312261323) rotate(0 59.587677703881525 -25.581320235236035)"><path d="M0.43 -0.3 C20.56 -9.13, 99.93 -43.36, 119.9 -51.93 M-0.81 -1.5 C19.3 -9.67, 99.19 -42.59, 119.33 -50.79" stroke="#1e1e1e" stroke-width="1" fill="none"></path></g><g transform="translate(593.2915159969322 312.4346312261323) rotate(0 59.587677703881525 -25.581320235236035)"><path d="M97.14 -30.61 C101.5 -34.06, 105.77 -38.05, 119.33 -50.79 M97.14 -30.61 C103.13 -35.29, 109.19 -41.49, 119.33 -50.79" stroke="#1e1e1e" stroke-width="1" fill="none"></path></g><g transform="translate(593.2915159969322 312.4346312261323) rotate(0 59.587677703881525 -25.581320235236035)"><path d="M89.35 -49.59 C95.66 -48.77, 101.69 -48.44, 119.33 -50.79 M89.35 -49.59 C97.23 -49.47, 105.27 -50.82, 119.33 -50.79" stroke="#1e1e1e" stroke-width="1" fill="none"></path></g></g><mask></mask><g transform="translate(10 198.79168938098974) rotate(0 144.7598876953125 37.5)"><text x="0" y="0" font-family="Virgil, Segoe UI Emoji" font-size="20px" fill="#1e1e1e" text-anchor="start" style="white-space: pre;" direction="ltr" dominant-baseline="text-before-edge">Convert a field element (253</text><text x="0" y="25" font-family="Virgil, Segoe UI Emoji" font-size="20px" fill="#1e1e1e" text-anchor="start" style="white-space: pre;" direction="ltr" dominant-baseline="text-before-edge">bits) to n 50-bit elements</text><text x="0" y="50" font-family="Virgil, Segoe UI Emoji" font-size="20px" fill="#1e1e1e" text-anchor="start" style="white-space: pre;" direction="ltr" dominant-baseline="text-before-edge">1 &lt; n &lt;= 5</text></g><g stroke-linecap="round" transform="translate(315.4100325371529 107.7044164949898) rotate(0 110.05757116156974 32.17741655087593)"><path d="M16.09 0 C82.91 -2.82, 152.47 -1.27, 204.03 0 M16.09 0 C83.05 1.15, 150.95 0.75, 204.03 0 M204.03 0 C214.11 -0.82, 222.06 5.02, 220.12 16.09 M204.03 0 C216.34 0.12, 221.29 4.91, 220.12 16.09 M220.12 16.09 C218.66 27.71, 222.13 36.96, 220.12 48.27 M220.12 16.09 C220.47 24.3, 221.33 30.12, 220.12 48.27 M220.12 48.27 C221.48 58.45, 216.45 63.38, 204.03 64.35 M220.12 48.27 C221.9 58.63, 215.2 66.4, 204.03 64.35 M204.03 64.35 C133.55 65.28, 62.54 63.73, 16.09 64.35 M204.03 64.35 C163.18 64.29, 120.59 63.18, 16.09 64.35 M16.09 64.35 C5.2 66.27, -1.01 60.31, 0 48.27 M16.09 64.35 C3.76 65.61, 0.99 60.49, 0 48.27 M0 48.27 C0.84 36.87, 1.29 24.03, 0 16.09 M0 48.27 C-0.45 42.07, -0.35 34.37, 0 16.09 M0 16.09 C-0.49 5.73, 4.09 0.31, 16.09 0 M0 16.09 C-0.19 4.09, 5.69 0.38, 16.09 0" stroke="#1971c2" stroke-width="1" fill="none"></path></g><g transform="translate(328.2877025756758 127.38183304586573) rotate(0 97.17990112304688 12.5)"><text x="97.17990112304688" y="0" font-family="Virgil, Segoe UI Emoji" font-size="20px" fill="#1971c2" text-anchor="middle" style="white-space: pre;" direction="ltr" dominant-baseline="text-before-edge">input (field element)</text></g><g stroke-linecap="round" transform="translate(746.8780920439989 10) rotate(0 110.05757116156974 55)"><path d="M27.5 0 C68.85 0.86, 106.98 -0.62, 192.62 0 M27.5 0 C80.96 -0.18, 136.04 0.06, 192.62 0 M192.62 0 C212.33 0.1, 221.14 8.77, 220.12 27.5 M192.62 0 C211.38 1.49, 217.99 7.25, 220.12 27.5 M220.12 27.5 C219.27 49.63, 220.3 68.13, 220.12 82.5 M220.12 27.5 C221.3 47.61, 221.47 67.78, 220.12 82.5 M220.12 82.5 C221.66 100.52, 211.34 111.78, 192.62 110 M220.12 82.5 C221.9 102.03, 212.41 110.58, 192.62 110 M192.62 110 C143.68 110.43, 96.87 109.94, 27.5 110 M192.62 110 C128.15 110.6, 63.35 110.31, 27.5 110 M27.5 110 C7.77 111.09, 0.86 102.13, 0 82.5 M27.5 110 C10.86 108.49, 0.85 101.56, 0 82.5 M0 82.5 C-1.83 63, -0.62 44.74, 0 27.5 M0 82.5 C0.06 60.77, -0.33 38.82, 0 27.5 M0 27.5 C-0.16 8.06, 9.45 0.33, 27.5 0 M0 27.5 C-1.46 10.11, 9.28 0.6, 27.5 0" stroke="#1971c2" stroke-width="1" fill="none"></path></g><g transform="translate(761.7957553686546 15) rotate(0 95.13990783691406 50)"><text x="95.13990783691406" y="0" font-family="Virgil, Segoe UI Emoji" font-size="20px" fill="#1971c2" text-anchor="middle" style="white-space: pre;" direction="ltr" dominant-baseline="text-before-edge">1. Convert to bits </text><text x="95.13990783691406" y="25" font-family="Virgil, Segoe UI Emoji" font-size="20px" fill="#1971c2" text-anchor="middle" style="white-space: pre;" direction="ltr" dominant-baseline="text-before-edge">using </text><text x="95.13990783691406" y="50" font-family="Virgil, Segoe UI Emoji" font-size="20px" fill="#1971c2" text-anchor="middle" style="white-space: pre;" direction="ltr" dominant-baseline="text-before-edge">Num2Bits_strict() </text><text x="95.13990783691406" y="75" font-family="Virgil, Segoe UI Emoji" font-size="20px" fill="#1971c2" text-anchor="middle" style="white-space: pre;" direction="ltr" dominant-baseline="text-before-edge">of circomlib</text></g><g stroke-linecap="round" transform="translate(748.8778336764971 136.17584791652416) rotate(0 108.66984613635154 55)"><path d="M27.5 0 C86.53 1.58, 144.25 -0.43, 189.84 0 M27.5 0 C70.22 0.33, 112.06 0.08, 189.84 0 M189.84 0 C208.55 1.3, 215.5 7.5, 217.34 27.5 M189.84 0 C209.75 2.07, 217.75 7.63, 217.34 27.5 M217.34 27.5 C218.67 50.95, 215.31 72.12, 217.34 82.5 M217.34 27.5 C218.58 42.34, 218 58.39, 217.34 82.5 M217.34 82.5 C218.89 101.87, 209.44 110.5, 189.84 110 M217.34 82.5 C217.04 101.38, 206.08 108.19, 189.84 110 M189.84 110 C127.3 110.59, 60.73 111, 27.5 110 M189.84 110 C124.9 111.62, 61.79 111.72, 27.5 110 M27.5 110 C10.64 108.69, 0.74 101.46, 0 82.5 M27.5 110 C9.89 111.24, -0.23 99.06, 0 82.5 M0 82.5 C2.06 68.4, 1.02 56.02, 0 27.5 M0 82.5 C0.27 64.44, 0.49 47.65, 0 27.5 M0 27.5 C-1.27 9.99, 9.27 0.53, 27.5 0 M0 27.5 C-1.51 10.85, 8.22 -0.61, 27.5 0" stroke="#1971c2" stroke-width="1" fill="none"></path></g><g transform="translate(756.9177512239814 166.17584791652416) rotate(0 100.62992858886719 25)"><text x="100.62992858886719" y="0" font-family="Virgil, Segoe UI Emoji" font-size="20px" fill="#1971c2" text-anchor="middle" style="white-space: pre;" direction="ltr" dominant-baseline="text-before-edge">2. Loop from 0 to n</text><text x="100.62992858886719" y="25" font-family="Virgil, Segoe UI Emoji" font-size="20px" fill="#1971c2" text-anchor="middle" style="white-space: pre;" direction="ltr" dominant-baseline="text-before-edge">(not inclusive)</text></g><g stroke-linecap="round" transform="translate(752.0185281093542 264.59566225629806) rotate(0 110.05757116156974 42.5)"><path d="M21.25 0 C85.81 2.51, 151.68 1.95, 198.87 0 M21.25 0 C75.64 1, 128.73 -0.48, 198.87 0 M198.87 0 C214.4 1.8, 220.47 5.75, 220.12 21.25 M198.87 0 C215.18 -0.36, 220.24 8.71, 220.12 21.25 M220.12 21.25 C219.16 39.59, 218.73 56.07, 220.12 63.75 M220.12 21.25 C220.97 33.86, 220.83 45.67, 220.12 63.75 M220.12 63.75 C219.85 78.39, 211.21 83.42, 198.87 85 M220.12 63.75 C222.33 76.74, 214.69 87.07, 198.87 85 M198.87 85 C152.63 83.84, 103.89 83.45, 21.25 85 M198.87 85 C136.6 85.5, 73.24 86.47, 21.25 85 M21.25 85 C7.71 86.07, -0.2 76.38, 0 63.75 M21.25 85 C5.62 84.62, -1.51 80.18, 0 63.75 M0 63.75 C0.17 52.08, 0.11 42.79, 0 21.25 M0 63.75 C-0.7 53.76, -0.01 43.22, 0 21.25 M0 21.25 C-1.31 8.54, 6.26 -0.53, 21.25 0 M0 21.25 C-0.33 4.94, 8.21 0.87, 21.25 0" stroke="#1971c2" stroke-width="1" fill="none"></path></g><g transform="translate(757.7161978427013 282.09566225629806) rotate(0 104.35990142822266 25)"><text x="104.35990142822266" y="0" font-family="Virgil, Segoe UI Emoji" font-size="20px" fill="#1971c2" text-anchor="middle" style="white-space: pre;" direction="ltr" dominant-baseline="text-before-edge">3. Create n </text><text x="104.35990142822266" y="25" font-family="Virgil, Segoe UI Emoji" font-size="20px" fill="#1971c2" text-anchor="middle" style="white-space: pre;" direction="ltr" dominant-baseline="text-before-edge">Bits2Num components</text></g><g stroke-linecap="round" transform="translate(29.559420832270234 304.82800343592953) rotate(0 110.05757116156974 32.17741655087593)"><path d="M16.09 0 C77.49 -2.94, 135 0.06, 204.03 0 M16.09 0 C79.89 -0.21, 142.64 -0.33, 204.03 0 M204.03 0 C213.12 -1.84, 218.31 4.62, 220.12 16.09 M204.03 0 C216.99 -1.34, 222.17 3.65, 220.12 16.09 M220.12 16.09 C219.49 22.24, 218.11 33.82, 220.12 48.27 M220.12 16.09 C219.29 25.73, 219.32 33.15, 220.12 48.27 M220.12 48.27 C219.47 58.15, 215.81 64.62, 204.03 64.35 M220.12 48.27 C220.39 59.67, 214.78 63.08, 204.03 64.35 M204.03 64.35 C128.8 64.98, 54.36 64.36, 16.09 64.35 M204.03 64.35 C155.4 64.51, 107.98 63.64, 16.09 64.35 M16.09 64.35 C5.41 65.85, 0.08 60.69, 0 48.27 M16.09 64.35 C7.54 63.39, 0 59.39, 0 48.27 M0 48.27 C1.43 42.03, -0.81 33.18, 0 16.09 M0 48.27 C0.9 37.97, 0.04 26.83, 0 16.09 M0 16.09 C0.25 6.62, 4.61 0.83, 16.09 0 M0 16.09 C2.14 4.43, 5.88 -1.07, 16.09 0" stroke="#f08c00" stroke-width="1" fill="none"></path></g><g transform="translate(72.7370405167892 324.50541998680546) rotate(0 66.87995147705078 12.5)"><text x="66.87995147705078" y="0" font-family="Virgil, Segoe UI Emoji" font-size="20px" fill="#f08c00" text-anchor="middle" style="white-space: pre;" direction="ltr" dominant-baseline="text-before-edge">parameter: n </text></g><g stroke-linecap="round"><g transform="translate(270.36274933499556 325.8418427728834) rotate(0 22.27889688945629 -12.101152245474623)"><path d="M1.18 -0.11 C8.55 -4.15, 37.21 -19.52, 44.62 -23.67 M0.34 -1.22 C7.52 -5.67, 36.19 -21.69, 43.7 -25.51" stroke="#1e1e1e" stroke-width="1" fill="none"></path></g><g transform="translate(270.36274933499556 325.8418427728834) rotate(0 22.27889688945629 -12.101152245474623)"><path d="M26.82 -6.59 C32.2 -13, 38.94 -17.68, 43.7 -25.51 M26.82 -6.59 C30 -11.91, 35.66 -15.02, 43.7 -25.51" stroke="#1e1e1e" stroke-width="1" fill="none"></path></g><g transform="translate(270.36274933499556 325.8418427728834) rotate(0 22.27889688945629 -12.101152245474623)"><path d="M18.61 -21.86 C26.82 -23.24, 36.3 -22.79, 43.7 -25.51 M18.61 -21.86 C23.66 -23.62, 31.23 -23.18, 43.7 -25.51" stroke="#1e1e1e" stroke-width="1" fill="none"></path></g></g><mask></mask><g stroke-linecap="round" transform="translate(754.5485058920488 370.9144817149054) rotate(0 110.05757116156974 42.5)"><path d="M21.25 0 C59.27 -0.16, 92.05 2.54, 198.87 0 M21.25 0 C61.55 0.42, 100.93 -0.47, 198.87 0 M198.87 0 C214.74 1.72, 218.85 5.42, 220.12 21.25 M198.87 0 C212.14 1.41, 217.98 5.02, 220.12 21.25 M220.12 21.25 C218.32 37.36, 221.36 53.67, 220.12 63.75 M220.12 21.25 C220.44 30.84, 219.62 38.48, 220.12 63.75 M220.12 63.75 C218.6 77.55, 214.01 85.43, 198.87 85 M220.12 63.75 C221.75 75.98, 212.76 85.29, 198.87 85 M198.87 85 C143.53 85.06, 86.39 84.27, 21.25 85 M198.87 85 C135.51 84.35, 70.71 85.11, 21.25 85 M21.25 85 C7.15 85.36, 0.81 79.05, 0 63.75 M21.25 85 C5.62 86.25, -0.95 78.95, 0 63.75 M0 63.75 C-1.57 51.59, 0.29 42.51, 0 21.25 M0 63.75 C-0.88 55.05, 0.58 45.22, 0 21.25 M0 21.25 C-0.28 8.64, 8.72 1.26, 21.25 0 M0 21.25 C-0.55 6.78, 5.42 -0.09, 21.25 0" stroke="#1971c2" stroke-width="1" fill="none"></path></g><g transform="translate(769.3661478543997 388.4144817149054) rotate(0 95.23992919921875 25)"><text x="95.23992919921875" y="0" font-family="Virgil, Segoe UI Emoji" font-size="20px" fill="#1971c2" text-anchor="middle" style="white-space: pre;" direction="ltr" dominant-baseline="text-before-edge">4. Loop from 0 to </text><text x="95.23992919921875" y="25" font-family="Virgil, Segoe UI Emoji" font-size="20px" fill="#1971c2" text-anchor="middle" style="white-space: pre;" direction="ltr" dominant-baseline="text-before-edge">50 (not inclusive) </text></g><g stroke-linecap="round" transform="translate(755.2792629019352 481.16227513094964) rotate(0 110.05757116156974 55)"><path d="M27.5 0 C72.21 -0.66, 121.29 0.91, 192.62 0 M27.5 0 C84.68 -0.94, 143.06 -2.42, 192.62 0 M192.62 0 C212.69 -0.15, 221.29 8.32, 220.12 27.5 M192.62 0 C208.92 1.48, 221.03 11.47, 220.12 27.5 M220.12 27.5 C220.37 41.31, 222.32 56.16, 220.12 82.5 M220.12 27.5 C220.11 43.46, 220.09 58.96, 220.12 82.5 M220.12 82.5 C221.65 99.57, 211.3 110.97, 192.62 110 M220.12 82.5 C218.68 101.2, 209.45 110.62, 192.62 110 M192.62 110 C127.76 108.37, 61.23 111.49, 27.5 110 M192.62 110 C155.04 110.2, 115.84 110.34, 27.5 110 M27.5 110 C8.58 111.98, -1.63 102.08, 0 82.5 M27.5 110 C9.16 110.97, 0.86 99.77, 0 82.5 M0 82.5 C1.74 64.53, -1.33 47.07, 0 27.5 M0 82.5 C0.27 67.87, -0.18 52.92, 0 27.5 M0 27.5 C1.1 7.34, 8.42 1.65, 27.5 0 M0 27.5 C-1.07 8.88, 11.45 2.23, 27.5 0" stroke="#1971c2" stroke-width="1" fill="none"></path></g><g transform="translate(760.7169228696573 486.16227513094964) rotate(0 104.61991119384766 50)"><text x="104.61991119384766" y="0" font-family="Virgil, Segoe UI Emoji" font-size="20px" fill="#1971c2" text-anchor="middle" style="white-space: pre;" direction="ltr" dominant-baseline="text-before-edge">5. Assign as input to</text><text x="104.61991119384766" y="25" font-family="Virgil, Segoe UI Emoji" font-size="20px" fill="#1971c2" text-anchor="middle" style="white-space: pre;" direction="ltr" dominant-baseline="text-before-edge">the Bits2Num </text><text x="104.61991119384766" y="50" font-family="Virgil, Segoe UI Emoji" font-size="20px" fill="#1971c2" text-anchor="middle" style="white-space: pre;" direction="ltr" dominant-baseline="text-before-edge">components the input</text><text x="104.61991119384766" y="75" font-family="Virgil, Segoe UI Emoji" font-size="20px" fill="#1971c2" text-anchor="middle" style="white-space: pre;" direction="ltr" dominant-baseline="text-before-edge">bits in chunks of 50</text></g><g stroke-linecap="round" transform="translate(751.6516936539963 612.2847070008811) rotate(0 110.05757116156974 80)"><path d="M32 0 C71.34 -0.37, 108.8 1.8, 188.12 0 M32 0 C79.65 1.22, 126.31 1.08, 188.12 0 M188.12 0 C210.17 0.39, 219.53 12.12, 220.12 32 M188.12 0 C210.45 -1.3, 219.97 11.28, 220.12 32 M220.12 32 C222.42 63.97, 222.5 95.28, 220.12 128 M220.12 32 C220.49 58.23, 220.35 82.9, 220.12 128 M220.12 128 C219.9 147.89, 210.24 159.26, 188.12 160 M220.12 128 C220.86 149.5, 209.29 159.43, 188.12 160 M188.12 160 C129.37 161.93, 67.53 162.39, 32 160 M188.12 160 C156.8 160.91, 124.58 160.83, 32 160 M32 160 C11.42 158.05, -0.3 149.51, 0 128 M32 160 C9.05 161.59, 0.09 150.33, 0 128 M0 128 C0.95 93.54, 2.74 62.31, 0 32 M0 128 C0.12 107.31, 1.08 86.46, 0 32 M0 32 C-1.85 11.53, 10.27 -1.36, 32 0 M0 32 C2.17 10.22, 10.93 0.56, 32 0" stroke="#1971c2" stroke-width="1" fill="none"></path></g><g transform="translate(758.5293560631246 642.2847070008811) rotate(0 103.1799087524414 50)"><text x="103.1799087524414" y="0" font-family="Virgil, Segoe UI Emoji" font-size="20px" fill="#1971c2" text-anchor="middle" style="white-space: pre;" direction="ltr" dominant-baseline="text-before-edge">6. Wire the outputs </text><text x="103.1799087524414" y="25" font-family="Virgil, Segoe UI Emoji" font-size="20px" fill="#1971c2" text-anchor="middle" style="white-space: pre;" direction="ltr" dominant-baseline="text-before-edge">to the out array </text><text x="103.1799087524414" y="50" font-family="Virgil, Segoe UI Emoji" font-size="20px" fill="#1971c2" text-anchor="middle" style="white-space: pre;" direction="ltr" dominant-baseline="text-before-edge">(array of outputs </text><text x="103.1799087524414" y="75" font-family="Virgil, Segoe UI Emoji" font-size="20px" fill="#1971c2" text-anchor="middle" style="white-space: pre;" direction="ltr" dominant-baseline="text-before-edge">from Bits2Num)</text></g><g stroke-linecap="round" transform="translate(1056.5650959770664 277.81245647402284) rotate(0 110.05757116156975 42.5)"><path d="M21.25 0 C69.91 2.34, 120.28 -1.16, 198.87 0 M21.25 0 C82.15 0.81, 143.4 2.16, 198.87 0 M198.87 0 C212.17 0.79, 221.87 7.59, 220.12 21.25 M198.87 0 C210.82 0.58, 218.36 6.69, 220.12 21.25 M220.12 21.25 C218.32 36.93, 218.76 48.4, 220.12 63.75 M220.12 21.25 C220.78 30.34, 219.59 38.94, 220.12 63.75 M220.12 63.75 C220.41 79.81, 214 86.87, 198.87 85 M220.12 63.75 C221.1 79.45, 212.53 86.51, 198.87 85 M198.87 85 C146.85 87.61, 91.35 86.21, 21.25 85 M198.87 85 C133.12 86.78, 66.63 86.98, 21.25 85 M21.25 85 C6.21 86.7, 0.05 79.78, 0 63.75 M21.25 85 C7.47 85.61, -0.64 77.11, 0 63.75 M0 63.75 C-1.72 45.47, -0.18 29.99, 0 21.25 M0 63.75 C-0.99 55.66, -0.33 46.2, 0 21.25 M0 21.25 C1.27 5.66, 7.99 0.72, 21.25 0 M0 21.25 C1.09 8.2, 8.47 2.28, 21.25 0" stroke="#1971c2" stroke-width="1" fill="none"></path></g><g transform="translate(1064.0027406859995 282.81245647402284) rotate(0 102.61992645263672 37.5)"><text x="102.61992645263672" y="0" font-family="Virgil, Segoe UI Emoji" font-size="20px" fill="#1971c2" text-anchor="middle" style="white-space: pre;" direction="ltr" dominant-baseline="text-before-edge">Allows to convert a </text><text x="102.61992645263672" y="25" font-family="Virgil, Segoe UI Emoji" font-size="20px" fill="#1971c2" text-anchor="middle" style="white-space: pre;" direction="ltr" dominant-baseline="text-before-edge">50-bit input to a </text><text x="102.61992645263672" y="50" font-family="Virgil, Segoe UI Emoji" font-size="20px" fill="#1971c2" text-anchor="middle" style="white-space: pre;" direction="ltr" dominant-baseline="text-before-edge">number</text></g><g stroke-linecap="round"><g transform="translate(990.5812320283471 310.9111658052693) rotate(0 26.452024971070713 -1.8498228121004558)"><path d="M0.6 0.47 C9.56 -0.3, 44.4 -2.89, 53.02 -3.7 M-0.55 -0.33 C8.33 -0.98, 43.5 -1.65, 52.13 -2.17" stroke="#1e1e1e" stroke-width="1" fill="none"></path></g><g transform="translate(990.5812320283471 310.9111658052693) rotate(0 26.452024971070713 -1.8498228121004558)"><path d="M27.57 7.83 C34.11 5.52, 39.17 1.97, 52.13 -2.17 M27.57 7.83 C33.03 5.76, 38.58 2.38, 52.13 -2.17" stroke="#1e1e1e" stroke-width="1" fill="none"></path></g><g transform="translate(990.5812320283471 310.9111658052693) rotate(0 26.452024971070713 -1.8498228121004558)"><path d="M26.89 -10.3 C33.74 -8.3, 38.95 -7.53, 52.13 -2.17 M26.89 -10.3 C32.59 -7.99, 38.3 -6.99, 52.13 -2.17" stroke="#1e1e1e" stroke-width="1" fill="none"></path></g></g><mask></mask></svg>